<svg width="37" height="37" viewBox="0 0 37 37" fill="none" xmlns="http://www.w3.org/2000/svg">
<circle cx="18.5" cy="18.5" r="18.5" fill="#F1F1FF"/>
<g clip-path="url(#clip0_1078_1718)">
<path d="M20.4456 21.5266C20.7048 21.6981 20.8894 21.9528 21.1196 22.158C21.217 22.2927 21.3155 22.4274 21.413 22.5611C21.5613 22.7926 21.7085 23.0241 21.8568 23.2556C21.892 23.344 21.9263 23.4314 21.9615 23.5198C21.9511 23.5566 21.974 23.5693 22.002 23.5777C22.0414 23.6808 22.0808 23.7839 22.1202 23.8871C22.2892 24.4017 22.4416 24.9194 22.4789 25.4646C22.4737 25.5319 22.4727 25.5961 22.4862 25.6656C22.5339 25.9139 22.6013 26.1655 22.4603 26.4075C22.2104 26.78 21.9128 27.0021 21.4203 27C17.309 26.9831 13.1967 26.9905 9.0855 26.9895C8.41463 26.9895 8.03721 26.6211 8.00195 25.9381C8.02062 25.7803 8.10149 25.6298 8.0538 25.4646C8.07142 25.3414 8.08905 25.2194 8.10668 25.0962C8.10668 25.0615 8.10668 25.0257 8.10668 24.991C8.12223 24.8858 8.21451 24.7932 8.15852 24.6753C8.19274 24.5522 8.22799 24.4301 8.26221 24.307C8.44989 23.7797 8.6863 23.2756 8.95485 22.7863C9.2037 22.3348 9.60601 22.016 9.93159 21.6308C10.1348 21.5666 10.225 21.3593 10.3961 21.2551C10.955 20.8594 11.5699 20.5931 12.2252 20.409C12.6005 20.3037 12.9831 20.2522 13.3658 20.208C14.3352 20.0964 15.3089 20.1701 16.2804 20.1533C16.9005 20.1427 17.5091 20.2511 18.1178 20.3532C18.2038 20.3711 18.2909 20.3879 18.377 20.4058C18.9141 20.5931 19.4346 20.8215 19.9303 21.1046C20.064 21.294 20.2984 21.3572 20.4487 21.5255L20.4456 21.5266ZM15.2373 25.413C16.2732 25.413 17.309 25.413 18.3449 25.413C19.1391 25.413 19.9334 25.4109 20.7276 25.4151C20.88 25.4151 20.9661 25.3909 20.8915 25.2131C20.8749 25.1741 20.8707 25.131 20.8624 25.0889C20.6582 24.1407 20.2019 23.3346 19.4668 22.7179C18.6715 22.0507 17.7196 21.7518 16.7014 21.7413C15.6438 21.7297 14.5851 21.6887 13.5254 21.7771C12.8857 21.8307 12.2915 21.976 11.7264 22.2896C10.5879 22.921 9.93574 23.8934 9.65578 25.1625C9.59668 25.4298 9.68481 25.4172 9.87664 25.4172C11.6632 25.412 13.4508 25.4141 15.2373 25.4141V25.413Z" fill="#201B79"/>
<path d="M14.6431 10.2031C14.8909 10.2052 15.1387 10.2158 15.3855 10.2094C16.0626 10.1926 16.6816 10.4083 17.284 10.6914C17.4219 10.7788 17.5598 10.8661 17.6988 10.9545C17.8419 11.0882 17.9932 11.2145 18.127 11.3576C18.6351 11.8985 19.0726 12.4857 19.2562 13.2287C19.2686 13.2771 19.2956 13.3213 19.3153 13.3676C19.3495 13.6486 19.3847 13.9285 19.419 14.2095V14.5252C19.3702 14.8041 19.4086 15.0935 19.3153 15.3671C19.138 15.8133 19.0001 16.2711 18.7242 16.6805C18.1498 17.5329 17.3991 18.1285 16.4234 18.4158C15.8407 18.5874 15.2455 18.6442 14.642 18.5295C14.4875 18.5084 14.332 18.4863 14.1775 18.4653L13.6072 18.2548C13.5346 18.2169 13.461 18.1801 13.3884 18.1422C13.3812 18.0917 13.3563 18.0633 13.3024 18.0696C13.2205 18.1149 13.208 17.9833 13.1365 18.0033L13.1406 17.9823C13.1199 17.9696 13.0992 17.957 13.0784 17.9444L12.6263 17.6276C12.392 17.4424 12.1981 17.2161 12.0011 16.993C11.6423 16.4542 11.3074 15.9049 11.2151 15.2419C11.211 15.2114 11.1799 15.1861 11.1612 15.1577C11.2058 14.9925 11.1291 14.842 11.1094 14.6841V14.0527C11.1291 13.8948 11.2058 13.7444 11.1612 13.5791C11.2763 13.1782 11.3841 12.773 11.5967 12.4099C11.7274 12.1858 11.8663 11.9658 12.0021 11.7438C12.2199 11.5417 12.3837 11.285 12.6274 11.1092C13.1085 10.7714 13.6166 10.4894 14.1765 10.3094C14.3434 10.3273 14.4948 10.2736 14.6431 10.2042V10.2031ZM17.3379 15.9438C17.3566 15.9743 17.3836 15.9996 17.4136 15.9691C17.4437 15.9385 17.4188 15.9112 17.3898 15.8922C17.4053 15.8523 17.4167 15.8102 17.4375 15.7744C17.8139 15.1314 17.9694 14.4558 17.7558 13.717C17.5878 13.134 17.3016 12.6562 16.7977 12.2889C16.3322 11.949 15.823 11.7754 15.2797 11.7554C14.6431 11.7322 14.0427 11.9753 13.574 12.3963C12.8223 13.0698 12.5361 13.9464 12.7591 14.9556C12.899 15.5881 13.2215 16.1122 13.7534 16.4879C14.4108 16.953 15.119 17.1267 15.9112 16.9025C16.4929 16.7383 16.9584 16.4111 17.339 15.9449L17.3379 15.9438Z" fill="#201B79"/>
<path d="M28.6452 17.8918C28.5727 17.9949 28.5001 18.0981 28.4275 18.2012C28.2979 18.2138 28.2046 18.3338 28.0667 18.3212C27.4031 18.318 26.7384 18.3169 26.0748 18.3117C25.9763 18.3117 25.9131 18.3201 25.9151 18.4485C25.9255 19.0694 25.9276 19.6903 25.9338 20.3112C25.9193 20.3638 25.9048 20.4164 25.8892 20.469C25.8197 20.4817 25.7586 20.4975 25.8446 20.5764C25.828 20.6458 25.8114 20.7153 25.7959 20.7848C25.7233 20.8879 25.6507 20.991 25.5781 21.0942C25.4485 21.1068 25.3552 21.2268 25.2173 21.2141H25.0099C24.9073 21.1741 24.8036 21.1341 24.7009 21.0942C24.6107 20.991 24.5205 20.8879 24.4313 20.7848C24.4023 20.6259 24.3733 20.468 24.3453 20.3091C24.3505 19.6882 24.3536 19.0673 24.364 18.4474C24.366 18.3169 24.2997 18.3117 24.2032 18.3117C23.522 18.3169 22.8418 18.3191 22.1606 18.3212C22.0424 18.3285 21.9553 18.2412 21.8474 18.2138C21.7323 18.1286 21.6484 18.017 21.582 17.8907C21.5644 17.856 21.5478 17.8202 21.5301 17.7855C21.4939 17.6098 21.4939 17.4351 21.5301 17.2593C21.5478 17.2246 21.5644 17.1888 21.582 17.1541C21.6546 17.0352 21.7261 16.9162 21.8516 16.8447C21.9553 16.81 22.059 16.7742 22.1626 16.7394C22.8263 16.7373 23.4899 16.7289 24.1535 16.7373C24.3245 16.7394 24.3702 16.6889 24.366 16.5184C24.3515 15.9249 24.3515 15.3303 24.3463 14.7368C24.3754 14.5779 24.4044 14.42 24.4324 14.2611C24.4884 14.1275 24.5848 14.0306 24.702 13.9517C24.8057 13.917 24.9094 13.8812 25.013 13.8465C25.0867 13.8275 25.152 13.8591 25.2183 13.8844C25.3521 13.8749 25.4641 13.9433 25.5813 13.9907C25.687 14.0527 25.7357 14.1622 25.7969 14.2611C25.8135 14.3306 25.8301 14.4 25.8457 14.4695C25.7606 14.5484 25.8208 14.5652 25.8902 14.5768C25.9048 14.6305 25.9193 14.6842 25.9348 14.7368C25.9296 15.3556 25.9276 15.9733 25.9162 16.5921C25.9131 16.7415 25.996 16.7342 26.0955 16.7342C26.6544 16.7331 27.2123 16.7331 27.7711 16.7342C27.8717 16.7342 27.9754 16.7173 28.0677 16.7773C28.2015 16.7679 28.3134 16.8321 28.4306 16.8826C28.5447 16.9383 28.5841 17.0552 28.6463 17.1541C28.6639 17.1888 28.6805 17.2246 28.6981 17.2593C28.751 17.4351 28.751 17.6098 28.6981 17.7855C28.6805 17.8202 28.6639 17.856 28.6463 17.8907L28.6452 17.8918Z" fill="#201B79"/>
<path d="M22.4581 26.4075C22.5991 26.1655 22.5327 25.9129 22.484 25.6656C22.4705 25.5961 22.4715 25.532 22.4767 25.4646C22.7681 25.4741 22.8116 25.5193 22.7733 25.8014C22.7619 25.8877 22.7525 25.9655 22.7681 26.055C22.8148 26.3275 22.736 26.4075 22.457 26.4075H22.4581Z" fill="white"/>
<path d="M22.1193 23.887C22.0799 23.7839 22.0405 23.6808 22.0011 23.5776C21.9876 23.5587 21.9742 23.5387 21.9607 23.5198C21.9254 23.4314 21.8912 23.344 21.856 23.2556C22.2292 23.264 22.3226 23.364 22.3174 23.7018C22.3153 23.8544 22.2552 23.9018 22.1193 23.887Z" fill="white"/>
<path d="M19.3164 15.3661C19.4097 15.0925 19.3714 14.803 19.4201 14.5242C19.4533 14.5273 19.4999 14.5179 19.5186 14.5368C19.7156 14.7336 19.5798 14.982 19.6015 15.204C19.6181 15.3734 19.4481 15.3724 19.3164 15.365V15.3661Z" fill="white"/>
<path d="M19.4201 14.2095C19.3859 13.9285 19.3506 13.6485 19.3164 13.3676C19.5767 13.3781 19.6482 13.4581 19.6119 13.7148C19.6015 13.7917 19.5808 13.8601 19.6067 13.9411C19.6555 14.1011 19.5767 14.1874 19.4201 14.2084V14.2095Z" fill="white"/>
<path d="M20.4457 21.5266C20.2953 21.3582 20.061 21.2961 19.9272 21.1057C20.0455 20.8541 20.2186 21.1004 20.3658 21.0625C20.4561 21.0394 20.4447 21.1699 20.4467 21.2435C20.4498 21.3382 20.4467 21.4319 20.4457 21.5266Z" fill="white"/>
<path d="M25.8437 14.4705C25.8271 14.401 25.8105 14.3316 25.7949 14.2621C25.994 14.2516 26.1889 14.2221 26.1558 14.5452C26.1381 14.7146 26.0697 14.7472 25.9328 14.7378C25.9183 14.6841 25.9038 14.6304 25.8882 14.5778C25.8955 14.5326 25.8986 14.4884 25.8437 14.4705Z" fill="white"/>
<path d="M28.6455 17.8917C28.6631 17.857 28.6797 17.8212 28.6974 17.7865C29.0032 17.8033 28.8394 17.5581 28.8778 17.435C28.9234 17.2918 28.8124 17.2613 28.6974 17.2603C28.6797 17.2255 28.6631 17.1898 28.6455 17.155C29.0478 17.1592 28.997 17.1161 28.9991 17.5497C29.0012 17.8906 28.9991 17.8906 28.6455 17.8917Z" fill="white"/>
<path d="M14.6431 10.2031C14.4948 10.2725 14.3434 10.3262 14.1765 10.3083C14.1962 10.181 14.1008 9.98524 14.359 10.001C14.4969 10.0094 14.6742 9.95366 14.6431 10.2031Z" fill="white"/>
<path d="M25.8892 20.469C25.9037 20.4164 25.9183 20.3637 25.9338 20.3111C26.1557 20.2764 26.1464 20.4206 26.1536 20.5795C26.1619 20.7647 26.0727 20.8005 25.9224 20.7857C25.8809 20.7815 25.8374 20.7857 25.7959 20.7857C25.8125 20.7163 25.8291 20.6468 25.8446 20.5774C25.9006 20.5595 25.8965 20.5153 25.8892 20.47V20.469Z" fill="white"/>
<path d="M24.4305 14.2621C24.4014 14.421 24.3724 14.5788 24.3444 14.7377C24.0956 14.7725 24.1319 14.5978 24.1277 14.442C24.1194 14.1831 24.3092 14.2842 24.4315 14.2621H24.4305Z" fill="white"/>
<path d="M24.3434 20.308C24.3724 20.4669 24.4014 20.6247 24.4294 20.7837C24.2169 20.8131 24.0976 20.7616 24.1204 20.4995C24.135 20.329 24.2075 20.2975 24.3434 20.3069V20.308Z" fill="white"/>
<path d="M21.5802 17.1551C21.5625 17.1898 21.546 17.2256 21.5283 17.2603C21.3127 17.395 21.3127 17.6518 21.5283 17.7865C21.546 17.8212 21.5625 17.857 21.5802 17.8917C21.2774 17.8886 21.2878 17.8875 21.2743 17.4971C21.266 17.2645 21.2878 17.094 21.5802 17.1551Z" fill="white"/>
<path d="M14.1788 18.4642C14.3333 18.4852 14.4889 18.5073 14.6434 18.5284C14.6745 18.7694 14.5075 18.7241 14.3665 18.7346C14.1425 18.7515 14.1768 18.5999 14.1788 18.4631V18.4642Z" fill="white"/>
<path d="M17.6989 10.9545C17.561 10.8672 17.4231 10.7798 17.2842 10.6914C17.2966 10.5378 17.3982 10.5115 17.5185 10.5336C17.6315 10.5535 17.6937 10.6314 17.6989 10.7493C17.702 10.8177 17.6989 10.8861 17.6989 10.9556V10.9545Z" fill="white"/>
<path d="M25.5792 13.9917C25.462 13.9432 25.35 13.8759 25.2162 13.8854C25.21 13.7465 25.2712 13.6759 25.4122 13.6854C25.6258 13.6991 25.5688 13.8643 25.5792 13.9927V13.9917Z" fill="white"/>
<path d="M28.4299 16.8836C28.3127 16.833 28.2007 16.7689 28.067 16.7783C28.0587 16.6194 28.1427 16.5594 28.2868 16.5805C28.4776 16.6078 28.4174 16.7646 28.4299 16.8836Z" fill="white"/>
<path d="M21.4131 22.5611C21.3156 22.4264 21.2171 22.2916 21.1196 22.158C21.356 22.0612 21.4255 22.097 21.4317 22.3274C21.4338 22.4053 21.4203 22.4832 21.4131 22.5611Z" fill="white"/>
<path d="M28.0669 18.3211C28.2038 18.3338 28.2981 18.2138 28.4277 18.2012C28.4277 18.3127 28.4537 18.4422 28.2929 18.4653C28.182 18.4811 28.0824 18.4653 28.0669 18.3211Z" fill="white"/>
<path d="M25.2163 21.2141C25.3532 21.2267 25.4475 21.1067 25.5771 21.0941C25.5771 21.2057 25.6031 21.3351 25.4423 21.3583C25.3314 21.374 25.2319 21.3583 25.2163 21.2141Z" fill="white"/>
<path d="M22.1607 16.7404C22.057 16.7752 21.9533 16.8109 21.8496 16.8457C21.8372 16.7204 21.8828 16.6205 22.0052 16.5899C22.113 16.5636 22.1503 16.6457 22.1607 16.7415V16.7404Z" fill="white"/>
<path d="M25.0113 13.8475C24.9076 13.8822 24.8039 13.918 24.7002 13.9527C24.6878 13.8275 24.7334 13.7275 24.8558 13.697C24.9626 13.6707 25.0009 13.7528 25.0113 13.8485V13.8475Z" fill="white"/>
<path d="M24.6999 21.0941C24.8026 21.1341 24.9062 21.1741 25.0089 21.2141C24.9985 21.3025 24.956 21.374 24.8617 21.3519C24.7352 21.3225 24.6885 21.2225 24.6999 21.0941Z" fill="white"/>
<path d="M21.8457 18.2137C21.9525 18.2411 22.0396 18.3285 22.1588 18.3211C22.1495 18.4074 22.108 18.4779 22.0168 18.46C21.8924 18.4358 21.8436 18.339 21.8467 18.2137H21.8457Z" fill="white"/>
<path d="M18.3751 20.4069C18.2891 20.389 18.202 20.3722 18.1159 20.3543C18.1086 20.2406 18.1605 20.1954 18.2704 20.207C18.4042 20.2217 18.3658 20.3259 18.3751 20.4069Z" fill="white"/>
<path d="M21.9606 23.5198C21.974 23.5387 21.9875 23.5587 22.001 23.5777C21.973 23.5692 21.9502 23.5566 21.9606 23.5198Z" fill="#FCFCFC"/>
<path d="M17.3369 15.9438C17.339 15.9112 17.3566 15.8943 17.3888 15.8922C17.4188 15.9112 17.4437 15.9385 17.4126 15.969C17.3825 15.9996 17.3556 15.9743 17.3369 15.9438Z" fill="#201B79"/>
<path d="M28.6973 17.2603C28.8124 17.2603 28.9233 17.2918 28.8777 17.4349C28.8383 17.5581 29.0021 17.8033 28.6973 17.7864C28.7501 17.6107 28.7501 17.436 28.6973 17.2603Z" fill="white"/>
<path d="M21.5285 17.7864C21.3128 17.6517 21.3128 17.395 21.5285 17.2603C21.4922 17.436 21.4922 17.6107 21.5285 17.7864Z" fill="white"/>
<path d="M25.8896 20.469C25.8968 20.5142 25.8999 20.5584 25.845 20.5763C25.76 20.4974 25.8201 20.4816 25.8896 20.469Z" fill="#201B79"/>
<path d="M25.844 14.4705C25.9 14.4883 25.8958 14.5325 25.8886 14.5778C25.8191 14.5652 25.7579 14.5494 25.844 14.4705Z" fill="#201B79"/>
</g>
<defs>
<clipPath id="clip0_1078_1718">
<rect width="21" height="17" fill="white" transform="translate(8 10)"/>
</clipPath>
</defs>
</svg>
