<svg width="22" height="22" viewBox="0 0 22 22" fill="none" xmlns="http://www.w3.org/2000/svg">
<g id="Analytics">
<g id="Group">
<path id="Vector" d="M2.35949 0C2.34687 0.0252778 2.34742 0.0527537 2.34742 0.0802296C2.34797 6.24801 2.34907 12.4158 2.34961 18.5836C2.34961 18.6039 2.35016 18.6248 2.34961 18.6451C2.34852 18.6819 2.36498 18.7006 2.40285 18.7001C2.41657 18.7001 2.43029 18.7001 2.44401 18.7001C8.5675 18.7001 14.6915 18.7001 20.815 18.7001C20.8858 18.7001 20.9561 18.7023 21.0269 18.7039V21.0471C21.0022 21.0487 20.9769 21.0515 20.9522 21.0515C14.7662 21.0515 8.58067 21.0515 2.39462 21.0515C2.17782 21.0515 1.96323 21.0311 1.75247 20.9707C1.20362 20.8135 0.761251 20.5047 0.430845 20.0393C0.12404 19.6073 0 19.121 0 18.5946C0.00164654 12.4262 0.00109793 6.25791 0.00109793 0.0895713C0.00109793 0.0598974 0.00384226 0.0302235 0.0054888 0.00109903H2.35949V0Z" fill="#F37921"/>
<path id="Vector_2" d="M5.49677 13.6879C5.46933 13.6852 5.45616 13.6615 5.4386 13.6445C5.01379 13.2109 4.58898 12.7773 4.16417 12.3432C4.07471 12.252 3.9858 12.1602 3.89524 12.0701C3.86231 12.0371 3.86341 12.0157 3.89853 11.9811C4.52257 11.3623 5.16472 10.7628 5.78602 10.1413C6.33761 9.5896 6.9117 9.05986 7.46439 8.5098C8.1521 7.82565 8.85901 7.16183 9.54891 6.48043C9.85078 6.18204 10.1532 5.8842 10.454 5.58471C10.4891 5.55009 10.5127 5.5468 10.5495 5.58197C10.8414 5.86112 11.1362 6.13753 11.4282 6.41613C11.971 6.93433 12.5138 7.45362 13.0549 7.97292C13.353 8.25867 13.6493 8.54606 13.9452 8.83456C13.988 8.87632 14.0132 8.87523 14.0555 8.83291C14.5648 8.32571 15.0725 7.8163 15.5879 7.31514C16.4633 6.46394 17.325 5.599 18.1867 4.73406C18.4605 4.4593 18.7399 4.19004 19.0149 3.91638C19.0516 3.87956 19.0736 3.88176 19.1087 3.91693C19.6263 4.43842 20.1449 4.95881 20.6653 5.47811C20.7086 5.52152 20.7053 5.5424 20.6625 5.58526C20.2245 6.01883 19.7909 6.45625 19.353 6.88982C18.8628 7.37449 18.3744 7.86082 17.8821 8.34329C17.1894 9.02195 16.4979 9.7028 15.8145 10.3908C15.2498 10.959 14.6707 11.5124 14.1109 12.0855C14.0418 12.1564 14.039 12.1569 13.9682 12.0905C13.6856 11.825 13.398 11.564 13.123 11.2904C12.7575 10.926 12.3744 10.5815 12.005 10.2215C11.6878 9.91271 11.3711 9.60388 11.0484 9.30055C10.8854 9.14779 10.718 8.99887 10.5632 8.83731C10.522 8.79445 10.5006 8.81643 10.4699 8.8461C10.0665 9.23351 9.67515 9.63301 9.27229 10.0204C8.5297 10.7331 7.79864 11.4574 7.06099 12.1756C6.56044 12.6625 6.0544 13.1433 5.56099 13.6384C5.54178 13.6577 5.52641 13.6813 5.49568 13.6868L5.49677 13.6879Z" fill="#F37921"/>
</g>
</g>
</svg>
