<svg width="18" height="17" viewBox="0 0 18 17" fill="none" xmlns="http://www.w3.org/2000/svg">
<g clip-path="url(#clip0_1912_1606)">
<path d="M14.5293 3.69879H6.85773V4.84288H14.5293V3.69879ZM14.5293 6.51649H13.2513V7.66233H14.5293V6.51649ZM14.5293 9.33594H13.2513V10.4818H14.5293V9.33594ZM13.2513 13.2995H14.5293V12.1554H13.2513V13.2995ZM12.3369 12.1554H8.20773L8.33913 12.2075C8.55873 12.296 8.78373 12.3811 8.99973 12.4609C9.69453 12.7196 10.3191 12.9557 10.7871 13.2995H12.3369V12.1554ZM12.3369 7.66233V6.51649H7.91973C8.18643 6.85217 8.36436 7.24545 8.43813 7.66233H12.3369ZM17.0871 -0.0078125H4.30713C4.06524 -0.00735369 3.83339 0.0855296 3.66235 0.250501C3.49131 0.415473 3.39501 0.639091 3.39453 0.872396V5.80295C3.81081 5.54922 4.27731 5.38189 4.76433 5.31163V1.5842H16.6443V15.4141H11.6763C11.6997 15.8151 11.7051 16.3151 11.6763 16.9436V17.0061H17.0871C17.2075 17.0058 17.3267 16.9827 17.4378 16.9379C17.5488 16.8932 17.6497 16.8277 17.7345 16.7453C17.8193 16.6629 17.8863 16.5651 17.9319 16.4576C17.9774 16.3501 18.0004 16.235 17.9997 16.1189V0.87934C18.0004 0.76323 17.9774 0.648127 17.9319 0.540636C17.8863 0.433145 17.8193 0.335382 17.7345 0.252957C17.6497 0.170531 17.5488 0.105065 17.4378 0.0603157C17.3267 0.0155663 17.2075 -0.00758596 17.0871 -0.0078125ZM8.56233 10.4818H12.3423V9.33594H8.70813C8.7339 9.51303 8.74114 9.69217 8.72973 9.87066C8.71281 10.0825 8.65609 10.2895 8.56233 10.4818Z" fill="#593CC7"/>
<path d="M10.4791 14.3158C10.1587 13.8314 9.08055 13.531 8.01135 13.1005C7.56148 12.9312 7.12162 12.7382 6.69375 12.5224V11.5328C6.69375 11.5328 7.09335 11.2359 7.21755 10.3071C7.46775 10.3783 7.73055 9.94596 7.74315 9.71853C7.75575 9.4911 7.70895 8.89909 7.40475 8.96159C7.46575 8.60356 7.49406 8.24106 7.48935 7.87826C7.41015 7.08485 6.60195 6.24805 5.35635 6.24805C4.11075 6.24805 3.30075 7.08485 3.22155 7.87826C3.21776 8.24103 3.24607 8.60345 3.30615 8.96159C3.00195 8.89909 2.94615 9.50152 2.96775 9.71853C2.98935 9.93555 3.24315 10.3783 3.49335 10.3071C3.61755 11.2359 4.01895 11.5328 4.01895 11.5328L4.00815 12.5224C3.57973 12.7384 3.13925 12.9314 2.68875 13.1005C1.61955 13.5345 0.53955 13.8314 0.21375 14.3158C-0.07425 14.7498 0.01215 16.8331 0.01215 16.8331H10.6807C10.6807 16.8331 10.7671 14.7498 10.4791 14.3244" fill="#593CC7"/>
</g>
<defs>
<clipPath id="clip0_1912_1606">
<rect width="18" height="17" fill="white"/>
</clipPath>
</defs>
</svg>
