<svg xmlns="http://www.w3.org/2000/svg" width="21.214" height="27.642" viewBox="0 0 21.214 27.642"><defs><style>.a{fill:#f37921;}</style></defs><path class="a" d="M26.126,10.67a7.291,7.291,0,1,1-7.278,7.291A7.284,7.284,0,0,1,26.126,10.67Z" transform="translate(-15.51 -10.67)"/><path class="a" d="M33.249,31.35a.33.33,0,0,0-.05-.077,33.037,33.037,0,0,0-3.157-2.949.317.317,0,0,0-.191-.078.329.329,0,0,0-.19.033,8.621,8.621,0,0,1-7.9,0,.329.329,0,0,0-.19-.033.316.316,0,0,0-.191.078,33.039,33.039,0,0,0-3.157,2.949.329.329,0,0,0-.049.077A12.551,12.551,0,0,0,15.1,39.885a.326.326,0,0,0,.326.33H35.992a.326.326,0,0,0,.326-.33A12.55,12.55,0,0,0,33.249,31.35Z" transform="translate(-15.104 -12.573)"/></svg>