<svg xmlns="http://www.w3.org/2000/svg" width="152.958" height="91.171" viewBox="0 0 152.958 91.171">
  <g id="Group_1" data-name="Group 1" transform="translate(-321 -164)">
    <path id="Path_1" data-name="Path 1" d="M417.366,198.732A17.366,17.366,0,1,0,400,181.366,17.366,17.366,0,0,0,417.366,198.732Zm0-30.39a13.024,13.024,0,1,1-13.024,13.024A13.039,13.039,0,0,1,417.366,168.342Z" transform="translate(-30.387)" fill="#9f9cb1"/>
    <path id="Path_2" data-name="Path 2" d="M421.024,310.049A13.024,13.024,0,1,0,408,297.025,13.024,13.024,0,0,0,421.024,310.049Zm0-21.707a8.683,8.683,0,1,1-8.683,8.683A8.693,8.693,0,0,1,421.024,288.341Z" transform="translate(-34.158 -54.878)" fill="#9f9cb1"/>
    <path id="Path_3" data-name="Path 3" d="M333.025,310.049A13.024,13.024,0,1,0,320,297.025,13.024,13.024,0,0,0,333.025,310.049Zm0-21.707a8.683,8.683,0,1,1-8.683,8.683A8.693,8.693,0,0,1,333.025,288.341Z" transform="translate(1 -54.878)" fill="#9f9cb1"/>
    <path id="Path_4" data-name="Path 4" d="M344.1,257.757v-8.824h50.459v8.824c.922-.089,3.18,0,4.132,0s-.758-.089.164,0v-8.824h70.259v8.824c.922-.089-.016,0,.936,0s2.409-.089,3.331,0v-8.824c0-2.4-.519-4.341-3.625-4.341h-70.9V235.8c-.925.071.785,0-.164,0s-3.207.071-4.132,0v8.792H343.625c-3.107,0-3.625,1.944-3.625,4.341v8.824c.922-.089,1.874,0,2.827,0A6.063,6.063,0,0,1,344.1,257.757Z" transform="translate(-9.146 -32.835)" fill="#9f9cb1"/>
    <path id="Path_5" data-name="Path 5" d="M496,297.025A13.024,13.024,0,1,0,509.025,284,13.024,13.024,0,0,0,496,297.025Zm21.707,0a8.683,8.683,0,1,1-8.683-8.683A8.693,8.693,0,0,1,517.708,297.025Z" transform="translate(-48.091 -54.878)" fill="#9f9cb1"/>
    <rect id="Rectangle_2" data-name="Rectangle 2" width="23" height="5" transform="translate(419 211.243)" fill="#fff"/>
    <g id="Group_2" data-name="Group 2" transform="translate(387.607 170.971)">
      <path id="Path_6" data-name="Path 6" d="M52.059,50.444a1.142,1.142,0,0,1-1.615,1.615l-7.672-7.672L35.1,52.059a1.142,1.142,0,0,1-1.615-1.615l7.672-7.672L33.486,35.1A1.142,1.142,0,0,1,35.1,33.486l7.672,7.672,7.672-7.672A1.142,1.142,0,0,1,52.059,35.1l-7.672,7.672Z" transform="translate(0 0)" fill="#9f9cb1" stroke="#9f9cb1" stroke-linecap="square" stroke-width="2"/>
    </g>
  </g>
</svg>
