<svg width="22" height="22" viewBox="0 0 22 22" fill="none" xmlns="http://www.w3.org/2000/svg">
<path d="M21 0H0.875C0.391016 0 0 0.391016 0 0.875V21C0 21.484 0.391016 21.875 0.875 21.875H21C21.484 21.875 21.875 21.484 21.875 21V0.875C21.875 0.391016 21.484 0 21 0ZM7.32812 15.9688C6.72383 15.9688 6.23438 15.4793 6.23438 14.875C6.23438 14.2707 6.72383 13.7812 7.32812 13.7812C7.93242 13.7812 8.42188 14.2707 8.42188 14.875C8.42188 15.4793 7.93242 15.9688 7.32812 15.9688ZM7.32812 12.0312C6.72383 12.0312 6.23438 11.5418 6.23438 10.9375C6.23438 10.3332 6.72383 9.84375 7.32812 9.84375C7.93242 9.84375 8.42188 10.3332 8.42188 10.9375C8.42188 11.5418 7.93242 12.0312 7.32812 12.0312ZM7.32812 8.09375C6.72383 8.09375 6.23438 7.6043 6.23438 7C6.23438 6.3957 6.72383 5.90625 7.32812 5.90625C7.93242 5.90625 8.42188 6.3957 8.42188 7C8.42188 7.6043 7.93242 8.09375 7.32812 8.09375ZM15.6406 15.5312C15.6406 15.6516 15.5422 15.75 15.4219 15.75H10.3906C10.2703 15.75 10.1719 15.6516 10.1719 15.5312V14.2188C10.1719 14.0984 10.2703 14 10.3906 14H15.4219C15.5422 14 15.6406 14.0984 15.6406 14.2188V15.5312ZM15.6406 11.5938C15.6406 11.7141 15.5422 11.8125 15.4219 11.8125H10.3906C10.2703 11.8125 10.1719 11.7141 10.1719 11.5938V10.2812C10.1719 10.1609 10.2703 10.0625 10.3906 10.0625H15.4219C15.5422 10.0625 15.6406 10.1609 15.6406 10.2812V11.5938ZM15.6406 7.65625C15.6406 7.77656 15.5422 7.875 15.4219 7.875H10.3906C10.2703 7.875 10.1719 7.77656 10.1719 7.65625V6.34375C10.1719 6.22344 10.2703 6.125 10.3906 6.125H15.4219C15.5422 6.125 15.6406 6.22344 15.6406 6.34375V7.65625Z" fill="#F37921"/>
</svg>
