<svg width="26" height="23" viewBox="0 0 26 23" fill="none" xmlns="http://www.w3.org/2000/svg">
<path d="M9.50033 3.83333C10.738 3.83333 11.925 4.32499 12.8002 5.20016C13.6753 6.07533 14.167 7.26232 14.167 8.49999C14.167 9.73767 13.6753 10.9247 12.8002 11.7998C11.925 12.675 10.738 13.1667 9.50033 13.1667C8.26265 13.1667 7.07566 12.675 6.20049 11.7998C5.32532 10.9247 4.83366 9.73767 4.83366 8.49999C4.83366 7.26232 5.32532 6.07533 6.20049 5.20016C7.07566 4.32499 8.26265 3.83333 9.50033 3.83333ZM9.50033 15.5C12.6153 15.5 18.8337 17.0633 18.8337 20.1667V22.5H0.166992V20.1667C0.166992 17.0633 6.38533 15.5 9.50033 15.5ZM18.5537 4.25333C20.9103 6.81999 20.9103 10.3783 18.5537 12.735L16.5937 10.7633C17.5737 9.38666 17.5737 7.60166 16.5937 6.225L18.5537 4.25333ZM22.4153 0.333328C27.0003 5.05833 26.9653 12.1283 22.4153 16.6667L20.5137 14.765C23.7453 11.055 23.7453 5.75833 20.5137 2.235L22.4153 0.333328Z" fill="#F37921"/>
</svg>
