<svg width="22" height="14" viewBox="0 0 22 14" fill="none" xmlns="http://www.w3.org/2000/svg">
<g clip-path="url(#clip0_1078_2826)">
<path d="M1.60976 0C1.37098 0 1.14293 0.0511538 0.939024 0.142692L10.5305 8.75C10.7585 8.95462 11.2415 8.95462 11.4695 8.75L21.061 0.142692C20.8571 0.0511538 20.629 0 20.3902 0H1.60976ZM0.166341 0.899231C0.0617073 1.11462 0 1.35692 0 1.61538V12.3846C0 13.2785 0.719024 14 1.60976 14H20.3902C21.281 14 22 13.2785 22 12.3846V1.61538C22 1.35962 21.9383 1.11462 21.8337 0.899231L12.1832 9.54692C11.5124 10.1473 10.4902 10.1473 9.81951 9.54692L0.166341 0.899231Z" fill="#F37921"/>
</g>
<defs>
<clipPath id="clip0_1078_2826">
<rect width="22" height="14" fill="white"/>
</clipPath>
</defs>
</svg>
