<svg width="17" height="17" viewBox="0 0 17 17" fill="none" xmlns="http://www.w3.org/2000/svg">
<g clip-path="url(#clip0_1984_2927)">
<path d="M8.49996 0C3.83459 0 0.0380779 3.79667 0.000301589 8.44333C-0.0185866 10.71 0.850268 12.862 2.45576 14.4689C4.04101 16.0933 6.17672 16.9811 8.4433 16.9987H8.49996C13.1653 16.9987 16.9619 13.202 16.9996 8.55532C17.0374 3.87222 13.2409 0.0377778 8.49996 0ZM8.49996 15.8478H8.4433C6.47893 15.8289 4.64678 15.0544 3.24906 13.6553C2.57318 12.9714 2.03983 12.16 1.67993 11.2683C1.32002 10.3767 1.14074 9.42238 1.15248 8.46087C1.17137 4.43754 4.47679 1.15087 8.55663 1.15087C12.6176 1.16976 15.8852 4.49421 15.8663 8.55532C15.8286 12.5814 12.5231 15.8478 8.49996 15.8478Z" fill="#AE8A09"/>
<path d="M8.49903 10.3897C8.58333 10.3903 8.66691 10.3741 8.7449 10.3421C8.8229 10.31 8.89376 10.2628 8.95337 10.2032C9.01299 10.1436 9.06017 10.0727 9.09219 9.99475C9.1242 9.91676 9.14041 9.83318 9.13988 9.74887V4.45863C9.13988 4.2883 9.07222 4.12495 8.95178 4.00451C8.83134 3.88407 8.668 3.81641 8.49768 3.81641C8.32736 3.81641 8.16401 3.88407 8.04358 4.00451C7.92314 4.12495 7.85548 4.2883 7.85548 4.45863V9.74887C7.85494 9.83341 7.87123 9.91721 7.90342 9.99538C7.9356 10.0736 7.98303 10.1445 8.04293 10.2042C8.10283 10.2639 8.17401 10.311 8.25232 10.3428C8.33063 10.3747 8.41449 10.3906 8.49903 10.3897Z" fill="#AE8A09"/>
<path d="M8.50167 11.6367C8.27205 11.6393 8.05258 11.7317 7.8902 11.8941C7.72783 12.0565 7.63544 12.276 7.63281 12.5056V12.5434C7.63281 12.7738 7.72435 12.9948 7.88729 13.1578C8.05024 13.3207 8.27123 13.4123 8.50167 13.4123C8.7321 13.4123 8.9531 13.3207 9.11604 13.1578C9.27898 12.9948 9.37052 12.7738 9.37052 12.5434V12.5056C9.36789 12.276 9.27551 12.0565 9.11313 11.8941C8.95076 11.7317 8.73129 11.6393 8.50167 11.6367Z" fill="#AE8A09"/>
</g>
<defs>
<clipPath id="clip0_1984_2927">
<rect width="17" height="17" fill="white"/>
</clipPath>
</defs>
</svg>
