<svg width="20" height="20" viewBox="0 0 20 20" fill="none" xmlns="http://www.w3.org/2000/svg">
<path d="M10 20C15.5228 20 20 15.5228 20 10C20 4.47715 15.5228 0 10 0C4.47715 0 0 4.47715 0 10C0 15.5228 4.47715 20 10 20Z" fill="#F37921"/>
<path d="M10.4584 3.43359C10.8995 3.44524 11.3182 3.63019 11.624 3.94837C11.9297 4.26656 12.0977 4.69238 12.0917 5.13359C12.1038 5.55132 11.9508 5.95698 11.6658 6.26269C11.3809 6.56841 10.987 6.74957 10.5695 6.76693H10.4584C10.243 6.76839 10.0294 6.72722 9.82993 6.6458C9.63048 6.56437 9.44911 6.4443 9.29626 6.29248C9.14341 6.14067 9.02211 5.96011 8.93933 5.76122C8.85655 5.56233 8.81394 5.34902 8.81394 5.13359V5.06692C8.80502 4.85933 8.83749 4.65204 8.90944 4.45712C8.9814 4.2622 9.09141 4.08353 9.23307 3.93153C9.37473 3.77953 9.54521 3.65723 9.73459 3.57175C9.92397 3.48626 10.1285 3.4393 10.3362 3.43359H10.4584Z" fill="white"/>
<path d="M12.8228 14.9879C12.7575 15.1323 12.6672 15.2639 12.5561 15.3768C12.273 15.6841 11.9295 15.9295 11.5471 16.0977C11.1647 16.266 10.7517 16.3534 10.3339 16.3546C9.91799 16.3657 9.50184 16.3434 9.08948 16.2879C8.68685 16.2062 8.32671 15.9832 8.07406 15.6593C7.8214 15.3353 7.69289 14.9317 7.7117 14.5213C7.77837 13.9324 7.9117 13.3435 7.97837 12.7546C8.17837 11.7102 8.36726 10.6657 8.50059 9.61015V9.42127C8.50059 8.9546 8.36725 8.83237 7.9117 8.76571C7.73084 8.75416 7.55373 8.70894 7.38948 8.63237C7.18948 8.56571 7.05614 8.36571 7.12281 8.24348C7.18948 8.12126 7.25614 7.91016 7.52281 7.91016H11.0561C11.445 7.91016 11.7117 8.11015 11.7117 8.49904C11.7009 8.83234 11.6562 9.16367 11.5784 9.48793C11.3784 10.6657 11.1228 11.8435 10.9228 13.0213L10.7228 14.199C10.7119 14.3977 10.7345 14.5967 10.7895 14.7879C10.806 14.8932 10.8627 14.9879 10.9477 15.0522C11.0327 15.1164 11.1393 15.1452 11.245 15.1324H11.3117C11.5183 15.1013 11.7178 15.0336 11.9006 14.9324C12.0339 14.9324 12.2339 14.7435 12.3673 14.6768C12.6895 14.6102 12.8895 14.7435 12.8228 15.0102V14.9879Z" fill="white"/>
</svg>
