<svg width="34" height="23" viewBox="0 0 34 23" fill="none" xmlns="http://www.w3.org/2000/svg">
<path d="M31.3158 0H2.68421C1.20789 0 0 1.19423 0 2.65385V20.3462C0 21.8058 1.20789 23 2.68421 23H31.3158C32.7921 23 34 21.8058 34 20.3462V2.65385C34 1.19423 32.7921 0 31.3158 0ZM2.68421 1.76923H31.3158C31.8079 1.76923 32.2105 2.16731 32.2105 2.65385V4.81231L17 14.0035L1.78947 4.81231V2.65385C1.78947 2.16731 2.19211 1.76923 2.68421 1.76923ZM16.5347 15.7904C16.6779 15.8788 16.8389 15.9231 17 15.9231C17.1611 15.9231 17.3221 15.8788 17.4653 15.7904L20.2032 14.1362L27.3789 21.2308H6.63L13.7968 14.145L16.5347 15.7904ZM1.78947 20.3462V6.88231L12.2311 13.1896L4.10684 21.2308H2.68421C2.19211 21.2308 1.78947 20.8327 1.78947 20.3462ZM31.3158 21.2308H29.9021L21.7689 13.1896L32.2105 6.88231V20.3462C32.2105 20.8327 31.8079 21.2308 31.3158 21.2308Z" fill="#3EADC6"/>
</svg>
