<svg width="23" height="24" viewBox="0 0 23 24" fill="none" xmlns="http://www.w3.org/2000/svg">
<path d="M12.1379 12C12.1379 11.4477 11.7199 11 11.2042 11C10.6885 11 10.2705 11.4477 10.2705 12C10.2705 12.5523 10.6885 13 11.2042 13C11.7199 13 12.1379 12.5523 12.1379 12Z" stroke="black" stroke-width="2" stroke-linecap="round" stroke-linejoin="round"/>
<path d="M5.60224 12C5.60224 11.4477 5.18422 11 4.66855 11C4.15289 11 3.73486 11.4477 3.73486 12C3.73486 12.5523 4.15289 13 4.66855 13C5.18422 13 5.60224 12.5523 5.60224 12Z" stroke="black" stroke-width="2" stroke-linecap="round" stroke-linejoin="round"/>
<path d="M18.6738 12C18.6738 11.4477 18.2557 11 17.7401 11C17.2244 11 16.8064 11.4477 16.8064 12C16.8064 12.5523 17.2244 13 17.7401 13C18.2557 13 18.6738 12.5523 18.6738 12Z" stroke="black" stroke-width="2" stroke-linecap="round" stroke-linejoin="round"/>
</svg>
