<svg width="24" height="26" viewBox="0 0 24 26" fill="none" xmlns="http://www.w3.org/2000/svg">
<path d="M6.08677 13.3042C6.08677 12.6065 5.59758 12.1895 4.73949 12.1895C4.49891 12.1895 4.25832 12.2055 4.02576 12.2536V14.4991C4.21823 14.5312 4.41069 14.5472 4.60316 14.5472C5.51739 14.5472 6.07875 14.0821 6.07875 13.3042H6.08677Z" fill="#EE2424"/>
<path d="M11.3957 12.2054C11.131 12.2054 10.8744 12.2214 10.6178 12.2695V17.2497C10.8183 17.2817 11.0188 17.2898 11.2193 17.2817C12.775 17.2898 13.7935 16.4317 13.7935 14.6193C13.9299 13.4244 13.0718 12.3417 11.8688 12.2054C11.7165 12.1893 11.5561 12.1893 11.3957 12.2054Z" fill="#EE2424"/>
<path d="M21.5645 9.28661H20.939V6.27929C20.939 6.27929 20.939 6.23919 20.939 6.22315C20.939 6.10286 20.8989 5.98256 20.8187 5.89435L15.7985 0.16841C15.7985 0.16841 15.7343 0.104254 15.6942 0.0882148C15.6862 0.0882148 15.6702 0.0721757 15.6621 0.0641562C15.6301 0.0481171 15.598 0.0320781 15.5659 0.0240586H15.5418C15.5418 0.0240586 15.4616 0 15.4215 0H3.10356C2.54219 0 2.08508 0.457113 2.08508 1.01848V9.29463H1.45955C0.657601 9.29463 0.00801952 9.94421 0 10.7462V18.3166C0 19.1185 0.649581 19.7761 1.45955 19.7761H2.08508V24.9568C2.08508 25.5181 2.54219 25.9833 3.10356 25.9833H19.9125C20.4738 25.9833 20.931 25.5261 20.931 24.9648V19.7842H21.5565C22.3584 19.7842 23.016 19.1346 23.016 18.3246V10.7462C23.016 9.94421 22.3665 9.28661 21.5645 9.28661ZM3.10356 1.01046H14.9083V6.22315C14.9083 6.50383 15.1409 6.72838 15.4215 6.72838H19.9205V9.27859H3.10356V1.01046ZM15.614 14.5715C15.6782 15.7343 15.213 16.8731 14.3469 17.651C13.3204 18.3727 12.0854 18.7176 10.8344 18.6294C10.1848 18.6294 9.52719 18.5973 8.88563 18.5171V11.0429C9.65551 10.9306 10.4334 10.8745 11.2113 10.8825C12.31 10.7943 13.4086 11.083 14.3229 11.6925C15.197 12.3741 15.6782 13.4487 15.614 14.5554V14.5715ZM2.32566 18.5492V11.0429C3.09554 10.9226 3.87343 10.8745 4.65132 10.8825C5.46932 10.8183 6.29533 11.0349 6.97699 11.492C7.50627 11.925 7.803 12.5746 7.78696 13.2563C7.81102 13.9299 7.56241 14.5875 7.08926 15.0607C6.39958 15.6301 5.51743 15.9188 4.61925 15.8626C4.42678 15.8626 4.22629 15.8546 4.03382 15.8305V18.5492H2.33368H2.32566ZM19.9125 24.6761H3.10356V19.7681H19.9125V24.6761ZM21.3881 12.3501H18.469V14.0903H21.2036V15.4937H18.469V18.5572H16.7448V10.9467H21.3961V12.3581L21.3881 12.3501Z" fill="#EE2424"/>
</svg>
