<svg width="16" height="17" viewBox="0 0 16 17" fill="none" xmlns="http://www.w3.org/2000/svg">
<path d="M15.6626 15.5621L12.6193 12.3282C13.7198 10.9536 14.2942 9.18361 14.2272 7.3738C14.1602 5.56399 13.4568 3.84835 12.2583 2.57139C11.6415 1.9024 10.9064 1.37202 10.096 1.01132C9.28554 0.650622 8.41611 0.466848 7.53858 0.470764C5.76015 0.470764 4.05456 1.2279 2.79702 2.5756C1.53949 3.9233 0.833008 5.75118 0.833008 7.65711C0.833008 9.56305 1.53949 11.3909 2.79702 12.7386C4.05456 14.0863 5.76015 14.8435 7.53858 14.8435C9.13999 14.8461 10.6882 14.2276 11.8972 13.1022L14.9405 16.3637C15.0319 16.4535 15.1517 16.5029 15.2758 16.5019C15.3432 16.5012 15.4099 16.4862 15.4718 16.4578C15.5338 16.4293 15.5899 16.3879 15.6369 16.336C15.7336 16.2356 15.7903 16.0989 15.7951 15.9546C15.7999 15.8104 15.7524 15.6697 15.6626 15.5621ZM3.51524 11.9413C2.98678 11.3817 2.56842 10.7143 2.2849 9.97843C2.00139 9.24256 1.85848 8.45322 1.86463 7.65711C1.86876 6.04408 2.46112 4.49669 3.51524 3.3453C4.04237 2.77849 4.66973 2.33008 5.36058 2.02633C6.05143 1.72259 6.79188 1.56961 7.53858 1.57636C8.66065 1.57974 9.75674 1.93859 10.689 2.6078C11.6213 3.277 12.3481 4.22667 12.7781 5.33739C13.2081 6.44812 13.3221 7.6703 13.1057 8.85025C12.8893 10.0302 12.3522 11.1152 11.5619 11.9689C10.4876 13.0986 9.0437 13.7334 7.53858 13.7379C6.79063 13.7369 6.05022 13.5777 5.3598 13.2694C4.66938 12.9611 4.04254 12.5098 3.51524 11.9413Z" fill="#6E6E6E"/>
</svg>
