<svg width="17" height="17" viewBox="0 0 17 17" fill="none" xmlns="http://www.w3.org/2000/svg">
<path fill-rule="evenodd" clip-rule="evenodd" d="M8.25 2C4.52208 2 1.5 5.02208 1.5 8.75C1.5 12.4779 4.52208 15.5 8.25 15.5C11.9779 15.5 15 12.4779 15 8.75C15 5.02208 11.9779 2 8.25 2ZM0 8.75C0 4.19365 3.69365 0.5 8.25 0.5C12.8063 0.5 16.5 4.19365 16.5 8.75C16.5 13.3063 12.8063 17 8.25 17C3.69365 17 0 13.3063 0 8.75Z" fill="#7E7999"/>
<path fill-rule="evenodd" clip-rule="evenodd" d="M8.07809 3.59375C8.5527 3.59375 8.93744 3.91694 8.93744 4.31561V8.20063L11.8998 9.44483C12.3243 9.62312 12.4963 10.0567 12.2841 10.4133C12.0718 10.7699 11.5557 10.9144 11.1312 10.7361L7.69378 9.29241C7.40265 9.17014 7.21875 8.92018 7.21875 8.64676V4.31561C7.21875 3.91694 7.60349 3.59375 8.07809 3.59375Z" fill="#7E7999"/>
</svg>
