<svg width="25" height="24" viewBox="0 0 25 24" fill="none" xmlns="http://www.w3.org/2000/svg">
<path d="M12.5159 0C5.6327 0 0.0293583 5.37405 0.0268581 11.9813C0.025608 14.0933 0.601894 16.1551 1.6945 17.9719L0 24L6.54116 22.5164C8.36509 23.4716 10.4183 23.973 12.5085 23.9742H12.5134C19.3953 23.9742 24.9962 18.599 25 11.993C25.0025 8.79017 23.705 5.77888 21.3473 3.51328C18.9896 1.24888 15.8562 0.0012 12.5159 0ZM12.5134 2.4C15.1837 2.4012 17.6931 3.40056 19.5795 5.21016C21.466 7.02216 22.5023 9.42983 22.4998 11.9906C22.4973 17.2754 18.019 21.5742 12.511 21.5742C10.8446 21.573 9.1939 21.1714 7.74001 20.4094L6.89764 19.9688L5.96738 20.1797L3.5062 20.7375L4.10685 18.5953L4.37787 17.6344L3.86024 16.7719C2.98765 15.3223 2.52585 13.6649 2.5271 11.9813C2.5296 6.69885 7.00914 2.4 12.5134 2.4ZM8.09649 6.45C7.88772 6.45 7.55017 6.525 7.26389 6.825C6.97761 7.1238 6.17003 7.84749 6.17003 9.32109C6.17003 10.7947 7.28831 12.2191 7.44457 12.4195C7.59959 12.6187 9.60312 15.7383 12.7747 16.9383C15.4099 17.9355 15.9452 17.7387 16.5177 17.6883C17.0903 17.6391 18.3648 16.9652 18.6249 16.2656C18.8849 15.566 18.8855 14.9642 18.808 14.8406C18.7305 14.7158 18.5223 14.6414 18.2098 14.4914C17.8985 14.3414 16.3645 13.6184 16.0782 13.5188C15.7919 13.4192 15.5826 13.3688 15.375 13.6688C15.1675 13.9688 14.5711 14.6414 14.3886 14.8406C14.2061 15.041 14.0248 15.068 13.7123 14.918C13.3997 14.7668 12.3949 14.4497 11.2023 13.4297C10.2747 12.6365 9.64877 11.6578 9.46625 11.3578C9.28499 11.059 9.44916 10.8949 9.60543 10.7461C9.74544 10.6117 9.91552 10.3963 10.0718 10.2211C10.2268 10.0459 10.2806 9.92107 10.3843 9.72187C10.4881 9.52267 10.435 9.34688 10.3575 9.19688C10.2799 9.04688 9.67297 7.5678 9.39545 6.975C9.16167 6.477 8.91477 6.46543 8.69225 6.45703C8.51099 6.44983 8.30401 6.45 8.09649 6.45Z" fill="#339933"/>
</svg>
