<svg width="22" height="22" viewBox="0 0 22 22" fill="none" xmlns="http://www.w3.org/2000/svg">
<g clip-path="url(#clip0_1078_2834)">
<path fill-rule="evenodd" clip-rule="evenodd" d="M10.4946 0.0107892C13.377 -0.115308 16.1174 0.873766 18.2122 2.78887C20.3071 4.70791 21.5047 7.32442 21.5859 10.1655C21.6306 11.8009 21.3099 13.385 20.6278 14.8745C18.9024 18.6338 15.2527 21.0808 11.0954 21.2621C9.20358 21.3448 7.32389 20.9311 5.61878 20.0445C5.39955 19.9302 5.28588 19.8711 1.06776 21.4828L2.02181 17.3728C2.11518 17.2585 2.07865 17.0457 1.97715 16.9078C0.747035 15.2134 0.0609307 13.2037 0.00409362 11.1034C-0.0405641 9.46807 0.280159 7.88398 0.966264 6.39445C2.68355 2.63912 6.33737 0.192054 10.4946 0.0107892Z" fill="#F37921"/>
<path fill-rule="evenodd" clip-rule="evenodd" d="M9.17298 12.8127C8.53212 12.2119 7.08302 11.1042 6.41825 9.80865C5.59565 8.21274 5.5 7.69172 5.5 7.10499C5.5 6.51825 5.64826 6.30703 5.80608 6.20376C5.96391 6.1005 7.12606 5.32601 7.12606 5.32601C7.12606 5.32601 7.40823 5.11948 7.67127 5.58417C7.87692 5.95499 8.8669 7.4007 8.8669 7.4007C8.8669 7.4007 9.11559 7.59315 9.15864 7.89356C9.19211 8.11886 8.94821 8.38641 8.7856 8.5507C8.44604 8.88866 8.35039 8.91682 8.35039 9.36274C8.35039 9.80865 9.45994 11.0244 9.7708 11.3295C10.0817 11.6346 10.053 11.6393 10.383 11.9303C10.7751 12.2776 11.7938 13.1835 12.229 13.0474C12.626 12.9254 12.779 12.9207 13.1425 12.5358C13.4438 12.2166 14.0368 12.4044 14.2855 12.5921C14.5342 12.7846 15.7968 13.4605 16.1603 13.6952C16.519 13.9299 16.4998 14.3101 16.4998 14.3101C16.4998 14.3101 15.7585 15.4037 15.6581 15.5493C15.5529 15.7042 15.2755 15.8403 14.6777 15.8403C14.0799 15.8403 13.4725 15.845 11.9229 14.9015C10.6986 14.1552 9.80906 13.3995 9.1682 12.7986" fill="white"/>
</g>
<defs>
<clipPath id="clip0_1078_2834">
<rect width="22" height="22" fill="white"/>
</clipPath>
</defs>
</svg>
