<svg width="24" height="26" viewBox="0 0 24 26" fill="none" xmlns="http://www.w3.org/2000/svg">
<path d="M22.3322 9.2182H21.7177V6.22965C21.7177 6.22965 21.7177 6.19598 21.7177 6.17072C21.7177 6.05286 21.6756 5.935 21.5998 5.8424L16.6329 0.168369C16.6329 0.168369 16.5656 0.10944 16.5319 0.0841844C16.5235 0.0841844 16.5066 0.0673475 16.4982 0.0673475C16.4646 0.0505106 16.4309 0.0336738 16.3972 0.0252553H16.3719C16.3719 0.0252553 16.2962 0 16.2541 0H4.04734C3.49172 0 3.03713 0.454596 3.03713 1.01021V9.2182H2.42258C1.62283 9.2182 0.974609 9.86642 0.974609 10.6578V18.167C0.974609 18.9668 1.62283 19.6066 2.41416 19.6066H3.02871V24.7502C3.02871 25.3059 3.48331 25.7604 4.03892 25.7604H20.7074C21.2631 25.7604 21.7177 25.3059 21.7177 24.7502V19.615H22.3322C23.132 19.615 23.7802 18.9668 23.7802 18.1754V10.6662C23.7802 9.86642 23.132 9.22662 22.3322 9.22662V9.2182ZM4.03892 1.01021H15.7406V6.17914C15.7406 6.45695 15.9679 6.68425 16.2457 6.68425H20.7074V9.2182H4.03892V1.01021ZM18.4429 14.9175C17.1717 14.4713 16.3467 13.7726 16.3467 12.6613C16.3467 11.3565 17.4327 10.3631 19.2342 10.3631C19.9077 10.3547 20.5643 10.481 21.1873 10.7504L20.8001 12.1394C20.3034 11.8953 19.7562 11.7774 19.2005 11.7774C18.4513 11.7774 18.0893 12.1141 18.0893 12.5182C18.0893 13.0065 18.5187 13.217 19.5036 13.5958C20.8506 14.0925 21.4904 14.7996 21.4904 15.8772C21.4904 17.1568 20.5054 18.2428 18.4092 18.2428C17.66 18.2512 16.9191 18.0912 16.2457 17.7798L16.5992 16.3486C17.197 16.6517 17.8452 16.8116 18.5187 16.8285C19.31 16.8285 19.7309 16.5002 19.7309 16.0035C19.7309 15.5068 19.3689 15.2542 18.4513 14.9259L18.4429 14.9175ZM15.5217 16.6769V18.1249H10.7484V10.4894H12.4826V16.6769H15.5217ZM5.20909 18.1249H3.23917L5.4448 14.2608L3.31494 10.4894H5.30169L5.96675 11.8868C6.19405 12.3499 6.36241 12.7287 6.54762 13.158H6.57287C6.74966 12.6698 6.9012 12.333 7.09482 11.8868L7.74304 10.4894H9.71295L7.55783 14.2188L9.8224 18.1249H7.82722L7.13691 16.7443C6.8591 16.2139 6.6739 15.8183 6.45502 15.3721H6.42976C6.26981 15.8183 6.07619 16.2139 5.84047 16.7443L5.20067 18.1249H5.20909ZM20.7159 24.4808H4.04734V19.615H20.7159V24.4808Z" fill="#119411"/>
</svg>
