<svg width="45" height="45" viewBox="0 0 45 45" fill="none" xmlns="http://www.w3.org/2000/svg">
<rect opacity="0.49" width="45" height="45" rx="5" fill="white"/>
<path fill-rule="evenodd" clip-rule="evenodd" d="M11 18.2157L21.3198 24.2812C21.4309 24.3465 21.5475 24.3937 21.6661 24.4237V36.1874L11.736 30.2049C11.2798 29.9301 11 29.4305 11 28.8908V18.2157ZM35 17.9353V28.7717C35 29.3113 34.7202 29.8109 34.264 30.0858L24.3339 36.0683V24.2015C24.3581 24.1891 24.3821 24.176 24.4058 24.1621L35 17.9353Z" fill="#7C50DB"/>
<path opacity="0.6" fill-rule="evenodd" clip-rule="evenodd" d="M11.3242 15.2718C11.4503 15.1098 11.6094 14.9728 11.7949 14.8722L22.2943 9.17924C22.735 8.94025 23.2637 8.94025 23.7045 9.17924L34.2039 14.8722C34.3469 14.9498 34.4742 15.0489 34.5828 15.1645L23.0713 21.9304C22.9956 21.9749 22.9258 22.0258 22.8622 22.0821C22.7986 22.0258 22.7288 21.9749 22.6531 21.9304L11.3242 15.2718Z" fill="#B8A9FF"/>
</svg>
