<svg width="41" height="26" viewBox="0 0 41 26" fill="none" xmlns="http://www.w3.org/2000/svg">
<path d="M40.4863 11.7751C40.4863 13.6506 36.2958 15.2007 31.1081 15.2007C25.9203 15.2007 21.7383 13.6849 21.7383 11.7751V15.3291C21.7383 17.2046 25.9287 18.7547 31.1081 18.7547C36.2874 18.7547 40.4863 17.2389 40.4863 15.3291V11.7751Z" fill="#212121"/>
<path opacity="0.4" d="M40.4863 3.42552C40.4863 5.301 36.2958 6.85105 31.1081 6.85105C25.9203 6.85105 21.7383 5.33525 21.7383 3.42552C21.7383 1.51579 25.9287 0 31.1081 0C36.2874 0 40.4863 1.52436 40.4863 3.42552Z" fill="#212121"/>
<path d="M40.4863 5.82324C40.4863 7.69872 36.2958 9.24877 31.1081 9.24877C25.9203 9.24877 21.7383 7.72441 21.7383 5.82324V9.37722C21.7383 11.2527 25.9287 12.8027 31.1081 12.8027C36.2874 12.8027 40.4863 11.287 40.4863 9.37722V5.82324Z" fill="#212121"/>
<path d="M40.4863 18.0525C40.4863 19.928 36.2958 21.478 31.1081 21.478C25.9203 21.478 21.7383 19.9537 21.7383 18.0525V21.5893C21.7383 23.4648 25.9287 25.0149 31.1081 25.0149C36.2874 25.0149 40.4863 23.4991 40.4863 21.5893V18.0525Z" fill="#212121"/>
<path opacity="0.4" d="M18.7731 15.6546C18.7731 17.5301 14.5827 19.0802 9.39494 19.0802C4.20719 19.0802 0 17.5301 0 15.6546C0 13.7792 4.19043 12.2291 9.37818 12.2291C14.5659 12.2291 18.7731 13.7792 18.7731 15.6546Z" fill="#212121"/>
<path d="M18.7731 18.0524C18.7731 19.9279 14.5827 21.478 9.39494 21.478C4.20719 21.478 0 19.9279 0 18.0524V21.5893C0 23.4648 4.19043 25.0148 9.37818 25.0148C14.5659 25.0148 18.7731 23.4819 18.7731 21.5893V18.0524Z" fill="#212121"/>
</svg>
