<svg width="20" height="20" viewBox="0 0 20 20" fill="none" xmlns="http://www.w3.org/2000/svg">
<path d="M10 0C8.02219 0 6.08879 0.58649 4.4443 1.6853C2.79981 2.78412 1.51809 4.3459 0.761209 6.17316C0.00433284 8.00043 -0.1937 10.0111 0.192152 11.9509C0.578004 13.8907 1.53041 15.6725 2.92894 17.0711C4.32746 18.4696 6.10929 19.422 8.0491 19.8078C9.98891 20.1937 11.9996 19.9957 13.8268 19.2388C15.6541 18.4819 17.2159 17.2002 18.3147 15.5557C19.4135 13.9112 20 11.9778 20 10C19.9945 7.34952 18.9392 4.80917 17.065 2.935C15.1908 1.06082 12.6505 0.00549039 10 0Z" fill="#999999"/>
<path d="M13.6064 13.7065C13.4789 13.8237 13.312 13.8887 13.1389 13.8887C12.9657 13.8887 12.7988 13.8237 12.6713 13.7065L10.0012 11.039L7.35186 13.7143C7.29217 13.7757 7.22097 13.8247 7.14232 13.8586C7.06368 13.8925 6.97913 13.9106 6.89351 13.9118C6.80789 13.913 6.72286 13.8973 6.6433 13.8657C6.56373 13.834 6.49118 13.787 6.42978 13.7273C6.30578 13.6067 6.23475 13.4419 6.23232 13.2689C6.23111 13.1833 6.24678 13.0983 6.27844 13.0187C6.31009 12.9392 6.3571 12.8666 6.41679 12.8052L9.09212 10.1299L6.41679 7.45457C6.29624 7.33402 6.22852 7.17051 6.22852 7.00002C6.22852 6.82954 6.29624 6.66603 6.41679 6.54548C6.53735 6.42493 6.70085 6.3572 6.87134 6.3572C7.04183 6.3572 7.20533 6.42493 7.32588 6.54548L10.0012 9.2208L12.6765 6.54548C12.7971 6.42493 12.9606 6.3572 13.1311 6.3572C13.3016 6.3572 13.4651 6.42493 13.5856 6.54548C13.7062 6.66603 13.7739 6.82954 13.7739 7.00002C13.7739 7.17051 13.7062 7.33402 13.5856 7.45457L10.9103 10.1299L13.6116 12.8052C13.6715 12.8641 13.719 12.9345 13.7512 13.0121C13.7835 13.0897 13.7999 13.1729 13.7994 13.257C13.7989 13.341 13.7816 13.4241 13.7484 13.5013C13.7153 13.5785 13.667 13.6483 13.6064 13.7065Z" fill="white"/>
</svg>
