<svg width="13" height="13" viewBox="0 0 13 13" fill="none" xmlns="http://www.w3.org/2000/svg">
<path d="M7.92768 7.42168e-07C7.98883 -0.000108464 8.0494 0.0118352 8.10592 0.0351489C8.16245 0.0584626 8.21383 0.0926891 8.25712 0.135872L12.8637 4.74246C12.9509 4.82972 12.9999 4.94805 12.9999 5.07143C12.9999 5.19482 12.9509 5.31315 12.8637 5.40041C12.417 5.84711 11.8661 5.94762 11.465 5.94762C11.3003 5.94762 11.1532 5.93086 11.0369 5.91132L8.12032 8.82789C8.1971 9.13724 8.24692 9.45266 8.26922 9.77062C8.31203 10.4239 8.23944 11.3406 7.59917 11.9808C7.51191 12.0681 7.39358 12.1171 7.2702 12.1171C7.14681 12.1171 7.02848 12.0681 6.94122 11.9808L4.30849 9.34904L1.34724 12.3103C1.16577 12.4918 0.212813 13.1497 0.0313418 12.9682C-0.15013 12.7868 0.507821 11.8329 0.689292 11.6523L3.65054 8.69109L1.01873 6.05836C0.931501 5.9711 0.882496 5.85277 0.882496 5.72938C0.882496 5.606 0.931501 5.48767 1.01873 5.40041C1.659 4.76014 2.57567 4.68662 3.22896 4.73036C3.54692 4.75264 3.86234 4.80246 4.17168 4.87926L7.08826 1.96362C7.06391 1.8219 7.05146 1.67839 7.05103 1.5346C7.05103 1.13443 7.15154 0.583502 7.59917 0.135872C7.68638 0.0488873 7.80451 2.69103e-05 7.92768 7.42168e-07Z" fill="#5B3CE6"/>
</svg>
