<svg width="13" height="12" viewBox="0 0 13 12" fill="none" xmlns="http://www.w3.org/2000/svg">
<path d="M1.39134 3.5H1.5756C2.28498 3.5 2.86538 4.025 2.86538 4.66667V10.5C2.86538 11.1417 2.28498 11.6667 1.5756 11.6667H1.39134C0.681965 11.6667 0.101562 11.1417 0.101562 10.5V4.66667C0.101562 4.025 0.681965 3.5 1.39134 3.5ZM6.55047 0C7.25985 0 7.84025 0.525 7.84025 1.16667V10.5C7.84025 11.1417 7.25985 11.6667 6.55047 11.6667C5.84109 11.6667 5.26069 11.1417 5.26069 10.5V1.16667C5.26069 0.525 5.84109 0 6.55047 0ZM11.7096 6.66667C12.419 6.66667 12.9994 7.19167 12.9994 7.83333V10.5C12.9994 11.1417 12.419 11.6667 11.7096 11.6667C11.0002 11.6667 10.4198 11.1417 10.4198 10.5V7.83333C10.4198 7.19167 11.0002 6.66667 11.7096 6.66667Z" fill="#C25920"/>
</svg>
