<svg xmlns="http://www.w3.org/2000/svg" width="80" height="80" viewBox="0 0 80 80"><defs><style>.a{fill:#f8f8f8;}.b{fill:#593cc7;stroke:#593cc7;stroke-width:1.3px;}</style></defs><g transform="translate(-40 -1694)"><rect class="a" width="80" height="80" rx="12" transform="translate(40 1694)"/><g transform="translate(55.1 1705)"><g transform="translate(41.117 1.058)"><path class="b" d="M69.949,10.15h0A.763.763,0,0,1,69.2,9.4V1.849a.763.763,0,0,1,.749-.749h0a.763.763,0,0,1,.749.749V9.4A.7.7,0,0,1,69.949,10.15Z" transform="translate(-69.2 -1.1)"/></g><g transform="translate(36.563 8.609)"><path class="b" d="M69.658,48.9H63.606A2.312,2.312,0,0,1,61.3,46.6V16.506A2.312,2.312,0,0,1,63.606,14.2h6.052a2.362,2.362,0,0,1,2.363,2.363V46.653A2.393,2.393,0,0,1,69.658,48.9ZM62.8,46.6a.763.763,0,0,0,.749.749H69.6a.763.763,0,0,0,.749-.749V16.506a.788.788,0,0,0-.807-.807H63.49a.763.763,0,0,0-.749.749Z" transform="translate(-61.3 -14.2)"/></g><g transform="translate(41.117 41.811)"><path class="b" d="M69.949,87.075h0a.763.763,0,0,1-.749-.749V72.549a.763.763,0,0,1,.749-.749h0a.763.763,0,0,1,.749.749V86.326A.763.763,0,0,1,69.949,87.075Z" transform="translate(-69.2 -71.8)"/></g><g transform="translate(7.511 1)"><path class="b" d="M11.649,16.333a.763.763,0,0,1-.749-.749V1.749a.749.749,0,0,1,1.5,0V15.526A.777.777,0,0,1,11.649,16.333Z" transform="translate(-10.9 -1)"/></g><g transform="translate(2.9 14.777)"><path class="b" d="M11.258,59.658H5.206A2.312,2.312,0,0,1,2.9,57.353V27.206A2.312,2.312,0,0,1,5.206,24.9h6.052a2.312,2.312,0,0,1,2.306,2.306V57.3A2.256,2.256,0,0,1,11.258,59.658Zm-6.052-33.2a.763.763,0,0,0-.749.749V57.3a.763.763,0,0,0,.749.749h6.052a.763.763,0,0,0,.749-.749V27.206a.763.763,0,0,0-.749-.749Z" transform="translate(-2.9 -24.9)"/></g><g transform="translate(7.511 47.979)"><path class="b" d="M11.649,91.607a.763.763,0,0,1-.749-.749V83.249a.749.749,0,1,1,1.5,0V90.8A.777.777,0,0,1,11.649,91.607Z" transform="translate(-10.9 -82.5)"/></g><g transform="translate(12.065 8.609)"><g transform="translate(0 6.24)"><path class="b" d="M19.549,26.509a.626.626,0,0,1-.519-.231c-.058-.058-.115-.173-.173-.231a.52.52,0,0,1-.058-.288c0-.115.058-.173.058-.288a.806.806,0,0,1,1.268-.231c.058.058.115.173.173.231a.749.749,0,0,1,0,.576.8.8,0,0,1-.173.231A1.024,1.024,0,0,1,19.549,26.509Z" transform="translate(-18.8 -25.025)"/></g><g transform="translate(4.874 1.185)"><path class="b" d="M27.281,20.95a.749.749,0,0,1,.576-.922h0a.713.713,0,0,1,.922.576h0a.713.713,0,0,1-.576.922h0c-.058,0-.115.058-.173.058h0A.94.94,0,0,1,27.281,20.95Zm4.9-1.268a.713.713,0,0,1,.576-.922h0a.713.713,0,0,1,.922.576h0a.713.713,0,0,1-.576.922h0c-.058,0-.115.058-.173.058h0A.742.742,0,0,1,32.181,19.682Zm4.9-1.21a.713.713,0,0,1,.576-.922h0a.713.713,0,0,1,.922.576h0a.749.749,0,0,1-.576.922h0c-.058,0-.115.058-.173.058h0A.866.866,0,0,1,37.08,18.472Zm4.9-1.268a.713.713,0,0,1,.576-.922h0a.749.749,0,0,1,.922.576h0a.749.749,0,0,1-.576.922h0c-.058,0-.115.058-.173.058h0A.742.742,0,0,1,41.98,17.2Z" transform="translate(-27.256 -16.256)"/></g><g transform="translate(24.44)"><path class="b" d="M62.007,15.7a.52.52,0,0,1-.288-.058c-.115-.058-.173-.115-.288-.173-.058-.058-.115-.173-.173-.231a.52.52,0,0,1-.058-.288.626.626,0,0,1,.231-.519,1.26,1.26,0,0,1,.288-.173.805.805,0,0,1,.865.173.858.858,0,0,1,.231.519c0,.115-.058.173-.058.288a.8.8,0,0,1-.173.231A.826.826,0,0,1,62.007,15.7Z" transform="translate(-61.2 -14.2)"/></g></g><g transform="translate(12.065 41.753)"><g transform="translate(0 6.283)"><path class="b" d="M19.549,84.1a.626.626,0,0,1-.519-.231.7.7,0,0,1,0-1.038.805.805,0,0,1,.865-.173c.115.058.173.115.288.173a.858.858,0,0,1,.231.519.626.626,0,0,1-.231.519A1.418,1.418,0,0,1,19.549,84.1Z" transform="translate(-18.8 -82.6)"/></g><g transform="translate(4.874 1.243)"><path class="b" d="M27.281,78.55a.749.749,0,0,1,.576-.922h0a.749.749,0,0,1,.922.576h0a.713.713,0,0,1-.576.922h0c-.058,0-.115.058-.173.058h0A.94.94,0,0,1,27.281,78.55Zm4.9-1.268a.749.749,0,0,1,.576-.922h0a.749.749,0,0,1,.922.576h0a.734.734,0,0,1-.576.922h0c-.058,0-.115.058-.173.058h0A.742.742,0,0,1,32.181,77.282Zm4.9-1.21a.713.713,0,0,1,.576-.922h0a.749.749,0,0,1,.922.576h0a.749.749,0,0,1-.576.922h0c-.058,0-.115.058-.173.058h0A.866.866,0,0,1,37.08,76.072Zm4.9-1.268a.713.713,0,0,1,.576-.922h0a.749.749,0,0,1,.922.576h0a.734.734,0,0,1-.576.922h0c-.058,0-.115.058-.173.058h0A.742.742,0,0,1,41.98,74.8Z" transform="translate(-27.256 -73.856)"/></g><g transform="translate(24.44)"><path class="b" d="M62.007,73.256a.74.74,0,0,1-.576-.231c-.058-.058-.115-.173-.173-.231a.749.749,0,0,1,0-.576c.058-.115.115-.173.173-.288a.805.805,0,0,1,.865-.173.8.8,0,0,1,.231.173,1.26,1.26,0,0,1,.173.288.749.749,0,0,1,0,.576.8.8,0,0,1-.173.231A.7.7,0,0,1,62.007,73.256Z" transform="translate(-61.2 -71.7)"/></g></g></g></g></svg>