<svg id="Group_2324" data-name="Group 2324" xmlns="http://www.w3.org/2000/svg" xmlns:xlink="http://www.w3.org/1999/xlink" width="39.046" height="31.505" viewBox="0 0 39.046 31.505">
  <defs>
    <clipPath id="clip-path">
      <rect id="Rectangle_2224" data-name="Rectangle 2224" width="39.046" height="31.505" fill="#83e5c4"/>
    </clipPath>
  </defs>
  <g id="Group_2323" data-name="Group 2323" clip-path="url(#clip-path)">
    <path id="Path_4007" data-name="Path 4007" d="M4.005,38.172a.63.63,0,0,1,1.033.484v1.26H38.416a.63.63,0,0,1,.63.63v2.519a.63.63,0,0,1-.63.63H5.038v1.26a.63.63,0,0,1-1.033.484L.226,42.288A.63.63,0,0,1,.146,41.4a.65.65,0,0,1,.081-.081Zm-.227,5.437v-.545a.63.63,0,0,1,.63-.63H37.786v-1.26H4.408a.63.63,0,0,1-.63-.63V40L1.613,41.8Z" transform="translate(0 -14.078)" fill="#83e5c4"/>
    <path id="Path_4008" data-name="Path 4008" d="M5,32.722V28.944A2.515,2.515,0,0,1,7.173,26.46a2.519,2.519,0,1,1,3.547-.335,2.477,2.477,0,0,1-.335.335,2.515,2.515,0,0,1,2.173,2.484v3.779H11.3V28.944a1.259,1.259,0,0,0-1.26-1.26H7.519a1.259,1.259,0,0,0-1.26,1.26v3.779Zm3.779-6.927a1.26,1.26,0,1,0-1.26-1.26,1.259,1.259,0,0,0,1.26,1.26" transform="translate(23.34 -8.145)" fill="#83e5c4"/>
    <path id="Path_4009" data-name="Path 4009" d="M22,29.02V18.944a2.515,2.515,0,0,1,2.173-2.484,2.519,2.519,0,1,1,3.547-.335,2.477,2.477,0,0,1-.335.335,2.515,2.515,0,0,1,2.173,2.484V29.02H28.3V18.944a1.259,1.259,0,0,0-1.26-1.26H24.519a1.259,1.259,0,0,0-1.26,1.26V29.02Zm3.779-13.225a1.26,1.26,0,1,0-1.26-1.26,1.259,1.259,0,0,0,1.26,1.26" transform="translate(-4.366 -4.442)" fill="#83e5c4"/>
    <path id="Path_4010" data-name="Path 4010" d="M39,24.577V6.944A2.515,2.515,0,0,1,41.173,4.46a2.519,2.519,0,1,1,3.547-.335,2.477,2.477,0,0,1-.335.335,2.515,2.515,0,0,1,2.173,2.484V24.577H45.3V6.944a1.259,1.259,0,0,0-1.26-1.26H41.519a1.259,1.259,0,0,0-1.26,1.26V24.577ZM42.779,3.795a1.26,1.26,0,1,0-1.26-1.26,1.259,1.259,0,0,0,1.26,1.26" transform="translate(-32.073 0)" fill="#83e5c4"/>
  </g>
</svg>
