<svg xmlns="http://www.w3.org/2000/svg" width="25.022" height="37.688" viewBox="0 0 25.022 37.688"><defs><style>.a{fill:#593cc7;}</style></defs><g transform="translate(-136.699 -63.899)"><path class="a" d="M178.362,77.422A6.761,6.761,0,1,0,171.6,70.66,6.762,6.762,0,0,0,178.362,77.422Zm0,0" transform="translate(-29.161)"/><path class="a" d="M136.7,171.934v10.792a.66.66,0,0,0,.658.658h11.071v-8.455L144.4,161.8a10.532,10.532,0,0,0-7.7,10.133Zm0,0" transform="translate(0 -81.796)"/><path class="a" d="M225.965,163.1,222,176.016v8.455h10.331a.66.66,0,0,0,.658-.658V173.021a10.537,10.537,0,0,0-7.024-9.919Zm3.109,10.841h-2.8a1.152,1.152,0,1,1,0-2.3h2.8a1.152,1.152,0,1,1,0,2.3Zm0,0" transform="translate(-71.269 -82.884)"/><path class="a" d="M202.007,159.5h-4a5.033,5.033,0,0,0-.51.017l2.879,9.393,2.862-9.344A10.445,10.445,0,0,0,202.007,159.5Zm0,0" transform="translate(-50.799 -79.874)"/></g></svg>