<svg width="234" height="234" viewBox="0 0 234 234" fill="none" xmlns="http://www.w3.org/2000/svg">
<g id="CH-4">
<g id="Clip path group">
<g id="Group">
<path id="Vector" d="M117 234C181.617 234 234 181.617 234 117C234 52.3827 181.617 0 117 0C52.3827 0 8.83106e-06 52.3827 1.97247e-05 117C3.06184e-05 181.617 52.3827 234 117 234Z" fill="#FFD8D8"/>
<g id="Mask group">
<mask id="mask0_8786_8456" style="mask-type:alpha" maskUnits="userSpaceOnUse" x="0" y="0" width="234" height="234">
<path id="Vector_2" d="M117 234C181.617 234 234 181.617 234 117C234 52.3827 181.617 0 117 0C52.3827 0 8.83106e-06 52.3827 1.97247e-05 117C3.06184e-05 181.617 52.3827 234 117 234Z" fill="#FFD8D8"/>
</mask>
<g mask="url(#mask0_8786_8456)">
<g id="Group 48103296">
<path id="Vector_3" d="M116.769 235.012C182.072 235.012 235.01 182.073 235.01 116.771C235.01 51.4684 182.072 -1.46973 116.769 -1.46973C51.4665 -1.46973 -1.47168 51.4684 -1.47168 116.771C-1.47168 182.073 51.4665 235.012 116.769 235.012Z" fill="#FFE4CE"/>
<path id="Vector_4" d="M168.019 237.797H63.1445V203.216C63.1445 186.493 76.6997 172.938 93.4234 172.938L115.582 182.359L137.74 172.938C154.464 172.938 168.019 186.493 168.019 203.216V237.797Z" fill="white"/>
<path id="Vector_5" d="M100.642 172.938H93.4234C76.6997 172.938 63.1445 186.493 63.1445 203.216V237.797H103.789L100.642 172.938Z" fill="#283F6D"/>
<path id="Vector_6" d="M100.645 172.924H97.4972C92.9123 172.924 84.9072 188.378 84.9072 188.378L95.5562 199.52L87.8344 211.323L103.792 237.772L100.645 172.913V172.924Z" fill="#1E2F52"/>
<path id="Vector_7" d="M77.5601 177.429C68.915 182.758 63.1445 192.316 63.1445 203.217V237.798H77.5601V177.439V177.429Z" fill="#1E2F52"/>
<path id="Vector_8" d="M130.524 172.938H137.743C154.466 172.938 168.022 186.493 168.022 203.216V237.797H127.377L130.524 172.938Z" fill="#283F6D"/>
<path id="Vector_9" d="M130.524 172.924H133.672C138.257 172.924 146.262 188.378 146.262 188.378L135.613 199.52L143.335 211.323L127.377 237.772L130.524 172.913V172.924Z" fill="#1E2F52"/>
<path id="Vector_10" d="M153.453 177.429C162.098 182.758 167.869 192.316 167.869 203.217V237.798H153.453V177.439V177.429Z" fill="#1E2F52"/>
<path id="Vector_11" d="M101.037 171.393C101.037 179.189 107.773 183.931 115.946 183.931H116.208C124.381 183.931 130.414 179.189 130.414 171.393V153.348C130.414 145.552 124.381 137.768 116.208 137.768H115.946C107.773 137.768 101.037 145.552 101.037 153.348V171.393Z" fill="#FFC0AD"/>
<path id="Vector_12" d="M171.416 76.6973V136.458C171.416 152.185 158.049 164.921 141.577 164.921H92.9173C76.435 164.921 63.0791 152.174 63.0791 136.458V77.6835L171.426 76.6973H171.416Z" fill="#FFD4BC"/>
<path id="Vector_13" d="M117.243 128.679C120.39 128.679 123.401 127.966 126.087 126.719C126.412 127.358 126.601 128.029 126.601 128.742C126.601 132.192 122.415 134.981 117.243 134.981C112.07 134.981 107.895 132.192 107.895 128.742C107.895 128.029 108.083 127.358 108.409 126.719C111.095 127.977 114.095 128.679 117.253 128.679H117.243Z" fill="#FFC0AD"/>
<path id="Vector_14" d="M136.668 132.513C136.668 136.153 139.763 139.101 143.571 139.101C147.38 139.101 150.475 136.153 150.475 132.513C150.475 128.872 147.38 125.924 143.571 125.924C139.763 125.924 136.668 128.872 136.668 132.513Z" fill="#FFC0AD"/>
<path id="Vector_15" d="M97.8295 132.513C97.8295 136.153 94.7344 139.101 90.9259 139.101C87.1175 139.101 84.0225 136.153 84.0225 132.513C84.0225 128.872 87.1175 125.924 90.9259 125.924C94.7344 125.924 97.8295 128.872 97.8295 132.513Z" fill="#FFC0AD"/>
<g id="Group_2">
<path id="Vector_16" d="M128.244 140.855C128.244 147.388 122.936 152.683 116.389 152.683C109.842 152.683 104.533 147.388 104.533 140.855" fill="#B83336"/>
<g id="Clip path group_2">
<mask id="mask1_8786_8456" style="mask-type:luminance" maskUnits="userSpaceOnUse" x="104" y="140" width="25" height="13">
<g id="clippath-1">
<path id="Vector_17" d="M128.246 140.865C128.246 147.397 122.937 152.692 116.391 152.692C109.844 152.692 104.535 147.397 104.535 140.865" fill="white"/>
</g>
</mask>
<g mask="url(#mask1_8786_8456)">
<g id="Group_3">
<path id="Vector_18" d="M130.597 156.451C130.597 162.714 125.508 167.792 119.234 167.792C112.96 167.792 107.872 162.714 107.872 156.451C107.872 150.187 112.96 145.109 119.234 145.109C125.508 145.109 130.597 150.187 130.597 156.451Z" fill="#FC8879"/>
</g>
</g>
</g>
</g>
<g id="Group_4">
<path id="Vector_19" d="M143.009 118.78C144.992 118.78 146.744 120.049 147.845 121.989C147.908 121.475 147.94 120.951 147.94 120.416C147.94 116.044 145.726 112.489 142.998 112.489C140.27 112.489 138.057 116.033 138.057 120.416C138.057 120.961 138.088 121.486 138.151 121.989C139.253 120.039 141.005 118.78 142.988 118.78H143.009Z" fill="#5A2A00"/>
<path id="Vector_20" d="M91.5937 118.78C93.5766 118.78 95.3287 120.049 96.4303 121.989C96.4932 121.475 96.5247 120.951 96.5247 120.416C96.5247 116.044 94.311 112.489 91.5832 112.489C88.8553 112.489 86.6416 116.033 86.6416 120.416C86.6416 120.961 86.6731 121.486 86.736 121.989C87.8376 120.039 89.5897 118.78 91.5727 118.78H91.5937Z" fill="#5A2A00"/>
</g>
<path id="Vector_21" d="M123.541 188.569C123.541 192.144 118.778 195.049 115.504 195.049C112.231 195.049 107.468 192.144 107.468 188.569C107.468 184.994 112.304 182.341 115.588 182.341C118.872 182.341 123.551 184.983 123.551 188.569H123.541Z" fill="#283F6D"/>
<path id="Vector_22" d="M121.621 209.084C121.076 197.691 116.932 189.748 116.932 189.748L115.337 188.699L113.742 189.748C113.742 189.748 109.598 197.691 109.052 209.084C108.507 220.478 111.466 237.433 111.466 237.433H119.219C119.219 237.433 122.167 220.478 121.632 209.084H121.621Z" fill="#283F6D"/>
<path id="Vector_23" d="M100.646 167.393L93.4277 172.922C93.4277 172.922 95.0015 184.441 107.99 191.786C107.99 184.179 115.586 182.343 115.586 182.343C115.586 182.343 101.695 177.622 100.646 167.393Z" fill="white"/>
<path id="Vector_24" d="M130.52 167.393L137.738 172.922C137.738 172.922 136.165 184.441 123.176 191.786C123.176 184.179 115.58 182.343 115.58 182.343C115.58 182.343 129.471 177.622 130.52 167.393Z" fill="white"/>
<path id="Vector_25" d="M171.227 59.7257C161.889 49.5908 152.3 52.6858 152.3 52.6858C130.53 25.0928 94.9946 33.8638 73.6966 49.2551C50.4262 64.1322 47.1318 60.1139 47.1318 60.1139C50.1954 64.1427 53.8465 67.479 57.4451 69.8606C50.657 92.4281 62.586 126.243 62.586 126.243H68.4928V88.5462C68.4928 84.3391 71.2836 80.9398 75.0815 79.9641C76.4245 79.6179 91.396 86.0492 115.327 86.0492C139.259 86.0492 152.667 79.3556 152.667 79.3556C160.431 77.6349 168.153 83.5312 168.153 91.4629V126.232H171.573C177.994 100.003 181.918 71.3609 171.206 59.7257H171.227Z" fill="url(#paint0_linear_8786_8456)"/>
<path id="Vector_26" d="M171.236 59.7201C162.968 50.7497 154.501 52.1451 152.676 52.5752C157.848 61.4617 156.211 72.9605 149.077 80.7348C151.301 79.9164 152.455 79.3394 152.455 79.3394C160.219 77.6188 167.794 83.5151 167.794 91.4467V126.216H171.603C178.024 99.9869 181.947 71.3448 171.236 59.7096V59.7201Z" fill="url(#paint1_linear_8786_8456)"/>
<path id="Vector_27" d="M57.3139 70.3389C50.8511 92.8959 62.5912 126.217 62.5912 126.217H68.1098V88.5209C68.1098 84.2508 71.1734 80.82 75.0553 79.9072C68.6029 77.9453 62.6542 74.6404 57.3139 70.3389Z" fill="url(#paint2_linear_8786_8456)"/>
</g>
</g>
</g>
</g>
</g>
</g>
<defs>
<linearGradient id="paint0_linear_8786_8456" x1="65.5866" y1="41.6381" x2="160.882" y2="136.934" gradientUnits="userSpaceOnUse">
<stop stop-color="#A95C00"/>
<stop offset="1" stop-color="#5A2A00"/>
</linearGradient>
<linearGradient id="paint1_linear_8786_8456" x1="163.493" y1="126.216" x2="163.493" y2="52.229" gradientUnits="userSpaceOnUse">
<stop stop-color="#A95C00"/>
<stop offset="1" stop-color="#5A2A00"/>
</linearGradient>
<linearGradient id="paint2_linear_8786_8456" x1="65.2141" y1="126.217" x2="65.2141" y2="70.3389" gradientUnits="userSpaceOnUse">
<stop stop-color="#A95C00"/>
<stop offset="1" stop-color="#5A2A00"/>
</linearGradient>
</defs>
</svg>
