<svg width="6" height="9" viewBox="0 0 6 9" fill="none" xmlns="http://www.w3.org/2000/svg">
<path d="M0.92639 0.208701C1.05633 0.0751331 1.23324 0 1.41789 0C1.60237 0 1.77928 0.0751331 1.90939 0.208701L5.37037 3.7369C5.49922 3.86921 5.57153 4.04798 5.57153 4.23448C5.57153 4.42082 5.49922 4.59975 5.37037 4.7319L1.90939 8.29538C1.77867 8.42753 1.60192 8.50109 1.41789 8.49999C1.23727 8.50109 1.06329 8.43021 0.933352 8.30247C0.802329 8.17001 0.728629 7.98966 0.728629 7.80143C0.728629 7.61319 0.802329 7.43286 0.933352 7.30038L3.88895 4.23794L0.933194 1.23187H0.933348C0.794909 1.09972 0.715647 0.915277 0.714409 0.721875C0.713018 0.528453 0.789652 0.342909 0.926394 0.208692L0.92639 0.208701Z" fill="#BFBFBF"/>
</svg>
