<svg width="33" height="33" viewBox="0 0 33 33" fill="none" xmlns="http://www.w3.org/2000/svg">
<path d="M33 16.5C33 25.6127 25.6127 33 16.5 33C7.3873 33 0 25.6127 0 16.5C0 7.3873 7.3873 0 16.5 0C25.6127 0 33 7.3873 33 16.5Z" fill="#FFF0E6"/>
<path d="M8 18.7025C8.01334 18.3917 8.15029 18.0981 8.38191 17.8838L15.1036 11.344C15.3322 11.1236 15.6411 11 15.9629 11C16.2847 11 16.5936 11.1236 16.8222 11.344L23.545 17.8838C23.6783 17.9886 23.7876 18.1195 23.8656 18.268C23.9436 18.4166 23.9886 18.5794 23.9977 18.746C24.0067 18.9126 23.9797 19.0791 23.9184 19.2349C23.857 19.3906 23.7626 19.5321 23.6414 19.65C23.5202 19.768 23.3749 19.8598 23.2148 19.9195C23.0548 19.9792 22.8836 20.0055 22.7124 19.9967C22.5412 19.9878 22.3739 19.944 22.2212 19.8681C22.0686 19.7922 21.934 19.686 21.8264 19.5562L15.9656 13.8521L10.1027 19.5562C9.93209 19.7279 9.71228 19.8457 9.47191 19.8941C9.23154 19.9425 8.98175 19.9194 8.75507 19.8277C8.5284 19.7361 8.33535 19.5801 8.20106 19.3802C8.06677 19.1802 7.99747 18.9455 8.00218 18.7067L8 18.7025Z" fill="#F37921"/>
</svg>
