<svg width="15" height="17" viewBox="0 0 15 17" fill="none" xmlns="http://www.w3.org/2000/svg">
<path d="M14.6018 4.38938C14.5755 4.38938 14.5755 4.38938 14.6018 4.38938C14.5755 4.36309 14.5755 4.33662 14.5755 4.31033C14.5755 4.31033 14.5755 4.28404 14.5492 4.28404L14.5229 4.25775L10.2532 0.199087C10.2269 0.172799 10.1741 0.146327 10.1478 0.120038C10.0951 0.0937502 10.0688 0.09375 10.016 0.09375H1.3718C1.16094 0.09375 0.976562 0.27832 0.976562 0.48899V15.959C0.976562 16.1699 1.16113 16.3542 1.3718 16.3542H14.2327C14.4436 16.3542 14.628 16.1697 14.628 15.959V4.54756C14.628 4.4948 14.6017 4.44204 14.6017 4.38928L14.6018 4.38938ZM10.385 1.41148L13.2576 4.15224H10.385V1.41148ZM1.76711 15.5901V0.884389H9.56801L9.56782 4.54765C9.56782 4.7585 9.75239 4.94289 9.96306 4.94289H13.8109V15.5901L1.76711 15.5901Z" fill="#2680EB"/>
<path d="M3.36399 4.60483H5.49865C5.70951 4.60483 5.89389 4.42026 5.89389 4.20958V2.07493C5.89389 1.86407 5.70932 1.67969 5.49865 1.67969H3.36399C3.15313 1.67969 2.96875 1.86426 2.96875 2.07493V4.20958C2.96857 4.42044 3.15314 4.60483 3.36399 4.60483ZM3.75923 2.47017H5.10326V3.81419H3.75923V2.47017Z" fill="#2680EB"/>
<path d="M11.771 8.25781H3.36399C3.15313 8.25781 2.96875 8.44238 2.96875 8.65305C2.96875 8.86391 3.15332 9.04829 3.36399 9.04829H11.771C11.9819 9.04829 12.1663 8.86372 12.1663 8.65305C12.1663 8.44238 12.0082 8.25781 11.7709 8.25781H11.771Z" fill="#2680EB"/>
<path d="M11.771 11.8828H3.36399C3.15313 11.8828 2.96875 12.0674 2.96875 12.2781C2.96875 12.4889 3.15332 12.6733 3.36399 12.6733H11.771C11.9819 12.6733 12.1663 12.4887 12.1663 12.2781C12.1663 12.0674 12.0082 11.8828 11.7709 11.8828H11.771Z" fill="#2680EB"/>
</svg>
