<svg id="Group_2245" data-name="Group 2245" xmlns="http://www.w3.org/2000/svg" xmlns:xlink="http://www.w3.org/1999/xlink" width="33.779" height="22.817" viewBox="0 0 33.779 22.817">
  <defs>
    <clipPath id="clip-path">
      <rect id="Rectangle_2168" data-name="Rectangle 2168" width="33.779" height="22.817" fill="#5545c3"/>
    </clipPath>
  </defs>
  <g id="Group_2229" data-name="Group 2229" transform="translate(0)">
    <g id="Group_2228" data-name="Group 2228" clip-path="url(#clip-path)">
      <path id="Path_3968" data-name="Path 3968" d="M11.408,22.817A11.408,11.408,0,0,1,3.341,3.341,11.408,11.408,0,0,1,22.781,10.5l.021.271h8.366L27.575,8.208a.566.566,0,0,1-.239-.67.682.682,0,0,1,.607-.488.624.624,0,0,1,.363.128l5.15,3.678,0,0a.633.633,0,0,1,0,1.1l-.01.007-5.145,3.675a.624.624,0,0,1-.363.128.682.682,0,0,1-.607-.488.565.565,0,0,1,.238-.67l3.593-2.566H22.8l-.021.271a11.409,11.409,0,0,1-11.372,10.5m0-21.548a10.14,10.14,0,0,0-7.17,17.31,10.14,10.14,0,0,0,14.34-14.34,10.074,10.074,0,0,0-7.17-2.97" fill="#5545c3"/>
      <path id="Path_3969" data-name="Path 3969" d="M151.407,107.613h-2.394a4.045,4.045,0,0,0-.6-1.567,4.421,4.421,0,0,0-.469-.6h2.4c.35,0,.7,0,1.048,0h.015a.651.651,0,0,0,0-1.3h-7.571c-.35,0-.7,0-1.048,0h-.015a.658.658,0,0,0-.651.651.718.718,0,0,0,.07.279.69.69,0,0,0,.083.132c.013.016.027.032.041.046a.629.629,0,0,0,.456.193h2.057a4.933,4.933,0,0,1,.5.02,3.507,3.507,0,0,1,.7.188,2.839,2.839,0,0,1,1.533,1.533,3.524,3.524,0,0,1,.132.421h-3.852c-.35,0-.7,0-1.048,0h-.015a.651.651,0,1,0,0,1.3h4.914a3.523,3.523,0,0,1-.131.416,2.838,2.838,0,0,1-1.533,1.533,3.507,3.507,0,0,1-.7.188,7.829,7.829,0,0,1-.792.02h-1.348a.66.66,0,0,0-.651.651c0,.151,0,.3,0,.454a.694.694,0,0,0,.223.5l.312.29,1.362,1.266q.9.84,1.806,1.681l1.627,1.513c.269.251.535.5.806.75l.011.01a.684.684,0,0,0,.461.19.669.669,0,0,0,.461-.19.652.652,0,0,0,.19-.461.672.672,0,0,0-.192-.456l-.592-.552q-.713-.662-1.424-1.325l-1.717-1.6q-.745-.693-1.489-1.385l-.039-.036c.257,0,.516.007.773,0a4.16,4.16,0,0,0,3.475-2.189,4.243,4.243,0,0,0,.427-1.271h1.329c.35,0,.7,0,1.048,0h.015a.651.651,0,0,0,0-1.3" transform="translate(-135.682 -99.427)" fill="#5545c3"/>
    </g>
  </g>
</svg>
