<svg xmlns="http://www.w3.org/2000/svg" xmlns:xlink="http://www.w3.org/1999/xlink" width="242" height="165" viewBox="0 0 242 165">
  <defs>
    <clipPath id="clip-path">
      <rect id="Rectangle_2200" data-name="Rectangle 2200" width="242" height="165" rx="18" fill="#eafaff"/>
    </clipPath>
    <clipPath id="clip-path-2">
      <rect id="Rectangle_2199" data-name="Rectangle 2199" width="175.665" height="79.654" fill="#0b0821"/>
    </clipPath>
  </defs>
  <g id="Group_10420" data-name="Group 10420" transform="translate(-100 -366)">
    <rect id="Rectangle_2111" data-name="Rectangle 2111" width="242" height="165" rx="20" transform="translate(100 366)" fill="#ebedff"/>
    <g id="Mask_Group_5" data-name="Mask Group 5" transform="translate(100 366)" clip-path="url(#clip-path)">
      <g id="Group_2270" data-name="Group 2270" transform="translate(78.918 106.096)" opacity="0.598">
        <g id="Group_2269" data-name="Group 2269" clip-path="url(#clip-path-2)">
          <g id="Group_2268" data-name="Group 2268">
            <g id="Group_2267" data-name="Group 2267" clip-path="url(#clip-path-2)">
              <g id="Group_2266" data-name="Group 2266" opacity="0.2">
                <g id="Group_2265" data-name="Group 2265">
                  <g id="Group_2264" data-name="Group 2264" clip-path="url(#clip-path-2)">
                    <path id="Path_3986" data-name="Path 3986" d="M0,54.553c.533.067,1.076.129,1.637.2l3.374-5.4c.89.819,1.663,1.521,2.41,2.227a3.2,3.2,0,0,1,.749.824c.651,1.509,1.237,3.023,1.854,4.534.423,1.034.859,2.066,1.331,3.2l3.256-1.848,3.165,3.146c1.913-.389,3.913-.676,4.112-1.746.045-.246.348-.482.523-.725A17.082,17.082,0,0,0,24.6,55.8a67.652,67.652,0,0,0,2.472-7.7c.354-1.374,1.2-2.6,3.492-3.622a1.138,1.138,0,0,0,.533-.44c.437-.78.827-1.565,1.241-2.348.546-1.029,1.1-2.058,1.652-3.086l.218,0c1.009,2.6,2.02,5.2,3.066,7.889.287-.179.457-.275.6-.378.766-.546,1.6-1.078,2.261-1.646a2.071,2.071,0,0,1,1.949-.3c.595.116,1.263.164,1.964.252,1.07-1.35,2.153-2.663,3.143-3.988a8.09,8.09,0,0,0,.8-1.566c1.358-2.941,2.608-5.893,5.434-8.67A1.1,1.1,0,0,1,54,29.836c.89-.176,1.832-.3,2.79-.455,1.164,1.2,2.277,2.358,3.438,3.559,1.086-.341,2.031-.679,3.07-.953,1.062-.281,2.216-.5,3.36-.75l3.289,1.983c.842-.973,1.608-1.854,2.369-2.737.873-1.012.872-1.021,3.407-.967a1.492,1.492,0,0,0,1.084-.267c.578-.461,1.31-.891,1.8-1.366a5.923,5.923,0,0,1,3.558-1.275,2.423,2.423,0,0,1,1.4.135c.827.376,1.713.73,2.69,1.142.5-.78.933-1.469,1.365-2.158,1.029-1.642,1.77-3.333,4.488-4.687a8.393,8.393,0,0,1,1.616-.735c1.863-.513,2.919-1.212,3.42-2.119A17.372,17.372,0,0,1,98.7,16.136c.15-.19.324-.377.485-.566a43.57,43.57,0,0,0,6.53,7.352c.8-.082,1.626-.191,2.474-.239a2.458,2.458,0,0,1,1.036.17c.867.517,1.519,1.107,2.492,1.583,1.1.541,2.468.988,3.85,1.527.112-.176.151-.226.176-.278.995-2.111,2-4.221,2.962-6.335.113-.253.355-.379.9-.421,1.6-.125,3.2-.262,4.809-.357.614-.036.957-.089,1.075-.375a8.266,8.266,0,0,1,.728-1.271c1.239-1.936,1.974-3.927,4.311-5.733a8.172,8.172,0,0,1,4-1.768,1.457,1.457,0,0,0,.811-.419c.95-1.2,1.853-2.409,2.756-3.616.163-.218.372-.358,1.007-.379a24.124,24.124,0,0,0,5.052-.752,2.57,2.57,0,0,0,.923-.4c.938-.773,1.817-1.559,2.8-2.414.194.2.329.32.439.447.9,1.045,1.774,2.094,2.71,3.133a1.577,1.577,0,0,0,.842.323,25.43,25.43,0,0,0,5.45-.077A1.472,1.472,0,0,0,158.04,5c.633-.636,1.2-1.282,1.8-1.924.4-.427.81-.852,1.225-1.288.817.084,1.547.134,2.237.235a1.847,1.847,0,0,0,1.469-.228c.853-.593,1.789-1.165,2.772-1.8.131.173.213.266.272.36q1.4,2.223,2.787,4.446c.057.093.086.237.229.265,1.067.211,2.164.4,3.294.6l1.539-2.663V79.655H0Z" fill="#0b0821"/>
                  </g>
                </g>
              </g>
            </g>
          </g>
        </g>
      </g>
    </g>
  </g>
</svg>
