<svg xmlns="http://www.w3.org/2000/svg" width="59.994" height="68.191" viewBox="0 0 59.994 68.191"><defs><style>.a{fill:#d4c116;}</style></defs><g transform="translate(0 0.001)"><path class="a" d="M90.961,90h7.991v4H90.961Zm0,0" transform="translate(-78.912 -78.014)"/><path class="a" d="M10.55,27.969a2,2,0,1,1,0-4H42.514a2,2,0,0,1,0,4H52.5V4.661A4.666,4.666,0,0,0,47.842,0H5.161A4.666,4.666,0,0,0,.5,4.661V51.276a4.666,4.666,0,0,0,4.661,4.661H20.539V41.953a2,2,0,0,1-2,2H10.55a2,2,0,1,1,0-4h7.991a2,2,0,0,1,2,2V35.294a7.333,7.333,0,0,1,7.325-7.325ZM30.527,7.991H42.514a2,2,0,0,1,0,4H30.527a2,2,0,1,1,0-4Zm0,7.991H42.514a2,2,0,0,1,0,4H30.527a2,2,0,1,1,0-4ZM8.552,9.989a2,2,0,0,1,2-2H22.536a2,2,0,0,1,2,2V17.98a2,2,0,0,1-2,2H10.55a2,2,0,0,1-2-2ZM18.541,35.96H10.55a2,2,0,1,1,0-4h7.991a2,2,0,1,1,0,4Zm0,0" transform="translate(-0.5 -0.001)"/><path class="a" d="M213.591,240h-29.3a3.333,3.333,0,0,0-3.33,3.33v21.309a3.333,3.333,0,0,0,3.33,3.33h4.661v6.26a2,2,0,0,0,3.469,1.352l6.995-7.612h14.175a3.333,3.333,0,0,0,3.33-3.33V243.33a3.333,3.333,0,0,0-3.33-3.33Zm-11.054,19.977H190.95a2,2,0,0,1,0-4h11.587a2,2,0,1,1,0,4Zm4.4-7.991H190.95a2,2,0,0,1,0-4h15.982a2,2,0,1,1,0,4Zm0,0" transform="translate(-156.926 -208.036)"/></g></svg>