<svg xmlns="http://www.w3.org/2000/svg" width="70" height="52.5" viewBox="0 0 70 52.5"><defs><style>.a{fill:#593cc7;}</style></defs><g transform="translate(-294 -2886.81)"><path class="a" d="M18.522,17.65V34.442H1V17.65A3.652,3.652,0,0,1,4.65,14H14.872A3.652,3.652,0,0,1,18.522,17.65Z" transform="translate(295.92 2896.124)"/><path class="a" d="M26.522,13.65V42.124H9V13.65A3.652,3.652,0,0,1,12.65,10H22.872A3.652,3.652,0,0,1,26.522,13.65Z" transform="translate(311.239 2888.454)"/><path class="a" d="M34.522,9.65V49.8H17V9.65A3.652,3.652,0,0,1,20.65,6H30.872A3.652,3.652,0,0,1,34.522,9.65Z" transform="translate(326.558 2880.81)"/><path class="a" d="M67.812,26.88H2.187a2.19,2.19,0,0,1,0-4.38H67.812a2.19,2.19,0,0,1,0,4.38Z" transform="translate(294 2912.429)"/></g></svg>