<svg xmlns="http://www.w3.org/2000/svg" width="50" height="37.5" viewBox="0 0 50 37.5"><defs><style>.a{fill:#bc1b4c;}</style></defs><g transform="translate(-294 -2886.81)"><path class="a" d="M13.516,16.607V28.6H1V16.607A2.608,2.608,0,0,1,3.607,14h7.3A2.608,2.608,0,0,1,13.516,16.607Z" transform="translate(295.086 2889.463)"/><path class="a" d="M21.516,12.607V32.945H9V12.607A2.608,2.608,0,0,1,11.607,10h7.3A2.608,2.608,0,0,1,21.516,12.607Z" transform="translate(303.742 2885.127)"/><path class="a" d="M29.516,8.607V37.289H17V8.607A2.608,2.608,0,0,1,19.607,6h7.3A2.608,2.608,0,0,1,29.516,8.607Z" transform="translate(312.398 2880.81)"/><path class="a" d="M48.438,25.629H1.563a1.564,1.564,0,0,1,0-3.129H48.438a1.564,1.564,0,0,1,0,3.129Z" transform="translate(294 2898.681)"/></g></svg>