<svg xmlns="http://www.w3.org/2000/svg" width="33" height="32.943" viewBox="0 0 33 32.943">
  <g id="Group_11132" data-name="Group 11132" transform="translate(-831 -866.028)">
    <g id="b" transform="translate(831.012 866.028)">
      <g id="c">
        <g id="d">
          <g id="Group_11131" data-name="Group 11131">
            <path id="Path_6641" data-name="Path 6641" d="M26.922,0h6.051V6.051c-.375.45-.631.45-1.066.03-.345-.345-.691-.706-1.1-1.126-.105.135-.165.255-.24.33Q27.057,8.8,23.559,12.312l-.21.21a.554.554,0,0,1-.916,0l-1.081-1.081c-.2-.2-.375-.405-.526-.556l-4.009,4.009c.075.06.2.135.285.21.706.646,1.426,1.261,2.087,1.937a22.961,22.961,0,0,1,1.592,1.817.59.59,0,0,0,.511.27H32.252a.806.806,0,0,1,.736.33V32.613a.775.775,0,0,1-.736.33H9.084a9.619,9.619,0,0,1-1.967-.21A9.021,9.021,0,0,1,3.033,17.147c.826-.751,1.652-1.517,2.462-2.282a4.223,4.223,0,0,0,1.021-1.532c-1.186-.21-1.727-.706-1.757-1.577a1.668,1.668,0,0,1,.345-1.051,1.708,1.708,0,0,1,1.547-.616,4.492,4.492,0,0,0-.871-1.607c-.345-.42-.706-.826-1.051-1.246A2.091,2.091,0,0,1,7.793,4.4c.165.15.315.315.465.465.616.616.781.571,1.006-.255a1.909,1.909,0,0,1,3.709.045c.06.24.03.541.36.616.315.075.435-.2.616-.36.2-.165.36-.36.541-.541a2.121,2.121,0,0,1,2.387-.3,2.1,2.1,0,0,1,1.1,2.162,2.614,2.614,0,0,1-.661,1.276c-.5.616-.976,1.261-1.441,1.907a2.78,2.78,0,0,0-.27.646.9.9,0,0,0,.33-.21L20.12,5.661c.48-.48.661-.48,1.156,0,.511.511,1.006,1.021,1.486,1.486l5.09-5.09V2.042L26.847,1.036C26.442.631,26.457.36,26.892,0ZM12.478,13.288H7.883a.348.348,0,0,0-.27.21,6.367,6.367,0,0,1-1.7,2.462c-.826.751-1.667,1.486-2.462,2.282a7.679,7.679,0,0,0-2.237,7.192,7.9,7.9,0,0,0,7.928,6.456H13a8.833,8.833,0,0,0,1.547-.12,7.936,7.936,0,0,0,5.03-12.688,14.925,14.925,0,0,0-1.742-1.772c-.6-.586-1.231-1.141-1.877-1.742-.225.24-.42.465-.631.676a.561.561,0,0,1-.946,0l-1.877-1.877c-.405-.405-.42-.571-.06-1.066Zm2.447,1.847s.15-.15.24-.225L20.21,9.865c.405-.405.631-.405,1.036,0L22.883,11.5c.36-.375.706-.751,1.051-1.1q3.2-3.2,6.381-6.4c.405-.405.631-.405,1.036,0,.165.165.315.33.526.556V1.081H28.394c.255.24.465.42.646.616a.528.528,0,0,1,0,.841c-1.922,1.922-3.829,3.844-5.751,5.751a.542.542,0,0,1-.871,0c-.5-.5-.991-.991-1.486-1.471a1.352,1.352,0,0,0-.18-.15l-7.162,7.162L14.91,15.15Zm-.39-5.045a6.126,6.126,0,0,1,1.547-2.733c.21-.24.42-.48.631-.736A1.026,1.026,0,0,0,15.2,5.24c-.255.24-.5.511-.751.751A1.41,1.41,0,0,1,12.1,5.345c-.06-.165-.09-.345-.135-.511a.828.828,0,0,0-.8-.586.816.816,0,0,0-.766.586c-.045.15-.075.3-.12.45a1.417,1.417,0,0,1-2.432.631c-.24-.24-.48-.5-.736-.721a1,1,0,0,0-1.231-.15.958.958,0,0,0-.48,1.066,1.809,1.809,0,0,0,.39.676,7.434,7.434,0,0,1,2,3.3H14.55Zm3.093,21.787H31.877V20.225H21.547a5.522,5.522,0,0,1,.27.736c.06.24.2.315.45.315h6.321c.465,0,.6.135.661.586a1.106,1.106,0,0,0,.991,1.006c.465.06.6.2.6.661v5.09c0,.435-.15.6-.571.646a1.093,1.093,0,0,0-1.021.976c-.075.511-.2.616-.706.616H22.3a.988.988,0,0,0-.42.06,5.285,5.285,0,0,1-3.153.39.424.424,0,0,0-.27.06c-.27.165-.526.33-.826.541Zm5.916-9.535a5.449,5.449,0,0,1,0,7.432h4.7a2.216,2.216,0,0,1,1.532-1.532V23.874a2.189,2.189,0,0,1-1.532-1.532H23.559Zm-1.291.405A9.007,9.007,0,0,1,19.73,30.3a4.247,4.247,0,0,0,3.994-2.958,4.16,4.16,0,0,0-1.471-4.58ZM14.61,11.261l-.06-.075H6.411a.534.534,0,0,0-.571.526.556.556,0,0,0,.631.541h6.907a.41.41,0,0,0,.27-.075c.33-.3.646-.6.961-.9Z" fill="#8dd0e8"/>
            <g id="e">
              <path id="f" d="M13.273,21.547H12.012a2.054,2.054,0,0,0-.315-.826c-.075-.105-.15-.21-.24-.315h1.817a.357.357,0,0,0,.345-.33.34.34,0,0,0-.345-.345H8.739a.34.34,0,0,0-.345.345.359.359,0,0,0,.03.135c0,.03.03.045.045.075l.03.03a.607.607,0,0,0,.24.105h1.336a1.428,1.428,0,0,1,.36.105,2.567,2.567,0,0,1,.345.2,2.049,2.049,0,0,1,.255.255,1.571,1.571,0,0,1,.2.345c.03.075.045.15.075.225H8.724a.345.345,0,0,0,0,.691h2.583s-.045.15-.075.225a2.567,2.567,0,0,1-.2.345,2.05,2.05,0,0,1-.255.255,1.571,1.571,0,0,1-.345.2,3.261,3.261,0,0,1-.36.105H8.949a.349.349,0,0,0-.345.345v.24a.321.321,0,0,0,.12.255l.165.15.721.661.946.886.856.8c.135.135.285.255.42.39h0a.607.607,0,0,0,.24.105.3.3,0,0,0,.24-.105.327.327,0,0,0,0-.48L12,26.321l-.751-.691-.9-.841-.781-.721h.39A2.251,2.251,0,0,0,11.772,22.9,2.644,2.644,0,0,0,12,22.237h1.246a.345.345,0,1,0,0-.691" fill="#8dd0e8" stroke="#8dd0e8" stroke-width="0.751"/>
            </g>
            <path id="Path_6642" data-name="Path 6642" d="M18.439,23.454a7.336,7.336,0,1,1,.015,0Zm-7.432-6.366a6.375,6.375,0,1,0,.015,0Z" fill="#8dd0e8"/>
          </g>
        </g>
      </g>
    </g>
  </g>
</svg>
