<svg id="Group_8759" data-name="Group 8759" xmlns="http://www.w3.org/2000/svg" width="29.973" height="29.976" viewBox="0 0 29.973 29.976">
  <path id="Path_6801" data-name="Path 6801" d="M637.741,219.565c.09-.021.071-.109.091-.166a1.97,1.97,0,0,1,2.487-1.308c.171.049.232,0,.308-.143q3.138-5.851,6.288-11.7a.335.335,0,0,0,0-.346,1.986,1.986,0,0,1,3.183-2.288c1.195,1.179,2.377,2.369,3.561,3.559a.579.579,0,0,1,.044.879.6.6,0,0,1-.88-.066q-1.731-1.725-3.456-3.457a.858.858,0,0,0-.976-.266.81.81,0,0,0-.241,1.368c.53.546,1.074,1.078,1.612,1.617q4.585,4.585,9.168,9.17a.909.909,0,0,0,.953.352.809.809,0,0,0,.432-1.268,2.29,2.29,0,0,0-.237-.259l-3.353-3.353a.792.792,0,0,1-.244-.323.567.567,0,0,1,.19-.657.553.553,0,0,1,.7-.009.94.94,0,0,1,.13.117c1.187,1.186,2.378,2.369,3.559,3.561a1.99,1.99,0,0,1-1.473,3.4,1.617,1.617,0,0,1-.759-.188.4.4,0,0,0-.45.007c-1.462.793-2.929,1.577-4.394,2.364-.068.037-.133.08-.234.141.251.24.5.461.727.7a1.8,1.8,0,0,1-.355,2.856c-.884.53-1.784,1.037-2.688,1.533a1.793,1.793,0,0,1-2.18-.314q-.7-.685-1.385-1.388c-.111-.114-.193-.152-.342-.059a7.264,7.264,0,0,1-.8.431c-.174.08-.181.167-.133.336a1.984,1.984,0,0,1-1.293,2.451c-.1.035-.235-.014-.315.095h-.7a4.189,4.189,0,0,1-1.674-1.251q-1.781-1.791-3.571-3.572a4.387,4.387,0,0,1-1.313-1.734Zm19.907-2.692-9.827-9.828a.712.712,0,0,0-.047.074q-3.109,5.783-6.221,11.563c-.1.184-.035.271.085.391q1.981,1.971,3.95,3.954a.339.339,0,0,0,.49.07c2.1-1.143,4.211-2.272,6.318-3.4Zm-12.123,8.1a1,1,0,0,0-.352-.71q-2.384-2.376-4.761-4.757a1.711,1.711,0,0,0-.194-.176.807.807,0,0,0-1.256.41.864.864,0,0,0,.306.938q2.372,2.366,4.74,4.737a1.755,1.755,0,0,0,.217.2.772.772,0,0,0,.852.068A.8.8,0,0,0,645.524,224.97Zm8.328-2.7a.554.554,0,0,0-.179-.422c-.285-.293-.581-.576-.862-.872-.1-.1-.168-.084-.275-.026q-1.78.962-3.567,1.915c-.115.061-.17.1-.045.223.4.386.785.785,1.182,1.173a.6.6,0,0,0,.752.115q1.362-.758,2.71-1.54A.585.585,0,0,0,653.852,222.268Z" transform="translate(-637.741 -196.966)" fill="#3a15a6"/>
  <path id="Path_6802" data-name="Path 6802" d="M671.841,193.427a6.17,6.17,0,1,1-6.172,6.151A6.179,6.179,0,0,1,671.841,193.427Zm-.008,1.171a5,5,0,1,0,5.005,5A5.013,5.013,0,0,0,671.833,194.6Z" transform="translate(-648.037 -193.427)" fill="#f37921"/>
  <path id="Path_6803" data-name="Path 6803" d="M675.457,216.649a.527.527,0,0,1,.379-.5c1.041-.345,2.082-.691,3.128-1.022a.571.571,0,0,1,.748.376.563.563,0,0,1-.4.732q-1.547.517-3.1,1.01A.576.576,0,0,1,675.457,216.649Z" transform="translate(-651.645 -201.416)" fill="#3a15a6"/>
  <path id="Path_6804" data-name="Path 6804" d="M660.739,200.68a.58.58,0,0,1-.635-.725q.5-1.6,1.039-3.185a.55.55,0,0,1,.737-.335.576.576,0,0,1,.345.765c-.174.556-.362,1.107-.542,1.661-.147.453-.289.907-.437,1.359A.572.572,0,0,1,660.739,200.68Z" transform="translate(-645.975 -194.521)" fill="#3a15a6"/>
  <path id="Path_6805" data-name="Path 6805" d="M665,213.528a.569.569,0,0,1-.57-.6.587.587,0,0,1,.586-.565.605.605,0,0,1,.579.58A.588.588,0,0,1,665,213.528Z" transform="translate(-647.581 -200.407)" fill="#3a15a6"/>
  <path id="Path_6806" data-name="Path 6806" d="M672.095,203.738c.073-.425.144-.877.229-1.326a.28.28,0,0,0-.094-.29c-.312-.295-.617-.6-.925-.9a.333.333,0,0,1-.128-.367.348.348,0,0,1,.319-.227c.419-.06.837-.122,1.256-.174a.313.313,0,0,0,.279-.2c.17-.371.359-.733.537-1.1.069-.144.149-.273.329-.275s.264.123.334.267c.184.38.376.756.555,1.138a.27.27,0,0,0,.235.168c.412.055.823.116,1.236.173.156.021.3.055.364.227s-.035.289-.148.4c-.293.286-.58.579-.881.855a.326.326,0,0,0-.109.343c.079.415.142.833.217,1.249a.335.335,0,0,1-.126.369.326.326,0,0,1-.371-.01c-.384-.2-.774-.4-1.156-.61a.256.256,0,0,0-.282,0q-.591.325-1.194.628A.314.314,0,0,1,672.095,203.738Zm2.89-.507c-.054-.315-.088-.59-.15-.859a.547.547,0,0,1,.186-.591c.212-.187.393-.41.588-.617a5.338,5.338,0,0,0-.714-.1.673.673,0,0,1-.672-.5,2.954,2.954,0,0,0-.333-.642c-.141.284-.281.539-.4.8a.485.485,0,0,1-.439.319c-.293.03-.584.083-.858.124.2.211.385.434.6.629a.532.532,0,0,1,.177.556c-.061.282-.1.568-.155.883.308-.162.592-.3.869-.458a.407.407,0,0,1,.431,0C674.393,202.926,674.676,203.07,674.985,203.231Z" transform="translate(-650.061 -195.436)" fill="#3a15a6"/>
</svg>
