<svg xmlns="http://www.w3.org/2000/svg" width="31.549" height="32.879" viewBox="0 0 31.549 32.879"><defs><style>.a{opacity:0.5;}.b{fill:#fff;}</style></defs><g class="a"><g transform="translate(0)"><path class="b" d="M40.387,16.864a.964.964,0,0,1,0-.852L41.613,13.5a2.854,2.854,0,0,0-1.232-3.79L37.915,8.4a.964.964,0,0,1-.5-.689l-.482-2.75a2.854,2.854,0,0,0-3.224-2.343l-2.765.391a.964.964,0,0,1-.81-.263L28.126.809a2.854,2.854,0,0,0-3.985,0L22.134,2.75a.964.964,0,0,1-.81.263l-2.765-.391a2.854,2.854,0,0,0-3.224,2.343l-.482,2.75a.964.964,0,0,1-.5.689L11.885,9.713a2.854,2.854,0,0,0-1.232,3.79l1.226,2.509a.964.964,0,0,1,0,.852l-1.226,2.509a2.854,2.854,0,0,0,1.232,3.79l2.467,1.309a.964.964,0,0,1,.5.689l.482,2.75a2.852,2.852,0,0,0,2.814,2.372,2.933,2.933,0,0,0,.411-.029l2.765-.391a.963.963,0,0,1,.81.263l2.007,1.941a2.854,2.854,0,0,0,3.985,0l2.007-1.941a.965.965,0,0,1,.81-.263l2.765.391a2.854,2.854,0,0,0,3.224-2.343l.482-2.75a.964.964,0,0,1,.5-.689l2.467-1.309a2.854,2.854,0,0,0,1.232-3.79Zm-.894,4.624L37.026,22.8a2.848,2.848,0,0,0-1.48,2.037l-.482,2.75a.966.966,0,0,1-1.091.793l-2.765-.391a2.847,2.847,0,0,0-2.394.778L26.807,30.7a.966.966,0,0,1-1.348,0l-2.007-1.941a2.845,2.845,0,0,0-1.986-.807,2.911,2.911,0,0,0-.408.029l-2.765.391a.966.966,0,0,1-1.091-.793l-.482-2.75a2.848,2.848,0,0,0-1.48-2.036l-2.467-1.309a.966.966,0,0,1-.417-1.282L13.584,17.7a2.848,2.848,0,0,0,0-2.517l-1.226-2.509a.966.966,0,0,1,.417-1.282l2.467-1.309a2.848,2.848,0,0,0,1.48-2.036l.482-2.75A.966.966,0,0,1,18.293,4.5l2.765.391a2.848,2.848,0,0,0,2.394-.778l2.007-1.941a.966.966,0,0,1,1.348,0l2.007,1.941a2.847,2.847,0,0,0,2.394.778L33.973,4.5a.966.966,0,0,1,1.091.793l.482,2.75a2.848,2.848,0,0,0,1.48,2.036l2.467,1.309a.966.966,0,0,1,.417,1.282l-1.226,2.509a2.848,2.848,0,0,0,0,2.517L39.909,20.2A.966.966,0,0,1,39.492,21.487Z" transform="translate(-10.359 0.002)"/></g><g transform="translate(8.569 9.234)"><g transform="translate(0)"><path class="b" d="M157.925,144.069a.948.948,0,0,0-1.341,0l-12.515,12.515a.948.948,0,1,0,1.341,1.341l12.515-12.515A.948.948,0,0,0,157.925,144.069Z" transform="translate(-143.791 -143.792)"/></g></g><g transform="translate(8.505 7.906)"><path class="b" d="M146.279,123.116a3.477,3.477,0,1,0,3.477,3.477A3.481,3.481,0,0,0,146.279,123.116Zm0,5.057a1.58,1.58,0,1,1,1.58-1.58A1.582,1.582,0,0,1,146.279,128.173Z" transform="translate(-142.802 -123.116)"/></g><g transform="translate(16.09 18.02)"><path class="b" d="M264.4,280.61a3.477,3.477,0,1,0,3.477,3.477A3.481,3.481,0,0,0,264.4,280.61Zm0,5.057a1.58,1.58,0,1,1,1.58-1.58A1.582,1.582,0,0,1,264.4,285.667Z" transform="translate(-260.922 -280.61)"/></g></g></svg>