<svg xmlns="http://www.w3.org/2000/svg" width="80" height="80" viewBox="0 0 80 80"><defs><style>.a{fill:#f8f8f8;}.b{fill:#593cc7;stroke:#593cc7;stroke-width:0.5px;}</style></defs><g transform="translate(-40 -585)"><rect class="a" width="80" height="80" rx="12" transform="translate(40 585)"/><g transform="translate(49.412 601.471)"><path class="b" d="M10.076,43.343a.989.989,0,0,1-.453-.11L2.084,39.349a.989.989,0,0,1-.429-1.326l8.856-17.493a.989.989,0,0,1,1.332-.434l7.172,3.66a.989.989,0,0,1,.443,1.309L10.968,42.776a.989.989,0,0,1-.577.509A.965.965,0,0,1,10.076,43.343Zm-6.213-5.3,5.761,2.967,7.634-15.925-5.43-2.77Z" transform="translate(-1.548 -8.912)"/><path class="b" d="M20.487,29.623A.989.989,0,0,1,20,29.5l-2.874-1.62a.989.989,0,1,1,.97-1.723l2.374,1.335c.927-.562,2.933-1.771,4.217-2.5,2.1-1.187,3.572-1.023,5.266.582a.989.989,0,1,1-1.36,1.437c-1.049-1-1.6-1.05-2.933-.3-1.65.933-4.626,2.747-4.657,2.77A.989.989,0,0,1,20.487,29.623Z" transform="translate(-1.712 -8.958)"/><path class="b" d="M46.595,46.825a3.781,3.781,0,0,1-2.048-.54c-.911-.607-4.915-4.534-5.708-5.315a.989.989,0,0,1,1.385-1.409c1.78,1.758,4.835,4.69,5.417,5.079a2.3,2.3,0,0,0,2.338-.243,1.4,1.4,0,0,0-.04-2.156c-1.011-1.136-5.211-5.179-6.132-6.065A65.578,65.578,0,0,1,32.477,31.9l-1.041.68a4.538,4.538,0,0,1-1.751,2.7,2.747,2.747,0,0,1-2.254.526,3.442,3.442,0,0,1-2.383-1.427,4.686,4.686,0,0,1-.164-3.577c.844-3.377,2.213-4.247,4.108-5.45l.415-.266c2.087-1.34,3.88-2.05,5.845-1.168,1.223.551,5.562,2.231,6.794,2.707l4.131-1.353a.989.989,0,1,1,.616,1.88l-4.466,1.464a1,1,0,0,1-.663-.017c-.234-.09-5.752-2.214-7.22-2.875-.881-.4-1.812-.356-3.964,1.028l-.424.271c-1.729,1.1-2.6,1.65-3.249,4.26-.334,1.337-.18,1.879-.058,2.077.156.261.518.367,1.1.51a.85.85,0,0,0,.7-.2,2.557,2.557,0,0,0,1-1.766.989.989,0,0,1,.443-.742l1.9-1.244a.989.989,0,0,1,1.016-.04c.066.037,6.736,3.683,9.657,4.451a1,1,0,0,1,.433.242c.214.2,5.242,5.021,6.423,6.352a3.363,3.363,0,0,1-.041,4.87A3.965,3.965,0,0,1,46.595,46.825Z" transform="translate(-1.799 -8.951)"/><path class="b" d="M48.936,42.742a.989.989,0,0,1-.4-1.894l3.47-1.537a.989.989,0,1,1,.8,1.809l-3.471,1.542a.989.989,0,0,1-.4.08Z" transform="translate(-2.053 -9.121)"/><path class="b" d="M53.33,43.343a.989.989,0,0,1-.917-.619L44.948,24.2a.989.989,0,0,1,.584-1.3l7.978-2.855a.989.989,0,0,1,1.252.565l7.319,18.372a.989.989,0,0,1-.565,1.286l-7.832,3A.971.971,0,0,1,53.33,43.343ZM47.164,24.414l6.717,16.663,5.988-2.295L53.277,22.228ZM42.25,49.787a3.354,3.354,0,0,1-2.239-.771c-1.324-1.177-4.729-4.58-4.873-4.724a.989.989,0,1,1,1.4-1.4c.036.035,3.508,3.506,4.788,4.649a1.923,1.923,0,0,0,1.78.119,2.678,2.678,0,0,0,1.784-2.135.989.989,0,1,1,1.95.335,4.658,4.658,0,0,1-3.076,3.66,4.605,4.605,0,0,1-1.512.266Z" transform="translate(-1.91 -8.912)"/><path class="b" d="M37.612,52.473a3.13,3.13,0,0,1-2.217-.791l-3.513-3.513a.99.99,0,1,1,1.4-1.4l3.513,3.514a1.78,1.78,0,0,0,1.44.134,2.605,2.605,0,0,0,1.9-1.859.989.989,0,0,1,1.891.581,4.608,4.608,0,0,1-4.411,3.335Z" transform="translate(-1.875 -9.2)"/><path class="b" d="M33.807,55.156a3.591,3.591,0,0,1-2.243-.724c-1.459-1.167-2.685-2.126-2.686-2.128A.989.989,0,1,1,30.1,50.747s1.235.965,2.7,2.14a2.109,2.109,0,0,0,2.077.042,1.539,1.539,0,0,0,.932-1.476.99.99,0,1,1,1.978-.06A3.52,3.52,0,0,1,35.761,54.7a4.4,4.4,0,0,1-1.953.457Z" transform="translate(-1.841 -9.244)"/><path class="b" d="M26.3,54.623a2.455,2.455,0,0,1-.937-.188,4.368,4.368,0,0,1-1.9-1.818,3.131,3.131,0,0,1-2.06-.31,4.771,4.771,0,0,1-2.063-3.053.989.989,0,0,1,.136-.733c.8-1.254,2.017-3.2,2.2-3.611A2.521,2.521,0,0,1,23.306,43.6a3.321,3.321,0,0,1,2.811.538,2.951,2.951,0,0,1,1.31,2.713,3.285,3.285,0,0,1,2.433,1.237,3.549,3.549,0,0,1,.379,3.033,5.871,5.871,0,0,1-2.967,3.307A2.489,2.489,0,0,1,26.3,54.623ZM25.12,51.536c.311.525.865,1.279,1.385,1.062a3.9,3.9,0,0,0,1.862-2.115,1.6,1.6,0,0,0-.1-1.233,1.564,1.564,0,0,0-1.141-.447Zm-3.75-2.323a2.486,2.486,0,0,0,.966,1.356,1.206,1.206,0,0,0,.953.062l2.112-3.62a1.055,1.055,0,0,0-.408-1.251,1.385,1.385,0,0,0-1.088-.277.749.749,0,0,0-.435.239C23.209,46.3,21.953,48.3,21.37,49.213Z" transform="translate(-1.741 -9.168)"/><path class="b" d="M18.694,50.735a2.424,2.424,0,0,1-.692-.1c-1.7-.512-2.361-2.708-2.431-2.955a.989.989,0,0,1,.092-.757,41.031,41.031,0,0,1,2.784-4.214,3.357,3.357,0,0,1,4.445-.8c.934.647,1.618,2.056.473,3.9a.989.989,0,1,1-1.681-1.044c.254-.409.475-.955.08-1.228a1.37,1.37,0,0,0-1.751.377,39.153,39.153,0,0,0-2.407,3.6c.217.518.586,1.111.962,1.223.333.1.791-.243,1.04-.455a.989.989,0,1,1,1.294,1.5A3.376,3.376,0,0,1,18.694,50.735Z" transform="translate(-1.7 -9.145)"/><path class="b" d="M16.485,48.383a.989.989,0,0,1-.319-.053c-.167-.057-4.11-1.434-4.11-4.522A1.008,1.008,0,0,1,12.1,43.5a11.545,11.545,0,0,1,1.457-2.77A3.066,3.066,0,0,1,17.367,40a2.56,2.56,0,0,1,1.385,3.171c-.647,2.084-1.311,4.465-1.317,4.489a.989.989,0,0,1-.953.724Zm-2.443-4.423c.1.89,1.009,1.611,1.805,2.057.257-.9.641-2.216,1.018-3.433a.593.593,0,0,0-.371-.809,1.18,1.18,0,0,0-1.316.1,10.218,10.218,0,0,0-1.136,2.086Z" transform="translate(-1.662 -9.126)"/><path class="b" d="M13.838,42.753a.983.983,0,0,1-.558-.172L10.685,40.8A.989.989,0,1,1,11.8,39.168l2.594,1.78a.989.989,0,0,1-.56,1.805ZM31.763,16.526a.989.989,0,0,1-.989-.989V9.779a.989.989,0,1,1,1.978,0v5.758A.989.989,0,0,1,31.763,16.526Zm-8.2,2.905a.989.989,0,0,1-.63-.227l-4.44-3.667a.989.989,0,1,1,1.259-1.525l4.441,3.667a.989.989,0,0,1-.63,1.752Zm16.414,0a.989.989,0,0,1-.63-1.752l4.441-3.667a.989.989,0,1,1,1.259,1.525L40.6,19.2A.989.989,0,0,1,39.973,19.431Z" transform="translate(-1.643 -8.79)"/></g></g></svg>