<svg xmlns="http://www.w3.org/2000/svg" width="69.863" height="70" viewBox="0 0 69.863 70"><defs><style>.a{fill:#593cc7;}.b{fill:#fff;stroke:#fff;stroke-width:0.6px;}</style></defs><g transform="translate(-127.5 -185.667)"><g transform="translate(127.5 185.667)"><path class="a" d="M140.412,328.482v11.943h12.081V328.482Z" transform="translate(-135.882 -278.662)"/><path class="a" d="M164.957,376.321a2.06,2.06,0,0,1-2.059,2.059H129.95a2.059,2.059,0,0,1,0-4.118H162.9A2.06,2.06,0,0,1,164.957,376.321Z" transform="translate(-127.754 -308.38)"/><path class="a" d="M177.813,185.667a19.567,19.567,0,0,0-17.633,11.182,23.911,23.911,0,0,0-21.6,23.374l-5.5,3a2.05,2.05,0,0,0-1.069,1.8v2.323h-2.461a2.05,2.05,0,1,0,0,4.1H162.5a2.05,2.05,0,1,0,0-4.1h-2.324V225.02a2.05,2.05,0,0,0-1.069-1.8l-12.031-6.559a2.052,2.052,0,0,0-1.963,0l-2.245,1.224A19.747,19.747,0,0,1,158.7,201.2a19.574,19.574,0,0,0,23.263,23.243,19.783,19.783,0,0,1-21.924,15.87v-4.768H148.145V247.43h11.895v-2.995a23.918,23.918,0,0,0,26.276-21.5,19.621,19.621,0,0,0-8.5-37.27Z" transform="translate(-127.5 -185.667)"/></g><g transform="translate(172.636 197.761)"><g transform="translate(0 0)"><path class="b" d="M274.815,236.628h-.942a4.235,4.235,0,0,0-.793-1.716h1.739a.858.858,0,1,0,.054-1.716h-8.64a.858.858,0,0,0-.054,1.716h3.49a2.569,2.569,0,0,1,2.416,1.716h-5.849a.858.858,0,0,0-.054,1.716h5.9a2.568,2.568,0,0,1-2.416,1.716h-3.433a.858.858,0,0,0-.793,1.186.824.824,0,0,0,.188.28l6.863,6.863a.858.858,0,1,0,1.258-1.168c-.013-.015-.028-.029-.043-.044l-5.4-5.4h1.361a4.294,4.294,0,0,0,4.2-3.433h.946a.858.858,0,1,0,.054-1.716h-.058Z" transform="translate(-265.348 -233.196)"/></g></g></g></svg>