<svg xmlns="http://www.w3.org/2000/svg" width="47.687" height="46.242" viewBox="0 0 47.687 46.242"><defs><style>.a,.b{fill:#0ca4af;}.a{stroke:#0ca4af;stroke-width:0.6px;}</style></defs><g transform="translate(-530 -563)"><g transform="translate(535.822 552.234)"><g transform="translate(14.178 27.766)"><g transform="translate(0)"><path class="a" d="M168.012,130.916h-.8a3.6,3.6,0,0,0-.674-1.458h1.477a.729.729,0,1,0,0-1.458h-7.29a.729.729,0,1,0,0,1.458h2.916a2.183,2.183,0,0,1,2.053,1.458h-4.969a.729.729,0,1,0,0,1.458h4.969a2.183,2.183,0,0,1-2.053,1.458h-2.916a.729.729,0,0,0-.674.451.723.723,0,0,0,0,.557.7.7,0,0,0,.159.238l5.831,5.831a.729.729,0,1,0,1.032-1.029l-4.589-4.589h1.156a3.649,3.649,0,0,0,3.571-2.916h.8a.729.729,0,1,0,0-1.458Z" transform="translate(-159.992 -128)"/></g></g></g><g transform="translate(530 555.579)"><g transform="translate(0 7.421)"><path class="b" d="M52.755,14.907l-10.9-7.333a.9.9,0,0,0-1.393.74v3.964H9.419A3.369,3.369,0,0,0,6.05,15.647V32A1.551,1.551,0,0,0,7.6,33.556h3.636A1.551,1.551,0,0,0,12.789,32V19.026H40.456V23a.892.892,0,0,0,1.393.74l10.9-7.343A.9.9,0,0,0,52.755,14.907Z" transform="translate(-5.461 -7.421)"/><path class="b" d="M40.361,228.324H12.694V224.36a.892.892,0,0,0-1.393-.74L.394,230.953a.9.9,0,0,0,0,1.49l10.9,7.343a.9.9,0,0,0,1.393-.74v-3.973H43.72A3.369,3.369,0,0,0,47.09,231.7V215.345a1.551,1.551,0,0,0-1.551-1.551H41.9a1.551,1.551,0,0,0-1.551,1.551v12.978Z" transform="translate(0 -193.697)"/></g></g></g></svg>