<svg xmlns="http://www.w3.org/2000/svg" width="541.307" height="343.167" viewBox="0 0 541.307 343.167"><defs><style>.a{fill:#07085b;}.b{fill:#55769f;}.c{fill:#ff5b7e;}.d{fill:#e03268;}.e,.g{fill:#8fd0d6;}.f{fill:#cbefef;}.aa,.g,.m,.z{mix-blend-mode:multiply;}.aa,.g,.j,.m,.z{isolation:isolate;}.h{fill:#f4a640;}.i{fill:#f9cc4b;}.j,.q{fill:#fff;}.j{opacity:0.1;mix-blend-mode:color-dodge;}.k{fill:#333;}.l,.m{fill:#3cb4c5;}.m{opacity:0.5;}.aa,.n{fill:#e87b50;}.o{fill:#cfe4ff;}.p{fill:#fdb137;}.r{fill:#feb546;}.s{fill:#f9c27a;}.t{fill:#e2881e;}.u{fill:#ffc0bb;}.v,.z{fill:#f99893;}.w{fill:#daeef7;}.x{fill:#191919;}.y{fill:#fc8d84;opacity:0.6;}.aa,.z{opacity:0.3;}</style></defs><g transform="translate(-315.883 -547.216)"><path class="a" d="M1913.1,565.712c7.491,68.133-30.931,164.9-30.931,164.9s52.508-49.451,51.364-108.018l-16.795-.291s8.652-5.643,16-10.245C1930.719,596.827,1924.768,581.151,1913.1,565.712Z" transform="translate(-1200.415 -14.176)"/><path class="b" d="M1753.938,644.532l10.611-6.269-9.163-1.338a92.677,92.677,0,0,1,13.625-30.293c6.921,2.1,14.841,4.3,14.841,4.3l-8.752-12.477a141.069,141.069,0,0,1,39.086-32.743c7.491,68.133-30.93,164.9-30.93,164.9C1757.014,697.135,1750.546,668.3,1753.938,644.532Z" transform="translate(-1101.499 -14.176)"/><path class="c" d="M1936.1,853.786a85.228,85.228,0,0,0-28.159,19.5c1.052,4.751,2.192,10.467,2.192,10.467l-7.074-4.924c-25.788,31.8-25.437,74.843-25.437,74.843,25.329-10.436,40.468-24.307,49.337-38.381-1.806-2.625-4.544-6.481-4.544-6.481l7.233,1.867a75.475,75.475,0,0,0,7.456-20.753c-3.771-.943-8-2.132-8-2.132l9.013-4.2A77.486,77.486,0,0,0,1936.1,853.786Z" transform="translate(-1196.926 -234.958)"/><path class="d" d="M1926.958,915.29c-1.806-2.625-4.544-6.481-4.544-6.481l7.233,1.867a75.467,75.467,0,0,0,7.456-20.753c-3.771-.943-8-2.132-8-2.132l9.014-4.2a77.491,77.491,0,0,0-2.02-29.805c-32.548,35.134-58.478,99.886-58.478,99.886C1902.95,943.235,1918.089,929.365,1926.958,915.29Z" transform="translate(-1196.927 -234.958)"/><rect class="e" width="175.078" height="88.971" transform="matrix(0.494, -0.869, 0.869, 0.494, 635.546, 801.337)"/><g transform="translate(642.025 656.135)"><path class="f" d="M1862.965,1053.266l-80.88,142.357-70.006-39.774,80.879-142.357ZM1780.1,1188.409l75.653-133.157-60.807-34.547-75.653,133.157Z" transform="translate(-1712.08 -1013.492)"/></g><ellipse class="f" cx="33.038" cy="36.294" rx="33.038" ry="36.294" transform="translate(669.732 758.008) rotate(-60.397)"/><path class="f" d="M1897.232,1602.223a4.823,4.823,0,1,0,1.811,6.576A4.823,4.823,0,0,0,1897.232,1602.223Z" transform="translate(-1206.434 -808.081)"/><path class="f" d="M2147.119,1162.393a4.823,4.823,0,1,0,1.811,6.576A4.823,4.823,0,0,0,2147.119,1162.393Z" transform="translate(-1397.949 -470.993)"/><path class="g" d="M2047.912,1283.821c-.268-.22,6.172-10.864,6.172-10.864l-83.533,32.273,1.106,6.587Z" transform="translate(-1268.149 -556.213)"/><rect class="e" width="175.078" height="88.971" transform="translate(662.113 770.929) rotate(-20.315)"/><g transform="translate(668.903 716.08)"><path class="f" d="M2008.643,1345.623,1855.1,1402.466l-27.953-75.508,153.544-56.843Zm-150.42,50.045,143.622-53.17-24.28-65.585-143.621,53.17Z" transform="translate(-1827.145 -1270.115)"/></g><ellipse class="f" cx="33.038" cy="36.294" rx="33.038" ry="36.294" transform="translate(716.17 759.788) rotate(-20.314)"/><path class="f" d="M1968.221,1623.315a4.823,4.823,0,1,0-2.848,6.2A4.823,4.823,0,0,0,1968.221,1623.315Z" transform="translate(-1259.2 -822.316)"/><path class="f" d="M2442.616,1447.69a4.823,4.823,0,1,0-2.848,6.2A4.823,4.823,0,0,0,2442.616,1447.69Z" transform="translate(-1622.779 -687.716)"/><rect class="e" width="175.078" height="88.971" transform="matrix(1, -0.003, 0.003, 1, 653.823, 774.619)"/><g transform="translate(659.51 778.325)"><path class="f" d="M1950.911,1617.1l-163.728.5-.248-80.515,163.728-.5Zm-158.454-4.8,153.147-.472-.215-69.935-153.147.471Z" transform="translate(-1786.935 -1536.58)"/></g><ellipse class="f" cx="33.038" cy="36.294" rx="33.038" ry="36.294" transform="matrix(1, -0.003, 0.003, 1, 708.408, 782.771)"/><path class="e" d="M2098.531,1616.881c-.522-1.948-1.349-3.55-3.3-4.456a5.291,5.291,0,0,0-.127.772c-.01,3.12.009,6.239-.029,9.358-.009.683.219.934.869,1.143a43.294,43.294,0,0,1,4.463,1.691c5.092,2.284,6.914,6.653,6.3,11.842-.739,6.25-4.169,9.845-10.351,11.2-1.128.248-1.452.73-1.355,1.782.071.767.011,1.545.01,2.4l-4.024-.007c0-1.223,0-2.431.007-3.615-8.773-1.431-11.4-7.744-11.76-12.444l7.207-.778a9.629,9.629,0,0,0,4.549,6.309c0-1.735.006-3.229.009-4.723,0-2.043-.028-4.086.027-6.126a1.161,1.161,0,0,0-.939-1.353,15.518,15.518,0,0,1-6.339-3.57c-3.613-3.576-4.215-7.982-2.878-12.567,1.248-4.281,4.5-6.658,8.87-7.483.292-.055.584-.105.874-.167a3.933,3.933,0,0,0,.406-.144c0-.958,0-1.945.006-3.02l4.086.007c0,.719.045,1.453-.018,2.177-.067.767.26,1.012.979,1.132a10.93,10.93,0,0,1,7.731,4.742,11.618,11.618,0,0,1,1.823,4.97Zm-3.393,14.62c-.007,3.673-.014,7.243-.02,10.818a5.517,5.517,0,0,0,4.736-5.154C2100.086,1634.51,2098.313,1632.311,2095.138,1631.5Zm-4.191-19.163a5.309,5.309,0,0,0-3.609,4.925,5.119,5.119,0,0,0,3.591,4.635C2090.935,1618.764,2090.941,1615.623,2090.947,1612.338Z" transform="translate(-1351.445 -809.1)"/><path class="f" d="M1875.152,1694.936a4.823,4.823,0,1,0-4.808,4.838A4.823,4.823,0,0,0,1875.152,1694.936Z" transform="translate(-1187.642 -875.936)"/><path class="f" d="M2381.009,1693.378a4.823,4.823,0,1,0-4.808,4.838A4.823,4.823,0,0,0,2381.009,1693.378Z" transform="translate(-1575.334 -874.742)"/><path class="g" d="M2107.192,1524.562l-.092-29.9-122.244.258-1.19-7.083,130.133-.414.074,34.707Z" transform="translate(-1278.201 -720.58)"/><circle class="h" cx="63.316" cy="63.316" r="63.316" transform="translate(608.017 800.84) rotate(-45)"/><circle class="i" cx="56.945" cy="56.945" r="56.945" transform="translate(617.028 800.84) rotate(-45)"/><g transform="translate(644.247 747.528)"><g transform="translate(0)"><path class="h" d="M1775.477,1511.362a53.313,53.313,0,1,1,52.74-53.879A53.373,53.373,0,0,1,1775.477,1511.362Zm-1.118-104.66a51.354,51.354,0,1,0,51.9,50.8A51.412,51.412,0,0,0,1774.359,1406.7Z" transform="translate(-1721.595 -1404.74)"/></g></g><g transform="translate(315.883 725.788)"><path class="a" d="M393.906,1418.259s27.816-38.455,13.376-45.57c0,0-2.58-4.082-12.964,10.51,0,0-6.417,2.11-6.782-5.332s10.171-18.765,3.452-25.217-10.187,5.158-14.922,7.363-2.492-27.465-9.059-30.648-8.354,8.523-12.029,9.889-14.536-33.207-32.1-26.781,2.5,19.37,10.931,27.381-8.971,3.54-10.789,13.782,29.235,1.993,26.422,11.954-11.712,4.284-13.37,11.724c-2.681,12.028,28.085.466,27.391,8.748-.553,6.6-11.71,2.26-12.9,7.365S368.687,1416.83,393.906,1418.259Z" transform="translate(-315.883 -1311.675)"/><path class="j" d="M421.311,1379.592q-.191-.132-.4-.254c-.528,1.581-1.18,3.307-1.979,5.1-2.936,6.6-8.523,15.5-18.472,20.608a158.923,158.923,0,0,0-9.407-17.248c2.64-15.035,7.912-23.434,11.871-27.833.343-.381.682-.737,1.016-1.074q-.171-.161-.34-.306c-.325.329-.654.675-.988,1.045-3.964,4.394-9.227,12.737-11.919,27.59l-.047-.075c-3.853-6.137-8.321-12.52-13.361-19.091a108.792,108.792,0,0,1-.905-14.6c.037-5.458.565-12.41,2.548-18.177a4.573,4.573,0,0,0-.45-.088c-1.986,5.818-2.517,12.787-2.554,18.262a111.508,111.508,0,0,0,.807,13.88q-5.785-7.5-12.537-15.293c-12.537-14.471-24.586-26.208-30.867-32.108-.145.076-.284.153-.421.23,6.241,5.858,18.345,17.634,30.944,32.176,2.119,2.446,4.307,5.036,6.523,7.744a110.174,110.174,0,0,0-13.469-1.408,96.132,96.132,0,0,0-20.829,1.215c0,.025-.01.049-.014.074-.024.137-.042.271-.054.4a95.473,95.473,0,0,1,20.868-1.235,106.4,106.4,0,0,1,13.942,1.5c4.9,6.015,9.927,12.6,14.635,19.487-10.808-1.347-28.019,2.377-36.484,4.475q-.02.245-.018.474c8.495-2.111,26.088-5.937,36.848-4.443,6.674,9.817,12.679,20.23,16.748,30.465-9.045,1.47-19.78-2.544-27.229-6.2a109.336,109.336,0,0,1-11.132-6.333,2.778,2.778,0,0,0-.258.376,109.881,109.881,0,0,0,11.183,6.363c7.538,3.7,18.423,7.762,27.61,6.226a82.573,82.573,0,0,1,4,13.053c.079,0,.158.012.237.016,0,0,.062-.086.179-.25a91.864,91.864,0,0,0-6.478-18.874q.973-.5,1.915-1.055a37.955,37.955,0,0,0,9.82-8.435,48.474,48.474,0,0,0,6.966-11.361C420.144,1382.849,420.786,1381.153,421.311,1379.592Z" transform="translate(-328.934 -1318.005)"/></g><rect class="k" width="165.551" height="231.598" rx="12" transform="translate(518.128 633.435)"/><rect class="l" width="137.299" height="35.33" transform="translate(533.035 652.484)"/><path class="m" d="M1249.142,1002.95H1382.8v-5.086H1245.5v35.33h3.643Z" transform="translate(-712.464 -345.38)"/><path class="n" d="M6.364,0H33.032A6.364,6.364,0,0,1,39.4,6.364v0a6.364,6.364,0,0,1-6.364,6.364H6.364A6.364,6.364,0,0,1,0,6.364v0A6.364,6.364,0,0,1,6.364,0Z" transform="translate(533.035 697.893)"/><rect class="n" width="39.396" height="12.728" rx="6.364" transform="translate(581.986 697.893)"/><path class="n" d="M6.364,0H33.032A6.364,6.364,0,0,1,39.4,6.364v0a6.364,6.364,0,0,1-6.364,6.364H6.364A6.364,6.364,0,0,1,0,6.364v0A6.364,6.364,0,0,1,6.364,0Z" transform="translate(630.938 697.893)"/><path class="o" d="M14.267,0h1.954A14.267,14.267,0,0,1,30.488,14.267v0A14.267,14.267,0,0,1,16.221,28.534H14.267A14.267,14.267,0,0,1,0,14.267v0A14.267,14.267,0,0,1,14.267,0Z" transform="translate(533.035 720.7)"/><path class="o" d="M14.267,0h1.954A14.267,14.267,0,0,1,30.488,14.267v0A14.267,14.267,0,0,1,16.222,28.534H14.267A14.267,14.267,0,0,1,0,14.267v0A14.267,14.267,0,0,1,14.267,0Z" transform="translate(568.638 720.7)"/><path class="o" d="M14.267,0h1.954A14.267,14.267,0,0,1,30.488,14.267v0A14.267,14.267,0,0,1,16.222,28.534H14.267A14.267,14.267,0,0,1,0,14.267v0A14.267,14.267,0,0,1,14.267,0Z" transform="translate(604.242 720.7)"/><path class="o" d="M14.267,0h1.953A14.267,14.267,0,0,1,30.488,14.267v0A14.267,14.267,0,0,1,16.221,28.534H14.267A14.267,14.267,0,0,1,0,14.267v0A14.267,14.267,0,0,1,14.267,0Z" transform="translate(533.035 755.877)"/><path class="o" d="M14.267,0h1.954A14.267,14.267,0,0,1,30.488,14.267v0A14.267,14.267,0,0,1,16.221,28.534H14.267A14.267,14.267,0,0,1,0,14.267v0A14.267,14.267,0,0,1,14.267,0Z" transform="translate(568.638 755.877)"/><rect class="o" width="30.488" height="28.534" rx="14.267" transform="translate(604.242 755.877)"/><path class="p" d="M1727.028,1289.892h-18.066a6.211,6.211,0,0,0-6.211,6.211v51.29a6.211,6.211,0,0,0,6.211,6.211h18.066a6.211,6.211,0,0,0,6.211-6.211V1296.1A6.211,6.211,0,0,0,1727.028,1289.892Z" transform="translate(-1062.905 -569.192)"/><path class="o" d="M14.267,0h1.954A14.267,14.267,0,0,1,30.488,14.267v0A14.267,14.267,0,0,1,16.221,28.534H14.267A14.267,14.267,0,0,1,0,14.267v0A14.267,14.267,0,0,1,14.267,0Z" transform="translate(533.035 791.054)"/><path class="o" d="M14.267,0h1.954A14.267,14.267,0,0,1,30.488,14.267v0A14.267,14.267,0,0,1,16.221,28.534H14.267A14.267,14.267,0,0,1,0,14.267v0A14.267,14.267,0,0,1,14.267,0Z" transform="translate(568.638 791.054)"/><rect class="o" width="30.488" height="28.534" rx="14.267" transform="translate(604.242 791.054)"/><rect class="p" width="30.488" height="28.534" rx="14.267" transform="translate(639.846 791.054)"/><path class="o" d="M14.267,0h1.954A14.267,14.267,0,0,1,30.488,14.267v0A14.267,14.267,0,0,1,16.221,28.534H14.267A14.267,14.267,0,0,1,0,14.267v0A14.267,14.267,0,0,1,14.267,0Z" transform="translate(533.035 826.232)"/><path class="o" d="M14.267,0h1.954A14.267,14.267,0,0,1,30.488,14.267v0A14.267,14.267,0,0,1,16.221,28.534H14.267A14.267,14.267,0,0,1,0,14.267v0A14.267,14.267,0,0,1,14.267,0Z" transform="translate(568.638 826.232)"/><rect class="p" width="30.488" height="28.534" rx="14.267" transform="translate(604.242 826.232)"/><path class="n" d="M14.267,0h1.955A14.267,14.267,0,0,1,30.488,14.267v0A14.267,14.267,0,0,1,16.221,28.534H14.267A14.267,14.267,0,0,1,0,14.267v0A14.267,14.267,0,0,1,14.267,0Z" transform="translate(639.846 826.232)"/><g transform="translate(543.301 797.824)"><path class="q" d="M1299.645,1620.058v1.443l-7.039,14.723h-2.263l7.014-14.3v-.05h-7.909v-1.816Z" transform="translate(-1289.448 -1620.058)"/></g><g transform="translate(578.545 797.551)"><path class="q" d="M1440.326,1631.223a4.618,4.618,0,0,1,3.208-4.327l-.025-.074a4,4,0,0,1-2.562-3.631c0-2.562,2.164-4.3,5-4.3,3.134,0,4.7,1.965,4.7,3.979a4.107,4.107,0,0,1-2.661,3.78v.075c2.014.8,3.258,2.213,3.258,4.178,0,2.81-2.412,4.7-5.5,4.7C1442.365,1635.6,1440.326,1633.586,1440.326,1631.223Zm8.7-.1c0-1.965-1.368-2.91-3.557-3.532-1.89.547-2.91,1.791-2.91,3.333a2.989,2.989,0,0,0,3.233,3.084A2.925,2.925,0,0,0,1449.031,1631.124Zm-6.019-8.083c0,1.617,1.219,2.487,3.084,2.985a3.185,3.185,0,0,0,2.462-2.935,2.513,2.513,0,0,0-2.736-2.636A2.571,2.571,0,0,0,1443.012,1623.04Z" transform="translate(-1440.326 -1618.887)"/></g><g transform="translate(578.52 832.296)"><path class="q" d="M1451.188,1775.812c0,5.5-2.04,8.531-5.621,8.531-3.159,0-5.3-2.96-5.347-8.307,0-5.422,2.338-8.406,5.62-8.406C1449.248,1767.629,1451.188,1770.663,1451.188,1775.812Zm-8.78.249c0,4.2,1.293,6.59,3.283,6.59,2.239,0,3.308-2.611,3.308-6.74,0-3.979-1.02-6.591-3.283-6.591C1443.8,1769.32,1442.408,1771.658,1442.408,1776.06Z" transform="translate(-1440.22 -1767.629)"/></g><g transform="translate(614.759 797.551)"><path class="q" d="M1596.725,1633.784a9.131,9.131,0,0,0,1.766-.074,6.1,6.1,0,0,0,3.383-1.567,7.094,7.094,0,0,0,2.139-4.3h-.074a4.744,4.744,0,0,1-3.8,1.741,4.683,4.683,0,0,1-4.776-4.95,5.543,5.543,0,0,1,5.521-5.745c3.308,0,5.347,2.686,5.347,6.815a10.214,10.214,0,0,1-2.786,7.586,8.085,8.085,0,0,1-4.7,2.164,10.206,10.206,0,0,1-2.015.124Zm.8-9.3a3.11,3.11,0,0,0,3.109,3.432,3.619,3.619,0,0,0,3.184-1.691,1.446,1.446,0,0,0,.2-.8c0-2.761-1.02-4.875-3.308-4.875C1598.839,1620.553,1597.521,1622.2,1597.521,1624.483Z" transform="translate(-1595.357 -1618.887)"/></g><g transform="translate(542.256 761.959)"><path class="q" d="M1292.488,1482.684v-4.4h-7.511v-1.443l7.212-10.321h2.363v10.048h2.263v1.716h-2.263v4.4Zm0-6.118v-5.4q0-1.268.075-2.537h-.075c-.5.945-.9,1.642-1.343,2.388l-3.954,5.5v.05Z" transform="translate(-1284.977 -1466.518)"/></g><g transform="translate(578.669 761.959)"><path class="q" d="M1450.583,1468.358h-6.168l-.622,4.153a8.655,8.655,0,0,1,1.318-.1,6.835,6.835,0,0,1,3.482.87,4.608,4.608,0,0,1,2.313,4.153c0,3.159-2.512,5.521-6.019,5.521a7.913,7.913,0,0,1-4.029-.995l.547-1.667a7.24,7.24,0,0,0,3.457.9,3.567,3.567,0,0,0,3.83-3.507c-.025-2.089-1.418-3.581-4.651-3.581a16.73,16.73,0,0,0-2.238.174l1.045-7.76h7.735Z" transform="translate(-1440.858 -1466.518)"/></g><g transform="translate(614.585 761.71)"><path class="q" d="M1604.113,1467.244a7.905,7.905,0,0,0-1.641.1,6.571,6.571,0,0,0-5.621,5.745h.075a4.817,4.817,0,0,1,3.9-1.865c2.861,0,4.875,2.064,4.875,5.223a5.406,5.406,0,0,1-5.372,5.7c-3.457,0-5.721-2.686-5.721-6.889a10.166,10.166,0,0,1,2.736-7.287,8.8,8.8,0,0,1,5.173-2.388,10.522,10.522,0,0,1,1.592-.124Zm-.622,9.327c0-2.313-1.318-3.705-3.333-3.705a3.6,3.6,0,0,0-3.134,1.989,1.862,1.862,0,0,0-.249.97c.05,2.661,1.268,4.626,3.557,4.626C1602.222,1480.45,1603.491,1478.883,1603.491,1476.57Z" transform="translate(-1594.612 -1465.453)"/></g><g transform="translate(544.47 727.587)"><path class="q" d="M1297.736,1321.414h-.05l-2.81,1.517-.423-1.667,3.532-1.89h1.865v16.166h-2.114Z" transform="translate(-1294.453 -1319.375)"/></g><g transform="translate(578.744 727.313)"><path class="q" d="M1441.177,1334.643V1333.3l1.716-1.667c4.129-3.929,5.994-6.019,6.019-8.456a2.884,2.884,0,0,0-3.208-3.158,5.5,5.5,0,0,0-3.432,1.368l-.7-1.542a7.1,7.1,0,0,1,4.576-1.641,4.549,4.549,0,0,1,4.949,4.7c0,2.985-2.164,5.4-5.571,8.68l-1.294,1.194v.05h7.262v1.816Z" transform="translate(-1441.177 -1318.203)"/></g><g transform="translate(614.784 727.313)"><path class="q" d="M1596.061,1332.131a7.313,7.313,0,0,0,3.581,1.02c2.811,0,3.681-1.791,3.656-3.134-.025-2.263-2.064-3.233-4.178-3.233H1597.9v-1.642h1.219c1.592,0,3.606-.82,3.606-2.736,0-1.293-.821-2.437-2.835-2.437a5.94,5.94,0,0,0-3.233,1.069l-.572-1.592a7.682,7.682,0,0,1,4.228-1.244c3.183,0,4.626,1.89,4.626,3.855a4.014,4.014,0,0,1-2.985,3.805v.05a4.211,4.211,0,0,1,3.606,4.153c0,2.587-2.015,4.85-5.894,4.85a8.216,8.216,0,0,1-4.2-1.094Z" transform="translate(-1595.464 -1318.203)"/></g><g transform="translate(546.329 844.654)"><path class="q" d="M1306.311,1822.484a1.95,1.95,0,1,1-1.95-1.95A1.95,1.95,0,0,1,1306.311,1822.484Z" transform="translate(-1302.412 -1820.534)"/></g><g transform="translate(643.508 743.322)"><path class="q" d="M1741.593,1397h-10.262v-10.262h-2.639V1397H1718.43v2.639h10.262V1409.9h2.639v-10.262h10.262Z" transform="translate(-1718.43 -1386.737)"/></g><g transform="translate(612.656 834.31)"><path class="q" d="M1600.013,1788.513l-5.433-5.433,5.433-5.433-1.4-1.4-5.433,5.433-5.433-5.433-1.4,1.4,5.433,5.433-5.433,5.433,1.4,1.4,5.433-5.433,5.433,5.433Z" transform="translate(-1586.353 -1776.25)"/></g><g transform="translate(645.863 804.761)"><rect class="q" width="17.186" height="2.632" transform="translate(0)"/></g><g transform="translate(646.497 835.178)"><rect class="q" width="17.186" height="2.632" transform="translate(0 0)"/></g><g transform="translate(646.497 841.804)"><rect class="q" width="17.186" height="2.632" transform="translate(0 0)"/></g><g transform="translate(382.383 741.006)"><rect class="h" width="57.91" height="24.504" transform="translate(116.273 0.72)"/><rect class="r" width="57.91" height="24.504" transform="translate(58.363 0.72)"/><rect class="s" width="57.91" height="24.504" transform="translate(0.453 0.72)"/><g transform="translate(0)"><path class="t" d="M775.2,1402.767H600.568v-25.946H775.2Zm-173.73-1.44H774.3v-23.065H601.475Z" transform="translate(-600.568 -1376.821)"/></g></g><g transform="translate(373.512 790.017)"><rect class="h" width="57.91" height="24.504" transform="translate(116.273 0.72)"/><rect class="r" width="57.91" height="24.504" transform="translate(58.363 0.72)"/><rect class="s" width="57.91" height="24.504" transform="translate(0.454 0.72)"/><g transform="translate(0)"><path class="t" d="M737.227,1612.579H562.59v-25.946H737.227Zm-173.73-1.44H736.32v-23.065H563.5Z" transform="translate(-562.59 -1586.633)"/></g></g><g transform="translate(382.383 814.522)"><rect class="h" width="57.91" height="24.504" transform="translate(116.273 0.721)"/><rect class="r" width="57.91" height="24.504" transform="translate(58.363 0.721)"/><rect class="s" width="57.91" height="24.504" transform="translate(0.453 0.721)"/><g transform="translate(0)"><path class="t" d="M775.2,1717.484H600.568v-25.946H775.2Zm-173.73-1.44H774.3v-23.065H601.475Z" transform="translate(-600.568 -1691.538)"/></g></g><g transform="translate(396.362 839.027)"><rect class="h" width="57.91" height="24.504" transform="translate(116.273 0.72)"/><rect class="r" width="57.91" height="24.504" transform="translate(58.364 0.72)"/><rect class="s" width="57.91" height="24.504" transform="translate(0.454 0.72)"/><path class="t" d="M835.048,1822.39H660.411v-25.946H835.048Zm-173.73-1.44H834.141v-23.065H661.318Z" transform="translate(-660.411 -1796.444)"/></g><g transform="translate(391.926 765.511)"><rect class="h" width="57.91" height="24.504" transform="translate(116.273 0.72)"/><rect class="r" width="57.91" height="24.504" transform="translate(58.364 0.72)"/><rect class="s" width="57.91" height="24.504" transform="translate(0.454 0.72)"/><g transform="translate(0)"><path class="t" d="M816.059,1507.673H641.422v-25.946H816.059Zm-173.73-1.44H815.152v-23.065H642.329Z" transform="translate(-641.422 -1481.727)"/></g></g><path class="u" d="M1526.26,1041.57v2.249l5.084,1.328.142-4.962Z" transform="translate(-927.641 -377.815)"/><path class="u" d="M1575.647,1043.316V1046s4.884,1.465,4.867,1.477.4-4.4.4-4.4Z" transform="translate(-965.492 -380.029)"/><path class="a" d="M1437.941,589.043l-.932,5.849-1.971-7.8s2.762-1.34,2.884-.853A21.745,21.745,0,0,1,1437.941,589.043Z" transform="translate(-857.728 -29.827)"/><path class="u" d="M1377.564,652.48l-.853,10.112,8.923-.426-1.029-8.955Z" transform="translate(-813.026 -80.675)"/><path class="v" d="M1386.924,657.469l-.489-4.259-7.042-.731-.3,3.5C1380.5,657.377,1383.016,658.823,1386.924,657.469Z" transform="translate(-814.856 -80.675)"/><g transform="translate(557.046 553.171)"><path class="v" d="M1435.134,618.793a1.83,1.83,0,1,0,2.579-1.232A2.047,2.047,0,0,0,1435.134,618.793Z" transform="translate(-1414.64 -606.973)"/><path class="u" d="M1368.036,591.174a9.286,9.286,0,0,0,.814-1.513,17.642,17.642,0,0,0,1.23-4.318c.047-.289.11-.575.179-.86a9.535,9.535,0,1,0-18.784-2.842,2.061,2.061,0,0,0-1.843-.262,2.875,2.875,0,0,0,1.959,5.256,1.819,1.819,0,0,0,.443-.242,8.94,8.94,0,0,0,8.351,8.742,8.555,8.555,0,0,0,5.945-2.045,4.291,4.291,0,0,0,.341-.281A8.271,8.271,0,0,0,1368.036,591.174Z" transform="translate(-1348.292 -572.711)"/><path class="v" d="M1407.436,613.7c.019.546.023,1.079.051,1.6a3.555,3.555,0,0,0,.295,1.417l.041.057a.721.721,0,0,0,.051.071,1.3,1.3,0,0,1,.144.206,1.075,1.075,0,0,1,.142.5,1.126,1.126,0,0,1-.416.883,1.839,1.839,0,0,1-1.641.32,2.272,2.272,0,0,0,1.342-.626.723.723,0,0,0,.2-.547.6.6,0,0,0-.093-.259.835.835,0,0,0-.088-.121l-.068-.09-.076-.106a2.13,2.13,0,0,1-.258-.872,4.453,4.453,0,0,1,0-.841A5.711,5.711,0,0,1,1407.436,613.7Z" transform="translate(-1392.599 -604.128)"/><path class="k" d="M1392.813,613.936a.832.832,0,1,1-.792-.87A.832.832,0,0,1,1392.813,613.936Z" transform="translate(-1381.139 -603.639)"/><path class="k" d="M1423.283,617.371a.832.832,0,1,1-.792-.87A.832.832,0,0,1,1423.283,617.371Z" transform="translate(-1404.49 -606.271)"/><path class="v" d="M1392.295,640.917a6.875,6.875,0,0,0,1.429.952,5.163,5.163,0,0,0,1.615.5,4.4,4.4,0,0,0,1.677-.124,6.176,6.176,0,0,0,1.56-.708,5.247,5.247,0,0,1-.711.5,4.824,4.824,0,0,1-.8.365,4.119,4.119,0,0,1-.865.189,4.371,4.371,0,0,1-.888-.009,4.553,4.553,0,0,1-1.667-.565A4.979,4.979,0,0,1,1392.295,640.917Z" transform="translate(-1382.016 -624.985)"/><path class="a" d="M1387.622,605.507a8.588,8.588,0,0,0-1.217-.292,4.218,4.218,0,0,0-1.156-.026,3.911,3.911,0,0,0-1.112.295c-.192.06-.36.174-.554.255s-.361.212-.571.3a3.5,3.5,0,0,1,.37-.555,2.839,2.839,0,0,1,.5-.453,2.685,2.685,0,0,1,1.29-.5,2.81,2.81,0,0,1,1.368.182A2.561,2.561,0,0,1,1387.622,605.507Z" transform="translate(-1374.902 -597.089)"/><path class="a" d="M1418.44,608.514a2.557,2.557,0,0,1,1.211-.562,2.805,2.805,0,0,1,1.377.087,2.684,2.684,0,0,1,1.169.737,2.85,2.85,0,0,1,.406.542,3.513,3.513,0,0,1,.255.617c-.188-.131-.335-.281-.5-.409s-.317-.261-.494-.357a3.908,3.908,0,0,0-1.033-.505,4.219,4.219,0,0,0-1.139-.2A8.536,8.536,0,0,0,1418.44,608.514Z" transform="translate(-1402.054 -599.683)"/></g><path class="d" d="M1401.063,845.206s-1.86,12.623,10.336,14.822,27.371,1.543,27.371,1.543l2.112,29,6.367.325s16.4-40.288-6.3-46.586l-20.394.1-8.4-.6s-8.5-2.1-8.6-1.7S1401.263,845.406,1401.063,845.206Z" transform="translate(-831.612 -225.968)"/><path class="c" d="M1353.08,845.491s-1.861,12.623,10.336,14.822,27.371,1.543,27.371,1.543l2.112,29,6.367.325s16.395-40.288-6.3-46.586l-20.394.1-8.4-.6s-8.5-2.1-8.6-1.7S1353.28,845.691,1353.08,845.491Z" transform="translate(-794.837 -226.186)"/><path class="k" d="M1318.5,675.881s8.4,1.066,10.53,2.8,12.4,27.192,12.4,27.192l-8.531,10-18.128.133s-13.6,7.331-22.127.4-4.132-31.057.8-36.256,13.729-5.065,13.729-5.065S1315.167,680.679,1318.5,675.881Z" transform="translate(-744.895 -97.997)"/><path class="q" d="M1346.939,732.714a35.261,35.261,0,0,1,.615,4.209c.072.706.1,1.416.144,2.125.021.71.038,1.42.028,2.132a28.1,28.1,0,0,1-.35,4.255,13.989,13.989,0,0,1-1.237,4.075,20.9,20.9,0,0,0,.813-4.133c.155-1.394.208-2.8.226-4.2s-.005-2.814-.05-4.223S1347.014,734.13,1346.939,732.714Z" transform="translate(-789.596 -142.167)"/><path class="q" d="M1457.124,728.72c.384,2.065.79,4.122,1.2,6.176s.858,4.1,1.355,6.132,1.037,4.052,1.7,6.032a29.521,29.521,0,0,0,1.133,2.914,11.224,11.224,0,0,0,1.611,2.673,10.222,10.222,0,0,1-1.852-2.553,24.024,24.024,0,0,1-1.295-2.889c-.377-.985-.7-1.989-1.008-3s-.566-2.029-.819-3.05-.472-2.05-.679-3.081-.4-2.065-.562-3.1C1457.564,732.9,1457.3,730.814,1457.124,728.72Z" transform="translate(-874.655 -139.106)"/><path class="u" d="M1431.009,820.8c-.053-.422-3.257-.893-4.435-.954-.892-.046-6.807-.244-8.818-.335l.148.517-.03,2.284-.33,1.514c1.765.112,6.079.281,6.978.458a22.053,22.053,0,0,1,3.282,1.142s.866-.2-.234-.671a5.282,5.282,0,0,1-1.766-1.265c-.151-.169.013-.469.123-.441,2.995.785,3.3.915,3.3.915s3.521-.02.02-.811c-2.1-.474-2.85-.75-3.037-.985-.079-.1.063-.441.191-.449,1.818-.112,5.081.532,4.187.11a23.033,23.033,0,0,0-3.917-.865c-.055-.009-.143-.341.1-.362C1428.5,820.455,1431.058,821.19,1431.009,820.8Z" transform="translate(-844.32 -208.687)"/><path class="q" d="M1340.789,803.114c.737.179,1.464.385,2.2.54.735.175,1.48.3,2.219.459,1.486.271,2.976.507,4.471.717s3,.377,4.5.522,3.019.276,4.5.359l.2.011.044.173a12.206,12.206,0,0,1,.274,1.5,11.964,11.964,0,0,1,.088,1.51,9.685,9.685,0,0,1-.131,1.511,6.951,6.951,0,0,1-.439,1.458l-.017.041-.032.021-1.646,1.1c-.548.369-1.1.734-1.655,1.093.516-.414,1.037-.82,1.561-1.224l1.569-1.211-.05.062a6.65,6.65,0,0,0,.345-1.4,9.658,9.658,0,0,0,.07-1.45,13.46,13.46,0,0,0-.132-1.451,11.816,11.816,0,0,0-.291-1.42l.243.184c-.783-.021-1.525-.071-2.287-.126s-1.514-.116-2.268-.2c-1.51-.156-3.017-.344-4.516-.584s-2.99-.534-4.468-.883c-.736-.188-1.473-.37-2.2-.6C1342.218,803.623,1341.5,803.368,1340.789,803.114Z" transform="translate(-785.495 -196.122)"/><path class="e" d="M1459.686,752.4H1426.9l-9.3,22.693h-11.318a.842.842,0,0,0-.8.8.809.809,0,0,0,.8.8h42.508Z" transform="translate(-835.076 -157.255)"/><path class="w" d="M1557.738,801a1.577,1.577,0,1,1-1.182-2.058A1.685,1.685,0,0,1,1557.738,801Z" transform="translate(-949.387 -192.901)"/><path class="a" d="M1375.105,553.682s2.8.09-.138-2.277-10.825-5.143-15.881-2.474c0,0-1.011-2.15-2.472-1.636s.95,1.992.95,1.992-1.866-.06-2.436.855c-.421.677.722.706,1.347.676-1.062.181-5.135,2.753-3.091,10.966.727-.16,4.867-6.164,4.867-6.164s9.469,5.26,8.532,1.078c0,0,9.81,6.122,8.418,1.065C1375.2,557.763,1378.994,558.041,1375.105,553.682Z" transform="translate(-794.714)"/><path class="a" d="M1355.2,577.2a1.794,1.794,0,0,1,1.627.394c.843.669.75,3.021.75,3.021s4.025,2.6,3.6-8.387c-.452-11.684-3.358.937-3.358.937Z" transform="translate(-796.544 -15.367)"/><path class="u" d="M848.6,1357.152l5.1-3.145,4.4,2.66-1.538,1.095-5.34.753s-2.084-.267-2.176-.329A7.07,7.07,0,0,1,848.6,1357.152Z" transform="translate(-408.275 -618.33)"/><path class="c" d="M843.269,1365.88l-1.292.831a.708.708,0,0,0,.374,1.307l9.782.046a.625.625,0,0,0,.628-.622l.01-2.047C846.246,1367.438,844,1366.8,843.269,1365.88Z" transform="translate(-402.948 -627.058)"/><path class="u" d="M940.458,1357.937l5.1-3.145,4.4,2.66-1.538,1.095-5.34.753s-2.084-.267-2.176-.329A7.09,7.09,0,0,1,940.458,1357.937Z" transform="translate(-478.679 -618.932)"/><path class="c" d="M935.132,1366.665l-1.292.831a.708.708,0,0,0,.374,1.307l9.782.046a.624.624,0,0,0,.628-.622l.01-2.047C938.109,1368.223,935.862,1367.582,935.132,1366.665Z" transform="translate(-473.353 -627.66)"/><path class="c" d="M1137.726,994.277a6.681,6.681,0,0,1,6.728,0c3.581,2.06,3.581,9.007,2.17,10.669s.072,3.913-2.749,6.083-7.314,2.967-9.879.432-.684-8.192-.684-8.192Z" transform="translate(-625.974 -341.929)"/><path class="u" d="M964,1083.232a.2.2,0,0,1-.346.04c-.693-1-2.891-4.145-3.186-4.027-.351.14,1.545,3,1.334,3.276s-1.99-2.551-2.34-2.34,1.357,2.738,1.24,2.879-2.013-2.107-2.294-2.107,1.451,2.645,1.357,2.855-1.9-1.217-2.036-1.077-.258.211,2.879,4.587c0,0,1.365,1.378,1.458,1.939l1.655.518,1.685-1.662s.164-6.928-.07-7.092S964.913,1080.988,964,1083.232Z" transform="translate(-491.875 -407.749)"/><path class="x" d="M963.7,1260.3l-6.406,21.887-7.74-2.165,2.58-18.379,8-5.49Z" transform="translate(-485.651 -543.332)"/><path class="a" d="M1007.324,1081.617s-13.434,16.53-15.712,19.158L978,1087.341a18.238,18.238,0,0,0-4.147,3.154s5.491,12.675,10.222,16l9.462,6.366-1.811,4.322,3.388,2.628,1.781-4.264,4.877-10.806,4.614-14.369.876-7.126Z" transform="translate(-504.275 -409.569)"/><path class="q" d="M1077.214,1088.619s-5.665,9.228-6.834,12.792-.233,3.855-.759,8.177-4.5,15.887-4.5,15.887l6.6,4.439s3.563-11.39,3.563-11.857,3.329-21.32,3.329-21.32l2.745-7.768Z" transform="translate(-574.223 -414.935)"/><path class="k" d="M918.641,1223.071s-11.331-10.163-20.093-12.208-32.327,33.5-32.327,33.5l5.634,4.057s20.385-14.661,24.24-21.2c0,0,16.561,21.839,22.11,22.365s11.807-.647,19.185-9.514C945.755,1230.015,918.641,1223.071,918.641,1223.071Z" transform="translate(-421.784 -508.559)"/><path class="u" d="M1119.53,1050.111l2.512,6.776s-1.818,4.14-7.907,2.607c0,0,.635-1.446-.394-4.337C1112.688,1052.2,1119.53,1050.111,1119.53,1050.111Z" transform="translate(-611.399 -385.422)"/><path class="y" d="M1119.53,1050.111l1.178,3.165c-.546,2.365-2.537,4.035-6.386,4.672a9.312,9.312,0,0,0-.582-2.792C1112.688,1052.2,1119.53,1050.111,1119.53,1050.111Z" transform="translate(-611.399 -385.422)"/><path class="q" d="M983.15,1252.774a8.444,8.444,0,0,0-.16,1.692,11.529,11.529,0,0,0,.136,1.7,14.99,14.99,0,0,0,.367,1.665,12.225,12.225,0,0,0,.567,1.611l.132-.114a7.673,7.673,0,0,1-.869-.693c-.276-.25-.545-.511-.8-.783s-.5-.559-.735-.85-.459-.594-.682-.9c.193.323.4.639.619.945s.457.6.7.889.507.562.783.821a7.807,7.807,0,0,0,.885.723l.254.174-.121-.288a16.005,16.005,0,0,1-.552-1.589,14.849,14.849,0,0,1-.383-1.641,12.349,12.349,0,0,1-.194-1.674A10.352,10.352,0,0,1,983.15,1252.774Z" transform="translate(-509.832 -540.745)"/><path class="v" d="M1067.8,1026.318a1.807,1.807,0,1,1-2.546-1.216A2.021,2.021,0,0,1,1067.8,1026.318Z" transform="translate(-573.634 -366.145)"/><path class="u" d="M1074.192,999.044a9.17,9.17,0,0,1-.8-1.494,17.427,17.427,0,0,1-1.215-4.264c-.046-.286-.109-.568-.177-.85a9.416,9.416,0,1,1,18.549-2.807,2.035,2.035,0,0,1,1.82-.259,2.839,2.839,0,0,1-1.935,5.191,1.79,1.79,0,0,1-.438-.239,8.828,8.828,0,0,1-8.247,8.633,8.446,8.446,0,0,1-5.871-2.019,4.234,4.234,0,0,1-.337-.278A8.168,8.168,0,0,1,1074.192,999.044Z" transform="translate(-579.289 -332.311)"/><path class="v" d="M1100.949,1021.292c.021.533.038,1.06.024,1.581a6.233,6.233,0,0,1-.067.767,1.916,1.916,0,0,1-.217.683l-.046.065c-.016.023-.026.041-.053.074a1.21,1.21,0,0,0-.132.189.921.921,0,0,0-.093.216.78.78,0,0,0-.041.235,1.045,1.045,0,0,0,.373.814,1.6,1.6,0,0,0,.759.365,2.234,2.234,0,0,0,.809,0,3.085,3.085,0,0,1-.762-.169,1.575,1.575,0,0,1-.615-.4.79.79,0,0,1-.233-.6.6.6,0,0,1,.032-.153.582.582,0,0,1,.067-.146.892.892,0,0,1,.1-.134c.035-.045.092-.121.135-.182a2.147,2.147,0,0,0,.247-.823,4.667,4.667,0,0,0,.011-.817A6.68,6.68,0,0,0,1100.949,1021.292Z" transform="translate(-601.201 -363.335)"/><path class="k" d="M1116.368,1021.522a.822.822,0,1,0,.782-.86A.822.822,0,0,0,1116.368,1021.522Z" transform="translate(-613.497 -362.852)"/><path class="k" d="M1086.279,1024.915a.822.822,0,1,0,.783-.859A.822.822,0,0,0,1086.279,1024.915Z" transform="translate(-590.436 -365.453)"/><path class="z" d="M1103.512,1050.752a2.762,2.762,0,0,0-2.269.387,2.034,2.034,0,0,0-2.138.045,2.271,2.271,0,0,0,2.461,1.571A2.031,2.031,0,0,0,1103.512,1050.752Z" transform="translate(-600.267 -385.842)"/><path class="v" d="M1101.924,1048.167a6.836,6.836,0,0,1-1.411.94,5.1,5.1,0,0,1-1.595.49,4.346,4.346,0,0,1-1.656-.122,6.118,6.118,0,0,1-1.54-.7,5.189,5.189,0,0,0,.7.5,4.749,4.749,0,0,0,.79.36,4.073,4.073,0,0,0,.854.186,4.32,4.32,0,0,0,.877-.009,4.5,4.5,0,0,0,1.646-.558A4.924,4.924,0,0,0,1101.924,1048.167Z" transform="translate(-597.674 -383.932)"/><path class="c" d="M1111.954,1013.2a8.5,8.5,0,0,1,1.2-.288,4.169,4.169,0,0,1,1.141-.025,3.845,3.845,0,0,1,1.1.291c.19.059.355.172.547.251s.356.209.564.3a3.475,3.475,0,0,0-.365-.548,2.8,2.8,0,0,0-.5-.448,2.657,2.657,0,0,0-1.274-.49,2.771,2.771,0,0,0-1.35.18A2.529,2.529,0,0,0,1111.954,1013.2Z" transform="translate(-610.115 -356.384)"/><path class="c" d="M1082.142,1016.168a2.527,2.527,0,0,0-1.2-.555,2.769,2.769,0,0,0-1.359.086,2.653,2.653,0,0,0-1.154.728,2.817,2.817,0,0,0-.4.535,3.461,3.461,0,0,0-.251.609c.186-.129.331-.277.495-.4s.313-.258.487-.353a3.868,3.868,0,0,1,1.021-.5,4.172,4.172,0,0,1,1.125-.2A8.451,8.451,0,0,1,1082.142,1016.168Z" transform="translate(-583.923 -358.946)"/><g transform="translate(423.846 647.483)"><circle class="h" cx="28.847" cy="28.847" r="28.847" transform="translate(0 40.796) rotate(-45)"/><circle class="i" cx="25.944" cy="25.944" r="25.944" transform="translate(13.694 65.528) rotate(-87.382)"/><g transform="translate(16.506 16.506)"><path class="h" d="M882.1,1093.933a24.289,24.289,0,1,1,13.447-31.609A24.317,24.317,0,0,1,882.1,1093.933ZM864.273,1049.7a23.4,23.4,0,1,0,30.447,12.953A23.424,23.424,0,0,0,864.273,1049.7Z" transform="translate(-848.73 -1047.115)"/></g></g><path class="u" d="M976.089,1164.537a.218.218,0,0,1-.247.294c-1.313-.278-5.453-1.125-5.6-.807-.174.378,3.505,1.225,3.55,1.61s-3.524-.533-3.645-.1,3.161,1.161,3.174,1.363-3.206-.16-3.431.053,3.164,1.016,3.249,1.255-2.439.463-2.444.682-.047.364,5.778,1.488l2.312.344,2.04-.738.089-2.606s-5.119-5.665-5.43-5.619S975.117,1162.052,976.089,1164.537Z" transform="translate(-501.228 -470.989)"/><path class="b" d="M1038.5,1074.241s11.565,13.931,9.988,38.463-1.84,24.707-1.84,24.707-7.1-.759-12.354-4.965a61.547,61.547,0,0,0-11.682-7.068l4.264-13.843s-5.549.175-9.579-1.519-12.441-6.191-12.441-6.191.7-4.147,1.577-5.432c0,0,10.689,3.271,16.063,3.329C1022.5,1101.723,1028.75,1082.448,1038.5,1074.241Z" transform="translate(-528.038 -403.916)"/><path class="a" d="M1095.452,1093.369a48.963,48.963,0,0,0-4.91,4.956,58.4,58.4,0,0,0-4.245,5.548l-.484.728c-.162.242-.324.484-.471.736l-.908,1.494c-.155.247-.287.507-.428.762l-.417.768-.417.768c-.136.258-.253.525-.381.787l-.749,1.579-.657,1.619-.322.811-.274.829q-.276.828-.538,1.659.324-.81.636-1.622l.314-.811.362-.792.714-1.585.789-1.548c.134-.257.257-.519.4-.772l.427-.756.427-.756c.144-.251.279-.507.437-.75l.912-1.478c.148-.249.31-.488.473-.728l.484-.721q1.938-2.882,4.152-5.57l1.121-1.329c.385-.434.762-.874,1.152-1.3C1093.822,1095.024,1094.626,1094.186,1095.452,1093.369Z" transform="translate(-585.817 -418.576)"/><path class="a" d="M1116.112,1135c-.952,2.143-1.969,4.253-3.019,6.345-.53,1.043-1.068,2.082-1.629,3.109s-1.129,2.048-1.729,3.051-1.212,2-1.863,2.968c-.318.49-.659.964-.994,1.442s-.691.941-1.055,1.4a26.48,26.48,0,0,1-2.33,2.605,12.276,12.276,0,0,1-2.8,2.084,11.563,11.563,0,0,0,2.932-1.942,23.754,23.754,0,0,0,2.438-2.554c.759-.9,1.452-1.854,2.119-2.822s1.292-1.965,1.892-2.975c1.2-2.022,2.287-4.106,3.295-6.226S1115.3,1137.2,1116.112,1135Z" transform="translate(-601.483 -450.483)"/><path class="c" d="M1066.274,963.362a11.309,11.309,0,0,1,6.259-5.528,12.056,12.056,0,0,1,8.756-.16c7.966,2.991,6.378,11.777,6,13.421a2.15,2.15,0,0,0-1.542.269,3.615,3.615,0,0,0-.661.453c-1.55-.472-2.019-3.045-2.821-4.285-1.089-1.682-5.31-.08-7.13-1.274a4.736,4.736,0,0,1-2.13-2.435c-7.017,1.112-6.491,9.01-6.491,9.01-.3-.068-1-1.2-1-1.2S1063.786,968.775,1066.274,963.362Z" transform="translate(-574.075 -314.006)"/><path class="q" d="M2240.85,1343.218a7.267,7.267,0,0,1-.617-.748,8.168,8.168,0,0,1-.525-.824,7.462,7.462,0,0,1-.43-.881,9.268,9.268,0,0,1-.327-.932,5.347,5.347,0,0,0,.209.975c.046.161.107.316.166.473s.13.309.208.457a6.614,6.614,0,0,0,.514.863,5.983,5.983,0,0,0,.5.633,3.646,3.646,0,0,1-1.232.031c-.12-.014-.237-.042-.354-.067s-.234-.062-.346-.108a3.87,3.87,0,0,1-.661-.317,3.025,3.025,0,0,0,1.333.655,3.313,3.313,0,0,0,.753.076,3.106,3.106,0,0,0,.759-.1l.182-.048Z" transform="translate(-1473.092 -607.467)"/><path class="u" d="M2004.061,1441.791l-.076.033a.961.961,0,0,1-1.22-.4l-2.793-4.85a.7.7,0,0,1,.018-.754c.473-.706,1.491-2.157,1.839-2.1.459.07-.941,2.482-.751,2.531s2.172-1.558,2.34-1.3c.15.234-1.594,2.1-1.514,2.249s2.094-1.024,2.312-.815c.2.189-1.7,1.7-1.675,1.805Z" transform="translate(-1290.62 -679.419)"/><path class="u" d="M2010.72,1451.685s2.016-.613,2.194-.385-2.2,1.512-2.194,1.453S2010.72,1451.685,2010.72,1451.685Z" transform="translate(-1298.935 -692.857)"/><g transform="translate(607.297 665.194)"><path class="q" d="M1574.365,1074.432l-10.622-4.1a.515.515,0,0,1-.294-.666l.079-.206a.515.515,0,0,1,.666-.294l10.622,4.1a.514.514,0,0,1,.294.665l-.079.206A.515.515,0,0,1,1574.365,1074.432Z" transform="translate(-1563.414 -1065.191)"/><path class="k" d="M1567.092,1052.725l-1.637,3.093c-.2.381-.118.831.175.944l10.206,3.944a.8.8,0,0,0,.851-.219,1.52,1.52,0,0,0,.273-1.556c-.414-1.645-3.295-3.12-4.337-4.79l-4.754-1.838A.676.676,0,0,0,1567.092,1052.725Z" transform="translate(-1564.894 -1052.276)"/><g transform="translate(6.248 2.412)"><path class="q" d="M1590.195,1063.661h0a.234.234,0,0,1,.044-.287,2.113,2.113,0,0,1,2.6-.491.2.2,0,0,1,.029.254l0,0c-.05.093-.141.131-.207.092a1.823,1.823,0,0,0-2.274.421A.124.124,0,0,1,1590.195,1063.661Z" transform="translate(-1590.163 -1062.604)"/></g><g transform="translate(7.147 3.239)"><path class="q" d="M1594.042,1067.2h0a.235.235,0,0,1,.044-.287,2.114,2.114,0,0,1,2.605-.491.2.2,0,0,1,.029.254l0,0c-.05.093-.141.131-.208.092a1.822,1.822,0,0,0-2.274.421A.124.124,0,0,1,1594.042,1067.2Z" transform="translate(-1594.01 -1066.144)"/></g><g transform="translate(7.983 4.01)"><path class="q" d="M1597.618,1070.5h0a.235.235,0,0,1,.044-.287,2.113,2.113,0,0,1,2.6-.491.2.2,0,0,1,.029.255l0,0c-.05.093-.141.131-.208.092a1.822,1.822,0,0,0-2.273.421A.124.124,0,0,1,1597.618,1070.5Z" transform="translate(-1597.586 -1069.442)"/></g><path class="aa" d="M1568.355,1062.912c.208-2.93-1.067-3.755-1.847-3.987l-1.053,1.99c-.2.382-.118.831.175.944Z" transform="translate(-1564.894 -1057.372)"/></g><g transform="translate(596.185 665.812)"><path class="q" d="M1527.087,1076.961l-10.882-3.354a.515.515,0,0,1-.34-.643l.065-.211a.515.515,0,0,1,.644-.34l10.883,3.354a.514.514,0,0,1,.34.643l-.065.211A.514.514,0,0,1,1527.087,1076.961Z" transform="translate(-1515.842 -1068.309)"/><path class="k" d="M1519.061,1055.41l-1.417,3.2c-.175.394-.06.837.241.93l10.457,3.223a.8.8,0,0,0,.833-.278,1.521,1.521,0,0,0,.164-1.571c-.528-1.612-3.5-2.883-4.661-4.476l-4.871-1.5A.675.675,0,0,0,1519.061,1055.41Z" transform="translate(-1517.16 -1054.918)"/><g transform="translate(6.144 2.044)"><path class="q" d="M1542.184,1064.845h0a.235.235,0,0,1,.024-.289,2.114,2.114,0,0,1,2.564-.672.2.2,0,0,1,.047.252v0c-.044.1-.132.141-.2.106a1.822,1.822,0,0,0-2.239.578A.124.124,0,0,1,1542.184,1064.845Z" transform="translate(-1542.144 -1063.669)"/></g><g transform="translate(7.098 2.806)"><path class="q" d="M1546.268,1068.108h0a.235.235,0,0,1,.024-.289,2.113,2.113,0,0,1,2.564-.672.2.2,0,0,1,.047.252v0c-.044.1-.132.141-.2.106a1.824,1.824,0,0,0-2.239.578A.124.124,0,0,1,1546.268,1068.108Z" transform="translate(-1546.228 -1066.931)"/></g><g transform="translate(7.985 3.516)"><path class="q" d="M1550.065,1071.149h0a.235.235,0,0,1,.024-.289,2.113,2.113,0,0,1,2.564-.672.2.2,0,0,1,.047.251v0c-.043.1-.132.141-.2.106a1.823,1.823,0,0,0-2.239.578A.124.124,0,0,1,1550.065,1071.149Z" transform="translate(-1550.026 -1069.972)"/></g><path class="aa" d="M1520.676,1065.762c0-2.937-1.325-3.671-2.12-3.848l-.911,2.058c-.175.394-.06.837.241.93Z" transform="translate(-1517.16 -1060.28)"/></g></g></svg>