<svg xmlns="http://www.w3.org/2000/svg" width="22.961" height="20.718" viewBox="0 0 22.961 20.718"><defs><style>.a{fill:#f37921;}</style></defs><g transform="translate(-767.52 -435.282)"><path class="a" d="M22.961,31.458V28.812a2.02,2.02,0,0,0-2.018-2.018h-.269V29.26a.673.673,0,0,1-1.345,0V25.673a.673.673,0,1,0-1.345,0v1.121H13.5V29.26a.673.673,0,1,1-1.345,0V25.673a.673.673,0,1,0-1.345,0v1.121H6.323V29.26a.673.673,0,1,1-1.345,0V25.673a.673.673,0,1,0-1.345,0v1.121H2.018A2.02,2.02,0,0,0,0,28.812v2.646Z" transform="translate(767.52 410.282)"/><path class="a" d="M0,199v10.9a2.02,2.02,0,0,0,2.018,2.018H20.943a2.02,2.02,0,0,0,2.018-2.018V199Zm6.458,9.328H5.023a.673.673,0,0,1,0-1.345H6.458a.673.673,0,1,1,0,1.345Zm0-2.87H5.023a.673.673,0,0,1,0-1.345H6.458a.673.673,0,1,1,0,1.345Zm0-2.87H5.023a.673.673,0,0,1,0-1.345H6.458a.673.673,0,1,1,0,1.345Zm5.74,5.74H10.763a.673.673,0,0,1,0-1.345H12.2a.673.673,0,0,1,0,1.345Zm0-2.87H10.763a.673.673,0,0,1,0-1.345H12.2a.673.673,0,0,1,0,1.345Zm0-2.87H10.763a.673.673,0,0,1,0-1.345H12.2a.673.673,0,0,1,0,1.345Zm5.74,5.74H16.5a.673.673,0,0,1,0-1.345h1.435a.673.673,0,1,1,0,1.345Zm0-2.87H16.5a.673.673,0,0,1,0-1.345h1.435a.673.673,0,1,1,0,1.345Zm0-2.87H16.5a.673.673,0,0,1,0-1.345h1.435a.673.673,0,1,1,0,1.345Z" transform="translate(767.52 244.084)"/></g></svg>