<svg xmlns="http://www.w3.org/2000/svg" width="16.508" height="18.866" viewBox="0 0 16.508 18.866"><defs><style>.a{fill:#9aa2aa;}</style></defs><path class="a" d="M16.066,5.9H.442A.443.443,0,0,1,0,5.454V4.127A1.769,1.769,0,0,1,1.769,2.358H3.537V.442A.443.443,0,0,1,3.98,0H5.454A.443.443,0,0,1,5.9.442V2.358h4.717V.442A.443.443,0,0,1,11.055,0h1.474a.443.443,0,0,1,.442.442V2.358h1.769a1.769,1.769,0,0,1,1.769,1.769V5.454A.443.443,0,0,1,16.066,5.9ZM.442,7.075H16.066a.443.443,0,0,1,.442.442V17.1a1.769,1.769,0,0,1-1.769,1.769H1.769A1.769,1.769,0,0,1,0,17.1V7.517A.443.443,0,0,1,.442,7.075Zm4.274,7.517a.443.443,0,0,0-.442-.442H2.8a.443.443,0,0,0-.442.442v1.474a.443.443,0,0,0,.442.442H4.274a.443.443,0,0,0,.442-.442Zm0-4.717a.443.443,0,0,0-.442-.442H2.8a.443.443,0,0,0-.442.442v1.474a.443.443,0,0,0,.442.442H4.274a.443.443,0,0,0,.442-.442Zm4.717,4.717a.443.443,0,0,0-.442-.442H7.517a.443.443,0,0,0-.442.442v1.474a.443.443,0,0,0,.442.442H8.991a.443.443,0,0,0,.442-.442Zm0-4.717a.443.443,0,0,0-.442-.442H7.517a.443.443,0,0,0-.442.442v1.474a.443.443,0,0,0,.442.442H8.991a.443.443,0,0,0,.442-.442Zm4.717,4.717a.443.443,0,0,0-.442-.442H12.234a.443.443,0,0,0-.442.442v1.474a.443.443,0,0,0,.442.442h1.474a.443.443,0,0,0,.442-.442Zm0-4.717a.443.443,0,0,0-.442-.442H12.234a.443.443,0,0,0-.442.442v1.474a.443.443,0,0,0,.442.442h1.474a.443.443,0,0,0,.442-.442Z"/></svg>