<svg xmlns="http://www.w3.org/2000/svg" width="50" height="50.001" viewBox="0 0 50 50.001"><defs><style>.a{fill:#c97a03;}</style></defs><g transform="translate(0 0)"><path class="a" d="M43.1,22.458a22.933,22.933,0,0,1-3.375,1.75,5.65,5.65,0,0,1-4.458,0A26.522,26.522,0,0,1,29.1,20.5H9.208l3.083-7.083a2.1,2.1,0,0,1,1.9-1.25H22.4A17.032,17.032,0,0,1,21.1,8H14.187a6.275,6.275,0,0,0-5.729,3.75L4.333,21.229c-.021.042,0,.083-.021.146A7.793,7.793,0,0,0,0,28.312v7.812a5.208,5.208,0,1,0,10.417,0V35.083h25v1.042a5.208,5.208,0,1,0,10.417,0V28.312A7.617,7.617,0,0,0,43.1,22.458ZM12.5,30.917H8.333a2.083,2.083,0,0,1,0-4.167H12.5a2.083,2.083,0,0,1,0,4.167Zm25,0H33.333a2.083,2.083,0,1,1,0-4.167H37.5a2.083,2.083,0,0,1,0,4.167Z" transform="translate(0 8.667)"/><path class="a" d="M35.94,3.8,25,.084a1.536,1.536,0,0,0-1,0L13.06,3.8A1.56,1.56,0,0,0,12,5.284v8.371c0,10.217,11.4,15.183,11.89,15.39a1.571,1.571,0,0,0,1.221,0C25.6,28.838,37,23.871,37,13.655V5.284A1.56,1.56,0,0,0,35.94,3.8Zm-4.594,7.9L25.617,19a2.082,2.082,0,0,1-2.992.3l-3.646-3.125A2.083,2.083,0,0,1,21.69,13l2,1.71,4.385-5.581A2.082,2.082,0,0,1,31.346,11.7Z" transform="translate(13)"/></g></svg>