<svg xmlns="http://www.w3.org/2000/svg" width="35.023" height="33.334" viewBox="0 0 35.023 33.334">
  <g id="Clients_with_ceases_SIPs_in_last_60_days" data-name="Clients with ceases SIPs  in last 60 days" transform="translate(0.01 -0.165)">
    <g id="c" transform="translate(-0.01)">
      <g id="d">
        <g id="e">
          <path id="Path_6620" data-name="Path 6620" d="M16.571,0c.386.077.759.129,1.132.219A6.036,6.036,0,1,1,15.593.064c.1,0,.206-.051.322-.064Zm-.347,1.659A4.43,4.43,0,0,0,11.8,6.032a4.729,4.729,0,0,0,1.093,2.932,4.5,4.5,0,0,0,3.292,1.518,4.389,4.389,0,0,0,2.726-1,4.62,4.62,0,0,0,1.71-3.4,4.535,4.535,0,0,0-4.4-4.424Z" transform="translate(1.584 0.315)" fill="#a89ee6" stroke="#fff" stroke-width="0.3"/>
          <path id="Path_6621" data-name="Path 6621" d="M29,18.7c.09-.339.147-.588.237-.825a2.89,2.89,0,0,1,4.5-1.334,2.751,2.751,0,0,1,1.277,2.418,1.955,1.955,0,0,1-2.147,2c-.61-.034-1.209-.147-1.808-.226-.057,0-.124-.011-.226-.023a5.068,5.068,0,0,0,2.125,2.125c.09.057.192.09.283.147a.646.646,0,0,1,.373.893.714.714,0,0,1-.961.4,5.914,5.914,0,0,1-3.436-3.808c-.023-.09-.057-.17-.079-.26h-.079v.881a18.559,18.559,0,0,1-1.277,5.345c-.441,1.288-.836,2.588-1.2,3.888a2.227,2.227,0,0,1-1.65,1.593,4.706,4.706,0,0,1-3.413-.294,2.284,2.284,0,0,1-1.356-1.8c-.034-.192-.1-.26-.305-.283-2.226-.147-4.441-.305-6.668-.452h-.418c-.113.316-.215.655-.339.983a2.612,2.612,0,0,1-2.769,1.91,16.8,16.8,0,0,1-1.989-.136A1.426,1.426,0,0,1,6.443,30.8a12.367,12.367,0,0,1-.373-1.819,1.8,1.8,0,0,0-.554-1.1c-.633-.588-1.277-1.175-1.966-1.706a1.625,1.625,0,0,0-.881-.305A2.153,2.153,0,0,1,.476,23.889C.25,22.725.126,21.538,0,20.352A2.152,2.152,0,0,1,1.99,17.967a.95.95,0,0,0,.746-.429c.249-.373.486-.757.735-1.141-.192-.249-.384-.486-.565-.723a1.862,1.862,0,0,1-.429-1.254,1.409,1.409,0,0,1,.972-1.277,6.085,6.085,0,0,1,2.328-.4c.678,0,1.356.023,2.023,0a1.386,1.386,0,0,0,.678-.147A16.036,16.036,0,0,1,13.9,10.825c3.243-.588,8.826.927,11.267,2.712a9.036,9.036,0,0,1,3.537,4.758c.034.124.158.215.283.373ZM5.369,16.148c-.328.554-.655,1.062-.961,1.593a3.03,3.03,0,0,1-2.215,1.684c-.622.1-.791.429-.689,1.074.09.588.158,1.187.249,1.786.079.554.147,1.107.271,1.65.1.475.237.542.723.565a2.74,2.74,0,0,1,1.7.6c.746.622,1.469,1.254,2.17,1.91a3.038,3.038,0,0,1,.949,1.921c.045.452.113.915.181,1.367a.4.4,0,0,0,.418.362c.452.023.893.079,1.345.09a1.455,1.455,0,0,0,1.718-1.243c.17-.531.328-1.062.486-1.593.045-.147.1-.2.271-.181q.559.068,1.119.1,3.933.254,7.854.5c.192.011.26.068.294.237.113.463.215.938.373,1.39a.987.987,0,0,0,.373.52,3.149,3.149,0,0,0,2.791.113.708.708,0,0,0,.418-.52c.362-1.266.712-2.531,1.141-3.775a19.613,19.613,0,0,0,1.232-4.509,7.924,7.924,0,0,0-.441-3.8,7.532,7.532,0,0,0-3.458-3.763,15.91,15.91,0,0,0-9.448-2.034A11.634,11.634,0,0,0,9.3,13.718a2.917,2.917,0,0,1-1.582.418c-.893,0-1.786-.011-2.667.023a6.778,6.778,0,0,0-1.062.2v.124l1.379,1.65Zm27.2,3.571c.384-.057.78-.068.972-.452a1.073,1.073,0,0,0-.136-1.1,1.681,1.681,0,0,0-1.955-.735,1.73,1.73,0,0,0-1.017,1.6.268.268,0,0,0,.136.2c.667.17,1.322.316,1.989.475Z" transform="translate(0.01 1.392)" fill="#a89ee6"/>
          <path id="Path_6622" data-name="Path 6622" d="M16.038,4.232a1.151,1.151,0,0,0-1.055-.974H13.712a.188.188,0,0,1-.149-.189.2.2,0,0,1,.162-.189H16.9a.2.2,0,0,1,.216.189.188.188,0,0,1-.2.189H15.93a4.447,4.447,0,0,1,.311.446c.081.162.122.338.2.527h.46a.193.193,0,0,1,.216.189c0,.108-.081.176-.216.189h-.392c-.068,0-.095.014-.108.095A1.552,1.552,0,0,1,14.875,5.99h-.608c.027.041.054.054.068.081.541.473,1.082.933,1.623,1.406.122.108.135.2.068.284s-.189.095-.311,0L13.645,5.976a.183.183,0,0,1,.122-.338h1.1A1.2,1.2,0,0,0,16,4.773a.6.6,0,0,1,.027-.135H13.793c-.149,0-.243-.081-.243-.189s.095-.189.243-.189h2.231Z" transform="translate(2.716 0.935)" fill="#a89ee6" stroke="#a89ee6" stroke-width="0.6"/>
          <text id="SIP" transform="translate(10.036 24.68)" fill="#a89ee6" stroke="#a89ee6" stroke-width="0.3" font-size="9" font-family="Helvetica"><tspan x="0" y="0">SIP</tspan></text>
          <path id="Path_6623" data-name="Path 6623" d="M7.714,17.136a.859.859,0,0,1-.836.848.842.842,0,1,1,0-1.684.859.859,0,0,1,.836.848Z" transform="translate(0.796 2.121)" fill="#a89ee6"/>
        </g>
      </g>
    </g>
  </g>
</svg>
