<svg xmlns="http://www.w3.org/2000/svg" width="30.241" height="27.001" viewBox="0 0 30.241 27.001"><defs><style>.a{fill:#f37921;}</style></defs><g transform="translate(0 -27.411)"><g transform="translate(0 27.411)"><path class="a" d="M13.876,41.755q.776-1.839,1.316-2.886a14.391,14.391,0,0,1,.76-1.308,6.829,6.829,0,0,1,.86-1.038,3.311,3.311,0,0,1,1.165-.76,4.059,4.059,0,0,1,1.468-.253h4.32v3.24a.549.549,0,0,0,.928.388l5.4-5.4a.572.572,0,0,0,0-.777L24.71,27.579a.634.634,0,0,0-.405-.168.519.519,0,0,0-.54.54v3.24h-4.32a8.119,8.119,0,0,0-2.16.279,8.3,8.3,0,0,0-1.8.709,6.88,6.88,0,0,0-1.519,1.156,13.483,13.483,0,0,0-1.249,1.4,14.317,14.317,0,0,0-1.08,1.687q-.565,1.013-.911,1.772t-.835,1.873q-.776,1.839-1.316,2.886a14.417,14.417,0,0,1-.759,1.308A6.837,6.837,0,0,1,6.957,45.3a3.31,3.31,0,0,1-1.164.76,4.062,4.062,0,0,1-1.468.253H.544a.519.519,0,0,0-.54.54v3.24a.52.52,0,0,0,.54.54h3.78a8.112,8.112,0,0,0,2.16-.279,8.32,8.32,0,0,0,1.8-.709A6.882,6.882,0,0,0,9.8,48.489a13.512,13.512,0,0,0,1.249-1.4A14.381,14.381,0,0,0,12.13,45.4q.565-1.013.911-1.772T13.876,41.755Z" transform="translate(-0.004 -27.411)"/><path class="a" d="M.54,95.686H4.32a3.779,3.779,0,0,1,1.375.245,3.969,3.969,0,0,1,1.063.591,4.707,4.707,0,0,1,.861.953A11.158,11.158,0,0,1,8.3,98.547q.253.464.624,1.224a31.259,31.259,0,0,1,2.312-4.607,8.173,8.173,0,0,0-6.919-3.8H.54a.52.52,0,0,0-.54.54v3.24a.52.52,0,0,0,.54.54Z" transform="translate(0 -87.586)"/><path class="a" d="M224.3,278.56a.635.635,0,0,0-.405-.168.519.519,0,0,0-.54.54v3.24h-4.32a3.777,3.777,0,0,1-1.376-.245,3.961,3.961,0,0,1-1.063-.591,4.7,4.7,0,0,1-.86-.954,11.054,11.054,0,0,1-.684-1.072q-.253-.463-.624-1.223a33.958,33.958,0,0,1-2.3,4.607,9.728,9.728,0,0,0,.945,1.173q.489.515.928.9a4.833,4.833,0,0,0,1,.675q.557.287.979.481a4.561,4.561,0,0,0,1.063.312q.641.118,1.08.177t1.2.085q.759.025,1.231.017t1.367-.017q.895-.008,1.435-.009v3.24a.547.547,0,0,0,.54.54.524.524,0,0,0,.388-.152l5.4-5.4a.572.572,0,0,0,0-.776Z" transform="translate(-199.594 -263.27)"/></g></g></svg>