<svg width="15" height="15" viewBox="0 0 15 15" fill="none" xmlns="http://www.w3.org/2000/svg">
<g clip-path="url(#clip0_3092_39264)">
<path d="M7.95453 2.79785H7.01703V8.01595L10.4041 9.62575L10.8066 8.77901L7.95453 7.42351V2.79785Z" fill="white"/>
<path d="M7.5 0.46875C3.61676 0.46875 0.46875 3.61676 0.46875 7.5C0.46875 11.3832 3.61676 14.5312 7.5 14.5312C11.3832 14.5312 14.5312 11.3832 14.5312 7.5C14.5312 3.61676 11.3832 0.46875 7.5 0.46875ZM7.5 13.5938C4.13452 13.5938 1.40625 10.8655 1.40625 7.5C1.40625 4.13452 4.13452 1.40625 7.5 1.40625C10.8655 1.40625 13.5938 4.13452 13.5938 7.5C13.5938 10.8655 10.8655 13.5938 7.5 13.5938Z" fill="white"/>
</g>
<defs>
<clipPath id="clip0_3092_39264">
<rect width="15" height="15" fill="white"/>
</clipPath>
</defs>
</svg>
