<svg width="12" height="12" viewBox="0 0 12 12" fill="none" xmlns="http://www.w3.org/2000/svg">
<path d="M10.1817 6.35318C10.2755 6.25942 10.3281 6.13227 10.3281 5.99968C10.3281 5.8671 10.2755 5.73995 10.1817 5.64618L7.35323 2.81768C7.30711 2.76993 7.25194 2.73184 7.19093 2.70563C7.12993 2.67943 7.06432 2.66563 6.99793 2.66506C6.93154 2.66448 6.8657 2.67713 6.80425 2.70227C6.74281 2.72741 6.68698 2.76454 6.64003 2.81149C6.59309 2.85843 6.55596 2.91426 6.53082 2.97571C6.50568 3.03715 6.49303 3.10299 6.49361 3.16938C6.49418 3.23577 6.50798 3.30138 6.53418 3.36239C6.56039 3.42339 6.59848 3.47856 6.64623 3.52468L8.62123 5.49968L1.99973 5.49968C1.86712 5.49968 1.73995 5.55236 1.64618 5.64613C1.55241 5.7399 1.49973 5.86707 1.49973 5.99968C1.49973 6.13229 1.55241 6.25947 1.64618 6.35324C1.73995 6.447 1.86712 6.49968 1.99973 6.49968L8.62123 6.49968L6.64623 8.47468C6.55515 8.56898 6.50476 8.69529 6.50589 8.82638C6.50703 8.95748 6.55962 9.08289 6.65232 9.17559C6.74503 9.2683 6.87043 9.32088 7.00153 9.32202C7.13263 9.32316 7.25893 9.27276 7.35323 9.18168L10.1817 6.35318Z" fill="#5739BC"/>
</svg>
