<svg width="20" height="21" viewBox="0 0 20 21" fill="none" xmlns="http://www.w3.org/2000/svg">
<path d="M4.35241 16.8741C4.35172 16.9933 4.43173 17.0935 4.53673 17.127C4.56383 17.1356 4.58862 17.1398 4.61896 17.1383L15.821 17.1171C15.9671 17.1152 16.087 16.9967 16.0851 16.8506C16.0832 16.7044 15.9647 16.5845 15.8186 16.5864L4.61654 16.6076C4.58161 16.6074 4.54701 16.6143 4.51474 16.6276C4.48247 16.641 4.45319 16.6607 4.4286 16.6855C4.40401 16.7103 4.38461 16.7398 4.37153 16.7721C4.35845 16.8045 4.35195 16.8392 4.35241 16.8741ZM4.34809 14.8166C4.3474 14.9357 4.42741 15.0359 4.53241 15.0694C4.55951 15.078 4.5843 15.0822 4.61464 15.0807L15.8177 15.0562C15.9639 15.0543 16.0838 14.9358 16.0819 14.7896C16.08 14.6435 15.9615 14.5236 15.8153 14.5255L4.61222 14.55C4.46716 14.5485 4.34619 14.6704 4.34809 14.8166ZM4.34269 12.7624C4.342 12.8816 4.42201 12.9817 4.52701 13.0152C4.55411 13.0238 4.5789 13.028 4.60924 13.0265L15.8123 13.002C15.9585 13.0001 16.0784 12.8816 16.0765 12.7354C16.0746 12.5893 15.9561 12.4694 15.8099 12.4713L4.60682 12.4958C4.57189 12.4957 4.53729 12.5025 4.50502 12.5159C4.47275 12.5292 4.44347 12.5489 4.41888 12.5737C4.3943 12.5985 4.3749 12.628 4.36182 12.6604C4.34873 12.6928 4.34223 12.7274 4.34269 12.7624ZM4.33837 10.7048C4.33768 10.824 4.41769 10.9241 4.52269 10.9576C4.54979 10.9663 4.57458 10.9704 4.60492 10.9689L15.808 10.9444C15.9542 10.9425 16.0741 10.824 16.0721 10.6778C16.0702 10.5317 15.9517 10.4118 15.8056 10.4137L4.6025 10.4382C4.45744 10.4368 4.33986 10.5597 4.33837 10.7048ZM15.9903 6.38262C15.9405 6.33281 15.8731 6.3046 15.8027 6.30411L12.0203 6.31066C11.8741 6.31256 11.7543 6.43106 11.7562 6.57721L11.7616 8.6314C11.7612 8.66639 11.7678 8.70111 11.7811 8.73349C11.7944 8.76587 11.8141 8.79525 11.8389 8.81988C11.8638 8.84452 11.8933 8.86391 11.9258 8.8769C11.9583 8.8899 11.9931 8.89623 12.0281 8.89553L15.8105 8.88898C15.9566 8.88707 16.0765 8.76857 16.0746 8.62243L16.0692 6.56824C16.0671 6.49867 16.0389 6.43244 15.9903 6.38262ZM12.2866 8.36595L12.2836 6.84244L15.5319 6.83722L15.5349 8.36073L12.2866 8.36595Z" fill="#5739BC"/>
<path d="M17.4275 19.4604L17.3907 4.41103C17.3906 4.34048 17.3626 4.27283 17.3129 4.22275C17.2632 4.17267 17.1958 4.1442 17.1253 4.14351L8.24509 4.16251L8.28103 3.38284C8.76385 3.33158 9.12989 3.11992 9.24224 2.76765C9.43236 2.17149 8.81052 1.47685 7.79435 1.15277C6.77817 0.828695 5.86898 1.03506 5.67886 1.63122C5.56651 1.98349 5.74012 2.36352 6.10642 2.68932L5.64795 3.40141C4.9751 3.45178 4.49074 3.73019 4.35031 4.17053L3.26415 4.17119C3.11801 4.17309 2.99812 4.29159 3.00002 4.43774L3.03677 19.4871C3.03608 19.6063 3.11609 19.7065 3.22109 19.74C3.24819 19.7486 3.27298 19.7528 3.30332 19.7512L17.1644 19.7236C17.2353 19.7238 17.3035 19.697 17.3534 19.6458C17.4034 19.5945 17.4307 19.5323 17.4275 19.4604ZM6.18586 1.79664C6.25608 1.57647 6.85216 1.41579 7.63123 1.66425C8.41029 1.91271 8.80329 2.38882 8.73307 2.609C8.66285 2.82917 8.06677 2.98985 7.28771 2.74139C6.50864 2.49293 6.11565 2.01681 6.18586 1.79664ZM7.12567 3.24948C7.33906 3.31753 7.54647 3.35756 7.74465 3.37971L7.68727 4.67126C7.35562 4.76272 7.00452 4.75577 6.67675 4.65124C6.34898 4.5467 6.05869 4.34911 5.84122 4.08252L6.54218 2.99622C6.7166 3.09289 6.90888 3.18034 7.12567 3.24948ZM5.26686 4.01129C5.24201 4.0892 5.25212 4.17452 5.29796 4.24139C5.59842 4.69173 6.03203 5.0054 6.5164 5.15988C7.00078 5.31436 7.53592 5.30963 8.04163 5.1164C8.11881 5.08503 8.17644 5.02132 8.20021 4.9468C8.3353 5.13169 8.39046 5.30974 8.34617 5.44862C8.22518 5.82799 7.37205 6.02238 6.34572 5.69507C5.31939 5.36775 4.73632 4.71533 4.85731 4.33596C4.9016 4.19708 5.04967 4.08384 5.26686 4.01129ZM3.56855 19.2238L3.52975 4.70743L4.34717 4.7069C4.49927 5.248 5.09211 5.78786 5.92841 6.11428L5.32779 7.99758C5.2835 8.13646 5.36193 8.28836 5.50081 8.33265C5.63969 8.37694 5.79158 8.2985 5.83587 8.15962L6.4365 6.27632C7.5973 6.56815 8.63158 6.29719 8.84979 5.61297C8.94161 5.32505 8.87561 5.00546 8.67146 4.69779L16.8568 4.6811L16.8956 19.1975L3.56855 19.2238Z" fill="#5739BC"/>
<path d="M4.35241 16.8741C4.35172 16.9933 4.43173 17.0935 4.53673 17.127C4.56383 17.1356 4.58862 17.1398 4.61896 17.1383L15.821 17.1171C15.9671 17.1152 16.087 16.9967 16.0851 16.8506C16.0832 16.7044 15.9647 16.5845 15.8186 16.5864L4.61654 16.6076C4.58161 16.6074 4.54701 16.6143 4.51474 16.6276C4.48247 16.641 4.45319 16.6607 4.4286 16.6855C4.40401 16.7103 4.38461 16.7398 4.37153 16.7721C4.35845 16.8045 4.35195 16.8392 4.35241 16.8741ZM4.34809 14.8166C4.3474 14.9357 4.42741 15.0359 4.53241 15.0694C4.55951 15.078 4.5843 15.0822 4.61464 15.0807L15.8177 15.0562C15.9639 15.0543 16.0838 14.9358 16.0819 14.7896C16.08 14.6435 15.9615 14.5236 15.8153 14.5255L4.61222 14.55C4.46716 14.5485 4.34619 14.6704 4.34809 14.8166ZM4.34269 12.7624C4.342 12.8816 4.42201 12.9817 4.52701 13.0152C4.55411 13.0238 4.5789 13.028 4.60924 13.0265L15.8123 13.002C15.9585 13.0001 16.0784 12.8816 16.0765 12.7354C16.0746 12.5893 15.9561 12.4694 15.8099 12.4713L4.60682 12.4958C4.57189 12.4957 4.53729 12.5025 4.50502 12.5159C4.47275 12.5292 4.44347 12.5489 4.41888 12.5737C4.3943 12.5985 4.3749 12.628 4.36182 12.6604C4.34873 12.6928 4.34223 12.7274 4.34269 12.7624ZM4.33837 10.7048C4.33768 10.824 4.41769 10.9241 4.52269 10.9576C4.54979 10.9663 4.57458 10.9704 4.60492 10.9689L15.808 10.9444C15.9542 10.9425 16.0741 10.824 16.0721 10.6778C16.0702 10.5317 15.9517 10.4118 15.8056 10.4137L4.6025 10.4382C4.45744 10.4368 4.33986 10.5597 4.33837 10.7048ZM15.9903 6.38262C15.9405 6.33281 15.8731 6.3046 15.8027 6.30411L12.0203 6.31066C11.8741 6.31256 11.7543 6.43106 11.7562 6.57721L11.7616 8.6314C11.7612 8.66639 11.7678 8.70111 11.7811 8.73349C11.7944 8.76587 11.8141 8.79525 11.8389 8.81988C11.8638 8.84452 11.8933 8.86391 11.9258 8.8769C11.9583 8.8899 11.9931 8.89623 12.0281 8.89553L15.8105 8.88898C15.9566 8.88707 16.0765 8.76857 16.0746 8.62243L16.0692 6.56824C16.0671 6.49867 16.0389 6.43244 15.9903 6.38262ZM12.2866 8.36595L12.2836 6.84244L15.5319 6.83722L15.5349 8.36073L12.2866 8.36595Z" stroke="#5739BC" stroke-width="0.15"/>
<path d="M17.4275 19.4604L17.3907 4.41103C17.3906 4.34048 17.3626 4.27283 17.3129 4.22275C17.2632 4.17267 17.1958 4.1442 17.1253 4.14351L8.24509 4.16251L8.28103 3.38284C8.76385 3.33158 9.12989 3.11992 9.24224 2.76765C9.43236 2.17149 8.81052 1.47685 7.79435 1.15277C6.77817 0.828695 5.86898 1.03506 5.67886 1.63122C5.56651 1.98349 5.74012 2.36352 6.10642 2.68932L5.64795 3.40141C4.9751 3.45178 4.49074 3.73019 4.35031 4.17053L3.26415 4.17119C3.11801 4.17309 2.99812 4.29159 3.00002 4.43774L3.03677 19.4871C3.03608 19.6063 3.11609 19.7065 3.22109 19.74C3.24819 19.7486 3.27298 19.7528 3.30332 19.7512L17.1644 19.7236C17.2353 19.7238 17.3035 19.697 17.3534 19.6458C17.4034 19.5945 17.4307 19.5323 17.4275 19.4604ZM6.18586 1.79664C6.25608 1.57647 6.85216 1.41579 7.63123 1.66425C8.41029 1.91271 8.80329 2.38882 8.73307 2.609C8.66285 2.82917 8.06677 2.98985 7.28771 2.74139C6.50864 2.49293 6.11565 2.01681 6.18586 1.79664ZM7.12567 3.24948C7.33906 3.31753 7.54647 3.35756 7.74465 3.37971L7.68727 4.67126C7.35562 4.76272 7.00452 4.75577 6.67675 4.65124C6.34898 4.5467 6.05869 4.34911 5.84122 4.08252L6.54218 2.99622C6.7166 3.09289 6.90888 3.18034 7.12567 3.24948ZM5.26686 4.01129C5.24201 4.0892 5.25212 4.17452 5.29796 4.24139C5.59842 4.69173 6.03203 5.0054 6.5164 5.15988C7.00078 5.31436 7.53592 5.30963 8.04163 5.1164C8.11881 5.08503 8.17644 5.02132 8.20021 4.9468C8.3353 5.13169 8.39046 5.30974 8.34617 5.44862C8.22518 5.82799 7.37205 6.02238 6.34572 5.69507C5.31939 5.36775 4.73632 4.71533 4.85731 4.33596C4.9016 4.19708 5.04967 4.08384 5.26686 4.01129ZM3.56855 19.2238L3.52975 4.70743L4.34717 4.7069C4.49927 5.248 5.09211 5.78786 5.92841 6.11428L5.32779 7.99758C5.2835 8.13646 5.36193 8.28836 5.50081 8.33265C5.63969 8.37694 5.79158 8.2985 5.83587 8.15962L6.4365 6.27632C7.5973 6.56815 8.63158 6.29719 8.84979 5.61297C8.94161 5.32505 8.87561 5.00546 8.67146 4.69779L16.8568 4.6811L16.8956 19.1975L3.56855 19.2238Z" stroke="#5739BC" stroke-width="0.15"/>
<path d="M4.35193 16.8741C4.35124 16.9933 4.43125 17.0935 4.53625 17.127C4.56335 17.1356 4.58814 17.1398 4.61848 17.1383L15.8205 17.1171C15.9666 17.1152 16.0865 16.9967 16.0846 16.8506C16.0827 16.7044 15.9642 16.5845 15.8181 16.5864L4.61607 16.6076C4.58114 16.6074 4.54653 16.6143 4.51426 16.6276C4.48199 16.641 4.45271 16.6607 4.42812 16.6855C4.40354 16.7103 4.38414 16.7398 4.37106 16.7722C4.35798 16.8045 4.35148 16.8392 4.35193 16.8741ZM4.34761 14.8166C4.34692 14.9358 4.42693 15.0359 4.53193 15.0694C4.55903 15.078 4.58382 15.0822 4.61416 15.0807L15.8173 15.0562C15.9634 15.0543 16.0833 14.9358 16.0814 14.7896C16.0795 14.6435 15.961 14.5236 15.8148 14.5255L4.61175 14.55C4.46668 14.5485 4.34571 14.6704 4.34761 14.8166ZM4.34221 12.7624C4.34152 12.8816 4.42153 12.9817 4.52654 13.0152C4.55363 13.0238 4.57842 13.028 4.60876 13.0265L15.8119 13.002C15.958 13.0001 16.0779 12.8816 16.076 12.7354C16.0741 12.5893 15.9556 12.4694 15.8094 12.4713L4.60635 12.4958C4.57142 12.4957 4.53681 12.5025 4.50454 12.5159C4.47227 12.5292 4.44299 12.5489 4.41841 12.5737C4.39382 12.5985 4.37442 12.628 4.36134 12.6604C4.34826 12.6928 4.34176 12.7274 4.34221 12.7624ZM4.3379 10.7048C4.3372 10.824 4.41721 10.9241 4.52222 10.9576C4.54931 10.9663 4.5741 10.9704 4.60444 10.9689L15.8075 10.9444C15.9537 10.9425 16.0736 10.824 16.0717 10.6779C16.0698 10.5317 15.9513 10.4118 15.8051 10.4137L4.60203 10.4382C4.45696 10.4368 4.33938 10.5597 4.3379 10.7048Z" fill="#F37921" stroke="#F37921" stroke-width="0.25"/>
</svg>
