<svg width="17" height="16" viewBox="0 0 17 16" fill="none" xmlns="http://www.w3.org/2000/svg">
<path d="M3.34465 13.7543C2.58057 13.0163 1.97111 12.1336 1.55184 11.1575C1.13257 10.1815 0.911876 9.13175 0.902646 8.06952C0.893415 7.00728 1.09583 5.95384 1.49808 4.97067C1.90032 3.9875 2.49435 3.09429 3.24549 2.34315C3.99663 1.592 4.88985 0.997979 5.87302 0.595732C6.85619 0.193485 7.90962 -0.00892848 8.97186 0.000302054C10.0341 0.00953258 11.0839 0.230222 12.0599 0.649494C13.0359 1.06877 13.9187 1.67822 14.6566 2.44231C16.1139 3.95112 16.9203 5.97194 16.902 8.06952C16.8838 10.1671 16.0425 12.1736 14.5592 13.6569C13.0759 15.1401 11.0694 15.9815 8.97186 15.9997C6.87428 16.0179 4.85347 15.2116 3.34465 13.7543ZM10.1206 8.09831L12.3846 5.83431L11.2566 4.70631L9.00065 6.97031L6.73665 4.70631L5.60865 5.83431L7.87265 8.09831L5.60865 10.3623L6.73665 11.4903L9.00065 9.22631L11.2646 11.4903L12.3926 10.3623L10.1286 8.09831H10.1206Z" fill="#4E4E4E"/>
</svg>
