<svg width="20" height="20" viewBox="0 0 20 20" fill="none" xmlns="http://www.w3.org/2000/svg">
<g id="Group 48103373">
<path id="Vector" d="M16.5217 20.0003H0.869565C0.347826 20.0003 0 19.667 0 19.167V17.5003C0 12.917 3.91304 9.16699 8.69565 9.16699C13.4783 9.16699 17.3913 12.917 17.3913 17.5003V19.167C17.3913 19.667 17.0435 20.0003 16.5217 20.0003ZM1.73913 18.3337H15.6522V17.5003C15.6522 13.8337 12.5217 10.8337 8.69565 10.8337C4.86956 10.8337 1.73913 13.8337 1.73913 17.5003V18.3337Z" fill="#593CC7"/>
<path id="Vector_2" d="M8.69566 8.33333C6.26088 8.33333 4.34784 6.5 4.34784 4.16667C4.34784 1.83333 6.26088 0 8.69566 0C11.1304 0 13.0435 1.83333 13.0435 4.16667C13.0435 6.5 11.1304 8.33333 8.69566 8.33333ZM8.69566 1.66667C7.2174 1.66667 6.08697 2.75 6.08697 4.16667C6.08697 5.58333 7.2174 6.66667 8.69566 6.66667C10.1739 6.66667 11.3044 5.58333 11.3044 4.16667C11.3044 2.75 10.1739 1.66667 8.69566 1.66667Z" fill="#593CC7"/>
<path id="Vector_3" d="M16.5217 4.99967C16.2609 4.99967 16.0869 4.91634 15.913 4.74967L14.1739 3.08301C13.8261 2.74967 13.8261 2.24967 14.1739 1.91634C14.5217 1.58301 15.0435 1.58301 15.3913 1.91634L16.5217 2.99967L18.5217 1.08301C18.8695 0.749674 19.3913 0.749674 19.7391 1.08301C20.0869 1.41634 20.0869 1.91634 19.7391 2.24967L17.1304 4.74967C16.9565 4.91634 16.7826 4.99967 16.5217 4.99967Z" fill="#593CC7"/>
</g>
</svg>
