<svg xmlns="http://www.w3.org/2000/svg" xmlns:xlink="http://www.w3.org/1999/xlink" width="242" height="165" viewBox="0 0 242 165">
  <defs>
    <clipPath id="clip-path">
      <rect id="Rectangle_2206" data-name="Rectangle 2206" width="242" height="165" rx="20" fill="#eafaff"/>
    </clipPath>
    <clipPath id="clip-path-2">
      <rect id="Rectangle_2205" data-name="Rectangle 2205" width="222.509" height="100.896" fill="#391c07"/>
    </clipPath>
  </defs>
  <g id="Group_10421" data-name="Group 10421" transform="translate(-372 -366)">
    <rect id="Rectangle_2202" data-name="Rectangle 2202" width="242" height="165" rx="20" transform="translate(372 366)" fill="#fce1cf"/>
    <g id="Mask_Group_6" data-name="Mask Group 6" transform="translate(372 366)" clip-path="url(#clip-path)">
      <g id="Group_2277" data-name="Group 2277" transform="translate(36.074 108.854)" opacity="0.504">
        <g id="Group_2276" data-name="Group 2276" clip-path="url(#clip-path-2)">
          <g id="Group_2275" data-name="Group 2275">
            <g id="Group_2274" data-name="Group 2274" clip-path="url(#clip-path-2)">
              <g id="Group_2273" data-name="Group 2273" opacity="0.2">
                <g id="Group_2272" data-name="Group 2272">
                  <g id="Group_2271" data-name="Group 2271" clip-path="url(#clip-path-2)">
                    <path id="Path_3987" data-name="Path 3987" d="M0,69.1c.675.085,1.364.164,2.074.251l4.274-6.846c1.127,1.038,2.107,1.926,3.053,2.821a4.053,4.053,0,0,1,.949,1.043c.824,1.911,1.566,3.829,2.348,5.743.535,1.309,1.088,2.617,1.686,4.054l4.124-2.34,4.009,3.985c2.423-.492,4.957-.857,5.209-2.211.057-.312.441-.611.663-.919.952-1.33,2.248-2.637,2.776-4A85.694,85.694,0,0,0,34.3,60.933c.448-1.74,1.523-3.3,4.423-4.588a1.442,1.442,0,0,0,.675-.557c.554-.988,1.047-1.982,1.572-2.974.691-1.3,1.394-2.606,2.093-3.91l.276,0c1.278,3.291,2.558,6.581,3.884,9.992.364-.227.579-.348.761-.479.97-.691,2.025-1.366,2.864-2.084a2.623,2.623,0,0,1,2.469-.377c.753.147,1.6.208,2.488.319,1.355-1.71,2.727-3.373,3.981-5.051A10.247,10.247,0,0,0,60.8,49.242c1.72-3.725,3.3-7.464,6.882-10.983a1.387,1.387,0,0,1,.714-.467c1.127-.223,2.321-.384,3.534-.576,1.475,1.525,2.884,2.987,4.355,4.508,1.376-.432,2.572-.86,3.889-1.208,1.345-.355,2.807-.631,4.256-.95,1.406.847,2.724,1.641,4.166,2.511,1.067-1.232,2.037-2.349,3-3.466,1.106-1.282,1.1-1.294,4.316-1.225a1.889,1.889,0,0,0,1.372-.339c.732-.584,1.66-1.128,2.278-1.731.893-.87,2.352-1.378,4.507-1.615a3.07,3.07,0,0,1,1.772.171c1.047.477,2.17.925,3.407,1.446.627-.988,1.182-1.861,1.729-2.734,1.3-2.08,2.241-4.221,5.684-5.937a10.631,10.631,0,0,1,2.048-.931c2.36-.65,3.7-1.535,4.332-2.684a22,22,0,0,1,1.975-2.594c.19-.241.411-.478.614-.716,2.449,3.16,4.7,6.308,8.271,9.313,1.01-.1,2.06-.242,3.134-.3a3.113,3.113,0,0,1,1.312.215c1.1.655,1.924,1.4,3.157,2.005,1.4.685,3.126,1.251,4.877,1.934.142-.223.191-.287.223-.352,1.26-2.674,2.54-5.347,3.752-8.025.143-.321.45-.48,1.144-.533,2.03-.158,4.052-.332,6.092-.452.777-.046,1.212-.112,1.361-.476a10.471,10.471,0,0,1,.922-1.61c1.569-2.452,2.5-4.975,5.461-7.261a10.351,10.351,0,0,1,5.062-2.24,1.845,1.845,0,0,0,1.027-.531c1.2-1.522,2.347-3.051,3.491-4.58.207-.277.471-.453,1.275-.48a30.557,30.557,0,0,0,6.4-.952,3.255,3.255,0,0,0,1.17-.5c1.188-.98,2.3-1.975,3.549-3.057.246.251.416.406.556.567C189,3.727,190.111,5.055,191.3,6.371a2,2,0,0,0,1.067.409,32.212,32.212,0,0,0,6.9-.1,1.864,1.864,0,0,0,.917-.347c.8-.805,1.523-1.624,2.283-2.437.5-.541,1.026-1.079,1.552-1.631,1.035.106,1.96.169,2.834.3a2.34,2.34,0,0,0,1.861-.289C209.794,1.525,210.98.8,212.225,0c.166.22.269.336.344.456q1.768,2.816,3.53,5.632c.072.118.109.3.29.336,1.352.267,2.741.5,4.172.762l1.949-3.373V100.9H0Z" fill="#391c07"/>
                  </g>
                </g>
              </g>
            </g>
          </g>
        </g>
      </g>
    </g>
  </g>
</svg>
