<svg xmlns="http://www.w3.org/2000/svg" width="21.489" height="28" viewBox="0 0 21.489 28"><defs><style>.a{fill:#341793;}</style></defs><path class="a" d="M26.228,10.67a7.368,7.368,0,1,1-7.38,7.368A7.374,7.374,0,0,1,26.228,10.67Z" transform="translate(-15.474 -10.67)"/><path class="a" d="M33.485,31.383a.333.333,0,0,0-.05-.077,33.434,33.434,0,0,0-3.2-2.981.321.321,0,0,0-.193-.078.333.333,0,0,0-.193.034,8.751,8.751,0,0,1-8,0,.334.334,0,0,0-.193-.034.321.321,0,0,0-.193.078,33.436,33.436,0,0,0-3.2,2.981.332.332,0,0,0-.05.077A12.667,12.667,0,0,0,15.1,40.009a.33.33,0,0,0,.33.333H36.263a.33.33,0,0,0,.33-.333A12.667,12.667,0,0,0,33.485,31.383Z" transform="translate(-15.104 -12.342)"/></svg>