<svg width="13" height="13" viewBox="0 0 13 13" fill="none" xmlns="http://www.w3.org/2000/svg">
<path d="M6.5 13C10.0899 13 13 10.0899 13 6.5C13 2.91015 10.0899 0 6.5 0C2.91015 0 0 2.91015 0 6.5C0 10.0899 2.91015 13 6.5 13Z" fill="#F37921"/>
<path d="M6.79795 2.23184C7.08467 2.23941 7.35686 2.35962 7.55557 2.56644C7.75428 2.77327 7.86352 3.05005 7.85962 3.33683C7.86745 3.60836 7.768 3.87203 7.5828 4.07075C7.3976 4.26946 7.14157 4.38722 6.87017 4.3985H6.79795C6.65793 4.39945 6.51909 4.37269 6.38945 4.31977C6.25981 4.26684 6.14192 4.18879 6.04257 4.09011C5.94322 3.99143 5.86437 3.87407 5.81056 3.74479C5.75676 3.61551 5.72906 3.47686 5.72906 3.33683V3.2935C5.72327 3.15856 5.74437 3.02383 5.79114 2.89713C5.83791 2.77043 5.90942 2.6543 6.0015 2.55549C6.09358 2.45669 6.20439 2.3772 6.32749 2.32163C6.45058 2.26607 6.5835 2.23554 6.71851 2.23184H6.79795Z" fill="white"/>
<path d="M8.33483 9.74215C8.29239 9.83597 8.23371 9.92155 8.16149 9.99494C7.97747 10.1946 7.75419 10.3542 7.50563 10.4635C7.25707 10.5729 6.9886 10.6297 6.71705 10.6305C6.44669 10.6377 6.1762 10.6232 5.90816 10.5872C5.64645 10.534 5.41236 10.3891 5.24814 10.1785C5.08391 9.96794 5.00037 9.70559 5.0126 9.43882C5.05594 9.05604 5.1426 8.67327 5.18594 8.29049C5.31594 7.6116 5.43872 6.93271 5.52538 6.2466V6.12382C5.52538 5.82049 5.43871 5.74104 5.1426 5.69771C5.02505 5.6902 4.90993 5.66081 4.80316 5.61104C4.67316 5.56771 4.58649 5.43771 4.62983 5.35826C4.67316 5.27882 4.71649 5.1416 4.88983 5.1416H7.18649C7.43927 5.1416 7.61261 5.2716 7.61261 5.52438C7.60556 5.74102 7.57652 5.95639 7.52594 6.16716C7.39594 6.93271 7.22983 7.69827 7.09983 8.46382L6.96983 9.22938C6.96275 9.35849 6.9774 9.48788 7.01316 9.61215C7.02389 9.68057 7.06075 9.74214 7.11599 9.78391C7.17123 9.82567 7.24052 9.84437 7.30927 9.83605H7.3526C7.48692 9.81584 7.61654 9.77181 7.73538 9.70605C7.82205 9.70605 7.95205 9.58327 8.03872 9.53993C8.24816 9.4966 8.37816 9.58327 8.33483 9.7566V9.74215Z" fill="white"/>
</svg>
