<svg xmlns="http://www.w3.org/2000/svg" width="21.585" height="28.125" viewBox="0 0 21.585 28.125"><defs><style>.a{fill:#f37921;}</style></defs><path class="a" d="M26.254,10.67a7.418,7.418,0,1,1-7.4,7.418A7.412,7.412,0,0,1,26.254,10.67Z" transform="translate(-15.451 -10.67)"/><path class="a" d="M33.567,31.4a.336.336,0,0,0-.05-.078,33.615,33.615,0,0,0-3.212-3,.322.322,0,0,0-.194-.079.334.334,0,0,0-.193.034,8.772,8.772,0,0,1-8.04,0,.335.335,0,0,0-.193-.034.322.322,0,0,0-.194.079,33.616,33.616,0,0,0-3.212,3,.335.335,0,0,0-.05.078A12.771,12.771,0,0,0,15.1,40.089a.332.332,0,0,0,.332.336H36.357a.332.332,0,0,0,.332-.336A12.77,12.77,0,0,0,33.567,31.4Z" transform="translate(-15.104 -12.299)"/></svg>