<svg xmlns="http://www.w3.org/2000/svg" width="21" height="21" viewBox="0 0 21 21">
  <path id="Path_5859" data-name="Path 5859" d="M4.55,0A4.56,4.56,0,0,0,0,4.55a16.433,16.433,0,0,0,15.946,16.4l.008.05h.495A4.561,4.561,0,0,0,21,16.45a4.5,4.5,0,0,0-.064-.757c-.007-.047-.015-.092-.026-.137a1.531,1.531,0,0,0-.979-1.14h0l-4.863-1.743a1.224,1.224,0,0,0-1.429.478l-1.26,1.915A11.447,11.447,0,0,1,5.934,8.734c-.014-.035-.006-.054.015-.068v0L7.868,7.358A1.224,1.224,0,0,0,8.33,5.943h0L6.585,1.073A1.531,1.531,0,0,0,5.441.089v0h0C5.4.078,5.35.071,5.3.064A4.439,4.439,0,0,0,4.55,0m0,1.167a3.228,3.228,0,0,1,.56.048h.009c.029,0,.062.012.1.019a.36.36,0,0,1,.272.234L7.232,6.335h0a.046.046,0,0,1-.019.058L5.3,7.7a1.229,1.229,0,0,0-.447,1.467,12.61,12.61,0,0,0,7.3,7.1l0,0a.9.9,0,0,0,1.064-.352l1.4-2.127a.044.044,0,0,1,.06-.02l4.863,1.743a.357.357,0,0,1,.232.268l0,0v0c.006.029.012.058.016.086v0l0,0a3.492,3.492,0,0,1,.045.561,3.379,3.379,0,0,1-3.385,3.383A15.276,15.276,0,0,1,1.167,4.55,3.378,3.378,0,0,1,4.55,1.167" fill="#47c51b"/>
</svg>
