<svg xmlns="http://www.w3.org/2000/svg" width="31" height="20.256" viewBox="0 0 31 20.256">
  <g id="Group_10425" data-name="Group 10425" transform="translate(-1302.393 -716.519)">
    <path id="Path_5857" data-name="Path 5857" d="M27.556,0H3.444A3.453,3.453,0,0,0,0,3.444V16.811a3.453,3.453,0,0,0,3.444,3.444H27.556A3.453,3.453,0,0,0,31,16.811V3.444A3.453,3.453,0,0,0,27.556,0m2.022,16.78a1.983,1.983,0,0,1-1.991,1.991H3.476A1.983,1.983,0,0,1,1.485,16.78V3.413A1.983,1.983,0,0,1,3.476,1.422H27.587a1.983,1.983,0,0,1,1.991,1.991Z" transform="translate(1302.393 716.519)" fill="#f37921"/>
    <g id="Group_10424" data-name="Group 10424" transform="translate(1302.393 716.519)">
      <path id="Path_5858" data-name="Path 5858" d="M35.919,16.03a.266.266,0,0,0,.028-.37l-.51-.678a.22.22,0,0,0-.34-.031l-7.543,6.869a.21.21,0,0,1-.312,0L19.7,14.952a.22.22,0,0,0-.34.031l-.51.678a.266.266,0,0,0,.028.37l4.311,3.912a.278.278,0,0,1,0,.4l-4.311,3.912a.266.266,0,0,0-.028.37l.51.678a.22.22,0,0,0,.34.031l4.566-4.159a.21.21,0,0,1,.312,0l2.666,2.434a.21.21,0,0,0,.312,0l2.666-2.434a.21.21,0,0,1,.312,0L35.1,25.333a.22.22,0,0,0,.34-.031l.51-.678a.266.266,0,0,0-.028-.37l-4.311-3.912a.278.278,0,0,1,0-.4Z" transform="translate(-11.86 -10.047)" fill="#f37921"/>
      <rect id="Rectangle_2285" data-name="Rectangle 2285" width="31" height="20.256" fill="none"/>
    </g>
  </g>
</svg>
