<svg xmlns="http://www.w3.org/2000/svg" width="10.541" height="13.735" viewBox="0 0 10.541 13.735"><defs><style>.a{fill:#341793;}</style></defs><g transform="translate(0)"><path class="a" d="M22.469,10.67a3.614,3.614,0,1,1-3.62,3.614A3.617,3.617,0,0,1,22.469,10.67Z" transform="translate(-17.193 -10.67)"/><path class="a" d="M24.12,29.784a.163.163,0,0,0-.025-.038,16.4,16.4,0,0,0-1.569-1.462.158.158,0,0,0-.095-.038.164.164,0,0,0-.094.017,4.293,4.293,0,0,1-3.926,0,.164.164,0,0,0-.094-.017.157.157,0,0,0-.095.038,16.4,16.4,0,0,0-1.569,1.462.163.163,0,0,0-.025.038A6.214,6.214,0,0,0,15.1,34.015a.162.162,0,0,0,.162.164H25.483a.162.162,0,0,0,.162-.164A6.213,6.213,0,0,0,24.12,29.784Z" transform="translate(-15.104 -20.444)"/></g></svg>