<svg xmlns="http://www.w3.org/2000/svg" xmlns:xlink="http://www.w3.org/1999/xlink" width="115" height="64.549" viewBox="0 0 115 64.549">
  <defs>
    <linearGradient id="linear-gradient" x1="0.817" y1="0.521" x2="0.018" y2="0.561" gradientUnits="objectBoundingBox">
      <stop offset="0" stop-color="#7c3f98"/>
      <stop offset="1" stop-color="#6e3996"/>
    </linearGradient>
    <linearGradient id="linear-gradient-2" x1="0.946" y1="0.561" x2="0.051" y2="0.562" gradientUnits="objectBoundingBox">
      <stop offset="0" stop-color="#904da5"/>
      <stop offset="1" stop-color="#814199"/>
    </linearGradient>
    <linearGradient id="linear-gradient-3" x1="1" y1="0.579" x2="0" y2="0.581" gradientUnits="objectBoundingBox">
      <stop offset="0" stop-color="#a55cb5"/>
      <stop offset="1" stop-color="#89459a"/>
    </linearGradient>
    <linearGradient id="linear-gradient-4" x1="1" y1="0.5" x2="0" y2="0.523" gradientUnits="objectBoundingBox">
      <stop offset="0" stop-color="#a448a5"/>
      <stop offset="1" stop-color="#90489c"/>
    </linearGradient>
    <linearGradient id="linear-gradient-6" x1="2.327" y1="0.531" y2="0.523" xlink:href="#linear-gradient-4"/>
  </defs>
  <g id="Group_22223" data-name="Group 22223" transform="translate(1758 -7627.452)">
    <path id="Subtraction_4" data-name="Subtraction 4" d="M30,39H8a8.009,8.009,0,0,1-8-8V8A8.009,8.009,0,0,1,8,0H30a8.009,8.009,0,0,1,8,8v7.167H29.059V13.75a4,4,0,0,0-4-4h-11a4,4,0,0,0-4,4v11.5a4,4,0,0,0,4,4h11a4,4,0,0,0,4-4v-2.5H38V31A8.009,8.009,0,0,1,30,39Z" transform="translate(-1758 7628.452)" fill="url(#linear-gradient)"/>
    <rect id="Rectangle_17437" data-name="Rectangle 17437" width="12" height="41" rx="3" transform="translate(-1715 7628.452)" fill="url(#linear-gradient-2)"/>
    <rect id="Rectangle_17438" data-name="Rectangle 17438" width="11" height="30" rx="3" transform="translate(-1698 7639.452)" fill="url(#linear-gradient-3)"/>
    <path id="Subtraction_5" data-name="Subtraction 5" d="M31,38H7a7.008,7.008,0,0,1-7-7V7A7.008,7.008,0,0,1,7,0H31a7.008,7.008,0,0,1,7,7V31A7.008,7.008,0,0,1,31,38ZM12.941,9.771a4,4,0,0,0-4,4V24.229a4,4,0,0,0,4,4H25.059a4,4,0,0,0,4-4V13.772a4.005,4.005,0,0,0-4-4Z" transform="translate(-1681 7631.452)" fill="url(#linear-gradient-4)"/>
    <rect id="Rectangle_17439" data-name="Rectangle 17439" width="9" height="9" rx="3" transform="translate(-1697 7627.452)" fill="url(#linear-gradient-3)"/>
    <path id="Path_6531" data-name="Path 6531" d="M.215,28.72,19.1-.747H0Z" transform="translate(-1680.881 7663.28)" fill="url(#linear-gradient-6)"/>
  </g>
</svg>
