<svg xmlns="http://www.w3.org/2000/svg" width="115" height="64.549" viewBox="0 0 115 64.549">
  <g id="Group_22228" data-name="Group 22228" transform="translate(1758 -7627.452)">
    <path id="Subtraction_4" data-name="Subtraction 4" d="M30,39H8a8.009,8.009,0,0,1-8-8V8A8.009,8.009,0,0,1,8,0H30a8.009,8.009,0,0,1,8,8v7.167H29.059V13.75a4,4,0,0,0-4-4h-11a4,4,0,0,0-4,4v11.5a4,4,0,0,0,4,4h11a4,4,0,0,0,4-4v-2.5H38V31A8.009,8.009,0,0,1,30,39Z" transform="translate(-1758 7628.452)" fill="#fff"/>
    <rect id="Rectangle_17437" data-name="Rectangle 17437" width="12" height="41" rx="3" transform="translate(-1715 7628.452)" fill="#fff"/>
    <rect id="Rectangle_17438" data-name="Rectangle 17438" width="11" height="30" rx="3" transform="translate(-1698 7639.452)" fill="#fff"/>
    <path id="Subtraction_5" data-name="Subtraction 5" d="M31,38H7a7.008,7.008,0,0,1-7-7V7A7.008,7.008,0,0,1,7,0H31a7.008,7.008,0,0,1,7,7V31A7.008,7.008,0,0,1,31,38ZM12.941,9.771a4,4,0,0,0-4,4V24.229a4,4,0,0,0,4,4H25.059a4,4,0,0,0,4-4V13.772a4.005,4.005,0,0,0-4-4Z" transform="translate(-1681 7631.452)" fill="#fff"/>
    <rect id="Rectangle_17439" data-name="Rectangle 17439" width="9" height="9" rx="3" transform="translate(-1697 7627.452)" fill="#fff"/>
    <path id="Path_6531" data-name="Path 6531" d="M.215,28.72,19.1-.747H0Z" transform="translate(-1680.881 7663.28)" fill="#fff"/>
  </g>
</svg>
