<svg width="14" height="14" viewBox="0 0 14 14" fill="none" xmlns="http://www.w3.org/2000/svg">
<path d="M3.46165 1.15471C2.82438 0.517438 1.79116 0.517438 1.15388 1.15471C0.516611 1.79198 0.516611 2.8252 1.15388 3.46248L10.5382 12.8468C11.1755 13.4841 12.2087 13.4841 12.846 12.8468C13.4833 12.2095 13.4833 11.1763 12.846 10.539L3.46165 1.15471Z" fill="white"/>
<path d="M1.15373 10.5384C0.516462 11.1756 0.516462 12.2088 1.15373 12.8461C1.79101 13.4834 2.82423 13.4834 3.4615 12.8461L12.8458 3.46178C13.4831 2.82451 13.4831 1.79128 12.8458 1.15401C12.2086 0.51674 11.1753 0.516739 10.5381 1.15401L1.15373 10.5384Z" fill="white"/>
</svg>
