<svg width="70" height="70" viewBox="0 0 70 70" fill="none" xmlns="http://www.w3.org/2000/svg">
<path d="M2.25 35C2.25 16.938 16.938 2.25 35 2.25C53.062 2.25 67.75 16.938 67.75 35C67.75 53.062 53.062 67.75 35 67.75C16.938 67.75 2.25 53.062 2.25 35Z" stroke="#EE2424" stroke-width="4.5"/>
<path d="M37.925 35L46.5875 26.3375C47.1375 25.7875 47.1375 24.9625 46.5875 24.4125C46.0375 23.8625 45.2125 23.8625 44.6625 24.4125L36 33.075L27.3375 24.4125C26.7875 23.8625 25.9625 23.8625 25.4125 24.4125C24.8625 24.9625 24.8625 25.7875 25.4125 26.3375L34.075 35L25.4125 43.6625C24.8625 44.2125 24.8625 45.0375 25.4125 45.5875C25.6875 45.8625 26.0312 46 26.375 46C26.7188 46 27.0625 45.8625 27.3375 45.5875L36 36.925L44.6625 45.5875C44.9375 45.8625 45.2812 46 45.625 46C45.9688 46 46.3125 45.8625 46.5875 45.5875C47.1375 45.0375 47.1375 44.2125 46.5875 43.6625L37.925 35Z" fill="#EE2424" stroke="#EE2424" stroke-width="1.5"/>
</svg>
