<svg width="60" height="60" viewBox="0 0 60 60" fill="none" xmlns="http://www.w3.org/2000/svg">
<path d="M30 0C22.0434 0 14.4128 3.16065 8.78653 8.78653C3.16065 14.4128 0 22.0435 0 30C0 37.9565 3.16065 45.5872 8.78653 51.2135C14.4128 56.8394 22.0435 60 30 60C37.9565 60 45.5872 56.8394 51.2135 51.2135C56.8394 45.5872 60 37.9565 60 30C60 24.734 58.6138 19.5608 55.9809 15.0002C53.3479 10.4395 49.5608 6.6525 45.0002 4.0195C40.4395 1.3865 35.2663 0.000342883 30.0003 0.000342883L30 0ZM30 55.9994C23.1045 55.9994 16.4916 53.2601 11.6151 48.3843C6.73924 43.5084 3.99995 36.8952 3.99995 29.9993C3.99995 23.1034 6.73924 16.4909 11.6151 11.6144C16.4909 6.73855 23.1041 3.99927 30 3.99927C36.8959 3.99927 43.5084 6.73855 48.3849 11.6144C53.2608 16.4902 56 23.1034 56 29.9993C56 36.8952 53.2608 43.5077 48.3849 48.3843C43.5091 53.2601 36.8959 55.9994 30 55.9994Z" fill="#45C431"/>
<path d="M46.5397 18.7199C46.1647 18.3471 45.658 18.1382 45.1295 18.1382C44.6013 18.1382 44.0942 18.3471 43.7196 18.7199L25.1404 37.2991C24.9324 37.4946 24.6083 37.4946 24.4002 37.2991L16.2802 29.1791C15.9057 28.8067 15.3985 28.5974 14.8704 28.5974C14.3419 28.5974 13.8352 28.8067 13.4601 29.1791C13.0878 29.5541 12.8789 30.0607 12.8789 30.5893C12.8789 31.1175 13.0878 31.6246 13.4601 31.9991L24.4002 42.9392C24.6083 43.1348 24.9324 43.1348 25.1404 42.9392L46.5402 21.5989C46.9125 21.2244 47.1214 20.7172 47.1214 20.1891C47.1214 19.6605 46.9125 19.1539 46.5402 18.7788L46.5397 18.7199Z" fill="#45C431"/>
</svg>
