<svg width="234" height="234" viewBox="0 0 234 234" fill="none" xmlns="http://www.w3.org/2000/svg">
<g id="CH-2">
<g id="Clip path group">
<g id="Group">
<g id="Mask group">
<mask id="mask0_8786_8408" style="mask-type:alpha" maskUnits="userSpaceOnUse" x="0" y="0" width="234" height="234">
<path id="Vector" d="M117 234C181.617 234 234 181.617 234 117C234 52.3827 181.617 0 117 0C52.3827 0 8.83106e-06 52.3827 1.97247e-05 117C3.06184e-05 181.617 52.3827 234 117 234Z" fill="#FFD8D8"/>
</mask>
<g mask="url(#mask0_8786_8408)">
<g id="Group 48103294">
<path id="Vector_2" d="M117.001 234.001C181.618 234.001 234.001 181.618 234.001 117.001C234.001 52.3837 181.618 0.000976563 117.001 0.000976563C52.3837 0.000976563 0.000985394 52.3837 0.000996287 117.001C0.00100718 181.618 52.3837 234.001 117.001 234.001Z" fill="#E9EFAB"/>
<path id="Vector_3" d="M169.997 239.783H65.1328V205.203C65.1328 188.479 78.688 174.924 95.4117 174.924L117.57 184.345L139.728 174.924C156.452 174.924 170.007 188.479 170.007 205.203V239.783H169.997Z" fill="white"/>
<path id="Vector_4" d="M102.628 174.924H95.4097C78.686 174.924 65.1309 188.479 65.1309 205.203V239.783H105.775L102.628 174.924Z" fill="#283F6D"/>
<path id="Vector_5" d="M102.619 174.913H99.4718C94.887 174.913 86.8818 190.367 86.8818 190.367L97.5308 201.509L89.809 213.312L105.767 239.762L102.619 174.902V174.913Z" fill="#1E2F52"/>
<path id="Vector_6" d="M79.5464 179.421C70.9013 184.751 65.1309 194.309 65.1309 205.209V239.79H79.5464V179.431V179.421Z" fill="#1E2F52"/>
<path id="Vector_7" d="M132.511 174.924H139.729C156.453 174.924 170.008 188.479 170.008 205.203V239.783H129.363L132.511 174.924Z" fill="#283F6D"/>
<path id="Vector_8" d="M132.511 174.913H135.658C140.243 174.913 148.248 190.367 148.248 190.367L137.599 201.509L145.321 213.312L129.363 239.762L132.511 174.902V174.913Z" fill="#1E2F52"/>
<path id="Vector_9" d="M155.441 179.421C164.087 184.751 169.857 194.309 169.857 205.209V239.79H155.441V179.431V179.421Z" fill="#1E2F52"/>
<path id="Vector_10" d="M102.813 173.388C102.813 181.184 109.748 185.926 117.921 185.926H118.184C126.357 185.926 132.19 181.184 132.19 173.388V155.343C132.19 147.547 126.346 139.763 118.184 139.763H117.921C109.748 139.763 102.813 147.547 102.813 155.343V173.388Z" fill="#FFC0AD"/>
<path id="Vector_11" d="M173.388 78.7041V138.464C173.388 154.191 160.022 166.928 143.55 166.928H94.89C78.4076 166.928 65.0518 154.181 65.0518 138.464V79.6903L173.399 78.7041H173.388Z" fill="#FFD4BC"/>
<path id="Vector_12" d="M140.787 117.101C140.787 121.476 143.001 125.032 145.729 125.032C148.456 125.032 150.67 121.486 150.67 117.101C150.67 112.715 148.456 109.169 145.729 109.169C143.001 109.169 140.787 112.715 140.787 117.101Z" fill="#5A2A00"/>
<path id="Vector_13" d="M87.7754 117.101C87.7754 121.476 89.9891 125.032 92.7169 125.032C95.4448 125.032 97.6585 121.486 97.6585 117.101C97.6585 112.715 95.4448 109.169 92.7169 109.169C89.9891 109.169 87.7754 112.715 87.7754 117.101Z" fill="#5A2A00"/>
<path id="Vector_14" d="M119.223 130.683C122.371 130.683 125.382 129.969 128.068 128.721C128.393 129.361 128.582 130.032 128.582 130.746C128.582 134.197 124.395 136.988 119.223 136.988C114.051 136.988 109.875 134.197 109.875 130.746C109.875 130.032 110.064 129.361 110.389 128.721C113.075 129.98 116.076 130.683 119.234 130.683H119.223Z" fill="#FFC0AD"/>
<path id="Vector_15" d="M138.653 134.491C138.653 138.132 141.748 141.08 145.557 141.08C149.365 141.08 152.46 138.132 152.46 134.491C152.46 130.85 149.365 127.902 145.557 127.902C141.748 127.902 138.653 130.85 138.653 134.491Z" fill="#FFC0AD"/>
<path id="Vector_16" d="M99.7835 134.491C99.7835 138.132 96.6885 141.08 92.8801 141.08C89.0716 141.08 85.9766 138.132 85.9766 134.491C85.9766 130.85 89.0716 127.902 92.8801 127.902C96.6885 127.902 99.7835 130.85 99.7835 134.491Z" fill="#FFC0AD"/>
<path id="Vector_17" d="M134.827 150.909C134.827 154.298 130.651 157.047 125.51 157.047C120.37 157.047 116.194 154.298 116.194 150.909C116.194 147.52 120.37 144.771 125.51 144.771C130.651 144.771 134.827 147.52 134.827 150.909Z" fill="#B83336"/>
<g id="Clip path group_2">
<mask id="mask1_8786_8408" style="mask-type:luminance" maskUnits="userSpaceOnUse" x="116" y="144" width="19" height="13">
<g id="clippath-3">
<path id="Vector_18" d="M134.854 150.857C134.854 154.246 130.678 156.995 125.537 156.995C120.396 156.995 116.221 154.246 116.221 150.857C116.221 147.469 120.396 144.72 125.537 144.72C130.678 144.72 134.854 147.469 134.854 150.857Z" fill="white"/>
</g>
</mask>
<g mask="url(#mask1_8786_8408)">
<g id="Group_2">
<path id="Vector_19" d="M119.006 155.682C119.006 151.979 122.332 148.968 126.434 148.968C130.536 148.968 133.862 151.979 133.862 155.682C133.862 159.386 130.536 162.397 126.434 162.397C122.332 162.397 119.006 159.386 119.006 155.682Z" fill="#FC8879"/>
</g>
</g>
</g>
<path id="Vector_20" d="M125.529 190.592C125.529 194.17 120.766 197.076 117.493 197.076C114.219 197.076 109.456 194.17 109.456 190.592C109.456 187.015 114.293 184.36 117.577 184.36C120.86 184.36 125.54 187.004 125.54 190.592H125.529Z" fill="#283F6D"/>
<path id="Vector_21" d="M123.599 211.101C123.054 199.707 118.91 191.765 118.91 191.765L117.315 190.716L115.72 191.765C115.72 191.765 111.576 199.707 111.031 211.101C110.485 222.495 113.444 239.449 113.444 239.449H121.197C121.197 239.449 124.145 222.495 123.61 211.101H123.599Z" fill="#283F6D"/>
<path id="Vector_22" d="M102.616 169.386L95.3975 174.915C95.3975 174.915 96.9712 186.435 109.96 193.779C109.96 186.172 117.556 184.336 117.556 184.336C117.556 184.336 103.665 179.615 102.616 169.386Z" fill="white"/>
<path id="Vector_23" d="M132.506 169.386L139.724 174.915C139.724 174.915 138.15 186.435 125.161 193.779C125.161 186.172 117.565 184.336 117.565 184.336C117.565 184.336 131.456 179.615 132.506 169.386Z" fill="white"/>
<path id="Vector_24" d="M173.216 61.7121C163.879 51.5771 154.289 54.6722 154.289 54.6722C132.519 27.0792 96.9839 35.8502 75.6859 51.2414C52.4155 66.1185 49.1211 62.1002 49.1211 62.1002C52.1847 66.129 55.8357 69.4654 59.4344 71.847C52.6463 94.4145 64.5753 128.229 64.5753 128.229H70.2932V90.5326C70.2932 86.3254 73.1784 82.9261 76.9869 81.9504C78.3298 81.6042 93.3538 88.0356 117.285 88.0356C141.217 88.0356 154.552 81.3419 154.552 81.3419C162.315 79.6213 169.964 85.5176 169.964 93.4492V128.218H173.573C179.994 101.989 183.918 73.3473 173.206 61.7121H173.216Z" fill="url(#paint0_linear_8786_8408)"/>
<path id="Vector_25" d="M173.21 61.7269C164.943 52.7565 156.476 54.1519 154.65 54.5821C159.823 63.4685 158.186 74.9673 151.052 82.7416C153.276 81.9233 154.43 81.3462 154.43 81.3462C162.194 79.6256 169.769 85.5219 169.769 93.4536V128.223H173.577C179.998 101.994 183.922 73.3516 173.21 61.7164V61.7269Z" fill="url(#paint1_linear_8786_8408)"/>
<path id="Vector_26" d="M59.3032 72.3486C52.8403 94.9056 64.5805 128.227 64.5805 128.227H70.0991V90.5306C70.0991 86.2605 73.1626 82.8298 77.0445 81.917C70.5922 79.9551 64.6434 76.6502 59.3032 72.3486Z" fill="url(#paint2_linear_8786_8408)"/>
</g>
</g>
</g>
</g>
</g>
</g>
<defs>
<linearGradient id="paint0_linear_8786_8408" x1="67.5864" y1="43.6245" x2="162.882" y2="138.92" gradientUnits="userSpaceOnUse">
<stop stop-color="#A95C00"/>
<stop offset="1" stop-color="#5A2A00"/>
</linearGradient>
<linearGradient id="paint1_linear_8786_8408" x1="165.467" y1="128.223" x2="165.467" y2="54.2359" gradientUnits="userSpaceOnUse">
<stop stop-color="#A95C00"/>
<stop offset="1" stop-color="#5A2A00"/>
</linearGradient>
<linearGradient id="paint2_linear_8786_8408" x1="67.2034" y1="128.227" x2="67.2034" y2="72.3486" gradientUnits="userSpaceOnUse">
<stop stop-color="#A95C00"/>
<stop offset="1" stop-color="#5A2A00"/>
</linearGradient>
</defs>
</svg>
