<svg width="148" height="150" viewBox="0 0 148 150" fill="none" xmlns="http://www.w3.org/2000/svg">
<path d="M102.595 126.003C102.595 126.003 102.626 125.985 102.644 126C102.661 126.015 102.662 126.031 102.647 126.048C102.632 126.066 102.615 126.067 102.598 126.051C102.581 126.036 102.58 126.02 102.595 126.003Z" fill="#E9EFAB"/>
<path d="M106.454 121.242C106.56 121.121 106.738 121.11 106.858 121.216C106.979 121.322 106.99 121.5 106.884 121.621C106.778 121.741 106.6 121.753 106.479 121.646C106.359 121.54 106.348 121.362 106.454 121.242Z" fill="#E9EFAB"/>
<path d="M110.346 116.511C110.528 116.304 110.835 116.285 111.042 116.466C111.248 116.648 111.268 116.956 111.086 117.162C110.904 117.369 110.596 117.388 110.39 117.206C110.183 117.024 110.164 116.717 110.346 116.511Z" fill="#E9EFAB"/>
<path d="M114.376 111.885C114.565 111.669 114.905 111.648 115.12 111.837C115.335 112.027 115.357 112.367 115.167 112.582C114.978 112.797 114.638 112.818 114.423 112.629C114.208 112.439 114.187 112.1 114.376 111.885Z" fill="#E9EFAB"/>
<path d="M118.449 107.315C118.631 107.109 118.938 107.089 119.145 107.271C119.351 107.453 119.371 107.76 119.189 107.967C119.007 108.173 118.699 108.193 118.493 108.011C118.286 107.829 118.267 107.522 118.449 107.315Z" fill="#E9EFAB"/>
<path d="M122.659 102.862C122.757 102.751 122.935 102.739 123.047 102.838C123.159 102.936 123.17 103.114 123.072 103.226C122.973 103.338 122.795 103.349 122.683 103.251C122.571 103.152 122.56 102.974 122.659 102.862Z" fill="#E9EFAB"/>
<path d="M126.91 98.4343C126.91 98.4343 126.918 98.4254 126.927 98.4333C126.936 98.4411 126.936 98.4411 126.928 98.4501C126.92 98.459 126.92 98.459 126.911 98.4511C126.902 98.4433 126.902 98.4433 126.91 98.4343Z" fill="#E9EFAB"/>
<path d="M89.908 131.157C89.908 131.157 89.9158 131.148 89.9248 131.156C89.9337 131.164 89.9337 131.164 89.9258 131.173C89.918 131.182 89.918 131.182 89.909 131.174C89.9001 131.166 89.9001 131.166 89.908 131.157Z" fill="#E9EFAB"/>
<path d="M93.5857 126.241C93.7751 126.026 94.0912 126.014 94.2977 126.196C94.5041 126.377 94.5246 126.701 94.3427 126.908C94.1609 127.114 93.8372 127.135 93.6307 126.953C93.4243 126.771 93.4038 126.447 93.5857 126.241Z" fill="#E9EFAB"/>
<path d="M97.2463 121.288C97.6252 120.858 98.2725 120.817 98.7027 121.196C99.1329 121.575 99.1738 122.222 98.7949 122.652C98.4159 123.083 97.7687 123.124 97.3385 122.745C96.9083 122.366 96.8674 121.718 97.2463 121.288Z" fill="#E9EFAB"/>
<path d="M101.206 116.618C101.63 116.136 102.358 116.09 102.84 116.514C103.322 116.939 103.368 117.667 102.944 118.149C102.519 118.63 101.791 118.677 101.309 118.252C100.828 117.828 100.781 117.1 101.206 116.618Z" fill="#E9EFAB"/>
<path d="M105.253 112.025C105.678 111.543 106.406 111.497 106.888 111.921C107.369 112.346 107.415 113.074 106.991 113.556C106.567 114.038 105.838 114.084 105.357 113.659C104.875 113.235 104.829 112.507 105.253 112.025Z" fill="#E9EFAB"/>
<path d="M109.308 107.421C109.732 106.94 110.46 106.894 110.942 107.318C111.424 107.742 111.47 108.471 111.046 108.952C110.621 109.434 109.893 109.48 109.411 109.056C108.93 108.631 108.883 107.903 109.308 107.421Z" fill="#E9EFAB"/>
<path d="M113.356 102.825C113.78 102.343 114.508 102.297 114.99 102.721C115.472 103.146 115.518 103.874 115.094 104.356C114.669 104.837 113.941 104.884 113.459 104.459C112.977 104.035 112.931 103.307 113.356 102.825Z" fill="#E9EFAB"/>
<path d="M117.401 98.2339C117.825 97.7522 118.553 97.7061 119.035 98.1305C119.517 98.5549 119.563 99.2831 119.139 99.7649C118.714 100.247 117.986 100.293 117.504 99.8683C117.022 99.4439 116.976 98.7157 117.401 98.2339Z" fill="#E9EFAB"/>
<path d="M121.56 93.7202C121.931 93.2987 122.578 93.2577 123 93.6291C123.421 94.0004 123.462 94.6477 123.091 95.0693C122.72 95.4908 122.072 95.5318 121.651 95.1604C121.229 94.7891 121.188 94.1418 121.56 93.7202Z" fill="#E9EFAB"/>
<path d="M126.013 89.4809C126.187 89.283 126.487 89.2721 126.676 89.4389C126.866 89.6056 126.885 89.9131 126.718 90.1023C126.552 90.2916 126.244 90.3111 126.055 90.1443C125.866 89.9776 125.846 89.6702 126.013 89.4809Z" fill="#E9EFAB"/>
<path d="M130.403 85.1892C130.403 85.1892 130.41 85.1803 130.419 85.1881C130.428 85.196 130.428 85.196 130.42 85.2049C130.413 85.2139 130.413 85.2139 130.404 85.206C130.395 85.1981 130.395 85.1981 130.403 85.1892Z" fill="#E9EFAB"/>
<path d="M81.3301 131.652C81.2968 131.622 81.2461 131.626 81.2168 131.659C81.1875 131.692 81.1907 131.743 81.224 131.772C81.2572 131.801 81.3079 131.798 81.3372 131.765C81.3665 131.732 81.3633 131.681 81.3301 131.652Z" fill="#E9EFAB"/>
<path d="M84.7044 126.573C85.0076 126.229 85.533 126.188 85.8857 126.498C86.2384 126.809 86.2636 127.335 85.9605 127.68C85.6573 128.024 85.1233 128.058 84.7792 127.754C84.4351 127.451 84.3937 126.926 84.7044 126.573Z" fill="#E9EFAB"/>
<path d="M88.51 121.769C88.9344 121.287 89.6626 121.241 90.1444 121.666C90.6262 122.09 90.6723 122.818 90.2479 123.3C89.8235 123.782 89.0953 123.828 88.6135 123.403C88.1317 122.979 88.0856 122.251 88.51 121.769Z" fill="#E9EFAB"/>
<path d="M92.5652 117.166C92.9896 116.684 93.7178 116.638 94.1996 117.062C94.6814 117.487 94.7275 118.215 94.3031 118.697C93.8786 119.178 93.1505 119.224 92.6687 118.8C92.1869 118.376 92.1408 117.647 92.5652 117.166Z" fill="#E9EFAB"/>
<path d="M96.6126 112.569C97.037 112.087 97.7652 112.041 98.247 112.465C98.7287 112.89 98.7748 113.618 98.3504 114.1C97.926 114.582 97.1978 114.628 96.716 114.203C96.2343 113.779 96.1882 113.051 96.6126 112.569Z" fill="#E9EFAB"/>
<path d="M100.66 107.976C101.084 107.494 101.813 107.448 102.294 107.873C102.776 108.297 102.822 109.025 102.398 109.507C101.973 109.989 101.245 110.035 100.763 109.611C100.282 109.186 100.236 108.458 100.66 107.976Z" fill="#E9EFAB"/>
<path d="M104.714 103.375C105.138 102.893 105.866 102.847 106.348 103.271C106.83 103.696 106.876 104.424 106.451 104.905C106.027 105.387 105.299 105.433 104.817 105.009C104.335 104.585 104.289 103.856 104.714 103.375Z" fill="#E9EFAB"/>
<path d="M108.761 98.7798C109.185 98.2981 109.914 98.252 110.395 98.6764C110.877 99.1008 110.923 99.829 110.499 100.311C110.074 100.793 109.346 100.839 108.864 100.414C108.383 99.9898 108.337 99.2616 108.761 98.7798Z" fill="#E9EFAB"/>
<path d="M112.808 94.1851C113.232 93.7033 113.96 93.6572 114.442 94.0816C114.924 94.5061 114.97 95.2343 114.546 95.716C114.121 96.1978 113.393 96.2439 112.911 95.8195C112.43 95.3951 112.383 94.6669 112.808 94.1851Z" fill="#E9EFAB"/>
<path d="M116.862 89.5826C117.286 89.1008 118.014 89.0547 118.496 89.4791C118.978 89.9035 119.024 90.6317 118.599 91.1135C118.175 91.5953 117.447 91.6414 116.965 91.217C116.483 90.7925 116.437 90.0644 116.862 89.5826Z" fill="#E9EFAB"/>
<path d="M120.908 84.9888C121.333 84.507 122.061 84.4609 122.543 84.8854C123.025 85.3098 123.071 86.038 122.646 86.5197C122.222 87.0015 121.494 87.0476 121.012 86.6232C120.53 86.1988 120.484 85.4706 120.908 84.9888Z" fill="#E9EFAB"/>
<path d="M125.206 80.6147C125.501 80.2792 126.019 80.2464 126.355 80.542C126.69 80.8376 126.723 81.3554 126.427 81.6909C126.132 82.0265 125.614 82.0592 125.278 81.7637C124.943 81.4681 124.91 80.9503 125.206 80.6147Z" fill="#E9EFAB"/>
<path d="M129.836 76.5212C129.836 76.5212 129.884 76.5019 129.901 76.5171C129.918 76.5322 129.92 76.5646 129.905 76.5818C129.89 76.599 129.858 76.6011 129.841 76.5859C129.823 76.5707 129.821 76.5384 129.836 76.5212Z" fill="#E9EFAB"/>
<path d="M72.6194 132.26C72.6194 132.26 72.6273 132.251 72.6362 132.258C72.6451 132.266 72.6451 132.266 72.6373 132.275C72.6294 132.284 72.6294 132.284 72.6205 132.276C72.6115 132.268 72.6115 132.268 72.6194 132.26Z" fill="#E9EFAB"/>
<path d="M77.2363 127.038C76.8894 126.733 76.3605 126.766 76.055 127.113C75.7494 127.46 75.7829 127.989 76.1298 128.294C76.4766 128.6 77.0055 128.566 77.3111 128.22C77.6166 127.873 77.5831 127.344 77.2363 127.038Z" fill="#E9EFAB"/>
<path d="M79.8601 122.307C80.2845 121.825 81.0127 121.779 81.4945 122.204C81.9763 122.628 82.0224 123.356 81.598 123.838C81.1736 124.32 80.4454 124.366 79.9636 123.942C79.4818 123.517 79.4357 122.789 79.8601 122.307Z" fill="#E9EFAB"/>
<path d="M83.907 117.714C84.3314 117.233 85.0596 117.187 85.5414 117.611C86.0232 118.035 86.0693 118.764 85.6449 119.245C85.2204 119.727 84.4922 119.773 84.0105 119.349C83.5287 118.924 83.4826 118.196 83.907 117.714Z" fill="#E9EFAB"/>
<path d="M87.9627 113.109C88.3871 112.627 89.1153 112.581 89.5971 113.005C90.0788 113.43 90.1249 114.158 89.7005 114.64C89.2761 115.122 88.5479 115.168 88.0661 114.743C87.5844 114.319 87.5383 113.591 87.9627 113.109Z" fill="#E9EFAB"/>
<path d="M92.0095 108.516C92.434 108.034 93.1621 107.988 93.6439 108.413C94.1257 108.837 94.1718 109.565 93.7474 110.047C93.323 110.529 92.5948 110.575 92.113 110.151C91.6312 109.726 91.5851 108.998 92.0095 108.516Z" fill="#E9EFAB"/>
<path d="M96.0564 103.923C96.4808 103.442 97.209 103.396 97.6908 103.82C98.1726 104.244 98.2187 104.973 97.7943 105.454C97.3699 105.936 96.6417 105.982 96.1599 105.558C95.6781 105.133 95.632 104.405 96.0564 103.923Z" fill="#E9EFAB"/>
<path d="M100.11 99.3199C100.535 98.8381 101.263 98.792 101.745 99.2164C102.226 99.6408 102.272 100.369 101.848 100.851C101.424 101.333 100.695 101.379 100.214 100.954C99.7318 100.53 99.6857 99.8017 100.11 99.3199Z" fill="#E9EFAB"/>
<path d="M104.157 94.7252C104.582 94.2434 105.31 94.1973 105.792 94.6217C106.274 95.0461 106.32 95.7743 105.895 96.2561C105.471 96.7379 104.743 96.784 104.261 96.3595C103.779 95.9351 103.733 95.2069 104.157 94.7252Z" fill="#E9EFAB"/>
<path d="M108.205 90.1324C108.629 89.6506 109.357 89.6045 109.839 90.0289C110.321 90.4533 110.367 91.1815 109.943 91.6633C109.518 92.1451 108.79 92.1912 108.308 91.7668C107.827 91.3424 107.78 90.6142 108.205 90.1324Z" fill="#E9EFAB"/>
<path d="M112.261 85.5298C112.685 85.0481 113.413 85.002 113.895 85.4264C114.377 85.8508 114.423 86.579 113.998 87.0608C113.574 87.5425 112.846 87.5886 112.364 87.1642C111.882 86.7398 111.836 86.0116 112.261 85.5298Z" fill="#E9EFAB"/>
<path d="M116.307 80.9341C116.732 80.4524 117.46 80.4063 117.942 80.8307C118.424 81.2551 118.47 81.9833 118.045 82.4651C117.621 82.9468 116.893 82.9929 116.411 82.5685C115.929 82.1441 115.883 81.4159 116.307 80.9341Z" fill="#E9EFAB"/>
<path d="M120.354 76.3394C120.778 75.8576 121.506 75.8115 121.988 76.2359C122.47 76.6604 122.516 77.3886 122.092 77.8703C121.667 78.3521 120.939 78.3982 120.457 77.9738C119.975 77.5494 119.929 76.8212 120.354 76.3394Z" fill="#E9EFAB"/>
<path d="M124.666 71.9673C124.961 71.6318 125.479 71.599 125.814 71.8945C126.15 72.1901 126.183 72.7079 125.887 73.0435C125.592 73.379 125.074 73.4118 124.738 73.1162C124.403 72.8206 124.37 72.3028 124.666 71.9673Z" fill="#E9EFAB"/>
<path d="M129.315 67.9001C129.315 67.9001 129.323 67.8912 129.332 67.8991C129.341 67.907 129.341 67.9069 129.333 67.9159C129.325 67.9248 129.325 67.9248 129.316 67.9169C129.307 67.9091 129.307 67.9091 129.315 67.9001Z" fill="#E9EFAB"/>
<path d="M67.6462 127.881C67.8357 127.666 68.1517 127.654 68.3582 127.836C68.5647 128.018 68.5852 128.342 68.4033 128.548C68.2214 128.755 67.8978 128.775 67.6913 128.593C67.4848 128.411 67.4643 128.088 67.6462 127.881Z" fill="#E9EFAB"/>
<path d="M71.2195 122.853C71.6439 122.371 72.3721 122.325 72.8539 122.75C73.3357 123.174 73.3818 123.902 72.9574 124.384C72.5329 124.866 71.8047 124.912 71.323 124.487C70.8412 124.063 70.7951 123.335 71.2195 122.853Z" fill="#E9EFAB"/>
<path d="M75.2669 118.26C75.6913 117.779 76.4195 117.732 76.9013 118.157C77.383 118.581 77.4291 119.309 77.0047 119.791C76.5803 120.273 75.8521 120.319 75.3703 119.895C74.8886 119.47 74.8425 118.742 75.2669 118.26Z" fill="#E9EFAB"/>
<path d="M79.3137 113.668C79.7382 113.186 80.4663 113.14 80.9481 113.564C81.4299 113.988 81.476 114.717 81.0516 115.198C80.6272 115.68 79.899 115.726 79.4172 115.302C78.9354 114.878 78.8893 114.149 79.3137 113.668Z" fill="#E9EFAB"/>
<path d="M83.3694 109.062C83.7938 108.58 84.522 108.534 85.0038 108.959C85.4856 109.383 85.5317 110.111 85.1073 110.593C84.6828 111.075 83.9547 111.121 83.4729 110.696C82.9911 110.272 82.945 109.544 83.3694 109.062Z" fill="#E9EFAB"/>
<path d="M87.4163 104.467C87.8407 103.986 88.5689 103.939 89.0507 104.364C89.5324 104.788 89.5785 105.516 89.1541 105.998C88.7297 106.48 88.0015 106.526 87.5197 106.102C87.038 105.677 86.9919 104.949 87.4163 104.467Z" fill="#E9EFAB"/>
<path d="M91.4636 99.8746C91.8881 99.3928 92.6162 99.3467 93.098 99.7711C93.5798 100.196 93.6259 100.924 93.2015 101.405C92.7771 101.887 92.0489 101.933 91.5671 101.509C91.0853 101.085 91.0392 100.356 91.4636 99.8746Z" fill="#E9EFAB"/>
<path d="M95.5169 95.272C95.9413 94.7902 96.6695 94.7441 97.1513 95.1686C97.633 95.593 97.6791 96.3212 97.2547 96.8029C96.8303 97.2847 96.1021 97.3308 95.6203 96.9064C95.1386 96.482 95.0925 95.7538 95.5169 95.272Z" fill="#E9EFAB"/>
<path d="M99.5642 90.6783C99.9886 90.1965 100.717 90.1504 101.199 90.5748C101.68 90.9992 101.726 91.7274 101.302 92.2092C100.878 92.691 100.149 92.7371 99.6677 92.3127C99.1859 91.8883 99.1398 91.1601 99.5642 90.6783Z" fill="#E9EFAB"/>
<path d="M103.612 86.0835C104.036 85.6018 104.764 85.5557 105.246 85.9801C105.728 86.4045 105.774 87.1327 105.349 87.6145C104.925 88.0963 104.197 88.1424 103.715 87.7179C103.233 87.2935 103.187 86.5653 103.612 86.0835Z" fill="#E9EFAB"/>
<path d="M107.665 81.481C108.089 80.9992 108.817 80.9531 109.299 81.3775C109.781 81.802 109.827 82.5302 109.403 83.0119C108.978 83.4937 108.25 83.5398 107.768 83.1154C107.287 82.691 107.24 81.9628 107.665 81.481Z" fill="#E9EFAB"/>
<path d="M111.712 76.8873C112.137 76.4055 112.865 76.3594 113.347 76.7838C113.828 77.2082 113.874 77.9364 113.45 78.4182C113.026 78.9 112.297 78.9461 111.816 78.5216C111.334 78.0972 111.288 77.369 111.712 76.8873Z" fill="#E9EFAB"/>
<path d="M115.761 72.2925C116.185 71.8108 116.914 71.7647 117.395 72.1891C117.877 72.6135 117.923 73.3417 117.499 73.8235C117.074 74.3052 116.346 74.3513 115.864 73.9269C115.383 73.5025 115.337 72.7743 115.761 72.2925Z" fill="#E9EFAB"/>
<path d="M119.815 67.69C120.239 67.2082 120.967 67.1621 121.449 67.5865C121.931 68.0109 121.977 68.7391 121.553 69.2209C121.128 69.7027 120.4 69.7488 119.918 69.3244C119.436 68.9 119.39 68.1718 119.815 67.69Z" fill="#E9EFAB"/>
<path d="M124.369 63.5434C124.544 63.3455 124.844 63.3346 125.033 63.5014C125.222 63.6681 125.242 63.9756 125.075 64.1648C124.908 64.3541 124.601 64.3736 124.411 64.2068C124.222 64.0401 124.203 63.7327 124.369 63.5434Z" fill="#E9EFAB"/>
<path d="M59.3588 128.738C59.3588 128.738 59.3902 128.72 59.4074 128.735C59.4246 128.75 59.4256 128.767 59.4104 128.784C59.3953 128.801 59.3791 128.802 59.3619 128.787C59.3447 128.772 59.3437 128.755 59.3588 128.738Z" fill="#E9EFAB"/>
<path d="M62.6739 123.5C63.0453 123.078 63.6925 123.037 64.1141 123.408C64.5357 123.78 64.5766 124.427 64.2053 124.849C63.8339 125.27 63.1866 125.311 62.7651 124.94C62.3435 124.568 62.3025 123.921 62.6739 123.5Z" fill="#E9EFAB"/>
<path d="M66.6243 118.808C67.0487 118.326 67.7769 118.28 68.2587 118.705C68.7405 119.129 68.7866 119.857 68.3621 120.339C67.9377 120.821 67.2095 120.867 66.7278 120.443C66.246 120.018 66.1999 119.29 66.6243 118.808Z" fill="#E9EFAB"/>
<path d="M70.6717 114.211C71.0961 113.73 71.8243 113.684 72.306 114.108C72.7878 114.532 72.8339 115.261 72.4095 115.742C71.9851 116.224 71.2569 116.27 70.7751 115.846C70.2933 115.421 70.2472 114.693 70.6717 114.211Z" fill="#E9EFAB"/>
<path d="M74.719 109.619C75.1434 109.137 75.8716 109.091 76.3534 109.515C76.8352 109.94 76.8813 110.668 76.4569 111.15C76.0325 111.631 75.3043 111.678 74.8225 111.253C74.3407 110.829 74.2946 110.1 74.719 109.619Z" fill="#E9EFAB"/>
<path d="M78.7742 105.015C79.1986 104.533 79.9268 104.487 80.4086 104.912C80.8904 105.336 80.9365 106.064 80.512 106.546C80.0876 107.028 79.3594 107.074 78.8777 106.65C78.3959 106.225 78.3498 105.497 78.7742 105.015Z" fill="#E9EFAB"/>
<path d="M82.8206 100.42C83.245 99.9387 83.9732 99.8926 84.455 100.317C84.9367 100.741 84.9828 101.47 84.5584 101.951C84.134 102.433 83.4058 102.479 82.924 102.055C82.4423 101.63 82.3962 100.902 82.8206 100.42Z" fill="#E9EFAB"/>
<path d="M86.8679 95.8277C87.2924 95.3459 88.0205 95.2998 88.5023 95.7242C88.9841 96.1486 89.0302 96.8768 88.6058 97.3586C88.1814 97.8404 87.4532 97.8865 86.9714 97.4621C86.4896 97.0377 86.4435 96.3095 86.8679 95.8277Z" fill="#E9EFAB"/>
<path d="M90.9217 91.2252C91.3461 90.7434 92.0743 90.6973 92.556 91.1217C93.0378 91.5461 93.0839 92.2743 92.6595 92.7561C92.2351 93.2379 91.5069 93.284 91.0251 92.8595C90.5433 92.4351 90.4972 91.7069 90.9217 91.2252Z" fill="#E9EFAB"/>
<path d="M94.969 86.6294C95.3934 86.1477 96.1216 86.1016 96.6034 86.526C97.0852 86.9504 97.1313 87.6786 96.7069 88.1604C96.2825 88.6421 95.5543 88.6882 95.0725 88.2638C94.5907 87.8394 94.5446 87.1112 94.969 86.6294Z" fill="#E9EFAB"/>
<path d="M99.0164 82.0367C99.4408 81.5549 100.169 81.5088 100.651 81.9332C101.133 82.3576 101.179 83.0858 100.754 83.5676C100.33 84.0494 99.6016 84.0955 99.1198 83.6711C98.6381 83.2466 98.592 82.5185 99.0164 82.0367Z" fill="#E9EFAB"/>
<path d="M103.072 77.4341C103.496 76.9524 104.225 76.9063 104.706 77.3307C105.188 77.7551 105.234 78.4833 104.81 78.9651C104.385 79.4468 103.657 79.4929 103.176 79.0685C102.694 78.6441 102.648 77.9159 103.072 77.4341Z" fill="#E9EFAB"/>
<path d="M107.119 72.8414C107.544 72.3596 108.272 72.3135 108.754 72.7379C109.236 73.1623 109.282 73.8905 108.857 74.3723C108.433 74.8541 107.705 74.9002 107.223 74.4758C106.741 74.0513 106.695 73.3231 107.119 72.8414Z" fill="#E9EFAB"/>
<path d="M111.165 68.2437C111.59 67.7619 112.318 67.7158 112.8 68.1402C113.281 68.5647 113.328 69.2928 112.903 69.7746C112.479 70.2564 111.751 70.3025 111.269 69.8781C110.787 69.4537 110.741 68.7255 111.165 68.2437Z" fill="#E9EFAB"/>
<path d="M115.221 63.6412C115.646 63.1594 116.374 63.1133 116.856 63.5377C117.338 63.9621 117.384 64.6903 116.959 65.1721C116.535 65.6539 115.807 65.7 115.325 65.2756C114.843 64.8511 114.797 64.123 115.221 63.6412Z" fill="#E9EFAB"/>
<path d="M119.379 59.1457C119.743 58.7327 120.374 58.6928 120.787 59.0566C121.2 59.4204 121.24 60.0515 120.876 60.4644C120.512 60.8774 119.881 60.9173 119.468 60.5535C119.055 60.1897 119.015 59.5586 119.379 59.1457Z" fill="#E9EFAB"/>
<path d="M124.151 55.1885C124.151 55.1885 124.182 55.1703 124.199 55.1854C124.217 55.2006 124.218 55.2168 124.202 55.234C124.187 55.2512 124.171 55.2522 124.154 55.237C124.137 55.2219 124.136 55.2057 124.151 55.1885Z" fill="#E9EFAB"/>
<path d="M54.5752 124.525C54.6813 124.405 54.8593 124.393 54.9798 124.5C55.1002 124.606 55.1115 124.784 55.0054 124.904C54.8993 125.025 54.7213 125.036 54.6008 124.93C54.4804 124.824 54.4691 124.646 54.5752 124.525Z" fill="#E9EFAB"/>
<path d="M57.9676 119.355C58.392 118.873 59.1202 118.827 59.6019 119.252C60.0837 119.676 60.1298 120.404 59.7054 120.886C59.281 121.368 58.5528 121.414 58.071 120.989C57.5892 120.565 57.5431 119.837 57.9676 119.355Z" fill="#E9EFAB"/>
<path d="M62.0232 114.752C62.4476 114.27 63.1758 114.224 63.6576 114.648C64.1394 115.072 64.1855 115.801 63.7611 116.282C63.3367 116.764 62.6085 116.81 62.1267 116.386C61.6449 115.961 61.5988 115.233 62.0232 114.752Z" fill="#E9EFAB"/>
<path d="M66.0681 110.159C66.4926 109.677 67.2207 109.631 67.7025 110.055C68.1843 110.48 68.2304 111.208 67.806 111.69C67.3816 112.171 66.6534 112.218 66.1716 111.793C65.6898 111.369 65.6437 110.641 66.0681 110.159Z" fill="#E9EFAB"/>
<path d="M70.116 105.566C70.5404 105.084 71.2686 105.038 71.7504 105.463C72.2322 105.887 72.2783 106.615 71.8538 107.097C71.4294 107.579 70.7012 107.625 70.2195 107.2C69.7377 106.776 69.6916 106.048 70.116 105.566Z" fill="#E9EFAB"/>
<path d="M74.1726 100.961C74.597 100.479 75.3252 100.433 75.807 100.857C76.2888 101.281 76.3349 102.01 75.9105 102.491C75.4861 102.973 74.7579 103.019 74.2761 102.595C73.7943 102.17 73.7482 101.442 74.1726 100.961Z" fill="#E9EFAB"/>
<path d="M78.2205 96.3658C78.6449 95.884 79.3731 95.8379 79.8549 96.2623C80.3366 96.6867 80.3827 97.4149 79.9583 97.8967C79.5339 98.3785 78.8057 98.4246 78.3239 98.0002C77.8422 97.5758 77.7961 96.8476 78.2205 96.3658Z" fill="#E9EFAB"/>
<path d="M82.2649 91.773C82.6893 91.2912 83.4175 91.2451 83.8993 91.6695C84.3811 92.094 84.4272 92.8221 84.0028 93.3039C83.5784 93.7857 82.8502 93.8318 82.3684 93.4074C81.8866 92.983 81.8405 92.2548 82.2649 91.773Z" fill="#E9EFAB"/>
<path d="M86.3211 87.1705C86.7455 86.6887 87.4737 86.6426 87.9555 87.067C88.4372 87.4914 88.4833 88.2196 88.0589 88.7014C87.6345 89.1832 86.9063 89.2293 86.4245 88.8049C85.9428 88.3804 85.8967 87.6522 86.3211 87.1705Z" fill="#E9EFAB"/>
<path d="M90.3679 82.5767C90.7924 82.0949 91.5205 82.0488 92.0023 82.4733C92.4841 82.8977 92.5302 83.6259 92.1058 84.1076C91.6814 84.5894 90.9532 84.6355 90.4714 84.2111C89.9896 83.7867 89.9435 83.0585 90.3679 82.5767Z" fill="#E9EFAB"/>
<path d="M94.4148 77.982C94.8392 77.5002 95.5674 77.4541 96.0492 77.8785C96.531 78.3029 96.5771 79.0311 96.1527 79.5129C95.7283 79.9947 95.0001 80.0408 94.5183 79.6164C94.0365 79.192 93.9904 78.4638 94.4148 77.982Z" fill="#E9EFAB"/>
<path d="M98.4685 73.3795C98.8929 72.8977 99.6211 72.8516 100.103 73.276C100.585 73.7004 100.631 74.4286 100.206 74.9104C99.782 75.3922 99.0538 75.4382 98.572 75.0138C98.0902 74.5894 98.0441 73.8612 98.4685 73.3795Z" fill="#E9EFAB"/>
<path d="M102.516 68.7867C102.94 68.3049 103.668 68.2588 104.15 68.6832C104.632 69.1076 104.678 69.8358 104.254 70.3176C103.829 70.7994 103.101 70.8455 102.619 70.4211C102.138 69.9966 102.091 69.2685 102.516 68.7867Z" fill="#E9EFAB"/>
<path d="M106.565 64.191C106.99 63.7092 107.718 63.6631 108.2 64.0875C108.681 64.5119 108.727 65.2401 108.303 65.7219C107.879 66.2037 107.15 66.2498 106.669 65.8254C106.187 65.4009 106.141 64.6728 106.565 64.191Z" fill="#E9EFAB"/>
<path d="M110.618 59.5884C111.043 59.1067 111.771 59.0606 112.253 59.485C112.735 59.9094 112.781 60.6376 112.356 61.1194C111.932 61.6011 111.204 61.6472 110.722 61.2228C110.24 60.7984 110.194 60.0702 110.618 59.5884Z" fill="#E9EFAB"/>
<path d="M114.666 54.9957C115.09 54.5139 115.818 54.4678 116.3 54.8922C116.782 55.3166 116.828 56.0448 116.404 56.5266C115.979 57.0084 115.251 57.0545 114.769 56.63C114.287 56.2056 114.241 55.4774 114.666 54.9957Z" fill="#E9EFAB"/>
<path d="M119.391 50.9997C119.482 50.8965 119.643 50.8862 119.747 50.9772C119.85 51.0681 119.86 51.23 119.769 51.3332C119.678 51.4364 119.517 51.4467 119.413 51.3557C119.31 51.2648 119.3 51.103 119.391 50.9997Z" fill="#E9EFAB"/>
<path d="M49.8248 120.343C50.0067 120.136 50.3141 120.117 50.5206 120.298C50.7271 120.48 50.7466 120.788 50.5647 120.994C50.3828 121.201 50.0753 121.22 49.8688 121.038C49.6624 120.856 49.6429 120.549 49.8248 120.343Z" fill="#E9EFAB"/>
<path d="M53.3743 115.308C53.7987 114.826 54.5269 114.78 55.0087 115.205C55.4905 115.629 55.5366 116.357 55.1121 116.839C54.6877 117.321 53.9595 117.367 53.4778 116.943C52.996 116.518 52.9499 115.79 53.3743 115.308Z" fill="#E9EFAB"/>
<path d="M57.428 110.707C57.8524 110.225 58.5806 110.179 59.0624 110.603C59.5442 111.028 59.5903 111.756 59.1659 112.238C58.7414 112.719 58.0132 112.765 57.5315 112.341C57.0497 111.917 57.0036 111.188 57.428 110.707Z" fill="#E9EFAB"/>
<path d="M61.4754 106.11C61.8998 105.628 62.628 105.582 63.1097 106.006C63.5915 106.431 63.6376 107.159 63.2132 107.641C62.7888 108.123 62.0606 108.169 61.5788 107.744C61.097 107.32 61.0509 106.592 61.4754 106.11Z" fill="#E9EFAB"/>
<path d="M65.5222 101.517C65.9467 101.035 66.6748 100.989 67.1566 101.414C67.6384 101.838 67.6845 102.566 67.2601 103.048C66.8357 103.53 66.1075 103.576 65.6257 103.152C65.1439 102.727 65.0978 101.999 65.5222 101.517Z" fill="#E9EFAB"/>
<path d="M69.5769 96.9146C70.0013 96.4328 70.7295 96.3867 71.2113 96.8111C71.6931 97.2356 71.7392 97.9637 71.3148 98.4455C70.8904 98.9273 70.1622 98.9734 69.6804 98.549C69.1986 98.1246 69.1525 97.3964 69.5769 96.9146Z" fill="#E9EFAB"/>
<path d="M73.6248 92.3189C74.0492 91.8371 74.7774 91.791 75.2592 92.2154C75.7409 92.6398 75.787 93.368 75.3626 93.8498C74.9382 94.3316 74.21 94.3777 73.7282 93.9533C73.2465 93.5289 73.2004 92.8007 73.6248 92.3189Z" fill="#E9EFAB"/>
<path d="M77.6721 87.7242C78.0966 87.2424 78.8247 87.1963 79.3065 87.6207C79.7883 88.0451 79.8344 88.7733 79.41 89.2551C78.9856 89.7369 78.2574 89.783 77.7756 89.3586C77.2938 88.9341 77.2477 88.206 77.6721 87.7242Z" fill="#E9EFAB"/>
<path d="M81.7254 83.1236C82.1498 82.6418 82.878 82.5957 83.3597 83.0201C83.8415 83.4445 83.8876 84.1727 83.4632 84.6545C83.0388 85.1363 82.3106 85.1824 81.8288 84.758C81.347 84.3336 81.301 83.6054 81.7254 83.1236Z" fill="#E9EFAB"/>
<path d="M85.7727 78.5279C86.1971 78.0461 86.9253 78 87.4071 78.4244C87.8889 78.8488 87.935 79.577 87.5106 80.0588C87.0862 80.5406 86.358 80.5867 85.8762 80.1623C85.3944 79.7379 85.3483 79.0097 85.7727 78.5279Z" fill="#E9EFAB"/>
<path d="M89.8201 73.9351C90.2445 73.4533 90.9727 73.4072 91.4545 73.8316C91.9363 74.2561 91.9824 74.9843 91.5579 75.466C91.1335 75.9478 90.4053 75.9939 89.9236 75.5695C89.4418 75.1451 89.3957 74.4169 89.8201 73.9351Z" fill="#E9EFAB"/>
<path d="M93.8733 69.3345C94.2977 68.8527 95.0259 68.8066 95.5077 69.2311C95.9895 69.6555 96.0356 70.3837 95.6112 70.8655C95.1867 71.3472 94.4586 71.3933 93.9768 70.9689C93.495 70.5445 93.4489 69.8163 93.8733 69.3345Z" fill="#E9EFAB"/>
<path d="M97.9207 64.7398C98.3451 64.258 99.0733 64.2119 99.5551 64.6363C100.037 65.0608 100.083 65.7889 99.6585 66.2707C99.2341 66.7525 98.5059 66.7986 98.0241 66.3742C97.5424 65.9498 97.4963 65.2216 97.9207 64.7398Z" fill="#E9EFAB"/>
<path d="M101.97 60.1421C102.394 59.6604 103.122 59.6143 103.604 60.0387C104.086 60.4631 104.132 61.1913 103.707 61.6731C103.283 62.1548 102.555 62.2009 102.073 61.7765C101.591 61.3521 101.545 60.6239 101.97 60.1421Z" fill="#E9EFAB"/>
<path d="M106.025 55.5396C106.449 55.0578 107.177 55.0117 107.659 55.4361C108.141 55.8606 108.187 56.5888 107.763 57.0705C107.338 57.5523 106.61 57.5984 106.128 57.174C105.646 56.7496 105.6 56.0214 106.025 55.5396Z" fill="#E9EFAB"/>
<path d="M110.07 50.9468C110.495 50.4651 111.223 50.419 111.704 50.8434C112.186 51.2678 112.232 51.996 111.808 52.4778C111.384 52.9595 110.655 53.0056 110.174 52.5812C109.692 52.1568 109.646 51.4286 110.07 50.9468Z" fill="#E9EFAB"/>
<path d="M114.625 46.8002C114.8 46.6023 115.099 46.5915 115.289 46.7582C115.478 46.925 115.497 47.2324 115.331 47.4217C115.164 47.611 114.857 47.6304 114.667 47.4637C114.478 47.2969 114.459 46.9895 114.625 46.8002Z" fill="#E9EFAB"/>
<path d="M117.317 23.9941L115.539 17.8356L121.697 16.0574L119.994 10.1584L113.836 11.9366L112.057 5.77822L106.158 7.48154L107.937 13.64L101.778 15.4182L103.482 21.3172L109.64 19.539L111.418 25.6974L117.317 23.9941Z" fill="#E9EFAB"/>
<path d="M9.78146 60.3086C9.71108 51.492 11.9674 42.8128 16.3228 35.1468C20.6782 27.4808 26.9785 21.0992 34.588 16.6459L38.3858 23.1353C31.9177 26.9206 26.5624 32.3449 22.8603 38.861C19.1583 45.3772 17.2404 52.7544 17.3002 60.2485L9.78146 60.3086Z" fill="#F87000"/>
<path d="M35.1904 103.518C27.5199 99.1706 21.1317 92.877 16.6704 85.2722C12.2091 77.6673 9.83264 69.0203 9.78073 60.2036L17.2996 60.1593C17.3437 67.6535 19.3637 75.0035 23.1558 81.4676C26.9479 87.9317 32.3779 93.2813 38.8978 96.9766L35.1904 103.518Z" fill="#E0211D"/>
<path d="M34.4974 16.699C42.0976 12.2298 50.7422 9.84424 59.5588 9.78309C68.3754 9.72195 77.0522 11.9874 84.7137 16.3508L80.9926 22.8844C74.4804 19.1755 67.1051 17.2499 59.6109 17.3019C52.1168 17.3539 44.7689 19.3816 38.3088 23.1804L34.4974 16.699Z" fill="#FBB900"/>
<path d="M84.6224 16.2989C92.2929 20.6462 98.6812 26.9399 103.142 34.5447C107.604 42.1496 109.98 50.7966 110.032 59.6133L102.513 59.6576C102.469 52.1634 100.449 44.8134 96.657 38.3493C92.8649 31.8851 87.435 26.5356 80.915 22.8403L84.6224 16.2989Z" fill="#C5D805"/>
<path d="M110.031 59.5083C110.102 68.3249 107.845 77.0041 103.49 84.6701C99.1347 92.3361 92.8344 98.7177 85.2248 103.171L81.4271 96.6816C87.8952 92.8963 93.2504 87.4719 96.9525 80.9558C100.655 74.4397 102.572 67.0624 102.513 59.5684L110.031 59.5083Z" fill="#7ABE26"/>
<path d="M85.3154 103.118C77.7152 107.587 69.0707 109.973 60.254 110.034C51.4374 110.095 42.7606 107.83 35.0992 103.466L38.8202 96.9325C45.3325 100.641 52.7077 102.567 60.2019 102.515C67.696 102.463 75.0439 100.435 81.504 96.6365L85.3154 103.118Z" fill="#D9D9D9"/>
<circle cx="59.9038" cy="59.9126" r="42.6076" transform="rotate(-0.457338 59.9038 59.9126)" fill="#D9D9D9"/>
<path d="M110.032 60.3086C110.102 51.492 107.846 42.8128 103.49 35.1468C99.1348 27.4808 92.8345 21.0992 85.225 16.6459L81.4272 23.1353C87.8953 26.9206 93.2506 32.3449 96.9527 38.861C100.655 45.3772 102.573 52.7544 102.513 60.2485L110.032 60.3086Z" fill="#F87000"/>
<path d="M84.6226 103.518C92.2931 99.1706 98.6813 92.877 103.143 85.2722C107.604 77.6673 109.98 69.0203 110.032 60.2036L102.513 60.1593C102.469 67.6535 100.449 75.0035 96.6572 81.4676C92.8651 87.9317 87.4351 93.2813 80.9152 96.9766L84.6226 103.518Z" fill="#E0211D"/>
<path d="M85.3156 16.699C77.7154 12.2298 69.0708 9.84424 60.2542 9.78309C51.4376 9.72195 42.7608 11.9874 35.0993 16.3508L38.8204 22.8844C45.3326 19.1755 52.7079 17.2499 60.2021 17.3019C67.6962 17.3539 75.0441 19.3816 81.5042 23.1804L85.3156 16.699Z" fill="#FBB900"/>
<path d="M35.1906 16.2989C27.52 20.6462 21.1318 26.9399 16.6706 34.5447C12.2093 42.1496 9.8328 50.7966 9.78089 59.6133L17.2997 59.6576C17.3439 52.1634 19.3639 44.8134 23.156 38.3493C26.948 31.8851 32.378 26.5356 38.898 22.8403L35.1906 16.2989Z" fill="#C5D805"/>
<path d="M9.78162 59.5083C9.71124 68.3249 11.9676 77.0041 16.3229 84.6701C20.6783 92.3361 26.9786 98.7177 34.5882 103.171L38.3859 96.6816C31.9178 92.8963 26.5625 87.4719 22.8605 80.9558C19.1584 74.4397 17.2405 67.0624 17.3004 59.5684L9.78162 59.5083Z" fill="#7ABE26"/>
<path d="M34.4976 103.118C42.0978 107.587 50.7423 109.973 59.559 110.034C68.3756 110.095 77.0524 107.83 84.7138 103.466L80.9927 96.9325C74.4805 100.641 67.1052 102.567 59.6111 102.515C52.117 102.463 44.7691 100.435 38.3089 96.6365L34.4976 103.118Z" fill="#D9D9D9"/>
<circle cx="42.6076" cy="42.6076" r="42.6076" transform="matrix(-0.999968 -0.00798196 -0.00798196 0.999968 102.855 17.6465)" fill="#D9D9D9"/>
<mask id="mask0_8598_12255" style="mask-type:alpha" maskUnits="userSpaceOnUse" x="17" y="17" width="86" height="86">
<path d="M89.9999 90C106.568 73.4314 106.568 46.5686 89.9999 30C73.4314 13.4315 46.5685 13.4315 30 30C13.4314 46.5686 13.4315 73.4314 30 90C46.5685 106.569 73.4314 106.569 89.9999 90Z" fill="#FFD8D8"/>
</mask>
<g mask="url(#mask0_8598_12255)">
<circle cx="60.6469" cy="60.6357" r="42.7695" fill="white"/>
<path d="M89.1494 89.1458C104.897 73.3985 104.897 47.8671 89.1494 32.1198C73.4021 16.3725 47.8707 16.3725 32.1234 32.1198C16.3761 47.8671 16.3761 73.3985 32.1234 89.1458C47.8707 104.893 73.4021 104.893 89.1494 89.1458Z" fill="black"/>
<path d="M90.9544 90.9548C107.699 74.2106 107.699 47.0628 90.9544 30.3186C74.2101 13.5744 47.0624 13.5744 30.3181 30.3186C13.5739 47.0628 13.5739 74.2106 30.3181 90.9548C47.0624 107.699 74.2101 107.699 90.9544 90.9548Z" fill="#FFE4CE"/>
<path d="M89.9999 90C106.568 73.4314 106.568 46.5686 89.9999 30C73.4314 13.4315 46.5685 13.4315 30 30C13.4314 46.5686 13.4315 73.4314 30 90C46.5685 106.569 73.4314 106.569 89.9999 90Z" fill="#E9EFAB"/>
<path d="M79.2175 104.523H41.1919V91.9836C41.1919 85.9193 46.1073 81.0039 52.1716 81.0039L60.2066 84.4203L68.2416 81.0039C74.3059 81.0039 79.2213 85.9193 79.2213 91.9836V104.523H79.2175Z" fill="white"/>
<path d="M54.7876 81.0039H52.1701C46.1058 81.0039 41.1904 85.9193 41.1904 91.9836V104.523H55.9289L54.7876 81.0039Z" fill="#283F6D"/>
<path d="M54.7848 80.9999H53.6435C51.9809 80.9999 49.0781 86.6039 49.0781 86.6039L52.9397 90.6442L50.1396 94.9242L55.9262 104.515L54.7848 80.9961V80.9999Z" fill="#1E2F52"/>
<path d="M46.4178 82.6348C43.2829 84.5674 41.1904 88.0333 41.1904 91.9861V104.526H46.4178V82.6386V82.6348Z" fill="#1E2F52"/>
<path d="M65.6233 81.0039H68.2407C74.3051 81.0039 79.2204 85.9193 79.2204 91.9836V104.523H64.4819L65.6233 81.0039Z" fill="#283F6D"/>
<path d="M65.6233 80.9999H66.7646C68.4272 80.9999 71.33 86.6039 71.33 86.6039L67.4684 90.6442L70.2685 94.9242L64.4819 104.515L65.6233 80.9961V80.9999Z" fill="#1E2F52"/>
<path d="M73.939 82.6348C77.0738 84.5674 79.1663 88.0333 79.1663 91.9861V104.526H73.939V82.6386V82.6348Z" fill="#1E2F52"/>
<path d="M54.855 80.4472C54.855 83.2739 57.3697 84.9935 60.3334 84.9935H60.4285C63.3922 84.9935 65.5075 83.2739 65.5075 80.4472V73.9035C65.5075 71.0768 63.3884 68.2539 60.4285 68.2539H60.3334C57.3697 68.2539 54.855 71.0768 54.855 73.9035V80.4472Z" fill="#FFC0AD"/>
<path d="M80.4475 46.1133V67.7835C80.4475 73.4864 75.6006 78.105 69.6276 78.105H51.9825C46.0057 78.105 41.1626 73.4826 41.1626 67.7835V46.4709L80.4513 46.1133H80.4475Z" fill="#FFD4BC"/>
<path d="M68.6245 60.0363C68.6245 61.6228 69.4273 62.9125 70.4164 62.9125C71.4056 62.9125 72.2083 61.6266 72.2083 60.0363C72.2083 58.4461 71.4056 57.1602 70.4164 57.1602C69.4273 57.1602 68.6245 58.4461 68.6245 60.0363Z" fill="#5A2A00"/>
<path d="M49.4019 60.0363C49.4019 61.6228 50.2046 62.9125 51.1938 62.9125C52.1829 62.9125 52.9857 61.6266 52.9857 60.0363C52.9857 58.4461 52.1829 57.1602 51.1938 57.1602C50.2046 57.1602 49.4019 58.4461 49.4019 60.0363Z" fill="#5A2A00"/>
<path d="M60.8063 64.9614C61.9476 64.9614 63.0395 64.7027 64.0134 64.25C64.1314 64.4821 64.1999 64.7256 64.1999 64.9843C64.1999 66.2359 62.6819 67.2479 60.8063 67.2479C58.9307 67.2479 57.4165 66.2359 57.4165 64.9843C57.4165 64.7256 57.485 64.4821 57.6029 64.25C58.5769 64.7065 59.6649 64.9614 60.8101 64.9614H60.8063Z" fill="#FFC0AD"/>
<path d="M67.8511 66.3423C67.8511 67.6625 68.9734 68.7315 70.3544 68.7315C71.7354 68.7315 72.8577 67.6625 72.8577 66.3423C72.8577 65.0222 71.7354 63.9531 70.3544 63.9531C68.9734 63.9531 67.8511 65.0222 67.8511 66.3423Z" fill="#FFC0AD"/>
<path d="M53.7572 66.3423C53.7572 67.6625 52.6348 68.7315 51.2538 68.7315C49.8728 68.7315 48.7505 67.6625 48.7505 66.3423C48.7505 65.0222 49.8728 63.9531 51.2538 63.9531C52.6348 63.9531 53.7572 65.0222 53.7572 66.3423Z" fill="#FFC0AD"/>
<path d="M66.4642 72.2959C66.4642 73.5248 64.9501 74.5215 63.0859 74.5215C61.2217 74.5215 59.7075 73.5248 59.7075 72.2959C59.7075 71.0671 61.2217 70.0703 63.0859 70.0703C64.9501 70.0703 66.4642 71.0671 66.4642 72.2959Z" fill="#B83336"/>
<mask id="mask1_8598_12255" style="mask-type:luminance" maskUnits="userSpaceOnUse" x="59" y="70" width="8" height="5">
<path d="M66.473 72.2764C66.473 73.5052 64.9589 74.502 63.0947 74.502C61.2305 74.502 59.7163 73.5052 59.7163 72.2764C59.7163 71.0476 61.2305 70.0508 63.0947 70.0508C64.9589 70.0508 66.473 71.0476 66.473 72.2764Z" fill="white"/>
</mask>
<g mask="url(#mask1_8598_12255)">
<path d="M60.7266 74.0267C60.7266 72.6837 61.9326 71.5918 63.4201 71.5918C64.9077 71.5918 66.1137 72.6837 66.1137 74.0267C66.1137 75.3696 64.9077 76.4615 63.4201 76.4615C61.9326 76.4615 60.7266 75.3696 60.7266 74.0267Z" fill="#FC8879"/>
</g>
<path d="M63.0916 86.6856C63.0916 87.9829 61.3644 89.0368 60.1774 89.0368C58.9904 89.0368 57.2632 87.9829 57.2632 86.6856C57.2632 85.3883 59.017 84.4258 60.2078 84.4258C61.3986 84.4258 63.0954 85.3845 63.0954 86.6856H63.0916Z" fill="#283F6D"/>
<path d="M62.3922 94.1225C62.1943 89.9909 60.6916 87.1109 60.6916 87.1109L60.1133 86.7305L59.535 87.1109C59.535 87.1109 58.0322 89.9909 57.8344 94.1225C57.6366 98.2542 58.7094 104.402 58.7094 104.402H61.5209C61.5209 104.402 62.59 98.2542 62.396 94.1225H62.3922Z" fill="#283F6D"/>
<path d="M54.784 78.9961L52.1665 81.001C52.1665 81.001 52.7372 85.1783 57.4471 87.8415C57.4471 85.0832 60.2015 84.4175 60.2015 84.4175C60.2015 84.4175 55.1644 82.7054 54.784 78.9961Z" fill="white"/>
<path d="M65.6226 78.9961L68.2401 81.001C68.2401 81.001 67.6694 85.1783 62.9595 87.8415C62.9595 85.0832 60.2051 84.4175 60.2051 84.4175C60.2051 84.4175 65.2422 82.7054 65.6226 78.9961Z" fill="white"/>
<path d="M80.3839 39.9513C76.998 36.2762 73.5207 37.3985 73.5207 37.3985C65.6264 27.3928 52.7407 30.5733 45.0177 36.1545C36.5794 41.5492 35.3848 40.0921 35.3848 40.0921C36.4957 41.553 37.8196 42.7628 39.1246 43.6264C36.6631 51.8098 40.9887 64.0716 40.9887 64.0716H43.0622V50.4022C43.0622 48.8766 44.1084 47.6439 45.4894 47.2901C45.9764 47.1646 51.4244 49.4967 60.1024 49.4967C68.7803 49.4967 73.6158 47.0695 73.6158 47.0695C76.4311 46.4455 79.2046 48.5836 79.2046 51.4598V64.0678H80.5133C82.8416 54.5566 84.2645 44.1705 80.3801 39.9513H80.3839Z" fill="url(#paint0_linear_8598_12255)"/>
<path d="M80.3822 39.957C77.3843 36.7042 74.3141 37.2102 73.6521 37.3661C75.5277 40.5885 74.9342 44.7582 72.3472 47.5773C73.1537 47.2806 73.5722 47.0713 73.5722 47.0713C76.3875 46.4474 79.1343 48.5855 79.1343 51.4617V64.0697H80.5153C82.8437 54.5585 84.2665 44.1723 80.3822 39.9532V39.957Z" fill="url(#paint1_linear_8598_12255)"/>
<path d="M39.0767 43.8086C36.7332 51.9882 40.9904 64.0712 40.9904 64.0712H42.9915V50.4017C42.9915 48.8533 44.1024 47.6093 45.5101 47.2783C43.1703 46.5668 41.0132 45.3684 39.0767 43.8086Z" fill="url(#paint2_linear_8598_12255)"/>
</g>
<path d="M32.1152 44.1112L16.8011 44.9679L23.8315 31.2025L32.1152 44.1112Z" fill="#C5D805"/>
<defs>
<linearGradient id="paint0_linear_8598_12255" x1="42.0806" y1="33.3924" x2="76.6365" y2="67.9484" gradientUnits="userSpaceOnUse">
<stop stop-color="#A95C00"/>
<stop offset="1" stop-color="#5A2A00"/>
</linearGradient>
<linearGradient id="paint1_linear_8598_12255" x1="77.5745" y1="64.0697" x2="77.5745" y2="37.2406" gradientUnits="userSpaceOnUse">
<stop stop-color="#A95C00"/>
<stop offset="1" stop-color="#5A2A00"/>
</linearGradient>
<linearGradient id="paint2_linear_8598_12255" x1="41.9415" y1="64.0712" x2="41.9415" y2="43.8086" gradientUnits="userSpaceOnUse">
<stop stop-color="#A95C00"/>
<stop offset="1" stop-color="#5A2A00"/>
</linearGradient>
</defs>
</svg>
