<svg xmlns="http://www.w3.org/2000/svg" width="26" height="34.133" viewBox="0 0 26 34.133"><defs><style>.a{fill:#f37921;}</style></defs><g transform="translate(-61)"><path class="a" d="M64,34.133H84a3,3,0,0,0,3-3V10H80a3,3,0,0,1-3-3V0H64a3,3,0,0,0-3,3V31.133A3,3,0,0,0,64,34.133Zm4-20.067H80a1,1,0,1,1,0,2H68a1,1,0,1,1,0-2Zm0,4H80a1,1,0,1,1,0,2H68a1,1,0,1,1,0-2Zm0,4H80a1,1,0,1,1,0,2H68a1,1,0,1,1,0-2Zm0,4h8a1,1,0,0,1,0,2H68a1,1,0,1,1,0-2Z" transform="translate(0)"/><path class="a" d="M332,16.2h6.414L331,8.789V15.2A1,1,0,0,0,332,16.2Z" transform="translate(-252 -8.203)"/></g></svg>