<svg xmlns="http://www.w3.org/2000/svg" xmlns:xlink="http://www.w3.org/1999/xlink" width="28" height="34" viewBox="0 0 28 34">
  <defs>
    <clipPath id="clip-path">
      <rect id="Rectangle_2175" data-name="Rectangle 2175" width="28" height="34" transform="translate(0 -0.412)" fill="#347fb4"/>
    </clipPath>
  </defs>
  <g id="Group_2241" data-name="Group 2241" transform="translate(0 0.412)">
    <g id="Group_2240" data-name="Group 2240" clip-path="url(#clip-path)">
      <path id="Path_3973" data-name="Path 3973" d="M43.384,35.439a5.828,5.828,0,0,1-1.171.153l.659,4.741-.835.864-.843-.908.691-4.685a5.823,5.823,0,0,1-1.171-.146l-.726,4.931a.586.586,0,0,0,.158.486l1.464,1.572a.587.587,0,0,0,.849.006l1.464-1.508a.585.585,0,0,0,.164-.489Z" transform="translate(-28.273 -25.061)" fill="#347fb4"/>
      <path id="Path_3974" data-name="Path 3974" d="M15.586,39.428a.586.586,0,0,0,.586-.586V35.717a4.5,4.5,0,0,1,4.489-4.489h1.171a5.88,5.88,0,0,1-1.619-1.148A5.667,5.667,0,0,0,15,35.717v3.125a.586.586,0,0,0,.586.586" transform="translate(-10.607 -21.271)" fill="#347fb4"/>
      <path id="Path_3975" data-name="Path 3975" d="M55.66,31.227h1.171a4.5,4.5,0,0,1,4.492,4.489v3.125a.586.586,0,1,0,1.171,0V35.716a5.667,5.667,0,0,0-5.216-5.637,5.874,5.874,0,0,1-1.619,1.148" transform="translate(-39.36 -21.271)" fill="#347fb4"/>
      <path id="Path_3976" data-name="Path 3976" d="M35.685,9.37A4.685,4.685,0,1,0,31,4.684,4.685,4.685,0,0,0,35.685,9.37m0-8.2a3.514,3.514,0,1,1-3.514,3.514A3.514,3.514,0,0,1,35.685,1.17" transform="translate(-21.922 0.001)" fill="#347fb4"/>
      <path id="Path_3977" data-name="Path 3977" d="M25.035,84.212H22.777a.588.588,0,0,0-.407.167L20.2,86.487a.86.86,0,0,1-1.151.12.587.587,0,0,1-.161-.413.919.919,0,0,1,.293-.644l1.672-1.625a.586.586,0,0,0-.817-.84l-2.463,2.4a.857.857,0,0,1-1.151.12.586.586,0,0,1-.173-.427.916.916,0,0,1,.293-.644l1.9-1.851a.586.586,0,1,0-.817-.84L14.785,84.57a.855.855,0,0,1-1.151.12.586.586,0,0,1-.17-.428.92.92,0,0,1,.293-.644l2.908-2.826a.586.586,0,1,0-.817-.84l-4.135,4.029a.86.86,0,0,1-1.151.12.586.586,0,0,1-.17-.428.914.914,0,0,1,.293-.644L14.832,79a.586.586,0,1,0-.817-.84L9.871,82.192a2.188,2.188,0,0,0-.381.489H6.586a.586.586,0,1,0,0,1.171H9.221a1.735,1.735,0,0,0,.518,1.089,1.817,1.817,0,0,0,1.28.5,2.161,2.161,0,0,0,1.4-.53,1.709,1.709,0,0,0,.4.615,1.819,1.819,0,0,0,1.28.5,2.138,2.138,0,0,0,1.057-.293,1.719,1.719,0,0,0,.428.683,1.819,1.819,0,0,0,1.28.5,2.128,2.128,0,0,0,.908-.211,1.724,1.724,0,0,0,.448.732,1.819,1.819,0,0,0,1.289.512,2.172,2.172,0,0,0,1.505-.621l2-1.944h2.018a.586.586,0,0,0,0-1.171Z" transform="translate(-4.243 -55.153)" fill="#347fb4"/>
      <path id="Path_3978" data-name="Path 3978" d="M15.488,71.271a.468.468,0,0,1-.375-.135l-.029-.026-2.073-1.7a.586.586,0,0,0-.748.9l0,0L14.317,72a1.635,1.635,0,0,0,1.136.439h.1a2.308,2.308,0,0,0,1.575-.829,2.1,2.1,0,0,0-.293-2.861l-2.762-2.592A.584.584,0,0,0,13.69,66H.586a.586.586,0,1,0,0,1.171H13.471L16.062,69.6a.944.944,0,0,1,.187,1.248,1.154,1.154,0,0,1-.761.422" transform="translate(0 -46.672)" fill="#347fb4"/>
      <path id="Path_3979" data-name="Path 3979" d="M65.714,66H54.586a.586.586,0,1,0,0,1.171H65.714a.586.586,0,1,0,0-1.171" transform="translate(-38.186 -46.672)" fill="#347fb4"/>
      <path id="Path_3980" data-name="Path 3980" d="M70.271,80H65.586a.586.586,0,0,0,0,1.171h4.685a.586.586,0,0,0,0-1.171" transform="translate(-45.965 -56.573)" fill="#347fb4"/>
      <path id="Path_3981" data-name="Path 3981" d="M8.857,80.586A.586.586,0,0,0,8.271,80H3.586a.586.586,0,1,0,0,1.171H8.271a.586.586,0,0,0,.586-.586" transform="translate(-2.121 -56.573)" fill="#347fb4"/>
    </g>
  </g>
</svg>
