<svg xmlns="http://www.w3.org/2000/svg" xmlns:xlink="http://www.w3.org/1999/xlink" width="29" height="29" viewBox="0 0 29 29">
  <defs>
    <clipPath id="clip-path">
      <rect id="Rectangle_2174" data-name="Rectangle 2174" width="29" height="29" transform="translate(0 -0.436)" fill="#f58a3d"/>
    </clipPath>
  </defs>
  <g id="Group_2239" data-name="Group 2239" transform="translate(0 0.236)">
    <g id="Group_2238" data-name="Group 2238" transform="translate(0 0.2)" clip-path="url(#clip-path)">
      <path id="Path_3970" data-name="Path 3970" d="M18.442,16.3H15.4a.723.723,0,0,1,0-1.446h3.038a11.165,11.165,0,0,0,2.17-.289,7.052,7.052,0,0,0,1.013-.434,1.031,1.031,0,0,0,.434-.868,2.056,2.056,0,0,0-.289-.868,8.274,8.274,0,0,0-3.761-2.025c-.145,0-.145-.145-.289-.145a2.249,2.249,0,0,1-.868-1.157,1.519,1.519,0,0,1,.723-1.3,5.975,5.975,0,0,0,1.446-3.905,2.683,2.683,0,0,0-1.013-1.736,2.82,2.82,0,0,0-3.327,0,2.683,2.683,0,0,0-1.013,1.736,5.975,5.975,0,0,0,1.446,3.905.723.723,0,0,1-1.157.868,6.233,6.233,0,0,1-1.736-5.063,3.838,3.838,0,0,1,1.591-2.6,4.125,4.125,0,0,1,5.063,0,4.181,4.181,0,0,1,1.591,2.6,7.425,7.425,0,0,1-1.736,5.063c-.145.145-.145.289-.289.289a.142.142,0,0,1,.145.145,8.97,8.97,0,0,1,4.195,2.459,2.75,2.75,0,0,1,.723,1.88,2.531,2.531,0,0,1-1.013,2.025,4.525,4.525,0,0,1-1.446.723c-.868,0-1.736.145-2.6.145" transform="translate(5.425 -0.216)" fill="#f58a3d"/>
      <path id="Path_3971" data-name="Path 3971" d="M8.1,16.345H5.063a7.007,7.007,0,0,1-2.6-.434,4.525,4.525,0,0,1-1.446-.723A2.763,2.763,0,0,1,0,13.163a3.046,3.046,0,0,1,.723-1.88A10.264,10.264,0,0,1,5.063,8.968a.142.142,0,0,0,.145-.145.505.505,0,0,1-.145-.289C3.616,6.8,2.893,4.918,3.182,3.472A3.838,3.838,0,0,1,4.773.868a4.125,4.125,0,0,1,5.063,0,4.181,4.181,0,0,1,1.591,2.6A7.425,7.425,0,0,1,9.691,8.534a.891.891,0,0,1-1.013.145.715.715,0,0,1-.145-1.013A5.484,5.484,0,0,0,9.981,3.761,2.206,2.206,0,0,0,8.968,2.025a2.822,2.822,0,0,0-3.327,0A2.191,2.191,0,0,0,4.629,3.616,5.975,5.975,0,0,0,6.075,7.522c.289.434.723.868.579,1.3,0,.579-.434.868-.868,1.157a.505.505,0,0,1-.289.145,11.931,11.931,0,0,0-3.616,2.17,2.056,2.056,0,0,0-.289.868.875.875,0,0,0,.434.868,7.052,7.052,0,0,0,1.013.434,4.62,4.62,0,0,0,2.025.434H8.1a.723.723,0,1,1,0,1.446" transform="translate(0 -0.26)" fill="#f58a3d"/>
      <path id="Path_3972" data-name="Path 3972" d="M15.94,26.6H10.009a8.753,8.753,0,0,1-3.472-.579A5,5,0,0,1,4.8,25.005a2.679,2.679,0,0,1-1.3-2.459,3.547,3.547,0,0,1,.868-2.314,12.866,12.866,0,0,1,5.641-3.182l.434-.434-.434-.434c-1.88-2.459-2.748-4.629-2.459-6.654A5.409,5.409,0,0,1,9.575,6.2a5.911,5.911,0,0,1,6.509,0,4.837,4.837,0,0,1,2.025,3.327c.289,2.025-.579,4.339-2.314,6.654-.434.434-.434.579-.434.579a2.081,2.081,0,0,1,.434.289,12.866,12.866,0,0,1,5.641,3.182,3.285,3.285,0,0,1,.868,2.314,3.387,3.387,0,0,1-1.157,2.6,5,5,0,0,1-1.736,1.013,14.266,14.266,0,0,1-3.472.434M12.9,6.491a4.876,4.876,0,0,0-2.459.723A3.375,3.375,0,0,0,9,9.673c-.145,1.591.579,3.472,2.025,5.5.434.434.868.868.723,1.591,0,.579-.579,1.013-1.013,1.446a.505.505,0,0,1-.289.145,11.729,11.729,0,0,0-5.207,2.893,3.454,3.454,0,0,0-.289,1.3,1.78,1.78,0,0,0,.723,1.446,3.391,3.391,0,0,0,1.446.723,9.326,9.326,0,0,0,2.893.434H15.94a9.326,9.326,0,0,0,2.893-.434,4.525,4.525,0,0,0,1.446-.723A1.78,1.78,0,0,0,21,22.546a1.571,1.571,0,0,0-.579-1.3c-1.013-1.157-2.748-2.025-5.207-2.893-.145,0-.145-.145-.289-.145-.434-.434-1.013-.868-1.013-1.446a2.514,2.514,0,0,1,.868-1.591,8.387,8.387,0,0,0,2.025-5.5,3.664,3.664,0,0,0-1.446-2.459A4.876,4.876,0,0,0,12.9,6.491" transform="translate(1.563 2.073)" fill="#f58a3d"/>
    </g>
  </g>
</svg>
