<svg id="Group_11088" data-name="Group 11088" xmlns="http://www.w3.org/2000/svg" xmlns:xlink="http://www.w3.org/1999/xlink" width="16.233" height="15.619" viewBox="0 0 16.233 15.619">
  <defs>
    <clipPath id="clip-path">
      <rect id="Rectangle_17733" data-name="Rectangle 17733" width="16.233" height="15.619" fill="#f37921"/>
    </clipPath>
  </defs>
  <g id="Group_11087" data-name="Group 11087" clip-path="url(#clip-path)">
    <path id="Path_6596" data-name="Path 6596" d="M88.4,213.845a.3.3,0,0,1-.215-.089.306.306,0,0,1-.089-.215v-4.978a.3.3,0,0,1,.3-.3h9.1a.3.3,0,0,1,.3.3v4.978a.306.306,0,0,1-.089.215.3.3,0,0,1-.215.089Zm8.8-2.489H94.812v1.881H97.2Zm-2.995,0H91.7v1.881h2.5Zm-3.111,0H88.706v1.881h2.387Zm6.106-2.489H94.812v1.881H97.2Zm-2.995,0H91.7v1.881h2.5Zm-3.111,0H88.706v1.881h2.387Z" transform="translate(-84.836 -200.547)" fill="#f37921"/>
    <path id="Path_6597" data-name="Path 6597" d="M1.963,15.619A1.963,1.963,0,0,1,0,13.656V3.527A1.963,1.963,0,0,1,1.963,1.564H3.026V.3a.3.3,0,0,1,.607,0v1.26H7.813V.3A.3.3,0,0,1,8.42.3v1.26H12.6V.3a.3.3,0,0,1,.607,0v1.26H14.27a1.963,1.963,0,0,1,1.963,1.963V13.656a1.963,1.963,0,0,1-1.963,1.963ZM.608,13.658a1.356,1.356,0,0,0,1.356,1.355H14.27a1.356,1.356,0,0,0,1.356-1.355V5.925H.608ZM1.963,2.173A1.356,1.356,0,0,0,.607,3.529V5.32H15.626V3.527A1.356,1.356,0,0,0,14.27,2.171H13.207v1.26a.3.3,0,0,1-.607,0V2.171H8.42v1.26a.3.3,0,0,1-.607,0V2.171H3.633V3.433a.3.3,0,0,1-.607,0V2.173Z" fill="#f37921"/>
  </g>
</svg>
