<svg xmlns="http://www.w3.org/2000/svg" width="37.458" height="45.225" viewBox="0 0 37.458 45.225"><defs><style>.a{fill:#9aa2aa;}</style></defs><g transform="translate(-48)"><path class="a" d="M81.856,5.763H73.933V4.322A4.322,4.322,0,0,0,69.611,0H63.848a4.322,4.322,0,0,0-4.322,4.322V5.763H51.6a3.6,3.6,0,0,0-3.6,3.6v2.881a1.441,1.441,0,0,0,1.441,1.441H84.018a1.441,1.441,0,0,0,1.441-1.441V9.365A3.6,3.6,0,0,0,81.856,5.763ZM62.407,4.322a1.443,1.443,0,0,1,1.441-1.441h5.763a1.443,1.443,0,0,1,1.441,1.441V5.763H62.407Z"/><path class="a" d="M73.814,184a.45.45,0,0,0-.45.472l1.189,24.946a4.317,4.317,0,0,0,4.317,4.117h21.879a4.317,4.317,0,0,0,4.317-4.117l1.189-24.946a.45.45,0,0,0-.45-.472Zm21.758,3.6a1.441,1.441,0,1,1,2.881,0v18.729a1.441,1.441,0,1,1-2.881,0Zm-7.2,0a1.441,1.441,0,1,1,2.881,0v18.729a1.441,1.441,0,1,1-2.881,0Zm-7.2,0a1.441,1.441,0,1,1,2.881,0v18.729a1.441,1.441,0,1,1-2.881,0Z" transform="translate(-23.08 -168.309)"/></g></svg>