<svg xmlns="http://www.w3.org/2000/svg" width="43.422" height="45.254" viewBox="0 0 43.422 45.254"><defs><style>.a{fill:#f5692b;}</style></defs><g transform="translate(-10.359 0.002)"><g transform="translate(10.359 -0.002)"><path class="a" d="M51.688,23.211a1.326,1.326,0,0,1,0-1.172l1.688-3.453a3.928,3.928,0,0,0-1.7-5.217l-3.395-1.8a1.326,1.326,0,0,1-.689-.948l-.664-3.785A3.929,3.929,0,0,0,42.5,3.61l-3.805.538a1.326,1.326,0,0,1-1.115-.362L34.813,1.114a3.928,3.928,0,0,0-5.485,0L26.565,3.786a1.327,1.327,0,0,1-1.115.362L21.645,3.61a3.928,3.928,0,0,0-4.438,3.224l-.664,3.785a1.326,1.326,0,0,1-.689.948l-3.395,1.8a3.929,3.929,0,0,0-1.7,5.217l1.688,3.453a1.326,1.326,0,0,1,0,1.172l-1.688,3.453a3.928,3.928,0,0,0,1.7,5.217l3.395,1.8a1.326,1.326,0,0,1,.689.948l.664,3.785A3.926,3.926,0,0,0,21.08,41.68a4.036,4.036,0,0,0,.565-.04l3.805-.538a1.326,1.326,0,0,1,1.115.362l2.762,2.672a3.928,3.928,0,0,0,5.485,0l2.762-2.672A1.328,1.328,0,0,1,38.69,41.1l3.805.538a3.928,3.928,0,0,0,4.438-3.224l.664-3.785a1.326,1.326,0,0,1,.689-.948l3.395-1.8a3.929,3.929,0,0,0,1.7-5.217ZM26.85,10.88a4.785,4.785,0,1,1-4.785,4.785A4.791,4.791,0,0,1,26.85,10.88ZM24.38,32.16a1.3,1.3,0,0,1-1.845-1.846L39.76,13.09a1.305,1.305,0,0,1,1.846,1.846Zm12.91,2.21a4.785,4.785,0,1,1,4.785-4.785A4.791,4.791,0,0,1,37.29,34.37Z" transform="translate(-10.359 0.002)"/></g><g transform="translate(35.115 27.41)"><path class="a" d="M292.627,310.141a2.175,2.175,0,1,0,2.175,2.175A2.178,2.178,0,0,0,292.627,310.141Z" transform="translate(-290.452 -310.141)"/></g><g transform="translate(24.675 13.49)"><path class="a" d="M174.508,152.646a2.175,2.175,0,1,0,2.175,2.175A2.177,2.177,0,0,0,174.508,152.646Z" transform="translate(-172.333 -152.646)"/></g></g></svg>