<svg xmlns="http://www.w3.org/2000/svg" width="11.04" height="12.989" viewBox="0 0 11.04 12.989"><defs><style>.a{fill:#2d197f;}</style></defs><g transform="translate(51.04 -97.011)"><path class="a" d="M15.254,4H7.786A1.787,1.787,0,0,0,6,5.786V15.2a1.787,1.787,0,0,0,1.786,1.786h7.468A1.787,1.787,0,0,0,17.04,15.2V5.786A1.787,1.787,0,0,0,15.254,4ZM14.6,15.04H8.435a.487.487,0,1,1,0-.974H14.6a.487.487,0,0,1,0,.974Zm0-2.6H8.435a.487.487,0,1,1,0-.974H14.6a.487.487,0,0,1,0,.974Zm0-2.273H8.435a.487.487,0,1,1,0-.974H14.6a.487.487,0,0,1,0,.974Zm0-2.6H8.435a.487.487,0,1,1,0-.974H14.6a.487.487,0,0,1,0,.974Z" transform="translate(-57.04 93.011)"/></g></svg>