<svg xmlns="http://www.w3.org/2000/svg" width="20" height="19.635" viewBox="0 0 20 19.635"><defs><style>.a{fill:#f37921;}</style></defs><path class="a" d="M19.627,2.731h-6.7v1.24H14.9V5.933H12.927v.625H14.9V8.522H12.927v.643H14.9v1.857H12.927v.744H14.9v1.862H12.927v.744H14.9v1.872H12.927V17.61h6.7c.106-.032.194-.157.265-.373a1.827,1.827,0,0,0,.108-.53V2.958c0-.107-.037-.171-.108-.193A.917.917,0,0,0,19.627,2.731Zm-.869,13.512H15.544V14.372h3.214v1.871Zm0-2.615H15.544V11.765h3.214Zm0-2.607H15.544V9.172h3.214v1.849Zm0-2.5H15.544V6.559h3.214V8.522h0Zm0-2.6H15.544V3.972h3.214v1.95ZM0,2.422v15.5l11.8,2.041V.329L0,2.429ZM6.994,14.148q-.068-.183-.632-1.553c-.374-.913-.6-1.445-.666-1.6H5.676L4.41,14.011,2.718,13.9l2.007-3.75L2.888,6.4l1.725-.091L5.753,9.24h.023L7.062,6.173,8.845,6.06,6.723,10.119l2.187,4.14-1.916-.112Z" transform="translate(0 -0.328)"/></svg>