<svg width="10" height="14" viewBox="0 0 10 14" fill="none" xmlns="http://www.w3.org/2000/svg">
<path fill-rule="evenodd" clip-rule="evenodd" d="M4.42667 10.0473L1.07443 6.7334C0.303773 5.95989 1.45989 4.79959 2.2307 5.57311L3.67044 7.01798C3.91168 7.26008 4.10513 7.17895 4.10513 6.83912V0.82044C4.10513 0.367143 4.47129 0 4.92271 0C5.37443 0 5.7403 0.367143 5.7403 0.82044V6.83912C5.7403 7.17781 5.93504 7.25894 6.17513 7.01798L7.61502 5.57311C8.38583 4.79959 9.54195 5.95989 8.77129 6.7334L5.44667 10.0453C5.16593 10.325 4.70876 10.3263 4.4266 10.0473L4.42667 10.0473ZM9.02557 12.359C9.47872 12.359 9.84601 12.7263 9.84601 13.1794C9.84601 13.6326 9.47872 14 9.02557 14H0.82044C0.367289 14 0 13.6326 0 13.1794C0 12.7263 0.367289 12.359 0.82044 12.359H9.02557Z" fill="#2680EB"/>
</svg>
