<svg width="19" height="23" viewBox="0 0 19 23" fill="none" xmlns="http://www.w3.org/2000/svg">
<path d="M18.9635 5.97865C18.927 5.97865 18.927 5.97865 18.9635 5.97865C18.927 5.94206 18.927 5.90521 18.927 5.86863C18.927 5.86863 18.927 5.83204 18.8904 5.83204L18.8538 5.79545L12.9112 0.146608C12.8746 0.11002 12.8012 0.0731761 12.7646 0.0365878C12.6911 2.45958e-07 12.6545 0 12.5811 0H0.550094C0.256622 0 0 0.256884 0 0.550094V22.0812C0 22.3747 0.256884 22.6313 0.550094 22.6313H18.4499C18.7434 22.6313 19 22.3744 19 22.0812V6.19881C19 6.12537 18.9634 6.05194 18.9634 5.97851L18.9635 5.97865ZM13.0946 1.83401L17.0927 5.64859H13.0946V1.83401ZM1.10028 21.5678V1.10041H11.9575L11.9573 6.19892C11.9573 6.49239 12.2142 6.74902 12.5074 6.74902H17.8628V21.5677L1.10028 21.5678Z" fill="#2680EB"/>
<path d="M3.33916 6.27432H6.31017C6.60364 6.27432 6.86026 6.01744 6.86026 5.72423V2.75322C6.86026 2.45975 6.60338 2.20312 6.31017 2.20312H3.33916C3.04568 2.20312 2.78906 2.46001 2.78906 2.75322V5.72423C2.78881 6.0177 3.04569 6.27432 3.33916 6.27432ZM3.88925 3.30331H5.75986V5.17393H3.88925V3.30331Z" fill="#2680EB"/>
<path d="M15.0401 8.25H3.33916C3.04568 8.25 2.78906 8.50688 2.78906 8.80009C2.78906 9.09357 3.04595 9.35019 3.33916 9.35019H15.0401C15.3335 9.35019 15.5902 9.0933 15.5902 8.80009C15.5902 8.50662 15.3701 8.25 15.0398 8.25H15.0401Z" fill="#2680EB"/>
<path d="M15.0401 10.4922H3.33916C3.04568 10.4922 2.78906 10.7491 2.78906 11.0423C2.78906 11.3358 3.04595 11.5924 3.33916 11.5924H15.0401C15.3335 11.5924 15.5902 11.3355 15.5902 11.0423C15.5902 10.7488 15.3701 10.4922 15.0398 10.4922H15.0401Z" fill="#2680EB"/>
<path d="M15.0401 12.7656H3.33916C3.04568 12.7656 2.78906 13.0225 2.78906 13.3157C2.78906 13.6092 3.04595 13.8658 3.33916 13.8658H15.0401C15.3335 13.8658 15.5902 13.6089 15.5902 13.3157C15.5902 13.0225 15.3701 12.7656 15.0398 12.7656H15.0401Z" fill="#2680EB"/>
<path d="M15.0401 15H3.33916C3.04568 15 2.78906 15.2569 2.78906 15.5501C2.78906 15.8436 3.04595 16.1002 3.33916 16.1002H15.0401C15.3335 16.1002 15.5902 15.8433 15.5902 15.5501C15.5902 15.2569 15.3701 15 15.0398 15H15.0401Z" fill="#2680EB"/>
<path d="M15.0401 17.2422H3.33916C3.04568 17.2422 2.78906 17.4991 2.78906 17.7923C2.78906 18.0858 3.04595 18.3424 3.33916 18.3424H15.0401C15.3335 18.3424 15.5902 18.0855 15.5902 17.7923C15.5902 17.4988 15.3701 17.2422 15.0398 17.2422H15.0401Z" fill="#2680EB"/>
</svg>
