<svg width="16" height="16" viewBox="0 0 16 16" fill="none" xmlns="http://www.w3.org/2000/svg">
<g clip-path="url(#clip0_5760_9309)">
<path d="M14.3808 5.20011C14.3963 5.23423 14.4117 5.26792 14.4255 5.30162C15.636 8.06509 14.927 11.1748 12.8661 13.1835C12.5068 13.5343 12.1059 13.8511 11.6659 14.1269C11.3629 14.3182 11.0415 14.4888 10.702 14.6374C10.106 14.8986 9.49406 15.0751 8.87828 15.1711C7.09581 15.4524 5.291 15.0654 3.80676 14.1383C3.093 13.6935 2.45401 13.1237 1.92674 12.443C1.595 12.0159 1.30752 11.5437 1.07419 11.0324C0.890267 10.6289 0.747171 10.2174 0.644039 9.80294C0.132676 7.75045 0.590325 5.61709 1.80127 3.95758C2.37279 3.17289 3.11233 2.49392 3.99755 1.97922C4.23819 1.83812 4.49001 1.71008 4.75213 1.59551C5.28756 1.3609 5.83631 1.19453 6.3885 1.09387C8.16752 0.765754 9.98093 1.10903 11.4858 1.99649C12.3341 2.49477 13.0831 3.16489 13.6739 3.98454C13.9455 4.3594 14.1827 4.76501 14.3808 5.20011Z" fill="#FFD234"/>
<path d="M13.3028 5.66776C14.0054 7.20766 13.9895 8.88486 13.3956 10.3363C12.8275 11.7275 11.7279 12.9119 10.2221 13.5724C7.14493 14.921 3.53445 13.5686 2.15849 10.5524C1.48513 9.07608 1.47095 7.4747 1.99348 6.06622C2.53879 4.59666 3.66766 3.33644 5.2387 2.64779C8.31634 1.29869 11.9268 2.65073 13.3032 5.66734L13.3028 5.66776Z" fill="#F0961E"/>
<path d="M13.2314 5.85777C13.9048 7.33407 13.919 8.93546 13.3956 10.3435C12.8275 11.7347 11.7279 12.9191 10.2221 13.5796C7.14493 14.9282 3.53445 13.5758 2.15849 10.5596C1.48513 9.08329 1.47095 7.48191 1.99348 6.07343C2.56243 4.68221 3.66207 3.49781 5.16737 2.83822C8.24501 1.48912 11.8555 2.84116 13.2319 5.85777H13.2314Z" fill="#FFB001"/>
<path d="M6.52454 4.96239L8.05347 6.20408C8.13297 6.26852 8.23954 6.29042 8.33838 6.26305L10.2485 5.73234C10.4981 5.66284 10.7203 5.90419 10.6249 6.1409L9.89266 7.94994C9.85485 8.04386 9.86645 8.15001 9.9236 8.23382L11.0288 9.85038C11.1732 10.0618 11.0078 10.3436 10.7491 10.3276L8.76766 10.2042C8.66496 10.1979 8.56527 10.2412 8.50167 10.3209L7.2744 11.8506C7.11411 12.0507 6.78925 11.9833 6.72522 11.7369L6.23276 9.85164C6.20741 9.75392 6.13436 9.67474 6.03767 9.63978L4.17399 8.96839C3.93034 8.88078 3.8951 8.5573 4.11426 8.42126L5.79144 7.37964C5.87868 7.32573 5.93282 7.23306 5.93669 7.13197L6.01189 5.18731C6.02177 4.93333 6.32472 4.80023 6.52454 4.96281V4.96239Z" fill="#F0961E"/>
<path d="M6.44641 4.88134L7.97535 6.12302C8.05485 6.18747 8.16141 6.20937 8.26025 6.18199L10.1703 5.65128C10.42 5.58179 10.6422 5.82313 10.5468 6.05985L9.81454 7.86888C9.77672 7.96281 9.78789 8.06895 9.84548 8.15277L10.9507 9.76932C11.0951 9.98076 10.9297 10.2625 10.671 10.2465L8.68954 10.1231C8.58683 10.1168 8.48714 10.1602 8.42354 10.2398L7.19627 11.7696C7.03599 11.9697 6.71112 11.9023 6.64709 11.6559L6.15464 9.77059C6.12928 9.67287 6.05623 9.59368 5.95955 9.55872L4.09586 8.88734C3.85221 8.79973 3.81698 8.47625 4.03613 8.3402L5.71332 7.29858C5.80055 7.24467 5.85469 7.15201 5.85856 7.05092L5.93376 5.10626C5.94365 4.85228 6.2466 4.71918 6.44641 4.88176V4.88134Z" fill="#FFD234"/>
<g opacity="0.2">
<path d="M11.4911 2.0004L8.88402 15.175C7.10155 15.4564 5.29674 15.0693 3.8125 14.1422L6.39381 1.09777C8.17284 0.769661 9.98624 1.11294 11.4911 2.0004Z" fill="white"/>
<path d="M14.3868 5.20385C14.4023 5.23797 14.4178 5.27167 14.4315 5.30536L12.8721 13.1872C12.5128 13.5381 12.1119 13.8548 11.6719 14.1307L13.6795 3.98828C13.9511 4.36315 14.1883 4.76876 14.3864 5.20385H14.3868Z" fill="white"/>
<path d="M4.00195 1.98438L1.93114 12.4482C1.5994 12.0211 1.31192 11.5489 1.07858 11.0376C0.894665 10.6341 0.75157 10.2226 0.648438 9.80809L1.80567 3.96273C2.37719 3.17805 3.11673 2.49908 4.00195 1.98438Z" fill="white"/>
</g>
</g>
<defs>
<clipPath id="clip0_5760_9309">
<rect width="14.5794" height="14.2895" fill="white" transform="translate(0.441406 0.97168)"/>
</clipPath>
</defs>
</svg>
