<svg xmlns="http://www.w3.org/2000/svg" width="36.193" height="40.612" viewBox="0 0 36.193 40.612">
  <g id="Group_3234" data-name="Group 3234" transform="translate(-391.439 -158.577)">
    <path id="Path_3905" data-name="Path 3905" d="M401.393,217.311a.843.843,0,0,0-.189,0,1.869,1.869,0,0,1-1.391-.284,1.647,1.647,0,0,1-.837-1.418.884.884,0,0,1,0-.189.328.328,0,0,0-.23-.378,1.645,1.645,0,0,1-.986-1.283,2.443,2.443,0,0,1,.324-1.621c.054-.095.108-.176.162-.27a10.4,10.4,0,0,0-2.067-.824l-.162.365c-.122.27-.257.338-.54.23-1.243-.473-2.486-.946-3.715-1.418-.324-.122-.392-.27-.257-.608.27-.716.54-1.432.824-2.148,1.175-3.08,2.35-6.146,3.526-9.226.216-.554.284-.581.837-.365,1.108.432,2.215.851,3.323,1.283a1.8,1.8,0,0,1,.243.095.357.357,0,0,1,.23.5c-.054.189-.149.378-.216.581-.027.054-.027.122-.054.2a.283.283,0,0,0,.081.054,16.125,16.125,0,0,0,2.823.946,6.66,6.66,0,0,0,2.256.095,4.039,4.039,0,0,0,.432-.108c1.04-.338,2.08-.675,3.107-1.027a3.616,3.616,0,0,1,2.472,0c1.094.392,2.2.783,3.3,1.189a3.545,3.545,0,0,0,1.9.216c.189-.041.365-.095.567-.149V201.6c-.027-.284.014-.378.27-.473.365-.149.743-.284,1.121-.432.095-.041.189-.081.324-.135-.081-.243-.162-.459-.243-.675-.135-.378-.081-.5.3-.635,1.2-.459,2.4-.919,3.593-1.378.392-.149.5-.095.662.311.594,1.54,1.175,3.08,1.77,4.633l2.513,6.565c.027.068.054.135.081.216.162.446.122.567-.324.729-1.135.432-2.256.865-3.391,1.3a2.145,2.145,0,0,1-.27.095.344.344,0,0,1-.473-.2l-.081-.2-.095-.189a1.219,1.219,0,0,0-.216.041c-.324.122-.648.23-.973.365a.569.569,0,0,0-.257.216,3.968,3.968,0,0,1-1.4,1.58.1.1,0,0,0-.027.054,8.19,8.19,0,0,1,.635.756,1.5,1.5,0,0,1,.2.973,1.964,1.964,0,0,1-.311.946,2.02,2.02,0,0,1-2.445.865,2.261,2.261,0,0,0-.068.243,2.05,2.05,0,0,1-2.432,1.77.843.843,0,0,1-.162-.014c-.027.135-.054.257-.081.378a2.043,2.043,0,0,1-1.662,1.621,1.609,1.609,0,0,1-1.324-.3c-.176-.122-.338-.27-.513-.405a1.883,1.883,0,0,0-.27-.176c-.041.149-.068.257-.095.378a2.109,2.109,0,0,1-2.188,1.594,1.8,1.8,0,0,1-.851-.378l-.946-.743c-.095-.068-.189-.135-.311-.23a1.829,1.829,0,0,1-1.932.405,1.791,1.791,0,0,1-1.256-1.54,2.047,2.047,0,0,1-2.026-.3A2.016,2.016,0,0,1,401.393,217.311Zm6.241,2.769c.419.338.838.662,1.256.986a.974.974,0,0,0,1.31.041,2.089,2.089,0,0,0,.365-.324,1.178,1.178,0,0,0-.149-1.77c-.594-.446-1.175-.932-1.756-1.391a1.555,1.555,0,0,1-.23-.189.348.348,0,0,1-.054-.486.337.337,0,0,1,.473-.041c.149.108.284.23.432.338,1.135.905,2.256,1.81,3.391,2.715a1.089,1.089,0,0,0,1.432.027,1.509,1.509,0,0,0,.513-.648,1.026,1.026,0,0,0-.338-1.324c-1.2-.986-2.418-1.959-3.62-2.945a1.472,1.472,0,0,1-.257-.243.306.306,0,0,1,0-.392.319.319,0,0,1,.405-.108,2.541,2.541,0,0,1,.243.162c.756.594,1.5,1.2,2.256,1.8.7.567,1.391,1.135,2.08,1.716a.97.97,0,0,0,.946.2,1.454,1.454,0,0,0,1.04-1.094,1.091,1.091,0,0,0-.5-1.2c-.027-.014-.054-.041-.081-.054-1.364-1.108-2.729-2.215-4.107-3.337a1.474,1.474,0,0,1-.257-.243.292.292,0,0,1,.027-.392.3.3,0,0,1,.378-.095,2.538,2.538,0,0,1,.243.162c.729.581,1.472,1.175,2.2,1.77l2.877,2.31a1.12,1.12,0,0,0,.648.27,1.4,1.4,0,0,0,1.3-.905,1.105,1.105,0,0,0-.365-1.378c-.621-.486-1.229-.986-1.837-1.486-1.864-1.5-3.728-2.985-5.579-4.485-1.081-.878-2.161-1.756-3.229-2.661a.566.566,0,0,0-.608-.135c-.513.176-1.027.324-1.553.459a.612.612,0,0,0-.446.365,3.805,3.805,0,0,1-.851,1.216,2.843,2.843,0,0,1-2.7.7.931.931,0,0,1-.729-.919,1.466,1.466,0,0,1,.162-.716c.527-1.121,1.04-2.256,1.553-3.391.095-.2.2-.392.311-.581-.811-.149-1.594-.3-2.4-.459q-1.743,4.539-3.485,9.118c.27.135.513.257.743.378a3.993,3.993,0,0,1,1.8,1.675.4.4,0,0,0,.338.2,1.823,1.823,0,0,1,1.608,1.945v.365c.135-.014.243-.014.351-.027a1.83,1.83,0,0,1,2.013,1.364,1.44,1.44,0,0,0,.095.257C407.039,216.636,408.444,218.257,407.634,220.08Zm9.821-17.683a.692.692,0,0,1-.135.014,4.327,4.327,0,0,1-2.972-.149c-1.054-.405-2.134-.77-3.2-1.148a2.8,2.8,0,0,0-1.932.014c-1.189.405-2.377.783-3.566,1.175a1.866,1.866,0,0,0-1.189,1.067c-.486,1.094-1,2.175-1.5,3.269-.027.054-.054.122-.081.176-.108.338-.014.527.338.581a2.226,2.226,0,0,0,2.053-.716,3.314,3.314,0,0,0,.662-1.108.63.63,0,0,1,.432-.392c.743-.2,1.472-.419,2.2-.648a.607.607,0,0,1,.648.135c1.324,1.081,2.675,2.161,4,3.242a3.974,3.974,0,0,0,1.337.7,3.006,3.006,0,0,0,2.756-.473c.176-.122.324-.284.486-.419a.371.371,0,0,1,.527-.04.326.326,0,0,1-.041.513,3.782,3.782,0,0,1-2.31,1.2c-.243.027-.486.041-.8.068.122.108.189.189.27.257l3.607,2.918c.284.23.311.23.635.041a2.845,2.845,0,0,0,1.013-1.067.611.611,0,0,0,.054-.608c-1.067-2.769-2.121-5.539-3.188-8.321A1.082,1.082,0,0,0,417.454,202.4Zm-20.979-3.863c-1.432,3.728-2.837,7.416-4.269,11.145,1.108.419,2.161.824,3.215,1.229.176-.243,4.228-10.807,4.269-11.145C398.651,199.372,397.583,198.966,396.476,198.534Zm30.354,11.172c-.081-.446-4.12-10.928-4.282-11.145-1.054.392-2.121.8-3.161,1.216.068.405,4.107,10.915,4.282,11.131C424.708,210.516,425.762,210.111,426.829,209.706Zm-8.862-8.065c.04.351,3.35,8.97,3.526,9.186.365-.149.743-.284,1.148-.446-1.175-3.08-2.337-6.119-3.512-9.186C418.711,201.357,418.332,201.493,417.968,201.641ZM400,201.209c-.176.243-3.485,8.875-3.512,9.2.365.135.743.284,1.162.446.311-.8.594-1.567.892-2.323s.581-1.513.865-2.269.594-1.526.878-2.3.608-1.513.865-2.31C400.731,201.493,400.366,201.357,400,201.209Zm5.876,16.575a1.046,1.046,0,0,0-.581.27,1.667,1.667,0,0,0-.567,1.324,1.082,1.082,0,0,0,.824,1.013,1.061,1.061,0,0,0,1.229-.324,1.836,1.836,0,0,0,.419-.932A1.233,1.233,0,0,0,405.878,217.784Zm-3.782-2.4a1.224,1.224,0,0,0-.824-1.337,1.159,1.159,0,0,0-1.351.513,1.7,1.7,0,0,0-.284,1.013,1.05,1.05,0,0,0,.689.973,1.061,1.061,0,0,0,1.243-.149A1.493,1.493,0,0,0,402.1,215.379Zm2.4,2.094a1.141,1.141,0,0,0-.8-1.135,1.152,1.152,0,0,0-1.351.5,1.684,1.684,0,0,0-.3.973,1.078,1.078,0,0,0,.784,1.067,1.048,1.048,0,0,0,1.256-.311A1.631,1.631,0,0,0,404.5,217.473Zm-4.323-4.026v-.108a1.2,1.2,0,0,0-.081-.135,3.225,3.225,0,0,0-.959-.905c-.162-.108-.23-.095-.351.068a1.571,1.571,0,0,0-.338,1.364.955.955,0,0,0,.729.743A2.368,2.368,0,0,1,400.177,213.448Z" transform="translate(0 -33.878)" fill="#242156"/>
    <path id="Path_3906" data-name="Path 3906" d="M503.125,390.971v-.594h6.025v.594H508c-.365,0-.729-.013-1.121.014.054.081.068.122.095.135a1.805,1.805,0,0,1,.635,1,.264.264,0,0,0,.3.216h.878c.122,0,.23.013.365.013v.513a1.487,1.487,0,0,1-.689.068c-.23.014-.473.014-.7.027a.35.35,0,0,0-.054.135,2.479,2.479,0,0,1-1.31,1.8,13.98,13.98,0,0,1-1.351.621c.311.446.675.878,1.013,1.337s.716.919,1.067,1.391c.351.446.689.905,1.067,1.391a2.112,2.112,0,0,1-.635.041c-.635,0-.486.068-.851-.419l-3.12-4.053c-.068-.081-.122-.176-.216-.3.135-.013.216-.04.311-.04a4.152,4.152,0,0,0,1.216-.189,1.826,1.826,0,0,0,1.229-1.2,2.557,2.557,0,0,0,.081-.513c-.162-.013-.284-.027-.419-.027h-2.242c-.122,0-.257-.014-.405-.027v-.554c.135-.013.257-.027.378-.027h2.2c.122,0,.257-.013.432-.027a1.483,1.483,0,0,0-.77-1.027,2.471,2.471,0,0,0-1.27-.324A7.942,7.942,0,0,1,503.125,390.971Z" transform="translate(-96.599 -200.487)" fill="#fff"/>
    <path id="Path_3907" data-name="Path 3907" d="M514.046,203.477a5.176,5.176,0,0,1,2.229.527,1.258,1.258,0,0,1,.257.149.307.307,0,0,1,.122.419.321.321,0,0,1-.405.162.723.723,0,0,1-.149-.068,4.836,4.836,0,0,0-3.917-.2,1.013,1.013,0,0,1-.216.068.315.315,0,0,1-.405-.189.332.332,0,0,1,.176-.432,1.378,1.378,0,0,1,.3-.122A6.692,6.692,0,0,1,514.046,203.477Z" transform="translate(-103.872 -38.835)" fill="#fff"/>
    <path id="Path_3908" data-name="Path 3908" d="M430.465,365.241a1.411,1.411,0,0,1-.3-.216.284.284,0,0,1,0-.338.772.772,0,0,1,.176-.189l2.378-2.378a1.62,1.62,0,0,1,.162-.149.326.326,0,0,1,.419.027.331.331,0,0,1,.041.446.576.576,0,0,1-.149.162c-.8.8-1.581,1.594-2.378,2.378A2.632,2.632,0,0,1,430.465,365.241Z" transform="translate(-33.449 -175.865)" fill="#fff"/>
    <path id="Path_3909" data-name="Path 3909" d="M598.644,364.8c0,.351-.257.5-.5.351a1.083,1.083,0,0,1-.189-.162l-2.351-2.35a1.625,1.625,0,0,1-.149-.162.337.337,0,0,1,.473-.473.845.845,0,0,1,.162.149l2.35,2.35C598.522,364.615,598.59,364.75,598.644,364.8Z" transform="translate(-176.394 -175.887)" fill="#fff"/>
    <path id="Path_3910" data-name="Path 3910" d="M523.173,160.806v1.621a1.9,1.9,0,0,1-.014.284.257.257,0,0,1-.284.216.291.291,0,0,1-.324-.2.832.832,0,0,1-.027-.257v-3.4a.833.833,0,0,1,.027-.257.305.305,0,0,1,.311-.23.272.272,0,0,1,.3.243,2.085,2.085,0,0,1,.014.3Z" transform="translate(-113.378)" fill="#fff"/>
    <path id="Path_3911" data-name="Path 3911" d="M411.313,329.55a.323.323,0,0,1-.324-.189.3.3,0,0,1,.068-.378.776.776,0,0,1,.257-.135c.621-.257,1.256-.513,1.891-.77a.935.935,0,0,1,.176-.068.348.348,0,0,1,.405.189.328.328,0,0,1-.149.419,1.02,1.02,0,0,1-.176.081c-.635.257-1.283.527-1.918.783A1.479,1.479,0,0,1,411.313,329.55Z" transform="translate(-16.878 -146.536)" fill="#fff"/>
    <path id="Path_3912" data-name="Path 3912" d="M475.125,386.311a1.238,1.238,0,0,1,.041-.135l.892-2.107a.437.437,0,0,1,.162-.189.286.286,0,0,1,.365.041.789.789,0,0,1,.122.311c.014.068-.041.149-.068.216-.257.621-.527,1.256-.8,1.878a.75.75,0,0,1-.122.23.315.315,0,0,1-.378.108A.362.362,0,0,1,475.125,386.311Z" transform="translate(-72.381 -194.827)" fill="#fff"/>
    <path id="Path_3913" data-name="Path 3913" d="M562.456,386.488c0,.2-.068.311-.216.365a.321.321,0,0,1-.378-.122,1.237,1.237,0,0,1-.122-.23c-.257-.608-.5-1.216-.743-1.824a1.17,1.17,0,0,1-.081-.311.3.3,0,0,1,.216-.324.321.321,0,0,1,.378.122.963.963,0,0,1,.108.2c.257.635.527,1.283.784,1.918A1.38,1.38,0,0,0,562.456,386.488Z" transform="translate(-146.582 -194.991)" fill="#fff"/>
    <path id="Path_3914" data-name="Path 3914" d="M618.479,330.5c-.027-.014-.108-.027-.176-.054-.662-.284-1.324-.554-2-.838-.149-.068-.27-.135-.284-.324a.322.322,0,0,1,.392-.351,1.331,1.331,0,0,1,.216.068c.635.27,1.27.527,1.9.8a.74.74,0,0,1,.2.108.315.315,0,0,1,.108.378A.309.309,0,0,1,618.479,330.5Z" transform="translate(-194.243 -147.342)" fill="#fff"/>
    <path id="Path_3915" data-name="Path 3915" d="M562.27,181.514a.31.31,0,0,1-.351-.338.9.9,0,0,1,.081-.27c.23-.567.473-1.135.716-1.7.027-.054.054-.122.081-.176a.332.332,0,0,1,.419-.135.321.321,0,0,1,.175.405l-.04.122c-.257.608-.513,1.216-.756,1.81C562.54,181.392,562.459,181.527,562.27,181.514Z" transform="translate(-147.45 -17.547)" fill="#fff"/>
    <path id="Path_3916" data-name="Path 3916" d="M477.884,179.37c.162,0,.243.135.311.3.2.473.392.959.581,1.432.054.122.108.243.149.365a.791.791,0,0,1,.054.257.269.269,0,0,1-.2.3.286.286,0,0,1-.351-.081,1.542,1.542,0,0,1-.135-.257c-.23-.554-.459-1.121-.689-1.675a1.169,1.169,0,0,1-.081-.311C477.506,179.479,477.655,179.357,477.884,179.37Z" transform="translate(-74.452 -17.984)" fill="#fff"/>
    <path id="Path_3917" data-name="Path 3917" d="M451.386,247.178a1.957,1.957,0,0,0-2.418-2.823c-.027-.081-.068-.176-.095-.257a1.818,1.818,0,0,0-2.013-1.364c-.108.013-.216.013-.351.027V242.4a1.823,1.823,0,0,0-1.608-1.945.43.43,0,0,1-.338-.2,4.067,4.067,0,0,0-1.8-1.675c-.243-.122-.473-.243-.743-.378,1.175-3.066,2.337-6.092,3.485-9.118.824.149,1.608.311,2.4.459-.108.2-.216.392-.311.581-.527,1.121-1.04,2.256-1.553,3.391a1.465,1.465,0,0,0-.162.716.9.9,0,0,0,.729.919,2.843,2.843,0,0,0,2.7-.7,3.806,3.806,0,0,0,.851-1.216.612.612,0,0,1,.446-.365c.527-.135,1.04-.284,1.554-.459a.566.566,0,0,1,.608.135c1.067.892,2.148,1.783,3.229,2.661,1.851,1.5,3.728,2.985,5.579,4.485.621.5,1.216,1,1.837,1.486a1.105,1.105,0,0,1,.365,1.378,1.4,1.4,0,0,1-1.3.905,1.158,1.158,0,0,1-.648-.27l-2.877-2.31c-.729-.594-1.472-1.175-2.2-1.77a1.522,1.522,0,0,0-.243-.162.3.3,0,0,0-.378.095.291.291,0,0,0-.027.392,1.1,1.1,0,0,0,.257.243c1.364,1.108,2.729,2.215,4.107,3.337a.282.282,0,0,0,.081.054,1.073,1.073,0,0,1,.5,1.2,1.413,1.413,0,0,1-1.04,1.094,1.011,1.011,0,0,1-.946-.2c-.689-.567-1.378-1.148-2.08-1.716-.743-.608-1.5-1.2-2.256-1.8a1.524,1.524,0,0,0-.243-.162.319.319,0,0,0-.405.108.306.306,0,0,0,0,.392c.081.095.176.162.257.243,1.2.986,2.418,1.959,3.62,2.945a1.022,1.022,0,0,1,.338,1.324,1.434,1.434,0,0,1-.513.648,1.089,1.089,0,0,1-1.432-.027c-1.135-.905-2.256-1.81-3.391-2.715-.149-.108-.284-.243-.432-.338a.337.337,0,1,0-.419.527c.068.068.149.122.23.189.581.459,1.148.946,1.756,1.391a1.178,1.178,0,0,1,.149,1.77,2.089,2.089,0,0,1-.365.324.975.975,0,0,1-1.31-.041A8.861,8.861,0,0,0,451.386,247.178Z" transform="translate(-43.753 -60.976)" fill="#f37124"/>
    <path id="Path_3918" data-name="Path 3918" d="M490.566,223.018c.054.108.095.2.135.3,1.067,2.769,2.121,5.552,3.188,8.321a.646.646,0,0,1-.054.608,2.953,2.953,0,0,1-1.013,1.067c-.324.176-.351.176-.635-.041l-3.607-2.918c-.081-.068-.149-.135-.27-.257.311-.027.554-.041.8-.068a3.929,3.929,0,0,0,2.31-1.2c.176-.189.189-.365.04-.513a.371.371,0,0,0-.527.041c-.162.135-.324.3-.486.419a2.938,2.938,0,0,1-2.756.473,3.974,3.974,0,0,1-1.337-.7c-1.324-1.081-2.675-2.161-4-3.242a.612.612,0,0,0-.648-.135c-.729.23-1.472.446-2.2.648a.63.63,0,0,0-.432.392,3.831,3.831,0,0,1-.662,1.108,2.215,2.215,0,0,1-2.053.716c-.351-.054-.459-.23-.338-.581.027-.068.054-.122.081-.176.5-1.094,1.013-2.175,1.5-3.269a1.866,1.866,0,0,1,1.189-1.067l3.566-1.175a2.874,2.874,0,0,1,1.932-.013c1.067.378,2.134.743,3.2,1.148a4.335,4.335,0,0,0,2.972.149C490.458,223.018,490.485,223.018,490.566,223.018Z" transform="translate(-73.112 -54.498)" fill="#fff"/>
    <path id="Path_3919" data-name="Path 3919" d="M401.394,203.577c1.108.419,2.161.824,3.215,1.229-.04.338-4.093,10.9-4.269,11.145-1.054-.405-2.107-.811-3.215-1.229C398.557,210.993,399.962,207.305,401.394,203.577Zm-1.932,10.483c.041-.027.176-.041.2-.108a3.443,3.443,0,0,0,.243-.716c.04-.149-.095-.257-.243-.3a.281.281,0,0,0-.351.149,2.473,2.473,0,0,0-.2.608C399.057,213.911,399.205,214.046,399.462,214.06Z" transform="translate(-4.918 -38.921)" fill="#f37124"/>
    <path id="Path_3920" data-name="Path 3920" d="M605.768,215.008q-1.6.608-3.161,1.216c-.176-.216-4.215-10.726-4.282-11.131,1.04-.419,2.107-.824,3.161-1.216C601.648,204.08,605.674,214.562,605.768,215.008Zm-1.918-1.054a6.642,6.642,0,0,0-.243-.621.3.3,0,0,0-.365-.149.289.289,0,0,0-.23.338,2.71,2.71,0,0,0,.216.635.317.317,0,0,0,.392.135A.342.342,0,0,0,603.85,213.954Z" transform="translate(-178.939 -39.181)" fill="#fff"/>
    <path id="Path_3921" data-name="Path 3921" d="M587.825,223.723c.365-.135.743-.284,1.162-.446,1.175,3.066,2.337,6.106,3.512,9.186-.405.162-.784.311-1.148.446C591.175,232.692,587.879,224.074,587.825,223.723Z" transform="translate(-169.857 -55.96)" fill="#fff"/>
    <path id="Path_3922" data-name="Path 3922" d="M432.251,223.377c.365.135.729.284,1.135.432-.257.8-.581,1.553-.865,2.31s-.581,1.526-.878,2.3-.581,1.513-.865,2.269-.581,1.526-.892,2.323c-.419-.162-.8-.3-1.162-.446C428.766,232.266,432.062,223.634,432.251,223.377Z" transform="translate(-32.249 -56.046)" fill="#f37124"/>
    <path id="Path_3923" data-name="Path 3923" d="M490.969,346.077a1.219,1.219,0,0,1,1.324,1.351,1.731,1.731,0,0,1-.419.932,1.189,1.189,0,0,1-2.053-.689,1.648,1.648,0,0,1,.567-1.324A1.009,1.009,0,0,1,490.969,346.077Z" transform="translate(-85.091 -162.172)" fill="#f37124"/>
    <path id="Path_3924" data-name="Path 3924" d="M454.575,319.351a1.551,1.551,0,0,1-.527,1.013,1.195,1.195,0,0,1-1.932-.824,1.7,1.7,0,0,1,.284-1.013,1.153,1.153,0,0,1,1.351-.513A1.2,1.2,0,0,1,454.575,319.351Z" transform="translate(-52.48 -137.85)" fill="#f37124"/>
    <path id="Path_3925" data-name="Path 3925" d="M472.384,336.147a1.6,1.6,0,0,1-.419,1.094,1.057,1.057,0,0,1-1.256.311,1.078,1.078,0,0,1-.784-1.067,1.655,1.655,0,0,1,.3-.973,1.17,1.17,0,0,1,1.351-.5A1.136,1.136,0,0,1,472.384,336.147Z" transform="translate(-67.884 -152.552)" fill="#f37124"/>
    <path id="Path_3926" data-name="Path 3926" d="M444.818,306.178a2.233,2.233,0,0,0-1,1.027.993.993,0,0,1-.729-.743,1.6,1.6,0,0,1,.338-1.364c.135-.162.189-.176.351-.068a3.4,3.4,0,0,1,.959.905c.027.04.054.095.081.135Z" transform="translate(-44.641 -126.609)" fill="#f37124"/>
    <path id="Path_3927" data-name="Path 3927" d="M412.131,273.879c-.257-.014-.392-.149-.351-.365a3.213,3.213,0,0,1,.2-.608.274.274,0,0,1,.351-.149c.149.04.27.149.243.3a4.475,4.475,0,0,1-.243.716C412.293,273.838,412.171,273.852,412.131,273.879Z" transform="translate(-17.587 -98.74)" fill="#fff"/>
    <path id="Path_3928" data-name="Path 3928" d="M633.812,273.463a.374.374,0,0,1-.23.338.3.3,0,0,1-.392-.135,3.518,3.518,0,0,1-.216-.635.29.29,0,0,1,.23-.338.3.3,0,0,1,.365.149C633.663,273.044,633.731,273.26,633.812,273.463Z" transform="translate(-208.901 -98.689)" fill="#fff"/>
  </g>
</svg>
