<svg width="20" height="20" viewBox="0 0 20 20" fill="none" xmlns="http://www.w3.org/2000/svg">
<path d="M3.9386 15.6468H4.0307L6.48372 15.417C6.82698 15.383 7.14512 15.2298 7.38791 14.983L16.6474 5.57021C17.0828 5.12766 17.3256 4.54043 17.3256 3.91915C17.3256 3.29787 17.0828 2.71064 16.6474 2.26808L16.053 1.66383C15.1823 0.778723 13.667 0.778723 12.7963 1.66383L11.6158 2.86383L3.54512 11.0681C3.30233 11.3149 3.15163 11.6383 3.12651 11.9872L2.90047 14.4809C2.87535 14.7957 2.98419 15.1021 3.20186 15.3319C3.40279 15.5362 3.66233 15.6468 3.9386 15.6468ZM14.4288 2.25106C14.6967 2.25106 14.9647 2.35319 15.1656 2.56596L15.76 3.17021C15.8578 3.26796 15.9355 3.38452 15.9885 3.5131C16.0416 3.64169 16.0689 3.77972 16.0689 3.91915C16.0689 4.05858 16.0416 4.19661 15.9885 4.32519C15.9355 4.45378 15.8578 4.57034 15.76 4.66808L15.0233 5.41702L12.9553 3.31489L13.6921 2.56596C13.893 2.3617 14.1609 2.25106 14.4288 2.25106ZM4.37395 12.1064C4.37395 12.0553 4.39907 12.0128 4.43256 11.9787L12.0595 4.21702L14.1274 6.31915L6.50046 14.0723C6.50046 14.0723 6.41674 14.1319 6.37488 14.1319L4.17302 14.3362L4.37395 12.0979V12.1064ZM19 18.3617C19 18.7106 18.7153 19 18.3721 19H1.62791C1.28465 19 1 18.7106 1 18.3617C1 18.0128 1.28465 17.7234 1.62791 17.7234H18.3721C18.7153 17.7234 19 18.0128 19 18.3617Z" fill="#E97420" stroke="#E97420" stroke-width="0.75"/>
</svg>
