<svg xmlns="http://www.w3.org/2000/svg" width="40" height="30.469" viewBox="0 0 40 30.469"><defs><style>.a{fill:#fff;}</style></defs><g transform="translate(-983 -557)"><path class="a" d="M60.2,61H27.227a3.475,3.475,0,0,0-1.506.352L43.633,79.265l4.015-3.858h0L61.7,61.353A3.475,3.475,0,0,0,60.2,61Z" transform="translate(959.288 496)"/><path class="a" d="M351.438,86.728,338.213,99.953l13.225,13.225a3.475,3.475,0,0,0,.352-1.506V88.234A3.475,3.475,0,0,0,351.438,86.728Z" transform="translate(671.21 472.282)"/><path class="a" d="M.352,86.721A3.475,3.475,0,0,0,0,88.227v23.438a3.476,3.476,0,0,0,.352,1.506L13.577,99.946Z" transform="translate(983 472.288)"/><path class="a" d="M48.471,277.211l-4.015,3.859a1.171,1.171,0,0,1-1.657,0l-3.859-3.859L25.714,290.436a3.475,3.475,0,0,0,1.507.353H60.189a3.475,3.475,0,0,0,1.506-.352Z" transform="translate(959.295 296.681)"/></g></svg>