<svg xmlns="http://www.w3.org/2000/svg" width="14.673" height="11.177" viewBox="0 0 14.673 11.177"><defs><style>.a{fill:#f37921;}</style></defs><g transform="translate(-983 -557)"><path class="a" d="M38.367,61H26.273a1.275,1.275,0,0,0-.552.129L32.292,67.7l1.473-1.415h0l5.155-5.155A1.275,1.275,0,0,0,38.367,61Z" transform="translate(958.016 496)"/><path class="a" d="M343.064,86.728l-4.851,4.851,4.851,4.851a1.275,1.275,0,0,0,.129-.552v-8.6A1.275,1.275,0,0,0,343.064,86.728Z" transform="translate(654.479 471.009)"/><path class="a" d="M.129,86.721A1.275,1.275,0,0,0,0,87.273v8.6a1.275,1.275,0,0,0,.129.552L4.98,91.572Z" transform="translate(983 471.016)"/><path class="a" d="M34.062,277.211l-1.473,1.415a.43.43,0,0,1-.608,0l-1.416-1.416-4.851,4.851a1.275,1.275,0,0,0,.553.129H38.36a1.275,1.275,0,0,0,.552-.129Z" transform="translate(958.023 285.985)"/></g></svg>