<svg width="25" height="25" viewBox="0 0 25 25" fill="none" xmlns="http://www.w3.org/2000/svg">
<path d="M12.5011 0.900003V0.9H12.5003C6.13304 0.9 0.952269 6.08128 0.900717 12.4225C0.874943 15.5154 2.06061 18.4526 4.25163 20.6458C6.41543 22.8629 9.33043 24.0742 12.4228 24.0982H12.4236H12.5003C18.8675 24.0982 24.0482 18.9169 24.0998 12.5757C24.1514 6.18367 18.9697 0.951548 12.5011 0.900003ZM2.65954 12.4483L2.65954 12.4475C2.68483 7.05988 7.1115 2.65719 12.5767 2.65706C18.0151 2.68248 22.3918 7.1347 22.3665 12.5742C22.3158 17.9661 17.8885 22.3411 12.5003 22.3411H12.424C9.79307 22.3157 7.33957 21.2787 5.46704 19.4044C4.56201 18.4885 3.84782 17.402 3.36588 16.208C2.88391 15.0138 2.64382 13.7359 2.65954 12.4483Z" fill="#EF233F" stroke="#EF233F" stroke-width="0.2"/>
<path d="M11.5293 14.1881C11.5285 14.3156 11.5531 14.442 11.6017 14.56C11.6503 14.678 11.7219 14.7852 11.8123 14.8753C11.9028 14.9654 12.0103 15.0365 12.1285 15.0846C12.2465 15.1326 12.3728 15.1567 12.5002 15.1554C12.6272 15.1561 12.7531 15.1317 12.8706 15.0834L13.367 14.1884H13.467V14.1881V7.031C13.467 6.77403 13.3649 6.52759 13.1832 6.34589C13.0015 6.16419 12.7551 6.06211 12.4981 6.06211C12.2412 6.06211 11.9948 6.16419 11.8131 6.34589C11.6314 6.52759 11.5293 6.77403 11.5293 7.031V14.1881ZM11.5293 14.1881C11.5293 14.188 11.5293 14.1878 11.5293 14.1877L11.6293 14.1884H11.5293V14.1881Z" fill="#EF233F" stroke="#EF233F" stroke-width="0.2"/>
<path d="M12.5011 16.6441L12.4988 16.6441C12.162 16.648 11.8401 16.7835 11.602 17.0217C11.3638 17.2598 11.2283 17.5818 11.2245 17.9186H11.2245V17.9197V17.9708C11.2245 18.3091 11.3588 18.6335 11.5981 18.8728C11.8373 19.112 12.1617 19.2464 12.5 19.2464C12.8383 19.2464 13.1627 19.112 13.4019 18.8728C13.6411 18.6335 13.7755 18.3091 13.7755 17.9708V17.9197H13.7755L13.7755 17.9186C13.7716 17.5818 13.6361 17.2598 13.398 17.0217C13.1598 16.7835 12.8379 16.648 12.5011 16.6441Z" fill="#EF233F" stroke="#EF233F" stroke-width="0.2"/>
</svg>
