<svg width="14" height="14" viewBox="0 0 14 14" fill="none" xmlns="http://www.w3.org/2000/svg">
<path d="M6.99999 6.31507e-06C5.61513 7.56265e-06 4.26138 0.410788 3.11003 1.18037C1.95868 1.94996 1.06148 3.04377 0.531946 4.3234C0.00240987 5.60303 -0.135664 7.01097 0.135195 8.36909C0.406054 9.72722 1.07367 10.9745 2.05358 11.9531C3.03349 12.9317 4.28165 13.5976 5.64013 13.8666C6.99862 14.1357 8.40638 13.9957 9.6853 13.4645C10.9642 12.9332 12.0568 12.0345 12.8249 10.8822C13.5929 9.72978 14.0019 8.37547 14 6.99061C14 6.0718 13.8189 5.162 13.467 4.31325C13.1151 3.4645 12.5993 2.69344 11.9492 2.04418C11.299 1.39492 10.5273 0.880193 9.67807 0.529435C8.82884 0.178677 7.9188 -0.00122864 6.99999 6.31507e-06Z" fill="#DF514C"/>
<path d="M7.70432 6.28613H6.29492V10.4861H7.70432V6.28613Z" fill="white"/>
<path d="M7.70432 3.49512H6.29492V4.90451H7.70432V3.49512Z" fill="white"/>
</svg>
