<svg width="24" height="26" viewBox="0 0 24 26" fill="none" xmlns="http://www.w3.org/2000/svg">
<path d="M22.332 9.2182H21.7174V6.22965C21.7174 6.22965 21.7174 6.19598 21.7174 6.17072C21.7174 6.05286 21.6753 5.935 21.5996 5.8424L16.6327 0.168369C16.6327 0.168369 16.5653 0.10944 16.5317 0.0841844C16.5232 0.0841844 16.5064 0.0673475 16.498 0.0673475C16.4643 0.0505106 16.4306 0.0336738 16.397 0.0252553H16.3717C16.3717 0.0252553 16.2959 0 16.2538 0H4.0471C3.49148 0 3.03688 0.454596 3.03688 1.01021V9.2182H2.42234C1.62258 9.2182 0.974365 9.86642 0.974365 10.6578V18.167C0.974365 18.9668 1.62258 19.6066 2.41392 19.6066H3.02847V24.7502C3.02847 25.3059 3.48306 25.7604 4.03868 25.7604H20.7072C21.2628 25.7604 21.7174 25.3059 21.7174 24.7502V19.615H22.332C23.1317 19.615 23.7799 18.9668 23.7799 18.1754V10.6662C23.7799 9.86642 23.1317 9.22662 22.332 9.22662V9.2182ZM4.03868 1.01021H15.7403V6.17914C15.7403 6.45695 15.9676 6.68425 16.2454 6.68425H20.7072V9.2182H4.03868V1.01021ZM18.4426 14.9175C17.1715 14.4713 16.3464 13.7726 16.3464 12.6613C16.3464 11.3565 17.4324 10.3631 19.234 10.3631C19.9075 10.3547 20.5641 10.481 21.1871 10.7504L20.7998 12.1394C20.3031 11.8953 19.7559 11.7774 19.2003 11.7774C18.4511 11.7774 18.0891 12.1141 18.0891 12.5182C18.0891 13.0065 18.5184 13.217 19.5034 13.5958C20.8503 14.0925 21.4901 14.7996 21.4901 15.8772C21.4901 17.1568 20.5052 18.2428 18.409 18.2428C17.6597 18.2512 16.9189 18.0912 16.2454 17.7798L16.599 16.3486C17.1967 16.6517 17.8449 16.8116 18.5184 16.8285C19.3097 16.8285 19.7307 16.5002 19.7307 16.0035C19.7307 15.5068 19.3687 15.2542 18.4511 14.9259L18.4426 14.9175ZM15.5214 16.6769V18.1249H10.7482V10.4894H12.4824V16.6769H15.5214ZM5.20884 18.1249H3.23893L5.44456 14.2608L3.31469 10.4894H5.30145L5.9665 11.8868C6.1938 12.3499 6.36217 12.7287 6.54738 13.158H6.57263C6.74942 12.6698 6.90095 12.333 7.09458 11.8868L7.74279 10.4894H9.71271L7.55759 14.2188L9.82215 18.1249H7.82698L7.13667 16.7443C6.85886 16.2139 6.67365 15.8183 6.45477 15.3721H6.42952C6.26957 15.8183 6.07594 16.2139 5.84023 16.7443L5.20043 18.1249H5.20884ZM20.7156 24.4808H4.0471V19.615H20.7156V24.4808Z" fill="#119411"/>
</svg>
