<svg xmlns="http://www.w3.org/2000/svg" width="14.423" height="13.308" viewBox="0 0 14.423 13.308">
  <g id="Group_2573" data-name="Group 2573" transform="translate(-6 -7.192)">
    <path id="Path_6636" data-name="Path 6636" d="M6.3,29.249H8.942a.3.3,0,0,0,.3-.3V26.307a.3.3,0,0,0-.3-.3H7.921V24.4H12.91v1.606H11.89a.3.3,0,0,0-.3.3v2.641a.3.3,0,0,0,.3.3h2.641a.3.3,0,0,0,.3-.3V26.307a.3.3,0,0,0-.3-.3h-1.02V24.4H18.5v1.606H17.482a.3.3,0,0,0-.3.3v2.641a.3.3,0,0,0,.3.3h2.641a.3.3,0,0,0,.3-.3V26.307a.3.3,0,0,0-.3-.3H19.1V24.1a.3.3,0,0,0-.3-.3h-5.29V22.241H16.13a.3.3,0,0,0,.3-.3V18.7h-.537v.489a.3.3,0,1,1-.6,0V18.7H11.129v.489a.3.3,0,1,1-.6,0V18.7H9.99v3.242a.3.3,0,0,0,.3.3h2.62V23.8H7.62a.3.3,0,0,0-.3.3v1.906H6.3a.3.3,0,0,0-.3.3v2.641A.3.3,0,0,0,6.3,29.249Z" transform="translate(0 -8.749)" fill="#f37921"/>
    <path id="Path_6637" data-name="Path 6637" d="M21.947,6.192H18.395a.3.3,0,0,0-.3.3V7.636H17.25a.3.3,0,0,0-.3.3v2.413h6.441V7.936a.3.3,0,0,0-.3-.3h-.843V6.492A.3.3,0,0,0,21.947,6.192Zm-.3,1.443H18.7V6.793h2.951Z" transform="translate(-6.96 1)" fill="#f37921"/>
  </g>
</svg>
