<svg xmlns="http://www.w3.org/2000/svg" xmlns:xlink="http://www.w3.org/1999/xlink" xmlns:svgjs="http://svgjs.com/svgjs" version="1.1" width="32" height="32" x="0" y="0" viewBox="0 0 32 32" xml:space="preserve" class="">
<g>
<path d="M31.419 16.788c-0.319 0-0.581 0.262-0.581 0.581v12.306h-29.675v-12.294c0-0.319-0.262-0.581-0.581-0.581s-0.581 0.262-0.581 0.581v12.813c0 0.319 0.331 0.644 0.656 0.644h30.837c0.319 0 0.506-0.319 0.506-0.644v-12.825c0-0.319-0.262-0.581-0.581-0.581zM30.331 6.4h-28.512c-0.963 0-1.819 0.713-1.819 1.675v4.069c0 1.563 1.219 3.088 2.725 3.475l11.225 2.906c0.656 0.169 1.506 0.256 2.344 0.256 0.881 0 1.775-0.094 2.462-0.281l10.594-2.863c1.5-0.406 2.644-1.944 2.644-3.5v-4.069c0.006-0.956-0.706-1.669-1.663-1.669zM30.837 12.144c0 1.025-0.794 2.113-1.781 2.375l-10.613 2.856c-1.137 0.306-3.056 0.319-4.194 0.019l-11.238-2.9c-0.981-0.256-1.844-1.331-1.844-2.35v-4.069c0-0.325 0.331-0.513 0.65-0.513h28.512c0.319 0 0.506 0.188 0.506 0.513v4.069zM21.019 1.163h-9.894c-0.963 0-1.813 0.712-1.813 1.669v2.331c0 0.319 0.262 0.581 0.581 0.581s0.581-0.263 0.581-0.581v-2.325c0-0.319 0.331-0.506 0.65-0.506h9.9c0.319 0 0.506 0.188 0.506 0.506v2.331c0 0.319 0.262 0.581 0.581 0.581s0.581-0.263 0.581-0.581v-2.331c0-0.962-0.712-1.675-1.675-1.675zM19.275 20.363h-5.819c-0.319 0-0.581 0.262-0.581 0.581s0.262 0.581 0.581 0.581h5.819c0.319 0 0.581-0.262 0.581-0.581s-0.262-0.581-0.581-0.581z"></path>
</g>
</svg>