<svg xmlns="http://www.w3.org/2000/svg" width="71" height="71" viewBox="0 0 71 71"><defs><style>.a{fill:#f37921;}</style></defs><g transform="translate(0 0)"><path class="a" d="M58.248,0h-45.5A12.766,12.766,0,0,0,0,12.752v45.5A12.766,12.766,0,0,0,12.752,71h45.5A12.766,12.766,0,0,0,71,58.248v-45.5A12.766,12.766,0,0,0,58.248,0ZM60,55.408H37.247a6.55,6.55,0,0,1-12.4,0H11a2.088,2.088,0,0,1,0-4.177H24.843a6.55,6.55,0,0,1,12.4,0H60A2.088,2.088,0,0,1,60,55.408Zm0-17.82H55.067a6.55,6.55,0,0,1-12.4,0H11a2.088,2.088,0,0,1,0-4.177H42.663a6.55,6.55,0,0,1,12.4,0H60A2.088,2.088,0,0,1,60,37.588Zm0-17.82H28.337a6.55,6.55,0,0,1-12.4,0H11a2.088,2.088,0,0,1,0-4.177h4.935a6.55,6.55,0,0,1,12.4,0H60a2.088,2.088,0,0,1,0,4.177Z" transform="translate(0 0)"/><path class="a" d="M209.292,367.435a2.367,2.367,0,0,0,0,4.733A2.367,2.367,0,0,0,209.292,367.435Z" transform="translate(-178.246 -316.482)"/><path class="a" d="M145.041,110.431a2.367,2.367,0,0,0,0,4.733A2.367,2.367,0,0,0,145.041,110.431Z" transform="translate(-122.905 -95.117)"/><path class="a" d="M337.793,238.933a2.367,2.367,0,0,0,0,4.733A2.367,2.367,0,0,0,337.793,238.933Z" transform="translate(-288.928 -205.8)"/></g></svg>