<svg xmlns="http://www.w3.org/2000/svg" width="100.869" height="100.869" viewBox="0 0 100.869 100.869"><defs><style>.a{fill:#bc1b4c;}.b{fill:#fff;stroke:#fff;stroke-width:0.6px;}</style></defs><g transform="translate(0 0)"><path class="a" d="M113.866,25.02h19.7a2.976,2.976,0,0,0,2.38-1.2,30.982,30.982,0,0,0,6.487-18.893V2.955A2.955,2.955,0,0,0,139.477,0C134,0,126.865,3.545,123.716,5.269,120.567,3.545,113.428,0,107.955,0A2.955,2.955,0,0,0,105,2.955v1.97a30.982,30.982,0,0,0,6.487,18.893A2.976,2.976,0,0,0,113.866,25.02Z" transform="translate(-84.314 0)"/><path d="M211.612,347.47v8.367a5.3,5.3,0,0,0,2.646-3.745A3.993,3.993,0,0,0,211.612,347.47Z" transform="translate(-169.922 -279.015)"/><path d="M178.791,283.566a2.692,2.692,0,0,0,.679,2.609,9.277,9.277,0,0,0,.807.559v-5.562A3.811,3.811,0,0,0,178.791,283.566Z" transform="translate(-143.511 -225.778)"/><path class="a" d="M55.557,200.6V185.943a8.285,8.285,0,0,1,7-8.2,6.853,6.853,0,0,0,4.929-3.516,145.51,145.51,0,0,0-14.159-16.342A2.954,2.954,0,0,0,51.223,157H27.581a2.955,2.955,0,0,0-2.109.885C12.876,170.718,0,186.267,0,204.282v.212a22.693,22.693,0,0,0,22.816,22.444H55.988a22.929,22.929,0,0,0,9.813-2.192A33.532,33.532,0,0,1,55.557,200.6Z" transform="translate(0 -126.069)"/><path class="a" d="M349.365,260.453a12.752,12.752,0,0,1-9.375-6.9,1.492,1.492,0,0,0-1.338-.816h-13.9a1.491,1.491,0,0,0-1.338.816,12.752,12.752,0,0,1-9.375,6.9A2.4,2.4,0,0,0,312,262.818V277.48a27.644,27.644,0,0,0,18.765,26.18,2.919,2.919,0,0,0,1.873,0A27.645,27.645,0,0,0,351.4,277.48V262.818A2.4,2.4,0,0,0,349.365,260.453Zm-7.216,14.411L331,286.009a2.955,2.955,0,0,1-4.179,0l-5.572-5.572a2.955,2.955,0,1,1,4.179-4.179l3.483,3.482,9.055-9.055a2.955,2.955,0,1,1,4.179,4.179Z" transform="translate(-250.533 -202.944)"/><g transform="translate(28.602 56.014)"><g transform="translate(0)"><path class="b" d="M176.171,133.883H174.55a7.255,7.255,0,0,0-1.359-2.942h2.98a1.471,1.471,0,1,0,0-2.942H161.464a1.471,1.471,0,1,0,0,2.942h5.883a4.4,4.4,0,0,1,4.142,2.942H161.464a1.471,1.471,0,1,0,0,2.941h10.025a4.4,4.4,0,0,1-4.142,2.942h-5.883a1.472,1.472,0,0,0-1.359.909,1.459,1.459,0,0,0,0,1.124,1.406,1.406,0,0,0,.321.48l11.763,11.763a1.471,1.471,0,1,0,2.083-2.077l-9.257-9.257h2.333a7.361,7.361,0,0,0,7.2-5.883h1.621a1.471,1.471,0,1,0,0-2.941Z" transform="translate(-159.992 -128)"/></g></g></g></svg>