<svg width="255" height="243" viewBox="0 0 255 243" fill="none" xmlns="http://www.w3.org/2000/svg">
<g clip-path="url(#clip0_8564_7760)">
<path d="M50.7162 186.748L4.05749 165.327C2.37853 164.554 1.07572 163.148 0.434895 161.419C-0.205929 159.689 -0.132437 157.777 0.63924 156.101L6.65026 143.088C7.42573 141.414 8.8355 140.115 10.5703 139.476C12.3051 138.837 14.2233 138.911 15.904 139.68L62.5627 161.101C64.2416 161.874 65.5444 163.28 66.1852 165.009C66.8261 166.739 66.7526 168.651 65.9809 170.327L59.9699 183.34C59.1945 185.014 57.7847 186.313 56.0499 186.952C54.3151 187.591 52.3969 187.518 50.7162 186.748Z" fill="#F2F2F2"/>
<path d="M43.4513 178.474L15.0861 165.452C14.1309 165.012 13.3898 164.212 13.0252 163.229C12.6607 162.245 12.7025 161.157 13.1415 160.204L17.9045 149.892C18.3457 148.94 19.1477 148.201 20.1346 147.837C21.1215 147.474 22.2127 147.515 23.1688 147.953L51.5341 160.976C52.4892 161.416 53.2303 162.215 53.5949 163.199C53.9594 164.183 53.9176 165.271 53.4787 166.224L48.7156 176.536C48.2745 177.488 47.4725 178.227 46.4856 178.59C45.4987 178.954 44.4074 178.912 43.4513 178.474Z" fill="white"/>
<path d="M43.2883 178.827L14.9231 165.805C13.8741 165.322 13.0601 164.443 12.6598 163.363C12.2594 162.282 12.3053 161.087 12.7874 160.041L17.5504 149.729C18.0349 148.683 18.9156 147.872 19.9995 147.473C21.0834 147.073 22.2818 147.119 23.3318 147.6L51.6971 160.623C52.7461 161.106 53.56 161.984 53.9603 163.064C54.3607 164.145 54.3147 165.34 53.8326 166.386L49.0696 176.698C48.5852 177.744 47.7044 178.555 46.6206 178.954C45.5368 179.354 44.3384 179.308 43.2883 178.827ZM23.0058 148.306C22.1435 147.911 21.1595 147.874 20.2695 148.201C19.3795 148.529 18.6563 149.195 18.2585 150.054L13.4955 160.366C13.0996 161.225 13.0619 162.206 13.3907 163.094C13.7194 163.981 14.3878 164.702 15.2491 165.099L43.6144 178.121C44.4766 178.516 45.4606 178.553 46.3506 178.226C47.2405 177.898 47.9638 177.232 48.3616 176.373L53.1245 166.061C53.5204 165.202 53.5581 164.221 53.2294 163.333C52.9007 162.446 52.2323 161.725 51.3711 161.328L23.0058 148.306Z" fill="#3F3D56"/>
<path d="M35.251 162.779L35.0943 162.707C35.0118 162.67 34.9375 162.616 34.8758 162.55C34.814 162.483 34.766 162.406 34.7345 162.321C34.7029 162.236 34.6885 162.146 34.692 162.055C34.6955 161.965 34.7168 161.876 34.7547 161.794C34.7927 161.712 34.8465 161.638 34.9132 161.576C34.9798 161.515 35.058 161.467 35.1432 161.436C35.2283 161.405 35.3188 161.39 35.4095 161.394C35.5002 161.398 35.5893 161.419 35.6716 161.457L35.8283 161.529C35.9942 161.606 36.1228 161.745 36.1859 161.916C36.2491 162.087 36.2416 162.276 36.1652 162.441C36.0887 162.607 35.9495 162.735 35.7781 162.799C35.6068 162.862 35.4172 162.855 35.251 162.779Z" fill="#CCCCCC"/>
<path d="M41.9692 170.03L33.3499 166.072C33.2674 166.035 33.1931 165.981 33.1314 165.915C33.0697 165.849 33.0216 165.771 32.9901 165.686C32.9586 165.601 32.9441 165.511 32.9476 165.42C32.9511 165.33 32.9724 165.241 33.0104 165.159C33.0483 165.077 33.1022 165.003 33.1688 164.942C33.2355 164.88 33.3136 164.832 33.3988 164.801C33.4839 164.77 33.5745 164.756 33.6651 164.759C33.7558 164.763 33.8449 164.784 33.9272 164.822L42.5465 168.78C42.629 168.817 42.7033 168.871 42.765 168.937C42.8268 169.003 42.8748 169.081 42.9063 169.166C42.9378 169.251 42.9523 169.341 42.9488 169.432C42.9453 169.522 42.924 169.611 42.886 169.693C42.8481 169.775 42.7942 169.849 42.7276 169.911C42.6609 169.972 42.5828 170.02 42.4976 170.051C42.4125 170.082 42.322 170.096 42.2313 170.093C42.1406 170.089 42.0515 170.068 41.9692 170.03Z" fill="#CCCCCC"/>
<path d="M27.1445 164.996C29.7 164.996 31.7717 162.93 31.7717 160.383C31.7717 157.835 29.7 155.77 27.1445 155.77C24.589 155.77 22.5174 157.835 22.5174 160.383C22.5174 162.93 24.589 164.996 27.1445 164.996Z" fill="#7168D6"/>
<path d="M239.242 165.979H65.9068C61.729 165.975 57.7237 164.318 54.7696 161.373C51.8154 158.428 50.1537 154.435 50.149 150.269V15.71C50.1538 11.5449 51.8155 7.55175 54.7696 4.60658C57.7238 1.66141 61.729 0.00473596 65.9068 0H239.242C243.42 0.00473596 247.425 1.66141 250.379 4.60658C253.334 7.55175 254.995 11.5449 255 15.71V150.269C254.995 154.435 253.334 158.428 250.379 161.373C247.425 164.318 243.42 165.975 239.242 165.979Z" fill="#F2F2F2"/>
<path d="M201.878 139.138H103.271C100.894 139.135 98.6155 138.193 96.9349 136.517C95.2544 134.842 94.3091 132.57 94.3064 130.201V35.778C94.3091 33.4085 95.2544 31.1369 96.935 29.4614C98.6155 27.786 100.894 26.8435 103.271 26.8408H201.878C204.255 26.8435 206.533 27.786 208.214 29.4614C209.895 31.1369 210.84 33.4085 210.843 35.778V130.201C210.84 132.57 209.895 134.842 208.214 136.517C206.533 138.193 204.255 139.135 201.878 139.138Z" fill="white"/>
<path d="M201.878 139.138H103.271C100.894 139.135 98.6155 138.193 96.9349 136.517C95.2544 134.842 94.3091 132.57 94.3064 130.201V35.778C94.3091 33.4085 95.2544 31.1369 96.935 29.4614C98.6155 27.786 100.894 26.8435 103.271 26.8408H201.878C204.255 26.8435 206.533 27.786 208.214 29.4614C209.895 31.1369 210.84 33.4085 210.843 35.778V130.201C210.84 132.57 209.895 134.842 208.214 136.517C206.533 138.193 204.255 139.135 201.878 139.138ZM103.271 27.618C101.101 27.6204 99.0203 28.4809 97.4859 30.0106C95.9514 31.5404 95.0883 33.6145 95.0859 35.778V130.201C95.0884 132.364 95.9515 134.438 97.4859 135.968C99.0203 137.498 101.101 138.358 103.271 138.361H201.878C204.048 138.358 206.129 137.498 207.663 135.968C209.197 134.438 210.061 132.364 210.063 130.201V35.778C210.061 33.6145 209.198 31.5404 207.663 30.0106C206.129 28.4809 204.048 27.6204 201.878 27.618H103.271Z" fill="#3F3D56"/>
<path d="M151.293 61.2437H134.73C134.522 61.244 134.316 61.2035 134.124 61.1244C133.932 61.0453 133.757 60.9292 133.61 60.7827C133.463 60.6362 133.346 60.4623 133.266 60.2708C133.187 60.0793 133.146 59.8741 133.146 59.6668C133.146 59.4595 133.187 59.2542 133.266 59.0627C133.346 58.8713 133.463 58.6973 133.61 58.5508C133.757 58.4044 133.932 58.2883 134.124 58.2092C134.316 58.1301 134.522 58.0895 134.73 58.0898H151.293C151.712 58.0905 152.114 58.2569 152.41 58.5526C152.706 58.8482 152.872 59.249 152.872 59.6668C152.872 60.0846 152.706 60.4853 152.41 60.7809C152.114 61.0766 151.712 61.243 151.293 61.2437Z" fill="#7168D6"/>
<path d="M188.32 123.804H171.756C171.549 123.805 171.343 123.764 171.15 123.685C170.958 123.606 170.784 123.49 170.636 123.343C170.489 123.197 170.373 123.023 170.293 122.831C170.213 122.64 170.172 122.435 170.172 122.227C170.172 122.02 170.213 121.815 170.293 121.623C170.373 121.432 170.489 121.258 170.636 121.111C170.784 120.965 170.958 120.849 171.15 120.77C171.343 120.691 171.549 120.65 171.756 120.65H188.32C188.739 120.651 189.14 120.817 189.436 121.113C189.733 121.409 189.899 121.81 189.899 122.227C189.899 122.645 189.733 123.046 189.436 123.341C189.14 123.637 188.739 123.804 188.32 123.804Z" fill="#7168D6"/>
<path d="M188.422 67.6939H134.73C134.31 67.6939 133.908 67.5277 133.611 67.232C133.315 66.9363 133.148 66.5352 133.148 66.117C133.148 65.6987 133.315 65.2976 133.611 65.0019C133.908 64.7062 134.31 64.54 134.73 64.54H188.422C188.842 64.54 189.244 64.7062 189.541 65.0019C189.837 65.2976 190.004 65.6987 190.004 66.117C190.004 66.5352 189.837 66.9363 189.541 67.232C189.244 67.5277 188.842 67.6939 188.422 67.6939Z" fill="#E6E6E6"/>
<path d="M121.089 67.24C123.727 67.24 125.864 65.1086 125.864 62.4794C125.864 59.8501 123.727 57.7188 121.089 57.7188C118.452 57.7188 116.314 59.8501 116.314 62.4794C116.314 65.1086 118.452 67.24 121.089 67.24Z" fill="#7168D6"/>
<path d="M105.11 43.1482C107.747 43.1482 109.885 41.0168 109.885 38.3876C109.885 35.7583 107.747 33.627 105.11 33.627C102.472 33.627 100.334 35.7583 100.334 38.3876C100.334 41.0168 102.472 43.1482 105.11 43.1482Z" fill="#F2F2F2"/>
<path d="M120.438 64.9569C120.356 64.9569 120.274 64.9378 120.201 64.901C120.127 64.8642 120.063 64.8108 120.013 64.745L118.71 63.0133C118.668 62.9577 118.638 62.8944 118.62 62.8269C118.603 62.7595 118.599 62.6893 118.609 62.6203C118.619 62.5514 118.642 62.485 118.677 62.4251C118.713 62.3651 118.76 62.3127 118.816 62.271C118.872 62.2292 118.935 62.1988 119.003 62.1815C119.071 62.1643 119.141 62.1605 119.21 62.1705C119.28 62.1804 119.346 62.2039 119.406 62.2395C119.466 62.275 119.519 62.3221 119.56 62.3779L120.413 63.5108L122.602 60.2373C122.679 60.1205 122.801 60.0393 122.938 60.0115C123.076 59.9837 123.22 60.0115 123.337 60.0889C123.454 60.1662 123.536 60.2868 123.564 60.4242C123.592 60.5615 123.565 60.7045 123.488 60.8216L123.485 60.8248L120.88 64.7211C120.833 64.7916 120.77 64.8497 120.695 64.8907C120.621 64.9317 120.538 64.9544 120.453 64.9567L120.438 64.9569Z" fill="white"/>
<path d="M188.422 84.7906H134.73C134.31 84.7906 133.908 84.6244 133.611 84.3287C133.315 84.033 133.148 83.6319 133.148 83.2136C133.148 82.7954 133.315 82.3943 133.611 82.0986C133.908 81.8029 134.31 81.6367 134.73 81.6367H188.422C188.842 81.6367 189.244 81.8029 189.541 82.0986C189.837 82.3943 190.004 82.7954 190.004 83.2136C190.004 83.6319 189.837 84.033 189.541 84.3287C189.244 84.6244 188.842 84.7906 188.422 84.7906Z" fill="#E6E6E6"/>
<path d="M121.09 88.2221C120.068 88.2221 119.069 87.9201 118.22 87.3543C117.371 86.7885 116.709 85.9843 116.318 85.0435C115.927 84.1026 115.825 83.0673 116.024 82.0684C116.223 81.0696 116.715 80.1521 117.437 79.432C118.16 78.7119 119.08 78.2214 120.082 78.0228C121.084 77.8241 122.122 77.9261 123.066 78.3158C124.01 78.7055 124.816 79.3655 125.384 80.2123C125.951 81.059 126.254 82.0546 126.254 83.073C126.253 84.4381 125.708 85.7469 124.74 86.7122C123.772 87.6775 122.459 88.2205 121.09 88.2221ZM121.09 78.701C120.222 78.701 119.374 78.9574 118.653 79.4378C117.932 79.9182 117.37 80.601 117.038 81.3999C116.706 82.1988 116.619 83.0778 116.788 83.9259C116.958 84.774 117.375 85.553 117.989 86.1644C118.602 86.7759 119.383 87.1923 120.234 87.361C121.085 87.5297 121.966 87.4431 122.768 87.1122C123.569 86.7813 124.254 86.2209 124.736 85.5019C125.218 84.783 125.475 83.9377 125.475 83.073C125.473 81.9138 125.011 80.8026 124.189 79.983C123.367 79.1633 122.252 78.7023 121.09 78.701Z" fill="#E6E6E6"/>
<path d="M151.293 102.432H134.73C134.522 102.432 134.316 102.392 134.124 102.313C133.932 102.234 133.757 102.118 133.61 101.971C133.463 101.825 133.346 101.651 133.266 101.459C133.187 101.268 133.146 101.063 133.146 100.855C133.146 100.648 133.187 100.443 133.266 100.251C133.346 100.06 133.463 99.8858 133.61 99.7393C133.757 99.5929 133.932 99.4768 134.124 99.3977C134.316 99.3185 134.522 99.278 134.73 99.2783H151.293C151.712 99.279 152.114 99.4454 152.41 99.7411C152.706 100.037 152.872 100.437 152.872 100.855C152.872 101.273 152.706 101.674 152.41 101.969C152.114 102.265 151.712 102.432 151.293 102.432Z" fill="#E6E6E6"/>
<path d="M188.422 108.882H134.73C134.522 108.882 134.317 108.842 134.125 108.762C133.933 108.683 133.758 108.567 133.611 108.42C133.465 108.274 133.348 108.1 133.269 107.909C133.189 107.718 133.148 107.513 133.148 107.305C133.148 107.098 133.189 106.893 133.269 106.702C133.348 106.511 133.465 106.337 133.611 106.19C133.758 106.044 133.933 105.928 134.125 105.849C134.317 105.769 134.522 105.729 134.73 105.729H188.422C188.842 105.729 189.244 105.895 189.541 106.19C189.837 106.486 190.004 106.887 190.004 107.305C190.004 107.724 189.837 108.125 189.541 108.42C189.244 108.716 188.842 108.882 188.422 108.882Z" fill="#E6E6E6"/>
<path d="M121.089 108.817C120.068 108.817 119.069 108.515 118.22 107.95C117.37 107.384 116.708 106.58 116.317 105.639C115.927 104.698 115.824 103.662 116.023 102.663C116.223 101.665 116.715 100.747 117.437 100.027C118.159 99.3067 119.08 98.8162 120.082 98.6175C121.083 98.4188 122.122 98.5208 123.066 98.9105C124.01 99.3002 124.816 99.9602 125.384 100.807C125.951 101.654 126.254 102.649 126.254 103.668C126.253 105.033 125.708 106.342 124.74 107.307C123.772 108.273 122.459 108.816 121.089 108.817ZM121.089 99.2957C120.222 99.2957 119.374 99.5521 118.653 100.032C117.932 100.513 117.37 101.196 117.038 101.995C116.706 102.794 116.619 103.673 116.788 104.521C116.957 105.369 117.375 106.148 117.988 106.759C118.601 107.371 119.383 107.787 120.234 107.956C121.084 108.125 121.966 108.038 122.767 107.707C123.569 107.376 124.254 106.816 124.736 106.097C125.218 105.378 125.475 104.533 125.475 103.668C125.473 102.509 125.011 101.397 124.189 100.578C123.367 99.7582 122.252 99.2971 121.089 99.2957Z" fill="#E6E6E6"/>
<path d="M107.28 38.0036H103.768L105.101 36.6459C105.162 36.5837 105.195 36.4997 105.194 36.4127C105.194 36.3256 105.158 36.2424 105.095 36.1815C105.064 36.1514 105.028 36.1276 104.988 36.1115C104.948 36.0955 104.905 36.0874 104.861 36.0879C104.774 36.0889 104.691 36.1244 104.63 36.1867L102.75 38.1021C102.69 38.1635 102.656 38.2459 102.656 38.3317C102.656 38.4176 102.69 38.5 102.75 38.5614L104.63 40.477C104.691 40.5393 104.774 40.5748 104.861 40.5757C104.949 40.5767 105.033 40.543 105.095 40.4821C105.158 40.4212 105.194 40.3381 105.194 40.251C105.195 40.1639 105.162 40.08 105.101 40.0177L103.769 38.6604H107.28C107.367 38.6601 107.451 38.6254 107.512 38.5638C107.574 38.5022 107.608 38.4189 107.608 38.332C107.608 38.2451 107.574 38.1617 107.512 38.1002C107.451 38.0386 107.367 38.0039 107.28 38.0036Z" fill="#3F3D56"/>
<path d="M71.478 238.166L75.3369 238.166L77.1726 223.326L71.4772 223.327L71.478 238.166Z" fill="#A0616A"/>
<path d="M71.342 242.18L83.2088 242.179V242.029C83.2087 240.808 82.7221 239.637 81.8559 238.773C80.9897 237.91 79.8149 237.425 78.5899 237.425L76.422 235.785L72.3777 237.425L71.3418 237.425L71.342 242.18Z" fill="#2F2E41"/>
<path d="M53.9391 238.166L57.798 238.166L59.6338 223.326L53.9383 223.327L53.9391 238.166Z" fill="#A0616A"/>
<path d="M53.8031 242.18L65.6699 242.179V242.029C65.6698 240.808 65.1832 239.637 64.317 238.773C63.4508 237.91 62.276 237.425 61.051 237.425L58.8831 235.785L54.8388 237.425L53.8029 237.425L53.8031 242.18Z" fill="#2F2E41"/>
<path d="M80.8598 142.892C80.8598 142.892 87.0963 150.603 85.8871 152.603C84.6779 154.602 82.7292 153.91 84.6779 156.004C86.6267 158.099 87.4074 158.124 86.0427 159.666C84.6779 161.208 83.4924 194.913 83.4924 194.913L77.2726 229.985L70.4272 230.6C70.4272 230.6 69.1502 226.313 69.119 224.652C69.0878 222.991 69.0878 224.438 69.0878 220.994C69.0878 217.551 70.3194 220.219 69.119 216.942C67.9185 213.665 66.4219 204.012 69.119 199.318C71.8161 194.625 69.6962 198.743 69.6962 198.743L67.607 166.936L63.6313 199.676C63.6313 199.676 63.6313 210.945 61.6825 219.105L61.3603 230.6L52.9609 230.28C52.9609 230.28 50.7694 226.876 51.5489 222.991C52.3284 219.105 49.2104 217.162 49.2104 215.219C49.2104 213.276 49.3746 194.692 49.3746 194.692L51.196 156.004C51.196 156.004 49.6001 147.219 53.1079 143.722C56.6157 140.225 80.8598 142.892 80.8598 142.892Z" fill="#2F2E41"/>
<path d="M62.2748 74.1172L70.4596 74.5058C70.3966 76.8878 71.7013 79.1348 74.3736 81.2469L78.8316 85.8255L80.0008 95.9284L78.8316 134.008L85.4574 149.551C76.5536 153.02 66.1466 154.559 51.5488 150.717C49.9025 148.967 52.0061 138.764 52.963 131.146C52.963 131.146 55.0342 127.972 53.1644 125.678C51.2946 123.384 53.8874 109.14 53.8874 109.14L54.6669 93.2084C54.2236 88.0524 50.5529 84.1706 54.6313 80.9697C57.6508 79.2698 60.2599 76.9307 62.2748 74.1172Z" fill="#7168D6"/>
<path d="M74.3736 81.2463L79.9348 82.9096L84.6618 94.5527L81.7624 130.848C81.7624 130.848 81.1813 133.043 82.2514 132.723C83.3215 132.402 82.8853 135.154 82.8853 135.154L86.8292 150.277L49.2103 147.219L52.963 131.145C52.963 131.145 50.1948 131.234 52.1412 129.294C54.0876 127.353 53.4186 128.531 51.5489 126.236C51.0135 125.625 50.6761 124.866 50.5811 124.06C50.4861 123.254 50.6379 122.438 51.0166 121.72L50.1824 110.354L48.8072 94.3584C48.589 91.8202 49.007 89.2678 50.0236 86.9306C51.0402 84.5935 52.6236 82.5449 54.6314 80.9691C60.4387 77.5294 67.1694 78.3065 74.3736 81.2463Z" fill="#3F3D56"/>
<path d="M42.365 154.125C41.9254 153.475 41.7576 152.68 41.8972 151.908C42.0368 151.137 42.4729 150.45 43.1125 149.994C43.244 149.904 43.3828 149.824 43.5275 149.756L42.5139 139.307L47.6513 136.929L47.4874 151.393C47.7229 152.013 47.7459 152.693 47.553 153.327C47.36 153.961 46.9619 154.514 46.4207 154.899C46.1106 155.115 45.761 155.268 45.3916 155.349C45.0222 155.43 44.6404 155.438 44.2679 155.373C43.8954 155.307 43.5396 155.169 43.2207 154.966C42.9018 154.763 42.6262 154.499 42.4094 154.19C42.3943 154.169 42.3795 154.147 42.365 154.125Z" fill="#A0616A"/>
<path d="M38.687 125.021L42.5846 144.838L43.0484 144.807L47.5656 144.484L48.0411 144.449L47.6514 126.575C46.6146 125.522 48.3724 121.916 50.6797 117.564C51.5333 115.959 52.4609 114.25 53.3534 112.532C53.5132 112.225 53.6692 111.918 53.8251 111.611C54.9461 109.482 55.9201 107.279 56.7404 105.017L50.2822 86.7466L50.1185 86.2803C50.1185 86.2803 48.7427 89.552 46.942 94.2887C46.8056 94.6423 46.6692 95.0037 46.5328 95.3728C43.0951 104.52 38.461 118.221 38.687 125.021Z" fill="#3F3D56"/>
<path d="M120.55 66.7097C120.29 67.4494 119.75 68.0585 119.046 68.4075C118.342 68.7566 117.529 68.8179 116.781 68.5786C116.629 68.5276 116.482 68.4641 116.341 68.3889L108.54 75.4397L103.558 72.7517L115.293 64.245C115.651 63.6866 116.185 63.2621 116.81 63.0376C117.436 62.8132 118.118 62.8015 118.751 63.0044C119.11 63.1233 119.442 63.3116 119.728 63.5584C120.014 63.8052 120.248 64.1058 120.418 64.4429C120.587 64.7801 120.688 65.1472 120.716 65.5233C120.743 65.8995 120.695 66.2773 120.576 66.6352C120.568 66.6602 120.559 66.685 120.55 66.7097Z" fill="#A0616A"/>
<path d="M61.3359 101.026C61.3359 101.026 72.9163 98.1702 83.6482 94.3885C83.9316 94.29 84.2101 94.1892 84.4886 94.0882C90.5933 91.9003 96.3108 89.4274 99.3292 87.0297L112.948 72.0782L112.646 71.7282L109.685 68.3101L109.375 67.9502L95.2292 78.9355C95.0032 80.3586 91.2272 81.1076 86.4972 81.8425C86.2323 81.8856 85.9526 82.0466 85.6875 81.9646C81.2363 80.5863 76.2091 82.8631 72.4567 84.5421L61.3359 101.026Z" fill="#3F3D56"/>
<path d="M66.7368 72.8745C72.1429 72.8745 76.5255 68.5052 76.5255 63.1155C76.5255 57.7257 72.1429 53.3564 66.7368 53.3564C61.3306 53.3564 56.9481 57.7257 56.9481 63.1155C56.9481 68.5052 61.3306 72.8745 66.7368 72.8745Z" fill="#A0616A"/>
<path d="M60.295 73.3221C61.9323 72.5554 63.8446 73.0213 65.6521 73.0922C67.4596 73.1631 69.6496 72.4838 70.0331 70.7214C70.3167 69.4182 69.4644 67.9899 70.0015 66.7687C70.5872 65.4369 72.3452 65.2474 73.755 64.8745C75.5222 64.3654 77.0806 63.3081 78.2042 61.856C79.3277 60.404 79.9578 58.6327 80.0031 56.7994C80.1011 57.527 78.8522 57.766 78.442 57.1563C78.0318 56.5466 78.3143 55.7027 78.7666 55.1233C79.2189 54.5439 79.8294 54.0812 80.1705 53.4306C80.5116 52.7799 80.4453 51.8136 79.7792 51.5004C79.4379 52.1874 78.9544 52.7944 78.3605 53.2814C77.7667 53.7684 77.076 54.1243 76.3341 54.3257C76.6371 53.4082 76.2087 52.3767 75.5192 51.698C74.7867 51.0622 73.9427 50.5667 73.0297 50.2365C70.7733 49.2613 68.1387 48.2909 65.9536 49.416C65.3895 49.712 64.8998 50.1312 64.5211 50.6424C64.1423 51.1536 63.8842 51.7434 63.7662 52.368C59.7242 52.7087 55.5738 57.0739 55.8038 61.1115C56.0515 65.4581 56.2322 65.8097 59.8616 73.1241" fill="#2F2E41"/>
<path d="M17.4371 243L17.4396 242.885C17.4919 240.957 17.9646 239.064 18.825 237.336C19.6854 235.609 20.9128 234.089 22.4219 232.882C23.2738 232.212 24.2069 231.651 25.1993 231.213L25.2939 231.171L25.3101 231.273C25.5022 232.491 25.8066 233.733 25.9484 234.285L26.8988 230.587L27.0044 230.557C27.4886 230.415 28.0044 230.421 28.4851 230.575C28.9659 230.728 29.3897 231.021 29.7018 231.416C30.0275 231.812 30.227 232.295 30.2745 232.805C30.322 233.315 30.2154 233.827 29.9685 234.275C29.7469 234.687 29.5292 235.116 29.3185 235.531C28.5948 236.958 27.8465 238.433 26.7561 239.579C25.9222 240.439 24.9062 241.102 23.7823 241.52C22.6585 241.938 21.4553 242.1 20.2604 241.995L17.4371 243Z" fill="#F2F2F2"/>
<path d="M110.75 242.871L17.3067 242.99C17.1839 242.99 17.0662 242.941 16.9794 242.854C16.8927 242.767 16.844 242.65 16.844 242.527C16.844 242.405 16.8927 242.287 16.9794 242.201C17.0662 242.114 17.1839 242.065 17.3067 242.065L110.75 241.945C110.873 241.945 110.991 241.994 111.078 242.081C111.165 242.168 111.214 242.285 111.214 242.408C111.214 242.531 111.165 242.648 111.078 242.735C110.991 242.822 110.873 242.871 110.75 242.871Z" fill="#CACACA"/>
</g>
<defs>
<clipPath id="clip0_8564_7760">
<rect width="255" height="243" fill="white"/>
</clipPath>
</defs>
</svg>
