<svg xmlns="http://www.w3.org/2000/svg" width="70" height="70" viewBox="0 0 70 70"><defs><style>.a{fill:#593cc7;}.b{fill:#fff;stroke:#fff;stroke-width:0.6px;}</style></defs><path class="a" d="M111.153,17.363h13.671a2.065,2.065,0,0,0,1.651-.834,21.5,21.5,0,0,0,4.5-13.111V2.051A2.051,2.051,0,0,0,128.926,0c-3.8,0-8.752,2.46-10.937,3.657C115.8,2.46,110.849,0,107.051,0A2.051,2.051,0,0,0,105,2.051V3.418a21.5,21.5,0,0,0,4.5,13.111A2.065,2.065,0,0,0,111.153,17.363Z" transform="translate(-90.645)"/><path d="M211.612,347.47v5.806a3.676,3.676,0,0,0,1.836-2.6A2.771,2.771,0,0,0,211.612,347.47Z" transform="translate(-182.681 -299.964)"/><path d="M178.769,282.834a1.868,1.868,0,0,0,.471,1.811,6.457,6.457,0,0,0,.56.388v-3.86A2.645,2.645,0,0,0,178.769,282.834Z" transform="translate(-154.287 -242.731)"/><path class="a" d="M38.555,187.26V177.086a5.749,5.749,0,0,1,4.861-5.69,4.755,4.755,0,0,0,3.421-2.44,100.978,100.978,0,0,0-9.826-11.341A2.05,2.05,0,0,0,35.547,157H19.141a2.051,2.051,0,0,0-1.464.614C8.936,166.52,0,177.31,0,189.813v.147a15.748,15.748,0,0,0,15.833,15.576h23.02a15.913,15.913,0,0,0,6.81-1.521,23.27,23.27,0,0,1-7.109-16.754Z" transform="translate(0 -135.535)"/><path class="a" d="M337.93,258.091a8.85,8.85,0,0,1-6.506-4.789,1.035,1.035,0,0,0-.929-.566h-9.647a1.035,1.035,0,0,0-.929.566,8.849,8.849,0,0,1-6.506,4.789A1.668,1.668,0,0,0,312,259.733v10.175a19.185,19.185,0,0,0,13.022,18.168,2.027,2.027,0,0,0,1.3,0,19.185,19.185,0,0,0,13.022-18.168V259.733A1.668,1.668,0,0,0,337.93,258.091Zm-5.008,10-7.734,7.734a2.05,2.05,0,0,1-2.9,0l-3.867-3.867a2.051,2.051,0,0,1,2.9-2.9l2.417,2.417,6.284-6.284a2.051,2.051,0,1,1,2.9,2.9Z" transform="translate(-269.344 -218.182)"/><g transform="translate(19.849 38.872)"><g transform="translate(0)"><path class="b" d="M171.22,132.083H170.1a5.034,5.034,0,0,0-.943-2.041h2.068a1.021,1.021,0,1,0,0-2.041H161.013a1.021,1.021,0,1,0,0,2.041H165.1a3.056,3.056,0,0,1,2.874,2.041h-6.957a1.021,1.021,0,1,0,0,2.041h6.957a3.056,3.056,0,0,1-2.874,2.041h-4.083a1.021,1.021,0,0,0-.943.631,1.013,1.013,0,0,0,0,.78.973.973,0,0,0,.223.333l8.163,8.163a1.021,1.021,0,1,0,1.445-1.441l-6.424-6.424H165.1a5.108,5.108,0,0,0,5-4.083h1.125a1.021,1.021,0,1,0,0-2.041Z" transform="translate(-159.992 -128)"/></g></g></svg>