<svg xmlns="http://www.w3.org/2000/svg" width="54.895" height="72.807" viewBox="0 0 54.895 72.807">
  <g id="Group_3239" data-name="Group 3239" transform="translate(-460.5 -1467.998)">
    <g id="fingerprint" transform="translate(461 1468.5)">
      <path id="Path_4389" data-name="Path 4389" d="M207.306,221.036a7.475,7.475,0,0,0-14.352,4.132c2.691,9.356,12.534,17.752,21.549,24.886a1.5,1.5,0,0,0,1.857-2.344c-8.653-6.847-18.087-14.864-20.533-23.368a4.488,4.488,0,1,1,8.626-2.479c1.633,5.681,9.751,12.7,17.474,18.814a1.5,1.5,0,1,0,1.857-2.344C219.706,235.113,208.906,226.568,207.306,221.036Z" transform="translate(-174.714 -185.679)" fill="#2680eb" stroke="#2680eb" stroke-width="1"/>
      <path id="Path_4390" data-name="Path 4390" d="M115.409,141.982a19.436,19.436,0,0,0-37.194,11.281l.006.022c2.455,8.528-2.808,10.893-4.485,11.413a1.5,1.5,0,0,0,.9,2.853c4.572-1.429,9.012-6.237,6.462-15.094A16.445,16.445,0,0,1,92.344,132.1l.014,0a16.538,16.538,0,0,1,20.273,11.027,1.414,1.414,0,0,0,.15.332c.155.257.475.8,10.086,8.6a1.5,1.5,0,0,0,1.887-2.32C121.26,146.9,116.156,142.684,115.409,141.982Z" transform="translate(-71.484 -110.479)" fill="#2680eb" stroke="#2680eb" stroke-width="1"/>
      <path id="Path_4391" data-name="Path 4391" d="M139.14,180.752a13.479,13.479,0,0,0-16.646-9.212,13.725,13.725,0,0,0-9.236,16.559c3.02,13.754.762,16.93-5.433,18.867a1.5,1.5,0,1,0,.9,2.853c8.656-2.691,10.537-8.348,7.475-22.363a10.764,10.764,0,0,1,7.14-13.043,10.5,10.5,0,0,1,12.95,7.176c.6,2.039,2.186,4.838,14.43,14.529a1.5,1.5,0,1,0,1.857-2.344C141.461,184.983,139.559,182.2,139.14,180.752Z" transform="translate(-100.795 -147.049)" fill="#2680eb" stroke="#2680eb" stroke-width="1"/>
      <path id="Path_4392" data-name="Path 4392" d="M253.314,275.072c-5.059-3.839-13.527-10.262-15.611-17.5a1.5,1.5,0,0,0-2.874.825c2.356,8.2,11.32,15,16.676,19.062a39.692,39.692,0,0,1,3.14,2.512,1.5,1.5,0,0,0,2.114-2.114A39.249,39.249,0,0,0,253.314,275.072Z" transform="translate(-210.855 -220.557)" fill="#2680eb" stroke="#2680eb" stroke-width="1"/>
      <path id="Path_4393" data-name="Path 4393" d="M226.848,432.065A9.766,9.766,0,0,0,219.39,427c-5.083,0-5.87,8.641-5.98,10.373a1.5,1.5,0,0,0,1.4,1.585h.1a1.5,1.5,0,0,0,1.5-1.4c.188-3.08,1.366-7.565,2.99-7.565,2.216,0,3.788,2.135,5.05,3.848a16.119,16.119,0,0,0,1.366,1.692,1.5,1.5,0,0,0,2.114-2.114A13.247,13.247,0,0,1,226.848,432.065Z" transform="translate(-192.479 -367.152)" fill="#2680eb" stroke="#2680eb" stroke-width="1"/>
      <path id="Path_4394" data-name="Path 4394" d="M158.242,364.373a1.495,1.495,0,0,0-2.849.9c1.28,4-1.235,11.844-5.017,13.073a1.5,1.5,0,0,0,.893,2.854l.031-.01C157.052,379.332,159.827,369.339,158.242,364.373Z" transform="translate(-137.38 -312.454)" fill="#2680eb" stroke="#2680eb" stroke-width="1"/>
      <path id="Path_4395" data-name="Path 4395" d="M116.882,105.174c-1.869-.6-3.337-2.99-5.038-5.72-3.6-5.819-8.537-13.787-22.333-13.787A25.446,25.446,0,0,0,64.1,111.083a1.5,1.5,0,0,0,2.99,0A22.449,22.449,0,0,1,89.511,88.657c12.131,0,16.38,6.859,19.794,12.373,2.009,3.244,3.744,6.046,6.656,6.991a1.5,1.5,0,1,0,.955-2.833l-.031-.01Z" transform="translate(-64.095 -73.66)" fill="#2680eb" stroke="#2680eb" stroke-width="1"/>
      <path id="Path_4396" data-name="Path 4396" d="M67.084,306.476a1.5,1.5,0,0,0,1.337-2.165,13.249,13.249,0,0,1-1.337-3.815,1.5,1.5,0,1,0-2.99,0,15.284,15.284,0,0,0,1.653,5.155A1.5,1.5,0,0,0,67.084,306.476Z" transform="translate(-64.094 -257.093)" fill="#2680eb" stroke="#2680eb" stroke-width="1"/>
      <path id="Path_4397" data-name="Path 4397" d="M75.474,54.743a1.5,1.5,0,0,0,2.055-.5l0,0c1.3-2.141,7.69-8.25,19.651-8.25,11.494,0,19.672,5.822,21.146,8.25a1.5,1.5,0,0,0,2.557-1.552h0C118.833,49.31,109.776,43,97.182,43c-13.393,0-20.572,6.994-22.21,9.691A1.5,1.5,0,0,0,75.474,54.743Z" transform="translate(-73.261 -36.974)" fill="#2680eb" stroke="#2680eb" stroke-width="1"/>
      <path id="Path_4398" data-name="Path 4398" d="M129.813,5.9c.685-.3,1.265-.6,1.815-.9,2.249-1.133,3.866-1.962,11.042-1.962a33.915,33.915,0,0,1,14.212,2.276c.571.212,1.145.425,1.746.631a1.514,1.514,0,0,0,.487.084,1.5,1.5,0,0,0,.487-2.909c-.58-.2-1.13-.4-1.68-.6A36.868,36.868,0,0,0,142.67.047c-7.906,0-9.885,1.017-12.4,2.305-.505.26-1.043.535-1.671.816a1.5,1.5,0,0,0,1.1,2.779q.059-.023.116-.052Z" transform="translate(-118.749 0)" fill="#2680eb" stroke="#2680eb" stroke-width="1"/>
      <path id="Path_4399" data-name="Path 4399" d="M408.465,136.334a1.495,1.495,0,0,0,2.849-.9,37.719,37.719,0,0,0-3.143-6.309,1.5,1.5,0,0,0-2.548,1.567A35.4,35.4,0,0,1,408.465,136.334Z" transform="translate(-357.565 -110.417)" fill="#2680eb" stroke="#2680eb" stroke-width="1"/>
    </g>
  </g>
</svg>
