<svg width="21" height="24" viewBox="0 0 21 24" fill="none" xmlns="http://www.w3.org/2000/svg">
<path d="M8.89001 23.99C8.89001 23.99 -0.36999 23.6 0.0100102 14.42C1.02194e-05 11.35 1.02194e-05 11.38 0.0100102 11.36C0.0200102 11.34 2.13001 13.97 3.33001 14.42C3.30001 14.16 2.74001 3.31 11.35 0C11.35 0 9.17001 10.02 13.13 8.94C17.09 7.86 14.8 3.32 14.8 3.32C14.8 3.32 20.66 9.95 17.67 14.42C17.87 14.35 20.11 14.05 20.75 13.15C20.81 13.27 18.84 24.38 11.36 24" fill="url(#paint0_linear_3092_38344)"/>
<path d="M10.84 23.91C10.96 23.87 16.4 23.17 12.96 16.73C12.76 16.73 9.03002 18.46 10.7 12.95C10.6 12.9 2.62002 18.28 7.02002 22.82C8.04002 23.78 9.47002 24.19 10.84 23.91Z" fill="#FCD638"/>
<defs>
<linearGradient id="paint0_linear_3092_38344" x1="1.02201e-05" y1="12" x2="20.74" y2="12" gradientUnits="userSpaceOnUse">
<stop stop-color="#FBB403"/>
<stop offset="1" stop-color="#FF4D1B"/>
</linearGradient>
</defs>
</svg>
