<svg xmlns="http://www.w3.org/2000/svg" width="34.065" height="50" viewBox="0 0 34.065 50"><defs><style>.a{fill:#f37921;}.b{fill:#fff;stroke:#fff;stroke-width:0.4px;}</style></defs><g transform="translate(-416.065 -6)"><path class="a" d="M433.866,18.4h9.765a1.474,1.474,0,0,0,1.179-.6,15.363,15.363,0,0,0,3.214-9.365V7.465A1.465,1.465,0,0,0,446.561,6c-2.714,0-6.251,1.757-7.812,2.612C437.185,7.757,433.649,6,430.936,6a1.465,1.465,0,0,0-1.465,1.465h0v.976a15.354,15.354,0,0,0,3.214,9.365A1.476,1.476,0,0,0,433.866,18.4Z" transform="translate(-5.549)"/><path class="a" d="M447.235,40.338a22.819,22.819,0,0,1,2.861,9.8c.011.262.034.522.034.786v.105a11.17,11.17,0,0,1-1.642,5.71,10.668,10.668,0,0,1-1.573,2.3,9.638,9.638,0,0,1-7.374,3.091H426.655a9.638,9.638,0,0,1-7.374-3.091,10.673,10.673,0,0,1-1.573-2.3,11.17,11.17,0,0,1-1.642-5.71v-.105c0-.265.024-.524.034-.786a22.817,22.817,0,0,1,2.861-9.8,43.12,43.12,0,0,1,5-7.25c1.516-1.817,3.133-3.547,4.742-5.187a1.459,1.459,0,0,1,1.043-.436h6.708a1.459,1.459,0,0,1,1.043.436c1.61,1.64,3.226,3.371,4.742,5.187A47.039,47.039,0,0,1,447.235,40.338Z" transform="translate(0 -6.133)"/><g transform="translate(428.698 33.481)"><path class="b" d="M441.78,47.359h-.8a3.58,3.58,0,0,0-.674-1.458h1.477a.729.729,0,1,0,.046-1.458h-7.34a.729.729,0,1,0-.045,1.458h2.964a2.181,2.181,0,0,1,2.053,1.458h-4.969a.729.729,0,1,0-.045,1.458h5.014a2.183,2.183,0,0,1-2.053,1.458h-2.916a.729.729,0,0,0-.674,1.008.714.714,0,0,0,.159.238l5.831,5.831a.73.73,0,0,0,1.069-.993c-.012-.013-.024-.025-.037-.036l-4.589-4.589h1.156a3.648,3.648,0,0,0,3.571-2.916h.8a.729.729,0,1,0,.046-1.458h-.049Z" transform="translate(-433.737 -44.442)"/></g></g></svg>