<svg xmlns="http://www.w3.org/2000/svg" width="33" height="33.211" viewBox="0 0 33 33.211">
  <g id="Fixed_Income_Leads_count" data-name="Fixed Income Leads count" transform="translate(0 0.2)">
    <g id="e">
      <path id="f" d="M7.176,33.011V28.706h0A1.429,1.429,0,0,0,5.741,27.27H2.871a1.429,1.429,0,0,0-1.435,1.435v4.306H0V28.706a2.859,2.859,0,0,1,2.472-2.825,4,4,0,0,1-.387-.376,2.872,2.872,0,1,1,4.044.376A2.859,2.859,0,0,1,8.6,28.706v4.306H7.165ZM4.306,25.117h0a1.435,1.435,0,1,0-1.435-1.435,1.429,1.429,0,0,0,1.435,1.435" fill="#83e5c4"/>
      <path id="g" d="M19.376,33.011V21.529h0a1.429,1.429,0,0,0-1.435-1.435H15.07a1.429,1.429,0,0,0-1.435,1.435V33.011H12.2V21.529A2.859,2.859,0,0,1,14.672,18.7a2.93,2.93,0,0,1-.376-.376,2.872,2.872,0,1,1,4.044.376,2.859,2.859,0,0,1,2.472,2.825V33.011H19.376Zm-2.871-15.07h0a1.435,1.435,0,1,0-1.435-1.435,1.429,1.429,0,0,0,1.435,1.435" fill="#83e5c4"/>
      <path id="h" d="M31.565,33.011V12.918h0a1.429,1.429,0,0,0-1.435-1.435H27.259a1.429,1.429,0,0,0-1.435,1.435V33.011H24.388V12.918a2.859,2.859,0,0,1,2.472-2.825,2.426,2.426,0,0,1-.376-.387,2.872,2.872,0,1,1,4.044.376A2.859,2.859,0,0,1,33,12.906V33.011H31.565ZM28.694,9.341h0a1.429,1.429,0,0,0,1.435-1.435h0a1.435,1.435,0,1,0-1.435,1.435" fill="#83e5c4"/>
    </g>
    <path id="Path_6606" data-name="Path 6606" d="M26.211,6.094a1.392,1.392,0,0,1-.558.74,1.205,1.205,0,0,1-1.207.046,1.179,1.179,0,0,1-.661-1.1V4.465a2.452,2.452,0,0,0-.239.228q-3.366,3.246-6.709,6.5a.353.353,0,0,1-.513.057c-1.116-.615-2.244-1.207-3.372-1.823L3.076,17.087l-.513-.615L12.861,8.5l3.611,1.936,8.122-7.86V5.753c0,.182.046.365.239.421a.47.47,0,0,0,.376-.034.533.533,0,0,0,.171-.387c.011-.82,0-1.64,0-2.46V.786h-5.3a.327.327,0,0,0-.319.33.554.554,0,0,0,.228.376.6.6,0,0,0,.33.057H23.83L16.13,9l.046.068c-.08-.046-.148-.08-.228-.125-.934-.57-1.88-1.128-2.814-1.709a.345.345,0,0,0-.444.023Q7.41,11.289,2.119,15.3c-.091.068-.182.137-.285.216l-.5-.615,5.787-4.4A5.2,5.2,0,0,1,1.2,5.137,5.236,5.236,0,0,1,7.142.433,5.116,5.116,0,0,1,11.357,7.3c.467-.353.9-.672,1.321-1.014a.286.286,0,0,1,.4-.011c.911.558,1.834,1.116,2.745,1.663.08.046.148.091.251.148l5.866-5.673-.023-.068h-.273c-.558,0-1.1.011-1.652-.034a1.149,1.149,0,0,1-1.059-1.185A1.191,1.191,0,0,1,20.162,0h6.026V6.094ZM2.028,5.456A4.343,4.343,0,0,0,6.436,9.739a4.349,4.349,0,0,0,4.443-4.272A4.374,4.374,0,0,0,6.47,1.173,4.365,4.365,0,0,0,2.028,5.456Z" fill="#83e5c4" stroke="#83e5c4" stroke-width="0.4"/>
    <g id="Group_11120" data-name="Group 11120">
      <g id="j">
        <path id="k" d="M7.792,4.272H6.9a1.513,1.513,0,0,0-.228-.581c-.057-.08-.114-.148-.171-.228H7.792a.234.234,0,0,0,.239-.239.251.251,0,0,0-.239-.251H4.568a.243.243,0,0,0-.239.251.169.169,0,0,0,.023.1c0,.023.023.034.034.046v.023a.3.3,0,0,0,.182.068h.945a1.012,1.012,0,0,1,.513.216,1.378,1.378,0,0,1,.182.182,1.813,1.813,0,0,1,.148.251.839.839,0,0,1,.046.159H4.568a.241.241,0,0,0-.239.239.249.249,0,0,0,.239.239H6.4s-.034.1-.046.159a1.116,1.116,0,0,1-.148.251,1.378,1.378,0,0,1-.182.182,1.813,1.813,0,0,1-.251.148.985.985,0,0,1-.262.068h-.8a.241.241,0,0,0-.239.239v.171a.269.269,0,0,0,.08.182l.114.1.513.467.672.627.6.57a3.5,3.5,0,0,1,.3.285h0a.6.6,0,0,0,.171.08.242.242,0,0,0,.171-.41L6.88,7.666l-.535-.49-.638-.592-.558-.513h.273a1.6,1.6,0,0,0,1.3-.832,1.4,1.4,0,0,0,.159-.478h.889a.239.239,0,0,0,0-.478" fill="#83e5c4" stroke="#83e5c4" stroke-width="0.57"/>
      </g>
    </g>
  </g>
</svg>
