<svg xmlns="http://www.w3.org/2000/svg" width="47.692" height="70" viewBox="0 0 47.692 70"><defs><style>.a{fill:#593cc7;}.b{fill:#fff;stroke:#fff;stroke-width:0.6px;}</style></defs><g transform="translate(-416.065 -6)"><path class="a" d="M435.624,23.363H449.3a2.064,2.064,0,0,0,1.651-.834,21.508,21.508,0,0,0,4.5-13.111V8.051A2.051,2.051,0,0,0,453.4,6c-3.8,0-8.752,2.46-10.937,3.657C440.271,8.46,435.32,6,431.522,6a2.051,2.051,0,0,0-2.051,2.051h0V9.418a21.5,21.5,0,0,0,4.5,13.111A2.066,2.066,0,0,0,435.624,23.363Z" transform="translate(-2.406)"/><path class="a" d="M459.7,45.488A31.946,31.946,0,0,1,463.709,59.2c.015.367.048.731.048,1.1v.147a15.638,15.638,0,0,1-2.3,7.994,14.941,14.941,0,0,1-2.2,3.227A13.493,13.493,0,0,1,448.931,76h-18.04a13.493,13.493,0,0,1-10.324-4.328,14.942,14.942,0,0,1-2.2-3.227,15.638,15.638,0,0,1-2.3-7.994V60.3c0-.37.033-.734.048-1.1a31.946,31.946,0,0,1,4.005-13.716,60.373,60.373,0,0,1,7-10.15c2.122-2.543,4.386-4.966,6.639-7.262a2.042,2.042,0,0,1,1.46-.611h9.391a2.042,2.042,0,0,1,1.46.611c2.253,2.3,4.517,4.719,6.639,7.262A65.861,65.861,0,0,1,459.7,45.488Z"/><g transform="translate(433.752 44.474)"><path class="b" d="M445,48.525h-1.12a5.013,5.013,0,0,0-.943-2.041H445a1.021,1.021,0,1,0,.064-2.041H434.79a1.021,1.021,0,1,0-.063,2.041h4.15a3.054,3.054,0,0,1,2.874,2.041h-6.957a1.021,1.021,0,1,0-.063,2.041h7.02a3.057,3.057,0,0,1-2.874,2.041h-4.083a1.021,1.021,0,0,0-.943,1.411,1,1,0,0,0,.223.333l8.163,8.163a1.021,1.021,0,0,0,1.5-1.39c-.017-.018-.034-.035-.052-.051l-6.424-6.424h1.619a5.107,5.107,0,0,0,5-4.083H445a1.021,1.021,0,1,0,.064-2.041c-.021,0-.042,0-.064,0Z" transform="translate(-433.737 -44.442)"/></g></g></svg>