<svg xmlns="http://www.w3.org/2000/svg" width="49.396" height="35.088" viewBox="0 0 49.396 35.088"><defs><style>.a{fill:#2680eb;}</style></defs><g transform="translate(-1 -14.109)"><g transform="translate(1 14.109)"><path class="a" d="M1.017,79.677a1.016,1.016,0,0,0,.909-.568c.058-.114,4.715-8.854,24.146-9.151v8.691a1.029,1.029,0,0,0,.567.922,1.007,1.007,0,0,0,1.067-.105L49,62.949a1.034,1.034,0,0,0,0-1.633L27.7,44.8a1.008,1.008,0,0,0-1.067-.107,1.028,1.028,0,0,0-.567.921v9.159c-.514-.033-1.183-.062-1.974-.062C16.851,54.713,0,57.046,0,78.647a1.026,1.026,0,0,0,.785,1A.907.907,0,0,0,1.017,79.677Z" transform="translate(0 -44.589)"/></g></g></svg>