<svg xmlns="http://www.w3.org/2000/svg" width="80" height="80" viewBox="0 0 80 80"><defs><style>.a{fill:#f8f8f8;}.b{fill:#593cc7;stroke:#593cc7;stroke-width:0.5px;}</style></defs><g transform="translate(-40 -1114)"><rect class="a" width="80" height="80" rx="12" transform="translate(40 1114)"/><g transform="translate(40 1113.531)"><path class="b" d="M76.056,29.82a1.65,1.65,0,0,1-1.65,1.65c-.911,0-1.325-.8-1.65-1.65V26.108L56.208,42.655a3.32,3.32,0,0,1-4.675,0L33.79,24.912a1.655,1.655,0,0,1,0-2.338,1.635,1.635,0,0,1,2.321,0L53.87,40.317,70.418,23.77H66.7a1.65,1.65,0,1,1,0-3.3h7.7a1.65,1.65,0,0,1,1.65,1.65Z" transform="translate(-7.699)"/><path class="b" d="M52.4,59.141a1.65,1.65,0,0,0-1.65-1.65c-.911,0-1.975.8-1.65,1.65v3.713L34.292,48.048a3.32,3.32,0,0,0-4.675,0L11.483,66.181a1.655,1.655,0,0,0,0,2.338,1.635,1.635,0,0,0,2.321,0l18.15-18.133L46.76,65.191H43.048a1.65,1.65,0,1,0,0,3.3h7.7a1.65,1.65,0,0,0,1.65-1.65Z" transform="translate(0 -8.002)"/></g></g></svg>