<svg xmlns="http://www.w3.org/2000/svg" width="72.308" height="70" viewBox="0 0 72.308 70"><defs><style>.a{fill:#593cc7;}</style></defs><g transform="translate(0 -9.147)"><g transform="translate(0 9.147)"><path class="a" d="M126.332,224.614v25.2a5.563,5.563,0,0,1-11.123,0,2.782,2.782,0,0,0-5.563,0,11.124,11.124,0,0,0,22.248,0v-25.2a8.33,8.33,0,0,0-5.562,0Z" transform="translate(-92.958 -190.939)"/><path class="a" d="M224.843,16.187V11.929a2.781,2.781,0,0,0-5.562,0v4.258q1.825-.086,2.781-.087T224.843,16.187Z" transform="translate(-185.907 -9.147)"/><path class="a" d="M72.263,89.693a30.461,30.461,0,0,0-5.019-10.928,32.371,32.371,0,0,0-8.453-8.126,40.358,40.358,0,0,0-10.711-4.932,42.475,42.475,0,0,0-27.593,1.217A35.551,35.551,0,0,0,7.539,75.81a30.762,30.762,0,0,0-7.5,13.884A.736.736,0,0,0,0,90a1.335,1.335,0,0,0,.413.978,1.336,1.336,0,0,0,.978.413,1.588,1.588,0,0,0,1-.434,18.777,18.777,0,0,1,4.041-3,9.436,9.436,0,0,1,4.432-1,10.419,10.419,0,0,1,5.562,1.608A15.465,15.465,0,0,1,20.9,92.777q.3.436.761,1.216t.63,1.044a1.415,1.415,0,0,0,1.217.739,1.447,1.447,0,0,0,1.26-.739q.174-.26.63-1.044t.761-1.216a15.583,15.583,0,0,1,4.454-4.214,10.348,10.348,0,0,1,11.081,0,15.572,15.572,0,0,1,4.453,4.214c.2.291.457.7.761,1.216s.515.87.631,1.044a1.444,1.444,0,0,0,1.259.739,1.412,1.412,0,0,0,1.216-.739q.175-.26.631-1.044c.3-.52.557-.925.761-1.216a15.488,15.488,0,0,1,4.475-4.214,10.421,10.421,0,0,1,5.563-1.608,9.435,9.435,0,0,1,4.432,1,18.8,18.8,0,0,1,4.041,3,1.588,1.588,0,0,0,1,.434A1.409,1.409,0,0,0,72.308,90,.723.723,0,0,0,72.263,89.693Z" transform="translate(0 -55.625)"/></g></g></svg>