<svg xmlns="http://www.w3.org/2000/svg" width="70.137" height="70" viewBox="0 0 70.137 70"><defs><style>.a{fill:#593cc7;}.b{fill:#fff;stroke:#fff;stroke-width:0.6px;}</style></defs><g transform="translate(-721.417 -988)"><g transform="translate(721.417 987.5)"><path class="a" d="M141.083,124.049a2.055,2.055,0,1,1-2.906-2.906l5.2-5.2a19.888,19.888,0,1,0,2.906,2.906Z" transform="translate(-95.795 -95.795)"/><path class="a" d="M431.529,9.13H435.2a2.055,2.055,0,1,0,0-4.11h-2.466V2.555a2.055,2.055,0,1,0-4.11,0V6.224l-3.234,3.234,2.906,2.906Z" transform="translate(-367.117)"/><path class="a" d="M53.4,21A24,24,0,1,1,50.5,18.1l7.777-7.777A34.675,34.675,0,0,0,35.068,1.5a34.932,34.932,0,1,0,26.11,11.728Z" transform="translate(0 -0.863)"/></g><g transform="translate(749.849 1015.872)"><g transform="translate(0)"><path class="b" d="M171.22,132.083H170.1a5.034,5.034,0,0,0-.943-2.041h2.068a1.021,1.021,0,1,0,0-2.041H161.013a1.021,1.021,0,1,0,0,2.041H165.1a3.056,3.056,0,0,1,2.874,2.041h-6.957a1.021,1.021,0,1,0,0,2.041h6.957a3.056,3.056,0,0,1-2.874,2.041h-4.083a1.021,1.021,0,0,0-.943.631,1.013,1.013,0,0,0,0,.78.973.973,0,0,0,.223.333l8.163,8.163a1.021,1.021,0,1,0,1.445-1.441l-6.424-6.424H165.1a5.108,5.108,0,0,0,5-4.083h1.125a1.021,1.021,0,1,0,0-2.041Z" transform="translate(-159.992 -128)"/></g></g></g></svg>