<svg xmlns="http://www.w3.org/2000/svg" width="50" height="49.902" viewBox="0 0 50 49.902"><defs><style>.a{fill:#faaa38;}.b{fill:#fff;stroke:#fff;stroke-width:0.6px;}</style></defs><path class="a" d="M132.446,120.446a1.465,1.465,0,1,1-2.071-2.072l3.7-3.7a14.178,14.178,0,1,0,2.071,2.072Z" transform="translate(-100.16 -100.66)"/><path class="a" d="M429.766,6.652h2.616a1.465,1.465,0,1,0,0-2.93h-1.758V1.965a1.465,1.465,0,1,0-2.93,0V4.581l-2.306,2.306,2.072,2.072Z" transform="translate(-383.847 -0.5)"/><path class="a" d="M38.07,15.4A17.111,17.111,0,1,1,36,13.333l5.544-5.544A24.72,24.72,0,0,0,25,1.5,24.9,24.9,0,1,0,43.613,9.86Z" transform="translate(0 -1.402)"/><g transform="translate(20.269 19.87)"><g transform="translate(0)"><path class="b" d="M168,130.91h-.8a3.589,3.589,0,0,0-.672-1.455H168A.728.728,0,1,0,168,128H160.72a.728.728,0,1,0,0,1.455h2.91a2.179,2.179,0,0,1,2.049,1.455H160.72a.728.728,0,1,0,0,1.455h4.959a2.179,2.179,0,0,1-2.049,1.455h-2.91a.728.728,0,0,0-.672.45.722.722,0,0,0,0,.556.694.694,0,0,0,.159.237l5.82,5.82a.728.728,0,1,0,1.03-1.027l-4.58-4.58h1.154a3.642,3.642,0,0,0,3.564-2.911h.8a.728.728,0,1,0,0-1.455Z" transform="translate(-159.992 -128)"/></g></g></svg>