<svg xmlns="http://www.w3.org/2000/svg" width="178" height="40" viewBox="0 0 178 40">
  <g id="GroBox_Logo" transform="translate(-491 -199)">
    <g id="Rectangle_60" data-name="Rectangle 60" transform="translate(491 199)" fill="#fff" stroke="#707070" stroke-width="1" opacity="0">
      <rect width="178" height="40" stroke="none"/>
      <rect x="0.5" y="0.5" width="177" height="39" fill="none"/>
    </g>
    <g id="Group_38" data-name="Group 38" transform="translate(3 4.001)">
      <path id="Path_122" data-name="Path 122" d="M4104.767-13466l-5.1-7.7-4.52,7.7h-6.713l8.1-12.441-8.19-12.354h7.071l5.058,7.654,4.563-7.654h6.713l-8.145,12.354,8.233,12.441h-7.07Zm-71.022,0v-31.238h12.888a14.705,14.705,0,0,1,4.344.6,9.236,9.236,0,0,1,3.186,1.678,7.122,7.122,0,0,1,1.961,2.553,7.746,7.746,0,0,1,.669,3.223,7.244,7.244,0,0,1-1.521,4.637,7.258,7.258,0,0,1-1.689,1.523,8.783,8.783,0,0,1-2.115,1,6.885,6.885,0,0,1,2.436.93,7.3,7.3,0,0,1,1.91,1.711,7.958,7.958,0,0,1,1.695,4.922,8.3,8.3,0,0,1-.7,3.414,7.486,7.486,0,0,1-2.016,2.68,11.556,11.556,0,0,1-7.581,2.365Zm6.266-5.1h6.31c3.071,0,4.832-1.5,4.832-4.115,0-2.65-1.9-4.3-4.967-4.3h-6.175Zm0-13.246h5.728c3,0,4.654-1.383,4.654-3.891s-1.7-3.941-4.654-3.941h-5.728Zm-52.9-6.445h6.176V-13466l-6.176,0Zm-26.342,23.535a15.926,15.926,0,0,1-5.086-3.428,15.925,15.925,0,0,1-3.429-5.084A15.906,15.906,0,0,1,3951-13482a15.879,15.879,0,0,1,1.257-6.225,15.947,15.947,0,0,1,3.429-5.088,15.95,15.95,0,0,1,5.086-3.428A15.838,15.838,0,0,1,3967-13498a15.835,15.835,0,0,1,6.227,1.26,15.922,15.922,0,0,1,5.085,3.428,16,16,0,0,1,3.364,4.934h-6.461a10.347,10.347,0,0,0-8.216-4.025,10.416,10.416,0,0,0-10.4,10.4,10.415,10.415,0,0,0,10.4,10.4,10.478,10.478,0,0,0,9.957-7.381h-11.411v-4.922h17.342a16.193,16.193,0,0,1,.111,1.9,15.907,15.907,0,0,1-1.257,6.229,15.9,15.9,0,0,1-3.428,5.084,15.954,15.954,0,0,1-5.085,3.428A15.833,15.833,0,0,1,3967-13466,15.827,15.827,0,0,1,3960.772-13467.26Zm50.464.047a12.418,12.418,0,0,1-3.982-2.684,12.483,12.483,0,0,1-2.686-3.982,12.442,12.442,0,0,1-.984-4.877,12.473,12.473,0,0,1,.984-4.879,12.453,12.453,0,0,1,2.686-3.98,12.487,12.487,0,0,1,3.982-2.686,12.479,12.479,0,0,1,4.878-.986,12.473,12.473,0,0,1,4.877.986,12.5,12.5,0,0,1,3.983,2.686,12.435,12.435,0,0,1,2.685,3.98,12.461,12.461,0,0,1,.985,4.879,12.43,12.43,0,0,1-.985,4.877,12.465,12.465,0,0,1-2.685,3.982,12.427,12.427,0,0,1-3.983,2.684,12.4,12.4,0,0,1-4.877.988A12.411,12.411,0,0,1,4011.236-13467.213Zm-2.512-11.543a7.4,7.4,0,0,0,7.39,7.391,7.4,7.4,0,0,0,7.389-7.391,7.4,7.4,0,0,0-7.389-7.391A7.4,7.4,0,0,0,4008.724-13478.756Zm-14.315-6.711v-1.568a4.253,4.253,0,0,1,4.251-4.252h4.252v.449a5.373,5.373,0,0,1-5.371,5.371Z" transform="translate(-3457 13696.999)" fill="#2a2663" stroke="rgba(0,0,0,0)" stroke-width="1"/>
      <g id="Group_37" data-name="Group 37" transform="translate(603.865 205.712)">
        <path id="Path_121" data-name="Path 121" d="M4.218,21.907q-.281-.249-.548-.517-.3-.3-.571-.61l-.005-.006-.039-.044a12.547,12.547,0,0,1-1.743-2.611L1.3,18.1h0q-.168-.338-.316-.688-.107-.253-.2-.509l-.005-.014-.019-.053A12.5,12.5,0,0,1,0,12.785v-.013c0-.019,0-.038,0-.057s0-.016,0-.024,0-.033,0-.049,0-.021,0-.031,0-.04,0-.06,0-.014,0-.021A12.489,12.489,0,0,1,.975,7.677l.01-.024,0-.007a12.539,12.539,0,0,1,2.38-3.663q.149-.159.3-.314.1-.1.193-.189A12.543,12.543,0,0,1,7.647.987l.005,0L7.674.976A12.49,12.49,0,0,1,12.53,0h.252a12.485,12.485,0,0,1,4.2.812h0l.067.025q.18.07.359.146t.332.146a12.532,12.532,0,0,1,7.32,11.4c0,.007,0,.014,0,.021s0,.039,0,.059,0,.021,0,.031,0,.033,0,.049,0,.016,0,.024,0,.038,0,.057v.012A12.529,12.529,0,0,1,12.784,25.058H12.53A12.482,12.482,0,0,1,4.218,21.907Zm.922-9.377A7.39,7.39,0,1,0,12.53,5.141,7.4,7.4,0,0,0,5.141,12.53Z" transform="translate(0 0)" fill="#f47224"/>
        <path id="Path_120" data-name="Path 120" d="M7.653,24.077h0l-.091-.038A12.549,12.549,0,0,1,.489,16.012l0-.007-.012-.041a12.536,12.536,0,0,1-.468-3v-.008c0-.017,0-.034,0-.051s0-.016,0-.024v-.041c0-.022,0-.043,0-.065s0-.017,0-.026,0-.032,0-.047v-.026c0-.017,0-.033,0-.05V12.6q0-.035,0-.071A12.489,12.489,0,0,1,.975,7.677l.01-.024,0-.007a12.538,12.538,0,0,1,2.38-3.663q.149-.159.3-.314.1-.1.193-.189A12.543,12.543,0,0,1,7.647.987l.005,0L7.673.976A12.49,12.49,0,0,1,12.53,0h0c.027.014.032,2.4.027,5.141H12.53A7.39,7.39,0,0,0,9.812,19.4c-1.08,2.425-2.086,4.648-2.158,4.675Z" transform="translate(0)" fill="#f79c65"/>
        <path id="Path_119" data-name="Path 119" d="M0,8.714l.024-.077q.163-.5.369-.984A12.555,12.555,0,0,1,8.3.535l.032-.01L8.351.521A12.548,12.548,0,0,1,11.671,0h.269c.027.014.032,2.4.027,5.141h-.028a7.4,7.4,0,0,0-7.131,5.451C2.242,9.629-.025,8.761,0,8.714Z" transform="translate(0.591)" fill="#fbc6a7"/>
      </g>
      <path id="Union_27" data-name="Union 27" d="M3943.572-13486v-8.287h-8.287l4.509-3.713h7.491v7.491l-3.712,4.509h0Z" transform="translate(-3286.785 13697.999)" fill="#1eb209"/>
    </g>
  </g>
</svg>
