<svg width="14" height="14" viewBox="0 0 14 14" fill="none" xmlns="http://www.w3.org/2000/svg">
<path d="M7 14C10.866 14 14 10.866 14 7C14 3.13401 10.866 0 7 0C3.13401 0 0 3.13401 0 7C0 10.866 3.13401 14 7 14Z" fill="#F37921"/>
<path d="M7.32095 2.40352C7.62971 2.41167 7.92284 2.54113 8.13684 2.76386C8.35084 2.9866 8.46848 3.28467 8.46428 3.59352C8.47271 3.88592 8.36561 4.16988 8.16617 4.38389C7.96672 4.59789 7.691 4.7247 7.39872 4.73685H7.32095C7.17015 4.73788 7.02064 4.70906 6.88102 4.65206C6.74141 4.59506 6.61445 4.51101 6.50745 4.40474C6.40046 4.29847 6.31555 4.17208 6.2576 4.03286C6.19966 3.89363 6.16983 3.74432 6.16983 3.59352V3.54685C6.16359 3.40153 6.18631 3.25643 6.23668 3.11998C6.28705 2.98354 6.36406 2.85847 6.46322 2.75207C6.56238 2.64567 6.68172 2.56006 6.81429 2.50022C6.94685 2.44038 7.09 2.40751 7.23539 2.40352H7.32095Z" fill="white"/>
<path d="M8.97589 10.4915C8.9302 10.5926 8.867 10.6847 8.78923 10.7638C8.59105 10.9788 8.35059 11.1506 8.08291 11.2684C7.81523 11.3862 7.52611 11.4474 7.23367 11.4482C6.94252 11.456 6.65122 11.4404 6.36256 11.4016C6.08072 11.3443 5.82862 11.1883 5.65177 10.9615C5.47491 10.7347 5.38495 10.4522 5.39812 10.1649C5.44478 9.75266 5.53812 9.34044 5.58478 8.92822C5.72478 8.19711 5.85701 7.466 5.95034 6.72711V6.59489C5.95034 6.26822 5.857 6.18266 5.53812 6.136C5.41152 6.12791 5.28754 6.09626 5.17256 6.04266C5.03256 5.99599 4.93923 5.85599 4.98589 5.77044C5.03256 5.68488 5.07923 5.53711 5.26589 5.53711H7.73923C8.01145 5.53711 8.19812 5.67711 8.19812 5.94933C8.19053 6.18264 8.15926 6.41457 8.10478 6.64155C7.96478 7.466 7.78589 8.29044 7.64589 9.11489L7.5059 9.93933C7.49828 10.0784 7.51405 10.2177 7.55256 10.3516C7.56411 10.4252 7.60382 10.4915 7.6633 10.5365C7.72279 10.5815 7.79741 10.6016 7.87145 10.5927H7.91812C8.06276 10.5709 8.20236 10.5235 8.33034 10.4527C8.42367 10.4527 8.56367 10.3204 8.65701 10.2738C8.88256 10.2271 9.02256 10.3204 8.97589 10.5071V10.4915Z" fill="white"/>
</svg>
