<svg xmlns="http://www.w3.org/2000/svg" width="43.106" height="50" viewBox="0 0 43.106 50"><defs><style>.a{fill:#bc1b4c;}.b{fill:#fff;stroke:#fff;stroke-linecap:round;stroke-linejoin:round;stroke-width:2px;}</style></defs><g transform="translate(-290.553 -375)"><path class="a" d="M52.267,15.842l-18.1-6.159a3.459,3.459,0,0,0-2.224,0l-18.1,6.159A3.452,3.452,0,0,0,11.5,19.107V32.962c0,17.472,19.376,25.913,20.2,26.265a3.5,3.5,0,0,0,1.355.272,3.41,3.41,0,0,0,1.352-.276c.824-.352,20.2-8.79,20.2-26.262V19.107a3.444,3.444,0,0,0-2.338-3.265Z" transform="translate(279.054 365.5)"/><g transform="translate(194.415 369.122)"><path class="b" d="M193.066,181.757h6.8v4.208h-6.8a2.113,2.113,0,0,0-2.113,2.113v6.8h-4.208v-6.8a2.113,2.113,0,0,0-2.113-2.113h-6.8v-4.208h6.8a2.112,2.112,0,0,0,2.113-2.113v-6.8h4.208v6.8A2.112,2.112,0,0,0,193.066,181.757Z" transform="translate(-71.193 -154.965)"/></g></g></svg>