<svg width="408" height="290" viewBox="0 0 408 290" fill="none" xmlns="http://www.w3.org/2000/svg">
<g style="mix-blend-mode:multiply">
<path d="M351.384 265.819H381.133V131.91H351.384V265.819Z" fill="#DFF3FD"/>
<path d="M351.384 173.006H306.492V265.819H351.384V173.006Z" fill="#DFF3FD"/>
<path d="M407.915 200.637H363.023V265.819H407.915V200.637Z" fill="#DFF3FD"/>
<path d="M351.389 131.91H375.547V125.365H351.389V131.91Z" fill="#DFF3FD"/>
<path d="M351.382 125.364H371.148V118.819H351.382V125.364Z" fill="#DFF3FD"/>
<path d="M351.38 118.819H366.953V112.273H351.38V118.819Z" fill="#DFF3FD"/>
<path d="M233.939 265.819H263.688V131.91H233.939L233.939 265.819Z" fill="#DFF3FD"/>
<path d="M315.322 265.819H345.07V88.555H315.322V265.819Z" fill="#DFF3FD"/>
<path d="M174.448 265.819H233.945V214H174.448V265.819Z" fill="#DFF3FD"/>
<path d="M248.82 265.818H308.586V67.6445H248.82L248.82 265.818Z" fill="#DFF3FD"/>
<path d="M233.943 131.91H258.102V125.364H233.943V131.91Z" fill="#DFF3FD"/>
<path d="M233.937 125.364H253.703V118.819H233.937V125.364Z" fill="#DFF3FD"/>
<path d="M233.943 118.819H249.516V112.273H233.943V118.819Z" fill="#DFF3FD"/>
<path d="M176.931 265.819H206.68L206.68 131.91H176.931L176.931 265.819Z" fill="#DFF3FD"/>
<path d="M236.428 154.546H206.68V265.819H236.428V154.546Z" fill="#DFF3FD"/>
<path d="M176.931 101.88H132.039V265.819H176.931V101.88Z" fill="#DFF3FD"/>
<path d="M176.935 131.91H201.094V125.365H176.935V131.91Z" fill="#DFF3FD"/>
<path d="M176.937 125.364H196.703V118.819H176.937V125.364Z" fill="#DFF3FD"/>
<path d="M176.927 118.818H192.5V112.273H176.927V118.818Z" fill="#DFF3FD"/>
<path d="M59.5013 265.819H89.25L89.25 131.91H59.5013L59.5013 265.819Z" fill="#DFF3FD"/>
<path d="M29.7513 265.819H59.5L59.5 154.546H29.7513L29.7513 265.819Z" fill="#DFF3FD"/>
<path d="M96.2513 265.819H126L126 135.976H96.2513L96.2513 265.819Z" fill="#DFF3FD"/>
<path d="M0.00129509 265.819H29.75L29.75 201.178H0.00129509L0.00129509 265.819Z" fill="#DFF3FD"/>
<path d="M74.3742 265.819H134.141V168.046H74.3742L74.3742 265.819Z" fill="#DFF3FD"/>
<path d="M59.5058 131.91H83.6641V125.365H59.5058V131.91Z" fill="#DFF3FD"/>
<path d="M27.3495 244H51.5078V237.454H27.3495V244Z" fill="#DFF3FD"/>
<path d="M59.4996 125.364H79.2656V118.819H59.4996V125.364Z" fill="#DFF3FD"/>
<path d="M59.4972 118.819H75.0703V112.273H59.4972V118.819Z" fill="#DFF3FD"/>
<path d="M187.937 173.637H227.047V167.091H187.937V173.637Z" fill="#DFF3FD"/>
<path d="M187.937 197.091H227.047V190.545H187.937V197.091Z" fill="#DFF3FD"/>
<path d="M187.937 220.546H227.047V214H187.937V220.546Z" fill="#DFF3FD"/>
<path d="M38.0307 220.546H77.1406V214H38.0307V220.546Z" fill="#DFF3FD"/>
<path d="M38.0307 244H77.1406V237.454H38.0307V244Z" fill="#DFF3FD"/>
</g>
<path d="M280.501 207.615C269.272 211.588 255.729 211.182 245.512 204.629C235.469 198.186 226.318 193.534 213.961 193.759C202.919 193.961 193.788 199.929 183.094 201.199C174.612 202.207 165.995 198.509 159.847 192.579C153.846 186.79 149.861 177.964 152.47 170.045C153.837 165.898 156.822 162.477 158.526 158.458C162.456 149.188 152.109 143.596 154.682 133.838C156.87 125.539 165.976 119.62 165.841 111.038C165.742 104.757 160.879 99.8878 159.166 94.0765C157.439 88.2128 157.821 81.6457 160.868 76.289C163.107 72.3535 166.705 69.1315 170.874 67.355C174.618 65.7598 178.801 65.7296 181.696 62.4579C186.856 56.6273 188.748 50.3083 195.828 46.0448C201.821 42.4358 209.736 42.2064 216.612 42.8364C231.891 44.2367 246.719 52.3012 255.325 65.1449C258.375 69.6967 260.576 74.3544 260.652 79.7643C260.735 85.6783 260.733 91.6269 264.357 96.6549C267.399 100.877 272.283 103.346 277.125 105.251C281.968 107.155 287.043 108.697 291.293 111.698C295.544 114.699 298.92 119.595 298.424 124.775C298.009 129.11 295.008 132.877 294.609 137.213C293.882 145.099 301.479 150.827 306.163 157.212C312.72 166.153 313.806 178.795 308.871 188.724C303.189 200.155 292.865 202.733 282.048 207.035C281.538 207.238 281.022 207.432 280.501 207.616V207.615Z" fill="#0B2D4E"/>
<path d="M198.859 60.182C202.573 58.0129 206.889 57.0182 211.177 56.847C215.48 56.6823 219.792 57.2361 223.971 58.2761C232.35 60.3855 239.982 65.3726 245.304 72.2324C247.935 75.6817 249.97 79.6057 251.178 83.7923C252.391 87.991 252.639 92.3818 252.589 96.6776C252.547 100.983 252.241 105.264 252.382 109.499C252.471 111.601 252.731 113.701 253.371 115.662C254.001 117.617 255.092 119.42 256.706 120.596C258.3 121.805 260.346 122.316 262.415 122.563C264.489 122.809 266.656 122.822 268.819 123.111C273.098 123.686 277.45 124.705 281.18 127.159C283.011 128.383 284.66 130.089 285.461 132.242C286.292 134.395 286.124 136.746 285.569 138.892C284.922 141.062 283.692 142.883 282.836 144.78C281.978 146.679 281.428 148.724 281.241 150.804C280.846 154.993 281.921 159.192 283.41 163.166C284.873 167.172 286.631 171.12 287.657 175.328C288.159 177.428 288.465 179.59 288.43 181.757C288.404 183.924 288.009 186.081 287.304 188.119C285.895 192.2 283.241 195.819 279.808 198.385C283.18 195.74 285.725 192.079 287.019 188.024C288.374 183.963 288.194 179.559 287.075 175.474C286.003 171.354 284.217 167.453 282.686 163.438C281.132 159.448 279.946 155.13 280.302 150.724C280.47 148.536 281.019 146.375 281.899 144.359C282.793 142.353 283.987 140.56 284.552 138.595C285.05 136.613 285.181 134.503 284.445 132.628C283.737 130.748 282.271 129.22 280.559 128.086C277.084 125.809 272.84 124.807 268.677 124.273C266.59 124 264.457 124 262.274 123.754C260.12 123.503 257.835 122.976 255.977 121.578C254.111 120.205 252.902 118.14 252.235 116.034C251.554 113.911 251.298 111.714 251.215 109.542C251.09 105.207 251.418 100.926 251.477 96.6625C251.544 92.4084 251.316 88.1406 250.161 84.0778C248.996 80.0257 247.073 76.1974 244.557 72.7977C239.46 66.0421 232.038 61.0465 223.821 58.8508C219.718 57.7274 215.454 57.0786 211.187 57.1433C206.933 57.2153 202.625 58.0985 198.862 60.1806L198.859 60.182Z" fill="#73B8D4"/>
<path d="M252.915 155.225C253.314 164.916 251.068 172.193 242.206 176.986C235.147 180.804 226.696 182.056 218.906 182.248C205.842 182.57 191.286 179.201 181.514 170.024C179.74 168.358 178.038 166.317 177.91 163.888C177.793 161.679 179.008 159.598 179.115 157.39C179.295 153.664 176.399 150.578 175.104 147.081C173.394 142.461 174.557 137.304 176.093 132.623C177.629 127.942 179.552 123.217 179.321 118.296C179.022 111.913 175.187 106.341 172.116 100.737C169.045 95.1335 166.628 88.3161 169.252 82.4898C170.981 78.6506 175.105 75.6983 179.318 75.2308C183.77 74.7367 187.77 79.8237 190.622 82.6264C194.459 86.3972 198.734 89.7221 203.334 92.5134C209.695 96.3734 216.679 99.2208 222.662 103.644C226.282 106.32 230.166 109.995 231.895 114.259C233.843 119.063 230.432 123.714 234.556 128.134C237.216 130.985 241.302 131.955 244.52 134.159C251.407 138.877 252.6 147.575 252.915 155.226V155.225Z" fill="#061F33"/>
<path d="M180.764 209.448C189.936 195.313 195.644 177.965 187.674 162.006C186.866 160.388 185.895 158.624 184.179 158.053C180.489 156.826 175.483 158.145 172.275 160.028C161.145 166.558 154.335 178.846 148.083 189.778C141.587 201.137 135.946 212.961 129.418 224.3C126.774 228.893 124.104 233.548 122.686 238.655C121.444 243.128 121.308 248.249 123.003 252.627C130.331 271.548 150.479 248.37 156.613 241.368C165.365 231.375 173.537 220.591 180.764 209.448Z" fill="#EFB126"/>
<path d="M263.76 193.634C266.397 182.47 267.764 171.048 261.789 163.443C259.091 160.009 254.283 157.617 250.349 155.917C242.675 152.6 234.83 148.141 226.616 146.696C217.955 145.172 208.324 144.232 199.692 146.412C194.209 147.797 189.08 150.359 184.178 153.123C179.923 155.522 174.705 157.587 172.64 162.051C167.636 172.867 163.194 184.15 159.51 195.482C156.428 204.963 153.044 214.9 157.901 224.509C159.475 227.623 161.761 230.288 163.561 233.263C165.566 236.576 166.314 239.689 166.576 243.511C167.176 252.233 166.943 260.98 166.918 269.714C166.911 272.231 166.944 274.847 168.046 277.11C170.218 281.571 176.122 281.634 180.376 281.627C194.395 281.602 208.413 281.579 222.432 281.554C228.264 281.544 232.721 282.258 238.197 283.384C242.805 284.331 246.761 282.005 248.972 277.718C251.065 273.659 251.224 268.918 251.448 264.357C252.321 246.61 254.839 228.945 258.958 211.66C260.125 206.766 262.17 200.366 263.76 193.636L263.76 193.634Z" fill="#FFC73C"/>
<path d="M231.289 161.158C234.589 155.607 235.338 148.671 231.016 143.323C229.039 140.878 225.543 140.604 222.554 140.548C216.67 140.437 210.773 141.062 205.043 142.403C199.581 143.681 194.012 145.845 191.647 151.359C189.889 155.456 190.503 160.196 192.818 163.943C194.921 167.348 198.41 169.868 202.303 170.795C208.589 172.291 215.947 172.09 221.944 169.572C225.702 167.995 229.072 164.889 231.29 161.158H231.289Z" fill="#EFB126"/>
<path d="M268.727 244.818C268.683 236.257 268.64 227.697 268.596 219.137C268.581 216.156 270.516 198.016 265.88 198.222C265.38 198.244 264.922 198.502 264.515 198.793C262.208 200.443 261.023 203.205 259.946 205.828C256.567 214.052 253.73 227.215 246.696 232.972C239.547 238.824 228.554 241.29 219.669 242.696C209.294 244.336 198.748 244.458 188.263 245.096C181.481 245.509 173.999 246.485 169.544 251.615C166.362 255.278 164.742 260.77 163.044 265.245C161.559 269.156 160.376 273.803 163.39 277.345C164.676 278.857 166.46 279.849 168.254 280.695C174.798 283.78 181.95 285.335 189.084 286.529C209.051 289.87 229.403 290.565 249.624 289.601C253.948 289.396 258.636 288.965 261.825 286.038C264.198 283.86 265.316 280.655 266.112 277.534C268.821 266.902 268.781 255.788 268.726 244.817L268.727 244.818Z" fill="#EFB126"/>
<path d="M173.116 98.6209C165.467 106.491 172.405 125.722 184.604 122.939C197.712 119.948 195.74 99.5207 183.887 96.167C179.265 94.8587 175.578 96.0879 173.116 98.6209Z" fill="#57B8E8"/>
<path d="M277.544 206.324C285.211 207.301 293.287 206.629 300.135 203.045C308.853 198.482 313.216 190.117 313.396 180.492C313.527 173.52 312.178 166.253 307.969 160.693C303.393 154.648 295.723 150.931 292.877 143.904C291.034 139.353 291.476 133.157 295.12 129.636C297.44 127.394 299.255 124.867 298.957 121.506C298.519 116.562 294.902 111.812 290.862 109.142C284.938 105.226 277.57 103.794 270.638 102.913C265.944 102.317 261.266 100.997 259.813 95.9413C259.03 93.2133 259.185 90.3358 259.038 87.5323C258.726 81.5542 258.288 75.5761 257.395 69.6534C256.366 62.8252 251.932 56.2215 246.986 51.5171C246.276 50.8418 245.539 50.1952 244.778 49.5781C232.03 39.251 208.432 35.5923 194.37 45.1636C189.576 48.4274 186.217 53.4208 185.149 59.1307C184.434 62.9461 183.401 63.7674 179.672 64.9246C172.9 67.0262 165.215 68.5178 159.837 73.4854C155.629 77.3713 153.695 83.2551 154.255 88.9002C154.97 96.1067 160.009 99.5553 163.617 105.267C167.3 111.097 164.404 118.435 160.127 123.246C156.832 126.951 152.157 129.659 150.296 134.254C148.583 138.483 149.717 143.37 151.785 147.437C152.623 149.084 153.609 150.657 154.35 152.351C156.604 157.505 156.371 163.682 153.736 168.651" stroke="#0B2D4E" stroke-width="15" stroke-miterlimit="10"/>
<path d="M299.277 217.475C301.622 221.705 303.952 225.942 306.24 230.205C310.884 238.858 319.508 258.084 305.703 262.834C298.748 265.227 294.77 262.888 290.172 257.82C272.779 238.65 257.948 217.163 246.195 194.107C241.821 185.526 230.206 163.164 244.314 158.054C248.768 156.441 253.903 156.816 258.076 159.06C259.984 160.087 261.675 161.469 263.292 162.91C273.473 171.99 280.724 183.705 287.174 195.588C291.159 202.931 295.241 210.193 299.278 217.475H299.277Z" fill="#FFC73C"/>
<path d="M219.341 163.989C223.542 162.641 227.002 160.03 228.298 155.879C229.475 152.112 227.62 147.874 227.289 144.072C226.973 140.43 226.932 136.765 227.171 133.117C227.393 129.745 227.715 126.232 227.197 122.87C226.902 120.949 225.847 121.278 223.903 120.514C221.961 119.751 219.78 119.744 217.668 119.749C213.344 119.759 202.072 119.445 199.399 123.24C198.172 124.982 198.076 127.174 198.017 129.248C197.947 131.752 197.504 134.994 197.093 138.488C196.911 140.043 197.023 141.592 196.785 143.137C196.519 144.867 195.862 146.525 195.287 148.182C193.112 154.447 195.149 160.406 201.923 163.275C206.785 165.333 213.725 165.79 219.342 163.989H219.341Z" fill="#F8A17A"/>
<path d="M227.177 122.87C226.883 120.949 225.828 121.278 223.885 120.514C221.942 119.751 219.762 119.744 217.649 119.749C213.325 119.76 202.053 119.446 199.381 123.241C198.154 124.983 198.057 127.175 197.999 129.248C197.929 131.753 197.486 134.995 197.075 138.488C196.892 140.043 197.005 141.593 196.767 143.138C196.564 144.455 196.135 145.73 195.688 146.995C199.879 148.551 204.614 148.899 208.986 147.822C216.864 145.883 222.83 140.98 227.085 134.605C227.107 134.11 227.121 133.613 227.154 133.118C227.375 129.745 227.697 126.232 227.179 122.87H227.177Z" fill="#E5785C"/>
<path d="M233.46 98.184C233.425 92.4101 232.628 86.9326 231.143 82.3843C224.733 62.76 200.253 57.9118 185.512 71.9982C169.073 87.7072 175.363 125.267 192.679 138.461C197.309 141.989 203.6 143.228 209.223 141.721C226.235 137.158 233.568 116.222 233.461 98.1847L233.46 98.184Z" fill="#F8A17A"/>
<path d="M230.238 98.6692C237.769 94.551 240.087 104.979 238.792 110.169C238.257 112.312 237.41 114.403 236.08 116.165C234.288 118.54 229.163 122.48 226.211 119.882C224.871 118.703 224.733 116.7 224.692 114.915C224.581 110.132 225.132 101.46 230.238 98.6692Z" fill="#F8A17A"/>
<path d="M205.699 133.019C203.853 133.019 201.994 132.883 200.133 132.608L200.466 130.349C207.226 131.346 213.966 130.405 219.96 127.626C221.588 126.872 222.968 126.079 224.178 125.203C226.38 123.608 228.269 121.525 229.642 119.179L231.613 120.333C230.081 122.95 227.973 125.273 225.518 127.052C224.187 128.016 222.683 128.881 220.92 129.698C216.176 131.897 210.995 133.019 205.699 133.019Z" fill="#2F95D2"/>
<path d="M193.541 128.549C196.295 126.186 202.42 126.389 204.439 128.842C205.936 130.661 205.479 132.969 203.832 134.507C201.883 136.325 199.472 136.22 197.04 135.672C193.996 134.986 190.223 131.398 193.542 128.549H193.541Z" fill="#2F95D2"/>
<path d="M233.491 83.1929C226.742 62.5321 200.969 57.4279 185.449 72.2587C182.02 75.5347 179.545 79.7227 177.898 84.4263C178.244 84.9614 178.631 85.4979 179.095 86.0359C181.224 88.5021 184.163 90.1138 187.122 91.4811C195.761 95.4748 205.074 97.8187 214.429 99.5722C215.118 99.7009 215.812 99.8289 216.504 99.9656C219.08 100.473 221.636 101.108 223.885 102.434C230.243 106.182 227.509 114.425 232.166 118.037C232.588 118.364 233.014 118.575 233.439 118.725C235.16 112.573 235.967 106.039 235.93 99.8289C235.894 93.7494 235.055 87.9828 233.491 83.1943V83.1929Z" fill="#E5785C"/>
<path d="M217.174 97.6044C219.636 98.517 222.059 99.5513 224.067 101.218C229.747 105.932 225.732 113.634 229.755 117.943C233.319 121.761 238.731 116.716 240.148 113.19C242.76 106.694 242.606 99.4635 242.414 92.4649C242.307 88.5617 242.19 84.6032 241.046 80.8698C239.798 76.7976 237.366 73.1641 234.471 70.0399C226.112 61.0203 213.497 56.3318 201.284 57.1013C191.733 57.7026 174.978 65.729 182.466 77.8879C184.175 80.6626 186.819 82.7218 189.521 84.5435C197.413 89.8642 206.232 93.6638 215.189 96.8859C215.848 97.1232 216.513 97.3598 217.174 97.6051V97.6044Z" fill="#0B2D4E"/>
<path d="M233.394 95.7024C222.762 98.4289 218.654 118.456 230.514 122.443C243.258 126.727 252.228 108.268 243.864 99.2258C240.602 95.6995 236.816 94.825 233.394 95.7024Z" fill="#57B8E8"/>
<path d="M236.886 98.2728C229.548 99.4523 225.027 115.043 232.59 119.334C240.717 123.945 248.343 110.061 243.563 102.064C241.699 98.9453 239.248 97.8931 236.886 98.2728Z" fill="#2F95D2"/>
<path d="M238.365 97.1036L235.53 96.7756C237.453 80.154 236.634 58.9171 221.808 52.1335C214.787 48.9215 194.68 45.3571 185.832 57.2989C184.767 58.4942 184.055 59.4961 184.055 59.4961C189.542 42.563 215.417 46.0706 222.995 49.5379C239.379 57.0349 240.396 79.5419 238.364 97.1036H238.365Z" fill="#57B8E8"/>
<path d="M184.82 253.544H126.789V264.905H184.82V253.544Z" fill="#2F95D2"/>
<path d="M136.736 254.646L122.091 180.085C121.704 178.115 119.977 176.695 117.971 176.695H20.6098C19.2002 176.695 17.9926 177.392 17.2353 178.426L17.2223 178.414L12.7266 183.73L16.7153 182.855L31.1348 256.264C31.5217 258.234 33.2478 259.654 35.2551 259.654H132.616C135.26 259.654 137.246 257.24 136.736 254.646Z" fill="#2F95D2"/>
<path d="M30.8075 264.905H128.168C130.812 264.905 132.798 262.491 132.288 259.897L117.643 185.336C117.256 183.366 115.529 181.946 113.522 181.946H16.1615C13.5177 181.946 11.5312 184.361 12.0411 186.955L26.6871 261.515C27.0741 263.485 28.8002 264.905 30.8075 264.905Z" fill="#0B2D4E"/>
<path d="M61.429 221.579C62.3273 226.608 67.1323 230.685 72.1618 230.685C77.1912 230.685 80.4823 226.608 79.5121 221.579C78.5419 216.549 73.7368 212.472 68.7793 212.472C63.8218 212.472 60.5307 216.549 61.429 221.579Z" fill="#2F95D2"/>
<path d="M341.044 220.391C342.117 218.173 341.925 215.84 341.248 213.726C340.598 211.564 339.437 209.702 338.18 207.666C336.91 205.66 335.613 203.472 334.819 200.837C334.013 198.173 334.244 195.187 334.984 192.661C336.584 187.508 339.859 183.711 342.115 179.826C343.246 177.861 344.171 175.864 344.537 173.655C344.948 171.467 344.807 169.136 343.732 166.939C345.596 168.569 346.499 171.213 346.621 173.772C346.738 176.358 346.085 178.982 345.094 181.289C343.135 185.967 340.199 189.766 339.057 193.873C338.409 195.906 338.25 197.875 338.71 199.847C339.094 201.868 340.151 203.909 341.102 206.121C342.111 208.281 343.076 210.778 343.291 213.345C343.509 215.875 342.93 218.734 341.046 220.391H341.044Z" fill="white"/>
<path d="M327.57 223.223H356.504V257.939C356.504 261.652 353.489 264.666 349.777 264.666H334.299C330.585 264.666 327.571 261.652 327.571 257.939V223.223H327.57Z" fill="#57B8E8"/>
<path d="M358.523 232.597C351.585 232.597 345.961 238.304 345.961 245.344C345.961 252.385 351.586 258.092 358.523 258.092C365.461 258.092 371.086 252.385 371.086 245.344C371.086 238.304 365.462 232.597 358.523 232.597ZM358.523 253.546C354.059 253.546 350.441 249.874 350.441 245.344C350.441 240.815 354.059 237.143 358.523 237.143C362.988 237.143 366.606 240.815 366.606 245.344C366.606 249.874 362.988 253.546 358.523 253.546Z" fill="#57B8E8"/>
<path opacity="0.2" d="M331.9 248.936C331.04 248.936 330.336 248.232 330.336 247.372V227.202C330.336 226.342 331.04 225.638 331.9 225.638C332.76 225.638 333.465 226.342 333.465 227.202V247.372C333.465 248.232 332.76 248.936 331.9 248.936Z" fill="white"/>
<path d="M349.827 223.223V257.339C349.827 261.386 346.547 264.666 342.5 264.666H349.182C353.229 264.666 356.51 261.385 356.51 257.339V223.223H349.827Z" fill="#2F95D2"/>
<path d="M279.89 71.9814L380.491 71.9814C385.445 71.9814 389.461 67.9654 389.461 63.0114V8.96996C389.461 4.01597 385.445 -3.05176e-05 380.491 -3.05176e-05L279.89 -3.05176e-05C274.936 -3.05176e-05 270.92 4.01597 270.92 8.96996V63.0114C270.92 67.9654 274.936 71.9814 279.89 71.9814Z" fill="#0098D7"/>
<path d="M286.516 90.928V57.8501L312.422 71.9804L286.516 90.928Z" fill="#0098D7"/>
<path d="M292.108 32.9517H344.511C346.243 32.9517 347.65 34.3584 347.65 36.091V36.0925C347.65 37.825 346.243 39.2318 344.511 39.2318H292.108C290.376 39.2318 288.969 37.825 288.969 36.0925V36.091C288.969 34.3584 290.376 32.9517 292.108 32.9517Z" fill="#E1F4FD"/>
<path d="M355.311 32.9517H368.266C369.998 32.9517 371.405 34.3584 371.405 36.091V36.0925C371.405 37.825 369.998 39.2318 368.266 39.2318H355.311C353.579 39.2318 352.172 37.825 352.172 36.0925V36.091C352.172 34.3584 353.579 32.9517 355.311 32.9517Z" fill="#E1F4FD"/>
<path d="M368.259 24.9702L315.857 24.9702C314.124 24.9702 312.717 23.5634 312.717 21.8309V21.8294C312.717 20.0968 314.124 18.6901 315.857 18.6901L368.259 18.6901C369.992 18.6901 371.398 20.0968 371.398 21.8294V21.8309C371.398 23.5634 369.992 24.9702 368.259 24.9702Z" fill="#E1F4FD"/>
<path d="M305.064 24.9702L292.109 24.9702C290.377 24.9702 288.97 23.5634 288.97 21.8309V21.8294C288.97 20.0968 290.377 18.6901 292.109 18.6901H305.064C306.796 18.6901 308.203 20.0968 308.203 21.8294V21.8309C308.203 23.5634 306.796 24.9702 305.064 24.9702Z" fill="#E1F4FD"/>
<path d="M292.108 45.9897H327.044C328.776 45.9897 330.183 47.3965 330.183 49.1291V49.1305C330.183 50.8631 328.776 52.2699 327.044 52.2699H292.108C290.376 52.2699 288.969 50.8631 288.969 49.1305V49.1291C288.969 47.3965 290.376 45.9897 292.108 45.9897Z" fill="#E1F4FD"/>
<path d="M231.374 247.687C232.561 247.484 233.75 247.288 234.942 247.101C240.733 246.192 246.502 245.114 252.239 243.866C263.599 241.397 275.025 239.275 286.59 238.18C287.816 238.063 289.043 237.959 290.27 237.866C295.454 237.475 300.887 237.347 305.633 239.826C310.379 242.304 314.153 248.17 312.994 253.824C312.18 257.796 309.142 260.786 305.767 262.293C302.393 263.8 298.677 264.062 295.032 264.308C283.224 265.102 271.417 265.897 259.609 266.692C253.763 267.082 247.918 267.486 242.073 267.892C236.49 268.281 230.823 269.069 225.226 269.063C222.858 269.06 220.214 268.617 218.225 267.037C215.459 264.841 213.795 260.165 213.527 256.511C213.388 254.614 213.759 252.311 215.211 251.136C215.99 250.508 216.979 250.316 217.931 250.14C222.418 249.314 226.884 248.453 231.373 247.686L231.374 247.687Z" fill="#FFC73C"/>
<path d="M218.122 265.679C215.267 266.268 213.036 268.775 210.194 269.615C208.166 270.214 205.995 269.894 204.047 269.163C202.255 268.491 200.433 268.132 198.594 267.543C197.16 267.084 195.225 266.117 193.684 266.438C189.648 267.278 185.623 270.151 181.965 272.015C181.142 272.434 180.241 272.866 179.334 272.694C178.427 272.522 177.67 271.422 178.187 270.656C177.135 271.639 175.741 273.606 174.043 272.843C173.348 272.531 172.929 271.611 173.314 270.955C172.731 271.595 172.117 272.256 171.312 272.574C170.506 272.892 169.449 272.753 168.974 272.029C168.751 271.688 168.684 271.268 168.664 270.861C168.594 269.46 169.017 268.076 169.601 266.801C172.483 260.513 178.999 255.848 184.543 252.101C185.524 251.438 186.523 250.766 187.655 250.421C188.669 250.111 189.742 250.077 190.802 250.072C197.677 250.041 204.557 251.153 211.073 253.348C212.483 253.822 214.036 253.418 215.441 253.155C216.482 252.96 217.569 252.767 218.586 253.064C219.723 253.396 220.604 254.297 221.297 255.258C222.571 257.026 223.545 259.366 223.393 261.586C223.278 263.273 223.15 265.092 221.165 265.446C220.361 265.589 219.534 265.5 218.722 265.585C218.518 265.606 218.319 265.638 218.122 265.679H218.122Z" fill="#F8A17A"/>
</svg>
