<svg width="23" height="21" viewBox="0 0 23 21" fill="none" xmlns="http://www.w3.org/2000/svg">
<path d="M0.739468 19.1431L1.72424 13.4311C1.72099 13.4053 1.72099 13.3792 1.72424 13.3535C1.76033 13.2187 1.77921 13.0799 1.78042 12.9404V3.89153C1.78042 3.12465 2.08506 2.38918 2.62733 1.84691C3.1696 1.30464 3.90507 1 4.67195 1H18.9462C19.7138 0.999997 20.45 1.3044 20.9935 1.84646C21.5369 2.38851 21.8432 3.12397 21.8452 3.89153V13.7401C21.851 14.1215 21.7816 14.5002 21.641 14.8548C21.5004 15.2093 21.2913 15.5327 21.0257 15.8064C20.7601 16.0801 20.4432 16.2989 20.0931 16.4501C19.7429 16.6013 19.3664 16.6821 18.9851 16.6878H8.79446C8.52996 16.6898 8.27055 16.7607 8.04183 16.8935L1.75151 19.9313C1.6313 19.988 1.49772 20.0103 1.36562 19.9956C1.23352 19.981 1.10807 19.93 1.0032 19.8483C0.89834 19.7667 0.818175 19.6575 0.771616 19.533C0.725057 19.4085 0.713929 19.2736 0.739468 19.1431ZM7.38752 15.6279C7.8188 15.394 8.30137 15.2708 8.79198 15.2693H18.9462C19.1419 15.2693 19.3356 15.2307 19.5163 15.1557C19.6969 15.0807 19.8611 14.9708 19.9992 14.8323C20.1373 14.6938 20.2468 14.5293 20.3213 14.3485C20.3958 14.1676 20.4338 13.9737 20.4333 13.7781V3.90558C20.4341 3.70961 20.3962 3.51542 20.3218 3.3341C20.2475 3.15278 20.1382 2.98789 20 2.84886C19.8619 2.70983 19.6978 2.59938 19.517 2.52384C19.3361 2.44829 19.1422 2.40913 18.9462 2.40859H4.70004C4.30598 2.40968 3.92837 2.5667 3.64973 2.84535C3.37108 3.12399 3.21406 3.5016 3.21297 3.89567V12.942C3.21309 13.2012 3.17751 13.4592 3.10722 13.7087L2.36368 18.0353L7.38752 15.6279Z" fill="white" stroke="white" stroke-width="0.55"/>
<path d="M11.717 11.9952C11.473 11.9894 11.2362 12.0782 11.0561 12.2431C10.965 12.3274 10.8922 12.4296 10.8423 12.5433C10.7924 12.657 10.7665 12.7798 10.7661 12.904C10.7528 13.0327 10.7681 13.1628 10.811 13.2849C10.8538 13.407 10.9231 13.5182 11.014 13.6103C11.1936 13.7777 11.4294 13.8717 11.6749 13.8739C11.9164 13.876 12.1507 13.7919 12.3358 13.6368C12.516 13.4703 12.6226 13.2391 12.6324 12.9941C12.6421 12.749 12.5542 12.5101 12.3879 12.3298L12.3755 12.3158C12.2949 12.2185 12.1945 12.1395 12.081 12.0842C11.9674 12.0289 11.8433 11.9986 11.717 11.9952Z" fill="white" stroke="white" stroke-width="0.25"/>
<path d="M13.4895 4.35253C13.017 4.12369 12.4994 4.00317 11.9744 3.99977C11.4105 3.97658 10.8499 4.09681 10.3452 4.34923C9.90903 4.56098 9.53654 4.88416 9.2654 5.28609C9.0202 5.61903 8.87672 6.01589 8.85232 6.42866C8.85149 6.5253 8.8704 6.62109 8.90791 6.71017C8.94541 6.79924 9.00071 6.87971 9.07043 6.94665C9.14129 7.0232 9.22715 7.08434 9.32266 7.12627C9.41817 7.1682 9.52129 7.19002 9.6256 7.19037C9.81201 7.19046 9.99249 7.12482 10.1353 7.00499C10.2781 6.88517 10.374 6.71883 10.4063 6.53523C10.5169 6.18 10.7019 5.85244 10.9491 5.57441C11.0819 5.45918 11.2367 5.37209 11.4041 5.31841C11.5715 5.26473 11.7481 5.24558 11.9231 5.26213C12.2594 5.25737 12.5847 5.38187 12.8319 5.60994C12.9433 5.71289 13.0313 5.83865 13.0897 5.97865C13.1482 6.11865 13.1758 6.2696 13.1706 6.42122C13.1676 6.57915 13.1246 6.73374 13.0459 6.87065C12.9658 7.00653 12.867 7.13056 12.7526 7.23911C12.6336 7.35147 12.4469 7.51339 12.1908 7.7348C11.9347 7.95621 11.6604 8.19662 11.4853 8.35937C11.3106 8.54304 11.1672 8.75401 11.0606 8.98395C10.9489 9.25938 10.8928 9.55419 10.8954 9.85141C10.8817 9.96326 10.8918 10.0767 10.9252 10.1844C10.9585 10.292 11.0142 10.3914 11.0887 10.476C11.2266 10.6123 11.4128 10.6886 11.6067 10.6883C11.6941 10.6955 11.7821 10.6855 11.8656 10.6587C11.9491 10.632 12.0265 10.589 12.0934 10.5323C12.1603 10.4756 12.2154 10.4063 12.2555 10.3283C12.2956 10.2503 12.3199 10.1652 12.3271 10.0778V10.0621C12.3709 9.86876 12.4097 9.73161 12.4337 9.65643C12.4566 9.57654 12.4879 9.49928 12.527 9.42594C12.5822 9.33776 12.6452 9.2548 12.7154 9.17809C12.8181 9.06459 12.9285 8.95831 13.0459 8.86002C13.5416 8.43538 13.8885 8.1297 14.0819 7.95126C14.2769 7.76856 14.4439 7.5581 14.5776 7.32668C14.7256 7.05232 14.8028 6.74536 14.8023 6.43361C14.8089 6.01158 14.6911 5.59694 14.4636 5.24147C14.2259 4.86169 13.8896 4.55426 13.4895 4.35253Z" fill="white" stroke="white" stroke-width="0.25"/>
</svg>
