<svg xmlns="http://www.w3.org/2000/svg" width="26.122" height="23.563" viewBox="0 0 26.122 23.563">
  <g id="noun_help_2834391" data-name="noun help 2834391" transform="translate(-4.19 -2.819)">
    <g id="Layer_2" data-name="Layer 2" transform="translate(4.472 3.094)">
      <path id="Path_6602" data-name="Path 6602" d="M4.49,25.055l1.192-6.914a.376.376,0,0,1,0-.094,2,2,0,0,0,.068-.5V6.594a3.5,3.5,0,0,1,3.5-3.5H26.528a3.509,3.509,0,0,1,3.509,3.5V18.515a3.515,3.515,0,0,1-3.462,3.568H14.24a1.841,1.841,0,0,0-.911.249L5.715,26.009a.87.87,0,0,1-1.225-.954ZM12.537,20.8a3.589,3.589,0,0,1,1.7-.434H26.528a1.8,1.8,0,0,0,1.8-1.805V6.611a1.805,1.805,0,0,0-1.8-1.812H9.284a1.805,1.805,0,0,0-1.8,1.8v10.95a3.416,3.416,0,0,1-.128.928l-.9,5.237Z" transform="translate(-4.472 -3.094)" fill="#593cc7" stroke="#593cc7" stroke-width="0.55"/>
      <g id="Group_8259" data-name="Group 8259" transform="translate(9.837 2.627)">
        <path id="Path_6603" data-name="Path 6603" d="M40.677,40.152a1.144,1.144,0,0,0-.8.3,1.094,1.094,0,0,0-.351.8,1.062,1.062,0,0,0,.3.855,1.189,1.189,0,0,0,.8.319,1.229,1.229,0,0,0,.8-.287,1.12,1.12,0,0,0,.063-1.582l-.015-.017A1.072,1.072,0,0,0,40.677,40.152Z" transform="translate(-37.208 -29.47)" fill="#593cc7" stroke="#593cc7" stroke-width="0.25"/>
        <path id="Path_6604" data-name="Path 6604" d="M37.834,12.8A4.271,4.271,0,0,0,36,12.373a4.038,4.038,0,0,0-1.972.423,3.332,3.332,0,0,0-1.307,1.134,2.59,2.59,0,0,0-.5,1.383.859.859,0,0,0,.264.627.92.92,0,0,0,.672.295.959.959,0,0,0,.945-.793,3.166,3.166,0,0,1,.657-1.163,1.573,1.573,0,0,1,1.179-.378,1.589,1.589,0,0,1,1.1.421,1.278,1.278,0,0,1,.41.982,1.135,1.135,0,0,1-.151.544,2.049,2.049,0,0,1-.355.446c-.144.136-.37.332-.68.6s-.642.559-.854.756a2.815,2.815,0,0,0-.514.756,2.729,2.729,0,0,0-.2,1.05.966.966,0,0,0,.234.756.89.89,0,0,0,.627.257.808.808,0,0,0,.872-.739l0-.019c.053-.234.1-.4.129-.491a1.432,1.432,0,0,1,.113-.279,2.066,2.066,0,0,1,.228-.3,4.024,4.024,0,0,1,.4-.385c.6-.514,1.02-.884,1.254-1.1a3.291,3.291,0,0,0,.6-.756,2.268,2.268,0,0,0,.272-1.081,2.6,2.6,0,0,0-.41-1.443A2.969,2.969,0,0,0,37.833,12.8Z" transform="translate(-32.22 -11.369)" fill="#593cc7" stroke="#593cc7" stroke-width="0.25"/>
      </g>
    </g>
  </g>
</svg>
