<svg width="15" height="12" viewBox="0 0 15 12" fill="none" xmlns="http://www.w3.org/2000/svg">
<path fill-rule="evenodd" clip-rule="evenodd" d="M12.2125 0.171245C12.3465 0.0545738 12.5188 -0.00639196 12.695 0.000531121C12.8713 0.0074542 13.0385 0.0817562 13.1632 0.208589C13.2879 0.335422 13.361 0.505444 13.3678 0.684679C13.3746 0.863914 13.3146 1.03916 13.1999 1.1754L12.0584 2.33623C13.2246 3.09932 14.1869 4.14402 14.8596 5.37718C14.9558 5.55627 15.0062 5.75708 15.0062 5.96116C15.0062 6.16524 14.9558 6.36605 14.8596 6.54513C13.8558 8.38914 12.2174 9.79088 10.2591 10.481C8.3008 11.1711 6.16082 11.101 4.25032 10.284L2.80074 11.7511C2.66678 11.8677 2.49445 11.9287 2.31821 11.9218C2.14197 11.9149 1.97478 11.8406 1.85007 11.7137C1.72535 11.5869 1.65229 11.4169 1.64548 11.2376C1.63867 11.0584 1.69862 10.8832 1.81335 10.7469L12.2125 0.171245ZM5.57385 8.93089L6.60326 7.89113C6.88506 8.02883 7.19399 8.09946 7.50662 8.09765C8.0638 8.09765 8.59816 7.87256 8.99214 7.47189C9.38612 7.07122 9.60746 6.52779 9.60746 5.96116C9.60574 5.64361 9.53646 5.33021 9.40438 5.04246L10.4268 3.99558C10.7761 4.53222 10.9759 5.15511 11.0049 5.79801C11.0339 6.44091 10.891 7.07979 10.5915 7.64669C10.2919 8.2136 9.84686 8.68735 9.30368 9.01756C8.76049 9.34777 8.13946 9.52209 7.50662 9.52199C6.81885 9.52514 6.14583 9.31931 5.57385 8.93089Z" fill="#83838B"/>
<path d="M4.00521 5.96115C4.00583 6.21478 4.03164 6.4677 4.08224 6.71605L1.9814 8.85255C1.24283 8.20023 0.62193 7.42178 0.146666 6.55225C0.0504361 6.37317 4.79078e-06 6.17236 4.79078e-06 5.96828C4.79078e-06 5.7642 0.0504361 5.56339 0.146666 5.3843C1.03897 3.74407 2.4368 2.44769 4.12486 1.69486C5.81291 0.942034 7.69753 0.774522 9.4884 1.21813L8.24891 2.47866C8.0047 2.42721 7.75601 2.40096 7.50661 2.40032C6.57798 2.40032 5.68739 2.77548 5.03075 3.44327C4.37411 4.11105 4.00521 5.01676 4.00521 5.96115Z" fill="#83838B"/>
</svg>
