<svg xmlns="http://www.w3.org/2000/svg" xmlns:xlink="http://www.w3.org/1999/xlink" width="40.168" height="40" viewBox="0 0 40.168 40">
  <defs>
    <clipPath id="clip-path">
      <rect id="Rectangle_2241" data-name="Rectangle 2241" width="40.168" height="40" fill="#8dd0e8"/>
    </clipPath>
  </defs>
  <g id="Group_2336" data-name="Group 2336" transform="translate(0 0)">
    <g id="Group_2335" data-name="Group 2335" transform="translate(0 0.001)" clip-path="url(#clip-path)">
      <path id="Path_4024" data-name="Path 4024" d="M4.821,8.713a9.18,9.18,0,0,0,4.01,1.156,2.255,2.255,0,0,0,2.157-1.025L12.274,6.4c.228-.433.448-1.361-.643-2.709A9.633,9.633,0,0,0,8.68,1.39,9.631,9.631,0,0,0,5.112.259c-1.73-.138-2.371.567-2.6,1L1.227,3.7C.383,5.3,2.4,7.434,4.821,8.713M3.734,1.9c.077-.146.4-.281.958-.281.1,0,.2,0,.309.013a8.354,8.354,0,0,1,3.034.979,8.34,8.34,0,0,1,2.523,1.952c.468.579.584,1.026.494,1.2s-.526.329-1.267.269a8.354,8.354,0,0,1-3.034-.979A8.37,8.37,0,0,1,4.228,3.1c-.471-.581-.588-1.021-.494-1.2M2.448,4.343l.413-.784c.092.141.191.278.3.41a9.614,9.614,0,0,0,2.951,2.3A9.629,9.629,0,0,0,9.677,7.406c.151.012.294.018.428.018a.471.471,0,0,0,.077,0L9.768,8.2c-.226.43-2.033.488-4.3-.71S2.221,4.774,2.448,4.343" transform="translate(-0.32 -0.075)" fill="#8dd0e8"/>
      <path id="Path_4025" data-name="Path 4025" d="M44.352,45.951c-1.683.424-2.063,1.3-2.139,1.782l-.435,2.724c-.077.483.012,1.433,1.478,2.359a9.625,9.625,0,0,0,3.535,1.235,11.54,11.54,0,0,0,1.8.146c2.06,0,3.857-.61,4.077-2l.435-2.724c.077-.483-.012-1.434-1.479-2.359a10.593,10.593,0,0,0-7.277-1.163Zm6.96,6.029c-.077.483-1.77,1.113-4.3.71a8.389,8.389,0,0,1-3.013-1.039c-.632-.4-.883-.778-.852-.975l.138-.876q.2.157.414.293a9.615,9.615,0,0,0,3.536,1.234,11.444,11.444,0,0,0,1.8.147,7.327,7.327,0,0,0,2.421-.369Zm.434-2.725c-.077.483-1.77,1.116-4.3.71a8.349,8.349,0,0,1-3.016-1.039c-.629-.4-.883-.784-.853-.975s.389-.483,1.115-.662a6.713,6.713,0,0,1,1.613-.176,10.071,10.071,0,0,1,1.577.128,8.331,8.331,0,0,1,3.012,1.039c.636.4.887.778.856.975" transform="translate(-12.96 -14.198)" fill="#8dd0e8"/>
      <path id="Path_4026" data-name="Path 4026" d="M31.7,44.209h0c-.739-1.655-3.66-1.386-6.162-.268s-4.65,3.116-3.912,4.769l1.126,2.519c.2.439.773,1.168,2.439,1.168h.088a9.626,9.626,0,0,0,3.635-.9c2.5-1.118,4.651-3.115,3.912-4.769l-.63.281.63-.281Zm-8.812,3.939c-.2-.444.872-1.9,3.215-2.948a8.059,8.059,0,0,1,3.172-.778c.657,0,1.08.147,1.172.349.2.444-.872,1.9-3.215,2.947s-4.146.873-4.345.43m5.466,2.09a8.363,8.363,0,0,1-3.094.779c-.749.013-1.167-.174-1.246-.35l-.357-.8c.128.01.259.016.392.016a9.635,9.635,0,0,0,3.742-.906,9.1,9.1,0,0,0,3.422-2.486l.357.8c.2.444-.872,1.9-3.215,2.947" transform="translate(-6.666 -13.356)" fill="#8dd0e8"/>
      <path id="Path_4027" data-name="Path 4027" d="M.039,14.773,5.477,30.406a.689.689,0,0,0,.878.425l1.088-.379,2.149,3.1a.688.688,0,0,0,.443.286.667.667,0,0,0,.123.012.69.69,0,0,0,.393-.123L23.145,24.99,37.62,19.955a.69.69,0,0,0,.426-.878L32.606,3.443a.689.689,0,0,0-.877-.425L30.642,3.4,28.492.3a.689.689,0,0,0-.959-.174L14.939,8.859.464,13.894a.69.69,0,0,0-.425.878h0M10.333,32.2,8.8,29.982l9.494-3.3ZM27.751,1.651l1.537,2.217L19.794,7.173Zm3.78,2.9,4.986,14.33L6.552,29.3,1.568,14.971Z" transform="translate(0 -0.001)" fill="#8dd0e8"/>
      <path id="Path_4028" data-name="Path 4028" d="M9.409,30.279a.681.681,0,0,0,.226-.039L35.69,21.176a.69.69,0,0,0,.424-.878L32.488,9.876a.69.69,0,0,0-.878-.424L5.556,18.516a.69.69,0,0,0-.424.878L8.757,29.819a.689.689,0,0,0,.652.46m22-19.3L34.584,20.1,9.832,28.711,6.661,19.592Z" transform="translate(-1.581 -2.922)" fill="#8dd0e8"/>
      <path id="Path_4029" data-name="Path 4029" d="M26.062,26.438a3.448,3.448,0,1,0-3.26-2.316,3.449,3.449,0,0,0,3.26,2.316m-.683-5.4a2.052,2.052,0,1,1-.032.011l.032-.011" transform="translate(-7.017 -6.065)" fill="#8dd0e8"/>
      <rect id="Rectangle_2237" data-name="Rectangle 2237" width="1" height="4" transform="translate(31 24)" fill="#8dd0e8"/>
      <rect id="Rectangle_2238" data-name="Rectangle 2238" width="1" height="6" transform="translate(34 23)" fill="#8dd0e8"/>
      <rect id="Rectangle_2239" data-name="Rectangle 2239" width="1" height="4" transform="translate(0 8)" fill="#8dd0e8"/>
      <rect id="Rectangle_2240" data-name="Rectangle 2240" width="1" height="1" transform="translate(3 10)" fill="#8dd0e8"/>
    </g>
  </g>
</svg>
