<svg xmlns="http://www.w3.org/2000/svg" width="19.679" height="17.702" viewBox="0 0 19.679 17.702"><defs><style>.a{fill:#341793;stroke:#341793;stroke-width:0.9px;}</style></defs><path class="a" d="M107.051,224.287q.939,1.815,1.888,3.623a1.175,1.175,0,0,0,1.7.542q1.84-.95,3.673-1.913a1.178,1.178,0,1,0-1.077-2.095c-.517.26-1.028.532-1.542.8a5.179,5.179,0,0,1,1.754-2.473,6.024,6.024,0,1,1-.345,9.059,1.261,1.261,0,0,0-1.267-.418,1.168,1.168,0,0,0-.512,1.982,8.141,8.141,0,0,0,4.412,2.3,8.384,8.384,0,1,0-6.074-11.824c-.02.041-.043.081-.084.155-.15-.288-.286-.555-.428-.82a1.181,1.181,0,1,0-2.091,1.087Z" transform="translate(-106.417 -218.594)"/></svg>