<svg xmlns="http://www.w3.org/2000/svg" width="70" height="70" viewBox="0 0 70 70"><defs><style>.a{fill:#593cc7;}.b{fill:#fff;stroke:#fff;stroke-width:0.6px;}</style></defs><g transform="translate(-542 -2373)"><g transform="translate(445.59 2336.772)"><path class="a" d="M163.918,60.963Q149.147,49.242,134.4,37.49a15.082,15.082,0,0,0-2.307-1.262h-1.5c-2.037.746-3.5,2.321-5.142,3.621-9.024,7.149-18.01,14.344-27.027,21.5a5.415,5.415,0,0,0-2.011,2.906v1.367a.58.58,0,0,1,.061.122c.7,3.135,4.321,4.305,7.051,2.088,9.085-7.381,18.269-14.639,27.416-21.943.156-.124.323-.236.49-.357.226.175.424.326.619.481,9.145,7.307,18.31,14.589,27.421,21.938a4.155,4.155,0,0,0,6.845-2.15.73.73,0,0,1,.1-.179V64.255A6.045,6.045,0,0,0,163.918,60.963Z"/><path class="a" d="M147.68,86.734a16.475,16.475,0,1,0-21.661,18.54c1.259.427,2.59.641,3.888.954h3.007c.309-.059.616-.124.926-.175A16.615,16.615,0,0,0,147.68,86.734Z"/><path class="a" d="M157.165,71.254c-8.459-6.636-16.84-13.372-25.232-20.094a.679.679,0,0,0-1.033-.005q-10.638,8.526-21.3,17.022c-1.477,1.177-2.964,2.344-4.489,3.457a.98.98,0,0,0-.508.909c.015,4.147.009,8.294.009,12.441q0,5.333,0,10.664a1.985,1.985,0,0,0,1.788,2.2c2.043.071,4.089.02,6.219.02a20.555,20.555,0,1,1,37.706.015c1.906,0,3.682,0,5.458,0a2.122,2.122,0,0,0,2.421-2.431c0-7.291-.01-14.583.013-21.874A2.5,2.5,0,0,0,157.165,71.254Z"/><path class="a" d="M156.235,40.34c-1.41-.034-2.823-.032-4.234,0a2.025,2.025,0,0,0-2,2.018c-.1,2.154-.1,2.154,1.58,3.5l.212.172,6.4,5.122c0-3.074.023-5.986-.012-8.9A1.97,1.97,0,0,0,156.235,40.34Z"/><g transform="translate(-1.962 -2.93)"><g transform="translate(128.73 85.593)"><path class="b" d="M137.306,88.7h-.853a3.863,3.863,0,0,0-.719-1.554h1.574a.777.777,0,1,0,.048-1.554.225.225,0,0,0-.048,0h-7.778a.777.777,0,0,0-.048,1.554h3.161a2.332,2.332,0,0,1,2.19,1.554h-5.3a.778.778,0,0,0-.048,1.556h5.348a2.332,2.332,0,0,1-2.19,1.554h-3.109a.778.778,0,0,0-.719,1.074.752.752,0,0,0,.17.254l6.217,6.216a.777.777,0,1,0,1.14-1.057l-.04-.04-4.892-4.892h1.232a3.893,3.893,0,0,0,3.809-3.109h.856a.778.778,0,0,0,.048-1.556h-.052Z" transform="translate(-128.73 -85.593)"/></g></g></g></g></svg>