<svg xmlns="http://www.w3.org/2000/svg" width="48" height="48" viewBox="0 0 48 48"><defs><style>.a{fill:#64798c;}</style></defs><g transform="translate(0 -12.676)"><g transform="translate(0 12.675)"><g transform="translate(0 0)"><path class="a" d="M47.194,34,25.658,13.355a2.362,2.362,0,0,0-3.316,0L.806,34A2.666,2.666,0,0,0,.169,36.85a2.452,2.452,0,0,0,2.3,1.654H5.9V59.19a1.45,1.45,0,0,0,1.412,1.485h11.8a1.45,1.45,0,0,0,1.412-1.485V46.631h6.938V59.19a1.45,1.45,0,0,0,1.412,1.485h11.8A1.45,1.45,0,0,0,42.1,59.19V38.5h3.44a2.452,2.452,0,0,0,2.3-1.654A2.667,2.667,0,0,0,47.194,34Z" transform="translate(0 -12.675)"/></g></g></g></svg>