<svg width="15" height="15" viewBox="0 0 15 15" fill="none" xmlns="http://www.w3.org/2000/svg">
<path d="M7.5 0C6.01664 0 4.56659 0.439867 3.33323 1.26398C2.09986 2.08809 1.13856 3.25943 0.570907 4.62987C0.00324978 6.00032 -0.145275 7.50832 0.144114 8.96318C0.433503 10.418 1.14781 11.7544 2.1967 12.8033C3.2456 13.8522 4.58197 14.5665 6.03682 14.8559C7.49168 15.1453 8.99968 14.9968 10.3701 14.4291C11.7406 13.8614 12.9119 12.9001 13.736 11.6668C14.5601 10.4334 15 8.98336 15 7.5C15 5.51088 14.2098 3.60322 12.8033 2.1967C11.3968 0.790176 9.48913 0 7.5 0ZM9.40059 10.215L7.5 8.31618L5.59941 10.215C5.54588 10.2685 5.48233 10.311 5.41238 10.34C5.34244 10.3689 5.26747 10.3839 5.19177 10.3839C5.11606 10.3839 5.04109 10.3689 4.97115 10.34C4.90121 10.311 4.83765 10.2685 4.78412 10.215C4.73059 10.1615 4.68812 10.0979 4.65915 10.028C4.63018 9.95802 4.61527 9.88306 4.61527 9.80735C4.61527 9.73164 4.63018 9.65668 4.65915 9.58673C4.68812 9.51679 4.73059 9.45324 4.78412 9.3997L6.68471 7.49912L4.78677 5.59941C4.69169 5.48926 4.64182 5.34722 4.64715 5.20182C4.65248 5.05641 4.71263 4.9184 4.81552 4.81552C4.91841 4.71263 5.05641 4.65248 5.20182 4.64715C5.34723 4.64181 5.48927 4.69169 5.59941 4.78676L7.5 6.68735L9.40059 4.78676C9.45412 4.73323 9.51768 4.69077 9.58762 4.66179C9.65756 4.63282 9.73253 4.61791 9.80824 4.61791C9.88394 4.61791 9.95891 4.63282 10.0289 4.66179C10.0988 4.69077 10.1624 4.73323 10.2159 4.78676C10.2694 4.8403 10.3119 4.90385 10.3409 4.97379C10.3698 5.04374 10.3847 5.1187 10.3847 5.19441C10.3847 5.27012 10.3698 5.34508 10.3409 5.41503C10.3119 5.48497 10.2694 5.54852 10.2159 5.60206L8.31618 7.5L10.2168 9.40059C10.3243 9.509 10.3847 9.65552 10.3847 9.80823C10.3847 9.96094 10.3243 10.1075 10.2168 10.2159C10.1634 10.27 10.0999 10.3129 10.0298 10.3421C9.95967 10.3714 9.88445 10.3864 9.80849 10.3864C9.73254 10.3863 9.65735 10.3711 9.58732 10.3417C9.51729 10.3122 9.45382 10.2692 9.40059 10.215Z" fill="#DF514C"/>
</svg>
