<svg xmlns="http://www.w3.org/2000/svg" width="76" height="74" viewBox="0 0 76 74"><defs><style>.a{fill:#f26722;}.b{fill:#fff;}</style></defs><g transform="translate(0.275 -0.159)"><ellipse class="a" cx="38" cy="37" rx="38" ry="37" transform="translate(-0.275 0.159)"/><path class="b" d="M94.036,34.721A1.408,1.408,0,0,0,94,32.756a16.112,16.112,0,0,0-22.836.573,1.348,1.348,0,0,0-.368.982,1.412,1.412,0,0,0,2.415.941,13.341,13.341,0,0,1,18.866-.45,1.411,1.411,0,0,0,1.964-.082Zm0,0" transform="translate(-44.683 -19.918)"/><path class="b" d="M78.089,50.353a1.375,1.375,0,0,0,.45.982,1.408,1.408,0,0,0,1.964-.041,9.166,9.166,0,0,1,12.932-.327,1.389,1.389,0,1,0,1.923-2.005A11.947,11.947,0,0,0,78.5,49.37a1.123,1.123,0,0,0-.409.982Zm0,0" transform="translate(-48.994 -30.189)"/><path class="b" d="M71.024,153.447a1.408,1.408,0,0,0,0,1.964,16.1,16.1,0,0,0,22.795-.123,1.383,1.383,0,0,0,0-1.964,1.408,1.408,0,0,0-1.964,0,13.338,13.338,0,0,1-18.866.123,1.408,1.408,0,0,0-1.964,0Zm0,0" transform="translate(-44.589 -93.545)"/><path class="b" d="M95.794,140.006a1.51,1.51,0,0,0-.409-.982,1.408,1.408,0,0,0-1.964,0,9.164,9.164,0,0,1-12.932.082,1.389,1.389,0,0,0-1.964,1.964,11.906,11.906,0,0,0,16.861-.123,1.132,1.132,0,0,0,.409-.941Zm0,0" transform="translate(-49.019 -85.097)"/><g transform="translate(10.639 29.577)"><path class="b" d="M33,96.306V80.1h5.566a8.61,8.61,0,0,1,4.706,1.1A3.647,3.647,0,0,1,44.95,84.52a3.724,3.724,0,0,1-.532,2.046,3.486,3.486,0,0,1-1.678,1.351,3.263,3.263,0,0,1,2.087,1.31,3.862,3.862,0,0,1,.7,2.251,4.248,4.248,0,0,1-1.6,3.6,7.318,7.318,0,0,1-4.543,1.228Zm3.765-9.454h1.883a3.175,3.175,0,0,0,1.923-.491,1.662,1.662,0,0,0,.614-1.391,1.719,1.719,0,0,0-.655-1.514,3.313,3.313,0,0,0-1.964-.491h-1.8Zm0,2.5V93.4h2.578a2.781,2.781,0,0,0,1.8-.491,1.743,1.743,0,0,0,.614-1.432,2.154,2.154,0,0,0-.532-1.6,2.176,2.176,0,0,0-1.678-.532Z" transform="translate(-33 -80.1)"/><path class="b" d="M81.882,80.1V90.7A5.285,5.285,0,0,1,80.041,95a7.261,7.261,0,0,1-4.829,1.514A7.377,7.377,0,0,1,70.342,95,5.285,5.285,0,0,1,68.5,90.7V80.1h3.765V90.7a2.855,2.855,0,0,0,.778,2.21,3.582,3.582,0,0,0,4.3.041,2.938,2.938,0,0,0,.737-2.21V80.1Z" transform="translate(-53.972 -80.1)"/><path class="b" d="M110.565,93.4h7.366v2.906H105.941V94.628l7.244-11.623H105.9V80.1h11.95v1.637Z" transform="translate(-76.066 -80.1)"/><path class="b" d="M143.065,93.4h7.366v2.906H138.441V94.628l7.244-11.623H138.4V80.1h11.95v1.637Z" transform="translate(-95.266 -80.1)"/></g></g></svg>