<svg id="Group_2356" data-name="Group 2356" xmlns="http://www.w3.org/2000/svg" xmlns:xlink="http://www.w3.org/1999/xlink" width="118.279" height="46.255" viewBox="0 0 118.279 46.255">
  <defs>
    <clipPath id="clip-path">
      <rect id="Rectangle_2252" data-name="Rectangle 2252" width="118.279" height="46.255" transform="translate(0 0)" fill="none"/>
    </clipPath>
  </defs>
  <g id="Group_2355" data-name="Group 2355" transform="translate(0 0)" clip-path="url(#clip-path)">
    <text id="HOME_FINANCE" data-name="HOME FINANCE" transform="translate(49.725 38.495)" fill="#131845" font-size="8" font-family="Roboto-Bold, Roboto" font-weight="700"><tspan x="0" y="0">HOME FINANCE</tspan></text>
    <path id="Path_4038" data-name="Path 4038" d="M23.127,0A23.127,23.127,0,1,1,0,23.127,23.127,23.127,0,0,1,23.127,0" transform="translate(0 0)" fill="#ef5713"/>
    <path id="Path_4039" data-name="Path 4039" d="M24.238,27.3l.938-2.2H22.7Zm-.4-4.518L25.176,25.1l.987-2.316Zm0,0,1.37-2.8h-2.98Zm-7.544-2.8,2.959,5.759,2.975-5.759Zm2.959,5.759-3.122,6.026h6.213l-1.484-2.9Zm1.527-2.957,1.481,3.222L22.7,25.1h0l1.134-2.316Zm1.481,3.222-1.4,2.864h2.713Zm1.981,1.3-.669,1.567h1.764Zm-1.894,4.465h2.551l-1.326-2.9-1.23,2.9Zm2.762,5.377-2.767-5.377-2.3,5.377Zm2.251-5.377h0l-.44-.631L25.332,28.87h4.05ZM19.665,15.581l4.21-5.49H16.488Zm4.847,0H19.665l2.558,4.4Zm-8.223,4.4,3.376-4.4H14.028Zm0,0H7.538L11.8,25.834Zm-.163,11.785L13.34,37.145h6.7Zm-8.875,0h8.875L11.8,25.834Zm10.925,9.758h5.06l-3.193-4.38ZM30.477,27.3l-.938-2.2h2.476Zm.4-4.518L29.539,25.1l-.987-2.316Zm0,0-1.37-2.8h2.98Zm7.544-2.8-2.958,5.759-2.975-5.759Zm-2.958,5.759,3.122,6.026H32.376l1.483-2.9Zm-1.528-2.957-1.48,3.222-.443-.906h0l-1.134-2.316Zm-1.48,3.222,1.4,2.864H31.146Zm-1.981,1.3.669,1.567H29.382Zm1.893,4.465H29.82l1.326-2.9,1.23,2.9Zm-2.762,5.377,2.767-5.377,2.3,5.377ZM27.357,22.784h1.194l-1.194-2.8h0l-1.194,2.8h1.194Zm0,6.086h0l.3-.522L29.539,25.1H25.176l2.182,3.77h0Zm0,8.274h0l2.462-5.377H24.895l1.9,4.149.563,1.229h0Zm7.692-21.563-4.21-5.49h7.387Zm-4.847,0h4.847l-2.558,4.4Zm8.223,4.4-3.375-4.4h5.637Zm0,0h8.752l-4.264,5.852Zm.164,11.785,2.786,5.377h-6.7Zm8.875,0H38.588l4.324-5.934ZM36.538,41.525h-5.06l3.193-4.38ZM27.357,10.091h3.482l-3.482-4.54-3.482,4.54h3.482Zm0,5.49H30.2l-2.845-5.49h0l-2.845,5.49h2.845Zm0,4.4h2.154l-1.3-2.656-.854-1.746h0l-2.154,4.4h2.154Zm0,21.542h0l.581-1.131,1.67-3.249h-4.5l2.251,4.38h0Zm0,5.655h0l4.121-5.655H23.236l4.121,5.655Z" transform="translate(-4.23 -3.238)" fill="#fff"/>
    <path id="Path_4040" data-name="Path 4040" d="M138.2,13.244h-3.769a2.194,2.194,0,0,0-2.188,2.188v20.94h3.769a2.194,2.194,0,0,0,2.188-2.188Zm6.3,0h12.768v3.865a2.1,2.1,0,0,1-2.094,2.092h-6.842v2.967h7.438v3.865a2.1,2.1,0,0,1-2.095,2.093h-5.344v6.122a2.131,2.131,0,0,1-2.125,2.124h-3.832v-21a2.131,2.131,0,0,1,2.125-2.124m-16.423,0H124.3a2.194,2.194,0,0,0-2.188,2.188v20.94h3.769a2.195,2.195,0,0,0,2.188-2.188Zm38.45,0H162.69a2.131,2.131,0,0,0-2.125,2.124v21h11.1a2.1,2.1,0,0,0,2.095-2.092V30.415h-7.236Z" transform="translate(-71.233 -7.726)" fill="#131845"/>
  </g>
</svg>
