<svg width="37" height="29" viewBox="0 0 37 29" fill="none" xmlns="http://www.w3.org/2000/svg">
<rect x="0.836821" y="0.761259" width="35.2744" height="27.2744" rx="5.44233" fill="white" stroke="#DFE0E3" stroke-width="0.725644"/>
<g clip-path="url(#clip0_10732_495)">
<mask id="mask0_10732_495" style="mask-type:luminance" maskUnits="userSpaceOnUse" x="8" y="4" width="21" height="21">
<path d="M28.2523 4.54883H8.25226V24.5488H28.2523V4.54883Z" fill="white"/>
</mask>
<g mask="url(#mask0_10732_495)">
<path d="M28.2523 4.54883H8.25226V24.5488H28.2523V4.54883Z" fill="white"/>
<mask id="mask1_10732_495" style="mask-type:luminance" maskUnits="userSpaceOnUse" x="8" y="4" width="21" height="21">
<path d="M28.2523 4.54883H8.25226V24.5488H28.2523V4.54883Z" fill="white"/>
</mask>
<g mask="url(#mask1_10732_495)">
<path fill-rule="evenodd" clip-rule="evenodd" d="M18.2523 4.54883C23.7773 4.54883 28.2523 9.02383 28.2523 14.5488C28.2523 20.0738 23.7773 24.5488 18.2523 24.5488C12.7273 24.5488 8.25226 20.0738 8.25226 14.5488C8.25226 9.02383 12.7273 4.54883 18.2523 4.54883Z" fill="#F37021"/>
<path fill-rule="evenodd" clip-rule="evenodd" d="M16.9022 14.9488L17.3022 13.9988H16.2272L16.8897 14.9488H16.9022ZM16.7272 12.9988L17.3022 13.9988L17.7272 12.9988H16.7147H16.7272ZM16.7272 12.9988L17.3147 11.7863H16.0272L16.7272 12.9988ZM13.4647 11.7863L14.7397 14.2738L16.0272 11.7863H13.4647ZM14.7397 14.2738L13.3897 16.8739H16.0772L15.4397 15.6239L14.7397 14.2738ZM15.4022 12.9988L16.0397 14.3863L16.2272 13.9988L16.7147 12.9988H15.3897H15.4022ZM16.0397 14.3863L15.4397 15.6239H16.6147L16.0522 14.3863H16.0397ZM16.9022 14.9488L16.6147 15.6239H17.3772L16.9022 14.9488ZM16.0897 16.8739H17.1897L16.6147 15.6239L16.0772 16.8739H16.0897ZM17.2897 19.1989L16.0897 16.8739L15.1022 19.1989H17.2897ZM18.2647 16.8739L18.0772 16.5989L17.3897 15.6239H19.1398L18.2647 16.8739ZM14.9397 9.87383L16.7647 7.49883H13.5647L14.9397 9.87383ZM17.0397 9.87383H14.9397L16.0397 11.7738L17.0272 9.87383H17.0397ZM13.4897 11.7738L14.9522 9.87383H12.5147L13.4897 11.7738ZM13.4897 11.7738H9.67724L11.5147 14.2988L13.4522 11.7738H13.4897ZM13.4147 16.8739L12.2147 19.1989H15.1147L13.4147 16.8739ZM9.57724 16.8739H13.4147L11.5397 14.3113L9.57724 16.8739ZM14.3022 21.0989H16.4897L15.1147 19.1989L14.3022 21.0989ZM19.6148 14.9488L19.2148 13.9988H20.2898L19.6273 14.9488H19.6148ZM19.7898 12.9988L19.2148 13.9988L18.7898 12.9988H19.8023H19.7898ZM19.7898 12.9988L19.2023 11.7863H20.4898L19.7898 12.9988ZM23.0523 11.7863L21.7773 14.2738L20.4898 11.7863H23.0523ZM21.7773 14.2738L23.1273 16.8739H20.4398L21.0773 15.6239L21.7773 14.2738ZM21.1148 12.9988L20.4773 14.3863L20.2898 13.9988L19.8023 12.9988H21.1273H21.1148ZM20.4773 14.3863L21.0773 15.6239H19.9023L20.4648 14.3863H20.4773ZM19.6148 14.9488L19.9023 15.6239H19.1398L19.6148 14.9488ZM20.4398 16.8739H19.3398L19.9148 15.6239L20.4523 16.8739H20.4398ZM19.2398 19.1989L20.4398 16.8739L21.4273 19.1989H19.2398ZM18.2647 12.9863H18.7773L18.2647 11.7738L17.7522 12.9863H18.2647ZM18.2647 15.6239L18.3897 15.3989L19.2023 13.9988H17.3147L18.2522 15.6239H18.2647ZM18.2647 19.1989L19.3273 16.8739H17.2022L18.0272 18.6614L18.2647 19.1989ZM21.5898 9.87383L19.7648 7.49883H22.9648L21.5898 9.87383ZM19.4898 9.87383H21.5898L20.4898 11.7738L19.5023 9.87383H19.4898ZM23.0398 11.7738L21.5773 9.87383H24.0148L23.0398 11.7738ZM23.0398 11.7738H26.8273L24.9898 14.2988L23.0523 11.7738H23.0398ZM23.1148 16.8739L24.3148 19.1989H21.4148L23.1148 16.8739ZM26.9523 16.8739H23.1148L24.9898 14.3113L26.9523 16.8739ZM22.2273 21.0989H20.0398L21.4148 19.1989L22.2273 21.0989ZM18.2522 7.51133H19.7523L18.2522 5.54883L16.7522 7.51133H17.6522H17.8397H18.2522ZM18.2522 9.88633H19.4773L18.2522 7.51133L17.0272 9.88633H18.2522ZM18.2522 11.7863H19.1773L18.6147 10.6363L18.2397 9.88633L17.3022 11.7863H18.2397H18.2522ZM18.2522 21.0989L18.5022 20.6114L19.2273 19.2114H17.2772L18.2522 21.1114V21.0989ZM18.2522 23.5489L20.0398 21.0989H16.4772L18.2647 23.5489H18.2522Z" fill="white"/>
</g>
</g>
</g>
<defs>
<clipPath id="clip0_10732_495">
<rect width="20" height="20" fill="white" transform="translate(8.25226 4.54883)"/>
</clipPath>
</defs>
</svg>
