<svg width="16" height="16" viewBox="0 0 16 16" fill="none" xmlns="http://www.w3.org/2000/svg">
<path fill-rule="evenodd" clip-rule="evenodd" d="M0 8C0 6.41775 0.469192 4.87104 1.34824 3.55544C2.22729 2.23985 3.47672 1.21447 4.93853 0.608967C6.40034 0.00346627 8.00887 -0.15496 9.56072 0.153721C11.1126 0.462403 12.538 1.22433 13.6569 2.34315C14.7757 3.46197 15.5376 4.88743 15.8463 6.43928C16.155 7.99113 15.9965 9.59966 15.391 11.0615C14.7855 12.5233 13.7602 13.7727 12.4446 14.6518C11.129 15.5308 9.58225 16 8 16C6.94942 16 5.90914 15.7931 4.93853 15.391C3.96793 14.989 3.08601 14.3997 2.34315 13.6569C0.842855 12.1566 0 10.1217 0 8ZM8.968 4.88C8.94705 4.66006 8.84487 4.45583 8.6814 4.30719C8.51794 4.15856 8.30494 4.07619 8.084 4.07619C7.86306 4.07619 7.65006 4.15856 7.4866 4.30719C7.32313 4.45583 7.22095 4.66006 7.2 4.88V8.384C7.2 8.592 7.2 8.8 7.2 8.984C7.21927 9.22098 7.28448 9.45194 7.392 9.664C7.50968 9.86924 7.66428 10.051 7.848 10.2C7.992 10.312 8.168 10.432 8.336 10.544L10.224 11.8C10.4199 11.9293 10.6587 11.9767 10.889 11.9318C11.1194 11.8869 11.323 11.7534 11.456 11.56C11.5834 11.3635 11.6279 11.1245 11.58 10.8953C11.532 10.6661 11.3955 10.465 11.2 10.336L9.36 9.088C9.22943 9.0077 9.10387 8.91954 8.984 8.824C8.984 8.736 8.984 8.608 8.984 8.36L8.968 4.88Z" fill="#FFB904"/>
</svg>
