<svg xmlns="http://www.w3.org/2000/svg" width="54.961" height="46.707" viewBox="0 0 54.961 46.707">
  <g id="Group_2616" data-name="Group 2616" transform="translate(-0.396 -2.4)">
    <g id="Group_2614" data-name="Group 2614" transform="translate(0.5 2.5)">
      <path id="Path_6703" data-name="Path 6703" d="M33.692,46.626a1.191,1.191,0,0,0,1.19-1.19,1.158,1.158,0,0,0-.014-.181l-1.709-11.22c-.288-4.595-4.069-7.059-9.994-7.059H14.6c-5.933,0-9.706,2.462-10.006,7.164L2.9,45.255a1.188,1.188,0,0,0,1,1.357,1.158,1.158,0,0,0,.181.014ZM3.531,48.967A3.572,3.572,0,0,1,.541,44.9L2.229,33.885C2.61,27.816,7.55,24.6,14.6,24.6h8.566c7.042,0,11.989,3.223,12.358,9.185l1.7,11.116a3.423,3.423,0,0,1,.043.54,3.572,3.572,0,0,1-3.571,3.571H4.072A3.728,3.728,0,0,1,3.531,48.967ZM18.882,21.112a9.306,9.306,0,1,1,9.306-9.306A9.306,9.306,0,0,1,18.882,21.112Zm0-2.381a6.925,6.925,0,1,0-6.925-6.925A6.924,6.924,0,0,0,18.882,18.732Z" transform="translate(-0.5 -2.5)" fill="#3a15a6" stroke="#3a15a6" stroke-width="0.2"/>
    </g>
    <g id="Group_2615" data-name="Group 2615" transform="translate(36.173 25.064)">
      <path id="Path_6704" data-name="Path 6704" d="M22.445,33.985a1.19,1.19,0,0,1,0-2.381h8.549a1.192,1.192,0,0,0,1.193-1.193,1.129,1.129,0,0,0-.014-.179l-1.478-9.706c-.25-4.014-3.554-6.168-8.773-6.168H16.674a1.19,1.19,0,0,1,0-2.381h5.247c6.335,0,10.806,2.914,11.139,8.294l1.467,9.6a3.754,3.754,0,0,1,.04.54,3.573,3.573,0,0,1-3.573,3.573Z" transform="translate(-15.484 -11.978)" fill="#f37921" stroke="#f37921" stroke-width="0.2"/>
    </g>
    <circle id="Ellipse_10" data-name="Ellipse 10" cx="7.388" cy="7.388" r="7.388" transform="translate(31.407 8.856)" fill="#f37921" stroke="#f37921" stroke-width="0.2"/>
    <circle id="Ellipse_11" data-name="Ellipse 11" cx="5.213" cy="5.213" r="5.213" transform="translate(33.582 11.031)" fill="#fff" stroke="#f37921" stroke-width="0.2"/>
  </g>
</svg>
