<svg xmlns="http://www.w3.org/2000/svg" width="70" height="70" viewBox="0 0 70 70"><defs><style>.a{fill:#593cc7;}</style></defs><path class="a" d="M285.807,189.009a8.2,8.2,0,0,1-7.218-6.1H271v19.986h14.053A56.757,56.757,0,0,0,285.807,189.009Z" transform="translate(-233.949 -157.9)"/><path class="a" d="M358.684,138.037a4.084,4.084,0,1,0,4.084,4.084A4.088,4.088,0,0,0,358.684,138.037Z" transform="translate(-306.12 -119.165)"/><circle class="a" cx="6.168" cy="6.168" r="6.168" transform="translate(11.072 41.011)"/><path class="a" d="M158.053,0c-4.681,3.217-8.487,8.64-11.115,14.92a46.364,46.364,0,0,0-2.022,5.985h13.136Z" transform="translate(-125.103 0)"/><path class="a" d="M131.775,194.844A10.288,10.288,0,0,1,141,202.893h5.677V182.907H132.631A56.7,56.7,0,0,0,131.775,194.844Z" transform="translate(-113.731 -157.9)"/><path class="a" d="M173.566,380V359.093h-5.623a10.3,10.3,0,0,1-5.057,7.031C165.447,371.966,169.026,376.936,173.566,380Z" transform="translate(-140.616 -309.998)"/><path class="a" d="M271,380c4.907-3.368,8.838-9.1,11.475-15.807a47.014,47.014,0,0,0,1.666-5.1H271Z" transform="translate(-233.949 -309.998)"/><path class="a" d="M331.384,365.692a39.641,39.641,0,0,1-8.151,13.085,35.081,35.081,0,0,0,22.851-19.683H333.463A51.57,51.57,0,0,1,331.384,365.692Z" transform="translate(-279.041 -309.999)"/><path class="a" d="M35.908,367.446a10.284,10.284,0,0,1-10.087-8.353h-4.2a35.083,35.083,0,0,0,22.732,19.651,37.258,37.258,0,0,1-7.344-11.358A10.329,10.329,0,0,1,35.908,367.446Z" transform="translate(-18.669 -309.998)"/><path class="a" d="M404.879,188.318a61.064,61.064,0,0,1-.657,14.575h13.285a35.157,35.157,0,0,0,0-19.986h-8.061A8.219,8.219,0,0,1,404.879,188.318Z" transform="translate(-348.957 -157.9)"/><path class="a" d="M13.957,195.351a61,61,0,0,1,.782-12.444H1.45a35.157,35.157,0,0,0,0,19.987H7.206a10.3,10.3,0,0,1,6.751-7.543Z" transform="translate(0 -157.9)"/><path class="a" d="M331.543,22.485h.043a8.2,8.2,0,0,1,7.925,6.135h6.554A35.081,35.081,0,0,0,323.211,8.935a34.371,34.371,0,0,1,2.269,2.616A41.75,41.75,0,0,1,331.543,22.485Z" transform="translate(-279.022 -7.713)"/><path class="a" d="M271,0V20.905h7.588a8.218,8.218,0,0,1,3.9-5.071C280.461,10.667,276.957,4.071,271,0Z" transform="translate(-233.949)"/><path class="a" d="M36.719,21.048A39.2,39.2,0,0,1,44.481,8.932,35.082,35.082,0,0,0,21.625,28.616H34.249a50.96,50.96,0,0,1,2.47-7.568Z" transform="translate(-18.668 -7.711)"/></svg>