<svg xmlns="http://www.w3.org/2000/svg" width="64.419" height="64.419" viewBox="0 0 64.419 64.419"><defs><style>.a{fill:#04ae91;}</style></defs><g transform="translate(0 0)"><path class="a" d="M337.4,216.818V224.9a7.952,7.952,0,0,0,15.9,0v-8.086a7.952,7.952,0,0,0-15.9,0Zm0,0" transform="translate(-294.947 -182.588)"/><path class="a" d="M315.344,305.266a1.887,1.887,0,0,0-1.887,1.887v2.021a10.242,10.242,0,1,1-20.483,0v-2.021a1.887,1.887,0,1,0-3.774,0v2.021a14.009,14.009,0,0,0,12.129,13.89V327.5h-4.178a1.887,1.887,0,1,0,0,3.775H309.28a1.887,1.887,0,1,0,0-3.775H305.1v-4.437a14.011,14.011,0,0,0,12.129-13.89v-2.021A1.887,1.887,0,0,0,315.344,305.266Zm0,0" transform="translate(-252.813 -266.858)"/><path class="a" d="M38.273,34.634c.136,0,.269.007.4.016v-.419a11.724,11.724,0,0,1,21.7-6.161V10.984A10.99,10.99,0,0,0,49.391,0H10.983A10.99,10.99,0,0,0,0,10.984V54.446a1.887,1.887,0,0,0,3.1,1.45l11.6-9.67H33.045a17.825,17.825,0,0,1-.434-3.908V40.3a5.668,5.668,0,0,1,5.662-5.662Zm-26.279-22.5H48.38a1.887,1.887,0,1,1,0,3.775H11.994a1.887,1.887,0,1,1,0-3.775ZM28.3,36.118H11.994a1.887,1.887,0,1,1,0-3.775H28.3a1.887,1.887,0,1,1,0,3.775ZM11.994,26.011a1.887,1.887,0,1,1,0-3.775H36.252a1.887,1.887,0,0,1,0,3.775Zm0,0" transform="translate(0.001 0)"/></g></svg>