<svg xmlns="http://www.w3.org/2000/svg" width="45.176" height="48" viewBox="0 0 45.176 48">
    <defs>
        <style>.a{fill:#593CC7;}.b{fill:#fff;stroke:#fff;stroke-width:0.6px;}</style>
    </defs>
    <g transform="translate(-518 -1788)">
        <path class="a" d="M56,36.892V29.648A18.383,18.383,0,0,0,43.879,12.386,4.224,4.224,0,0,0,42.725,6.3,7.029,7.029,0,0,0,44.7,1.406,1.406,1.406,0,0,0,43.3,0H32A1.406,1.406,0,0,0,30.6,1.406,7.029,7.029,0,0,0,32.575,6.3a4.224,4.224,0,0,0-1.154,6.087A18.383,18.383,0,0,0,19.3,29.648v7.244A5.643,5.643,0,0,0,20.7,48H54.6A5.643,5.643,0,0,0,56,36.892Z" transform="translate(502.938 1788)"/>
        <g transform="translate(534.849 1810.872)">
            <g transform="translate(0)">
                <path class="b" d="M171.22,132.083H170.1a5.034,5.034,0,0,0-.943-2.041h2.068a1.021,1.021,0,1,0,0-2.041H161.013a1.021,1.021,0,1,0,0,2.041H165.1a3.056,3.056,0,0,1,2.874,2.041h-6.957a1.021,1.021,0,1,0,0,2.041h6.957a3.056,3.056,0,0,1-2.874,2.041h-4.083a1.021,1.021,0,0,0-.943.631,1.013,1.013,0,0,0,0,.78.973.973,0,0,0,.223.333l8.163,8.163a1.021,1.021,0,1,0,1.445-1.441l-6.424-6.424H165.1a5.108,5.108,0,0,0,5-4.083h1.125a1.021,1.021,0,1,0,0-2.041Z" transform="translate(-159.992 -128)"/>
            </g>
        </g>
    </g>
</svg>