<svg xmlns="http://www.w3.org/2000/svg" width="50" height="33.665" viewBox="0 0 50 33.665"><defs><style>.a{fill:#bc1b4c;}.b{fill:#fff;stroke:#fff;stroke-width:0.6px;}</style></defs><g transform="translate(-281.787 -6.342)"><g transform="translate(302.58 31.632)"><g transform="translate(0)"><path class="a" d="M329.672,58.9v-.195c-1-.011-1.948-.065-2.868-.14a13.075,13.075,0,0,1-2.078,3.56,33.808,33.808,0,0,0,5.01.444Z" transform="translate(-324.727 -58.569)"/></g></g><path class="a" d="M303.143,35.3a10.864,10.864,0,0,0-7.38-8.127,11.019,11.019,0,0,0-3.192-.476,10.783,10.783,0,1,0,7.261,18.753,10.72,10.72,0,0,0,3.528-7.975A11.3,11.3,0,0,0,303.143,35.3Z" transform="translate(0 -10.5)"/><g transform="translate(305.275 25.691)"><path class="a" d="M332.51,50.206l-.065-3.831c-.671-.011-1.331-.032-1.959-.076.032.433.054.855.054,1.277a13.309,13.309,0,0,1-.249,2.532C331.006,50.174,331.753,50.206,332.51,50.206Z" transform="translate(-330.292 -46.3)"/></g><g transform="translate(297.116 11.688)"><g transform="translate(0)"><path class="a" d="M335.669,17.382a12.942,12.942,0,0,1-2.349.941,32.267,32.267,0,0,1-8.96,1.136,31.98,31.98,0,0,1-8.581-1.05,12,12,0,0,1-2.337-.9l.076,3.052a12.487,12.487,0,0,1,3.387,1.916c.032.011.054.011.087.021a30.935,30.935,0,0,0,7.369.812,30.635,30.635,0,0,0,8.333-1.05c2.348-.714,2.868-1.461,2.868-1.6a.622.622,0,0,1,.108-.444V17.382Z" transform="translate(-313.442 -17.382)"/></g></g><g transform="translate(297.007 6.342)"><g transform="translate(0)"><path class="a" d="M332.567,7.392a30.223,30.223,0,0,0-8.333-1.05,29.24,29.24,0,0,0-8.224,1.05c-2.283.692-2.781,1.374-2.792,1.591,0,0,.011,0,.011.022.054.238.7.974,3.03,1.645a29.714,29.714,0,0,0,7.975.974,30.578,30.578,0,0,0,8.322-1.039c2.349-.7,2.879-1.45,2.879-1.6S334.915,8.106,332.567,7.392Z" transform="translate(-313.218 -6.342)"/></g></g><g transform="translate(309.733 34.088)"><g transform="translate(0)"><path class="a" d="M361.532,66.888V63.641a13.9,13.9,0,0,1-2.273.92,32,32,0,0,1-8.938,1.136,33.305,33.305,0,0,1-8.127-.93,14.135,14.135,0,0,1-2.695-.985l.054,3.138v.021c0,.163.476.888,2.759,1.591a29.435,29.435,0,0,0,8.214,1.028,28.894,28.894,0,0,0,8.235-1.06c2.283-.714,2.781-1.46,2.781-1.612Z" transform="translate(-339.499 -63.641)"/></g></g><g transform="translate(303.11 17.726)"><g transform="translate(0)"><path class="a" d="M342.033,29.852a13.689,13.689,0,0,1-2.337.931,32.294,32.294,0,0,1-8.971,1.136,38.942,38.942,0,0,1-4.9-.314,12.829,12.829,0,0,1,1.937,4.026c.93.065,1.937.108,2.976.108h.108c1.775-1.948,6.547-2.922,11.189-3.052V29.852Z" transform="translate(-325.822 -29.852)"/></g></g><g transform="translate(309.636 28.104)"><g transform="translate(0)"><path class="a" d="M359.079,52.2a32.389,32.389,0,0,1-8.841,1.1,32,32,0,0,1-8.581-1.049,13.27,13.27,0,0,1-2.359-.909l.043,2.489.011.909c.844,1.05,4.88,2.4,10.875,2.4a29.93,29.93,0,0,0,8.3-1.039c2.337-.714,2.846-1.45,2.846-1.6,0-.119.065-.249.065-.357h.011V51.283A12.351,12.351,0,0,1,359.079,52.2Z" transform="translate(-339.298 -51.283)"/></g></g><g transform="translate(309.56 22.747)"><g transform="translate(0)"><path class="a" d="M358.49,41.249a30.338,30.338,0,0,0-8.333-1.028h-.184a29.449,29.449,0,0,0-7.715.92c-2.24.628-3.009,1.342-3.106,1.634a.08.08,0,0,0-.011.044l.022.043c.065.227.7.963,3.03,1.645a33.629,33.629,0,0,0,16.2-.054c2.4-.714,2.943-1.461,2.954-1.623v-.011C361.336,42.656,360.795,41.942,358.49,41.249Z" transform="translate(-339.141 -40.221)"/></g></g><g transform="translate(289.591 23.495)"><path class="b" d="M303.356,43.742h-.542a2.437,2.437,0,0,0-.457-.988h1a.494.494,0,0,0,.031-.988h-4.976a.494.494,0,0,0-.031.988h2.01a1.48,1.48,0,0,1,1.392.988h-3.369a.494.494,0,0,0-.031.988h3.4a1.48,1.48,0,0,1-1.392.988h-1.977a.494.494,0,0,0-.457.683.466.466,0,0,0,.108.161l3.953,3.953a.494.494,0,1,0,.724-.673l-.025-.025-3.111-3.111h.784a2.474,2.474,0,0,0,2.421-1.977h.545a.494.494,0,0,0,.031-.988h-.033Z" transform="translate(-297.903 -41.765)"/></g></g></svg>