<svg xmlns="http://www.w3.org/2000/svg" width="103.256" height="69.523" viewBox="0 0 103.256 69.523"><defs><style>.a{fill:#593cc7;}.b{fill:#fff;stroke:#fff;stroke-width:0.6px;}</style></defs><g transform="translate(-281.787 -6.342)"><path class="a" d="M334.94,59.261v-.4c-2.056-.022-4.022-.134-5.922-.29a27,27,0,0,1-4.291,7.352,69.815,69.815,0,0,0,10.347.916Z"/><path class="a" d="M325.889,44.467a22.435,22.435,0,0,0-15.241-16.783,22.757,22.757,0,0,0-6.592-.983,22.267,22.267,0,1,0,14.995,38.728,22.139,22.139,0,0,0,7.285-16.47A23.338,23.338,0,0,0,325.889,44.467Z"/><path class="a" d="M334.873,54.367l-.134-7.911c-1.386-.022-2.749-.067-4.045-.156.067.894.112,1.765.112,2.637a27.486,27.486,0,0,1-.514,5.229C331.767,54.3,333.309,54.367,334.873,54.367Z"/><path class="a" d="M359.344,17.382a26.726,26.726,0,0,1-4.85,1.944,66.634,66.634,0,0,1-18.5,2.347A66.043,66.043,0,0,1,318.269,19.5a24.775,24.775,0,0,1-4.827-1.855l.156,6.3a25.787,25.787,0,0,1,6.995,3.956c.067.022.112.022.179.044a63.884,63.884,0,0,0,15.218,1.677A63.266,63.266,0,0,0,353.2,27.461c4.849-1.475,5.922-3.017,5.922-3.308a1.284,1.284,0,0,1,.224-.916V17.382Z"/><path class="a" d="M353.176,8.51a62.415,62.415,0,0,0-17.208-2.168A60.383,60.383,0,0,0,318.984,8.51c-4.715,1.43-5.743,2.838-5.766,3.285,0,0,.023,0,.023.045.111.492,1.452,2.011,6.257,3.4a61.364,61.364,0,0,0,16.47,2.011A63.149,63.149,0,0,0,353.153,15.1C358,13.65,359.1,12.108,359.1,11.8,359.1,11.505,358.025,9.985,353.176,8.51Z"/><path class="a" d="M385,70.346V63.641a28.7,28.7,0,0,1-4.693,1.9,66.076,66.076,0,0,1-18.459,2.346,68.779,68.779,0,0,1-16.783-1.921,29.188,29.188,0,0,1-5.565-2.034l.112,6.481v.044c0,.336.983,1.833,5.7,3.285a60.788,60.788,0,0,0,16.962,2.123,59.669,59.669,0,0,0,17.007-2.19c4.715-1.474,5.743-3.016,5.743-3.329Z"/><path class="a" d="M359.3,29.852a28.267,28.267,0,0,1-4.827,1.922,66.689,66.689,0,0,1-18.526,2.346,80.419,80.419,0,0,1-10.124-.648,26.494,26.494,0,0,1,4,8.314c1.921.134,4,.223,6.145.223h.224c3.665-4.022,13.52-6.034,23.107-6.3V29.852Z"/><path class="a" d="M380.149,53.183a66.885,66.885,0,0,1-18.258,2.279,66.085,66.085,0,0,1-17.721-2.167,27.406,27.406,0,0,1-4.872-1.878l.089,5.14.023,1.877c1.743,2.168,10.078,4.962,22.459,4.962a61.809,61.809,0,0,0,17.14-2.146c4.827-1.475,5.878-2.994,5.878-3.307,0-.246.134-.514.134-.738h.022V51.283A25.506,25.506,0,0,1,380.149,53.183Z"/><path class="a" d="M379.1,42.344a62.652,62.652,0,0,0-17.208-2.123h-.38a60.816,60.816,0,0,0-15.933,1.9c-4.626,1.3-6.213,2.771-6.414,3.374a.166.166,0,0,0-.023.09l.045.089c.134.469,1.453,1.989,6.257,3.4a62.342,62.342,0,0,0,16.471,1.989,62.089,62.089,0,0,0,16.984-2.1c4.961-1.475,6.078-3.017,6.1-3.352v-.022C384.976,45.249,383.859,43.775,379.1,42.344Z"/><path class="b" d="M309.163,45.848h-1.12a5.032,5.032,0,0,0-.943-2.041h2.068a1.021,1.021,0,0,0,.064-2.041H298.956a1.021,1.021,0,0,0-.064,2.041h4.151a3.057,3.057,0,0,1,2.874,2.041H298.96a1.021,1.021,0,0,0-.064,2.041h7.021a3.057,3.057,0,0,1-2.874,2.041H298.96a1.021,1.021,0,0,0-.943,1.411.961.961,0,0,0,.223.333l8.163,8.163a1.021,1.021,0,1,0,1.5-1.39c-.016-.017-.033-.035-.051-.051l-6.424-6.424h1.619a5.108,5.108,0,0,0,5-4.083h1.125a1.021,1.021,0,0,0,.064-2.041h-.069Z"/></g></svg>