<svg xmlns="http://www.w3.org/2000/svg" width="50" height="47.917" viewBox="0 0 50 47.917"><defs><style>.a{fill:#17c257;}</style></defs><g transform="translate(0 -1)"><path class="a" d="M4.084,20.648a2.083,2.083,0,0,1-1.473-3.556L17,2.7a2.083,2.083,0,0,1,2.946,2.946L5.557,20.038a2.078,2.078,0,0,1-1.473.61Z" transform="translate(2.166 1.185)"/><path class="a" d="M15.854,11.417a1.555,1.555,0,0,1-1.1-.458L7.458,3.667A1.562,1.562,0,0,1,8.563,1h7.292a1.563,1.563,0,0,1,1.562,1.563V9.854a1.562,1.562,0,0,1-1.562,1.563Z" transform="translate(7.583)"/><path class="a" d="M13.5,16.6V28.583H1V16.6A2.605,2.605,0,0,1,3.6,14H10.9A2.605,2.605,0,0,1,13.5,16.6Z" transform="translate(1.083 14.083)"/><path class="a" d="M21.5,12.6V32.917H9V12.6A2.605,2.605,0,0,1,11.6,10H18.9A2.605,2.605,0,0,1,21.5,12.6Z" transform="translate(9.75 9.75)"/><path class="a" d="M29.5,8.6V37.25H17V8.6A2.605,2.605,0,0,1,19.6,6H26.9A2.605,2.605,0,0,1,29.5,8.6Z" transform="translate(18.417 5.417)"/><path class="a" d="M48.437,25.625H1.563a1.562,1.562,0,1,1,0-3.125H48.437a1.562,1.562,0,1,1,0,3.125Z" transform="translate(0 23.292)"/></g></svg>