<svg xmlns="http://www.w3.org/2000/svg" width="20.684" height="20.684" viewBox="0 0 20.684 20.684">
  <g id="Component_2_2" data-name="Component 2 – 2" transform="translate(1.061 1.061)">
    <g id="Icon_feather-eye-off" data-name="Icon feather-eye-off" transform="translate(-1.5 -1.5)">
      <path id="Path_3428" data-name="Path 3428" d="M15.793,17.762A8.5,8.5,0,0,1,10.781,19.5C4.875,19.5,1.5,12.75,1.5,12.75A15.567,15.567,0,0,1,5.769,7.738M9.009,6.2A7.7,7.7,0,0,1,10.781,6c5.906,0,9.281,6.75,9.281,6.75a15.609,15.609,0,0,1-1.822,2.692m-5.67-.9a2.531,2.531,0,1,1-3.577-3.577" transform="translate(0 -1.969)" fill="none" stroke="#9c9c9c" stroke-linecap="round" stroke-linejoin="round" stroke-width="1.5"/>
      <path id="Path_3429" data-name="Path 3429" d="M1.5,1.5,20.062,20.062" transform="translate(0 0)" fill="none" stroke="#9c9c9c" stroke-linecap="round" stroke-linejoin="round" stroke-width="1.5"/>
    </g>
  </g>
</svg>
