<svg xmlns="http://www.w3.org/2000/svg" width="70" height="70" viewBox="0 0 70 70"><defs><style>.a{fill:#593cc7;}</style></defs><g transform="translate(-101.8 -191.8)"><path class="a" d="M171.8,387.127c0-1.892-.716-2.614-2.594-2.614q-32.36,0-64.72-.018a2.6,2.6,0,0,0-2.686,1.529v34.207a2.635,2.635,0,0,0,2.755,1.529q32.291-.038,64.583-.018c1.973,0,2.662-.7,2.662-2.683Q171.8,403.093,171.8,387.127Zm-47.352,22.119a2.071,2.071,0,0,1,2.093,2.081,2.038,2.038,0,0,1-2.07,2.027q-4.064.031-8.128,0a2.042,2.042,0,0,1-2.1-2.07,2.075,2.075,0,0,1,2.133-2.04c.632-.014,1.264,0,1.93,0V396.877c-.594,0-1.2.005-1.8,0a2.094,2.094,0,0,1-2.263-2.051,2.072,2.072,0,0,1,2.242-2.066q3.893-.013,7.787,0a2.07,2.07,0,1,1-.037,4.118c-.566,0-1.133,0-1.748,0v12.366C123.178,409.243,123.813,409.228,124.448,409.246Zm13.256-4.238c-.945.114-1.9.11-2.956.166,0,2.039.02,4.049-.006,6.059a2.032,2.032,0,0,1-2.962,1.893,2.089,2.089,0,0,1-1.135-2.033c.007-2.884,0-5.768,0-8.653q0-3.64,0-7.279a2.113,2.113,0,0,1,2.394-2.4c1.547.012,3.105-.044,4.639.116a6.129,6.129,0,0,1,.022,12.132Zm21.654-1.937h-.1c0,1.668.129,3.349-.028,5a6.078,6.078,0,0,1-12.05.011c-.178-1.884-.116-3.792-.119-5.69a41.76,41.76,0,0,1,.115-4.386,6.085,6.085,0,0,1,11.8-1.069,9.45,9.45,0,0,1,.363,2.286C159.4,400.506,159.359,401.79,159.359,403.071Z" transform="translate(0 -159.961)"/><path class="a" d="M414.5,219.978v.637h12.371v-.637c0-8.47-.02-16.94.016-25.409a2.649,2.649,0,0,0-1.531-2.769h-9.342a2.648,2.648,0,0,0-1.53,2.769C414.524,203.039,414.505,211.508,414.5,219.978Z" transform="translate(-259.33 0)"/><path class="a" d="M330.963,259.717q0-8.752,0-17.5c0-1.651-.779-2.416-2.452-2.418q-3.707,0-7.413,0c-1.75,0-2.5.751-2.5,2.51q0,8.683,0,17.366v.7h12.364Z" transform="translate(-179.786 -39.752)"/><path class="a" d="M222.63,300.12h12.331v-.6q0-4.7,0-9.4a2.093,2.093,0,0,0-2.324-2.34c-2.539-.01-5.077,0-7.616,0a2.133,2.133,0,0,0-2.421,2.451q0,4.631,0,9.263C222.6,299.7,222.618,299.895,222.63,300.12Z" transform="translate(-100.174 -79.599)"/><path class="a" d="M138.937,339.867c0-.788.053-1.542-.013-2.284a1.961,1.961,0,0,0-1.938-1.791q-4.218-.045-8.437,0a1.96,1.96,0,0,0-1.928,1.8c-.063.742-.012,1.494-.012,2.273Z" transform="translate(-20.532 -119.379)"/><path class="a" d="M394.7,458.838a2.063,2.063,0,1,0-4.115.021q-.015,3.94,0,7.881a2.066,2.066,0,1,0,4.116-.021c.009-1.3,0-2.6,0-3.906C394.7,461.488,394.711,460.163,394.7,458.838Z" transform="translate(-239.439 -219.631)"/><path class="a" d="M297.183,456.726a18.879,18.879,0,0,0-2.441-.021v4.066c.782,0,1.49.037,2.193-.009a2.042,2.042,0,0,0,1.895-1.917A1.976,1.976,0,0,0,297.183,456.726Z" transform="translate(-159.978 -219.633)"/></g></svg>