<svg xmlns="http://www.w3.org/2000/svg" width="43.931" height="36.282" viewBox="0 0 43.931 36.282"><defs><style>.a{fill:#c97a03;}</style></defs><g transform="translate(-3.041 0)"><path class="a" d="M414.5,227.276v.8h8.836v-.8q0-15.995.011-31.99c0-1.607-.243-2.8-1.093-3.486h-6.673c-.85.691-1.1,1.88-1.093,3.486Q414.527,211.281,414.5,227.276Z" transform="translate(-376.376 -191.8)"/><path class="a" d="M327.43,264.876q0-11.018,0-22.036c0-2.079-.556-3.042-1.751-3.044q-2.648-.005-5.3,0c-1.25,0-1.784.945-1.784,3.16q0,10.932,0,21.863v.881h8.831Z" transform="translate(-292.161 -229.418)"/><path class="a" d="M222.62,303.316h8.808v-.75q0-5.917,0-11.834c0-1.916-.575-2.939-1.66-2.946-1.813-.012-3.627-.006-5.44,0-1.174,0-1.729.993-1.73,3.086q0,5.831,0,11.661C222.6,302.782,222.612,303.032,222.62,303.316Z" transform="translate(-207.866 -267.156)"/><path class="a" d="M135.409,340.928c0-.992.038-1.941-.009-2.876-.063-1.26-.655-2.241-1.384-2.255q-3.013-.056-6.026,0c-.728.014-1.317,1.007-1.377,2.268-.045.934-.009,1.881-.009,2.862Z" transform="translate(-123.549 -304.811)"/></g></svg>