<svg xmlns="http://www.w3.org/2000/svg" width="100.869" height="100.869" viewBox="0 0 100.869 100.869"><defs><style>.a{fill:#c97a03;}</style></defs><g transform="translate(0 0)"><path class="a" d="M202.668,388.288c0-2.727-1.032-3.766-3.738-3.766q-46.63,0-93.26-.026c-1.807,0-3.1.545-3.87,2.2V435.99c.785,1.716,2.14,2.206,3.97,2.2q46.531-.055,93.063-.027c2.843,0,3.836-1,3.836-3.867Q202.669,411.295,202.668,388.288Zm-68.233,31.873a2.985,2.985,0,0,1,3.016,3,2.937,2.937,0,0,1-2.982,2.92q-5.856.045-11.713,0a2.942,2.942,0,0,1-3.021-2.983,2.99,2.99,0,0,1,3.074-2.94c.91-.02,1.821,0,2.782,0V402.337c-.855,0-1.725.007-2.6,0a3.017,3.017,0,0,1-3.26-2.956,2.985,2.985,0,0,1,3.23-2.977q5.61-.018,11.221,0a2.993,2.993,0,0,1,3.265,2.943c.014,1.759-1.332,2.976-3.318,2.991-.816.006-1.633,0-2.519,0v17.819C132.6,420.156,133.521,420.135,134.435,420.161Zm19.1-6.106c-1.361.164-2.743.159-4.26.239,0,2.938.029,5.835-.009,8.731A2.928,2.928,0,0,1,145,425.751a3.01,3.01,0,0,1-1.635-2.929c.01-4.156,0-8.313,0-12.469q0-5.245,0-10.489c0-2.311,1.149-3.477,3.45-3.459,2.23.018,4.475-.063,6.685.168a8.831,8.831,0,0,1,.032,17.482Zm31.2-2.792H184.6c0,2.4.186,4.826-.041,7.209a8.758,8.758,0,0,1-17.364.016c-.256-2.714-.167-5.465-.172-8.2a60.178,60.178,0,0,1,.166-6.32,8.768,8.768,0,0,1,17.007-1.54,13.613,13.613,0,0,1,.523,3.295C184.8,407.567,184.741,409.416,184.741,411.263Z" transform="translate(-101.8 -337.325)"/><path class="a" d="M414.511,232.4v.919h17.826V232.4c0-12.2-.028-24.41.023-36.614.008-1.839-.491-3.2-2.206-3.99H416.694c-1.714.791-2.213,2.151-2.2,3.99C414.54,207.995,414.513,220.2,414.511,232.4Z" transform="translate(-337.601 -191.8)"/><path class="a" d="M336.415,268.5q0-12.611,0-25.222c0-2.38-1.122-3.482-3.533-3.484q-5.341-.006-10.682,0c-2.522,0-3.6,1.082-3.6,3.617q0,12.512,0,25.024v1.008h17.816Z" transform="translate(-265.264 -227.918)"/><path class="a" d="M222.645,305.563h17.769V304.7q0-6.772,0-13.545a3.016,3.016,0,0,0-3.349-3.372c-3.658-.014-7.316-.007-10.974,0-2.368,0-3.487,1.137-3.489,3.532q-.005,6.674,0,13.347C222.6,304.951,222.627,305.237,222.645,305.563Z" transform="translate(-192.879 -264.175)"/><path class="a" d="M144.382,341.674c0-1.136.076-2.221-.018-3.292a2.827,2.827,0,0,0-2.793-2.581q-6.078-.065-12.157,0a2.825,2.825,0,0,0-2.779,2.6c-.091,1.069-.018,2.153-.018,3.276Z" transform="translate(-120.455 -300.335)"/><path class="a" d="M396.516,459.812a2.973,2.973,0,1,0-5.93.03q-.022,5.678,0,11.357a2.978,2.978,0,1,0,5.931-.03c.014-1.876,0-3.753,0-5.629C396.52,463.631,396.534,461.721,396.516,459.812Z" transform="translate(-319.483 -391.499)"/><path class="a" d="M298.259,456.749a27.211,27.211,0,0,0-3.517-.03v5.86c1.127,0,2.147.053,3.16-.013a2.942,2.942,0,0,0,2.73-2.763A2.847,2.847,0,0,0,298.259,456.749Z" transform="translate(-247.242 -391.483)"/></g></svg>