<svg xmlns="http://www.w3.org/2000/svg" width="62" height="62" viewBox="0 0 62 62"><defs><style>.a{fill:#6f7559;}</style></defs><path class="a" d="M25,99.237a4.767,4.767,0,0,0,2.756,4.313l23.223,10.745a4.741,4.741,0,0,0,3.987,0L78.188,103.55a4.767,4.767,0,0,0,2.756-4.313V60H25Zm32.423-21.2a5.634,5.634,0,0,1,11.268,0v7.635a5.634,5.634,0,1,1-11.268,0Zm-13.37-2.8a2.863,2.863,0,0,1,2.86-2.836h5.122a3.289,3.289,0,0,1,3.285,3.285v4.7a3.29,3.29,0,0,1-3.285,3.286h-4.35v5.819a1.816,1.816,0,1,1-3.633,0ZM38,74.225a1.816,1.816,0,1,1,3.633,0v15.27a1.816,1.816,0,1,1-3.633,0Zm1.816,19.581H66.874a1.816,1.816,0,0,1,0,3.633H39.812a1.816,1.816,0,0,1,0-3.633Zm0,0" transform="translate(-21.972 -52.734)"/><path class="a" d="M212.34,192.465h4v4h-4Zm0,0" transform="translate(-186.627 -169.159)"/><path class="a" d="M324.751,204.1a2,2,0,0,0,2-2v-7.635a2,2,0,0,0-4,0V202.1A2,2,0,0,0,324.751,204.1Zm0,0" transform="translate(-283.667 -169.159)"/><path class="a" d="M60.184,0H1.816a1.816,1.816,0,0,0,0,3.633H60.184a1.816,1.816,0,1,0,0-3.633Zm0,0"/></svg>