<svg xmlns="http://www.w3.org/2000/svg" width="73.389" height="48.188" viewBox="0 0 73.389 48.188">
  <g id="Group_10205" data-name="Group 10205" transform="translate(-77.517 -226.6)">
    <g id="Group_10199" data-name="Group 10199" transform="translate(77.517 226.6)">
      <g id="Group_10198" data-name="Group 10198" transform="translate(0 0)">
        <path id="Path_4406" data-name="Path 4406" d="M146.356,269.719H104.765c-1.874,0-3.748.017-5.631,0a3.983,3.983,0,0,1-.447-.025c.228.034.447.059.675.093a3.244,3.244,0,0,1-.743-.211l.608.253a2.671,2.671,0,0,1-.346-.177c-.262-.16-.245-.338.093.093-.076-.1-.194-.186-.279-.279l-.051-.051c-.084-.1-.169-.2-.262-.3l-1.114-1.292c-1.317-1.519-2.625-3.047-3.942-4.567q-4.5-5.217-8.99-10.425l-1.444-1.671c-.118-.143-.245-.279-.363-.422-.025-.025-.051-.059-.076-.084,0-.008-.008-.008-.008-.017.38.4.279.414.169.211a4.134,4.134,0,0,1-.219-.431l.253.608a3.336,3.336,0,0,1-.177-.692c.034.228.059.447.093.675a3.452,3.452,0,0,1,0-.591c-.034.228-.059.447-.093.675a3.336,3.336,0,0,1,.177-.692l-.253.608c.051-.11.1-.219.16-.329.118-.2.371-.388-.11.11a.008.008,0,0,1,.008-.008c.025-.025.042-.051.068-.076.093-.11.194-.219.287-.329.388-.447.777-.9,1.165-1.351q2-2.317,3.993-4.634,4.47-5.192,8.94-10.375c.464-.54.929-1.072,1.384-1.612l.329-.38c.017-.025.042-.042.059-.068.059-.068.127-.127.186-.194.329-.355-.523.312-.11.068a4.734,4.734,0,0,1,.456-.245l-.608.253a3.372,3.372,0,0,1,.743-.211c-.228.034-.447.059-.675.093a14.341,14.341,0,0,1,1.6-.025H140.6c1.891,0,3.782-.017,5.681,0,.1,0,.2.008.3.017-.228-.034-.447-.059-.675-.093a2.386,2.386,0,0,1,.549.144l-.608-.253c.1.051.194.1.3.152.38.194-.473-.405-.169-.118.3.27-.312-.549-.118-.169.051.1.11.194.152.3l-.253-.608a2.386,2.386,0,0,1,.143.549c-.034-.228-.059-.447-.093-.675.034.414.017.827.017,1.241v33.352c0,1.562.017,3.123,0,4.677,0,.093-.008.194-.017.287.034-.228.059-.447.093-.675a2.386,2.386,0,0,1-.143.549l.253-.608c-.051.1-.1.194-.152.3-.194.38.405-.473.118-.169-.27.3.549-.312.169-.118-.1.051-.194.11-.3.152l.608-.253a2.385,2.385,0,0,1-.549.144c.228-.034.447-.059.675-.093a1.9,1.9,0,0,0-.219,0,2.532,2.532,0,1,0,0,5.065,4.633,4.633,0,0,0,4.55-4.567V231.251a4.671,4.671,0,0,0-2.051-3.9,5.672,5.672,0,0,0-3.427-.751H99.168a5.6,5.6,0,0,0-3.782,1.46,8.2,8.2,0,0,0-.633.692q-3.457,4.014-6.905,8.019l-7.876,9.142c-.92,1.064-2.034,2.153-2.33,3.571a5.273,5.273,0,0,0,.684,4.01c.194.279.405.54.625.8.236.279.473.549.709.827q3.8,4.406,7.606,8.821l7.268,8.433c.186.22.371.439.557.65a5.476,5.476,0,0,0,4.01,1.756c.549.008,1.1,0,1.646,0h45.6a2.532,2.532,0,0,0,.008-5.065Z" transform="translate(-77.517 -226.6)" fill="#373737"/>
      </g>
    </g>
    <g id="Group_10201" data-name="Group 10201" transform="translate(108.553 238.782)">
      <g id="Group_10200" data-name="Group 10200" transform="translate(0 0)">
        <path id="Path_4407" data-name="Path 4407" d="M464.7,371.634l-6.373,6.373-10.1,10.1-2.33,2.33a2.531,2.531,0,0,0,3.579,3.579l6.373-6.373,10.1-10.1,2.33-2.33a2.531,2.531,0,0,0-3.579-3.579Z" transform="translate(-445.172 -370.909)" fill="#373737"/>
      </g>
    </g>
    <g id="Group_10203" data-name="Group 10203" transform="translate(108.556 238.779)">
      <g id="Group_10202" data-name="Group 10202" transform="translate(0 0)">
        <path id="Path_4408" data-name="Path 4408" d="M445.934,375.18l6.373,6.373,10.1,10.1,2.33,2.33a2.531,2.531,0,0,0,3.579-3.579l-6.373-6.373-10.1-10.1-2.33-2.33a2.531,2.531,0,0,0-3.579,3.579Z" transform="translate(-445.209 -370.872)" fill="#373737"/>
      </g>
    </g>
  </g>
</svg>
