<svg xmlns="http://www.w3.org/2000/svg" width="61.283" height="69.523" viewBox="0 0 61.283 69.523"><defs><style>.a{fill:#593cc7;}</style></defs><g transform="translate(-30.252)"><g transform="translate(40.466)"><g transform="translate(0)"><path class="a" d="M124.162,35.192c-3.018-2.843-5.661-5.153-7.928-7.134-7.082-6.188-10.982-9.6-10.982-16.1,0-6.7,4.91-11.957,11.175-11.957a10.891,10.891,0,0,1,9.2,5.273A10.768,10.768,0,0,1,134.695,0c6.268,0,11.177,5.253,11.177,11.957,0,6.625-4.058,10.156-11.421,16.566-2.162,1.881-4.66,4.056-7.5,6.683A2.042,2.042,0,0,1,124.162,35.192Z" transform="translate(-105.252 0)"/></g></g><path class="a" d="M58.851,156.663a10.213,10.213,0,0,0-5.646-9.135l-7.74-3.87a2.043,2.043,0,0,0-2.956,1.827c.08.456-.532,4.927,2.79,7.085l4.451,2.891a2.043,2.043,0,1,1-2.226,3.427l-6.312-4.1a6.128,6.128,0,0,1-2.789-5.138V138.415a9.433,9.433,0,0,0-5.215-8.438,2.043,2.043,0,0,0-2.956,1.827v19.881c0,9.236,9.168,13.911,8.774,13.5a7.82,7.82,0,0,1,3.482,6.507v7.874a2.043,2.043,0,0,0,2.043,2.043H56.808a2.043,2.043,0,0,0,2.043-2.043V156.663Z" transform="translate(0 -112.088)"/><path class="a" d="M275.9,147.528l7.74-3.87a2.043,2.043,0,0,1,2.956,1.827c-.08.456.532,4.927-2.79,7.085l-4.451,2.891a2.043,2.043,0,0,0,2.226,3.427l6.312-4.1a6.128,6.128,0,0,0,2.789-5.138V138.415a9.433,9.433,0,0,1,5.215-8.438,2.043,2.043,0,0,1,2.956,1.827v19.881c0,9.236-9.168,13.911-8.774,13.5a7.82,7.82,0,0,0-3.482,6.507v7.874a2.043,2.043,0,0,1-2.043,2.043H272.3a2.043,2.043,0,0,1-2.043-2.043V156.663a10.212,10.212,0,0,1,5.645-9.135Z" transform="translate(-207.317 -112.088)"/></g></svg>