<svg width="12" height="12" viewBox="0 0 12 12" fill="none" xmlns="http://www.w3.org/2000/svg">
<g clip-path="url(#clip0_10732_446)">
<path d="M10.182 6.35318C10.2757 6.25942 10.3284 6.13227 10.3284 5.99968C10.3284 5.8671 10.2757 5.73995 10.182 5.64618L7.35351 2.81768C7.30738 2.76993 7.25221 2.73184 7.19121 2.70563C7.13021 2.67943 7.0646 2.66563 6.99821 2.66506C6.93182 2.66448 6.86598 2.67713 6.80453 2.70227C6.74308 2.72741 6.68726 2.76454 6.64031 2.81149C6.59336 2.85843 6.55624 2.91426 6.5311 2.97571C6.50596 3.03715 6.4933 3.10299 6.49388 3.16938C6.49446 3.23577 6.50825 3.30138 6.53446 3.36239C6.56066 3.42339 6.59875 3.47856 6.64651 3.52468L8.62151 5.49968L2.00001 5.49968C1.8674 5.49968 1.74022 5.55236 1.64645 5.64613C1.55268 5.7399 1.50001 5.86707 1.50001 5.99968C1.50001 6.13229 1.55268 6.25947 1.64645 6.35324C1.74022 6.447 1.8674 6.49968 2.00001 6.49968L8.62151 6.49968L6.64651 8.47468C6.55543 8.56898 6.50503 8.69529 6.50617 8.82638C6.50731 8.95748 6.55989 9.08289 6.6526 9.17559C6.7453 9.2683 6.87071 9.32088 7.00181 9.32202C7.1329 9.32316 7.25921 9.27276 7.35351 9.18168L10.182 6.35318Z" fill="#5739BC"/>
</g>
<defs>
<clipPath id="clip0_10732_446">
<rect width="12" height="12" fill="white" transform="matrix(0 1 -1 0 12 0)"/>
</clipPath>
</defs>
</svg>
