<svg xmlns="http://www.w3.org/2000/svg" width="201.261" height="345.071" viewBox="0 0 201.261 345.071">
  <g id="lock" transform="translate(-106.689)">
    <path id="Path_2450" data-name="Path 2450" d="M307.95,18.875A18.9,18.9,0,0,0,289.075,0H125.564a18.9,18.9,0,0,0-18.875,18.875V326.2a18.9,18.9,0,0,0,18.875,18.875H289.075A18.9,18.9,0,0,0,307.95,326.2V77.424a5.049,5.049,0,0,0-10.1,0V283.732H176.9a5.049,5.049,0,0,0,0,10.1H297.85V326.2a8.786,8.786,0,0,1-8.776,8.776H125.564a8.786,8.786,0,0,1-8.776-8.776V293.831H151.65a5.049,5.049,0,0,0,0-10.1H116.788V50.582H297.851v3.573a5.049,5.049,0,0,0,10.1,0ZM116.788,40.483V18.875a8.786,8.786,0,0,1,8.776-8.776H289.075a8.786,8.786,0,0,1,8.776,8.776V40.483Z" transform="translate(0)" fill="#706d7d"/>
    <path id="Path_2451" data-name="Path 2451" d="M186.247,139.593a5.05,5.05,0,1,0-8.439-5.547,53.009,53.009,0,0,0-8.726,29.195v14.867a17.528,17.528,0,0,0-15.633,17.4V261.18a17.524,17.524,0,0,0,17.5,17.5H274.177a17.524,17.524,0,0,0,17.5-17.5V195.511a17.524,17.524,0,0,0-16.036-17.438V163.241a53.269,53.269,0,0,0-78.454-46.952,5.05,5.05,0,1,0,4.785,8.894,43.172,43.172,0,0,1,63.57,38.06v14.766H251.409V163.242a29.044,29.044,0,1,0-58.089,0v14.766H179.181V163.242A42.926,42.926,0,0,1,186.247,139.593Zm95.335,55.918V261.18a7.414,7.414,0,0,1-7.405,7.405H170.952a7.414,7.414,0,0,1-7.406-7.405V195.511a7.414,7.414,0,0,1,7.406-7.405H274.177A7.414,7.414,0,0,1,281.582,195.511Zm-78.165-32.27a18.946,18.946,0,1,1,37.892,0v14.766H203.417Z" transform="translate(-15.245 -35.85)" fill="#706d7d"/>
    <path id="Path_2452" data-name="Path 2452" d="M261.232,242.926a22.91,22.91,0,0,0-17.312-6.212,23.112,23.112,0,0,0-10.949,42.543v8.326a8.9,8.9,0,0,0,8.892,8.892h7.106a8.9,8.9,0,0,0,8.892-8.892v-8.325a23.112,23.112,0,0,0,3.371-36.332Zm-10.492,28.732a5.051,5.051,0,0,0-2.979,4.606v10.112H243.07V276.264a5.051,5.051,0,0,0-2.98-4.606,13.016,13.016,0,0,1,4.469-24.865,13.017,13.017,0,0,1,13.873,12.989,13.046,13.046,0,0,1-7.691,11.876Z" transform="translate(-37.694 -77.161)" fill="#706d7d"/>
  </g>
</svg>
