<svg id="Group_2340" data-name="Group 2340" xmlns="http://www.w3.org/2000/svg" xmlns:xlink="http://www.w3.org/1999/xlink" width="32.746" height="36.813" viewBox="0 0 32.746 36.813">
  <defs>
    <clipPath id="clip-path">
      <rect id="Rectangle_2243" data-name="Rectangle 2243" width="32.746" height="36.813" fill="#bfb8ea"/>
    </clipPath>
  </defs>
  <g id="Group_2339" data-name="Group 2339" clip-path="url(#clip-path)">
    <path id="Path_4031" data-name="Path 4031" d="M29.052,14.859a7.429,7.429,0,1,1,7.429-7.43,7.438,7.438,0,0,1-7.429,7.43m0-13.363a5.934,5.934,0,1,0,5.934,5.934A5.941,5.941,0,0,0,29.052,1.5" transform="translate(-12.679)" fill="#bfb8ea"/>
    <path id="Path_4032" data-name="Path 4032" d="M29.052,14.859a7.429,7.429,0,1,1,7.429-7.43,7.438,7.438,0,0,1-7.429,7.43m0-13.363a5.934,5.934,0,1,0,5.934,5.934A5.941,5.941,0,0,0,29.052,1.5" transform="translate(-12.679)" fill="#bfb8ea"/>
    <path id="Path_4033" data-name="Path 4033" d="M15.318,70.642,13.725,59.491a1.551,1.551,0,0,1,1.56-1.8H33.538a1.551,1.551,0,0,1,1.559,1.8L33.5,70.642Zm1.3-1.5H32.207L33.6,59.4h.144V58.44h-.414v.748H15.193Z" transform="translate(-8.038 -33.83)" fill="#bfb8ea"/>
    <path id="Path_4034" data-name="Path 4034" d="M15.318,70.642,13.725,59.491a1.551,1.551,0,0,1,1.56-1.8H33.538a1.551,1.551,0,0,1,1.559,1.8L33.5,70.642Zm1.3-1.5H32.207L33.6,59.188H15.193Z" transform="translate(-8.038 -33.83)" fill="#bfb8ea"/>
    <path id="Path_4035" data-name="Path 4035" d="M27.813,61.17l.214-1.5h.946a2.162,2.162,0,0,0,2.248-2.593L29.654,46.108a3.741,3.741,0,0,0-3.544-3.074H6.637a3.74,3.74,0,0,0-3.544,3.074L1.525,57.082a2.28,2.28,0,0,0,.484,1.851,2.281,2.281,0,0,0,1.764.742h.947l.213,1.5H3.774A3.751,3.751,0,0,1,.88,59.913,3.751,3.751,0,0,1,.045,56.87L1.613,45.9a5.232,5.232,0,0,1,5.025-4.358H26.11A5.232,5.232,0,0,1,31.134,45.9L32.7,56.87a3.653,3.653,0,0,1-3.729,4.3Z" transform="translate(0 -24.357)" fill="#bfb8ea"/>
    <path id="Path_4036" data-name="Path 4036" d="M27.813,61.17l.214-1.5h.946a2.162,2.162,0,0,0,2.248-2.593L29.654,46.108a3.741,3.741,0,0,0-3.544-3.074H6.637a3.74,3.74,0,0,0-3.544,3.074L1.525,57.082a2.28,2.28,0,0,0,.484,1.851,2.281,2.281,0,0,0,1.764.742h.947l.213,1.5H3.774A3.751,3.751,0,0,1,.88,59.913,3.751,3.751,0,0,1,.045,56.87L1.613,45.9a5.232,5.232,0,0,1,5.025-4.358H26.11A5.232,5.232,0,0,1,31.134,45.9L32.7,56.87a3.653,3.653,0,0,1-3.729,4.3Z" transform="translate(0 -24.357)" fill="#bfb8ea"/>
  </g>
</svg>
