<svg xmlns="http://www.w3.org/2000/svg" width="27.496" height="25.578" viewBox="0 0 27.496 25.578">
  <path id="Color_Overlay" data-name="Color Overlay" d="M11.163.623.619,11.293l0,0a2.152,2.152,0,0,0,0,3.018l10.544,10.67a2.1,2.1,0,0,0,3.163-.278,2.229,2.229,0,0,0-.306-2.828l-5.831-5.9A4.22,4.22,0,0,0,7,15.123l-.453-.213H25.36a2.065,2.065,0,0,0,.365-.027,2.131,2.131,0,0,0,1.744-2.448,2.188,2.188,0,0,0-2.225-1.792H6.513l.633-.288A4.231,4.231,0,0,0,8.2,9.575l5.82-5.911A2.229,2.229,0,0,0,14.326.836a2.067,2.067,0,0,0-.181-.209,2.092,2.092,0,0,0-2.982,0Z" transform="translate(27.496 25.578) rotate(180)" fill="#F37921"/>
</svg>
