<svg id="Logo" xmlns="http://www.w3.org/2000/svg" width="325.344" height="162.67" viewBox="0 0 325.344 162.67">
  <g id="Vector_Smart_Object" data-name="Vector Smart Object" transform="translate(0 0)">
    <g id="Group_50" data-name="Group 50" transform="translate(0 0)">
      <g id="Group_47" data-name="Group 47" transform="translate(66.762)">
        <path id="Path_3367" data-name="Path 3367" d="M103.476,79.038H75.425l-1.7,5.764a10.357,10.357,0,0,1-9.935,7.414H46.3L73.829,19.086a10.358,10.358,0,0,1,9.7-6.7H103.3l24.784,65.854a10.345,10.345,0,0,1-9.7,13.981H107.476ZM98.351,61.774l-8.825-28.7-8.735,28.7Z" transform="translate(-46.3 -12.381)" fill="#fff"/>
      </g>
      <g id="Group_48" data-name="Group 48" transform="translate(121.518)">
        <path id="Path_3368" data-name="Path 3368" d="M130.4,79.038h-28.05L100.649,84.8a10.356,10.356,0,0,1-9.935,7.414H73.229l27.53-73.131a10.357,10.357,0,0,1,9.7-6.7h19.778l24.784,65.854a10.345,10.345,0,0,1-9.7,13.981H134.405ZM125.28,61.774l-8.826-28.7-8.733,28.7Z" transform="translate(-73.229 -12.381)" fill="#f06112"/>
      </g>
      <g id="Group_49" data-name="Group 49" transform="translate(176.122)">
        <path id="Path_3369" data-name="Path 3369" d="M157.258,79.038H129.207L127.5,84.8a10.357,10.357,0,0,1-9.935,7.414H100.082l27.529-73.131a10.358,10.358,0,0,1,9.7-6.7h19.778l24.784,65.854a10.345,10.345,0,0,1-9.7,13.981H161.259Zm-5.126-17.264-8.825-28.7-8.733,28.7Z" transform="translate(-100.082 -12.381)" fill="#fff"/>
      </g>
      <path id="Path_3370" data-name="Path 3370" d="M47.54,91.825H34.656l-1.069,3.616a3.4,3.4,0,0,1-3.266,2.437H21.28L34.252,63.415a3.407,3.407,0,0,1,3.188-2.2H47.46L59.53,93.281a3.4,3.4,0,0,1-3.188,4.6H49.378ZM45.186,83.9,41.133,70.715,37.121,83.9Z" transform="translate(-5.394 38.079)" fill="#fff"/>
      <path id="Path_3371" data-name="Path 3371" d="M45.817,64.611a3.4,3.4,0,0,1,3.405-3.4H62.676a20.221,20.221,0,0,1,8.054,1.351A13.092,13.092,0,0,1,75.8,66.438a16.039,16.039,0,0,1,2.905,5.878,27.213,27.213,0,0,1,.9,7.1,24.626,24.626,0,0,1-1.34,9.116,15.08,15.08,0,0,1-3.719,5.428,12.135,12.135,0,0,1-5.111,2.913,26.353,26.353,0,0,1-6.764,1H45.817Zm11.348,4.9V89.549h2.78a11.712,11.712,0,0,0,5.061-.788A5.335,5.335,0,0,0,67.36,86.01a17.223,17.223,0,0,0,.853-6.366q0-5.826-1.9-7.979T60,69.515Z" transform="translate(19.963 38.079)" fill="#fff"/>
      <path id="Path_3372" data-name="Path 3372" d="M69.914,61.211H76.85L85.116,87.6l7.418-23.991a3.4,3.4,0,0,1,3.254-2.4h9L91.981,95.662a3.406,3.406,0,0,1-3.193,2.216H78.857L66.729,65.813A3.4,3.4,0,0,1,69.914,61.211Z" transform="translate(41.343 38.079)" fill="#fff"/>
      <path id="Path_3373" data-name="Path 3373" d="M93.812,61.211h7.967V94.478a3.4,3.4,0,0,1-3.405,3.4H90.407V64.611A3.4,3.4,0,0,1,93.812,61.211Z" transform="translate(66.042 38.079)" fill="#fff"/>
      <path id="Path_3374" data-name="Path 3374" d="M105.628,85.82l6.861-.43a8.21,8.21,0,0,0,1.428,4,6,6,0,0,0,5.01,2.226,5.552,5.552,0,0,0,3.744-1.137,3.409,3.409,0,0,0,1.315-2.639,3.364,3.364,0,0,0-1.252-2.552q-1.253-1.125-5.812-2.126-7.465-1.674-10.646-4.452a8.944,8.944,0,0,1-3.205-7.078,9.611,9.611,0,0,1,1.639-5.34,10.885,10.885,0,0,1,4.936-3.952,23.076,23.076,0,0,1,9.03-1.438q7.039,0,10.734,2.614a9.589,9.589,0,0,1,3.09,3.668,3.4,3.4,0,0,1-2.864,4.892l-6.526.381a4.994,4.994,0,0,0-5.56-4.727,4.545,4.545,0,0,0-2.981.838,2.563,2.563,0,0,0-1,2.038,2.039,2.039,0,0,0,.826,1.576,9.289,9.289,0,0,0,3.807,1.351,47.664,47.664,0,0,1,10.659,3.239,11.2,11.2,0,0,1,4.685,4.063,10.306,10.306,0,0,1,1.466,5.428,11.611,11.611,0,0,1-1.954,6.5,12.214,12.214,0,0,1-5.461,4.515,22.085,22.085,0,0,1-8.843,1.539q-9.369,0-12.976-3.6a13.521,13.521,0,0,1-3.158-4.906A3.381,3.381,0,0,1,105.628,85.82Z" transform="translate(78.448 37.761)" fill="#fff"/>
      <path id="Path_3375" data-name="Path 3375" d="M123.577,79.888q0-8.981,5.01-13.982t13.952-5q9.168,0,14.128,4.915t4.961,13.769a22.548,22.548,0,0,1-2.168,10.543,15.443,15.443,0,0,1-6.263,6.4,20.69,20.69,0,0,1-10.208,2.289,23.5,23.5,0,0,1-10.282-1.976,15.458,15.458,0,0,1-6.6-6.253A20.716,20.716,0,0,1,123.577,79.888Zm11.348.049q0,5.553,2.066,7.98a7.83,7.83,0,0,0,11.284.049q2-2.376,2-8.528,0-5.179-2.093-7.566a7.151,7.151,0,0,0-5.672-2.389A6.9,6.9,0,0,0,137,71.908Q134.924,74.335,134.926,79.937Z" transform="translate(100.32 37.761)" fill="#fff"/>
      <path id="Path_3376" data-name="Path 3376" d="M23.056,95.132h-4.7L17.7,97.343H13.467l5.04-13.389h4.519l5.039,13.389h-4.34ZM22.2,92.238l-1.48-4.813-1.465,4.813Z" transform="translate(-13.467 61.581)" fill="#de5317"/>
      <path id="Path_3377" data-name="Path 3377" d="M24.624,83.954h3.869l5.049,7.407V83.954h3.906V97.343H33.542l-5.02-7.352v7.352h-3.9Z" transform="translate(-1.938 61.581)" fill="#de5317"/>
      <path id="Path_3378" data-name="Path 3378" d="M34.936,83.954h4.6l2.7,4.517,2.708-4.517h4.577l-5.213,7.78v5.608H40.158V91.735Z" transform="translate(8.718 61.581)" fill="#de5317"/>
      <path id="Path_3379" data-name="Path 3379" d="M45.62,83.954h12.6V87.26H53.99V97.343H49.847V87.26H45.62Z" transform="translate(19.759 61.581)" fill="#de5317"/>
      <path id="Path_3380" data-name="Path 3380" d="M56.134,83.954h4.152V97.343H56.134Z" transform="translate(30.624 61.581)" fill="#de5317"/>
      <path id="Path_3381" data-name="Path 3381" d="M62.933,83.954h5.449l2.1,8.145,2.086-8.145h5.446V97.343H74.621V87.132L72.006,97.343H68.935l-2.61-10.211V97.343H62.933Z" transform="translate(37.65 61.581)" fill="#de5317"/>
      <path id="Path_3382" data-name="Path 3382" d="M74.962,83.954h11.1v2.858H79.114v2.128h6.449v2.73H79.114v2.64h7.153v3.032H74.962Z" transform="translate(50.081 61.581)" fill="#de5317"/>
      <path id="Path_3383" data-name="Path 3383" d="M85.125,82.3h2.8v20.491h-2.8Z" transform="translate(60.583 59.876)" fill="#fff"/>
      <path id="Path_3384" data-name="Path 3384" d="M100.913,95.132h-4.7l-.653,2.211H91.324l5.041-13.389h4.519l5.039,13.389h-4.34Zm-.859-2.894-1.48-4.813L97.11,92.238Z" transform="translate(66.99 61.581)" fill="#de5317"/>
      <path id="Path_3385" data-name="Path 3385" d="M102.482,83.954h3.869l5.049,7.407V83.954h3.906V97.343H111.4l-5.022-7.352v7.352h-3.9Z" transform="translate(78.52 61.581)" fill="#de5317"/>
      <path id="Path_3386" data-name="Path 3386" d="M112.793,83.954h4.6l2.7,4.517,2.708-4.517h4.577l-5.213,7.78v5.608h-4.154V91.735Z" transform="translate(89.176 61.581)" fill="#de5317"/>
      <path id="Path_3387" data-name="Path 3387" d="M123.262,83.954H127.2l1.418,7.495,2.074-7.495h3.921l2.079,7.486,1.418-7.486h3.915l-2.955,13.389H135l-2.351-8.43-2.343,8.43h-4.063Z" transform="translate(99.994 61.581)" fill="#de5317"/>
      <path id="Path_3388" data-name="Path 3388" d="M136.479,83.954h4.144v4.684h4.527V83.954h4.163V97.343h-4.163V91.927h-4.527v5.416h-4.144Z" transform="translate(113.652 61.581)" fill="#de5317"/>
      <path id="Path_3389" data-name="Path 3389" d="M147.456,83.954h11.1v2.858h-6.952v2.128h6.449v2.73h-6.449v2.64h7.153v3.032H147.456Z" transform="translate(124.996 61.581)" fill="#de5317"/>
      <path id="Path_3390" data-name="Path 3390" d="M157.456,97.343V83.954h6.907a10.036,10.036,0,0,1,2.935.329,3.129,3.129,0,0,1,1.638,1.219,3.78,3.78,0,0,1-1.163,5.4,5,5,0,0,1-1.456.529,4.077,4.077,0,0,1,1.079.494,4.171,4.171,0,0,1,.663.7,5.142,5.142,0,0,1,.58.831l2.007,3.88h-4.683l-2.214-4.092A3.142,3.142,0,0,0,163,92.219a1.737,1.737,0,0,0-1.015-.311h-.366v5.435Zm4.163-7.965h1.747a6.261,6.261,0,0,0,1.1-.182,1.1,1.1,0,0,0,.672-.42A1.357,1.357,0,0,0,164.985,87a2.491,2.491,0,0,0-1.546-.347h-1.82Z" transform="translate(135.331 61.581)" fill="#de5317"/>
      <path id="Path_3391" data-name="Path 3391" d="M167.908,83.954h11.1v2.858H172.06v2.128h6.449v2.73H172.06v2.64h7.153v3.032H167.908Z" transform="translate(146.131 61.581)" fill="#de5317"/>
      <path id="Path_3392" data-name="Path 3392" d="M182.2,70.662V60.674H147.018v9.988h15.463a5.415,5.415,0,0,1,.759,1.913H147.179v6.534h12.128a14.462,14.462,0,0,1-1.6.808l-9.63,3.523,14.757,16.049,13.427-.43-12.739-13.63a16.28,16.28,0,0,0,8.54-6.319h10.051V72.574H173.6a9.775,9.775,0,0,0-.447-1.913Z" transform="translate(124.543 37.524)" fill="#fff"/>
    </g>
  </g>
</svg>
