<svg xmlns="http://www.w3.org/2000/svg" width="160" height="80" viewBox="0 0 160 80">
  <g id="Logo" transform="translate(-1011 -114)">
    <g id="Vector_Smart_Object" data-name="Vector Smart Object" transform="translate(997.533 101.619)">
      <g id="Group_50" data-name="Group 50">
        <g id="Group_47" data-name="Group 47">
          <path id="Path_3367" data-name="Path 3367" d="M74.419,45.163h-13.8L59.785,48A5.094,5.094,0,0,1,54.9,51.644H46.3L59.838,15.679a5.094,5.094,0,0,1,4.769-3.3h9.726L86.523,44.768a5.088,5.088,0,0,1-4.769,6.876H76.386ZM71.9,36.672l-4.34-14.114-4.3,14.114Z" fill="#10184c"/>
        </g>
        <g id="Group_48" data-name="Group 48">
          <path id="Path_3368" data-name="Path 3368" d="M101.347,45.163H87.553L86.714,48a5.093,5.093,0,0,1-4.886,3.646h-8.6L86.767,15.679a5.093,5.093,0,0,1,4.769-3.3h9.726l12.189,32.387a5.087,5.087,0,0,1-4.769,6.876h-5.368Zm-2.52-8.49L94.486,22.559,90.191,36.672Z" fill="#f06112"/>
        </g>
        <g id="Group_49" data-name="Group 49">
          <path id="Path_3369" data-name="Path 3369" d="M128.2,45.163h-13.8L113.567,48a5.094,5.094,0,0,1-4.886,3.646h-8.6L113.62,15.679a5.094,5.094,0,0,1,4.769-3.3h9.726L140.3,44.768a5.088,5.088,0,0,1-4.769,6.876h-5.367Zm-2.521-8.49-4.34-14.114-4.295,14.114Z" fill="#10184c"/>
        </g>
        <path id="Path_3370" data-name="Path 3370" d="M34.194,76.267H27.858l-.526,1.778a1.674,1.674,0,0,1-1.606,1.2H21.28l6.38-16.948a1.675,1.675,0,0,1,1.568-1.084h4.927l5.936,15.772a1.672,1.672,0,0,1-1.568,2.26H35.1Zm-1.158-3.9-1.993-6.482-1.973,6.482Z" fill="#10184c"/>
        <path id="Path_3371" data-name="Path 3371" d="M45.817,62.883a1.674,1.674,0,0,1,1.675-1.672h6.616a9.944,9.944,0,0,1,3.961.664,6.438,6.438,0,0,1,2.495,1.906,7.888,7.888,0,0,1,1.429,2.891,13.383,13.383,0,0,1,.444,3.493,12.111,12.111,0,0,1-.659,4.483,7.416,7.416,0,0,1-1.829,2.669,5.968,5.968,0,0,1-2.513,1.433,12.96,12.96,0,0,1-3.326.492H45.817ZM51.4,65.295v9.853h1.367a5.76,5.76,0,0,0,2.489-.387,2.624,2.624,0,0,0,1.158-1.353,8.47,8.47,0,0,0,.419-3.131q0-2.865-.936-3.924a3.967,3.967,0,0,0-3.1-1.058Z" fill="#10184c"/>
        <path id="Path_3372" data-name="Path 3372" d="M68.182,61.211h3.411l4.065,12.977,3.648-11.8a1.675,1.675,0,0,1,1.6-1.179h4.428l-6.3,16.942a1.675,1.675,0,0,1-1.57,1.09H72.58L66.615,63.474A1.672,1.672,0,0,1,68.182,61.211Z" fill="#10184c"/>
        <path id="Path_3373" data-name="Path 3373" d="M92.082,61.211H96v16.36a1.673,1.673,0,0,1-1.675,1.672H90.407V62.883A1.674,1.674,0,0,1,92.082,61.211Z" fill="#10184c"/>
        <path id="Path_3374" data-name="Path 3374" d="M103.994,73.157l3.374-.212a4.037,4.037,0,0,0,.7,1.968,2.952,2.952,0,0,0,2.464,1.095,2.73,2.73,0,0,0,1.841-.559,1.677,1.677,0,0,0,.647-1.3,1.654,1.654,0,0,0-.616-1.255,7.145,7.145,0,0,0-2.858-1.045,12.153,12.153,0,0,1-5.236-2.189,4.4,4.4,0,0,1-1.576-3.481,4.727,4.727,0,0,1,.806-2.626,5.353,5.353,0,0,1,2.428-1.943,11.348,11.348,0,0,1,4.441-.707,9.1,9.1,0,0,1,5.279,1.285,4.716,4.716,0,0,1,1.52,1.8A1.674,1.674,0,0,1,115.8,66.4l-3.21.188a2.456,2.456,0,0,0-2.735-2.325,2.235,2.235,0,0,0-1.466.412,1.26,1.26,0,0,0-.493,1,1,1,0,0,0,.406.775,4.568,4.568,0,0,0,1.872.664,23.441,23.441,0,0,1,5.242,1.593,5.51,5.51,0,0,1,2.3,2,5.068,5.068,0,0,1,.721,2.669,5.71,5.71,0,0,1-.961,3.2,6.007,6.007,0,0,1-2.686,2.22,10.861,10.861,0,0,1-4.349.757q-4.608,0-6.382-1.771a6.649,6.649,0,0,1-1.553-2.413A1.663,1.663,0,0,1,103.994,73.157Z" fill="#10184c"/>
        <path id="Path_3375" data-name="Path 3375" d="M123.577,70.24A8.543,8.543,0,0,1,132.9,60.9q4.509,0,6.948,2.417a9.105,9.105,0,0,1,2.44,6.771,11.089,11.089,0,0,1-1.066,5.185,7.6,7.6,0,0,1-3.08,3.149,10.175,10.175,0,0,1-5.02,1.126,11.558,11.558,0,0,1-5.057-.972,7.6,7.6,0,0,1-3.246-3.075A10.188,10.188,0,0,1,123.577,70.24Zm5.581.024a6.04,6.04,0,0,0,1.016,3.924,3.851,3.851,0,0,0,5.549.024q.986-1.168.986-4.194a5.562,5.562,0,0,0-1.029-3.721,3.517,3.517,0,0,0-2.79-1.175,3.393,3.393,0,0,0-2.71,1.193A6.058,6.058,0,0,0,129.158,70.264Z" fill="#10184c"/>
        <path id="Path_3376" data-name="Path 3376" d="M18.183,89.451H15.87l-.321,1.087H13.467l2.479-6.585h2.223l2.478,6.585H18.513Zm-.423-1.423-.728-2.367-.72,2.367Z" fill="#de5317"/>
        <path id="Path_3377" data-name="Path 3377" d="M24.624,83.954h1.9L29.01,87.6V83.954h1.921v6.585H29.01l-2.469-3.615v3.615H24.624Z" fill="#de5317"/>
        <path id="Path_3378" data-name="Path 3378" d="M34.936,83.954H37.2l1.329,2.222,1.332-2.222H42.11l-2.563,3.826v2.758H37.5V87.781Z" fill="#de5317"/>
        <path id="Path_3379" data-name="Path 3379" d="M45.62,83.954h6.194V85.58H49.737v4.959H47.7V85.58H45.62Z" fill="#de5317"/>
        <path id="Path_3380" data-name="Path 3380" d="M56.134,83.954h2.042v6.585H56.134Z" fill="#de5317"/>
        <path id="Path_3381" data-name="Path 3381" d="M62.933,83.954h2.68l1.033,4.006,1.026-4.006H70.35v6.585H68.681V85.517l-1.286,5.022h-1.51L64.6,85.517v5.022H62.933Z" fill="#de5317"/>
        <path id="Path_3382" data-name="Path 3382" d="M74.962,83.954h5.461V85.36H77v1.047h3.171v1.343H77v1.3h3.518v1.491h-5.56Z" fill="#de5317"/>
        <path id="Path_3383" data-name="Path 3383" d="M85.125,82.3H86.5V92.381H85.125Z" fill="#10184c"/>
        <path id="Path_3384" data-name="Path 3384" d="M96.04,89.451H93.726l-.321,1.087H91.324L93.8,83.954h2.223L98.5,90.539H96.37Zm-.423-1.423-.728-2.367-.72,2.367Z" fill="#de5317"/>
        <path id="Path_3385" data-name="Path 3385" d="M102.482,83.954h1.9l2.483,3.643V83.954h1.921v6.585h-1.921l-2.47-3.615v3.615h-1.916Z" fill="#de5317"/>
        <path id="Path_3386" data-name="Path 3386" d="M112.793,83.954h2.263l1.329,2.222,1.332-2.222h2.251L117.4,87.781v2.758h-2.043V87.781Z" fill="#de5317"/>
        <path id="Path_3387" data-name="Path 3387" d="M123.262,83.954H125.2l.7,3.686,1.02-3.686h1.928l1.022,3.681.7-3.681h1.925l-1.453,6.585h-2l-1.156-4.146-1.152,4.146h-2Z" fill="#de5317"/>
        <path id="Path_3388" data-name="Path 3388" d="M136.479,83.954h2.038v2.3h2.226v-2.3h2.047v6.585h-2.047V87.875h-2.226v2.664h-2.038Z" fill="#de5317"/>
        <path id="Path_3389" data-name="Path 3389" d="M147.456,83.954h5.461V85.36H149.5v1.047h3.171v1.343H149.5v1.3h3.518v1.491h-5.56Z" fill="#de5317"/>
        <path id="Path_3390" data-name="Path 3390" d="M157.457,90.539V83.954h3.4a4.936,4.936,0,0,1,1.444.162,1.539,1.539,0,0,1,.805.6,1.859,1.859,0,0,1-.572,2.657,2.456,2.456,0,0,1-.716.26,2,2,0,0,1,.531.243,2.051,2.051,0,0,1,.326.346,2.528,2.528,0,0,1,.285.409l.987,1.908h-2.3l-1.089-2.012a1.546,1.546,0,0,0-.369-.508.855.855,0,0,0-.5-.153h-.18v2.673Zm2.047-3.917h.859a3.08,3.08,0,0,0,.54-.089.539.539,0,0,0,.33-.207.667.667,0,0,0-.074-.871,1.225,1.225,0,0,0-.76-.171h-.9Z" fill="#de5317"/>
        <path id="Path_3391" data-name="Path 3391" d="M167.908,83.954h5.461V85.36H169.95v1.047h3.171v1.343H169.95v1.3h3.518v1.491h-5.56Z" fill="#de5317"/>
        <path id="Path_3392" data-name="Path 3392" d="M164.322,65.586V60.674h-17.3v4.912h7.6a2.663,2.663,0,0,1,.373.941h-7.9V69.74h5.965a7.112,7.112,0,0,1-.784.4l-4.736,1.732,7.257,7.893,6.6-.212-6.265-6.7a8.006,8.006,0,0,0,4.2-3.108h4.943V66.527h-4.191a4.807,4.807,0,0,0-.22-.941Z" fill="#10184c"/>
      </g>
    </g>
  </g>
</svg>
