<?xml version="1.0" encoding="utf-8"?>
<!-- Generator: Adobe Illustrator 24.2.3, SVG Export Plug-In . SVG Version: 6.00 Build 0)  -->
<svg version="1.1" id="Layer_1" xmlns="http://www.w3.org/2000/svg" xmlns:xlink="http://www.w3.org/1999/xlink" x="0px" y="0px"
	 viewBox="0 0 200 79" style="enable-background:new 0 0 200 79;" xml:space="preserve">
<style type="text/css">
	.st0{fill-rule:evenodd;clip-rule:evenodd;fill:#F26F21;}
	.st1{fill-rule:evenodd;clip-rule:evenodd;fill:#FFFFFF;}
</style>
<g>
	<path class="st0" d="M41.4,3.4c20.1,0,36.4,16.3,36.4,36.4c0,20.1-16.3,36.4-36.4,36.4S5,59.9,5,39.8C5,19.7,21.3,3.4,41.4,3.4
		L41.4,3.4z"/>
	<path class="st1" d="M36.5,41.3l1.5-3.5h-3.9L36.5,41.3L36.5,41.3z M35.8,34.2l2.1,3.6l1.6-3.6H35.8L35.8,34.2z M35.8,34.2l2.2-4.4
		h-4.7L35.8,34.2L35.8,34.2z M24,29.8l4.7,9.1l4.7-9.1H24L24,29.8z M28.6,38.8l-4.9,9.5h9.8h0l-2.3-4.6L28.6,38.8L28.6,38.8z
		 M31,34.2l2.3,5.1l0.7-1.4l0,0l1.8-3.6H31L31,34.2z M33.4,39.2l-2.2,4.5h4.3L33.4,39.2L33.4,39.2z M36.5,41.3l-1.1,2.5h2.8
		L36.5,41.3L36.5,41.3z M33.5,48.3h4l-2.1-4.6L33.5,48.3L33.5,48.3L33.5,48.3z M37.8,56.8l-4.4-8.5l-3.6,8.5H37.8L37.8,56.8z
		 M41.4,48.3L41.4,48.3L41.4,48.3l-0.7-1l-2.5-3.6h2h0.3h0.9h0h0h0h0.9h2.3L41.4,48.3L41.4,48.3z M29.3,22.9l6.6-8.6H24.3L29.3,22.9
		L29.3,22.9z M36.9,22.9h-7.6l4,6.9L36.9,22.9L36.9,22.9z M24,29.8l5.3-6.9h-8.9L24,29.8L24,29.8z M24,29.8H10.2l6.7,9.2L24,29.8
		L24,29.8z M23.7,48.3l-4.4,8.5h10.5L23.7,48.3L23.7,48.3z M9.8,48.3h14L16.9,39L9.8,48.3L9.8,48.3z M26.9,63.6h8l-5-6.9L26.9,63.6
		L26.9,63.6z M46.3,41.3l-1.5-3.5h3.9L46.3,41.3L46.3,41.3z M46.9,34.2l-2.1,3.6l-1.6-3.6H46.9L46.9,34.2z M46.9,34.2l-2.2-4.4h4.7
		L46.9,34.2L46.9,34.2z M58.8,29.8l-4.7,9.1l-4.7-9.1H58.8L58.8,29.8z M54.1,38.8l4.9,9.5h-9.8h0l2.3-4.6L54.1,38.8L54.1,38.8z
		 M51.7,34.2l-2.3,5.1l-0.7-1.4l0,0l-1.8-3.6H51.7L51.7,34.2z M49.4,39.2l2.2,4.5h-4.3L49.4,39.2L49.4,39.2z M46.3,41.3l1.1,2.5
		h-2.8L46.3,41.3L46.3,41.3z M49.3,48.3h-4l2.1-4.6L49.3,48.3L49.3,48.3L49.3,48.3z M44.9,56.8l4.4-8.5l3.6,8.5H44.9L44.9,56.8z
		 M41.4,34.2L41.4,34.2h0.3h0.4h1.1l-1.9-4.4l0,0v0l-1.9,4.4h1.3H41H41.4L41.4,34.2L41.4,34.2L41.4,34.2z M41.4,43.7L41.4,43.7
		L41.4,43.7l0.5-0.8l3-5.1h-2.9h-0.5h0h-0.5H38L41.4,43.7L41.4,43.7L41.4,43.7L41.4,43.7L41.4,43.7z M41.4,56.8L41.4,56.8l3.9-8.5
		h-2.5h-0.2h-1.1h0h0h-1.1H40h-2.5l3,6.5L41.4,56.8L41.4,56.8L41.4,56.8L41.4,56.8L41.4,56.8L41.4,56.8z M53.5,22.9l-6.6-8.6h11.6
		L53.5,22.9L53.5,22.9z M45.9,22.9h7.6l-4,6.9L45.9,22.9L45.9,22.9z M58.8,29.8l-5.3-6.9h8.9L58.8,29.8L58.8,29.8z M58.8,29.8h13.8
		L65.8,39L58.8,29.8L58.8,29.8z M59,48.3l4.4,8.5H52.9L59,48.3L59,48.3z M73,48.3H59l6.8-9.3L73,48.3L73,48.3z M55.8,63.6h-8l5-6.9
		L55.8,63.6L55.8,63.6z M41.4,14.2L41.4,14.2h1.5h1.2l2.8,0l-5.5-7.1l0,0v0l-5.5,7.1l3.3,0h0.7H41.4L41.4,14.2L41.4,14.2L41.4,14.2z
		 M41.4,22.9L41.4,22.9h0.5h0.3h3.6l-4.5-8.6v0l0,0l-4.5,8.6h3.6h0.2H41.4L41.4,22.9L41.4,22.9z M41.4,29.8h0.9h2.5l-2-4.2l-1.3-2.7
		l0,0l0,0v0l0,0v0L38,29.8h2.7H41.4L41.4,29.8L41.4,29.8z M41.4,63.6L41.4,63.6L41.4,63.6L41.4,63.6l0.9-1.8l2.6-5.1h-2.3h-0.2h-1.1
		h0h0h0h-1h-0.3h-2.3L41.4,63.6L41.4,63.6L41.4,63.6L41.4,63.6z M41.4,72.5L41.4,72.5l6.5-8.9h-4.4h-1.3h-0.8h0h0h0h-0.5h-1.5h-4.4
		L41.4,72.5L41.4,72.5L41.4,72.5z"/>
	<path class="st1" d="M120.2,15.8h-7.8c-2.5,0-4.5,2-4.5,4.5v43.5h7.8c2.5,0,4.5-2,4.5-4.5V15.8L120.2,15.8z M133.3,15.8h6.7h1.2
		h18.5v8c0,2.4-2,4.3-4.3,4.3h-14.2v6.2h15.4v8c0,2.4-2,4.3-4.3,4.3h-11.1v12.7c0,2.4-2,4.4-4.4,4.4h-8V20.2
		C128.9,17.8,130.8,15.8,133.3,15.8L133.3,15.8z M99.2,15.8h-7.8c-2.5,0-4.5,2-4.5,4.5v43.5h7.8c2.5,0,4.5-2,4.5-4.5V15.8L99.2,15.8
		z M179,15.8h-8c-2.4,0-4.4,2-4.4,4.4v43.6c7.7,0,15.4,0,23,0c2.4,0,4.3-2,4.3-4.3v-8h-15V15.8L179,15.8z"/>
</g>
</svg>
