<svg xmlns="http://www.w3.org/2000/svg" width="48.428" height="59.256" viewBox="0 0 48.428 59.256"><defs><style>.a{fill:#fff;}</style></defs><g transform="translate(-3.567 18.485)"><path class="a" d="M59.161-13.641l.013,19.813a2.4,2.4,0,1,0,4.8,0l-.013-19.813,3.106,3.1a2.4,2.4,0,0,0,3.395,0,2.4,2.4,0,0,0,0-3.395l-7.205-7.2c-.057-.056-.114-.108-.175-.158l-.046-.034c-.046-.037-.093-.073-.142-.106l-.044-.026c-.052-.033-.1-.066-.158-.094l-.033-.016c-.059-.03-.118-.059-.18-.084l-.023-.009c-.065-.026-.131-.05-.2-.07l-.026-.007c-.066-.019-.133-.037-.2-.051l-.062-.009c-.056-.01-.113-.02-.171-.025a2.209,2.209,0,0,0-.239-.012,2.285,2.285,0,0,0-.24.012c-.059.006-.116.016-.173.025l-.06.009c-.069.014-.136.031-.2.051l-.024.006c-.068.021-.134.045-.2.071l-.022.009c-.062.025-.122.055-.18.085l-.032.016c-.055.029-.107.062-.159.1l-.043.026c-.049.033-.1.07-.143.106l-.046.034c-.06.05-.119.1-.174.158l-7.2,7.206a2.393,2.393,0,0,0-.7,1.7,2.392,2.392,0,0,0,.7,1.7,2.4,2.4,0,0,0,3.395,0Zm0-2" transform="translate(-34.231 3.354)"/><path class="a" d="M51.108,71.258A23.755,23.755,0,0,0,40.573,51.521a2.906,2.906,0,1,0-3.24,4.826,17.959,17.959,0,1,1-20.043.034,2.906,2.906,0,0,0-3.255-4.814A23.772,23.772,0,1,0,51.108,71.258Zm.887.185" transform="translate(0 -54.269)"/></g></svg>