<svg xmlns="http://www.w3.org/2000/svg" width="43.165" height="13.267" viewBox="0 0 43.165 13.267"><defs><style>.a,.b{fill:#292550;}.b,.c{fill-rule:evenodd;}.c{fill:#d06519;}</style></defs><g transform="translate(0 -0.002)"><path class="a" d="M124.069.05a1.083,1.083,0,0,1,.147.01c.05.007.1.017.143.027a.942.942,0,0,1,.137.047c.043.02.087.04.13.063l0,0a1.158,1.158,0,0,1,.223.176,1.18,1.18,0,0,1,.176.226v0c.023.043.047.087.067.13a.943.943,0,0,1,.047.137.68.68,0,0,1,.027.143,1.084,1.084,0,0,1,.01.147,1.049,1.049,0,0,1-.01.147c-.007.05-.017.1-.027.143a.943.943,0,0,1-.047.137.955.955,0,0,1-.067.13v0a1.087,1.087,0,0,1-.083.12c-.03.037-.06.073-.093.107a.929.929,0,0,1-.107.093.751.751,0,0,1-.12.08,1.2,1.2,0,0,1-.13.067.942.942,0,0,1-.137.047.68.68,0,0,1-.143.027,1.121,1.121,0,0,1-.147.01h-.05c-.017,0-.033,0-.05,0a926.584,926.584,0,0,1-.093-.013h0l-.047-.01-.047-.01c-.013,0-.03-.01-.047-.013a.167.167,0,0,1-.043-.017.675.675,0,0,1-.087-.037c-.03-.013-.057-.03-.087-.047a.579.579,0,0,1-.06-.037l-.033-.023h0l-.027-.02c-.02-.013-.037-.03-.053-.043s-.033-.03-.053-.047-.033-.037-.05-.053-.03-.037-.047-.057-.03-.04-.043-.06-.027-.043-.04-.063c-.023-.043-.047-.087-.067-.13A.942.942,0,0,1,123,1.452a.68.68,0,0,1-.027-.143,1.08,1.08,0,0,1,0-.293c.007-.05.017-.1.027-.143a.942.942,0,0,1,.047-.137c.02-.043.04-.09.063-.133h0c.013-.02.023-.043.037-.06a.676.676,0,0,1,.043-.06.7.7,0,0,1,.047-.057c.017-.017.033-.037.05-.053s.033-.033.053-.05.037-.03.057-.047.04-.03.06-.043.04-.027.063-.04h0c.043-.023.083-.047.13-.067a.942.942,0,0,1,.137-.047.99.99,0,0,1,.143-.027c.043,0,.093,0,.143,0m0,.426a.627.627,0,0,0-.176.023.354.354,0,0,0-.083.03c-.027.01-.057.027-.083.04a.627.627,0,0,0-.077.053c-.02.017-.04.033-.057.05l-.01.01c-.02.02-.04.043-.06.067a.549.549,0,0,0-.047.073l0,0a.447.447,0,0,0-.04.08c-.01.027-.02.053-.03.083a.664.664,0,0,0-.017.087.819.819,0,0,0-.007.093.819.819,0,0,0,.007.093.664.664,0,0,0,.017.087.417.417,0,0,0,.03.083.893.893,0,0,0,.04.08l0,0a.357.357,0,0,0,.05.073.544.544,0,0,0,.057.067c.02.02.043.04.067.06a.51.51,0,0,0,.07.047l.007,0a.448.448,0,0,0,.08.04.417.417,0,0,0,.083.03.665.665,0,0,0,.087.017.817.817,0,0,0,.09.007.685.685,0,0,0,.343-.09l.007,0c.027-.017.053-.033.077-.05a.375.375,0,0,0,.067-.06.543.543,0,0,0,.057-.067c.017-.02.03-.043.047-.067l0-.007a.448.448,0,0,0,.04-.08.806.806,0,0,0,.027-.083.664.664,0,0,0,.017-.087.819.819,0,0,0,.007-.093.664.664,0,0,0-.013-.14.806.806,0,0,0-.033-.12l0-.01a.473.473,0,0,0-.027-.06.5.5,0,0,0-.033-.057c-.013-.017-.027-.037-.04-.053A.365.365,0,0,0,124.568.7l-.013-.013a.639.639,0,0,0-.05-.047.557.557,0,0,0-.053-.04A.317.317,0,0,0,124.4.563c-.02-.01-.04-.02-.057-.03a.528.528,0,0,0-.067-.023.487.487,0,0,0-.067-.017l-.067-.01A.544.544,0,0,0,124.066.476Z" transform="translate(-82.013 -0.032)"/><path class="a" d="M71.093,6.655a2.1,2.1,0,0,0-.523.067,1.964,1.964,0,0,0-.49.206h0a1.876,1.876,0,0,0-.42.316,2.027,2.027,0,0,0-.32.416l0,.007a1.722,1.722,0,0,0-.206.476,1.987,1.987,0,0,0-.07.536,1.928,1.928,0,0,0,.15.766,1.982,1.982,0,0,0,.456.656l.007.007a2.027,2.027,0,0,0,.649.466,1.95,1.95,0,0,0,.773.153,2.027,2.027,0,0,0,.786-.15,2,2,0,0,0,.666-.46h0a1.942,1.942,0,0,0,.6-1.439,2.123,2.123,0,0,0-.067-.533,1.993,1.993,0,0,0-.2-.48,2.149,2.149,0,0,0-.34-.423,2.1,2.1,0,0,0-.416-.313,2.517,2.517,0,0,0-.51-.206,2,2,0,0,0-.523-.07M68.379,6,70.96,1.98H73.1L71.259,4.844a4.028,4.028,0,0,1,.6.073,3.473,3.473,0,0,1,.726.23h0a4.171,4.171,0,0,1,.676.363,3.564,3.564,0,0,1,.556.456h0a3.662,3.662,0,0,1,.456.559,4.255,4.255,0,0,1,.36.669l0,0a3.954,3.954,0,0,1,.226.733,3.8,3.8,0,0,1-.44,2.677,3.58,3.58,0,0,1-.27.406,3.875,3.875,0,0,1-.323.373,3.7,3.7,0,0,1-.38.336,3.989,3.989,0,0,1-.436.293h0a3.88,3.88,0,0,1-.929.39,3.835,3.835,0,0,1-1,.13,3.778,3.778,0,0,1-1.472-.286,3.715,3.715,0,0,1-1.232-.853,3.732,3.732,0,0,1-.849-1.235,3.837,3.837,0,0,1-.286-1.489,2.82,2.82,0,0,1,.3-1.249c.08-.173.19-.383.33-.626S68.186,6.3,68.379,6Z" transform="translate(-44.855 -1.32)"/><path class="a" d="M46.389,8.5h0a1.711,1.711,0,0,0,1.289.866,1.557,1.557,0,0,0,.3.017,1.717,1.717,0,0,0,1.552-.976h0a1.135,1.135,0,0,0,.113-.676,1.649,1.649,0,0,0-1.708-1.422c-.057,0-.113,0-.167.007s-.08,0-.12,0V4.936a1.738,1.738,0,0,0,.473-.02,1.611,1.611,0,0,0,1.529-1.529A1.379,1.379,0,0,0,48.876,2.1a1.839,1.839,0,0,0-.939-.25,1.785,1.785,0,0,0-.33.03,1.694,1.694,0,0,0-.989.526,2.038,2.038,0,0,0-.133.163l0,0A2.985,2.985,0,0,0,44.96,1.526c3.553-3.9,8.672.506,5.621,4.069,3.22,3.846-2.534,8.109-5.615,3.97A5.935,5.935,0,0,0,46.389,8.5" transform="translate(-29.988)"/><path class="b" d="M2.211,11.216,3.43,6.62h6.41l-.563,2.1H4.985l-.676,2.521H6.427L5.858,13.33H3.783L2.6,17.683H.486l1.189-4.359H0V11.216Z" transform="translate(0 -4.414)"/><path class="c" d="M18.5,11.276,16.81,17.683h2.111l1.209-4.289h4.662a3.444,3.444,0,0,0,2.921-3.343,3.573,3.573,0,0,0-2.921-3.427c-1.072-.007-1.565,0-2.877,0l-.563,2.085,3.154.013h.027V7.913L26.88,10l-2.348,2.088V11.31h-.027Z" transform="translate(-11.212 -4.415)"/><path class="a" d="M103.07,7.8a5.211,5.211,0,1,1-.513-2.924l-1.658.826a3.388,3.388,0,1,0,.333,1.892Z" transform="translate(-61.783 -1.32)"/><path class="c" d="M115.6,14.15l1.272,1.182,1.275,1.179h-5.1l1.272-1.179Z" transform="translate(-75.403 -9.437)"/></g></svg>