<svg width="14" height="14" viewBox="0 0 14 14" fill="none" xmlns="http://www.w3.org/2000/svg">
<path fill-rule="evenodd" clip-rule="evenodd" d="M7.0026 0.585938C3.45885 0.585938 0.585938 3.45885 0.585938 7.0026C0.585938 10.5464 3.45885 13.4193 7.0026 13.4193C10.5464 13.4193 13.4193 10.5464 13.4193 7.0026C13.4193 3.45885 10.5464 0.585938 7.0026 0.585938ZM7.58594 4.08594C7.58594 3.93123 7.52448 3.78286 7.41508 3.67346C7.30569 3.56406 7.15731 3.5026 7.0026 3.5026C6.8479 3.5026 6.69952 3.56406 6.59013 3.67346C6.48073 3.78286 6.41927 3.93123 6.41927 4.08594V7.58594C6.41927 7.74065 6.48073 7.88902 6.59013 7.99842C6.69952 8.10781 6.8479 8.16927 7.0026 8.16927C7.15731 8.16927 7.30569 8.10781 7.41508 7.99842C7.52448 7.88902 7.58594 7.74065 7.58594 7.58594V4.08594ZM7.58594 9.6276C7.58594 9.4729 7.52448 9.32452 7.41508 9.21513C7.30569 9.10573 7.15731 9.04427 7.0026 9.04427C6.8479 9.04427 6.69952 9.10573 6.59013 9.21513C6.48073 9.32452 6.41927 9.4729 6.41927 9.6276V9.91927C6.41927 10.074 6.48073 10.2224 6.59013 10.3318C6.69952 10.4411 6.8479 10.5026 7.0026 10.5026C7.15731 10.5026 7.30569 10.4411 7.41508 10.3318C7.52448 10.2224 7.58594 10.074 7.58594 9.91927V9.6276Z" fill="#CA4B25"/>
</svg>
