<svg xmlns="http://www.w3.org/2000/svg" width="53.185" height="41.551" viewBox="0 0 53.185 41.551"><defs><style>.a{fill:#593cc7;}</style></defs><g transform="translate(-208 -1675)"><g transform="translate(208 1675)"><path class="a" d="M430.61,126h-6.888A1.72,1.72,0,0,0,422,127.722v34.439a1.72,1.72,0,0,0,1.722,1.722h6.888a1.72,1.72,0,0,0,1.722-1.722V127.722A1.72,1.72,0,0,0,430.61,126Z" transform="translate(-379.146 -122.332)"/><path class="a" d="M149.31,153.888h-1.722v-5.166a1.722,1.722,0,1,0-3.444,0v5.166h-1.722a1.72,1.72,0,0,0-1.722,1.722v22.959a1.72,1.72,0,0,0,1.722,1.722h6.888a1.72,1.72,0,0,0,1.722-1.722V155.61A1.727,1.727,0,0,0,149.31,153.888Z" transform="translate(-126.412 -140.921)"/><path class="a" d="M289.91,62.888h-1.722V57.722a1.722,1.722,0,0,0-3.444,0v5.166h-1.722A1.72,1.72,0,0,0,281.3,64.61V71.5a1.72,1.72,0,0,0,1.722,1.722h1.722v5.166a1.722,1.722,0,0,0,3.444,0V73.22h1.722a1.72,1.72,0,0,0,1.722-1.722V64.61A1.72,1.72,0,0,0,289.91,62.888Z" transform="translate(-252.734 -56)"/><path class="a" d="M8.61,76H1.722A1.634,1.634,0,0,0,0,77.535V98a1.634,1.634,0,0,0,1.722,1.535H3.444v10.743a1.634,1.634,0,0,0,1.722,1.535,1.634,1.634,0,0,0,1.722-1.535V99.533H8.61A1.634,1.634,0,0,0,10.332,98V77.535A1.634,1.634,0,0,0,8.61,76Z" transform="translate(0 -73.704)"/></g></g></svg>