<svg width="17" height="16" viewBox="0 0 17 16" fill="none" xmlns="http://www.w3.org/2000/svg">
<path d="M15.5537 11.5372L5.02309 14.9936C4.65559 15.1137 4.25545 15.0832 3.91044 14.9087C3.56543 14.7342 3.30371 14.43 3.1827 14.0628L2.81887 12.9543C2.79475 12.8808 2.80081 12.8007 2.83572 12.7317C2.87064 12.6627 2.93154 12.6103 3.00504 12.5862L3.28216 12.4952C3.89349 12.2946 4.22747 11.6343 4.02682 11.0229C3.82617 10.4116 3.16584 10.0776 2.55451 10.2783L2.27739 10.3692C2.20389 10.3933 2.12382 10.3873 2.05479 10.3524C1.98576 10.3175 1.93343 10.2566 1.90931 10.1831L1.54548 9.07457C1.2948 8.31083 1.71256 7.48486 2.47631 7.23418L13.0069 3.77783C13.7707 3.52716 14.5966 3.94491 14.8473 4.70866L15.2111 5.81714C15.2353 5.89064 15.2292 5.97071 15.1943 6.03974C15.1594 6.10877 15.0985 6.1611 15.025 6.18522L14.7479 6.27618C14.5291 6.34862 14.3366 6.48418 14.1947 6.66577C14.0528 6.84737 13.9678 7.06689 13.9504 7.2967C13.9331 7.5265 13.984 7.75631 14.097 7.9572C14.21 8.15808 14.3798 8.32105 14.5852 8.42559C14.8629 8.56651 15.179 8.59048 15.475 8.49333L15.7521 8.40238C15.8256 8.37825 15.9056 8.38431 15.9747 8.41923C16.0437 8.45414 16.096 8.51504 16.1202 8.58854L16.484 9.69703C16.6042 10.0644 16.5738 10.4645 16.3994 10.8095C16.225 11.1545 15.9209 11.4162 15.5537 11.5372ZM3.46407 13.0495L3.73694 13.8808C3.88738 14.3392 4.38282 14.5898 4.84118 14.4393L15.3718 10.983C15.8302 10.8326 16.0807 10.3371 15.9303 9.87876L15.6574 9.04739C15.4393 9.11963 15.2085 9.14809 14.9794 9.13076C14.7503 9.11343 14.5269 9.05084 14.3222 8.94661C14.1167 8.84335 13.9337 8.70038 13.7838 8.52595C13.6339 8.35152 13.5201 8.1491 13.449 7.9304C13.1481 7.01369 13.6492 6.02282 14.5659 5.72194L14.2931 4.89057C14.1426 4.43221 13.6472 4.18163 13.1888 4.33208L2.65822 7.78843C2.19986 7.93887 1.94928 8.4343 2.09972 8.89266L2.37259 9.72402C3.28931 9.42314 4.28018 9.9243 4.58106 10.841C4.88195 11.7577 4.38079 12.7486 3.46407 13.0495Z" fill="#593CC7"/>
<path d="M6.16561 7.25093C6.09211 7.27505 6.01204 7.26899 5.94301 7.23408C5.87398 7.19916 5.82165 7.13826 5.79753 7.06476L5.61561 6.51052C5.59149 6.43702 5.59755 6.35695 5.63247 6.28792C5.66738 6.2189 5.72828 6.16657 5.80178 6.14244C5.87528 6.11832 5.95535 6.12438 6.02437 6.15929C6.0934 6.19421 6.14573 6.25511 6.16986 6.32861L6.35177 6.88285C6.37589 6.95635 6.36983 7.03642 6.33492 7.10545C6.30001 7.17447 6.2391 7.2268 6.16561 7.25093ZM7.70477 11.9404C7.63128 11.9645 7.55121 11.9584 7.48218 11.9235C7.41315 11.8886 7.36082 11.8277 7.33669 11.7542L7.02908 10.817C7.00496 10.7435 7.01102 10.6634 7.04593 10.5944C7.08084 10.5254 7.14175 10.473 7.21524 10.4489C7.28874 10.4248 7.36881 10.4308 7.43784 10.4658C7.50687 10.5007 7.5592 10.5616 7.58332 10.6351L7.89112 11.5729C7.91506 11.6463 7.90889 11.7263 7.87396 11.7952C7.83902 11.8641 7.77817 11.9163 7.70477 11.9404ZM6.93528 9.59593C6.86178 9.62005 6.78171 9.61399 6.71269 9.57908C6.64366 9.54417 6.59133 9.48326 6.5672 9.40977L6.25941 8.47199C6.23528 8.39849 6.24134 8.31842 6.27626 8.24939C6.31117 8.18036 6.37207 8.12803 6.44557 8.10391C6.51907 8.07978 6.59914 8.08585 6.66817 8.12076C6.73719 8.15567 6.78953 8.21658 6.81365 8.29007L7.12145 9.22785C7.14557 9.30135 7.13951 9.38142 7.10459 9.45045C7.06968 9.51948 7.00878 9.57181 6.93528 9.59593ZM8.34856 13.9018C8.27507 13.926 8.195 13.9199 8.12597 13.885C8.05694 13.8501 8.00461 13.7892 7.98049 13.7157L7.79857 13.1614C7.77445 13.0879 7.78051 13.0079 7.81542 12.9388C7.85034 12.8698 7.91124 12.8175 7.98474 12.7934C8.05823 12.7692 8.1383 12.7753 8.20733 12.8102C8.27636 12.8451 8.32869 12.906 8.35282 12.9795L8.53473 13.5338C8.55885 13.6073 8.55279 13.6873 8.51788 13.7564C8.48297 13.8254 8.42206 13.8777 8.34856 13.9018Z" fill="#593CC7"/>
<path d="M2.65814 7.78805C2.59291 7.81102 2.52163 7.80997 2.45711 7.78509C2.39259 7.7602 2.33906 7.71312 2.30615 7.6523C2.27324 7.59148 2.2631 7.52091 2.27757 7.45328C2.29203 7.38566 2.33014 7.32541 2.38506 7.28338L10.1175 1.10042C10.4932 0.799068 11.0754 0.874432 11.3634 1.25816L13.3307 3.8793C13.376 3.94123 13.3951 4.01852 13.3838 4.09442C13.3725 4.17032 13.3318 4.23872 13.2704 4.28479C13.209 4.33086 13.132 4.35089 13.0559 4.34054C12.9799 4.33018 12.911 4.29028 12.8642 4.22948L10.8969 1.60835C10.8485 1.54663 10.7777 1.5065 10.6999 1.49664C10.6221 1.48679 10.5435 1.50801 10.4812 1.5557L2.74876 7.73866C2.72186 7.76057 2.69113 7.77732 2.65814 7.78805Z" fill="#593CC7"/>
</svg>
