<svg xmlns="http://www.w3.org/2000/svg" xmlns:xlink="http://www.w3.org/1999/xlink" width="17.293" height="16.482" viewBox="0 0 17.293 16.482">
  <defs>
    <radialGradient id="radial-gradient" cx="0.5" cy="0.5" r="0.828" gradientUnits="objectBoundingBox">
      <stop offset="0" stop-color="#fcc907"/>
      <stop offset="1" stop-color="#c4a321"/>
    </radialGradient>
    <clipPath id="clip-path">
      <rect id="Rectangle_2165" data-name="Rectangle 2165" width="17.293" height="16.482" fill="url(#radial-gradient)"/>
    </clipPath>
  </defs>
  <g id="Group_2226" data-name="Group 2226" transform="translate(0 0)">
    <g id="Group_2225" data-name="Group 2225" transform="translate(0 0)" clip-path="url(#clip-path)">
      <path id="Path_3967" data-name="Path 3967" d="M9.009.225l2.358,4.781a.406.406,0,0,0,.306.221L16.948,6a.4.4,0,0,1,.223.688L13.355,10.4a.4.4,0,0,0-.117.357l.9,5.254a.4.4,0,0,1-.577.425L8.838,13.961a.4.4,0,0,0-.384,0L3.74,16.44a.4.4,0,0,1-.577-.425l.892-5.254a.4.4,0,0,0-.117-.357L.122,6.682a.4.4,0,0,1,.223-.688L5.62,5.225A.406.406,0,0,0,5.925,5L8.283.225a.405.405,0,0,1,.726,0" transform="translate(0 0)" fill="url(#radial-gradient)"/>
    </g>
  </g>
</svg>
