<svg width="14" height="11" viewBox="0 0 14 11" fill="none" xmlns="http://www.w3.org/2000/svg">
<path d="M12.1629 0H1.17192C0.997899 0.000904932 0.826317 0.0410096 0.669922 0.117334L6.64059 6.08833L7.97892 4.80233L12.6629 0.117667C12.5072 0.0415194 12.3363 0.00130837 12.1629 0Z" fill="#2680EB"/>
<path d="M13.2159 0.671875L8.80762 5.08021L13.2159 9.48854C13.2923 9.33215 13.3324 9.16056 13.3333 8.98654V1.17388C13.3324 0.999854 13.2923 0.82827 13.2159 0.671875Z" fill="#2680EB"/>
<path d="M0.117333 0.667969C0.0410092 0.824364 0.000904932 0.995945 0 1.16997L0 8.98263C0.000916352 9.15666 0.04102 9.32823 0.117333 9.48463L4.52567 5.0763L0.117333 0.667969Z" fill="#2680EB"/>
<path d="M8.25559 5.63281L6.91725 6.91915C6.881 6.95544 6.83795 6.98423 6.79057 7.00388C6.74318 7.02352 6.69238 7.03363 6.64109 7.03363C6.58979 7.03363 6.539 7.02352 6.49161 7.00388C6.44422 6.98423 6.40117 6.95544 6.36492 6.91915L5.07859 5.63281L0.669922 10.0411C0.826391 10.1176 0.998094 10.1579 1.17226 10.1588H12.1616C12.3356 10.1579 12.5072 10.1178 12.6636 10.0415L8.25559 5.63281Z" fill="#2680EB"/>
</svg>
