<svg xmlns="http://www.w3.org/2000/svg" width="32.473" height="34.212" viewBox="0 0 32.473 34.212">
  <g id="Group_11136" data-name="Group 11136" transform="translate(-423.577 -870.418)">
    <g id="b" transform="translate(423.577 870.365)">
      <g id="c" transform="translate(0 0)">
        <g id="d">
          <g id="e">
            <g id="Group_11135" data-name="Group 11135">
              <path id="Path_6645" data-name="Path 6645" d="M0,32.334a1.577,1.577,0,0,1,1.144-1.18c.153-.034.311-.034.511-.056V30.7c0-3.586.016-7.171-.016-10.757A1.9,1.9,0,0,1,3.59,17.863c.928.017,1.861,0,2.789,0A1.828,1.828,0,0,1,8.3,19.925v1.309a42.969,42.969,0,0,1,4.582-.051v-5.3a1.847,1.847,0,0,1,1.951-2.079c.928,0,1.861.006,2.789-.006a1.849,1.849,0,0,1,1.919,2.04c-.021.382,0,.764,0,1.13a33.021,33.021,0,0,1,4.6-.011V16.6q0-3.414-.016-6.834a1.941,1.941,0,0,1,.991-1.888,1.313,1.313,0,0,1,.569-.169c1.17-.017,2.346-.034,3.517,0a1.645,1.645,0,0,1,1.55,1.613c.047,1.427.058,5.17.053,6.6,0,.393-.281-.455-.576-.466s-.467.5-.467.5-.011-4.946-.011-6.233c0-.663-.258-.939-.886-.939H26.045c-.606,0-.87.287-.87.927q0,10.521.011,21.041v.326h4.587v-.444q0-7.359-.011-14.713a1.752,1.752,0,0,1,.053-.5.488.488,0,0,1,.944.034,2.634,2.634,0,0,1,.047.5q.008,7.343.016,14.68v.427c.132.017.248.028.359.039a1.437,1.437,0,0,1,1.292,1.416,1.456,1.456,0,0,1-1.186,1.512,2.937,2.937,0,0,1-.443.034q-2.918,0-5.836.011c-.084,0-.169.006-.253,0a.548.548,0,0,1-.522-.568.531.531,0,0,1,.506-.54,1.986,1.986,0,0,1,.316-.011q2.887,0,5.768-.006c.095,0,.211.034.279-.011.121-.079.29-.214.29-.32a.677.677,0,0,0-.248-.4c-.063-.056-.206-.022-.311-.022q-14.535.017-29.071.039a.822.822,0,0,0-.374.022c-.127.073-.3.225-.3.343s.153.287.274.371c.095.062.248.028.374.028L22.6,32.969c.158,0,2.3-.051,2.452-.011.237.056,1.363.382,1.369.623s-1.137.411-1.369.484c-.116.039-2.2.022-2.33.022q-10.621,0-21.242.011A1.5,1.5,0,0,1,.005,32.88v-.54ZM18.521,31.1v-14.6c0-.247.005-.495,0-.742-.021-.545-.285-.826-.8-.832h-3.01c-.506,0-.754.275-.775.809v.169q0,7.435.016,14.876c0,.1.005.2.011.309h4.566Zm5.615-.011c.005-.1.016-.174.016-.247q-.008-5.952-.021-11.9c0-.68-.274-.95-.917-.95H20.488c-.691,0-.949.281-.949,1.023q.008,5.85.021,11.7v.371h4.576ZM7.26,31.115c.011-.067.021-.1.021-.129q0-5.564-.016-11.122C7.265,19.257,7,19,6.411,19H3.654c-.754,0-.986.242-.981,1.04q.008,5.362.021,10.717c0,.118.011.236.016.365H7.265Zm5.636,0v-.36q0-3.768-.011-7.536c0-.691-.253-.955-.9-.955H9.258c-.7,0-.954.27-.954,1.012v7.84h4.587Z" transform="translate(0 0.165)" fill="#6e8cd1"/>
              <path id="Path_6646" data-name="Path 6646" d="M28.224.237a2.41,2.41,0,0,1,.629.691A1.56,1.56,0,0,1,28.7,2.6a1.562,1.562,0,0,1-1.518.664.4.4,0,0,0-.322.137q-1.866,2.871-3.7,5.752a.394.394,0,0,0,.011.327,1.654,1.654,0,0,1-.163,1.919,1.6,1.6,0,0,1-1.808.469,1.621,1.621,0,0,1-1.076-1.566.318.318,0,0,0-.2-.337c-.817-.411-1.634-.838-2.452-1.244a.382.382,0,0,0-.322.026,1.757,1.757,0,0,1-1.413.3.38.38,0,0,0-.311.1Q13.722,11.2,12.045,13.26a.357.357,0,0,0-.032.3,1.644,1.644,0,1,1-3.121.654.326.326,0,0,0-.2-.337q-1.2-.633-2.4-1.286a.4.4,0,0,0-.48.026,1.537,1.537,0,0,1-1.782.026A1.531,1.531,0,0,1,3.3,11.008a1.547,1.547,0,0,1,1.16-1.323,1.61,1.61,0,0,1,2.072,1.55.433.433,0,0,0,.274.459c.859.448,1.713.912,2.583,1.381a1.735,1.735,0,0,1,1.619-.385c.069.021.2-.053.253-.121,1.128-1.355,2.246-2.726,3.374-4.081.142-.169.047-.285-.011-.427a1.739,1.739,0,0,1,.68-2.083,1.575,1.575,0,0,1,2.119.417,4.412,4.412,0,0,1,.364,1.118.5.5,0,0,0,.174.279q1.226.656,2.478,1.271a.4.4,0,0,0,.327-.026,1.745,1.745,0,0,1,1.255-.322.425.425,0,0,0,.3-.185c.854-1.318,1.7-2.647,2.546-3.97.364-.569.743-1.128,1.1-1.7A.392.392,0,0,0,26,2.525,1.649,1.649,0,0,1,26.944.058,3.006,3.006,0,0,1,28.224.237ZM16.737,7.444a.617.617,0,0,0-.622-.59.6.6,0,0,0,.026,1.207.613.613,0,0,0,.6-.617ZM4.912,11.868a.643.643,0,0,0,.6-.617.632.632,0,0,0-.622-.59.6.6,0,0,0-.585.617.616.616,0,0,0,.612.6Zm22.47-9.632a.58.58,0,0,0,.59-.606.591.591,0,0,0-.58-.59.621.621,0,0,0-.617.6.6.6,0,0,0,.606.6ZM10.537,14.868a.581.581,0,0,0,.585-.612.6.6,0,0,0-.59-.58.587.587,0,0,0-.6.6A.576.576,0,0,0,10.537,14.868Zm11.246-3.933a.606.606,0,0,0,.59-.585.617.617,0,0,0-.606-.606.591.591,0,0,0-.6.606.584.584,0,0,0,.612.585Z" transform="translate(0.07 0)" fill="#6e8cd1"/>
            </g>
          </g>
        </g>
      </g>
    </g>
  </g>
</svg>
