<svg xmlns="http://www.w3.org/2000/svg" xmlns:xlink="http://www.w3.org/1999/xlink" width="1081" height="178.5" viewBox="0 0 1081 178.5"><defs><style>.a{stroke:rgba(0,0,0,0);stroke-miterlimit:10;fill:url(#a);}.b{opacity:0.3;fill:url(#b);}.c{opacity:0.2;}.d{fill:#fff;}</style><linearGradient id="a" x1="1" y1="1" x2="0" gradientUnits="objectBoundingBox"><stop offset="0" stop-color="#4811cb"/><stop offset="1" stop-color="#1e1c57"/></linearGradient><linearGradient id="b" x1="0.5" x2="0.5" y2="5.004" gradientUnits="objectBoundingBox"><stop offset="0.006" stop-color="#5a8dee"/><stop offset="1" stop-color="#fff"/></linearGradient></defs><g transform="translate(4875.499 -7305.5)"><path class="a" d="M1112,177.5H32V0H1112V177.5Z" transform="translate(-4907 7306)"/><path class="b" d="M1063.115,82.039H951.037c4.571-4.461,9.335-8.783,14.157-12.849a71.718,71.718,0,0,1,19.3-9.662,62.379,62.379,0,0,1,18.84-2.91c10.686,0,21.821,2.712,33.1,8.06a129.312,129.312,0,0,1,26.686,17.36l0,0h0Zm-520.466,0H407.4c1.113-2.635,2.23-5.217,3.319-7.677,9.555-21.587,19.1-38.787,28.364-51.124,5.5-7.324,10.965-12.992,16.24-16.847a36.871,36.871,0,0,1,8.429-4.721A23.871,23.871,0,0,1,472.315,0a21.512,21.512,0,0,1,7.126,1.23,27.433,27.433,0,0,1,7.14,3.854c4.882,3.589,9.658,9.162,14.2,16.565a643.96,643.96,0,0,0,40.236,58.291c.527.679,1.077,1.384,1.635,2.1Z" transform="translate(-4885 7401.961)"/><g class="c" transform="translate(-6281.411 6988.782)"><path class="d" d="M2056.621,375.64a1,1,0,0,0-1.145.829c-.226,1.407-.508,3.054-.855,4.9a1,1,0,0,0,.8,1.167.981.981,0,0,0,.186.017,1,1,0,0,0,.981-.815c.319-1.693.61-3.36.864-4.953A1,1,0,0,0,2056.621,375.64Z"/><path class="d" d="M2054.828,385.479a1,1,0,0,0-1.186.769q-.522,2.433-1.1,4.854a1,1,0,1,0,1.946.463q.582-2.441,1.107-4.9A1,1,0,0,0,2054.828,385.479Z"/><path class="d" d="M2046.594,414.3a1,1,0,0,0-1.286.589q-.289.777-.582,1.547-.6,1.557-1.225,3.081a1,1,0,0,0,1.852.756q.628-1.541,1.24-3.12.3-.783.59-1.567A1,1,0,0,0,2046.594,414.3Z"/><path class="d" d="M2058.782,365.9a1,1,0,0,0-1.266.63c-.486,1.45-.911,2.946-1.262,4.447l-.074.575a1,1,0,0,0,.873,1.113c.041,0,.081.007.121.007a1,1,0,0,0,.992-.88l.048-.415c.334-1.421.737-2.837,1.2-4.21A1,1,0,0,0,2058.782,365.9Z"/><path class="d" d="M2066.9,348.594a47.657,47.657,0,0,0-2.909,4.2,1,1,0,0,0,.328,1.376.989.989,0,0,0,.523.149,1,1,0,0,0,.853-.476,45.421,45.421,0,0,1,2.785-4.019,1,1,0,0,0-1.58-1.226Z"/><path class="d" d="M2134.879,345.5a1,1,0,0,0-1.355,1.472c1.2,1.1,2.368,2.274,3.474,3.476a1,1,0,0,0,1.473-1.353C2137.327,347.855,2136.118,346.646,2134.879,345.5Z"/><path class="d" d="M2082.615,335.771a39.606,39.606,0,0,0-4.5,2.458,1,1,0,0,0,1.071,1.689,37.4,37.4,0,0,1,4.27-2.333,1,1,0,1,0-.842-1.814Z"/><path class="d" d="M2176.942,418.96q-.816-2.343-1.657-4.724a1,1,0,0,0-1.884.668q.84,2.376,1.652,4.713a1,1,0,0,0,.944.672.983.983,0,0,0,.328-.056A1,1,0,0,0,2176.942,418.96Z"/><path class="d" d="M2038.576,432.607a1,1,0,0,0-1.351.417c-.776,1.47-1.581,2.933-2.4,4.348a1,1,0,0,0,1.734,1c.827-1.437,1.644-2.921,2.431-4.412A1,1,0,0,0,2038.576,432.607Z"/><path class="d" d="M2377.648,489.884q-.862-2.351-1.732-4.7a1,1,0,0,0-1.875.7q.869,2.343,1.728,4.689a1,1,0,1,0,1.879-.688Z"/><path class="d" d="M2185.706,442.282a1,1,0,0,0-1.83.807c.694,1.573,1.407,3.109,2.121,4.568a1,1,0,1,0,1.8-.879C2187.092,445.343,2186.389,443.83,2185.706,442.282Z"/><path class="d" d="M2276.829,442.994c-1.008,1.314-2.046,2.627-3.082,3.9a1,1,0,1,0,1.551,1.262c1.049-1.289,2.1-2.616,3.117-3.946a1,1,0,1,0-1.586-1.217Z"/><path class="d" d="M2366.778,461.875q-.978-2.319-1.976-4.606a1,1,0,1,0-1.832.8q.993,2.274,1.964,4.581a1,1,0,0,0,1.844-.776Z"/><path class="d" d="M2195.278,459.57a1,1,0,0,0-1.639,1.147c.967,1.383,1.981,2.748,3.017,4.057a1,1,0,1,0,1.568-1.24C2197.214,462.255,2196.223,460.922,2195.278,459.57Z"/><path class="d" d="M2333.4,412.43a29.862,29.862,0,0,0-4.706-2.123,1,1,0,1,0-.659,1.888,28,28,0,0,1,4.392,1.982.986.986,0,0,0,.485.127,1,1,0,0,0,.488-1.874Z"/><path class="d" d="M2356.112,439.175a1,1,0,0,0-1.764.942q1.161,2.176,2.289,4.419a1,1,0,0,0,1.787-.9Q2357.284,441.374,2356.112,439.175Z"/><path class="d" d="M2345.038,422.311a1,1,0,1,0-1.517,1.3c1.028,1.2,2.056,2.5,3.057,3.857a1,1,0,1,0,1.612-1.184C2347.159,424.885,2346.1,423.547,2345.038,422.311Z"/><path class="d" d="M2026.631,449.765q-.762,1-1.539,1.967t-1.56,1.893a1,1,0,0,0,1.529,1.29q.8-.949,1.59-1.931t1.57-2.006a1,1,0,1,0-1.59-1.213Z"/><path class="d" d="M2005.1,469.9c-1.389.877-2.82,1.712-4.256,2.481a1,1,0,0,0,.474,1.882.989.989,0,0,0,.471-.119c1.477-.792,2.951-1.65,4.379-2.552a1,1,0,1,0-1.068-1.692Z"/><path class="d" d="M2313.362,409.643a31.025,31.025,0,0,0-4.91,1.6,1,1,0,0,0,.776,1.844,28.941,28.941,0,0,1,4.591-1.492,1,1,0,0,0-.457-1.947Z"/><path class="d" d="M2303.879,413.542a50.541,50.541,0,0,0-4.287,2.762,1,1,0,0,0,1.168,1.624,48.483,48.483,0,0,1,4.115-2.652,1,1,0,0,0-1-1.734Z"/><path class="d" d="M2295.615,419.48c-1.272,1.1-2.519,2.27-3.7,3.47a1,1,0,0,0,1.422,1.4c1.15-1.163,2.359-2.3,3.592-3.364a1,1,0,0,0-1.31-1.511Z"/><path class="d" d="M2323.654,409.082a26.332,26.332,0,0,0-3.676-.257q-.758.012-1.513.06a1,1,0,0,0-.934,1.062.987.987,0,0,0,1.063.934c.47-.03.941-.049,1.4-.056a24.255,24.255,0,0,1,3.382.237.964.964,0,0,0,.141.01,1,1,0,0,0,.139-1.99Z"/><path class="d" d="M2360.635,448.144a1,1,0,1,0-1.8.862q1.068,2.233,2.108,4.515a1,1,0,0,0,1.82-.83Q2361.71,450.393,2360.635,448.144Z"/><path class="d" d="M1959.052,488.772c-1.479.9-2.9,1.848-4.23,2.816A1,1,0,0,0,1956,493.2c1.282-.936,2.658-1.852,4.09-2.723a1,1,0,1,0-1.039-1.709Z"/><path class="d" d="M2288.488,426.7c-.887,1.05-1.751,2.14-2.623,3.323-.01.018-.173.287-.478.769a1,1,0,1,0,1.691,1.068c.289-.458.456-.732.455-.737.79-1.064,1.625-2.118,2.482-3.132a1,1,0,1,0-1.527-1.291Z"/><path class="d" d="M2337.688,415.258a1,1,0,1,0-1.215,1.589,42.305,42.305,0,0,1,3.691,3.191,1,1,0,0,0,1.391-1.438A44.513,44.513,0,0,0,2337.688,415.258Z"/><path class="d" d="M2240.248,475.725a48.078,48.078,0,0,1-4.53,1.853,1,1,0,1,0,.658,1.888,49.91,49.91,0,0,0,4.72-1.93,1,1,0,0,0-.848-1.811Z"/><path class="d" d="M2248.749,470.8c-.588.407-1.179.807-1.762,1.192q-1.2.762-2.386,1.449a1,1,0,1,0,1,1.731c.816-.472,1.637-.97,2.471-1.5q.914-.6,1.812-1.224a1,1,0,1,0-1.137-1.646Z"/><path class="d" d="M2231.029,478.9a33.9,33.9,0,0,1-4.8.693,1,1,0,0,0,.068,2c.024,0,.047,0,.07,0a35.8,35.8,0,0,0,5.087-.732,1,1,0,1,0-.423-1.955Z"/><path class="d" d="M2256.615,464.792c-1.26,1.062-2.559,2.105-3.862,3.1a1,1,0,0,0,1.215,1.589c1.328-1.016,2.652-2.079,3.936-3.161a1,1,0,0,0-1.289-1.529Z"/><path class="d" d="M2282.657,434.938c-.59.865-1.254,1.822-1.986,2.852q-.435.61-.873,1.217a1,1,0,0,0,1.621,1.172q.443-.613.881-1.23c.741-1.041,1.413-2.009,2.01-2.884a1,1,0,1,0-1.653-1.127Z"/><path class="d" d="M2270.559,450.707c-1.089,1.262-2.2,2.514-3.3,3.721a1,1,0,1,0,1.479,1.347c1.112-1.22,2.234-2.486,3.335-3.762a1,1,0,1,0-1.514-1.306Z"/><path class="d" d="M2263.868,458.054c-1.144,1.171-2.337,2.333-3.545,3.456a1,1,0,0,0,1.361,1.466c1.232-1.145,2.448-2.33,3.614-3.523a1,1,0,0,0-1.43-1.4Z"/><path class="d" d="M2374.161,480.5q-.883-2.349-1.784-4.68a1,1,0,1,0-1.865.72q.9,2.324,1.778,4.665a1,1,0,0,0,.936.647.988.988,0,0,0,.352-.064A1,1,0,0,0,2374.161,480.5Z"/><path class="d" d="M2370.558,471.155q-.924-2.336-1.865-4.649a1,1,0,0,0-1.853.754q.938,2.3,1.858,4.631a1,1,0,0,0,1.86-.736Z"/><path class="d" d="M2351.057,430.455a1,1,0,0,0-1.682,1.084c.865,1.34,1.73,2.762,2.573,4.227a1,1,0,0,0,1.734-1C2352.822,433.274,2351.939,431.823,2351.057,430.455Z"/><path class="d" d="M2049.806,404.831a1,1,0,0,0-1.256.65q-.753,2.37-1.563,4.723a1,1,0,1,0,1.89.652q.819-2.374,1.579-4.769A1,1,0,0,0,2049.806,404.831Z"/><path class="d" d="M2052.552,395.215a1,1,0,0,0-1.223.712q-.635,2.4-1.331,4.793a1,1,0,1,0,1.92.559q.7-2.412,1.345-4.841A1,1,0,0,0,2052.552,395.215Z"/><path class="d" d="M2062.823,356.768a1,1,0,0,0-1.348.425c-.777,1.493-1.505,3.039-2.163,4.6a1,1,0,1,0,1.842.779c.637-1.507,1.342-3,2.094-4.45A1,1,0,0,0,2062.823,356.768Z"/><path class="d" d="M2042.874,423.58a1,1,0,0,0-1.32.507c-.679,1.527-1.382,3.043-2.09,4.506a1,1,0,1,0,1.8.871c.717-1.482,1.43-3.018,2.117-4.565A1,1,0,0,0,2042.874,423.58Z"/><path class="d" d="M2092.37,332.692a39.708,39.708,0,0,0-4.977,1.223,1,1,0,0,0,.3,1.953.975.975,0,0,0,.3-.046,37.717,37.717,0,0,1,4.726-1.16,1,1,0,0,0-.35-1.97Z"/><path class="d" d="M2073.984,341.26a47.448,47.448,0,0,0-3.741,3.475,1,1,0,1,0,1.438,1.39,45.661,45.661,0,0,1,3.583-3.329,1,1,0,1,0-1.28-1.536Z"/><path class="d" d="M2033.653,441.308a1,1,0,0,0-1.379.312c-.894,1.416-1.813,2.808-2.732,4.137a1,1,0,0,0,1.645,1.138c.935-1.352,1.87-2.768,2.778-4.208A1,1,0,0,0,2033.653,441.308Z"/><path class="d" d="M2013.063,464.093c-1.268,1.058-2.574,2.08-3.886,3.038a1,1,0,0,0,1.18,1.616c1.346-.984,2.688-2.033,3.987-3.119a1,1,0,1,0-1.281-1.535Z"/><path class="d" d="M1977.455,480.5c-1.623.546-3.218,1.12-4.743,1.7a1,1,0,0,0,.715,1.867c1.5-.574,3.069-1.138,4.667-1.677a1,1,0,1,0-.639-1.894Z"/><path class="d" d="M1968.044,484.127c-1.583.7-3.12,1.429-4.567,2.173a1,1,0,0,0,.914,1.78c1.413-.727,2.913-1.442,4.46-2.123a1,1,0,1,0-.807-1.83Z"/><path class="d" d="M1987.091,477.613c-1.663.445-3.291.906-4.838,1.368a1,1,0,0,0,.286,1.958,1.01,1.01,0,0,0,.286-.042c1.53-.457,3.138-.912,4.784-1.353a1,1,0,1,0-.518-1.931Z"/><path class="d" d="M2020.242,457.314c-1.141,1.211-2.316,2.388-3.49,3.5a1,1,0,1,0,1.373,1.454c1.2-1.137,2.405-2.341,3.573-3.58a1,1,0,0,0-1.456-1.372Z"/><path class="d" d="M2102.578,332.406c-1.677-.113-3.38-.177-5.056-.188h-.007a1,1,0,0,0-.007,2c1.638.011,3.3.073,4.936.183.022,0,.046,0,.068,0a1,1,0,0,0,.066-2Z"/><path class="d" d="M1996.421,474.552c-1.495.667-3.032,1.285-4.568,1.837a1,1,0,1,0,.676,1.883c1.584-.569,3.167-1.206,4.707-1.893a1,1,0,0,0-.815-1.827Z"/><path class="d" d="M2212.077,477.115q-.6-.268-1.191-.563-1.3-1.1-2.531-2.215a1,1,0,0,0-1.342,1.483q1.295,1.173,2.674,2.338l.194.128q.684.345,1.384.657a.987.987,0,0,0,.405.086,1,1,0,0,0,.407-1.914Z"/><path class="d" d="M2180.253,428.385q-.834-2.33-1.665-4.706a1,1,0,1,0-1.887.661q.834,2.383,1.669,4.72a1,1,0,1,0,1.883-.675Z"/><path class="d" d="M2183.777,437.7q-.93-2.295-1.807-4.638a1,1,0,1,0-1.871.706q.891,2.364,1.822,4.681a1,1,0,0,0,1.856-.749Z"/><path class="d" d="M2169.99,400.156q-.913-2.253-1.9-4.55l-.035-.082-.919.394-.884.477q.98,2.28,1.883,4.512a1,1,0,0,0,1.854-.751Z"/><path class="d" d="M2173.59,409.522q-.851-2.328-1.759-4.7a1,1,0,1,0-1.867.716q.9,2.355,1.747,4.667a1,1,0,0,0,1.879-.686Z"/><path class="d" d="M2221.394,479.548a29.51,29.51,0,0,1-4.758-.835,1,1,0,0,0-.506,1.936,31.8,31.8,0,0,0,5.08.892c.031,0,.063,0,.093,0a1,1,0,0,0,.091-2Z"/><path class="d" d="M2190.073,451.171a1,1,0,0,0-1.754.962c.816,1.487,1.671,2.955,2.543,4.363a1,1,0,1,0,1.7-1.053C2191.709,454.065,2190.871,452.628,2190.073,451.171Z"/><path class="d" d="M2201.4,467.322a1,1,0,1,0-1.5,1.327c1.107,1.248,2.271,2.487,3.461,3.684a1,1,0,0,0,1.418-1.411C2203.616,469.753,2202.478,468.542,2201.4,467.322Z"/><path class="d" d="M2163.864,386.39a1,1,0,1,0-1.795.882q1.095,2.23,2.134,4.492a1,1,0,1,0,1.817-.835Q2164.972,388.645,2163.864,386.39Z"/><path class="d" d="M2127.291,339.546l-.449-.284a1,1,0,0,0-1.055,1.7l.408.258c1.22.813,2.424,1.68,3.579,2.579A1,1,0,1,0,2131,342.22C2129.81,341.291,2128.565,340.394,2127.291,339.546Z"/><path class="d" d="M2112.609,333.707c-1.652-.318-3.332-.588-4.995-.8a1,1,0,1,0-.258,1.983c1.624.211,3.263.475,4.876.785a1.013,1.013,0,0,0,.189.018,1,1,0,0,0,.188-1.982Z"/><path class="d" d="M2122.339,336.83a41.985,41.985,0,0,0-4.769-1.863,1,1,0,0,0-.612,1.9,39.6,39.6,0,0,1,4.539,1.773,1,1,0,0,0,.842-1.815Z"/><path class="d" d="M2154.064,368.844a1,1,0,1,0-1.692,1.067q1.326,2.1,2.594,4.242a1,1,0,0,0,1.721-1.02Q2155.4,370.971,2154.064,368.844Z"/><path class="d" d="M2159.2,377.488a1,1,0,0,0-1.747.975q1.214,2.172,2.368,4.374a1,1,0,1,0,1.771-.929Q2160.421,379.682,2159.2,377.488Z"/><path class="d" d="M2148.132,360.68a1,1,0,0,0-1.581,1.224q1.524,1.968,3,3.97a1,1,0,1,0,1.609-1.189Q2149.669,362.665,2148.132,360.68Z"/><path class="d" d="M2141.79,352.886a1,1,0,1,0-1.521,1.3q1.615,1.893,3.187,3.823a1,1,0,1,0,1.551-1.263Q2143.42,354.8,2141.79,352.886Z"/></g></g></svg>