<svg xmlns="http://www.w3.org/2000/svg" xmlns:xlink="http://www.w3.org/1999/xlink" width="1080" height="302.5" viewBox="0 0 1080 302.5"><defs><style>.a{fill:url(#a);}.b{opacity:0.3;fill:url(#b);}.c{opacity:0.2;}.d{fill:#fff;}</style><linearGradient id="a" x1="1" y1="1" x2="0" gradientUnits="objectBoundingBox"><stop offset="0" stop-color="#4811cb"/><stop offset="1" stop-color="#1e1c57"/></linearGradient><linearGradient id="b" x1="0.5" x2="0.5" y2="1.975" gradientUnits="objectBoundingBox"><stop offset="0.006" stop-color="#5a8dee"/><stop offset="1" stop-color="#fff"/></linearGradient></defs><g transform="translate(6048 -7949)"><rect class="a" width="1080" height="302" transform="translate(-6048 7949)"/><path class="b" d="M1111.086,206.538H32V176.585c.01-.03,1.044-3,3.1-7.323a99.967,99.967,0,0,1,9.6-16.111,65.566,65.566,0,0,1,16.526-16.111,43.049,43.049,0,0,1,23.894-7.323,53.027,53.027,0,0,1,20.194,4.32,98.115,98.115,0,0,1,23.778,14.687c14.081,11.4,27.446,19.835,39.725,25.075,10.129,4.323,19.605,6.515,28.165,6.515a43.507,43.507,0,0,0,12.1-1.638,35.1,35.1,0,0,0,8.333-3.6,24.651,24.651,0,0,0,6.365-5.241,103.434,103.434,0,0,1,17.6-15.718,92.377,92.377,0,0,1,19.615-10.806A67.306,67.306,0,0,1,285.7,138.4a61.387,61.387,0,0,1,22.38,4.279,81.883,81.883,0,0,1,23.814,14.853c15.111,13.173,28.785,19.852,40.64,19.852a28.617,28.617,0,0,0,15.535-4.478,37.408,37.408,0,0,0,10.194-9.851,53.045,53.045,0,0,0,7.279-14.329c.027-.093,2.735-9.456,7.418-23.238,4.323-12.722,11.26-31.918,19.761-51.123,9.555-21.587,19.1-38.788,28.364-51.124,5.5-7.324,10.965-12.993,16.24-16.847a36.875,36.875,0,0,1,8.43-4.72A23.856,23.856,0,0,1,494.314,0a21.515,21.515,0,0,1,7.126,1.23,27.471,27.471,0,0,1,7.14,3.854c4.883,3.591,9.659,9.164,14.2,16.566a644.223,644.223,0,0,0,40.236,58.291C574.371,94.567,586.176,108.381,598.1,121c10.607,11.225,19.347,19.4,24.81,24.289,5.855,5.235,9.266,7.882,9.409,7.992a26.077,26.077,0,0,0,4.4,1.89,36.447,36.447,0,0,0,11.531,1.89,37.054,37.054,0,0,0,17.037-4.225c6.882-3.531,13.345-9.27,19.208-17.06a37.3,37.3,0,0,1,12.5-13.711,28.445,28.445,0,0,1,15.294-4.329,35.232,35.232,0,0,1,8.994,1.217,45.666,45.666,0,0,1,9.084,3.532,65.681,65.681,0,0,1,17.375,13.291c4.881,4.372,8.942,9.341,13.242,14.6,12.5,15.289,26.658,32.616,66.795,40.726,26.84,0,47.331-5.644,64.487-17.762a121.5,121.5,0,0,0,21.215-19.6c6.537-7.432,12.784-15.684,19.4-24.42l0,0c14.057-18.569,29.988-39.615,54.318-60.128a71.694,71.694,0,0,1,19.3-9.663,62.4,62.4,0,0,1,18.839-2.91c10.686,0,21.821,2.712,33.1,8.06a129.769,129.769,0,0,1,27.135,17.732,180.065,180.065,0,0,1,18.351,17.732c4.272,4.761,6.72,8.028,6.744,8.06Z" transform="translate(-6080 8044.961)"/><g class="c" transform="translate(-6048.117 7964.018)"><path class="d" d="M370.781,185.785c-1.552-.741-3.115-1.423-4.644-2.026a1,1,0,1,0-.735,1.859c1.487.587,3.007,1.251,4.518,1.972a1,1,0,0,0,.861-1.8Z" transform="translate(-0.018 -0.009)"/><path class="d" d="M351.4,179.976a48.663,48.663,0,0,0-5.091-.309H346.3a1,1,0,0,0-.007,2,46.569,46.569,0,0,1,4.882.3,1.084,1.084,0,0,0,.113.006,1,1,0,0,0,.111-1.994Z" transform="translate(-0.017 -0.009)"/><path class="d" d="M361.346,182.077c-1.651-.5-3.306-.935-4.921-1.279a1,1,0,0,0-.416,1.957c1.557.331,3.156.746,4.752,1.234a.96.96,0,0,0,.293.044,1,1,0,0,0,.292-1.956Z" transform="translate(-0.017 -0.009)"/><path class="d" d="M399.262,206.419a1,1,0,1,0-1.391,1.435c1.166,1.13,2.347,2.313,3.512,3.515a1,1,0,0,0,1.436-1.392C401.64,208.761,400.443,207.563,399.262,206.419Z" transform="translate(-0.019 -0.01)"/><path class="d" d="M383.819,193.5a1,1,0,1,0-1.152,1.635c1.321.929,2.662,1.92,3.985,2.944a1,1,0,0,0,1.224-1.582C386.529,195.454,385.164,194.445,383.819,193.5Z" transform="translate(-0.018 -0.009)"/><path class="d" d="M412.873,221.08a1,1,0,1,0-1.417,1.412c1.178,1.183,2.4,2.36,3.633,3.495a1,1,0,0,0,1.356-1.47C415.233,223.4,414.031,222.244,412.873,221.08Z" transform="translate(-0.02 -0.011)"/><path class="d" d="M391.8,199.662a1,1,0,1,0-1.287,1.531c1.237,1.04,2.495,2.139,3.738,3.265a1,1,0,1,0,1.342-1.482C394.33,201.833,393.053,200.719,391.8,199.662Z" transform="translate(-0.019 -0.01)"/><path class="d" d="M281.55,259.331a1,1,0,0,0-1.33.482c-.7,1.487-1.432,2.986-2.185,4.456a1,1,0,1,0,1.779.912c.765-1.491,1.511-3.012,2.217-4.521A1,1,0,0,0,281.55,259.331Z" transform="translate(-0.013 -0.013)"/><path class="d" d="M288.563,240.619a1,1,0,0,0-1.247.667c-.48,1.586-.992,3.175-1.522,4.724a1,1,0,0,0,.622,1.27,1.015,1.015,0,0,0,.324.054,1,1,0,0,0,.946-.676c.538-1.572,1.058-3.184,1.544-4.792A1,1,0,0,0,288.563,240.619Z" transform="translate(-0.014 -0.012)"/><path class="d" d="M290.98,233.244a1,1,0,0,0-1.247.667c-.48,1.586-.992,3.175-1.522,4.724a1,1,0,0,0,.621,1.27,1.024,1.024,0,0,0,.324.054,1,1,0,0,0,.946-.676c.539-1.572,1.058-3.184,1.545-4.792A1,1,0,0,0,290.98,233.244Z" transform="translate(-0.014 -0.011)"/><path class="d" d="M285.394,250.1a1,1,0,0,0-1.292.576c-.591,1.545-1.217,3.093-1.858,4.6a1,1,0,0,0,.529,1.312.981.981,0,0,0,.391.08,1,1,0,0,0,.92-.608c.651-1.532,1.286-3.1,1.886-4.67A1,1,0,0,0,285.394,250.1Z" transform="translate(-0.014 -0.012)"/><path class="d" d="M277.046,268.257a1,1,0,0,0-1.363.376c-.812,1.431-1.668,2.862-2.542,4.253a1,1,0,1,0,1.692,1.064c.891-1.416,1.762-2.872,2.589-4.33A1,1,0,0,0,277.046,268.257Z" transform="translate(-0.013 -0.013)"/><path class="d" d="M297.819,216.974a1,1,0,0,0-1.34.454c-.724,1.468-1.442,3-2.135,4.565a1,1,0,0,0,1.828.811c.682-1.536,1.389-3.048,2.1-4.491A1,1,0,0,0,297.819,216.974Z" transform="translate(-0.014 -0.011)"/><path class="d" d="M270.409,277.019c-.933,1.345-1.914,2.694-2.916,4.006a1,1,0,1,0,1.591,1.213c1.019-1.337,2.018-2.709,2.968-4.079a1,1,0,0,0-1.643-1.14Z" transform="translate(-0.013 -0.013)"/><path class="d" d="M322.077,186.637c-1.434.891-2.844,1.868-4.19,2.9a1,1,0,0,0,1.219,1.586c1.293-.994,2.648-1.933,4.026-2.789a1,1,0,1,0-1.055-1.7Z" transform="translate(-0.015 -0.009)"/><path class="d" d="M331.244,182.172c-.863.3-1.721.638-2.559.993q-1.089.475-2.151,1a1,1,0,0,0,.442,1.9,1.013,1.013,0,0,0,.441-.1c.681-.335,1.371-.655,2.059-.955.791-.336,1.61-.654,2.435-.946a1,1,0,1,0-.667-1.885Z" transform="translate(-0.016 -0.009)"/><path class="d" d="M341.2,179.915a44.175,44.175,0,0,0-5.044.838,1,1,0,1,0,.442,1.951,42.226,42.226,0,0,1,4.815-.8,1,1,0,0,0-.213-1.988Z" transform="translate(-0.016 -0.009)"/><path class="d" d="M307.148,200.3c-1.022,1.282-2.039,2.648-3.024,4.059a1,1,0,1,0,1.641,1.145c.96-1.377,1.952-2.708,2.947-3.958a1,1,0,1,0-1.564-1.246Z" transform="translate(-0.015 -0.01)"/><path class="d" d="M302.728,208.265a1,1,0,0,0-1.376.325c-.863,1.4-1.718,2.865-2.542,4.364a1,1,0,1,0,1.752.963c.809-1.469,1.646-2.908,2.492-4.276A1,1,0,0,0,302.728,208.265Z" transform="translate(-0.014 -0.01)"/><path class="d" d="M314.007,192.844c-.294.276-.583.554-.862.83-.909.877-1.819,1.81-2.7,2.774a1,1,0,0,0,1.473,1.354c.858-.935,1.74-1.839,2.628-2.7.276-.271.554-.54.836-.8a1,1,0,0,0-1.37-1.457Z" transform="translate(-0.015 -0.009)"/><path class="d" d="M293.687,226.076a1,1,0,0,0-1.3.556c-.611,1.524-1.215,3.106-1.795,4.7a1,1,0,0,0,1.88.684c.572-1.576,1.168-3.137,1.772-4.641A1,1,0,0,0,293.687,226.076Z" transform="translate(-0.014 -0.011)"/><path class="d" d="M526.6,196.9a1,1,0,0,0-1.311.532c-.645,1.521-1.32,3.05-2.007,4.545a1,1,0,0,0,1.817.836c.695-1.513,1.379-3.061,2.031-4.6A1,1,0,0,0,526.6,196.9Z" transform="translate(-0.025 -0.01)"/><path class="d" d="M432.221,236.426c-1.409-.854-2.81-1.752-4.166-2.671a1,1,0,1,0-1.122,1.656c1.384.938,2.815,1.855,4.252,2.726a1,1,0,0,0,1.036-1.711Z" transform="translate(-0.021 -0.011)"/><path class="d" d="M517.8,214.841a1,1,0,0,0-1.372.343c-.855,1.423-1.749,2.827-2.656,4.171a1,1,0,0,0,1.657,1.12c.928-1.373,1.841-2.808,2.714-4.262A1,1,0,0,0,517.8,214.841Z" transform="translate(-0.025 -0.01)"/><path class="d" d="M504.411,230.8c-1.175,1.171-2.39,2.3-3.614,3.343a1,1,0,0,0,1.3,1.519c1.262-1.08,2.515-2.239,3.725-3.446a1,1,0,1,0-1.412-1.416Z" transform="translate(-0.024 -0.011)"/><path class="d" d="M510.887,223.371c-1.01,1.323-2.058,2.61-3.116,3.826a1,1,0,1,0,1.509,1.313c1.085-1.247,2.161-2.569,3.2-3.926a1,1,0,0,0-1.59-1.213Z" transform="translate(-0.025 -0.011)"/><path class="d" d="M530.227,187.579a1,1,0,0,0-1.3.567q-.5,1.285-.979,2.577-.391,1.053-.8,2.1a1,1,0,0,0,.572,1.294.989.989,0,0,0,.36.068,1,1,0,0,0,.934-.639q.409-1.06.808-2.13.469-1.276.965-2.542A1,1,0,0,0,530.227,187.579Z" transform="translate(-0.026 -0.009)"/><path class="d" d="M544.9,162.566q-.764.682-1.49,1.391c-.726.71-1.439,1.455-2.123,2.214a1,1,0,1,0,1.486,1.338c.656-.728,1.34-1.443,2.034-2.121q.693-.675,1.427-1.331a1,1,0,0,0-1.334-1.491Z" transform="translate(-0.026 -0.008)"/><path class="d" d="M538.08,170.136a49.352,49.352,0,0,0-2.787,4.272,1,1,0,0,0,1.73,1,47.312,47.312,0,0,1,2.673-4.1,1,1,0,0,0-1.616-1.177Z" transform="translate(-0.026 -0.008)"/><path class="d" d="M534.289,178.443a1,1,0,0,0-1.335.468c-.725,1.507-1.431,3.048-2.1,4.58a1,1,0,1,0,1.834.8c.658-1.51,1.353-3.027,2.067-4.512A1,1,0,0,0,534.289,178.443Z" transform="translate(-0.026 -0.009)"/><path class="d" d="M450.195,244.47c-1.573-.472-3.148-1-4.677-1.571a1,1,0,1,0-.7,1.875c1.57.584,3.185,1.126,4.8,1.612a1.029,1.029,0,0,0,.288.042,1,1,0,0,0,.287-1.958Z" transform="translate(-0.022 -0.012)"/><path class="d" d="M440.951,241.029c-1.495-.669-2.987-1.4-4.435-2.161a1,1,0,1,0-.934,1.768c1.485.786,3.017,1.532,4.551,2.219a1,1,0,0,0,.818-1.826Z" transform="translate(-0.021 -0.012)"/><path class="d" d="M469.608,246.911q-1.252.063-2.511.064h-.169q-1.114-.006-2.225-.054a.984.984,0,0,0-1.042.956,1,1,0,0,0,.956,1.042q1.149.05,2.3.056h.18q1.309,0,2.612-.066a1,1,0,0,0-.1-2Z" transform="translate(-0.022 -0.012)"/><path class="d" d="M496.934,237.184c-.252.181-.5.361-.765.542-1.076.761-2.195,1.49-3.328,2.165a1,1,0,0,0,1.024,1.718c1.177-.7,2.342-1.459,3.453-2.246.264-.183.525-.369.787-.558a1,1,0,1,0-1.171-1.621Z" transform="translate(-0.024 -0.011)"/><path class="d" d="M488.514,242.189c-1.476.695-3,1.323-4.531,1.868a1,1,0,1,0,.671,1.884c1.591-.567,3.176-1.219,4.711-1.941a1,1,0,0,0-.851-1.811Z" transform="translate(-0.023 -0.012)"/><path class="d" d="M479.292,245.475c-1.58.394-3.2.714-4.807.954a1,1,0,0,0,.146,1.989,1.063,1.063,0,0,0,.148-.011c1.673-.248,3.355-.582,5-.992a1,1,0,1,0-.484-1.94Z" transform="translate(-0.023 -0.012)"/><path class="d" d="M459.8,246.5c-1.622-.2-3.253-.481-4.847-.818a1,1,0,1,0-.415,1.957c1.648.348,3.334.633,5.011.845a1.082,1.082,0,0,0,.127.008,1,1,0,0,0,.124-1.992Z" transform="translate(-0.022 -0.012)"/><path class="d" d="M650.672,43.418a1,1,0,0,0-1.146.829c-.225,1.406-.507,3.053-.854,4.9a1,1,0,0,0,.8,1.168.973.973,0,0,0,.185.017,1,1,0,0,0,.982-.815c.318-1.693.609-3.36.864-4.954A1,1,0,0,0,650.672,43.418Z" transform="translate(-0.031 -0.002)"/><path class="d" d="M648.879,53.257a1,1,0,0,0-1.187.769q-.52,2.433-1.1,4.853a1,1,0,0,0,.74,1.2.981.981,0,0,0,.233.027,1,1,0,0,0,.972-.768q.583-2.442,1.107-4.9A1,1,0,0,0,648.879,53.257Z" transform="translate(-0.031 -0.003)"/><path class="d" d="M640.645,82.077a1,1,0,0,0-1.287.589q-.288.777-.582,1.546-.6,1.558-1.224,3.082a1,1,0,1,0,1.851.756q.629-1.54,1.241-3.12.3-.783.589-1.568A1,1,0,0,0,640.645,82.077Z" transform="translate(-0.031 -0.004)"/><path class="d" d="M652.833,33.682a1.006,1.006,0,0,0-1.267.63c-.486,1.45-.911,2.946-1.261,4.446l-.075.575a1,1,0,0,0,1.987.241l.048-.415c.334-1.421.737-2.837,1.2-4.21A1,1,0,0,0,652.833,33.682Z" transform="translate(-0.031 -0.002)"/><path class="d" d="M660.949,16.372a47.594,47.594,0,0,0-2.908,4.2,1,1,0,0,0,1.7,1.049,45.585,45.585,0,0,1,2.785-4.019,1,1,0,1,0-1.58-1.226Z" transform="translate(-0.032 -0.001)"/><path class="d" d="M728.93,13.282a1,1,0,0,0-1.356,1.471c1.2,1.1,2.368,2.274,3.475,3.477a1,1,0,0,0,1.472-1.354C731.378,15.633,730.169,14.423,728.93,13.282Z" transform="translate(-0.035 -0.001)"/><path class="d" d="M676.665,3.549a39.656,39.656,0,0,0-4.5,2.457,1,1,0,0,0,1.07,1.69,37.588,37.588,0,0,1,4.271-2.334,1,1,0,1,0-.843-1.813Z" transform="translate(-0.033 0)"/><path class="d" d="M406.193,213.761a1,1,0,1,0-1.534,1.283c1.077,1.289,2.194,2.567,3.317,3.8a1,1,0,0,0,1.477-1.348C408.349,216.284,407.252,215.028,406.193,213.761Z" transform="translate(-0.02 -0.01)"/><path class="d" d="M420.162,227.792a1,1,0,0,0-1.287,1.531c1.289,1.083,2.619,2.142,3.951,3.148a1,1,0,1,0,1.2-1.6C422.726,229.89,421.424,228.852,420.162,227.792Z" transform="translate(-0.02 -0.011)"/><path class="d" d="M770.992,86.738q-.816-2.344-1.656-4.724a1,1,0,1,0-1.885.668q.842,2.376,1.653,4.713a1,1,0,0,0,.944.671.986.986,0,0,0,.328-.055A1,1,0,0,0,770.992,86.738Z" transform="translate(-0.037 -0.004)"/><path class="d" d="M522.479,206.009a1,1,0,0,0-1.342.449l-.467.931c-.578,1.174-1.183,2.347-1.8,3.491a1,1,0,1,0,1.762.947c.626-1.164,1.241-2.36,1.825-3.545l.468-.931A1,1,0,0,0,522.479,206.009Z" transform="translate(-0.025 -0.01)"/><path class="d" d="M632.627,100.385a1,1,0,0,0-1.352.417c-.775,1.47-1.581,2.933-2.395,4.347a1,1,0,1,0,1.733,1c.827-1.436,1.645-2.92,2.432-4.411A1,1,0,0,0,632.627,100.385Z" transform="translate(-0.03 -0.005)"/><path class="d" d="M971.7,157.662q-.861-2.35-1.731-4.7a1,1,0,0,0-1.875.695q.869,2.343,1.727,4.689a1,1,0,0,0,.94.656,1.016,1.016,0,0,0,.344-.061A1,1,0,0,0,971.7,157.662Z" transform="translate(-0.047 -0.007)"/><path class="d" d="M779.757,110.06a1,1,0,1,0-1.83.807c.693,1.572,1.407,3.109,2.121,4.568a1,1,0,0,0,1.8-.879C781.143,113.121,780.439,111.608,779.757,110.06Z" transform="translate(-0.038 -0.005)"/><path class="d" d="M991.072,209.1a1,1,0,1,0-1.84.783q.994,2.332,2,4.6a1,1,0,0,0,.914.593.981.981,0,0,0,.407-.087,1,1,0,0,0,.505-1.32Q992.059,211.418,991.072,209.1Z" transform="translate(-0.048 -0.01)"/><path class="d" d="M981.945,185.87q-.862-2.334-1.723-4.69a1,1,0,1,0-1.879.685q.863,2.361,1.727,4.7a1,1,0,0,0,.938.654.978.978,0,0,0,.346-.063A1,1,0,0,0,981.945,185.87Z" transform="translate(-0.047 -0.009)"/><path class="d" d="M379.621,190.695c-1.441-.912-2.9-1.781-4.345-2.584a1,1,0,0,0-.972,1.748c1.408.785,2.838,1.634,4.249,2.526a1,1,0,0,0,1.068-1.69Z" transform="translate(-0.018 -0.009)"/><path class="d" d="M1048.59,263.836c-1.572-.569-3.188-1.1-4.8-1.583a1,1,0,0,0-.57,1.916c1.578.471,3.157.991,4.692,1.548a1.02,1.02,0,0,0,.341.059,1,1,0,0,0,.341-1.94Z" transform="translate(-0.05 -0.013)"/><path class="d" d="M1057.878,267.828c-1.507-.754-3.049-1.471-4.585-2.132a1,1,0,0,0-.791,1.838c1.5.646,3.009,1.346,4.481,2.083a1,1,0,0,0,.9-1.789Z" transform="translate(-0.051 -0.013)"/><path class="d" d="M999.593,227.1a1,1,0,1,0-1.763.945c.81,1.512,1.635,2.991,2.45,4.4a1,1,0,0,0,1.731-1C1001.206,230.048,1000.393,228.588,999.593,227.1Z" transform="translate(-0.048 -0.011)"/><path class="d" d="M870.88,110.771c-1.009,1.315-2.046,2.627-3.082,3.9a1,1,0,1,0,1.551,1.262c1.048-1.289,2.1-2.617,3.117-3.946a1,1,0,0,0-1.586-1.218Z" transform="translate(-0.042 -0.005)"/><path class="d" d="M960.828,129.653q-.976-2.32-1.975-4.606a1,1,0,1,0-1.832.8q.993,2.272,1.963,4.581a1,1,0,1,0,1.844-.776Z" transform="translate(-0.046 -0.006)"/><path class="d" d="M789.328,127.348a1,1,0,0,0-1.639,1.147c.967,1.382,1.982,2.748,3.017,4.057a1,1,0,0,0,1.568-1.24C791.265,130.033,790.273,128.7,789.328,127.348Z" transform="translate(-0.038 -0.006)"/><path class="d" d="M927.447,80.208a29.962,29.962,0,0,0-4.706-2.124,1,1,0,0,0-.658,1.889,27.943,27.943,0,0,1,4.392,1.982.988.988,0,0,0,.485.127,1,1,0,0,0,.487-1.874Z" transform="translate(-0.045 -0.004)"/><path class="d" d="M950.162,106.953a1,1,0,0,0-1.764.942q1.162,2.176,2.289,4.418a1,1,0,0,0,1.788-.9Q951.335,109.152,950.162,106.953Z" transform="translate(-0.046 -0.005)"/><path class="d" d="M939.089,90.089a1,1,0,1,0-1.518,1.3c1.029,1.2,2.057,2.5,3.058,3.857a1,1,0,0,0,.807.408.985.985,0,0,0,.59-.195,1,1,0,0,0,.214-1.4C941.21,92.663,940.149,91.325,939.089,90.089Z" transform="translate(-0.045 -0.004)"/><path class="d" d="M620.682,117.543q-.762,1-1.539,1.966t-1.56,1.893a1,1,0,0,0,.764,1.645.992.992,0,0,0,.764-.355q.8-.948,1.59-1.93t1.57-2.006a1,1,0,1,0-1.589-1.213Z" transform="translate(-0.03 -0.006)"/><path class="d" d="M150.473,247.832a1,1,0,0,0-1.4,1.428c1.176,1.154,2.327,2.352,3.423,3.561a1,1,0,1,0,1.482-1.343C152.855,250.24,151.677,249.014,150.473,247.832Z" transform="translate(-0.007 -0.012)"/><path class="d" d="M167.944,272.379a1,1,0,0,0-1.746.975c.822,1.471,1.681,2.934,2.555,4.349a1,1,0,0,0,.852.475.985.985,0,0,0,.524-.15,1,1,0,0,0,.326-1.376C169.6,275.262,168.751,273.824,167.944,272.379Z" transform="translate(-0.008 -0.013)"/><path class="d" d="M163.086,263.595a1,1,0,1,0-1.7,1.049c.857,1.391,1.682,2.832,2.453,4.281a1,1,0,1,0,1.766-.94C164.811,266.5,163.964,265.022,163.086,263.595Z" transform="translate(-0.008 -0.013)"/><path class="d" d="M157.259,255.327a1,1,0,0,0-1.56,1.252c1.028,1.281,2.026,2.609,2.967,3.943a1,1,0,1,0,1.635-1.152C159.336,258,158.312,256.642,157.259,255.327Z" transform="translate(-0.008 -0.012)"/><path class="d" d="M173.151,280.81a1,1,0,1,0-1.653,1.125c.942,1.384,1.928,2.766,2.929,4.106a1,1,0,0,0,1.6-1.2C175.046,283.527,174.077,282.17,173.151,280.81Z" transform="translate(-0.008 -0.014)"/><path class="d" d="M16.045,210.6q-2.506.093-5.012.234a1,1,0,0,0,.054,2,.543.543,0,0,0,.057,0q2.487-.138,4.977-.232a1,1,0,1,0-.076-2Z" transform="translate(0 -0.01)"/><path class="d" d="M66.108,212.821q-2.488-.325-4.988-.59a1,1,0,0,0-.212,1.989q2.475.264,4.942.584a.958.958,0,0,0,.13.009,1,1,0,0,0,.128-1.992Z" transform="translate(-0.003 -0.01)"/><path class="d" d="M56.132,211.724q-2.5-.232-5-.425a1,1,0,0,0-.154,1.994q2.485.192,4.967.423c.031,0,.062,0,.094,0a1,1,0,0,0,.091-2Z" transform="translate(-0.002 -0.01)"/><path class="d" d="M36.106,210.52q-2.506-.066-5.015-.093a1,1,0,0,0-.021,2q2.491.025,4.983.093h.027a1,1,0,0,0,.026-2Z" transform="translate(-0.001 -0.01)"/><path class="d" d="M46.13,210.956q-2.5-.153-5.01-.26a1,1,0,1,0-.087,2q2.488.109,4.976.258l.061,0a1,1,0,0,0,.06-2Z" transform="translate(-0.002 -0.01)"/><path class="d" d="M7.095,212.08v-.005a1,1,0,0,0-1.074-.921c-.83.065-1.66.145-2.49.217s-1.672.132-2.508.209a1,1,0,0,0-.9,1.089v.01a.889.889,0,0,0,.022.137l.021,0a.985.985,0,0,0,1.044.753c.693-.064,1.386-.127,2.08-.185l.806-.069c.693-.06,1.387-.115,2.081-.169a.985.985,0,0,0,.9-.919l.02-.006a.922.922,0,0,0,0-.139Z" transform="translate(0 -0.01)"/><path class="d" d="M26.08,210.409q-2.511,0-5.019.05a1,1,0,0,0,.019,2h.02q2.49-.048,4.981-.05a1,1,0,1,0,0-2Z" transform="translate(-0.001 -0.01)"/><path class="d" d="M121.4,228.053c-1.495-.707-3.04-1.4-4.592-2.066a1,1,0,0,0-.788,1.838c1.53.655,3.053,1.34,4.526,2.036a.984.984,0,0,0,.427.1,1,1,0,0,0,.427-1.9Z" transform="translate(-0.006 -0.011)"/><path class="d" d="M130.334,232.717c-1.438-.83-2.926-1.646-4.419-2.425a1,1,0,1,0-.925,1.773c1.468.766,2.931,1.569,4.345,2.384a1,1,0,1,0,1-1.732Z" transform="translate(-0.006 -0.011)"/><path class="d" d="M134.646,235.333a1,1,0,0,0-1.075,1.686c1.393.888,2.776,1.817,4.109,2.761a1,1,0,1,0,1.155-1.633C137.476,237.186,136.066,236.238,134.646,235.333Z" transform="translate(-0.006 -0.011)"/><path class="d" d="M76.038,214.334q-2.473-.435-4.957-.813a1,1,0,1,0-.3,1.977q2.46.375,4.911.806a1.04,1.04,0,0,0,.174.015,1,1,0,0,0,.173-1.985Z" transform="translate(-0.003 -0.01)"/><path class="d" d="M142.882,241.166a1,1,0,1,0-1.236,1.572c1.3,1.024,2.581,2.086,3.8,3.159a1,1,0,0,0,1.32-1.5C145.519,243.3,144.211,242.211,142.882,241.166Z" transform="translate(-0.007 -0.012)"/><path class="d" d="M112.148,224.088c-1.537-.6-3.125-1.183-4.72-1.742l-.02-.007-.467-.038a1,1,0,0,0-.176,1.931c1.575.554,3.143,1.132,4.66,1.721a1,1,0,0,0,.723-1.865Z" transform="translate(-0.005 -0.011)"/><path class="d" d="M85.888,216.294q-2.452-.543-4.914-1.034a1,1,0,1,0-.391,1.961q2.44.486,4.871,1.026a1.017,1.017,0,0,0,.218.024,1,1,0,0,0,.216-1.977Z" transform="translate(-0.004 -0.01)"/><path class="d" d="M599.149,137.681c-1.388.877-2.82,1.712-4.255,2.481a1,1,0,0,0,.945,1.763c1.476-.792,2.95-1.651,4.379-2.552a1,1,0,0,0-1.069-1.692Z" transform="translate(-0.029 -0.007)"/><path class="d" d="M907.412,77.421a31.014,31.014,0,0,0-4.909,1.595,1,1,0,0,0,.775,1.844,29.011,29.011,0,0,1,4.591-1.492,1,1,0,0,0-.457-1.947Z" transform="translate(-0.044 -0.004)"/><path class="d" d="M897.93,81.32a50.535,50.535,0,0,0-4.287,2.762,1,1,0,0,0,1.168,1.624,48.205,48.205,0,0,1,4.115-2.652,1,1,0,1,0-1-1.734Z" transform="translate(-0.043 -0.004)"/><path class="d" d="M889.665,87.257c-1.271,1.1-2.519,2.27-3.7,3.471a1,1,0,0,0,1.422,1.4c1.149-1.163,2.358-2.295,3.592-3.364a1,1,0,0,0-1.311-1.512Z" transform="translate(-0.043 -0.004)"/><path class="d" d="M917.7,76.859a26.311,26.311,0,0,0-3.676-.256c-.5.008-1.009.027-1.512.06a1,1,0,0,0-.934,1.062.987.987,0,0,0,1.063.934c.469-.031.941-.049,1.4-.056a24.266,24.266,0,0,1,3.382.237.96.96,0,0,0,.14.01,1,1,0,0,0,.139-1.991Z" transform="translate(-0.044 -0.004)"/><path class="d" d="M954.686,115.921a1,1,0,0,0-1.8.863q1.068,2.232,2.107,4.515a1,1,0,0,0,.911.585.983.983,0,0,0,.414-.091,1,1,0,0,0,.5-1.324Q955.759,118.171,954.686,115.921Z" transform="translate(-0.046 -0.006)"/><path class="d" d="M553.1,156.55c-1.48.9-2.9,1.847-4.231,2.816a1,1,0,1,0,1.18,1.615c1.282-.935,2.658-1.851,4.09-2.722a1,1,0,0,0-1.039-1.709Z" transform="translate(-0.027 -0.008)"/><path class="d" d="M882.538,94.475c-.887,1.049-1.751,2.14-2.623,3.323-.01.017-.173.286-.478.769a1,1,0,0,0,.313,1.379.989.989,0,0,0,.532.155,1,1,0,0,0,.847-.467c.289-.457.456-.732.455-.736.79-1.065,1.625-2.119,2.481-3.132a1,1,0,1,0-1.527-1.291Z" transform="translate(-0.043 -0.005)"/><path class="d" d="M931.738,83.036a1,1,0,1,0-1.215,1.589,42.324,42.324,0,0,1,3.692,3.19,1,1,0,1,0,1.39-1.438A44.366,44.366,0,0,0,931.738,83.036Z" transform="translate(-0.045 -0.004)"/><path class="d" d="M834.3,143.5a47.644,47.644,0,0,1-4.53,1.853,1,1,0,1,0,.658,1.889,49.631,49.631,0,0,0,4.719-1.931,1,1,0,0,0-.847-1.811Z" transform="translate(-0.04 -0.007)"/><path class="d" d="M842.8,138.582c-.588.406-1.18.807-1.763,1.192q-1.2.762-2.386,1.449a1,1,0,0,0,1,1.731c.817-.473,1.637-.97,2.472-1.5q.912-.6,1.812-1.224a1,1,0,0,0-1.137-1.646Z" transform="translate(-0.041 -0.007)"/><path class="d" d="M825.079,146.683a33.863,33.863,0,0,1-4.8.693,1,1,0,0,0,.069,2c.023,0,.047,0,.07,0a35.809,35.809,0,0,0,5.087-.732,1,1,0,1,0-.424-1.955Z" transform="translate(-0.04 -0.007)"/><path class="d" d="M850.665,132.57c-1.26,1.061-2.559,2.1-3.861,3.1a1,1,0,1,0,1.215,1.589c1.328-1.015,2.652-2.078,3.935-3.16a1,1,0,1,0-1.289-1.529Z" transform="translate(-0.041 -0.006)"/><path class="d" d="M876.708,102.715c-.591.866-1.255,1.823-1.986,2.852q-.435.612-.873,1.218a1,1,0,0,0,1.621,1.172q.443-.615.881-1.23c.741-1.041,1.413-2.009,2.009-2.885a1,1,0,0,0-1.652-1.127Z" transform="translate(-0.042 -0.005)"/><path class="d" d="M864.609,118.484c-1.088,1.263-2.2,2.515-3.3,3.722a1,1,0,0,0,1.478,1.347c1.112-1.22,2.234-2.486,3.335-3.762a1,1,0,1,0-1.514-1.307Z" transform="translate(-0.042 -0.006)"/><path class="d" d="M857.919,125.832c-1.145,1.17-2.337,2.333-3.546,3.456a1,1,0,1,0,1.361,1.465c1.233-1.144,2.449-2.33,3.615-3.523a1,1,0,1,0-1.43-1.4Z" transform="translate(-0.041 -0.006)"/><path class="d" d="M1070.719,275.915a1,1,0,1,0-1.237,1.572c1.285,1.011,2.552,2.081,3.765,3.182a1,1,0,1,0,1.344-1.482C1073.343,278.056,1072.04,276.955,1070.719,275.915Z" transform="translate(-0.052 -0.013)"/><path class="d" d="M1038.9,260.951c-1.436-.337-2.9-.641-4.358-.906-.186-.034-.373-.072-.56-.111a1,1,0,0,0-.412,1.957c.2.043.405.083.612.121,1.424.259,2.858.557,4.261.886a1.017,1.017,0,0,0,.23.027,1,1,0,0,0,.227-1.974Z" transform="translate(-0.05 -0.013)"/><path class="d" d="M1029.338,258.587a34.21,34.21,0,0,1-4.4-2.017,1,1,0,1,0-.957,1.756,36.132,36.132,0,0,0,4.662,2.134,1,1,0,1,0,.7-1.873Z" transform="translate(-0.05 -0.012)"/><path class="d" d="M1017.027,250.9a1,1,0,0,0-1.338,1.487,47.8,47.8,0,0,0,3.963,3.208,1,1,0,0,0,1.172-1.621A45.9,45.9,0,0,1,1017.027,250.9Z" transform="translate(-0.049 -0.012)"/><path class="d" d="M1078.223,282.723a1,1,0,0,0-1.444,1.384c.126.131.252.264.377.4a1,1,0,0,0,.1,1.995h2.166l.748-1.663Q1079.215,283.76,1078.223,282.723Z" transform="translate(-0.052 -0.014)"/><path class="d" d="M1062.925,270.568q-.3-.176-.594-.345a1,1,0,1,0-.994,1.734c.189.109.379.219.566.331,1.218.723,2.43,1.492,3.6,2.289a1,1,0,1,0,1.125-1.654C1065.424,272.1,1064.177,271.312,1062.925,270.568Z" transform="translate(-0.051 -0.013)"/><path class="d" d="M1010.315,243.727a1,1,0,1,0-1.558,1.252c1.089,1.355,2.2,2.647,3.312,3.837a1,1,0,1,0,1.463-1.363C1012.457,246.3,1011.374,245.044,1010.315,243.727Z" transform="translate(-0.049 -0.012)"/><path class="d" d="M975.113,167.067l-1.7-4.7a1,1,0,0,0-1.881.682l1.7,4.7a1,1,0,0,0,.941.66.99.99,0,0,0,.34-.059A1,1,0,0,0,975.113,167.067Z" transform="translate(-0.047 -0.008)"/><path class="d" d="M978.512,176.481l-1.7-4.7a1,1,0,0,0-1.881.68l1.7,4.7a1,1,0,0,0,.94.659,1.012,1.012,0,0,0,.341-.059A1,1,0,0,0,978.512,176.481Z" transform="translate(-0.047 -0.008)"/><path class="d" d="M968.212,148.279q-.885-2.347-1.784-4.679a1,1,0,1,0-1.866.719q.9,2.325,1.779,4.665a1,1,0,1,0,1.871-.7Z" transform="translate(-0.047 -0.007)"/><path class="d" d="M964.608,138.933q-.924-2.337-1.865-4.649a1,1,0,1,0-1.852.754q.938,2.3,1.858,4.631a1,1,0,0,0,1.859-.736Z" transform="translate(-0.047 -0.006)"/><path class="d" d="M995.138,218.2a1,1,0,0,0-1.811.852q1.084,2.3,2.193,4.523a1,1,0,0,0,1.789-.894Q996.209,220.482,995.138,218.2Z" transform="translate(-0.048 -0.011)"/><path class="d" d="M1004.587,235.672a1,1,0,1,0-1.688,1.074c.937,1.47,1.884,2.881,2.816,4.192a1,1,0,1,0,1.631-1.158C1006.433,238.5,1005.5,237.113,1004.587,235.672Z" transform="translate(-0.049 -0.011)"/><path class="d" d="M989.151,204.5q-.939-2.29-1.864-4.629a1,1,0,0,0-1.859.736q.93,2.35,1.872,4.651a1,1,0,0,0,.926.621.986.986,0,0,0,.378-.074A1,1,0,0,0,989.151,204.5Z" transform="translate(-0.048 -0.01)"/><path class="d" d="M985.471,195.217q-.894-2.314-1.778-4.666a1,1,0,0,0-1.871.7q.888,2.358,1.783,4.682a1,1,0,0,0,.933.639.989.989,0,0,0,.36-.067A1,1,0,0,0,985.471,195.217Z" transform="translate(-0.048 -0.009)"/><path class="d" d="M945.107,98.233a1,1,0,0,0-1.681,1.084c.864,1.34,1.729,2.762,2.573,4.227a1,1,0,1,0,1.733-1C946.872,101.052,945.989,99.6,945.107,98.233Z" transform="translate(-0.046 -0.005)"/><path class="d" d="M643.856,72.608a1,1,0,0,0-1.255.65q-.753,2.371-1.564,4.724a1,1,0,1,0,1.891.651q.819-2.374,1.579-4.768A1,1,0,0,0,643.856,72.608Z" transform="translate(-0.031 -0.004)"/><path class="d" d="M646.6,62.993a1,1,0,0,0-1.223.712q-.636,2.4-1.331,4.793a1,1,0,0,0,.68,1.239.974.974,0,0,0,.28.041,1,1,0,0,0,.96-.721q.7-2.412,1.344-4.842A1,1,0,0,0,646.6,62.993Z" transform="translate(-0.031 -0.003)"/><path class="d" d="M656.874,24.545a1,1,0,0,0-1.349.426c-.777,1.493-1.5,3.038-2.163,4.594a1,1,0,1,0,1.842.78c.638-1.508,1.343-3,2.095-4.45A1,1,0,0,0,656.874,24.545Z" transform="translate(-0.032 -0.001)"/><path class="d" d="M636.925,91.357a1,1,0,0,0-1.321.508c-.678,1.527-1.381,3.043-2.089,4.506a1,1,0,1,0,1.8.871c.717-1.482,1.43-3.018,2.118-4.565A1,1,0,0,0,636.925,91.357Z" transform="translate(-0.031 -0.004)"/><path class="d" d="M686.421.47a39.847,39.847,0,0,0-4.978,1.222,1,1,0,0,0,.3,1.954,1.014,1.014,0,0,0,.3-.046,37.887,37.887,0,0,1,4.726-1.161,1,1,0,0,0-.35-1.969Z" transform="translate(-0.033 0)"/><path class="d" d="M668.034,9.038a47.4,47.4,0,0,0-3.74,3.475,1,1,0,1,0,1.437,1.39,45.606,45.606,0,0,1,3.583-3.329,1,1,0,0,0-1.28-1.536Z" transform="translate(-0.032 0)"/><path class="d" d="M627.7,109.085a1,1,0,0,0-1.379.313c-.893,1.416-1.812,2.808-2.731,4.137a1,1,0,1,0,1.644,1.138c.936-1.352,1.87-2.768,2.779-4.209A1,1,0,0,0,627.7,109.085Z" transform="translate(-0.03 -0.005)"/><path class="d" d="M607.113,131.871c-1.267,1.058-2.574,2.08-3.885,3.038a1,1,0,1,0,1.179,1.615c1.347-.983,2.689-2.032,3.988-3.118a1,1,0,0,0-1.282-1.535Z" transform="translate(-0.029 -0.006)"/><path class="d" d="M571.506,148.28c-1.623.547-3.219,1.12-4.743,1.7a1,1,0,0,0,.357,1.934,1.025,1.025,0,0,0,.358-.066c1.5-.575,3.069-1.138,4.667-1.677a1,1,0,0,0-.639-1.895Z" transform="translate(-0.027 -0.007)"/><path class="d" d="M562.095,151.9c-1.583.7-3.12,1.43-4.568,2.174a1,1,0,0,0,.458,1.89.98.98,0,0,0,.456-.111c1.413-.726,2.913-1.441,4.46-2.123a1,1,0,1,0-.806-1.83Z" transform="translate(-0.027 -0.007)"/><path class="d" d="M581.142,145.391c-1.663.445-3.291.906-4.838,1.368a1,1,0,0,0,.286,1.958,1.015,1.015,0,0,0,.286-.042c1.529-.457,3.138-.912,4.783-1.353a1,1,0,1,0-.517-1.931Z" transform="translate(-0.028 -0.007)"/><path class="d" d="M614.293,125.092c-1.142,1.211-2.316,2.388-3.49,3.5a1,1,0,0,0,1.373,1.453c1.2-1.136,2.4-2.34,3.572-3.579a1,1,0,1,0-1.455-1.372Z" transform="translate(-0.03 -0.006)"/><path class="d" d="M696.629.184C694.951.07,693.249.007,691.572,0h-.007a1,1,0,0,0-.006,2c1.637.01,3.3.072,4.935.183l.068,0a1,1,0,0,0,.067-2Z" transform="translate(-0.033)"/><path class="d" d="M590.472,142.33c-1.495.667-3.033,1.285-4.569,1.837a1,1,0,0,0,.676,1.883c1.584-.57,3.167-1.206,4.707-1.893a1,1,0,0,0-.814-1.827Z" transform="translate(-0.028 -0.007)"/><path class="d" d="M806.128,144.893c-.4-.179-.8-.367-1.191-.563q-1.3-1.1-2.532-2.215a1,1,0,0,0-1.342,1.483q1.3,1.173,2.674,2.338l.2.127q.684.346,1.383.658a1,1,0,1,0,.813-1.828Z" transform="translate(-0.039 -0.007)"/><path class="d" d="M774.3,96.163q-.836-2.329-1.665-4.706a1,1,0,1,0-1.887.661q.834,2.383,1.669,4.719a1,1,0,0,0,1.883-.674Z" transform="translate(-0.037 -0.004)"/><path class="d" d="M777.827,105.482q-.928-2.295-1.806-4.638a1,1,0,0,0-1.872.7q.891,2.364,1.823,4.682a1,1,0,0,0,1.855-.749Z" transform="translate(-0.037 -0.005)"/><path class="d" d="M764.04,67.934q-.912-2.253-1.9-4.55l-.036-.082-.919.394-.883.477q.979,2.278,1.883,4.512a1,1,0,0,0,1.853-.751Z" transform="translate(-0.037 -0.003)"/><path class="d" d="M767.641,77.3q-.852-2.326-1.759-4.7a1,1,0,1,0-1.867.715q.9,2.356,1.747,4.668a1,1,0,0,0,.939.657,1,1,0,0,0,.94-1.344Z" transform="translate(-0.037 -0.003)"/><path class="d" d="M815.444,147.326a29.608,29.608,0,0,1-4.757-.835,1,1,0,1,0-.506,1.936,31.789,31.789,0,0,0,5.08.891c.031,0,.062,0,.093,0a1,1,0,0,0,.09-2Z" transform="translate(-0.039 -0.007)"/><path class="d" d="M784.123,118.949a1,1,0,0,0-1.754.962c.817,1.487,1.672,2.955,2.543,4.363a1,1,0,1,0,1.7-1.053C785.76,121.843,784.922,120.4,784.123,118.949Z" transform="translate(-0.038 -0.006)"/><path class="d" d="M795.446,135.1a1,1,0,1,0-1.5,1.327c1.108,1.248,2.272,2.487,3.461,3.683a1,1,0,1,0,1.418-1.41C797.667,137.531,796.528,136.319,795.446,135.1Z" transform="translate(-0.038 -0.007)"/><path class="d" d="M757.914,54.167a1,1,0,0,0-1.795.882q1.1,2.232,2.135,4.493a1,1,0,1,0,1.816-.835Q759.021,56.422,757.914,54.167Z" transform="translate(-0.037 -0.003)"/><path class="d" d="M721.342,7.324l-.449-.284a1,1,0,1,0-1.055,1.7l.407.258c1.221.813,2.425,1.68,3.579,2.579A1,1,0,1,0,725.053,10C723.86,9.069,722.615,8.172,721.342,7.324Z" transform="translate(-0.035 0)"/><path class="d" d="M706.659,1.485c-1.651-.318-3.332-.589-4.995-.8a1,1,0,0,0-.258,1.983c1.624.211,3.264.475,4.876.785a1.027,1.027,0,0,0,.19.018,1,1,0,0,0,.187-1.982Z" transform="translate(-0.034 0)"/><path class="d" d="M716.39,4.608a42,42,0,0,0-4.77-1.863,1,1,0,1,0-.611,1.9,40.026,40.026,0,0,1,4.539,1.773,1,1,0,0,0,.842-1.814Z" transform="translate(-0.034 0)"/><path class="d" d="M748.114,36.622a1,1,0,1,0-1.691,1.066q1.326,2.1,2.594,4.243a1,1,0,1,0,1.72-1.02Q749.454,38.749,748.114,36.622Z" transform="translate(-0.036 -0.002)"/><path class="d" d="M753.246,45.266a1,1,0,1,0-1.746.975q1.213,2.17,2.367,4.374a1,1,0,0,0,1.772-.929Q754.47,47.46,753.246,45.266Z" transform="translate(-0.036 -0.002)"/><path class="d" d="M742.183,28.458a1,1,0,1,0-1.581,1.224q1.522,1.968,3,3.969a1,1,0,0,0,1.609-1.188Q743.719,30.442,742.183,28.458Z" transform="translate(-0.036 -0.001)"/><path class="d" d="M735.841,20.664a1,1,0,0,0-1.522,1.3q1.615,1.893,3.188,3.823a1,1,0,1,0,1.551-1.263Q737.471,22.574,735.841,20.664Z" transform="translate(-0.036 -0.001)"/><path class="d" d="M98.4,219.755c-1.537-.6-3.125-1.183-4.72-1.743l-.02-.006-.467-.039a1,1,0,0,0-.176,1.932c1.575.554,3.143,1.132,4.66,1.721a1,1,0,1,0,.723-1.865Z" transform="translate(-0.004 -0.011)"/></g></g></svg>