<svg width="234" height="234" viewBox="0 0 234 234" fill="none" xmlns="http://www.w3.org/2000/svg">
<g id="CH-3">
<g id="Clip path group">
<g id="Group">
<path id="Vector" d="M117 234C181.617 234 234 181.617 234 117C234 52.3827 181.617 0 117 0C52.3827 0 8.83106e-06 52.3827 1.97247e-05 117C3.06184e-05 181.617 52.3827 234 117 234Z" fill="#FFD8D8"/>
<g id="Mask group">
<mask id="mask0_8786_8506" style="mask-type:alpha" maskUnits="userSpaceOnUse" x="0" y="0" width="234" height="234">
<path id="Vector_2" d="M117 234C181.617 234 234 181.617 234 117C234 52.3827 181.617 0 117 0C52.3827 0 8.83106e-06 52.3827 1.97247e-05 117C3.06184e-05 181.617 52.3827 234 117 234Z" fill="#FFD8D8"/>
</mask>
<g mask="url(#mask0_8786_8506)">
<g id="Group 48103295">
<path id="Vector_3" d="M116.995 235.235C182.298 235.235 235.236 182.297 235.236 116.995C235.236 51.6921 182.298 -1.24609 116.995 -1.24609C51.6926 -1.24609 -1.2456 51.6921 -1.2456 116.995C-1.24559 182.297 51.6926 235.235 116.995 235.235Z" fill="#FFF0C8"/>
<path id="Vector_4" d="M168.247 238.019H63.373V203.439C63.373 186.715 76.9282 173.16 93.6519 173.16L115.81 182.582L137.969 173.16C154.692 173.16 168.247 186.715 168.247 203.439V238.019Z" fill="white"/>
<path id="Vector_5" d="M100.872 173.16H93.6646C76.941 173.16 63.3857 186.715 63.3857 203.439V238.019H104.03L100.883 173.16H100.872Z" fill="#283F6D"/>
<path id="Vector_6" d="M100.873 173.149H97.7257C93.1409 173.149 85.1357 188.603 85.1357 188.603L95.7952 199.745L88.0734 211.549L104.031 237.998L100.884 173.139L100.873 173.149Z" fill="#1E2F52"/>
<path id="Vector_7" d="M77.7885 177.632C69.1434 182.962 63.373 192.519 63.373 203.42V238.001H77.7885V177.642V177.632Z" fill="#1E2F52"/>
<path id="Vector_8" d="M130.766 173.16H137.984C154.708 173.16 168.263 186.715 168.263 203.439V238.019H127.618L130.766 173.16Z" fill="#283F6D"/>
<path id="Vector_9" d="M130.761 173.149H133.908C138.493 173.149 146.498 188.603 146.498 188.603L135.839 199.745L143.56 211.549L127.603 237.998L130.75 173.139L130.761 173.149Z" fill="#1E2F52"/>
<path id="Vector_10" d="M153.687 177.632C162.332 182.962 168.102 192.519 168.102 203.42V238.001H153.687V177.642V177.632Z" fill="#1E2F52"/>
<path id="Vector_11" d="M101.458 171.593C101.458 179.389 108.005 184.131 116.168 184.131H116.43C124.603 184.131 130.835 179.389 130.835 171.593V153.548C130.835 145.753 124.603 137.968 116.43 137.968H116.168C107.995 137.968 101.458 145.753 101.458 153.548V171.593Z" fill="#FFC0AD"/>
<path id="Vector_12" d="M171.644 76.9209V136.681C171.644 152.408 158.278 165.145 141.806 165.145H93.1458C76.6635 165.145 63.3076 152.398 63.3076 136.681V77.9071L171.655 76.9209H171.644Z" fill="#FFD4BC"/>
<path id="Vector_13" d="M139.041 115.328C139.041 119.703 141.254 123.26 143.982 123.26C146.71 123.26 148.924 119.714 148.924 115.328C148.924 110.943 146.71 107.396 143.982 107.396C141.254 107.396 139.041 110.943 139.041 115.328Z" fill="#5A2A00"/>
<path id="Vector_14" d="M86.0391 115.327C86.0391 119.702 88.2528 123.259 90.9806 123.259C93.7085 123.259 95.9222 119.713 95.9222 115.327C95.9222 110.942 93.7085 107.396 90.9806 107.396C88.2528 107.396 86.0391 110.942 86.0391 115.327Z" fill="#5A2A00"/>
<path id="Vector_15" d="M117.468 127.854C120.616 127.854 123.627 127.14 126.313 125.892C126.638 126.532 126.827 127.203 126.827 127.916C126.827 131.368 122.641 134.159 117.468 134.159C112.296 134.159 108.12 131.368 108.12 127.916C108.12 127.203 108.309 126.532 108.634 125.892C111.32 127.151 114.321 127.854 117.479 127.854H117.468Z" fill="#FFC0AD"/>
<path id="Vector_16" d="M136.906 132.728C136.906 136.369 140.001 139.317 143.81 139.317C147.618 139.317 150.713 136.369 150.713 132.728C150.713 129.088 147.618 126.14 143.81 126.14C140.001 126.14 136.906 129.088 136.906 132.728Z" fill="#FFC0AD"/>
<path id="Vector_17" d="M98.0443 132.728C98.0443 136.369 94.9493 139.317 91.1408 139.317C87.3324 139.317 84.2373 136.369 84.2373 132.728C84.2373 129.088 87.3324 126.14 91.1408 126.14C94.9493 126.14 98.0443 129.088 98.0443 132.728Z" fill="#FFC0AD"/>
<path id="Vector_18" d="M132.647 139.002C132.647 147.836 125.471 155.002 116.616 155.002C107.761 155.002 100.585 147.836 100.585 139.002" fill="#B83336"/>
<g id="Clip path group_2">
<mask id="mask1_8786_8506" style="mask-type:luminance" maskUnits="userSpaceOnUse" x="100" y="138" width="33" height="17">
<g id="clippath-9">
<path id="Vector_19" d="M132.647 138.982C132.647 147.816 125.471 154.982 116.616 154.982C107.761 154.982 100.585 147.816 100.585 138.982" fill="white"/>
</g>
</mask>
<g mask="url(#mask1_8786_8506)">
<g id="Group_2">
<path id="Vector_20" d="M135.835 160.036C135.835 168.503 128.952 175.375 120.464 175.375C111.977 175.375 105.104 168.513 105.104 160.036C105.104 151.559 111.987 144.697 120.464 144.697C128.941 144.697 135.835 151.559 135.835 160.036Z" fill="#FC8879"/>
</g>
</g>
</g>
<path id="Vector_21" d="M133.729 138.884C133.729 147.844 126.448 155.114 117.467 155.114C108.486 155.114 101.205 147.844 101.205 138.884" fill="#B83336"/>
<g id="Clip path group_3">
<mask id="mask2_8786_8506" style="mask-type:luminance" maskUnits="userSpaceOnUse" x="101" y="138" width="33" height="18">
<g id="clippath-10">
<path id="Vector_22" d="M133.729 138.884C133.729 147.844 126.448 155.114 117.467 155.114C108.486 155.114 101.205 147.844 101.205 138.884" fill="white"/>
</g>
</mask>
<g mask="url(#mask2_8786_8506)">
<g id="Group_3">
<path id="Vector_23" d="M136.96 160.237C136.96 168.829 129.983 175.796 121.37 175.796C112.756 175.796 105.779 168.829 105.779 160.237C105.779 151.644 112.756 144.678 121.37 144.678C129.983 144.678 136.96 151.644 136.96 160.237Z" fill="#FC8879"/>
</g>
</g>
</g>
<path id="Vector_24" d="M123.766 188.819C123.766 192.397 119.002 195.303 115.729 195.303C112.456 195.303 107.692 192.397 107.692 188.819C107.692 185.241 112.529 182.587 115.813 182.587C119.097 182.587 123.776 185.231 123.776 188.819H123.766Z" fill="#283F6D"/>
<path id="Vector_25" d="M121.847 209.322C121.301 197.928 117.157 189.986 117.157 189.986L115.563 188.937L113.968 189.986C113.968 189.986 109.824 197.928 109.278 209.322C108.733 220.716 111.691 237.67 111.691 237.67H119.444C119.444 237.67 122.393 220.716 121.858 209.322H121.847Z" fill="#283F6D"/>
<path id="Vector_26" d="M100.875 167.624L93.667 173.153C93.667 173.153 95.2407 184.673 108.219 192.017C108.219 184.411 115.815 182.575 115.815 182.575C115.815 182.575 101.924 177.853 100.875 167.624Z" fill="white"/>
<path id="Vector_27" d="M130.762 167.624L137.98 173.153C137.98 173.153 136.406 184.673 123.418 192.017C123.418 184.411 115.822 182.575 115.822 182.575C115.822 182.575 129.713 177.853 130.762 167.624Z" fill="white"/>
<path id="Vector_28" d="M171.452 59.9464C162.115 49.8115 152.526 52.9065 152.526 52.9065C130.755 25.3135 95.2203 34.0846 73.9222 49.4758C50.6518 64.3529 47.3574 60.3346 47.3574 60.3346C50.421 64.3634 54.0721 67.6997 57.6707 70.0813C50.8826 92.6488 62.8116 126.463 62.8116 126.463H68.9177V88.7669C68.9177 84.5598 71.6141 81.1605 75.412 80.1848C76.755 79.8386 91.6741 86.27 115.616 86.27C139.558 86.27 153.029 79.5763 153.029 79.5763C160.793 77.8557 168.588 83.7519 168.588 91.6836V126.453H171.809C178.23 100.224 182.154 71.5816 171.442 59.9464H171.452Z" fill="url(#paint0_linear_8786_8506)"/>
<path id="Vector_29" d="M171.461 59.9437C163.194 50.9733 154.727 52.3687 152.901 52.7989C158.074 61.6853 156.437 73.1841 149.303 80.9584C151.527 80.1401 152.681 79.563 152.681 79.563C160.445 77.8424 168.02 83.7387 168.02 91.6704V126.44H171.828C178.249 100.211 182.173 71.5684 171.461 59.9332V59.9437Z" fill="url(#paint1_linear_8786_8506)"/>
<path id="Vector_30" d="M57.5424 70.5762C51.0796 93.1332 62.8197 126.455 62.8197 126.455H68.3383V88.7582C68.3383 84.4881 71.4019 81.0573 75.2838 80.1445C68.8314 78.1826 62.8827 74.8777 57.5424 70.5762Z" fill="url(#paint2_linear_8786_8506)"/>
</g>
</g>
</g>
</g>
</g>
</g>
<defs>
<linearGradient id="paint0_linear_8786_8506" x1="65.8227" y1="41.8589" x2="161.108" y2="137.154" gradientUnits="userSpaceOnUse">
<stop stop-color="#A95C00"/>
<stop offset="1" stop-color="#5A2A00"/>
</linearGradient>
<linearGradient id="paint1_linear_8786_8506" x1="163.718" y1="126.44" x2="163.718" y2="52.4527" gradientUnits="userSpaceOnUse">
<stop stop-color="#A95C00"/>
<stop offset="1" stop-color="#5A2A00"/>
</linearGradient>
<linearGradient id="paint2_linear_8786_8506" x1="65.4531" y1="126.455" x2="65.4531" y2="70.5762" gradientUnits="userSpaceOnUse">
<stop stop-color="#A95C00"/>
<stop offset="1" stop-color="#5A2A00"/>
</linearGradient>
</defs>
</svg>
