<svg width="148" height="146" viewBox="0 0 148 146" fill="none" xmlns="http://www.w3.org/2000/svg">
<path d="M102.595 122.003C102.595 122.003 102.626 121.985 102.644 122C102.661 122.015 102.662 122.031 102.647 122.048C102.632 122.066 102.615 122.067 102.598 122.051C102.581 122.036 102.58 122.02 102.595 122.003Z" fill="#FFF0C8"/>
<path d="M106.454 117.242C106.56 117.121 106.738 117.11 106.858 117.216C106.979 117.322 106.99 117.5 106.884 117.621C106.778 117.741 106.6 117.753 106.479 117.646C106.359 117.54 106.348 117.362 106.454 117.242Z" fill="#FFF0C8"/>
<path d="M110.346 112.511C110.528 112.304 110.835 112.285 111.042 112.466C111.248 112.648 111.268 112.956 111.086 113.162C110.904 113.369 110.596 113.388 110.39 113.206C110.183 113.024 110.164 112.717 110.346 112.511Z" fill="#FFF0C8"/>
<path d="M114.376 107.885C114.565 107.669 114.905 107.648 115.12 107.837C115.335 108.027 115.357 108.367 115.167 108.582C114.978 108.797 114.638 108.818 114.423 108.629C114.208 108.439 114.187 108.1 114.376 107.885Z" fill="#FFF0C8"/>
<path d="M118.449 103.315C118.631 103.109 118.938 103.089 119.145 103.271C119.351 103.453 119.371 103.76 119.189 103.967C119.007 104.173 118.699 104.193 118.493 104.011C118.286 103.829 118.267 103.522 118.449 103.315Z" fill="#FFF0C8"/>
<path d="M122.659 98.8624C122.757 98.7505 122.935 98.7392 123.047 98.8378C123.159 98.9363 123.17 99.1143 123.072 99.2261C122.973 99.338 122.795 99.3493 122.683 99.2507C122.571 99.1522 122.56 98.9742 122.659 98.8624Z" fill="#FFF0C8"/>
<path d="M126.91 94.4343C126.91 94.4343 126.918 94.4254 126.927 94.4333C126.936 94.4411 126.936 94.4411 126.928 94.4501C126.92 94.459 126.92 94.459 126.911 94.4511C126.902 94.4433 126.902 94.4433 126.91 94.4343Z" fill="#FFF0C8"/>
<path d="M89.908 127.157C89.908 127.157 89.9158 127.148 89.9248 127.156C89.9337 127.164 89.9337 127.164 89.9258 127.173C89.918 127.182 89.918 127.182 89.909 127.174C89.9001 127.166 89.9001 127.166 89.908 127.157Z" fill="#FFF0C8"/>
<path d="M93.5857 122.241C93.7751 122.026 94.0912 122.014 94.2977 122.196C94.5041 122.377 94.5246 122.701 94.3427 122.908C94.1609 123.114 93.8372 123.135 93.6307 122.953C93.4243 122.771 93.4038 122.447 93.5857 122.241Z" fill="#FFF0C8"/>
<path d="M97.2463 117.288C97.6252 116.858 98.2725 116.817 98.7027 117.196C99.1329 117.575 99.1738 118.222 98.7949 118.652C98.4159 119.083 97.7687 119.124 97.3385 118.745C96.9083 118.366 96.8674 117.718 97.2463 117.288Z" fill="#FFF0C8"/>
<path d="M101.206 112.618C101.63 112.136 102.358 112.09 102.84 112.514C103.322 112.939 103.368 113.667 102.944 114.149C102.519 114.63 101.791 114.677 101.309 114.252C100.828 113.828 100.781 113.1 101.206 112.618Z" fill="#FFF0C8"/>
<path d="M105.253 108.025C105.678 107.543 106.406 107.497 106.888 107.921C107.369 108.346 107.415 109.074 106.991 109.556C106.567 110.038 105.838 110.084 105.357 109.659C104.875 109.235 104.829 108.507 105.253 108.025Z" fill="#FFF0C8"/>
<path d="M109.308 103.421C109.732 102.94 110.46 102.894 110.942 103.318C111.424 103.742 111.47 104.471 111.046 104.952C110.621 105.434 109.893 105.48 109.411 105.056C108.93 104.631 108.883 103.903 109.308 103.421Z" fill="#FFF0C8"/>
<path d="M113.356 98.8248C113.78 98.343 114.508 98.2969 114.99 98.7213C115.472 99.1457 115.518 99.8739 115.094 100.356C114.669 100.837 113.941 100.884 113.459 100.459C112.977 100.035 112.931 99.3065 113.356 98.8248Z" fill="#FFF0C8"/>
<path d="M117.401 94.2339C117.825 93.7522 118.553 93.7061 119.035 94.1305C119.517 94.5549 119.563 95.2831 119.139 95.7649C118.714 96.2466 117.986 96.2927 117.504 95.8683C117.022 95.4439 116.976 94.7157 117.401 94.2339Z" fill="#FFF0C8"/>
<path d="M121.56 89.7202C121.931 89.2987 122.578 89.2577 123 89.6291C123.421 90.0004 123.462 90.6477 123.091 91.0693C122.72 91.4908 122.072 91.5318 121.651 91.1604C121.229 90.7891 121.188 90.1418 121.56 89.7202Z" fill="#FFF0C8"/>
<path d="M126.013 85.4809C126.187 85.283 126.487 85.2721 126.676 85.4389C126.866 85.6056 126.885 85.9131 126.718 86.1023C126.552 86.2916 126.244 86.3111 126.055 86.1443C125.866 85.9776 125.846 85.6702 126.013 85.4809Z" fill="#FFF0C8"/>
<path d="M130.403 81.1892C130.403 81.1892 130.41 81.1803 130.419 81.1881C130.428 81.196 130.428 81.196 130.42 81.2049C130.413 81.2139 130.413 81.2139 130.404 81.206C130.395 81.1981 130.395 81.1981 130.403 81.1892Z" fill="#FFF0C8"/>
<path d="M81.3301 127.652C81.2968 127.622 81.2461 127.626 81.2168 127.659C81.1875 127.692 81.1907 127.743 81.224 127.772C81.2572 127.801 81.3079 127.798 81.3372 127.765C81.3665 127.732 81.3633 127.681 81.3301 127.652Z" fill="#FFF0C8"/>
<path d="M84.7044 122.573C85.0076 122.229 85.533 122.188 85.8857 122.498C86.2384 122.809 86.2636 123.335 85.9605 123.68C85.6573 124.024 85.1233 124.058 84.7792 123.754C84.4351 123.451 84.3937 122.926 84.7044 122.573Z" fill="#FFF0C8"/>
<path d="M88.51 117.769C88.9344 117.287 89.6626 117.241 90.1444 117.666C90.6262 118.09 90.6723 118.818 90.2479 119.3C89.8235 119.782 89.0953 119.828 88.6135 119.403C88.1317 118.979 88.0856 118.251 88.51 117.769Z" fill="#FFF0C8"/>
<path d="M92.5652 113.166C92.9896 112.684 93.7178 112.638 94.1996 113.062C94.6814 113.487 94.7275 114.215 94.3031 114.697C93.8786 115.178 93.1505 115.224 92.6687 114.8C92.1869 114.376 92.1408 113.647 92.5652 113.166Z" fill="#FFF0C8"/>
<path d="M96.6126 108.569C97.037 108.087 97.7652 108.041 98.247 108.465C98.7287 108.89 98.7748 109.618 98.3504 110.1C97.926 110.582 97.1978 110.628 96.716 110.203C96.2343 109.779 96.1882 109.051 96.6126 108.569Z" fill="#FFF0C8"/>
<path d="M100.66 103.976C101.084 103.494 101.813 103.448 102.294 103.873C102.776 104.297 102.822 105.025 102.398 105.507C101.973 105.989 101.245 106.035 100.763 105.611C100.282 105.186 100.236 104.458 100.66 103.976Z" fill="#FFF0C8"/>
<path d="M104.714 99.3746C105.138 98.8928 105.866 98.8467 106.348 99.2711C106.83 99.6955 106.876 100.424 106.451 100.905C106.027 101.387 105.299 101.433 104.817 101.009C104.335 100.585 104.289 99.8563 104.714 99.3746Z" fill="#FFF0C8"/>
<path d="M108.761 94.7798C109.185 94.2981 109.914 94.252 110.395 94.6764C110.877 95.1008 110.923 95.829 110.499 96.3108C110.074 96.7925 109.346 96.8386 108.864 96.4142C108.383 95.9898 108.337 95.2616 108.761 94.7798Z" fill="#FFF0C8"/>
<path d="M112.808 90.1851C113.232 89.7033 113.96 89.6572 114.442 90.0816C114.924 90.5061 114.97 91.2343 114.546 91.716C114.121 92.1978 113.393 92.2439 112.911 91.8195C112.43 91.3951 112.383 90.6669 112.808 90.1851Z" fill="#FFF0C8"/>
<path d="M116.862 85.5826C117.286 85.1008 118.014 85.0547 118.496 85.4791C118.978 85.9035 119.024 86.6317 118.599 87.1135C118.175 87.5953 117.447 87.6414 116.965 87.217C116.483 86.7925 116.437 86.0644 116.862 85.5826Z" fill="#FFF0C8"/>
<path d="M120.908 80.9888C121.333 80.507 122.061 80.4609 122.543 80.8854C123.025 81.3098 123.071 82.038 122.646 82.5197C122.222 83.0015 121.494 83.0476 121.012 82.6232C120.53 82.1988 120.484 81.4706 120.908 80.9888Z" fill="#FFF0C8"/>
<path d="M125.206 76.6147C125.501 76.2792 126.019 76.2464 126.355 76.542C126.69 76.8376 126.723 77.3554 126.427 77.6909C126.132 78.0265 125.614 78.0592 125.278 77.7637C124.943 77.4681 124.91 76.9503 125.206 76.6147Z" fill="#FFF0C8"/>
<path d="M129.836 72.5212C129.836 72.5212 129.884 72.5019 129.901 72.5171C129.918 72.5322 129.92 72.5646 129.905 72.5818C129.89 72.599 129.858 72.6011 129.841 72.5859C129.823 72.5707 129.821 72.5384 129.836 72.5212Z" fill="#FFF0C8"/>
<path d="M72.6194 128.26C72.6194 128.26 72.6273 128.251 72.6362 128.258C72.6451 128.266 72.6451 128.266 72.6373 128.275C72.6294 128.284 72.6294 128.284 72.6205 128.276C72.6115 128.268 72.6115 128.268 72.6194 128.26Z" fill="#FFF0C8"/>
<path d="M77.2363 123.038C76.8894 122.733 76.3605 122.766 76.055 123.113C75.7494 123.46 75.7829 123.989 76.1298 124.294C76.4766 124.6 77.0055 124.566 77.3111 124.22C77.6166 123.873 77.5831 123.344 77.2363 123.038Z" fill="#FFF0C8"/>
<path d="M79.8601 118.307C80.2845 117.825 81.0127 117.779 81.4945 118.204C81.9763 118.628 82.0224 119.356 81.598 119.838C81.1736 120.32 80.4454 120.366 79.9636 119.942C79.4818 119.517 79.4357 118.789 79.8601 118.307Z" fill="#FFF0C8"/>
<path d="M83.907 113.714C84.3314 113.233 85.0596 113.187 85.5414 113.611C86.0232 114.035 86.0693 114.764 85.6449 115.245C85.2204 115.727 84.4922 115.773 84.0105 115.349C83.5287 114.924 83.4826 114.196 83.907 113.714Z" fill="#FFF0C8"/>
<path d="M87.9627 109.109C88.3871 108.627 89.1153 108.581 89.5971 109.005C90.0788 109.43 90.1249 110.158 89.7005 110.64C89.2761 111.122 88.5479 111.168 88.0661 110.743C87.5844 110.319 87.5383 109.591 87.9627 109.109Z" fill="#FFF0C8"/>
<path d="M92.0095 104.516C92.434 104.034 93.1621 103.988 93.6439 104.413C94.1257 104.837 94.1718 105.565 93.7474 106.047C93.323 106.529 92.5948 106.575 92.113 106.151C91.6312 105.726 91.5851 104.998 92.0095 104.516Z" fill="#FFF0C8"/>
<path d="M96.0564 99.9234C96.4808 99.4416 97.209 99.3955 97.6908 99.8199C98.1726 100.244 98.2187 100.973 97.7943 101.454C97.3699 101.936 96.6417 101.982 96.1599 101.558C95.6781 101.133 95.632 100.405 96.0564 99.9234Z" fill="#FFF0C8"/>
<path d="M100.11 95.3199C100.535 94.8381 101.263 94.792 101.745 95.2164C102.226 95.6408 102.272 96.369 101.848 96.8508C101.424 97.3326 100.695 97.3787 100.214 96.9543C99.7318 96.5299 99.6857 95.8017 100.11 95.3199Z" fill="#FFF0C8"/>
<path d="M104.157 90.7252C104.582 90.2434 105.31 90.1973 105.792 90.6217C106.274 91.0461 106.32 91.7743 105.895 92.2561C105.471 92.7379 104.743 92.784 104.261 92.3595C103.779 91.9351 103.733 91.2069 104.157 90.7252Z" fill="#FFF0C8"/>
<path d="M108.205 86.1324C108.629 85.6506 109.357 85.6045 109.839 86.0289C110.321 86.4533 110.367 87.1815 109.943 87.6633C109.518 88.1451 108.79 88.1912 108.308 87.7668C107.827 87.3424 107.78 86.6142 108.205 86.1324Z" fill="#FFF0C8"/>
<path d="M112.261 81.5298C112.685 81.0481 113.413 81.002 113.895 81.4264C114.377 81.8508 114.423 82.579 113.998 83.0608C113.574 83.5425 112.846 83.5886 112.364 83.1642C111.882 82.7398 111.836 82.0116 112.261 81.5298Z" fill="#FFF0C8"/>
<path d="M116.307 76.9341C116.732 76.4524 117.46 76.4063 117.942 76.8307C118.424 77.2551 118.47 77.9833 118.045 78.4651C117.621 78.9468 116.893 78.9929 116.411 78.5685C115.929 78.1441 115.883 77.4159 116.307 76.9341Z" fill="#FFF0C8"/>
<path d="M120.354 72.3394C120.778 71.8576 121.506 71.8115 121.988 72.2359C122.47 72.6604 122.516 73.3886 122.092 73.8703C121.667 74.3521 120.939 74.3982 120.457 73.9738C119.975 73.5494 119.929 72.8212 120.354 72.3394Z" fill="#FFF0C8"/>
<path d="M124.666 67.9673C124.961 67.6318 125.479 67.599 125.814 67.8945C126.15 68.1901 126.183 68.7079 125.887 69.0435C125.592 69.379 125.074 69.4118 124.738 69.1162C124.403 68.8206 124.37 68.3028 124.666 67.9673Z" fill="#FFF0C8"/>
<path d="M129.315 63.9001C129.315 63.9001 129.323 63.8912 129.332 63.8991C129.341 63.907 129.341 63.9069 129.333 63.9159C129.325 63.9248 129.325 63.9248 129.316 63.9169C129.307 63.9091 129.307 63.9091 129.315 63.9001Z" fill="#FFF0C8"/>
<path d="M67.6462 123.881C67.8357 123.666 68.1517 123.654 68.3582 123.836C68.5647 124.018 68.5852 124.342 68.4033 124.548C68.2214 124.755 67.8978 124.775 67.6913 124.593C67.4848 124.411 67.4643 124.088 67.6462 123.881Z" fill="#FFF0C8"/>
<path d="M71.2195 118.853C71.6439 118.371 72.3721 118.325 72.8539 118.75C73.3357 119.174 73.3818 119.902 72.9574 120.384C72.5329 120.866 71.8047 120.912 71.323 120.487C70.8412 120.063 70.7951 119.335 71.2195 118.853Z" fill="#FFF0C8"/>
<path d="M75.2669 114.26C75.6913 113.779 76.4195 113.732 76.9013 114.157C77.383 114.581 77.4291 115.309 77.0047 115.791C76.5803 116.273 75.8521 116.319 75.3703 115.895C74.8886 115.47 74.8425 114.742 75.2669 114.26Z" fill="#FFF0C8"/>
<path d="M79.3137 109.668C79.7382 109.186 80.4663 109.14 80.9481 109.564C81.4299 109.988 81.476 110.717 81.0516 111.198C80.6272 111.68 79.899 111.726 79.4172 111.302C78.9354 110.878 78.8893 110.149 79.3137 109.668Z" fill="#FFF0C8"/>
<path d="M83.3694 105.062C83.7938 104.58 84.522 104.534 85.0038 104.959C85.4856 105.383 85.5317 106.111 85.1073 106.593C84.6828 107.075 83.9547 107.121 83.4729 106.696C82.9911 106.272 82.945 105.544 83.3694 105.062Z" fill="#FFF0C8"/>
<path d="M87.4163 100.467C87.8407 99.9856 88.5689 99.9395 89.0507 100.364C89.5324 100.788 89.5785 101.516 89.1541 101.998C88.7297 102.48 88.0015 102.526 87.5197 102.102C87.038 101.677 86.9919 100.949 87.4163 100.467Z" fill="#FFF0C8"/>
<path d="M91.4636 95.8746C91.8881 95.3928 92.6162 95.3467 93.098 95.7711C93.5798 96.1955 93.6259 96.9237 93.2015 97.4055C92.7771 97.8873 92.0489 97.9334 91.5671 97.509C91.0853 97.0845 91.0392 96.3563 91.4636 95.8746Z" fill="#FFF0C8"/>
<path d="M95.5169 91.272C95.9413 90.7902 96.6695 90.7441 97.1513 91.1686C97.633 91.593 97.6791 92.3212 97.2547 92.8029C96.8303 93.2847 96.1021 93.3308 95.6203 92.9064C95.1386 92.482 95.0925 91.7538 95.5169 91.272Z" fill="#FFF0C8"/>
<path d="M99.5642 86.6783C99.9886 86.1965 100.717 86.1504 101.199 86.5748C101.68 86.9992 101.726 87.7274 101.302 88.2092C100.878 88.691 100.149 88.7371 99.6677 88.3127C99.1859 87.8883 99.1398 87.1601 99.5642 86.6783Z" fill="#FFF0C8"/>
<path d="M103.612 82.0835C104.036 81.6018 104.764 81.5557 105.246 81.9801C105.728 82.4045 105.774 83.1327 105.349 83.6145C104.925 84.0963 104.197 84.1424 103.715 83.7179C103.233 83.2935 103.187 82.5653 103.612 82.0835Z" fill="#FFF0C8"/>
<path d="M107.665 77.481C108.089 76.9992 108.817 76.9531 109.299 77.3775C109.781 77.802 109.827 78.5302 109.403 79.0119C108.978 79.4937 108.25 79.5398 107.768 79.1154C107.287 78.691 107.24 77.9628 107.665 77.481Z" fill="#FFF0C8"/>
<path d="M111.712 72.8873C112.137 72.4055 112.865 72.3594 113.347 72.7838C113.828 73.2082 113.874 73.9364 113.45 74.4182C113.026 74.9 112.297 74.9461 111.816 74.5216C111.334 74.0972 111.288 73.369 111.712 72.8873Z" fill="#FFF0C8"/>
<path d="M115.761 68.2925C116.185 67.8108 116.914 67.7647 117.395 68.1891C117.877 68.6135 117.923 69.3417 117.499 69.8235C117.074 70.3052 116.346 70.3513 115.864 69.9269C115.383 69.5025 115.337 68.7743 115.761 68.2925Z" fill="#FFF0C8"/>
<path d="M119.815 63.69C120.239 63.2082 120.967 63.1621 121.449 63.5865C121.931 64.0109 121.977 64.7391 121.553 65.2209C121.128 65.7027 120.4 65.7488 119.918 65.3244C119.436 64.9 119.39 64.1718 119.815 63.69Z" fill="#FFF0C8"/>
<path d="M124.369 59.5434C124.544 59.3455 124.844 59.3346 125.033 59.5014C125.222 59.6681 125.242 59.9756 125.075 60.1648C124.908 60.3541 124.601 60.3736 124.411 60.2068C124.222 60.0401 124.203 59.7327 124.369 59.5434Z" fill="#FFF0C8"/>
<path d="M59.3588 124.738C59.3588 124.738 59.3902 124.72 59.4074 124.735C59.4246 124.75 59.4256 124.767 59.4104 124.784C59.3953 124.801 59.3791 124.802 59.3619 124.787C59.3447 124.772 59.3437 124.755 59.3588 124.738Z" fill="#FFF0C8"/>
<path d="M62.6739 119.5C63.0453 119.078 63.6925 119.037 64.1141 119.408C64.5357 119.78 64.5766 120.427 64.2053 120.849C63.8339 121.27 63.1866 121.311 62.7651 120.94C62.3435 120.568 62.3025 119.921 62.6739 119.5Z" fill="#FFF0C8"/>
<path d="M66.6243 114.808C67.0487 114.326 67.7769 114.28 68.2587 114.705C68.7405 115.129 68.7866 115.857 68.3621 116.339C67.9377 116.821 67.2095 116.867 66.7278 116.443C66.246 116.018 66.1999 115.29 66.6243 114.808Z" fill="#FFF0C8"/>
<path d="M70.6717 110.211C71.0961 109.73 71.8243 109.684 72.306 110.108C72.7878 110.532 72.8339 111.261 72.4095 111.742C71.9851 112.224 71.2569 112.27 70.7751 111.846C70.2933 111.421 70.2472 110.693 70.6717 110.211Z" fill="#FFF0C8"/>
<path d="M74.719 105.619C75.1434 105.137 75.8716 105.091 76.3534 105.515C76.8352 105.94 76.8813 106.668 76.4569 107.15C76.0325 107.631 75.3043 107.678 74.8225 107.253C74.3407 106.829 74.2946 106.1 74.719 105.619Z" fill="#FFF0C8"/>
<path d="M78.7742 101.015C79.1986 100.533 79.9268 100.487 80.4086 100.912C80.8904 101.336 80.9365 102.064 80.512 102.546C80.0876 103.028 79.3594 103.074 78.8777 102.65C78.3959 102.225 78.3498 101.497 78.7742 101.015Z" fill="#FFF0C8"/>
<path d="M82.8206 96.4205C83.245 95.9387 83.9732 95.8926 84.455 96.317C84.9367 96.7414 84.9828 97.4696 84.5584 97.9514C84.134 98.4332 83.4058 98.4793 82.924 98.0549C82.4423 97.6304 82.3962 96.9022 82.8206 96.4205Z" fill="#FFF0C8"/>
<path d="M86.8679 91.8277C87.2924 91.3459 88.0205 91.2998 88.5023 91.7242C88.9841 92.1486 89.0302 92.8768 88.6058 93.3586C88.1814 93.8404 87.4532 93.8865 86.9714 93.4621C86.4896 93.0377 86.4435 92.3095 86.8679 91.8277Z" fill="#FFF0C8"/>
<path d="M90.9217 87.2252C91.3461 86.7434 92.0743 86.6973 92.556 87.1217C93.0378 87.5461 93.0839 88.2743 92.6595 88.7561C92.2351 89.2379 91.5069 89.284 91.0251 88.8595C90.5433 88.4351 90.4972 87.7069 90.9217 87.2252Z" fill="#FFF0C8"/>
<path d="M94.969 82.6294C95.3934 82.1477 96.1216 82.1016 96.6034 82.526C97.0852 82.9504 97.1313 83.6786 96.7069 84.1604C96.2825 84.6421 95.5543 84.6882 95.0725 84.2638C94.5907 83.8394 94.5446 83.1112 94.969 82.6294Z" fill="#FFF0C8"/>
<path d="M99.0164 78.0367C99.4408 77.5549 100.169 77.5088 100.651 77.9332C101.133 78.3576 101.179 79.0858 100.754 79.5676C100.33 80.0494 99.6016 80.0955 99.1198 79.6711C98.6381 79.2466 98.592 78.5185 99.0164 78.0367Z" fill="#FFF0C8"/>
<path d="M103.072 73.4341C103.496 72.9524 104.225 72.9063 104.706 73.3307C105.188 73.7551 105.234 74.4833 104.81 74.9651C104.385 75.4468 103.657 75.4929 103.176 75.0685C102.694 74.6441 102.648 73.9159 103.072 73.4341Z" fill="#FFF0C8"/>
<path d="M107.119 68.8414C107.544 68.3596 108.272 68.3135 108.754 68.7379C109.236 69.1623 109.282 69.8905 108.857 70.3723C108.433 70.8541 107.705 70.9002 107.223 70.4758C106.741 70.0513 106.695 69.3231 107.119 68.8414Z" fill="#FFF0C8"/>
<path d="M111.165 64.2437C111.59 63.7619 112.318 63.7158 112.8 64.1402C113.281 64.5647 113.328 65.2928 112.903 65.7746C112.479 66.2564 111.751 66.3025 111.269 65.8781C110.787 65.4537 110.741 64.7255 111.165 64.2437Z" fill="#FFF0C8"/>
<path d="M115.221 59.6412C115.646 59.1594 116.374 59.1133 116.856 59.5377C117.338 59.9621 117.384 60.6903 116.959 61.1721C116.535 61.6539 115.807 61.7 115.325 61.2756C114.843 60.8511 114.797 60.123 115.221 59.6412Z" fill="#FFF0C8"/>
<path d="M119.379 55.1457C119.743 54.7327 120.374 54.6928 120.787 55.0566C121.2 55.4204 121.24 56.0515 120.876 56.4644C120.512 56.8774 119.881 56.9173 119.468 56.5535C119.055 56.1897 119.015 55.5586 119.379 55.1457Z" fill="#FFF0C8"/>
<path d="M124.151 51.1885C124.151 51.1885 124.182 51.1703 124.199 51.1854C124.217 51.2006 124.218 51.2168 124.202 51.234C124.187 51.2512 124.171 51.2522 124.154 51.237C124.137 51.2219 124.136 51.2057 124.151 51.1885Z" fill="#FFF0C8"/>
<path d="M54.5752 120.525C54.6813 120.405 54.8593 120.393 54.9798 120.5C55.1002 120.606 55.1115 120.784 55.0054 120.904C54.8993 121.025 54.7213 121.036 54.6008 120.93C54.4804 120.824 54.4691 120.646 54.5752 120.525Z" fill="#FFF0C8"/>
<path d="M57.9676 115.355C58.392 114.873 59.1202 114.827 59.6019 115.252C60.0837 115.676 60.1298 116.404 59.7054 116.886C59.281 117.368 58.5528 117.414 58.071 116.989C57.5892 116.565 57.5431 115.837 57.9676 115.355Z" fill="#FFF0C8"/>
<path d="M62.0232 110.752C62.4476 110.27 63.1758 110.224 63.6576 110.648C64.1394 111.072 64.1855 111.801 63.7611 112.282C63.3367 112.764 62.6085 112.81 62.1267 112.386C61.6449 111.961 61.5988 111.233 62.0232 110.752Z" fill="#FFF0C8"/>
<path d="M66.0681 106.159C66.4926 105.677 67.2207 105.631 67.7025 106.055C68.1843 106.48 68.2304 107.208 67.806 107.69C67.3816 108.171 66.6534 108.218 66.1716 107.793C65.6898 107.369 65.6437 106.641 66.0681 106.159Z" fill="#FFF0C8"/>
<path d="M70.116 101.566C70.5404 101.084 71.2686 101.038 71.7504 101.463C72.2322 101.887 72.2783 102.615 71.8538 103.097C71.4294 103.579 70.7012 103.625 70.2195 103.2C69.7377 102.776 69.6916 102.048 70.116 101.566Z" fill="#FFF0C8"/>
<path d="M74.1726 96.9605C74.597 96.4787 75.3252 96.4326 75.807 96.857C76.2888 97.2815 76.3349 98.0096 75.9105 98.4914C75.4861 98.9732 74.7579 99.0193 74.2761 98.5949C73.7943 98.1705 73.7482 97.4423 74.1726 96.9605Z" fill="#FFF0C8"/>
<path d="M78.2205 92.3658C78.6449 91.884 79.3731 91.8379 79.8549 92.2623C80.3366 92.6867 80.3827 93.4149 79.9583 93.8967C79.5339 94.3785 78.8057 94.4246 78.3239 94.0002C77.8422 93.5758 77.7961 92.8476 78.2205 92.3658Z" fill="#FFF0C8"/>
<path d="M82.2649 87.773C82.6893 87.2912 83.4175 87.2451 83.8993 87.6695C84.3811 88.094 84.4272 88.8221 84.0028 89.3039C83.5784 89.7857 82.8502 89.8318 82.3684 89.4074C81.8866 88.983 81.8405 88.2548 82.2649 87.773Z" fill="#FFF0C8"/>
<path d="M86.3211 83.1705C86.7455 82.6887 87.4737 82.6426 87.9555 83.067C88.4372 83.4914 88.4833 84.2196 88.0589 84.7014C87.6345 85.1832 86.9063 85.2293 86.4245 84.8049C85.9428 84.3804 85.8967 83.6522 86.3211 83.1705Z" fill="#FFF0C8"/>
<path d="M90.3679 78.5767C90.7924 78.0949 91.5205 78.0488 92.0023 78.4733C92.4841 78.8977 92.5302 79.6259 92.1058 80.1076C91.6814 80.5894 90.9532 80.6355 90.4714 80.2111C89.9896 79.7867 89.9435 79.0585 90.3679 78.5767Z" fill="#FFF0C8"/>
<path d="M94.4148 73.982C94.8392 73.5002 95.5674 73.4541 96.0492 73.8785C96.531 74.3029 96.5771 75.0311 96.1527 75.5129C95.7283 75.9947 95.0001 76.0408 94.5183 75.6164C94.0365 75.192 93.9904 74.4638 94.4148 73.982Z" fill="#FFF0C8"/>
<path d="M98.4685 69.3795C98.8929 68.8977 99.6211 68.8516 100.103 69.276C100.585 69.7004 100.631 70.4286 100.206 70.9104C99.782 71.3922 99.0538 71.4382 98.572 71.0138C98.0902 70.5894 98.0441 69.8612 98.4685 69.3795Z" fill="#FFF0C8"/>
<path d="M102.516 64.7867C102.94 64.3049 103.668 64.2588 104.15 64.6832C104.632 65.1076 104.678 65.8358 104.254 66.3176C103.829 66.7994 103.101 66.8455 102.619 66.4211C102.138 65.9966 102.091 65.2685 102.516 64.7867Z" fill="#FFF0C8"/>
<path d="M106.565 60.191C106.99 59.7092 107.718 59.6631 108.2 60.0875C108.681 60.5119 108.727 61.2401 108.303 61.7219C107.879 62.2037 107.15 62.2498 106.669 61.8254C106.187 61.4009 106.141 60.6728 106.565 60.191Z" fill="#FFF0C8"/>
<path d="M110.618 55.5884C111.043 55.1067 111.771 55.0606 112.253 55.485C112.735 55.9094 112.781 56.6376 112.356 57.1194C111.932 57.6011 111.204 57.6472 110.722 57.2228C110.24 56.7984 110.194 56.0702 110.618 55.5884Z" fill="#FFF0C8"/>
<path d="M114.666 50.9957C115.09 50.5139 115.818 50.4678 116.3 50.8922C116.782 51.3166 116.828 52.0448 116.404 52.5266C115.979 53.0084 115.251 53.0545 114.769 52.63C114.287 52.2056 114.241 51.4774 114.666 50.9957Z" fill="#FFF0C8"/>
<path d="M119.391 46.9997C119.482 46.8965 119.643 46.8862 119.747 46.9772C119.85 47.0681 119.86 47.23 119.769 47.3332C119.678 47.4364 119.517 47.4467 119.413 47.3557C119.31 47.2648 119.3 47.103 119.391 46.9997Z" fill="#FFF0C8"/>
<path d="M49.8248 116.343C50.0067 116.136 50.3141 116.117 50.5206 116.298C50.7271 116.48 50.7466 116.788 50.5647 116.994C50.3828 117.201 50.0753 117.22 49.8688 117.038C49.6624 116.856 49.6429 116.549 49.8248 116.343Z" fill="#FFF0C8"/>
<path d="M53.3743 111.308C53.7987 110.826 54.5269 110.78 55.0087 111.205C55.4905 111.629 55.5366 112.357 55.1121 112.839C54.6877 113.321 53.9595 113.367 53.4778 112.943C52.996 112.518 52.9499 111.79 53.3743 111.308Z" fill="#FFF0C8"/>
<path d="M57.428 106.707C57.8524 106.225 58.5806 106.179 59.0624 106.603C59.5442 107.028 59.5903 107.756 59.1659 108.238C58.7414 108.719 58.0132 108.765 57.5315 108.341C57.0497 107.917 57.0036 107.188 57.428 106.707Z" fill="#FFF0C8"/>
<path d="M61.4754 102.11C61.8998 101.628 62.628 101.582 63.1097 102.006C63.5915 102.431 63.6376 103.159 63.2132 103.641C62.7888 104.123 62.0606 104.169 61.5788 103.744C61.097 103.32 61.0509 102.592 61.4754 102.11Z" fill="#FFF0C8"/>
<path d="M65.5222 97.5171C65.9467 97.0354 66.6748 96.9893 67.1566 97.4137C67.6384 97.8381 67.6845 98.5663 67.2601 99.0481C66.8357 99.5298 66.1075 99.5759 65.6257 99.1515C65.1439 98.7271 65.0978 97.9989 65.5222 97.5171Z" fill="#FFF0C8"/>
<path d="M69.5769 92.9146C70.0013 92.4328 70.7295 92.3867 71.2113 92.8111C71.6931 93.2356 71.7392 93.9637 71.3148 94.4455C70.8904 94.9273 70.1622 94.9734 69.6804 94.549C69.1986 94.1246 69.1525 93.3964 69.5769 92.9146Z" fill="#FFF0C8"/>
<path d="M73.6248 88.3189C74.0492 87.8371 74.7774 87.791 75.2592 88.2154C75.7409 88.6398 75.787 89.368 75.3626 89.8498C74.9382 90.3316 74.21 90.3777 73.7282 89.9533C73.2465 89.5289 73.2004 88.8007 73.6248 88.3189Z" fill="#FFF0C8"/>
<path d="M77.6721 83.7242C78.0966 83.2424 78.8247 83.1963 79.3065 83.6207C79.7883 84.0451 79.8344 84.7733 79.41 85.2551C78.9856 85.7369 78.2574 85.783 77.7756 85.3586C77.2938 84.9341 77.2477 84.206 77.6721 83.7242Z" fill="#FFF0C8"/>
<path d="M81.7254 79.1236C82.1498 78.6418 82.878 78.5957 83.3597 79.0201C83.8415 79.4445 83.8876 80.1727 83.4632 80.6545C83.0388 81.1363 82.3106 81.1824 81.8288 80.758C81.347 80.3336 81.301 79.6054 81.7254 79.1236Z" fill="#FFF0C8"/>
<path d="M85.7727 74.5279C86.1971 74.0461 86.9253 74 87.4071 74.4244C87.8889 74.8488 87.935 75.577 87.5106 76.0588C87.0862 76.5406 86.358 76.5867 85.8762 76.1623C85.3944 75.7379 85.3483 75.0097 85.7727 74.5279Z" fill="#FFF0C8"/>
<path d="M89.8201 69.9351C90.2445 69.4533 90.9727 69.4072 91.4545 69.8316C91.9363 70.2561 91.9824 70.9843 91.5579 71.466C91.1335 71.9478 90.4053 71.9939 89.9236 71.5695C89.4418 71.1451 89.3957 70.4169 89.8201 69.9351Z" fill="#FFF0C8"/>
<path d="M93.8733 65.3345C94.2977 64.8527 95.0259 64.8066 95.5077 65.2311C95.9895 65.6555 96.0356 66.3837 95.6112 66.8655C95.1867 67.3472 94.4586 67.3933 93.9768 66.9689C93.495 66.5445 93.4489 65.8163 93.8733 65.3345Z" fill="#FFF0C8"/>
<path d="M97.9207 60.7398C98.3451 60.258 99.0733 60.2119 99.5551 60.6363C100.037 61.0608 100.083 61.7889 99.6585 62.2707C99.2341 62.7525 98.5059 62.7986 98.0241 62.3742C97.5424 61.9498 97.4963 61.2216 97.9207 60.7398Z" fill="#FFF0C8"/>
<path d="M101.97 56.1421C102.394 55.6604 103.122 55.6143 103.604 56.0387C104.086 56.4631 104.132 57.1913 103.707 57.6731C103.283 58.1548 102.555 58.2009 102.073 57.7765C101.591 57.3521 101.545 56.6239 101.97 56.1421Z" fill="#FFF0C8"/>
<path d="M106.025 51.5396C106.449 51.0578 107.177 51.0117 107.659 51.4361C108.141 51.8606 108.187 52.5888 107.763 53.0705C107.338 53.5523 106.61 53.5984 106.128 53.174C105.646 52.7496 105.6 52.0214 106.025 51.5396Z" fill="#FFF0C8"/>
<path d="M110.07 46.9468C110.495 46.4651 111.223 46.419 111.704 46.8434C112.186 47.2678 112.232 47.996 111.808 48.4778C111.384 48.9595 110.655 49.0056 110.174 48.5812C109.692 48.1568 109.646 47.4286 110.07 46.9468Z" fill="#FFF0C8"/>
<path d="M114.625 42.8002C114.8 42.6023 115.099 42.5915 115.289 42.7582C115.478 42.925 115.497 43.2324 115.331 43.4217C115.164 43.611 114.857 43.6304 114.667 43.4637C114.478 43.2969 114.459 42.9895 114.625 42.8002Z" fill="#FFF0C8"/>
<path d="M117.317 19.9941L115.539 13.8356L121.697 12.0574L119.994 6.15841L113.836 7.93663L112.057 1.77822L106.158 3.48154L107.937 9.63995L101.778 11.4182L103.482 17.3172L109.64 15.539L111.418 21.6974L117.317 19.9941Z" fill="#FFF0C8"/>
<path d="M110.032 60.3086C110.102 51.492 107.846 42.8128 103.49 35.1468C99.1348 27.4808 92.8345 21.0992 85.225 16.6459L81.4272 23.1353C87.8953 26.9206 93.2506 32.3449 96.9527 38.861C100.655 45.3772 102.573 52.7544 102.513 60.2485L110.032 60.3086Z" fill="#F87000"/>
<path d="M84.6226 103.518C92.2931 99.1706 98.6813 92.877 103.143 85.2722C107.604 77.6673 109.98 69.0203 110.032 60.2036L102.513 60.1593C102.469 67.6535 100.449 75.0035 96.6572 81.4676C92.8651 87.9317 87.4351 93.2813 80.9152 96.9766L84.6226 103.518Z" fill="#E0211D"/>
<path d="M85.3156 16.699C77.7154 12.2298 69.0708 9.84424 60.2542 9.78309C51.4376 9.72195 42.7608 11.9874 35.0993 16.3508L38.8204 22.8844C45.3326 19.1755 52.7079 17.2499 60.2021 17.3019C67.6962 17.3539 75.0441 19.3816 81.5042 23.1804L85.3156 16.699Z" fill="#FBB900"/>
<path d="M35.1906 16.2989C27.52 20.6462 21.1318 26.9399 16.6706 34.5447C12.2093 42.1496 9.8328 50.7966 9.78089 59.6133L17.2997 59.6576C17.3439 52.1634 19.3639 44.8134 23.156 38.3493C26.948 31.8851 32.378 26.5356 38.898 22.8403L35.1906 16.2989Z" fill="#C5D805"/>
<path d="M9.78162 59.5083C9.71124 68.3249 11.9676 77.0041 16.3229 84.6701C20.6783 92.3361 26.9786 98.7177 34.5882 103.171L38.3859 96.6816C31.9178 92.8963 26.5625 87.4719 22.8605 80.9558C19.1584 74.4397 17.2405 67.0624 17.3004 59.5684L9.78162 59.5083Z" fill="#7ABE26"/>
<path d="M34.4976 103.118C42.0978 107.587 50.7423 109.973 59.559 110.034C68.3756 110.095 77.0524 107.83 84.7138 103.466L80.9927 96.9325C74.4805 100.641 67.1052 102.567 59.6111 102.515C52.117 102.463 44.7691 100.435 38.3089 96.6365L34.4976 103.118Z" fill="#D9D9D9"/>
<circle cx="42.6076" cy="42.6076" r="42.6076" transform="matrix(-0.999968 -0.00798196 -0.00798196 0.999968 102.855 17.6465)" fill="#D9D9D9"/>
<path d="M89.9999 90C106.568 73.4314 106.568 46.5686 89.9999 30C73.4314 13.4315 46.5685 13.4315 30 30C13.4314 46.5686 13.4315 73.4314 30 90C46.5685 106.569 73.4314 106.569 89.9999 90Z" fill="#FFD8D8"/>
<mask id="mask0_8617_7327" style="mask-type:alpha" maskUnits="userSpaceOnUse" x="17" y="17" width="86" height="86">
<path d="M89.9999 90C106.568 73.4314 106.568 46.5686 89.9999 30C73.4314 13.4315 46.5685 13.4315 30 30C13.4314 46.5686 13.4315 73.4314 30 90C46.5685 106.569 73.4314 106.569 89.9999 90Z" fill="#FFD8D8"/>
</mask>
<g mask="url(#mask0_8617_7327)">
<circle cx="60.0078" cy="59.9941" r="42.7695" fill="white"/>
<path d="M88.5102 88.5071C104.258 72.7598 104.258 47.2284 88.5102 31.4811C72.7629 15.7338 47.2315 15.7338 31.4842 31.4811C15.7369 47.2284 15.7369 72.7599 31.4842 88.5072C47.2315 104.254 72.7629 104.254 88.5102 88.5071Z" fill="black"/>
<path d="M90.3152 90.3161C107.059 73.5719 107.059 46.4241 90.3152 29.6799C73.571 12.9357 46.4232 12.9357 29.679 29.6799C12.9347 46.4242 12.9347 73.5719 29.6789 90.3161C46.4232 107.06 73.5709 107.06 90.3152 90.3161Z" fill="#FFF0C8"/>
<path d="M78.5816 103.884H40.5522V91.3449C40.5522 85.2806 45.4676 80.3652 51.5319 80.3652L59.5669 83.7816L67.602 80.3652C73.6663 80.3652 78.5816 85.2806 78.5816 91.3449V103.884Z" fill="white"/>
<path d="M54.151 80.3652H51.5373C45.473 80.3652 40.5576 85.2806 40.5576 91.3449V103.884H55.2961L54.1548 80.3652H54.151Z" fill="#283F6D"/>
<path d="M54.1505 80.3612H53.0092C51.3467 80.3612 48.4438 85.9652 48.4438 85.9652L52.3092 90.0055L49.5091 94.2856L55.2957 103.877L54.1543 80.3574L54.1505 80.3612Z" fill="#1E2F52"/>
<path d="M45.7796 81.9863C42.6447 83.919 40.5522 87.3849 40.5522 91.3377V103.877H45.7796V81.9901V81.9863Z" fill="#1E2F52"/>
<path d="M64.99 80.3652H67.6074C73.6718 80.3652 78.5871 85.2806 78.5871 91.3449V103.884H63.8486L64.99 80.3652Z" fill="#283F6D"/>
<path d="M64.9889 80.3612H66.1302C67.7928 80.3612 70.6956 85.9652 70.6956 85.9652L66.8303 90.0055L69.6303 94.2856L63.8438 103.877L64.9851 80.3574L64.9889 80.3612Z" fill="#1E2F52"/>
<path d="M73.3018 81.9863C76.4366 83.919 78.5291 87.3849 78.5291 91.3377V103.877H73.3018V81.9901V81.9863Z" fill="#1E2F52"/>
<path d="M54.3628 79.7968C54.3628 82.6235 56.7368 84.3431 59.6967 84.3431H59.7918C62.7554 84.3431 65.0153 82.6235 65.0153 79.7968V73.2531C65.0153 70.4264 62.7554 67.6035 59.7918 67.6035H59.6967C56.733 67.6035 54.3628 70.4264 54.3628 73.2531V79.7968Z" fill="#FFC0AD"/>
<path d="M79.8142 45.4668V67.137C79.8142 72.8399 74.9673 77.4585 68.9943 77.4585H51.3492C45.3724 77.4585 40.5293 72.8361 40.5293 67.137V45.8244L79.818 45.4668H79.8142Z" fill="#FFD4BC"/>
<path d="M67.9907 59.3938C67.9907 60.9802 68.7934 62.2699 69.7826 62.2699C70.7718 62.2699 71.5745 60.984 71.5745 59.3938C71.5745 57.8035 70.7718 56.5176 69.7826 56.5176C68.7934 56.5176 67.9907 57.8035 67.9907 59.3938Z" fill="#5A2A00"/>
<path d="M48.772 59.3938C48.772 60.9802 49.5747 62.2699 50.5639 62.2699C51.553 62.2699 52.3558 60.984 52.3558 59.3938C52.3558 57.8035 51.553 56.5176 50.5639 56.5176C49.5747 56.5176 48.772 57.8035 48.772 59.3938Z" fill="#5A2A00"/>
<path d="M60.1681 63.936C61.3094 63.936 62.4013 63.6773 63.3753 63.2246C63.4932 63.4567 63.5617 63.7002 63.5617 63.9589C63.5617 65.2105 62.0437 66.2225 60.1681 66.2225C58.2925 66.2225 56.7783 65.2105 56.7783 63.9589C56.7783 63.7002 56.8468 63.4567 56.9647 63.2246C57.9387 63.6811 59.0268 63.936 60.1719 63.936H60.1681Z" fill="#FFC0AD"/>
<path d="M67.2173 65.7037C67.2173 67.0238 68.3396 68.0929 69.7206 68.0929C71.1016 68.0929 72.224 67.0238 72.224 65.7037C72.224 64.3835 71.1016 63.3145 69.7206 63.3145C68.3396 63.3145 67.2173 64.3835 67.2173 65.7037Z" fill="#FFC0AD"/>
<path d="M53.1248 65.7037C53.1248 67.0238 52.0025 68.0929 50.6215 68.0929C49.2405 68.0929 48.1182 67.0238 48.1182 65.7037C48.1182 64.3835 49.2405 63.3145 50.6215 63.3145C52.0025 63.3145 53.1248 64.3835 53.1248 65.7037Z" fill="#FFC0AD"/>
<path d="M65.6733 67.9785C65.6733 71.1819 63.0711 73.7803 59.8601 73.7803C56.6491 73.7803 54.0469 71.1819 54.0469 67.9785" fill="#B83336"/>
<mask id="mask1_8617_7327" style="mask-type:luminance" maskUnits="userSpaceOnUse" x="54" y="67" width="12" height="7">
<path d="M65.6728 67.9727C65.6728 71.176 63.0706 73.7745 59.8596 73.7745C56.6486 73.7745 54.0464 71.176 54.0464 67.9727" fill="white"/>
</mask>
<g mask="url(#mask1_8617_7327)">
<path d="M66.8279 75.6061C66.8279 78.6763 64.3321 81.1682 61.2543 81.1682C58.1765 81.1682 55.6846 78.6801 55.6846 75.6061C55.6846 72.5321 58.1803 70.0439 61.2543 70.0439C64.3283 70.0439 66.8279 72.5321 66.8279 75.6061Z" fill="#FC8879"/>
</g>
<path d="M66.0643 67.9355C66.0643 71.1846 63.424 73.821 60.1674 73.821C56.9108 73.821 54.2705 71.1846 54.2705 67.9355" fill="#B83336"/>
<mask id="mask2_8617_7327" style="mask-type:luminance" maskUnits="userSpaceOnUse" x="54" y="67" width="13" height="7">
<path d="M66.0643 67.9355C66.0643 71.1846 63.424 73.821 60.1674 73.821C56.9108 73.821 54.2705 71.1846 54.2705 67.9355" fill="white"/>
</mask>
<g mask="url(#mask2_8617_7327)">
<path d="M67.2356 75.6791C67.2356 78.795 64.7056 81.3211 61.5821 81.3211C58.4587 81.3211 55.9287 78.795 55.9287 75.6791C55.9287 72.5633 58.4587 70.0371 61.5821 70.0371C64.7056 70.0371 67.2356 72.5633 67.2356 75.6791Z" fill="#FC8879"/>
</g>
<path d="M62.4534 86.0431C62.4534 87.3404 60.7262 88.3942 59.5392 88.3942C58.3522 88.3942 56.625 87.3404 56.625 86.0431C56.625 84.7457 58.3789 83.7832 59.5696 83.7832C60.7604 83.7832 62.4572 84.7419 62.4572 86.0431H62.4534Z" fill="#283F6D"/>
<path d="M61.7564 93.478C61.5586 89.3464 60.0558 86.4664 60.0558 86.4664L59.4775 86.0859L58.8992 86.4664C58.8992 86.4664 57.3965 89.3464 57.1987 93.478C57.0008 97.6097 58.0737 103.758 58.0737 103.758H60.8852C60.8852 103.758 61.9542 97.6097 61.7602 93.478H61.7564Z" fill="#283F6D"/>
<path d="M54.1513 78.3574L51.5376 80.3624C51.5376 80.3624 52.1083 84.5397 56.8144 87.2028C56.8144 84.4446 59.5688 83.7788 59.5688 83.7788C59.5688 83.7788 54.5317 82.0668 54.1513 78.3574Z" fill="white"/>
<path d="M64.9888 78.3574L67.6063 80.3624C67.6063 80.3624 67.0356 84.5397 62.3257 87.2028C62.3257 84.4446 59.5713 83.7788 59.5713 83.7788C59.5713 83.7788 64.6084 82.0668 64.9888 78.3574Z" fill="white"/>
<path d="M79.7453 39.3126C76.3593 35.6375 72.882 36.7599 72.882 36.7599C64.9878 26.7541 52.102 29.9347 44.379 35.5158C35.9407 40.9105 34.7461 39.4534 34.7461 39.4534C35.857 40.9143 37.181 42.1241 38.4859 42.9878C36.0244 51.1712 40.3501 63.4329 40.3501 63.4329H42.5643V49.7635C42.5643 48.2379 43.542 47.0053 44.9192 46.6515C45.4062 46.5259 50.8161 48.858 59.4979 48.858C68.1797 48.858 73.0646 46.4308 73.0646 46.4308C75.8799 45.8069 78.7066 47.945 78.7066 50.8211V63.4291H79.8746C82.2029 53.918 83.6258 43.5318 79.7414 39.3126H79.7453Z" fill="url(#paint0_linear_8617_7327)"/>
<path d="M79.7474 39.3105C76.7495 36.0577 73.6793 36.5637 73.0173 36.7197C74.8929 39.942 74.2994 44.1117 71.7124 46.9308C72.5189 46.6341 72.9375 46.4248 72.9375 46.4248C75.7528 45.8009 78.4996 47.939 78.4996 50.8152V63.4232H79.8806C82.2089 53.912 83.6318 43.5259 79.7474 39.3067V39.3105Z" fill="url(#paint1_linear_8617_7327)"/>
<path d="M38.438 43.166C36.0945 51.3456 40.3517 63.4286 40.3517 63.4286H42.3528V49.7591C42.3528 48.2107 43.4637 46.9667 44.8714 46.6357C42.5316 45.9242 40.3745 44.7258 38.438 43.166Z" fill="url(#paint2_linear_8617_7327)"/>
</g>
<path d="M60.528 27.6465L52.7996 14.3978L68.2563 14.3978L60.528 27.6465Z" fill="#FBB900"/>
<defs>
<linearGradient id="paint0_linear_8617_7327" x1="41.4419" y1="32.7538" x2="75.9941" y2="67.3097" gradientUnits="userSpaceOnUse">
<stop stop-color="#A95C00"/>
<stop offset="1" stop-color="#5A2A00"/>
</linearGradient>
<linearGradient id="paint1_linear_8617_7327" x1="76.9397" y1="63.4232" x2="76.9397" y2="36.5941" gradientUnits="userSpaceOnUse">
<stop stop-color="#A95C00"/>
<stop offset="1" stop-color="#5A2A00"/>
</linearGradient>
<linearGradient id="paint2_linear_8617_7327" x1="41.3066" y1="63.4286" x2="41.3066" y2="43.166" gradientUnits="userSpaceOnUse">
<stop stop-color="#A95C00"/>
<stop offset="1" stop-color="#5A2A00"/>
</linearGradient>
</defs>
</svg>
