<svg xmlns="http://www.w3.org/2000/svg" width="42.048" height="42.048" viewBox="0 0 42.048 42.048">
  <g id="Group_8796" data-name="Group 8796" transform="translate(0)">
    <rect id="Rectangle_17539" data-name="Rectangle 17539" width="42.048" height="42.048" transform="translate(0)" fill="#fff"/>
    <g id="Group_8757" data-name="Group 8757" transform="translate(8.562 8.681)">
      <path id="Path_6794" data-name="Path 6794" d="M574.671,192.009a1.172,1.172,0,0,0,.554.1,12.387,12.387,0,0,1,5.672,2.19.6.6,0,0,1,.223.861.591.591,0,0,1-.882.115,11.756,11.756,0,0,0-2.9-1.476,11.356,11.356,0,0,0-4.228-.587,11.184,11.184,0,0,0-5.59,1.788,11.323,11.323,0,0,0-3.984,4.4,11.66,11.66,0,0,0-1.244,5.54c0,.441,0,.882,0,1.338a10.951,10.951,0,0,1,1.955-.069.3.3,0,0,0,.329-.2,1.358,1.358,0,0,1,1.292-.86c.55-.012,1.1-.014,1.65,0a1.412,1.412,0,0,1,1.432,1.445q.014,3.877,0,7.752a1.393,1.393,0,0,1-1.319,1.43,12.649,12.649,0,0,1-1.855,0,1.345,1.345,0,0,1-1.2-.856.278.278,0,0,0-.3-.2c-.5.006-1,.018-1.5-.015a1.72,1.72,0,0,1-1.655-1.732c-.009-.275,0-.55,0-.825q0-3.743,0-7.486a12.548,12.548,0,0,1,8.175-11.876,12.3,12.3,0,0,1,3.143-.725c.061-.006.142.035.177-.058Zm-6.895,18.45c0-1.246,0-2.493,0-3.739,0-.271-.093-.4-.377-.393-.471.011-.943.009-1.414,0-.251,0-.357.1-.356.351q0,3.784,0,7.567c0,.266.119.369.376.365.441-.008.883,0,1.325,0,.4,0,.444-.048.444-.44Q567.776,212.314,567.776,210.459Zm-3.329.031c0-.953,0-1.905,0-2.858,0-.191-.046-.253-.243-.245-.412.016-.825,0-1.237.006a.591.591,0,0,0-.674.666q-.007,2.416,0,4.831a.583.583,0,0,0,.656.654c.412.009.825-.009,1.237.007.207.008.264-.056.262-.262C564.442,212.355,564.447,211.422,564.447,210.49Z" transform="translate(-561.111 -192.009)" fill="#3a15a6"/>
      <path id="Path_6795" data-name="Path 6795" d="M592.934,211.129q0,2.284,0,4.567a1.767,1.767,0,0,1-1.9,1.916c-.432,0-.864,0-1.3,0-.127,0-.252,0-.211.186a3.745,3.745,0,0,1-.219,2.074,5.656,5.656,0,0,1-5.393,3.9c-.218,0-.329.038-.418.275a1.475,1.475,0,0,1-1.387,1.011c-.637.031-1.277.026-1.914,0a1.561,1.561,0,0,1-1.529-1.526,2.543,2.543,0,0,1,.141-1.3,1.62,1.62,0,0,1,1.55-.927c.51,0,1.021,0,1.532,0a1.6,1.6,0,0,1,1.657,1.15c.046.123.1.136.209.141a4.54,4.54,0,0,0,4.341-2.849,4.6,4.6,0,0,0,.248-.874c.029-.168,0-.212-.186-.206-.51.018-1.021.018-1.532.007a1.45,1.45,0,0,1-1.534-1.561c0-1.129,0-2.259,0-3.389,0-1.375,0-2.75,0-4.125a1.448,1.448,0,0,1,1.573-1.576c.491,0,.982,0,1.473,0a1.389,1.389,0,0,1,1.341.879.263.263,0,0,0,.28.185,10.681,10.681,0,0,1,1.879.06c.13.027.113-.061.115-.139a12.983,12.983,0,0,0-1.289-6.823,11.309,11.309,0,0,0-.871-1.4,3.533,3.533,0,0,1-.232-.34.6.6,0,0,1,.13-.793.576.576,0,0,1,.814.108,10.024,10.024,0,0,1,.633.886,12.542,12.542,0,0,1,2,6.877Q592.937,209.332,592.934,211.129Zm-6.663,2.182q0,1.885,0,3.769c0,.344.056.406.385.409.461,0,.923,0,1.384,0,.258,0,.375-.1.375-.365q-.005-3.784,0-7.567c0-.246-.107-.356-.357-.351-.432.009-.864,0-1.3,0-.461,0-.492.03-.492.478Zm3.328.021c0,.953,0,1.905,0,2.858,0,.169.027.248.222.241.432-.015.864,0,1.3-.007a.567.567,0,0,0,.634-.614q.011-2.461,0-4.92a.57.57,0,0,0-.633-.616c-.432-.007-.865.009-1.3-.006-.192-.007-.224.064-.223.236C589.6,211.447,589.6,212.39,589.6,213.333Zm-8.481,10.558h.471c.811,0,.869-.059.848-.872-.009-.365-.152-.516-.522-.523-.392-.007-.785,0-1.177,0-.879,0-.942.065-.9.933a.421.421,0,0,0,.456.461C580.57,223.9,580.844,223.89,581.119,223.891Z" transform="translate(-567.82 -194.891)" fill="#3a15a6"/>
      <path id="Path_6796" data-name="Path 6796" d="M594.489,198.551a.547.547,0,0,1-.559-.586.563.563,0,0,1,.566-.586.583.583,0,0,1,.567.593A.561.561,0,0,1,594.489,198.551Z" transform="translate(-573.668 -194.064)" fill="#3a15a6"/>
      <g id="Group_8750" data-name="Group 8750" transform="translate(7.958 5.551)">
        <g id="Group_8749" data-name="Group 8749">
          <path id="Path_6797" data-name="Path 6797" d="M582.666,201H574.6a.6.6,0,0,0-.6.6v4.366a.6.6,0,0,0,.6.6h.677v2.234a.076.076,0,0,0,.13.054l2.3-2.288h4.963a.6.6,0,0,0,.6-.6V201.6A.6.6,0,0,0,582.666,201Z" transform="translate(-574 -201)" fill="none" stroke="#f37921" stroke-width="1"/>
          <path id="Path_6798" data-name="Path 6798" d="M578.369,205.491a.547.547,0,0,1-.559-.586.564.564,0,0,1,.566-.587.584.584,0,0,1,.567.593A.562.562,0,0,1,578.369,205.491Z" transform="translate(-575.458 -202.27)" fill="#3a15a6"/>
          <path id="Path_6799" data-name="Path 6799" d="M581.141,205.491a.547.547,0,0,1-.559-.586.564.564,0,0,1,.566-.587.584.584,0,0,1,.567.593A.562.562,0,0,1,581.141,205.491Z" transform="translate(-576.518 -202.27)" fill="#3a15a6"/>
        </g>
        <path id="Path_6800" data-name="Path 6800" d="M583.978,205.491a.547.547,0,0,1-.559-.586.564.564,0,0,1,.566-.587.584.584,0,0,1,.567.593A.562.562,0,0,1,583.978,205.491Z" transform="translate(-577.604 -202.27)" fill="#3a15a6"/>
      </g>
    </g>
  </g>
</svg>
