<svg xmlns="http://www.w3.org/2000/svg" width="90" height="90" viewBox="0 0 90 90">
  <g id="Group_8799" data-name="Group 8799" transform="translate(-125 -435)">
    <rect id="Rectangle_17535" data-name="Rectangle 17535" width="90" height="90" transform="translate(125 435)" fill="#fff"/>
    <g id="Group_8759" data-name="Group 8759" transform="translate(2091.61 -347.658)">
      <path id="Path_6801" data-name="Path 6801" d="M637.741,243.254c.219-.052.173-.266.221-.4a4.793,4.793,0,0,1,6.049-3.182c.416.118.565,0,.749-.347q7.634-14.232,15.3-28.453a.816.816,0,0,0,.011-.842,4.83,4.83,0,0,1,7.743-5.565c2.906,2.867,5.782,5.764,8.662,8.657a1.408,1.408,0,0,1,.108,2.139,1.455,1.455,0,0,1-2.141-.16q-4.211-4.2-8.407-8.41a2.088,2.088,0,0,0-2.374-.648,1.97,1.97,0,0,0-.587,3.328c1.29,1.328,2.612,2.623,3.921,3.933q11.152,11.152,22.3,22.3a2.21,2.21,0,0,0,2.319.857,1.968,1.968,0,0,0,1.051-3.084,5.585,5.585,0,0,0-.576-.63q-4.077-4.08-8.156-8.156a1.926,1.926,0,0,1-.593-.785,1.38,1.38,0,0,1,.462-1.6,1.345,1.345,0,0,1,1.712-.023,2.288,2.288,0,0,1,.316.284c2.887,2.886,5.785,5.762,8.657,8.662a4.84,4.84,0,0,1-3.583,8.27,3.934,3.934,0,0,1-1.846-.458.981.981,0,0,0-1.094.017c-3.557,1.929-7.124,3.836-10.689,5.751-.166.089-.324.193-.57.342.611.584,1.209,1.121,1.769,1.7a4.368,4.368,0,0,1-.863,6.948c-2.15,1.29-4.338,2.522-6.538,3.729a4.362,4.362,0,0,1-5.3-.765q-1.707-1.666-3.369-3.377c-.27-.278-.468-.369-.831-.144a17.67,17.67,0,0,1-1.935,1.047c-.422.194-.441.405-.323.817a4.827,4.827,0,0,1-3.145,5.962c-.253.085-.571-.034-.766.23h-1.709c-1.722-.527-2.861-1.826-4.071-3.042q-4.333-4.356-8.686-8.689c-1.261-1.259-2.642-2.425-3.193-4.219Zm48.422-6.548-23.9-23.905a1.734,1.734,0,0,0-.115.181q-7.563,14.066-15.132,28.125c-.241.447-.086.66.207.952q4.819,4.794,9.607,9.617a.824.824,0,0,0,1.193.17c5.113-2.78,10.243-5.526,15.368-8.281C677.661,241.27,681.933,238.977,686.163,236.705Zm-29.489,19.7a2.444,2.444,0,0,0-.855-1.726q-5.8-5.78-11.581-11.572a4.158,4.158,0,0,0-.473-.428,1.962,1.962,0,0,0-3.055,1,2.1,2.1,0,0,0,.743,2.281q5.77,5.754,11.529,11.523a4.289,4.289,0,0,0,.527.476,1.878,1.878,0,0,0,2.073.166A1.957,1.957,0,0,0,656.673,256.4Zm20.256-6.573a1.348,1.348,0,0,0-.436-1.027c-.693-.713-1.413-1.4-2.1-2.121-.233-.246-.409-.2-.67-.063q-4.331,2.34-8.677,4.658c-.28.149-.415.25-.111.542.971.938,1.909,1.91,2.875,2.853a1.459,1.459,0,0,0,1.829.28q3.313-1.843,6.593-3.746A1.422,1.422,0,0,0,676.93,249.83Z" transform="translate(-2595.805 602.917)" fill="#3a15a6"/>
      <path id="Path_6802" data-name="Path 6802" d="M680.682,193.427A15.007,15.007,0,1,1,665.67,208.39,15.029,15.029,0,0,1,680.682,193.427Zm-.02,2.849a12.158,12.158,0,1,0,12.175,12.171A12.194,12.194,0,0,0,680.662,196.276Z" transform="translate(-2580.842 597.773)" fill="#f37921"/>
      <path id="Path_6803" data-name="Path 6803" d="M675.457,218.871a1.281,1.281,0,0,1,.922-1.207c2.532-.84,5.065-1.68,7.608-2.485a1.388,1.388,0,0,1,1.82.915,1.369,1.369,0,0,1-.968,1.78q-3.762,1.258-7.545,2.457A1.4,1.4,0,0,1,675.457,218.871Z" transform="translate(-2575.599 609.384)" fill="#3a15a6"/>
      <path id="Path_6804" data-name="Path 6804" d="M661.686,206.819a1.41,1.41,0,0,1-1.545-1.765q1.209-3.889,2.526-7.746a1.339,1.339,0,0,1,1.792-.815,1.4,1.4,0,0,1,.84,1.86c-.422,1.351-.88,2.694-1.318,4.04-.358,1.1-.7,2.205-1.063,3.306A1.392,1.392,0,0,1,661.686,206.819Z" transform="translate(-2583.838 599.363)" fill="#3a15a6"/>
      <path id="Path_6805" data-name="Path 6805" d="M665.82,215.2a1.384,1.384,0,0,1-1.387-1.464,1.427,1.427,0,0,1,1.425-1.374,1.472,1.472,0,0,1,1.408,1.411A1.429,1.429,0,0,1,665.82,215.2Z" transform="translate(-2581.505 607.917)" fill="#3a15a6"/>
      <path id="Path_6806" data-name="Path 6806" d="M673.435,210.7c.177-1.034.35-2.133.556-3.225a.68.68,0,0,0-.227-.7c-.76-.717-1.5-1.457-2.25-2.188a.811.811,0,0,1-.312-.892.846.846,0,0,1,.776-.553c1.018-.146,2.035-.3,3.055-.424a.762.762,0,0,0,.679-.491c.415-.9.874-1.783,1.305-2.677.169-.35.362-.663.8-.67s.642.3.812.65c.447.924.915,1.838,1.35,2.767a.656.656,0,0,0,.571.408c1,.134,2,.283,3.005.421.379.052.733.134.886.551s-.084.7-.359.971c-.713.7-1.41,1.408-2.144,2.079a.794.794,0,0,0-.266.834c.192,1.011.346,2.027.527,3.039a.815.815,0,0,1-.306.9.794.794,0,0,1-.9-.025c-.935-.5-1.883-.977-2.812-1.484a.623.623,0,0,0-.687-.008q-1.438.79-2.9,1.528A.765.765,0,0,1,673.435,210.7Zm7.029-1.233c-.13-.766-.215-1.434-.364-2.089a1.331,1.331,0,0,1,.452-1.437c.516-.456.957-1,1.431-1.5a12.987,12.987,0,0,0-1.737-.249,1.637,1.637,0,0,1-1.634-1.224,7.181,7.181,0,0,0-.809-1.562c-.344.691-.683,1.312-.963,1.958a1.181,1.181,0,0,1-1.069.777c-.713.074-1.421.2-2.087.3.482.514.937,1.057,1.453,1.531a1.3,1.3,0,0,1,.43,1.353c-.149.685-.246,1.382-.378,2.147.749-.393,1.44-.737,2.113-1.113a.991.991,0,0,1,1.047,0C679.025,208.727,679.713,209.076,680.464,209.469Z" transform="translate(-2577.901 600.693)" fill="#3a15a6"/>
    </g>
  </g>
</svg>
