<svg xmlns="http://www.w3.org/2000/svg" width="37" height="37" viewBox="0 0 37 37">
  <g id="Group_8772" data-name="Group 8772" transform="translate(2433 -876)">
    <rect id="Rectangle_17536" data-name="Rectangle 17536" width="37" height="37" transform="translate(-2433 876)" fill="#fff"/>
    <g id="Group_8747" data-name="Group 8747" transform="translate(-2426.833 878.878)">
      <path id="Path_6780" data-name="Path 6780" d="M334.022,192.007c.148.109.334.087.5.141a3.03,3.03,0,0,1,2.092,2.957q0,5.547,0,11.092,0,6.783,0,13.564a3.006,3.006,0,0,1-2.254,3.011,3.118,3.118,0,0,1-.833.1q-9.088,0-18.175,0a3,3,0,0,1-3.09-3.077q-.009-4.763,0-9.525c0-.429.245-.714.6-.713s.6.28.6.714c0,.071,0,.141,0,.211v9.164a1.831,1.831,0,0,0,2.006,2.022H333.4a1.827,1.827,0,0,0,2-2q0-12.238,0-24.476a1.821,1.821,0,0,0-1.984-1.984H315.43a1.819,1.819,0,0,0-1.965,1.972q0,4.641,0,9.283c0,.1.005.2,0,.3a.6.6,0,0,1-1.2.01c-.009-.09,0-.181,0-.271q0-4.657,0-9.314a3,3,0,0,1,2.473-3.134c.023-.006.04-.036.059-.055Z" transform="translate(-312.258 -192.007)" fill="#3a15a6"/>
      <path id="Path_6781" data-name="Path 6781" d="M326.377,227.1h-7.985c-.582,0-.785-.2-.785-.772V213.4c0-.563.2-.769.756-.769h16.091c.541,0,.755.209.755.741q0,6.494,0,12.988c0,.53-.215.74-.756.74Zm3.363-5.034c0,1.186.008,2.371-.006,3.556,0,.234.066.278.285.277,1.246-.011,2.491-.009,3.737,0,.184,0,.254-.029.254-.239q-.013-3.572,0-7.144c0-.206-.047-.27-.262-.268q-1.868.016-3.737,0c-.24,0-.277.079-.275.292C329.745,219.718,329.74,220.893,329.74,222.069Zm-8.818-.588c.642,0,1.285,0,1.927,0,.158,0,.234-.025.232-.21q-.013-1.4,0-2.8c0-.172-.051-.221-.222-.22q-1.912.009-3.824,0c-.161,0-.228.028-.226.21.009.934.011,1.868,0,2.8,0,.206.081.222.247.22C319.677,221.476,320.3,221.48,320.922,221.48Zm5.514-3.225c-.632,0-1.265.006-1.9,0-.183,0-.264.027-.261.241q.019,1.369,0,2.739c0,.2.052.253.251.252q1.881-.013,3.762,0c.174,0,.248-.029.246-.227q-.016-1.385,0-2.77c0-.184-.048-.24-.236-.237C327.68,218.263,327.058,218.255,326.436,218.255Zm-5.483-4.416c-.642,0-1.284.006-1.926,0-.165,0-.22.036-.218.212q.013,1.4,0,2.8c0,.183.066.207.225.206q1.9-.009,3.792,0c.188,0,.261-.035.258-.245q-.018-1.369,0-2.739c0-.185-.046-.238-.233-.235C322.217,213.847,321.585,213.839,320.953,213.839Zm10.929,3.21c.632,0,1.264,0,1.9,0,.151,0,.232-.009.23-.2-.011-.943-.008-1.886,0-2.829,0-.141-.034-.187-.182-.186q-1.941.009-3.882,0c-.152,0-.209.033-.208.2q.011,1.4,0,2.8c0,.174.051.222.221.22C330.6,217.044,331.241,217.049,331.883,217.049Zm-10.948,5.637c-.642,0-1.284.005-1.926,0-.159,0-.2.044-.2.2q.01,1.415,0,2.829c0,.141.033.188.181.187q1.94-.009,3.882,0c.185,0,.208-.072.207-.229-.006-.922-.007-1.845,0-2.768,0-.172-.05-.223-.22-.22C322.219,222.692,321.577,222.687,320.935,222.687Zm5.473-5.638c.642,0,1.284,0,1.927,0,.158,0,.2-.042.2-.2q-.01-1.4,0-2.8c0-.171-.047-.217-.216-.216q-1.912.01-3.824,0c-.167,0-.22.04-.218.213q.013,1.386,0,2.77c0,.184.043.238.232.234C325.143,217.041,325.776,217.049,326.408,217.049Zm0,5.638c-.633,0-1.265.008-1.9-.005-.191,0-.232.054-.23.235q.013,1.386,0,2.77c0,.176.054.213.219.212q1.912-.009,3.823,0c.172,0,.217-.047.215-.217-.008-.924-.01-1.847,0-2.77,0-.189-.052-.235-.235-.231C327.671,222.694,327.039,222.687,326.407,222.687Z" transform="translate(-314.23 -199.611)" fill="#f37921"/>
      <path id="Path_6782" data-name="Path 6782" d="M326.393,204.831h-7.954c-.655,0-.832-.18-.832-.845q0-2.938,0-5.876c0-.541.208-.754.741-.754h16.12c.533,0,.741.213.742.754q0,2.983,0,5.966c0,.552-.207.754-.772.754Zm-.015-1.206c2.452,0,4.9,0,7.354.006.225,0,.28-.052.278-.277q-.017-2.261,0-4.521c0-.226-.053-.278-.278-.277q-7.324.011-14.647,0c-.225,0-.28.051-.278.277q.017,2.261,0,4.521c0,.225.053.278.278.277C321.516,203.621,323.947,203.625,326.378,203.625Z" transform="translate(-314.23 -193.978)" fill="#3a15a6"/>
      <path id="Path_6783" data-name="Path 6783" d="M313.465,216.1a.6.6,0,0,1-1.2.025.6.6,0,1,1,1.2-.025Z" transform="translate(-312.26 -200.67)" fill="#3a15a6"/>
      <path id="Path_6784" data-name="Path 6784" d="M340.579,202.518c0,.241.009.482,0,.722a.6.6,0,0,1-1.2,0c-.012-.491-.012-.982,0-1.473a.593.593,0,0,1,.6-.587.6.6,0,0,1,.6.589C340.588,202.016,340.579,202.267,340.579,202.518Z" transform="translate(-322.252 -195.387)" fill="#f37921"/>
    </g>
  </g>
</svg>
