<svg xmlns="http://www.w3.org/2000/svg" width="37" height="37" viewBox="0 0 37 37">
  <g id="Group_8774" data-name="Group 8774" transform="translate(2068 -960)">
    <rect id="Rectangle_17538" data-name="Rectangle 17538" width="37" height="37" transform="translate(-2068 960)" fill="#fff"/>
    <g id="Group_8755" data-name="Group 8755" transform="translate(-2064.711 962.878)">
      <path id="Path_6789" data-name="Path 6789" d="M496.186,192a4.487,4.487,0,0,0,.975.166,11.345,11.345,0,0,1,.176,22.325,11.055,11.055,0,0,1-8.54-1.815c-.176-.12-.269-.119-.409.04-.216.246-.455.473-.693.7a.252.252,0,0,0-.073.308,1.777,1.777,0,0,1-.461,1.916q-3.177,3.175-6.355,6.352a1.783,1.783,0,0,1-2.65,0c-.531-.524-1.049-1.062-1.587-1.579a3.821,3.821,0,0,1-.568-.884v-.837a4.226,4.226,0,0,1,1.209-1.546c1.871-1.873,3.75-3.738,5.611-5.62a1.855,1.855,0,0,1,2.077-.556.215.215,0,0,0,.256-.081c.244-.249.483-.5.741-.736.133-.121.126-.2.027-.339a10.97,10.97,0,0,1-1.818-4.268,11.21,11.21,0,0,1,1.443-8.11c.241-.4.561-.515.885-.325s.376.544.14.934a9.656,9.656,0,0,0-1.479,5.593,9.815,9.815,0,0,0,5.764,8.843,10.139,10.139,0,1,0,7.055-18.921,9.92,9.92,0,0,0-7.846,1.046c-.069.039-.134.085-.2.123a.6.6,0,0,1-.861-.178.585.585,0,0,1,.239-.841,11.356,11.356,0,0,1,4-1.541A2.713,2.713,0,0,0,494.1,192Zm-11.922,20.051a.631.631,0,0,0-.5.226q-3.162,3.166-6.326,6.33a.6.6,0,0,0,0,.982q.765.774,1.54,1.54a.614.614,0,0,0,1,0c.544-.539,1.083-1.083,1.624-1.624q2.321-2.32,4.641-4.64a.641.641,0,0,0,0-1.071c-.505-.508-1.013-1.012-1.518-1.519A.617.617,0,0,0,484.264,212.051Zm3.359-.269c-.027-.032-.049-.064-.076-.092-.224-.225-.449-.448-.67-.674-.063-.064-.107-.06-.168,0q-.331.341-.672.674c-.07.069-.083.117-.006.192.229.22.451.447.674.672.048.049.092.071.149.013l.714-.715A.654.654,0,0,0,487.623,211.782Z" transform="translate(-476 -192)" fill="#3a15a6"/>
      <path id="Path_6790" data-name="Path 6790" d="M493.485,197.594a.579.579,0,0,1,.6-.595.6.6,0,0,1,.589.585.617.617,0,0,1-.608.6A.6.6,0,0,1,493.485,197.594Z" transform="translate(-482.446 -193.843)" fill="#3a15a6"/>
      <path id="Path_6791" data-name="Path 6791" d="M511.316,207.346q0-1.562,0-3.123c0-.544.154-.692.706-.693q1.127,0,2.255,0c.5,0,.667.163.667.665q0,3.156,0,6.312c0,.508-.162.669-.657.671q-1.177,0-2.355,0c-.438,0-.612-.17-.615-.608C511.312,209.5,511.316,208.421,511.316,207.346Zm1.011.033c0,.85.006,1.7,0,2.549,0,.184.037.255.236.247.38-.016.761-.011,1.142,0,.16,0,.236-.021.235-.213q-.011-2.6,0-5.2c0-.181-.064-.23-.235-.225-.358.01-.717.016-1.075,0-.231-.012-.307.056-.3.295C512.336,205.679,512.328,206.529,512.328,207.379Z" transform="translate(-489.019 -196.25)" fill="#f37921"/>
      <path id="Path_6792" data-name="Path 6792" d="M496.1,208.8c0-.85,0-1.7,0-2.552,0-.432.178-.609.612-.611q1.194,0,2.388,0c.433,0,.629.182.629.6q.007,2.551,0,5.1c0,.429-.187.607-.621.609q-1.211,0-2.422,0c-.411,0-.587-.182-.588-.6C496.1,210.506,496.1,209.655,496.1,208.8Zm2.622-.007c0-.627-.006-1.254,0-1.881,0-.191-.026-.284-.251-.273-.38.02-.763.015-1.143,0-.181-.006-.225.054-.224.227q.01,1.931,0,3.862c0,.146.016.224.194.218.4-.013.808-.015,1.211,0,.2.008.213-.083.211-.24C498.718,210.074,498.721,209.436,498.721,208.8Z" transform="translate(-483.409 -197.028)" fill="#f37921"/>
      <path id="Path_6793" data-name="Path 6793" d="M507.357,210.343c0,.616,0,1.231,0,1.846,0,.438-.176.608-.612.609q-1.194,0-2.388,0c-.451,0-.624-.173-.626-.633q-.007-1.8,0-3.592c0-.482.164-.642.651-.645.785,0,1.57-.006,2.354,0,.46,0,.619.17.622.636C507.36,209.157,507.357,209.75,507.357,210.343Zm-1.011.032c0-.391-.009-.782,0-1.172.006-.191-.028-.283-.251-.271-.368.02-.738.018-1.107,0-.218-.011-.258.079-.256.273q.013,1.172,0,2.344c0,.186.044.254.241.246.379-.015.761-.016,1.14,0,.2.009.239-.069.233-.249C506.337,211.156,506.346,210.765,506.346,210.374Z" transform="translate(-486.221 -197.87)" fill="#f37921"/>
    </g>
  </g>
</svg>
