<svg id="More" xmlns="http://www.w3.org/2000/svg" width="45.871" height="45.511" viewBox="0 0 45.871 45.511">
  <g id="Group_2564" data-name="Group 2564" transform="translate(0)">
    <path id="Path_6622" data-name="Path 6622" d="M37.394,0H21.48A1.48,1.48,0,0,0,20,1.48V17.394a1.48,1.48,0,0,0,1.48,1.48H37.394a1.48,1.48,0,0,0,1.48-1.48V1.48A1.48,1.48,0,0,0,37.394,0" transform="translate(6.996)" fill="#64798c"/>
    <path id="Path_6623" data-name="Path 6623" d="M17.394,0H1.48A1.48,1.48,0,0,0,0,1.48V17.394a1.48,1.48,0,0,0,1.48,1.48H17.394a1.48,1.48,0,0,0,1.48-1.48V1.48A1.48,1.48,0,0,0,17.394,0" transform="translate(0)" fill="#64798c"/>
    <path id="Path_6624" data-name="Path 6624" d="M37.394,18.875H21.48A1.48,1.48,0,0,0,20,20.355V36.269a1.48,1.48,0,0,0,1.48,1.48H37.394a1.48,1.48,0,0,0,1.48-1.48V20.355a1.48,1.48,0,0,0-1.48-1.48" transform="translate(6.996 7.761)" fill="#64798c"/>
    <path id="Path_6625" data-name="Path 6625" d="M17.394,18.875H1.48A1.48,1.48,0,0,0,0,20.355V36.269a1.48,1.48,0,0,0,1.48,1.48H17.394a1.48,1.48,0,0,0,1.48-1.48V20.355a1.48,1.48,0,0,0-1.48-1.48" transform="translate(0 7.761)" fill="#64798c"/>
  </g>
</svg>
