<svg xmlns="http://www.w3.org/2000/svg" width="43.899" height="48" viewBox="0 0 43.899 48"><defs><style>.a{fill:#64798c;}</style></defs><path class="a" d="M79.479,61.155H45.712c-2.8,0-5.066-1.958-5.066-4.372s2.268-4.372,5.066-4.372H79.479c2.8,0,5.066,1.958,5.066,4.372S82.277,61.155,79.479,61.155Z" transform="translate(-40.646 -13.155)"/><path class="a" d="M79.479,48.625H45.712c-2.8,0-5.066-1.958-5.066-4.372s2.268-4.372,5.066-4.372H79.479c2.8,0,5.066,1.958,5.066,4.372S82.277,48.625,79.479,48.625Z" transform="translate(-40.646 -20.253)"/><path class="a" d="M79.479,36.095H45.712c-2.8,0-5.066-1.958-5.066-4.372s2.268-4.372,5.066-4.372H79.479c2.8,0,5.066,1.958,5.066,4.372S82.277,36.095,79.479,36.095Z" transform="translate(-40.646 -27.35)"/></svg>