<svg id="Layer_1" data-name="Layer 1" xmlns="http://www.w3.org/2000/svg" viewBox="0 0 271.07 111.01"><defs><style>.cls-1{fill:#f37021;}.cls-1,.cls-2,.cls-3{fill-rule:evenodd;}.cls-2{fill:#fff;}.cls-3,.cls-4{fill:#242056;}</style></defs><path class="cls-1" d="M78.51,18A55.51,55.51,0,1,1,23,73.51,55.5,55.5,0,0,1,78.51,18Z" transform="translate(-23 -18)"/><path class="cls-2" d="M71,75.75l2.25-5.28H67.33L71,75.75Zm-1-10.84,3.22,5.56,2.37-5.56Zm0,0,3.29-6.72H66.18l3.87,6.72ZM51.94,58.19,59,72l7.14-13.82ZM59,72,51.55,86.47H66.46l-3.56-7L59,72Zm3.67-7.1,3.55,7.73,1.07-2.17h0l2.72-5.56Zm3.55,7.73L62.9,79.52h6.51l-3.15-6.88ZM71,75.75l-1.61,3.77h4.24L71,75.75ZM66.47,86.47H72.6l-3.19-7-3,7ZM73.1,99.38,66.46,86.47,61,99.38Zm5.41-12.91h0l-1-1.51-3.8-5.44h9.72l-4.86,7ZM60,47.62,70.15,34.45H52.42L60,47.62Zm11.64,0H60l6.14,10.57,5.5-10.57ZM51.94,58.19,60,47.62H46.52l5.42,10.57Zm0,0h-21l10.23,14,10.77-14Zm-.39,28.28L44.86,99.38H61l-9.4-12.91Zm-21.3,0h21.3L41.17,72.23,30.25,86.47Zm26.22,23.42H68.62L61,99.38l-4.48,10.51ZM86,75.75l-2.25-5.28h5.94L86,75.75Zm1-10.84-3.22,5.56-2.37-5.56Zm0,0-3.29-6.72h7.16L87,64.91Zm18.11-6.72L98,72,90.83,58.19ZM98,72l7.49,14.46H90.55l3.56-7L98,72Zm-3.67-7.1-3.55,7.73-1.07-2.17h0L87,64.91Zm-3.55,7.73,3.36,6.88H87.6l3.15-6.88ZM86,75.75l1.61,3.77H83.37L86,75.75Zm4.55,10.72H84.42l3.18-7,3,7ZM83.91,99.38l6.64-12.91,5.51,12.91Zm-5.4-34.47h2.86l-2.86-6.72h0l-2.87,6.72h2.87Zm0,14.61h0l.72-1.26,4.51-7.79H73.27l5.24,9h0Zm0,19.85h0l5.91-12.91H72.6l4.56,10,1.34,2.95h0ZM97,47.62,86.86,34.45h17.73L97,47.62Zm-11.64,0H97L90.83,58.19l-5.5-10.57Zm19.74,10.57L97,47.62H110.5l-5.43,10.57Zm0,0h21l-10.23,14-10.77-14Zm.39,28.28,6.69,12.91H96.06l9.4-12.91Zm21.3,0h-21.3l10.38-14.24,10.92,14.24Zm-26.22,23.42H88.4l7.66-10.51,4.48,10.51Zm-22-75.44h8.35l-8.35-10.9h0l-8.36,10.9h8.36Zm0,13.17h6.82L78.51,34.45h0L71.68,47.62h6.83Zm0,10.57h5.16l-3.11-6.38-2-4.19h0L73.34,58.19h5.17Zm0,51.7h0l1.39-2.72,4-7.79H73.1l5.41,10.51Zm0,13.57h0l9.89-13.57H68.62l9.89,13.57Z" transform="translate(-23 -18)"/><path class="cls-3" d="M183.71,31.24h-9a5.27,5.27,0,0,0-5.25,5.26V86.75h9a5.26,5.26,0,0,0,5.25-5.25V31.24Zm15.11,0h30.65v9.28a5,5,0,0,1-5,5H208v7.12h17.85v9.28a5,5,0,0,1-5,5H208V81.65a5.11,5.11,0,0,1-5.1,5.1h-9.2V36.34a5.12,5.12,0,0,1,5.1-5.1Zm-39.41,0h-9a5.28,5.28,0,0,0-5.25,5.26V86.75h9a5.26,5.26,0,0,0,5.25-5.25V31.24Zm92.28,0h-9.2a5.12,5.12,0,0,0-5.1,5.1V86.75H264a5,5,0,0,0,5-5V72.45H251.69V31.24Z" transform="translate(-23 -18)"/><polygon class="cls-4" points="219.09 80.7 219.09 80.69 219.08 80.7 219.09 80.7 219.09 80.7"/><path class="cls-4" d="M212.31,97.5Z" transform="translate(-23 -18)"/><polygon class="cls-4" points="151.23 79.5 151.23 79.5 151.23 79.5 151.23 79.5 151.23 79.5 151.23 79.5"/><polygon class="cls-4" points="151.23 79.5 151.23 79.5 151.23 79.5 151.23 79.5 151.23 79.5"/><path class="cls-3" d="M167.19,95.71h7.92a1,1,0,0,1,1,1.05v2.08a1,1,0,0,1-1,1h-6.84a1.14,1.14,0,0,0-1.14,1.15v3.73h8a1,1,0,0,1,1,1v2.07a1.06,1.06,0,0,1-1,1.06h-8v3.73a1.15,1.15,0,0,0,1.14,1.15h6.84a1,1,0,0,1,1,1V117a1.06,1.06,0,0,1-1,1.06h-7.92a4.26,4.26,0,0,1-4.24-4.25V100a4.26,4.26,0,0,1,4.24-4.25Z" transform="translate(-23 -18)"/><path class="cls-3" d="M267.86,95.71h7.92a1,1,0,0,1,1.05,1.05v2.08a1,1,0,0,1-1.05,1h-6.84a1.15,1.15,0,0,0-1.15,1.15v3.73h8a1,1,0,0,1,1.05,1v2.07a1.06,1.06,0,0,1-1.05,1.06h-8v3.73a1.16,1.16,0,0,0,1.15,1.15h6.84a1,1,0,0,1,1.05,1V117a1.06,1.06,0,0,1-1.05,1.06h-7.92a4.26,4.26,0,0,1-4.25-4.25V100a4.26,4.26,0,0,1,4.25-4.25Z" transform="translate(-23 -18)"/><path class="cls-3" d="M231.52,96.76V117a1.06,1.06,0,0,0,1,1.06h2.07A1.07,1.07,0,0,0,235.7,117V96.76a1.06,1.06,0,0,0-1.06-1.05h-2.07a1,1,0,0,0-1,1.05Z" transform="translate(-23 -18)"/><path class="cls-3" d="M214,96.76V117A1.06,1.06,0,0,0,215,118h2.08a1.07,1.07,0,0,0,1.05-1.06v-7.82h2.17l4.76,8.09a1.91,1.91,0,0,0,1.51.79h2.28c.84,0,1-.83.65-1.51l-4.69-8a6.71,6.71,0,0,0,3.87-6.06v-.07A6.69,6.69,0,0,0,222,95.71h-7A1,1,0,0,0,214,96.76Zm4.18,8.24V99.84H222a2.58,2.58,0,0,1,0,5.16Z" transform="translate(-23 -18)"/><path class="cls-3" d="M195.34,96.76V110.2a7.83,7.83,0,0,0,7.8,7.81h0a7.83,7.83,0,0,0,7.8-7.81V96.76a1,1,0,0,0-1.05-1.05h-2.07a1.06,1.06,0,0,0-1.06,1.05v13.13a.25.25,0,0,0,0,.08v.25a3.63,3.63,0,0,1-3.63,3.62h0a3.63,3.63,0,0,1-3.62-3.62V96.76a1.06,1.06,0,0,0-1.06-1.05h-2.07a1,1,0,0,0-1,1.05Z" transform="translate(-23 -18)"/><path class="cls-3" d="M252.91,95.71H239.19a1,1,0,0,0-1.05,1.05v2.08a1,1,0,0,0,1.05,1H244V117a1.06,1.06,0,0,0,1,1.06h2.08a1.06,1.06,0,0,0,1-1.06V99.89h4.77a1,1,0,0,0,1.05-1V96.76a1,1,0,0,0-1.05-1.05Z" transform="translate(-23 -18)"/><path class="cls-3" d="M256.44,96.76V117a1.06,1.06,0,0,0,1.05,1.06h2.07a1.07,1.07,0,0,0,1.06-1.06V96.76a1.06,1.06,0,0,0-1.06-1.05h-2.07a1,1,0,0,0-1.05,1.05Z" transform="translate(-23 -18)"/><path class="cls-3" d="M191.32,95.71h-4.46a8.73,8.73,0,0,0-2,.22,8,8,0,0,0-2.07.82,6.45,6.45,0,0,0-1.82,1.64,7.92,7.92,0,0,0-1.29,2.62,13.2,13.2,0,0,0-.48,3.76V109a12.86,12.86,0,0,0,.48,3.71,8.07,8.07,0,0,0,1.29,2.61,6.49,6.49,0,0,0,1.82,1.65,7.18,7.18,0,0,0,2.07.85,9.32,9.32,0,0,0,2,.24h4.46a1.07,1.07,0,0,0,1.06-1.06v-2.07a1.06,1.06,0,0,0-1.06-1h-4.43a3.36,3.36,0,0,1-1.79-.37,3,3,0,0,1-1.19-1.51,8.24,8.24,0,0,1-.47-3v-4.18a9.47,9.47,0,0,1,.27-2.44,2.92,2.92,0,0,1,3.18-2.44h4.43a1.06,1.06,0,0,0,1.06-1V96.76a1.06,1.06,0,0,0-1.06-1.05Z" transform="translate(-23 -18)"/><path class="cls-3" d="M158.24,95.71h-5.53c-2.78,0-5.83.84-7.06,3.75-1.09,2.59-.58,5.89,1.72,7.51a8.54,8.54,0,0,0,2.31,1.13c.88.27,1.77.52,2.67.71a13.15,13.15,0,0,1,1.37.36,3.26,3.26,0,0,1,1,.48,2.42,2.42,0,0,1-.06,3.63,4.14,4.14,0,0,1-2.31.47h-6.07a1,1,0,0,0-1,1.07v2.11a1.06,1.06,0,0,0,1,1.08h6.07a13,13,0,0,0,2.83-.35,7.24,7.24,0,0,0,2.58-1.12,5.55,5.55,0,0,0,1.78-2.06,6.87,6.87,0,0,0,.67-3.2,6.75,6.75,0,0,0-.62-3.08,5.27,5.27,0,0,0-1.62-1.88,8.07,8.07,0,0,0-2.31-1.11c-1-.31-4.15-.87-4.94-1.43a2.24,2.24,0,0,1,.06-3.37,3.85,3.85,0,0,1,2-.45h5.47a1,1,0,0,0,1-1.07V96.78a1,1,0,0,0-1-1.07Z" transform="translate(-23 -18)"/><path class="cls-3" d="M292.13,95.71h-5.52c-2.78,0-5.83.84-7.07,3.75-1.09,2.59-.57,5.89,1.73,7.51a8.4,8.4,0,0,0,2.31,1.13c.88.27,1.77.52,2.67.71a13,13,0,0,1,1.36.36,3.43,3.43,0,0,1,1,.48,2.42,2.42,0,0,1-.07,3.63,4.12,4.12,0,0,1-2.31.47h-6.07a1,1,0,0,0-1,1.07v2.11a1,1,0,0,0,1,1.08h6.07a13,13,0,0,0,2.84-.35,7.4,7.4,0,0,0,2.58-1.12,5.73,5.73,0,0,0,1.78-2.06,7,7,0,0,0,.66-3.2,6.62,6.62,0,0,0-.62-3.08,5.18,5.18,0,0,0-1.62-1.88,8.07,8.07,0,0,0-2.31-1.11c-1-.31-4.14-.87-4.94-1.43a2.25,2.25,0,0,1,.06-3.37,3.9,3.9,0,0,1,2-.45h5.47a1,1,0,0,0,1-1.07V96.78a1,1,0,0,0-1-1.07Z" transform="translate(-23 -18)"/></svg>