<svg xmlns="http://www.w3.org/2000/svg" width="58.2" height="40.922" viewBox="0 0 58.2 40.922"><defs><style>.a{fill:#4d6043;}</style></defs><g transform="translate(0 0)"><path class="a" d="M49.674,23.871a8.416,8.416,0,0,0-3.862.968l-2.3-2.739a11.375,11.375,0,0,1,3.3-1.33,13.883,13.883,0,0,1,2.88-.308,4.868,4.868,0,0,0,3.457-1.419,5.354,5.354,0,0,0,1.535-3.9A15.271,15.271,0,0,0,39.552,0H37.625a1.705,1.705,0,1,0,0,3.41h1.927a11.514,11.514,0,0,1,1.484.151V6.855a8.456,8.456,0,0,0-2.8.807c-.011-.013-.025-.021-.036-.034a8.5,8.5,0,0,0-3.48,2.989l-3.881,5.821a1.709,1.709,0,0,1-1.161.739,10.75,10.75,0,0,0-8.016,5.945,13.563,13.563,0,0,1,2.328,7.569H20.461a10.381,10.381,0,1,0-.628,3.41H35.92A1.7,1.7,0,0,0,37.625,32.4a12.793,12.793,0,0,1,.335-2.874,11.636,11.636,0,0,1,2.89-5.283l2.3,2.735a8.442,8.442,0,0,0-2,5.422,8.525,8.525,0,1,0,8.525-8.525ZM10.23,37.512a6.82,6.82,0,1,1,6.82-6.82H11.935a1.706,1.706,0,0,1-1.705-1.705,1.705,1.705,0,0,0-3.41,0A5.121,5.121,0,0,0,11.935,34.1H16.1A6.8,6.8,0,0,1,10.23,37.512Zm39.444,0A5.121,5.121,0,0,1,44.559,32.4a5.068,5.068,0,0,1,.781-2.686l3,3.752a1.706,1.706,0,1,0,2.664-2.131l-3-3.748a5.049,5.049,0,0,1,1.666-.3,5.115,5.115,0,1,1,0,10.23Zm0,0" transform="translate(0 0)"/><path class="a" d="M178.347,39.7l2.921-4.382a11.882,11.882,0,0,1,3.55-3.424A11.821,11.821,0,0,0,178.491,30a11.968,11.968,0,0,0-9.94,5.347l2.727,1.637A22.754,22.754,0,0,0,178.347,39.7Zm0,0" transform="translate(-149.391 -26.59)"/><path class="a" d="M20.131,66.5,9.19,60H1.7A1.7,1.7,0,0,0,0,61.7,8.536,8.536,0,0,0,8.525,70.23c3.411,0,6.949.074,10.739,3.369.015-.027.015-.058.031-.084a14.13,14.13,0,0,1,5.331-4.935,26.138,26.138,0,0,1-4.5-2.084Zm0,0" transform="translate(0 -53.179)"/></g></svg>