<svg xmlns="http://www.w3.org/2000/svg" width="50" height="44.336" viewBox="0 0 50 44.336"><defs><style>.a{fill:#231965;}.b{fill:#fff;}</style></defs><g transform="translate(-663 -583)"><path class="a" d="M113.715,420.516h-9.473V417h-12.3v3.516H82.465a1.465,1.465,0,1,0,0,2.93h31.25a1.465,1.465,0,0,0,0-2.93Z" transform="translate(589.91 203.891)"/><path class="a" d="M45.605,29H4.395A4.4,4.4,0,0,0,0,33.395V59.566a4.4,4.4,0,0,0,4.395,4.395H45.605A4.4,4.4,0,0,0,50,59.566V33.395A4.4,4.4,0,0,0,45.605,29Z" transform="translate(663 554)"/><g transform="translate(677.416 593.58)"><g transform="translate(0 0)"><path class="b" d="M6.94,15.237V20.93H1V15.237A1.238,1.238,0,0,1,2.237,14H5.7A1.238,1.238,0,0,1,6.94,15.237Z" transform="translate(-1 -6.08)"/><path class="b" d="M14.94,11.237V20.89H9V11.237A1.238,1.238,0,0,1,10.237,10H13.7A1.238,1.238,0,0,1,14.94,11.237Z" transform="translate(-1.08 -6.04)"/><path class="b" d="M22.94,7.237V20.849H17V7.237A1.238,1.238,0,0,1,18.237,6H21.7A1.238,1.238,0,0,1,22.94,7.237Z" transform="translate(-1.161 -6)"/></g></g></g></svg>