<svg xmlns="http://www.w3.org/2000/svg" width="33.269" height="29.5" viewBox="0 0 33.269 29.5"><defs><style>.a{fill:#593cc7;}.b{fill:#fff;}</style></defs><g transform="translate(-663 -583)"><path class="a" d="M102.768,419.339h-6.3V417H88.278v2.339h-6.3a.975.975,0,0,0,0,1.949h20.793a.975.975,0,1,0,0-1.949Z" transform="translate(587.263 191.211)"/><path class="a" d="M30.345,29H2.924A2.927,2.927,0,0,0,0,31.924V49.338a2.927,2.927,0,0,0,2.924,2.924H30.345a2.927,2.927,0,0,0,2.924-2.924V31.924A2.927,2.927,0,0,0,30.345,29Z" transform="translate(663 554)"/><g transform="translate(-242.939 131.386)"><g transform="translate(915.531 458.653)"><path class="b" d="M4.952,14.823v3.788H1V14.823A.824.824,0,0,1,1.823,14H4.129A.824.824,0,0,1,4.952,14.823Z" transform="translate(-1 -8.73)"/><path class="b" d="M12.952,10.823v6.422H9V10.823A.824.824,0,0,1,9.823,10h2.305A.824.824,0,0,1,12.952,10.823Z" transform="translate(-3.73 -7.365)"/><path class="b" d="M20.952,6.823V15.88H17V6.823A.824.824,0,0,1,17.823,6h2.305A.824.824,0,0,1,20.952,6.823Z" transform="translate(-6.461 -6)"/></g></g></g></svg>