<svg xmlns="http://www.w3.org/2000/svg" width="111.056" height="22.559" viewBox="0 0 111.056 22.559">
  <g id="Group_2661" data-name="Group 2661" transform="translate(-998.498 -659.447)">
    <path id="Path_7073" data-name="Path 7073" d="M106.246,13.11h4.91v22.1h-4.91Zm11.457,22.1H112.94v-12.1l4.8-2.455V35.207ZM89.665,23.749A7.336,7.336,0,0,1,92.579,21.1a9.265,9.265,0,0,1,8.184,0,7.292,7.292,0,0,1,2.9,2.652,7.569,7.569,0,0,1,1.146,4.108,7.66,7.66,0,0,1-1.146,4.125,7.345,7.345,0,0,1-2.9,2.717,9.118,9.118,0,0,1-8.184,0,7.388,7.388,0,0,1-2.913-2.717,7.784,7.784,0,0,1-1.113-4.125,7.7,7.7,0,0,1,1.113-4.108m10.541,4.125a4.224,4.224,0,0,0-.393-1.8A3.678,3.678,0,0,0,98.635,24.7a3.569,3.569,0,0,0-1.915-.54,3.483,3.483,0,0,0-1.882.54,3.279,3.279,0,0,0-1.129,1.375,4.224,4.224,0,0,0-.393,1.8,4.379,4.379,0,0,0,.344,1.817,3.44,3.44,0,0,0,1.162,1.391,3.433,3.433,0,0,0,3.748,0,3.605,3.605,0,0,0,1.178-1.391,4.64,4.64,0,0,0,.458-1.817m-33.75-7.218v2.1a4.565,4.565,0,0,1,1.637-1.8,4.248,4.248,0,0,1,2.357-.7h.737v4.239H70.04a3.468,3.468,0,0,0-2.03.589,3.547,3.547,0,0,0-1.391,2.7v7.5H61.84V20.656Zm11.1,0v2.013a4.485,4.485,0,0,1,1.637-1.637,5.385,5.385,0,0,1,2.684-.72A5.261,5.261,0,0,1,85,21.2a4.916,4.916,0,0,1,1.637,2.21,7.7,7.7,0,0,1,.507,2.848v9.019H82.464V27.235a6.086,6.086,0,0,0-.164-1.489,2.442,2.442,0,0,0-.671-1.129,2.079,2.079,0,0,0-1.326-.442,2.459,2.459,0,0,0-1.424.442,2.775,2.775,0,0,0-.867,1.146,3.906,3.906,0,0,0-.295,1.539v7.906H72.9V20.656ZM40.087,14.518H45V35.207H39.269L30.938,21.719h-.1l.131,13.536H26.06V14.518h5.729l8.315,13.5-.1-13.5ZM47.142,22.7a8.763,8.763,0,0,1,3-1.817,9.829,9.829,0,0,1,3.486-.638,8.171,8.171,0,0,1,3.9.8,4.772,4.772,0,0,1,2.144,2.537,12.148,12.148,0,0,1,.655,4.354v7.333h-4.3v-1.6h-.164a3.661,3.661,0,0,1-1.637,1.391,5.951,5.951,0,0,1-2.439.491,6.391,6.391,0,0,1-2.373-.426A4.471,4.471,0,0,1,47.355,33.7a4.119,4.119,0,0,1-.867-2.684,3.764,3.764,0,0,1,.884-2.553,5.278,5.278,0,0,1,2.1-1.489,12.442,12.442,0,0,1,3.012-.7,24.583,24.583,0,0,1,3.274-.18v-.229A1.882,1.882,0,0,0,55,24.224a3.266,3.266,0,0,0-1.866-.507,5.075,5.075,0,0,0-1.981.442,5.406,5.406,0,0,0-1.637,1.048l-2.422-2.6Zm8.871,6.678v-.507h-.606A12.838,12.838,0,0,0,53.3,29a4.447,4.447,0,0,0-1.637.557,1.634,1.634,0,0,0-.671,1.293,1.194,1.194,0,0,0,.327.884,1.762,1.762,0,0,0,.769.475,3.386,3.386,0,0,0,.966.147,2.7,2.7,0,0,0,2.963-2.979m74.408-8.4a4.814,4.814,0,0,1,2.128,2.537,11.453,11.453,0,0,1,.655,4.354v7.333h-4.452V33.668h-.1a3.624,3.624,0,0,1-1.637,1.391,6,6,0,0,1-2.439.491,6.544,6.544,0,0,1-2.39-.426,4.568,4.568,0,0,1-2.046-1.424,4.212,4.212,0,0,1-.867-2.684,3.842,3.842,0,0,1,.884-2.553,5.325,5.325,0,0,1,2.21-1.489,12.291,12.291,0,0,1,3.012-.7,24.312,24.312,0,0,1,3.274-.18v-.229a1.928,1.928,0,0,0-.769-1.637,3.266,3.266,0,0,0-1.866-.507,5.054,5.054,0,0,0-1.964.442,5.723,5.723,0,0,0-1.637,1.048l-2.422-2.6a8.763,8.763,0,0,1,3-1.817,9.821,9.821,0,0,1,3.4-.606,8.3,8.3,0,0,1,3.9.8Zm-1.637,8.4v-.507h-.622a12.641,12.641,0,0,0-2.1.131,4.34,4.34,0,0,0-1.637.557,1.636,1.636,0,0,0-.687,1.293,1.217,1.217,0,0,0,.344.884,1.635,1.635,0,0,0,.769.475,3.274,3.274,0,0,0,.966.147,2.95,2.95,0,0,0,2.21-.818,2.912,2.912,0,0,0,.8-2.161Z" transform="translate(972.438 646.337)" fill="#ed1c24" fill-rule="evenodd"/>
    <path id="Path_7074" data-name="Path 7074" d="M79.6,15.036a2.75,2.75,0,0,1,1.964-.786,2.816,2.816,0,0,1,1.931.769,2.553,2.553,0,0,1,.106,3.609c-.034.036-.07.072-.106.106a2.849,2.849,0,0,1-3.9,0,2.572,2.572,0,0,1-.8-1.866,2.506,2.506,0,0,1,.8-1.833" transform="translate(1006.022 647.063)" fill="#1c3750" fill-rule="evenodd"/>
    <path id="Path_7075" data-name="Path 7075" d="M93.391,15.63a2.378,2.378,0,0,1,1.146.295,2.252,2.252,0,0,1,.884.867,2.363,2.363,0,0,1,.311,1.178,2.3,2.3,0,0,1-.311,1.162,2,2,0,0,1-.867.867,2.322,2.322,0,0,1-2.324,0,2.009,2.009,0,0,1-.868-.867,2.3,2.3,0,0,1-.311-1.162,2.363,2.363,0,0,1,.311-1.178,2.252,2.252,0,0,1,.884-.867,2.378,2.378,0,0,1,1.146-.295m0,.376a2.08,2.08,0,0,0-.966.262,1.63,1.63,0,0,0-.72.72,1.939,1.939,0,0,0-.278.982,2.018,2.018,0,0,0,.262.966,1.988,1.988,0,0,0,.737.737,2.031,2.031,0,0,0,1.931,0,1.988,1.988,0,0,0,.737-.737,2.011,2.011,0,0,0,.246-.966,1.916,1.916,0,0,0-.262-.982,1.63,1.63,0,0,0-.72-.72,2.08,2.08,0,0,0-.966-.262M92.359,19.28V16.743h.835a2.775,2.775,0,0,1,.638,0,.622.622,0,0,1,.327.246.642.642,0,0,1,.115.376.654.654,0,0,1-.2.475.737.737,0,0,1-.524.229.651.651,0,0,1,.213.131,3.452,3.452,0,0,1,.376.507l.311.491h-.507l-.213-.393a2.437,2.437,0,0,0-.426-.589.5.5,0,0,0-.327-.082h-.246V19.2Zm.409-1.424h.491a.88.88,0,0,0,.491-.1.345.345,0,0,0,0-.475.293.293,0,0,0-.18-.131,1.146,1.146,0,0,0-.409,0H92.7v.753Z" transform="translate(1013.823 647.942)" fill="#231f20"/>
  </g>
</svg>
