<svg xmlns="http://www.w3.org/2000/svg" xmlns:xlink="http://www.w3.org/1999/xlink" width="1366" height="768" viewBox="0 0 1366 768">
  <defs>
    <clipPath id="clip-path">
      <rect id="Rectangle_17413" data-name="Rectangle 17413" width="1366" height="768" transform="translate(-5330 5076.439)" fill="#fff"/>
    </clipPath>
    <clipPath id="clip-path-2">
      <rect id="Rectangle_6075" data-name="Rectangle 6075" width="602" height="768" fill="#441799"/>
    </clipPath>
  </defs>
  <g id="Mask_Group_246" data-name="Mask Group 246" transform="translate(5330 -5076.439)" clip-path="url(#clip-path)">
    <rect id="Rectangle_17410" data-name="Rectangle 17410" width="1366" height="768" transform="translate(-5330 5076.439)" fill="#fff"/>
    <g id="Group_22205" data-name="Group 22205" transform="translate(-5330 5080.439)">
      <circle id="Ellipse_1996" data-name="Ellipse 1996" cx="94" cy="94" r="94" transform="translate(-80 666)" fill="#f37921"/>
      <g id="Group_22203" data-name="Group 22203">
        <path id="Path_6004" data-name="Path 6004" d="M1.437,104.219c-7.793,41.154,17.054,80.905,51.4,101.531,38.851,23.327,72.33,32.778,80.429,78.378,2.618,14.743,6.931,35.552,13.706,49.018,24.9,49.5,82.718,34.79,126.128,33.748,40.753-.978,67.3,22.151,108.362,55.471.258.21,86.108,109.466,125.538,1.115,7.306-20.081,9.058-36.551,12.187-47.56,12.308-43.311,51.832-41.839,111.692-67.332,75.76-32.264,100.21-120.556,18.955-150.1-31.229-11.355-58.244-12.966-88.2-27.655-61.2-30.017-54.966-91.645-108.084-118.219C434.536.785,405.939-1.921,386.483,1.192c-74.908,11.988-104.035,41.6-158.2,25.37-18.406-5.516-41.339-16.046-68.748-20.3C88.923-4.706,13.7,39.484,1.437,104.219" transform="matrix(0.438, -0.899, 0.899, 0.438, -269.349, 151.354)" fill="#f8f9fe"/>
        <g id="Group_22194" data-name="Group 22194" transform="matrix(0.966, -0.259, 0.259, 0.966, -258.034, -4.676)">
          <g id="Group_22195" data-name="Group 22195" transform="translate(0.101 0.102)">
            <path id="Path_5957" data-name="Path 5957" d="M.083,165.006S7.517-38.2,121.63,66.717s72.965-84.2,141.421-1.617S373.5-47.086,539.062,11.138" transform="translate(-0.083 -0.084)" fill="none" stroke="#5739bc" stroke-width="0.167"/>
            <path id="Path_5958" data-name="Path 5958" d="M.164,166.519S8.8-34.247,122.338,69.933s74.218-84.925,143.736-3.045S377.207-45.778,539.168,11.179" transform="translate(-0.088 -0.111)" fill="none" stroke="#5739bc" stroke-width="0.166"/>
            <path id="Path_5959" data-name="Path 5959" d="M.244,168.031S10.09-30.3,123.045,73.148,198.518-12.5,269.1,68.676,380.911-44.471,539.273,11.221" transform="translate(-0.092 -0.138)" fill="none" stroke="#5739bc" stroke-width="0.166"/>
            <path id="Path_5960" data-name="Path 5960" d="M.324,169.544S11.377-26.345,123.753,76.364s76.726-86.372,148.369-5.9,112.493-113.627,267.256-59.2" transform="translate(-0.097 -0.164)" fill="none" stroke="#5739bc" stroke-width="0.165"/>
            <path id="Path_5961" data-name="Path 5961" d="M.405,171.055S12.663-22.4,124.461,79.578s77.981-87.1,150.686-7.329S388.32-41.859,539.485,11.3" transform="translate(-0.102 -0.19)" fill="none" stroke="#5739bc" stroke-width="0.164"/>
            <path id="Path_5962" data-name="Path 5962" d="M.485,172.566S13.949-18.446,125.167,82.792s79.235-87.819,153-8.757S392.025-40.552,539.589,11.342" transform="translate(-0.106 -0.216)" fill="none" stroke="#5739bc" stroke-width="0.164"/>
            <path id="Path_5963" data-name="Path 5963" d="M.565,174.077S15.236-14.5,125.875,86.006,206.363-2.537,281.193,75.821s114.535-115.068,258.5-64.439" transform="translate(-0.111 -0.241)" fill="none" stroke="#5739bc" stroke-width="0.163"/>
            <path id="Path_5964" data-name="Path 5964" d="M.646,175.587S16.522-10.548,126.582,89.218,208.324-.048,284.217,77.605,399.433-37.942,539.8,11.421" transform="translate(-0.115 -0.265)" fill="none" stroke="#5739bc" stroke-width="0.163"/>
            <path id="Path_5965" data-name="Path 5965" d="M.726,177.1S17.809-6.6,127.29,92.431s83-89.989,159.951-13.04,115.9-116.029,252.664-67.932" transform="translate(-0.12 -0.289)" fill="none" stroke="#5739bc" stroke-width="0.162"/>
            <path id="Path_5966" data-name="Path 5966" d="M.806,178.606S19.095-2.652,128,95.644s84.25-90.713,162.269-14.469S406.842-35.334,540.011,11.5" transform="translate(-0.125 -0.313)" fill="none" stroke="#5739bc" stroke-width="0.161"/>
            <path id="Path_5967" data-name="Path 5967" d="M.886,180.114S20.381,1.3,128.7,98.855s85.5-91.436,164.584-15.9S410.547-34.03,540.115,11.536" transform="translate(-0.129 -0.336)" fill="none" stroke="#5739bc" stroke-width="0.161"/>
            <path id="Path_5968" data-name="Path 5968" d="M.967,181.623s20.7-176.381,128.445-79.557,86.758-92.158,166.9-17.325S414.251-32.726,540.222,11.574" transform="translate(-0.134 -0.359)" fill="none" stroke="#5739bc" stroke-width="0.16"/>
            <path id="Path_5969" data-name="Path 5969" d="M1.047,183.131S22.955,9.189,130.119,105.276,218.132,12.4,299.337,86.524,417.956-31.424,540.327,11.61" transform="translate(-0.139 -0.381)" fill="none" stroke="#5739bc" stroke-width="0.16"/>
            <path id="Path_5970" data-name="Path 5970" d="M1.127,184.638s23.114-171.5,129.7-76.151,89.265-93.6,171.534-20.18,119.3-118.429,238.072-76.66" transform="translate(-0.143 -0.403)" fill="none" stroke="#5739bc" stroke-width="0.159"/>
            <path id="Path_5971" data-name="Path 5971" d="M1.208,186.145S25.527,17.081,131.534,111.7s90.52-94.329,173.851-21.609S425.365-28.82,540.538,11.683" transform="translate(-0.148 -0.424)" fill="none" stroke="#5739bc" stroke-width="0.158"/>
            <path id="Path_5972" data-name="Path 5972" d="M1.288,187.651S26.813,21.025,132.242,114.906s91.773-95.052,176.167-23.037S429.07-27.519,540.643,11.718" transform="translate(-0.152 -0.445)" fill="none" stroke="#5739bc" stroke-width="0.158"/>
            <path id="Path_5973" data-name="Path 5973" d="M1.368,189.157S28.1,24.969,132.949,118.114,225.976,22.339,311.432,93.65s121.342-119.869,229.316-81.9" transform="translate(-0.157 -0.465)" fill="none" stroke="#5739bc" stroke-width="0.157"/>
            <path id="Path_5974" data-name="Path 5974" d="M1.449,190.663s27.938-161.75,132.207-69.34,94.281-96.5,180.8-25.892,122.022-120.35,226.4-83.644" transform="translate(-0.162 -0.485)" fill="none" stroke="#5739bc" stroke-width="0.156"/>
            <path id="Path_5975" data-name="Path 5975" d="M1.529,192.167S30.673,32.857,134.364,124.531,229.9,27.309,317.48,97.21s122.7-120.83,223.479-85.389" transform="translate(-0.166 -0.504)" fill="none" stroke="#5739bc" stroke-width="0.156"/>
            <path id="Path_5976" data-name="Path 5976" d="M1.609,193.671S31.959,36.8,135.071,127.738,231.86,29.793,320.5,98.989,443.888-22.319,541.065,11.854" transform="translate(-0.171 -0.523)" fill="none" stroke="#5739bc" stroke-width="0.155"/>
            <path id="Path_5977" data-name="Path 5977" d="M1.689,195.176S33.246,40.742,135.778,130.945s98.044-98.669,187.749-30.176S447.591-21.021,541.169,11.887" transform="translate(-0.175 -0.541)" fill="none" stroke="#5739bc" stroke-width="0.155"/>
            <path id="Path_5978" data-name="Path 5978" d="M1.77,196.679S34.532,44.684,136.486,134.151s99.3-99.392,190.065-31.6S451.3-19.724,541.276,11.92" transform="translate(-0.18 -0.559)" fill="none" stroke="#5739bc" stroke-width="0.154"/>
            <path id="Path_5979" data-name="Path 5979" d="M1.85,198.182S35.819,48.626,137.194,137.357,237.744,37.242,329.576,104.324,455-18.426,541.381,11.952" transform="translate(-0.185 -0.576)" fill="none" stroke="#5739bc" stroke-width="0.153"/>
            <path id="Path_5980" data-name="Path 5980" d="M1.93,199.684S37.1,52.566,137.9,140.562,239.706,39.723,332.6,106.1,458.705-17.129,541.485,11.983" transform="translate(-0.189 -0.593)" fill="none" stroke="#5739bc" stroke-width="0.153"/>
            <path id="Path_5981" data-name="Path 5981" d="M2.011,201.185s36.38-144.679,136.6-57.42S241.668,42.2,335.624,107.878,462.411-15.833,541.592,12.013" transform="translate(-0.194 -0.609)" fill="none" stroke="#5739bc" stroke-width="0.152"/>
            <path id="Path_5982" data-name="Path 5982" d="M2.091,202.687S39.678,60.446,139.316,146.97,243.629,44.685,338.647,109.655,466.114-14.537,541.7,12.043" transform="translate(-0.199 -0.624)" fill="none" stroke="#5739bc" stroke-width="0.152"/>
            <path id="Path_5983" data-name="Path 5983" d="M2.171,204.187s38.793-139.8,137.852-54.014S245.589,47.164,341.671,111.429,469.819-13.242,541.8,12.072" transform="translate(-0.203 -0.639)" fill="none" stroke="#5739bc" stroke-width="0.151"/>
            <path id="Path_5984" data-name="Path 5984" d="M2.252,205.686s40-137.363,138.479-52.311S247.551,49.644,344.7,113.2,473.524-11.947,541.908,12.1" transform="translate(-0.208 -0.653)" fill="none" stroke="#5739bc" stroke-width="0.15"/>
            <path id="Path_5985" data-name="Path 5985" d="M2.332,207.186s41.2-134.925,139.106-50.608,108.074-104.455,206.281-41.6S477.228-10.652,542.013,12.131" transform="translate(-0.212 -0.667)" fill="none" stroke="#5739bc" stroke-width="0.15"/>
            <path id="Path_5986" data-name="Path 5986" d="M2.412,208.684S44.823,76.2,142.146,159.779,251.473,54.6,350.743,116.752,480.933-9.36,542.118,12.158" transform="translate(-0.217 -0.68)" fill="none" stroke="#5739bc" stroke-width="0.149"/>
            <path id="Path_5987" data-name="Path 5987" d="M2.493,210.183s43.616-130.048,140.359-47.2,110.582-105.9,210.914-44.456S484.637-8.066,542.223,12.185" transform="translate(-0.222 -0.692)" fill="none" stroke="#5739bc" stroke-width="0.149"/>
            <path id="Path_5988" data-name="Path 5988" d="M2.573,211.68S47.4,84.071,143.56,166.181,255.4,59.557,356.791,120.3,488.342-6.775,542.329,12.211" transform="translate(-0.226 -0.704)" fill="none" stroke="#5739bc" stroke-width="0.148"/>
            <path id="Path_5989" data-name="Path 5989" d="M2.653,213.177s46.03-125.17,141.615-43.8,113.09-107.348,215.547-47.311S492.046-5.483,542.435,12.237" transform="translate(-0.231 -0.715)" fill="none" stroke="#5739bc" stroke-width="0.147"/>
            <path id="Path_5990" data-name="Path 5990" d="M2.734,214.673S49.968,91.941,144.974,172.58,259.318,64.508,362.838,123.841,495.751-4.191,542.539,12.263" transform="translate(-0.236 -0.726)" fill="none" stroke="#5739bc" stroke-width="0.147"/>
            <path id="Path_5991" data-name="Path 5991" d="M2.814,216.169s48.441-120.293,142.869-40.39,115.6-108.795,220.18-50.168S499.456-2.9,542.646,12.287" transform="translate(-0.24 -0.736)" fill="none" stroke="#5739bc" stroke-width="0.146"/>
            <path id="Path_5992" data-name="Path 5992" d="M2.894,217.663s49.648-117.854,143.5-38.687,116.852-109.518,222.5-51.6S503.16-1.612,542.75,12.312" transform="translate(-0.245 -0.745)" fill="none" stroke="#5739bc" stroke-width="0.146"/>
            <path id="Path_5993" data-name="Path 5993" d="M2.974,219.158S53.828,103.741,147.1,182.173,265.2,71.932,371.91,129.15,506.865-.323,542.856,12.334" transform="translate(-0.249 -0.754)" fill="none" stroke="#5739bc" stroke-width="0.145"/>
            <path id="Path_5994" data-name="Path 5994" d="M3.055,220.651s52.059-112.978,144.75-35.282S267.165,74.4,374.934,130.918,510.569.965,542.962,12.356" transform="translate(-0.254 -0.762)" fill="none" stroke="#5739bc" stroke-width="0.144"/>
            <path id="Path_5995" data-name="Path 5995" d="M3.135,222.144S56.4,111.605,148.512,188.565,269.126,76.878,377.958,132.686,514.274,2.253,543.067,12.379" transform="translate(-0.259 -0.769)" fill="none" stroke="#5739bc" stroke-width="0.144"/>
            <path id="Path_5996" data-name="Path 5996" d="M3.215,223.636s54.472-108.1,146-31.876S271.086,79.349,380.981,134.453,517.978,3.54,543.172,12.4" transform="translate(-0.263 -0.775)" fill="none" stroke="#5739bc" stroke-width="0.143"/>
            <path id="Path_5997" data-name="Path 5997" d="M3.3,225.127s55.678-105.662,146.631-30.173S273.048,81.819,384.006,136.219,521.683,4.825,543.278,12.42" transform="translate(-0.268 -0.781)" fill="none" stroke="#5739bc" stroke-width="0.143"/>
            <path id="Path_5998" data-name="Path 5998" d="M3.376,226.619s56.885-103.224,147.259-28.471S275.009,84.29,387.03,137.985,525.387,6.111,543.383,12.44" transform="translate(-0.273 -0.786)" fill="none" stroke="#5739bc" stroke-width="0.142"/>
            <path id="Path_5999" data-name="Path 5999" d="M3.456,228.108s58.09-100.785,147.886-26.768S276.97,86.759,390.053,139.75,529.091,7.4,543.488,12.459" transform="translate(-0.277 -0.791)" fill="none" stroke="#5739bc" stroke-width="0.141"/>
            <path id="Path_6002" data-name="Path 6002" d="M3.7,232.573S65.406,139.1,153.464,210.915,282.854,94.164,399.124,145.039,540.2,11.245,543.8,12.511" transform="translate(-0.291 -0.799)" fill="none" stroke="#5739bc" stroke-width="0.139"/>
          </g>
        </g>
      </g>
      <g id="Group_22202" data-name="Group 22202">
        <path id="Path_6005" data-name="Path 6005" d="M.963,69.826C-4.258,97.4,12.389,124.032,35.4,137.851c26.03,15.629,48.461,21.961,53.887,52.513,1.754,9.878,4.644,23.82,9.183,32.842,16.684,33.165,55.421,23.309,84.5,22.611,27.3-.655,45.092,14.841,72.6,37.165.173.141,57.692,73.342,84.11.747,4.895-13.454,6.069-24.489,8.165-31.865,8.246-29.018,34.727-28.032,74.833-45.112,50.759-21.617,67.14-80.772,12.7-100.564C414.465,98.58,396.365,97.5,376.3,87.659c-41.007-20.111-36.827-61.4-72.416-79.206C291.137.526,271.977-1.287,258.942.8c-50.188,8.032-69.7,27.874-106,17-12.332-3.7-27.7-10.751-46.061-13.6C59.578-3.153,9.177,26.454.963,69.826" transform="matrix(-0.588, 0.809, -0.809, -0.588, 1596.826, 703.946)" fill="#f8f9fe"/>
        <g id="Group_22198" data-name="Group 22198" transform="matrix(-0.891, 0.454, -0.454, -0.891, 1596.961, 741.437)">
          <g id="Group_22195-2" data-name="Group 22195" transform="translate(0.101 0.102)">
            <path id="Path_5957-2" data-name="Path 5957" d="M.083,152.467S6.952-35.287,112.389,61.651s67.418-77.8,130.668-1.494S345.11-43.5,498.084,10.3" transform="translate(-0.083 -0.084)" fill="none" stroke="#5739bc" stroke-width="0.167"/>
            <path id="Path_5958-2" data-name="Path 5958" d="M.164,153.9S8.147-31.6,113.05,64.659s68.576-78.468,132.808-2.813,102.683-104.1,252.33-51.474" transform="translate(-0.093 -0.145)" fill="none" stroke="#5739bc" stroke-width="0.166"/>
            <path id="Path_5959-2" data-name="Path 5959" d="M.244,155.333s9.1-183.249,113.465-87.669,69.735-79.137,134.949-4.133S351.969-41.013,498.291,10.445" transform="translate(-0.104 -0.205)" fill="none" stroke="#5739bc" stroke-width="0.166"/>
            <path id="Path_5960-2" data-name="Path 5960" d="M.324,156.766s10.212-181,114.045-86.1,70.893-79.805,137.089-5.453S355.4-39.77,498.394,10.519" transform="translate(-0.114 -0.264)" fill="none" stroke="#5739bc" stroke-width="0.165"/>
            <path id="Path_5961-2" data-name="Path 5961" d="M.405,158.2S11.731-20.546,115.029,73.674,187.08-6.8,254.258,66.9,358.827-38.529,498.5,10.59" transform="translate(-0.125 -0.323)" fill="none" stroke="#5739bc" stroke-width="0.164"/>
            <path id="Path_5962-2" data-name="Path 5962" d="M.485,159.626s12.441-176.489,115.2-82.949S188.9-4.465,257.058,68.586,362.256-37.289,498.6,10.66" transform="translate(-0.135 -0.38)" fill="none" stroke="#5739bc" stroke-width="0.164"/>
            <path id="Path_5963-2" data-name="Path 5963" d="M.565,161.055S14.12-13.181,116.348,79.68s74.369-81.81,143.51-9.41S365.684-36.049,498.7,10.73" transform="translate(-0.145 -0.436)" fill="none" stroke="#5739bc" stroke-width="0.163"/>
            <path id="Path_5964-2" data-name="Path 5964" d="M.646,162.483S15.315-9.5,117.007,82.681,192.535.2,262.658,71.951,369.114-34.812,498.808,10.8" transform="translate(-0.156 -0.491)" fill="none" stroke="#5739bc" stroke-width="0.163"/>
            <path id="Path_5965-2" data-name="Path 5965" d="M.726,163.909S16.51-5.821,117.668,85.681s76.686-83.147,147.79-12.049S372.543-33.575,498.912,10.865" transform="translate(-0.166 -0.545)" fill="none" stroke="#5739bc" stroke-width="0.162"/>
            <path id="Path_5966-2" data-name="Path 5966" d="M.806,165.336S17.7-2.141,118.327,88.681,196.172,4.865,268.258,75.312,375.972-32.339,499.016,10.933" transform="translate(-0.176 -0.598)" fill="none" stroke="#5739bc" stroke-width="0.161"/>
            <path id="Path_5967-2" data-name="Path 5967" d="M.886,166.76S18.9,1.537,118.987,91.679s79-84.484,152.071-14.688S379.4-31.1,499.118,11" transform="translate(-0.187 -0.65)" fill="none" stroke="#5739bc" stroke-width="0.161"/>
            <path id="Path_5968-2" data-name="Path 5968" d="M.967,168.184S20.094,5.214,119.647,94.676,199.809,9.524,273.858,78.668,382.83-29.869,499.223,11.064" transform="translate(-0.197 -0.701)" fill="none" stroke="#5739bc" stroke-width="0.16"/>
            <path id="Path_5969-2" data-name="Path 5969" d="M1.047,169.606S21.289,8.889,120.306,97.671s81.321-85.819,156.353-17.327,109.6-108.981,222.668-69.218" transform="translate(-0.208 -0.751)" fill="none" stroke="#5739bc" stroke-width="0.16"/>
            <path id="Path_5970-2" data-name="Path 5970" d="M1.127,171.028S22.483,12.563,120.966,100.666,203.444,14.178,279.458,82.02,389.688-27.4,499.429,11.188" transform="translate(-0.218 -0.8)" fill="none" stroke="#5739bc" stroke-width="0.159"/>
            <path id="Path_5971-2" data-name="Path 5971" d="M1.208,172.449S23.678,16.238,121.626,103.66,205.263,16.5,282.259,83.695,393.117-26.173,499.533,11.25" transform="translate(-0.228 -0.848)" fill="none" stroke="#5739bc" stroke-width="0.158"/>
            <path id="Path_5972-2" data-name="Path 5972" d="M1.288,173.868s23.585-153.958,121-67.215,84.8-87.825,162.773-21.285S396.546-24.944,499.636,11.311" transform="translate(-0.239 -0.895)" fill="none" stroke="#5739bc" stroke-width="0.158"/>
            <path id="Path_5973-2" data-name="Path 5973" d="M1.368,175.285s24.7-151.7,121.577-65.641S208.9,21.151,287.858,87.04,399.975-23.716,499.74,11.369" transform="translate(-0.249 -0.94)" fill="none" stroke="#5739bc" stroke-width="0.157"/>
            <path id="Path_5974-2" data-name="Path 5974" d="M1.449,176.7S27.263,27.251,123.6,112.635s87.113-89.161,167.053-23.923S403.4-22.488,499.843,11.428" transform="translate(-0.26 -0.985)" fill="none" stroke="#5739bc" stroke-width="0.156"/>
            <path id="Path_5975-2" data-name="Path 5975" d="M1.529,178.119s26.929-147.2,122.736-62.494,88.272-89.83,169.194-25.244,113.374-111.643,206.488-78.9" transform="translate(-0.27 -1.028)" fill="none" stroke="#5739bc" stroke-width="0.156"/>
            <path id="Path_5976-2" data-name="Path 5976" d="M1.609,179.533S29.651,34.587,124.924,118.612s89.431-90.5,171.335-26.563,114-112.085,203.791-80.51" transform="translate(-0.28 -1.07)" fill="none" stroke="#5739bc" stroke-width="0.155"/>
            <path id="Path_5977-2" data-name="Path 5977" d="M1.689,180.947S30.847,38.255,125.584,121.6s90.59-91.167,173.475-27.882S413.69-18.813,500.153,11.594" transform="translate(-0.291 -1.111)" fill="none" stroke="#5739bc" stroke-width="0.155"/>
            <path id="Path_5978-2" data-name="Path 5978" d="M1.77,182.359S32.041,41.92,126.244,124.585s91.748-91.836,175.615-29.2S417.12-17.591,500.257,11.647" transform="translate(-0.301 -1.15)" fill="none" stroke="#5739bc" stroke-width="0.154"/>
            <path id="Path_5979-2" data-name="Path 5979" d="M1.85,183.771S33.236,45.585,126.9,127.57s92.906-92.5,177.755-30.521S420.549-16.369,500.361,11.7" transform="translate(-0.311 -1.189)" fill="none" stroke="#5739bc" stroke-width="0.153"/>
            <path id="Path_5980-2" data-name="Path 5980" d="M1.93,185.18s32.5-135.932,125.633-54.627,94.065-93.172,179.9-31.841S423.977-15.148,500.463,11.75" transform="translate(-0.322 -1.226)" fill="none" stroke="#5739bc" stroke-width="0.153"/>
            <path id="Path_5981-2" data-name="Path 5981" d="M2.011,186.588s33.614-133.68,126.212-53.054,95.224-93.839,182.037-33.159S427.407-13.93,500.568,11.8" transform="translate(-0.332 -1.262)" fill="none" stroke="#5739bc" stroke-width="0.152"/>
            <path id="Path_5982-2" data-name="Path 5982" d="M2.091,188S36.82,56.57,128.883,136.515s96.382-94.508,184.176-34.478S430.835-12.712,500.671,11.847" transform="translate(-0.342 -1.296)" fill="none" stroke="#5739bc" stroke-width="0.152"/>
            <path id="Path_5983-2" data-name="Path 5983" d="M2.171,189.4S38.014,60.228,129.542,139.494s97.54-95.177,186.318-35.8,118.4-115.192,184.915-91.8" transform="translate(-0.353 -1.329)" fill="none" stroke="#5739bc" stroke-width="0.151"/>
            <path id="Path_5984-2" data-name="Path 5984" d="M2.252,190.806S39.21,63.887,130.2,142.472s98.7-95.845,188.457-37.117S437.694-10.281,500.879,11.94" transform="translate(-0.363 -1.362)" fill="none" stroke="#5739bc" stroke-width="0.15"/>
            <path id="Path_5985-2" data-name="Path 5985" d="M2.332,192.21S40.4,67.543,130.862,145.45s99.857-96.513,190.6-38.437S441.122-9.066,500.981,11.984" transform="translate(-0.374 -1.392)" fill="none" stroke="#5739bc" stroke-width="0.15"/>
            <path id="Path_5986-2" data-name="Path 5986" d="M2.412,193.612S41.6,71.2,131.522,148.425s101.015-97.181,192.738-39.756S444.551-7.855,501.085,12.027" transform="translate(-0.384 -1.422)" fill="none" stroke="#5739bc" stroke-width="0.149"/>
            <path id="Path_5987-2" data-name="Path 5987" d="M2.493,195.013S42.793,74.852,132.181,151.4s102.174-97.85,194.878-41.076S447.98-6.643,501.188,12.069" transform="translate(-0.394 -1.449)" fill="none" stroke="#5739bc" stroke-width="0.149"/>
            <path id="Path_5988-2" data-name="Path 5988" d="M2.573,196.412S43.989,78.5,132.841,154.372s103.333-98.518,197.019-42.4S451.409-5.434,501.292,12.108" transform="translate(-0.405 -1.476)" fill="none" stroke="#5739bc" stroke-width="0.148"/>
            <path id="Path_5989-2" data-name="Path 5989" d="M2.653,197.809S45.183,82.155,133.5,157.343,237.992,58.156,332.66,113.628,454.838-4.226,501.4,12.146" transform="translate(-0.415 -1.501)" fill="none" stroke="#5739bc" stroke-width="0.147"/>
            <path id="Path_5990-2" data-name="Path 5990" d="M2.734,199.206s43.643-113.4,131.426-38.893,105.65-99.855,201.3-45.034S458.267-3.019,501.5,12.185" transform="translate(-0.426 -1.525)" fill="none" stroke="#5739bc" stroke-width="0.147"/>
            <path id="Path_5991-2" data-name="Path 5991" d="M2.814,200.6S47.572,89.453,134.821,163.281,241.629,62.758,338.26,116.928,461.7-1.814,501.6,12.22" transform="translate(-0.436 -1.547)" fill="none" stroke="#5739bc" stroke-width="0.146"/>
            <path id="Path_5992-2" data-name="Path 5992" d="M2.894,201.994S48.767,93.1,135.48,166.248,243.447,65.057,341.06,118.575,465.125-.61,501.705,12.255" transform="translate(-0.446 -1.568)" fill="none" stroke="#5739bc" stroke-width="0.146"/>
            <path id="Path_5993-2" data-name="Path 5993" d="M2.974,203.386S49.962,96.745,136.139,169.213,245.265,67.354,343.86,120.222,468.554.592,501.809,12.287" transform="translate(-0.457 -1.587)" fill="none" stroke="#5739bc" stroke-width="0.145"/>
            <path id="Path_5994-2" data-name="Path 5994" d="M3.055,204.776s48.1-104.389,133.745-32.6S247.084,69.649,346.66,121.866,471.983,1.793,501.913,12.318" transform="translate(-0.467 -1.605)" fill="none" stroke="#5739bc" stroke-width="0.144"/>
            <path id="Path_5995-2" data-name="Path 5995" d="M3.135,206.166s49.216-102.135,134.324-31.026,111.444-103.2,212-51.63S475.412,2.993,502.016,12.348" transform="translate(-0.477 -1.621)" fill="none" stroke="#5739bc" stroke-width="0.144"/>
            <path id="Path_5996-2" data-name="Path 5996" d="M3.215,207.553s50.33-99.882,134.9-29.453S250.72,74.235,352.26,125.15,478.841,4.19,502.119,12.376" transform="translate(-0.488 -1.636)" fill="none" stroke="#5739bc" stroke-width="0.143"/>
            <path id="Path_5997-2" data-name="Path 5997" d="M3.3,208.938s51.445-97.629,135.483-27.879S252.539,76.525,355.06,126.79,482.27,5.385,502.223,12.4" transform="translate(-0.498 -1.649)" fill="none" stroke="#5739bc" stroke-width="0.143"/>
            <path id="Path_5998-2" data-name="Path 5998" d="M3.376,210.323s52.56-95.376,136.063-26.306,114.918-105.2,218.422-55.589S485.7,6.58,502.327,12.428" transform="translate(-0.509 -1.66)" fill="none" stroke="#5739bc" stroke-width="0.142"/>
            <path id="Path_5999-2" data-name="Path 5999" d="M3.456,211.7S57.129,118.582,140.1,186.972,256.175,81.1,360.66,130.064,489.127,7.773,502.43,12.451" transform="translate(-0.519 -1.67)" fill="none" stroke="#5739bc" stroke-width="0.141"/>
            <path id="Path_6002-2" data-name="Path 6002" d="M3.7,215.842s57.017-86.363,138.38-20.012S261.63,87.955,369.06,134.963,499.414,11.341,502.74,12.51" transform="translate(-0.55 -1.689)" fill="none" stroke="#5739bc" stroke-width="0.139"/>
          </g>
        </g>
      </g>
    </g>
  </g>
</svg>
