<svg xmlns="http://www.w3.org/2000/svg" width="71.074" height="66.552" viewBox="0 0 71.074 66.552"><defs><style>.a{fill:#2d6db5;}</style></defs><g transform="translate(0 0.001)"><path class="a" d="M53.166,76.393V18.368a2.082,2.082,0,0,0-2.082-2.082h-49A2.082,2.082,0,0,0,0,18.368v53.86A10.423,10.423,0,0,0,10.411,82.639H55.254A10.357,10.357,0,0,1,53.166,76.393ZM11.105,56.265h6.663a2.082,2.082,0,1,1,0,4.164H11.105a2.082,2.082,0,0,1,0-4.164Zm-2.082-6.8a2.082,2.082,0,0,1,2.082-2.082h6.663a2.082,2.082,0,1,1,0,4.164H11.105A2.082,2.082,0,0,1,9.023,49.463ZM42.2,72.645H11.105a2.082,2.082,0,1,1,0-4.164H42.2a2.082,2.082,0,1,1,0,4.164Zm2.082-10.966A2.082,2.082,0,0,1,42.2,63.761H26.652a2.082,2.082,0,0,1-2.082-2.082V46.131a2.082,2.082,0,0,1,2.082-2.082H42.2a2.082,2.082,0,0,1,2.082,2.082ZM42.2,39.329H11.105a2.082,2.082,0,1,1,0-4.164H42.2a2.082,2.082,0,0,1,0,4.164Zm0-8.884H11.105a2.082,2.082,0,1,1,0-4.164H42.2a2.082,2.082,0,1,1,0,4.164Z" transform="translate(0 -16.287)"/><path class="a" d="M207,246.286h11.383v11.383H207Z" transform="translate(-178.265 -214.36)"/><path class="a" d="M424.653,120.286h-11.66c0,47.182-.007,45.671.012,45.671a6.871,6.871,0,0,0,13.723-.153c.011,0,.007,1.04.007-43.436a2.082,2.082,0,0,0-2.082-2.082Z" transform="translate(-355.662 -105.85)"/></g></svg>