<svg xmlns="http://www.w3.org/2000/svg" width="13.28" height="14.975" viewBox="0 0 13.28 14.975"><defs><style>.a{fill:#f37921;}</style></defs><g transform="translate(-28.915)"><path class="a" d="M430.047,88.291H428.9l.009,12.382h.4a1.172,1.172,0,0,0,1.172-1.172V88.73a.437.437,0,0,0-.437-.439Z" transform="translate(-388.29 -85.708)"/><g transform="translate(28.915)"><path class="a" d="M111.931,276.11h2.913V278.7h-2.913Z" transform="translate(-109.505 -268.034)"/><path class="a" d="M39.733.437A.437.437,0,0,0,39.3,0H29.352a.437.437,0,0,0-.437.437V13.552a1.423,1.423,0,0,0,1.426,1.423l9.405-.01Zm-9.267,7.2A.437.437,0,0,1,30.9,7.2h3.79a.437.437,0,0,1,.437.437v3.47a.437.437,0,0,1-.437.437H30.9a.437.437,0,0,1-.437-.437Zm4.92,5.667H30.913a.439.439,0,1,1,0-.877h4.471a.439.439,0,0,1,0,.877ZM34.077,6.286H30.9a.439.439,0,1,1,0-.877h3.175a.439.439,0,1,1,0,.877Zm2.292-1.755H30.9a.439.439,0,1,1,0-.877h5.466a.439.439,0,0,1,0,.877Zm1.385-1.755H30.9a.439.439,0,1,1,0-.877h6.851a.439.439,0,0,1,0,.877Z" transform="translate(-28.915 0)"/></g></g></svg>