<svg xmlns="http://www.w3.org/2000/svg" width="73.999" height="69.059" viewBox="0 0 73.999 69.059"><defs><style>.a,.b{fill:#593cc7;}.c,.e{fill:#fff;}.c{stroke:#fff;stroke-width:0.6px;}.d,.e{stroke:none;}</style></defs><g transform="translate(-158.201 -8.45)"><path class="a" d="M174.007,24.6h12.714a1.921,1.921,0,0,0,1.535-.776,19.99,19.99,0,0,0,4.185-12.193V10.357a1.907,1.907,0,0,0-1.9-1.907c-3.534,0-8.139,2.288-10.171,3.4-2.036-1.113-6.64-3.4-10.172-3.4a1.907,1.907,0,0,0-1.908,1.907h0v1.271a20,20,0,0,0,4.185,12.193A1.922,1.922,0,0,0,174.007,24.6Z"/><path class="a" d="M198.758,45.157A29.674,29.674,0,0,1,202.481,57.9c.014.341.045.679.045,1.022v.137a14.53,14.53,0,0,1-2.138,7.428,13.878,13.878,0,0,1-2.046,3,12.545,12.545,0,0,1-9.6,4.022H171.98a12.547,12.547,0,0,1-9.6-4.022,13.914,13.914,0,0,1-2.046-3,14.52,14.52,0,0,1-2.137-7.428v-.137c0-.343.03-.681.045-1.022a29.673,29.673,0,0,1,3.722-12.745,56.11,56.11,0,0,1,6.5-9.43c1.973-2.364,4.076-4.615,6.17-6.749A1.9,1.9,0,0,1,176,28.411h8.727a1.9,1.9,0,0,1,1.357.567c2.094,2.134,4.2,4.385,6.171,6.749A61.152,61.152,0,0,1,198.758,45.157Z"/><g class="b"><path class="d" d="M 207.4779663085938 75.50860595703125 C 207.4776153564453 75.50860595703125 207.4776611328125 75.50860595703125 207.4773101806641 75.50860595703125 C 204.3459930419922 75.50852966308594 201.3076477050781 74.88162994384766 198.4466705322266 73.64533996582031 C 195.4821472167969 72.36431121826172 192.8704528808594 70.49533843994141 190.6841125488281 68.09033966064453 C 188.6234130859375 65.82357025146484 187.0669097900391 63.21899032592773 186.0578308105469 60.34894943237305 C 185.0834350585938 57.57752990722656 184.6589813232422 54.67855072021484 184.7962951660156 51.73250961303711 C 184.9336547851563 48.78520965576172 185.6263732910156 45.93891906738281 186.8552093505859 43.27270889282227 C 188.1286010742188 40.50983047485352 189.9236907958984 38.06398010253906 192.1906433105469 36.00312042236328 C 196.3623504638672 32.2186393737793 201.7889099121094 30.12306976318359 207.4722290039063 30.10101890563965 L 207.4761199951172 30.10099792480469 L 207.4799957275391 30.10099792480469 C 209.7378692626953 30.10099792480469 211.9953308105469 30.43728828430176 214.1896514892578 31.10053825378418 L 214.1999664306641 31.10365867614746 L 214.2102508544922 31.10688972473145 C 222.1033172607422 33.58577728271484 228.0549926757813 40.14073944091797 229.7426910400391 48.21373748779297 L 229.7450561523438 48.22513961791992 L 229.747314453125 48.23655700683594 C 230.0473937988281 49.76036834716797 230.1996917724609 51.29412078857422 230.1999969482422 52.79549407958984 C 230.2110290527344 55.97911834716797 229.5616760253906 59.07119750976563 228.2699279785156 61.98545837402344 C 226.9829711914063 64.888916015625 225.1325073242188 67.44954681396484 222.7699737548828 69.59622192382813 C 218.5767822265625 73.40865325927734 213.1455993652344 75.50860595703125 207.4779663085938 75.50860595703125 Z"/><path class="e" d="M 207.4799957275391 32.10099792480469 C 202.3260040283203 32.12100219726563 197.3390045166016 34.03301239013672 193.5359954833984 37.48300170898438 C 185.0769958496094 45.17300033569336 184.4739990234375 58.2859992980957 192.1640014648438 66.7449951171875 C 196.2431488037109 71.23211669921875 201.8497314453125 73.50860595703125 207.4773712158203 73.50860595703125 C 212.4575653076172 73.50860595703125 217.4541168212891 71.726318359375 221.4250030517578 68.11599731445313 C 225.7480010986328 64.18800354003906 228.2209930419922 58.63999938964844 228.1999969482422 52.79999923706055 C 228.1999969482422 51.40699768066406 228.0549926757813 49.99399948120117 227.7850036621094 48.62299728393555 C 226.2469940185547 41.26599884033203 220.822998046875 35.27999877929688 213.6109924316406 33.01499938964844 C 211.6159973144531 32.41200256347656 209.5590057373047 32.10099792480469 207.4799957275391 32.10099792480469 M 207.4722290039063 28.10099792480469 L 207.4799957275391 28.10099792480469 C 209.9340515136719 28.10099792480469 212.3861999511719 28.46607208251953 214.768310546875 29.18608093261719 L 214.7889404296875 29.19232177734375 L 214.8095092773438 29.19877624511719 C 223.3924865722656 31.89434814453125 229.8647003173828 39.02363586425781 231.7003631591797 47.80447769165039 L 231.7051239013672 47.82727813720703 L 231.7096252441406 47.85012817382813 C 232.0346221923828 49.50039291381836 232.1995849609375 51.16382217407227 232.1999969482422 52.79412078857422 C 232.2113189697266 56.25929260253906 231.5042419433594 59.62416839599609 230.0983581542969 62.7959098815918 C 228.6979064941406 65.9554443359375 226.6847839355469 68.74140930175781 224.1149444580078 71.07643890380859 C 219.5531768798828 75.22398376464844 213.6441802978516 77.50860595703125 207.4773712158203 77.50860595703125 C 204.0716094970703 77.50860595703125 200.7662963867188 76.82653045654297 197.6532897949219 75.48130798339844 C 194.4259185791016 74.086669921875 191.5832366943359 72.05261993408203 189.2042236328125 69.4356689453125 C 186.9627075195313 66.97000122070313 185.269287109375 64.13597106933594 184.1710510253906 61.0123291015625 C 183.1109161376953 57.99709701538086 182.6491088867188 54.84358978271484 182.7984466552734 51.63940048217773 C 182.9478759765625 48.43348693847656 183.70166015625 45.33687973022461 185.0388488769531 42.43556213378906 C 186.4251556396484 39.42766571044922 188.3787384033203 36.76557922363281 190.8453063964844 34.52323913574219 C 193.1048889160156 32.473388671875 195.7005462646484 30.87620544433594 198.5632476806641 29.77321624755859 C 201.4122924804688 28.67549896240234 204.4070892333984 28.11289215087891 207.4644775390625 28.10102844238281 L 207.4722290039063 28.10099792480469 Z"/></g><path class="c" d="M212.23,49.907h-1.042a4.676,4.676,0,0,0-.877-1.9h1.924a.949.949,0,0,0,.059-1.9h-9.556a.949.949,0,0,0-.06,1.9h3.86a2.843,2.843,0,0,1,2.673,1.9h-6.47a.949.949,0,0,0-.059,1.9h6.529a2.843,2.843,0,0,1-2.673,1.9h-3.8a.949.949,0,0,0-.877,1.312.9.9,0,0,0,.208.309l7.591,7.592a.95.95,0,0,0,1.392-1.293l-.048-.047L205.033,55.6h1.5a4.751,4.751,0,0,0,4.65-3.8h1.047a.949.949,0,0,0,.059-1.9.579.579,0,0,0-.059,0Z"/></g></svg>