<svg xmlns="http://www.w3.org/2000/svg" xmlns:xlink="http://www.w3.org/1999/xlink" width="33.046" height="45" viewBox="0 0 33.046 45">
  <defs>
    <clipPath id="clip-path">
      <rect id="Rectangle_2235" data-name="Rectangle 2235" width="33.046" height="45" fill="#6e8cd1"/>
    </clipPath>
    <clipPath id="clip-path-2">
      <rect id="Rectangle_2280" data-name="Rectangle 2280" width="6.015" height="8.617" fill="#6e8cd1" stroke="#6e8cd1" stroke-width="0.2"/>
    </clipPath>
  </defs>
  <g id="Group_10599" data-name="Group 10599" transform="translate(-422 -867)">
    <g id="Group_2332" data-name="Group 2332" transform="translate(422 867)">
      <g id="Group_2331" data-name="Group 2331" transform="translate(0 0)" clip-path="url(#clip-path)">
        <path id="Path_4021" data-name="Path 4021" d="M0,34.073C0,45,8.4,45,16.523,45s16.523,0,16.523-10.927c0-7.94-4.7-16.644-11.558-19.589l.311-.423,8.142,3.967a.593.593,0,0,0,.786-.807l-1.178-2.268,2.035-.665a.593.593,0,0,0-.028-1.136l-7.575-2.06,2.391-3.251a1.222,1.222,0,0,0,.169-1.076c-.328-1.141-2.058-2.2-3.567-2.814A12.32,12.32,0,0,0,20.53,3.24l.042-.25a.592.592,0,0,0,.008-.1C20.58,1.271,18.8,0,16.523,0s-4.058,1.271-4.058,2.893a.605.605,0,0,0,.008.1l.042.249a12.337,12.337,0,0,0-2.443.711C8.562,4.564,6.832,5.624,6.5,6.765a1.227,1.227,0,0,0,.171,1.08l2.388,3.247-7.575,2.06a.593.593,0,0,0-.028,1.136l2.035.665L2.318,17.222a.593.593,0,0,0,.786.807l8.142-3.967.311.423C4.7,17.429,0,26.134,0,34.073m29.331-20.3-.815.266a.593.593,0,0,0-.343.837l.674,1.3-6.335-3.087.715-.973Zm-9-9.366a11.085,11.085,0,0,1,2.192.641c2.12.859,2.921,1.85,2.886,2.092l-5.082,6.912a12.618,12.618,0,0,0-1.54-.393ZM16.523,1.186c1.532,0,2.83.758,2.87,1.663L17.616,13.5c-.361-.033-.725-.055-1.094-.055s-.73.022-1.091.054L13.652,2.85c.04-.906,1.338-1.663,2.87-1.663M4.2,16.176l.674-1.3a.593.593,0,0,0-.343-.837l-.815-.266,6.1-1.659.715.973Zm6.324-5.1,0,0L7.635,7.15c-.039-.25.763-1.24,2.882-2.1A11.045,11.045,0,0,1,12.71,4.41l1.547,9.252a12.539,12.539,0,0,0-1.543.393Zm2.1,4.252a.6.6,0,0,0,.094-.031,11.215,11.215,0,0,1,7.618,0,.657.657,0,0,0,.073.024c6.758,2.45,11.449,10.988,11.449,18.751,0,9.085-5.794,9.741-15.336,9.741S1.186,43.159,1.186,34.073c0-7.759,4.687-16.294,11.44-18.748" transform="translate(0 0)" fill="#6e8cd1"/>
        <path id="Path_4022" data-name="Path 4022" d="M21.417,53.864a9.389,9.389,0,1,0-9.389-9.389,9.4,9.4,0,0,0,9.389,9.389m0-17.593a8.2,8.2,0,1,1-8.2,8.2,8.213,8.213,0,0,1,8.2-8.2" transform="translate(-4.895 -14.278)" fill="#6e8cd1"/>
      </g>
    </g>
    <g id="Group_10355" data-name="Group 10355" transform="translate(435.646 893.489)">
      <g id="Group_10351" data-name="Group 10351" clip-path="url(#clip-path-2)">
        <path id="Path_5853" data-name="Path 5853" d="M5.621,2.1H4.172a2.449,2.449,0,0,0-.363-.949A2.677,2.677,0,0,0,3.526.789H4.978c.212,0,.424,0,.634,0h.009A.4.4,0,0,0,6.015.4.4.4,0,0,0,5.621,0H1.038C.826,0,.614,0,.4,0H.395A.4.4,0,0,0,0,.4.434.434,0,0,0,.043.564a.417.417,0,0,0,.05.08L.119.672A.381.381,0,0,0,.395.789H1.64A2.981,2.981,0,0,1,1.94.8a2.12,2.12,0,0,1,.422.114,2.168,2.168,0,0,1,.4.233,2.169,2.169,0,0,1,.3.3,2.167,2.167,0,0,1,.233.4,2.136,2.136,0,0,1,.08.255H1.038c-.212,0-.424,0-.634,0H.395a.394.394,0,1,0,0,.788H3.369a2.136,2.136,0,0,1-.079.252,2.168,2.168,0,0,1-.233.4,2.17,2.17,0,0,1-.3.3,2.168,2.168,0,0,1-.4.233,2.12,2.12,0,0,1-.423.114,4.732,4.732,0,0,1-.48.012H.644a.4.4,0,0,0-.394.394c0,.092,0,.183,0,.275a.42.42,0,0,0,.135.3l.189.175.825.766L2.492,7.125l.985.916c.163.152.324.3.488.454l.007.006a.414.414,0,0,0,.279.115A.4.4,0,0,0,4.53,8.5a.394.394,0,0,0,.115-.279.407.407,0,0,0-.116-.276L4.17,7.613l-.862-.8L2.268,5.844l-.9-.838-.023-.022c.156,0,.312,0,.468,0a2.519,2.519,0,0,0,2.1-1.325,2.569,2.569,0,0,0,.259-.769h.8c.212,0,.424,0,.634,0h.009a.394.394,0,0,0,0-.788" transform="translate(0 0)" fill="#6e8cd1" stroke="#6e8cd1" stroke-width="0.2"/>
      </g>
    </g>
  </g>
</svg>
