<svg xmlns="http://www.w3.org/2000/svg" width="62.192" height="69.958" viewBox="0 0 62.192 69.958"><defs><style>.a{fill:#593cc7;}.b{fill:#fff;stroke:#fff;stroke-width:0.6px;}</style></defs><g transform="translate(-493.565 -6)"><path class="a" d="M555.57,23.49h-7.287a2.185,2.185,0,0,0-1.545,3.731l1.889,1.889-2.836,2.617L542.08,29.6a2.179,2.179,0,0,0-2.629.356l-7.287,7.287a2.186,2.186,0,1,0,3.089,3.093l6.107-6.107,3.65,2.087a2.183,2.183,0,0,0,2.568-.291l4.142-3.822,2.3,2.3a2.189,2.189,0,0,0,3.734-1.548V25.676a2.187,2.187,0,0,0-2.187-2.186Z" transform="translate(-2 3)"/><path class="a" d="M513.124,23.363h13.671a2.064,2.064,0,0,0,1.651-.834,21.507,21.507,0,0,0,4.5-13.111V8.051A2.051,2.051,0,0,0,530.9,6c-3.8,0-8.752,2.46-10.937,3.657C517.771,8.46,512.82,6,509.022,6a2.051,2.051,0,0,0-2.051,2.051h0V9.418a21.5,21.5,0,0,0,4.5,13.111A2.066,2.066,0,0,0,513.124,23.363Z" transform="translate(-2)"/><path class="a" d="M541.18,59.176a31.912,31.912,0,0,0-4-13.7l-.421.42a5.942,5.942,0,0,1-4.283,1.779c-.12,0-.238-.011-.356-.017a5.923,5.923,0,0,1-3.928-1.762,6.048,6.048,0,0,1,0-8.567l1.994-1.994c-2.121-2.541-4.383-4.962-6.635-7.256a2.041,2.041,0,0,0-1.459-.61H512.7a2.041,2.041,0,0,0-1.459.61c-2.252,2.294-4.514,4.715-6.635,7.256a60.318,60.318,0,0,0-6.994,10.141,31.912,31.912,0,0,0-4,13.7c-.015.367-.048.73-.048,1.1v.147a15.621,15.621,0,0,0,2.3,7.987,14.928,14.928,0,0,0,2.2,3.224,13.486,13.486,0,0,0,10.318,4.324h18.029a13.486,13.486,0,0,0,10.318-4.324,14.929,14.929,0,0,0,2.2-3.224,15.622,15.622,0,0,0,2.3-7.987v-.147C541.228,59.906,541.2,59.543,541.18,59.176Z"/><path class="b" d="M522.5,48.525h-1.12a5.013,5.013,0,0,0-.943-2.041H522.5a1.021,1.021,0,1,0,.064-2.041H512.29a1.021,1.021,0,1,0-.063,2.041h4.15a3.054,3.054,0,0,1,2.874,2.041h-6.957a1.021,1.021,0,1,0-.063,2.041h7.02a3.057,3.057,0,0,1-2.874,2.041h-4.083a1.021,1.021,0,0,0-.943,1.411,1,1,0,0,0,.223.333l8.163,8.163a1.021,1.021,0,0,0,1.5-1.39c-.017-.018-.034-.035-.052-.051l-6.424-6.424h1.619a5.107,5.107,0,0,0,5-4.083H522.5a1.021,1.021,0,1,0,.064-2.041c-.021,0-.042,0-.064,0Z"/></g></svg>