<svg xmlns="http://www.w3.org/2000/svg" width="52" height="48.577" viewBox="0 0 52 48.577"><defs><style>.a,.b{fill:#1f7ce0;}.c{fill:#fff;stroke:#fff;stroke-width:0.6px;}.d,.e{stroke:none;}.e{fill:#fff;}</style></defs><g transform="translate(-158.201 -8.45)"><path class="a" d="M172.372,19.984h9.082a1.372,1.372,0,0,0,1.1-.554,14.279,14.279,0,0,0,2.989-8.709V9.812a1.363,1.363,0,0,0-1.361-1.362c-2.524,0-5.814,1.634-7.265,2.429-1.454-.8-4.743-2.429-7.266-2.429a1.362,1.362,0,0,0-1.363,1.362h0v.908a14.284,14.284,0,0,0,2.989,8.709A1.373,1.373,0,0,0,172.372,19.984Z" transform="translate(-2.881 0)"/><path class="a" d="M187.171,40.373a21.2,21.2,0,0,1,2.659,9.1c.01.244.032.485.032.73v.1a10.379,10.379,0,0,1-1.527,5.306,9.913,9.913,0,0,1-1.461,2.141,8.961,8.961,0,0,1-6.854,2.873H168.043a8.962,8.962,0,0,1-6.854-2.873,9.939,9.939,0,0,1-1.461-2.141A10.371,10.371,0,0,1,158.2,50.3v-.1c0-.245.021-.486.032-.73a21.2,21.2,0,0,1,2.659-9.1,40.081,40.081,0,0,1,4.646-6.736c1.409-1.689,2.911-3.3,4.407-4.821a1.359,1.359,0,0,1,.97-.405h6.234a1.357,1.357,0,0,1,.969.405c1.5,1.524,3,3.132,4.408,4.821A43.681,43.681,0,0,1,187.171,40.373Z" transform="translate(0 -5.703)"/><g transform="translate(178.609 25.344)"><g class="b" transform="translate(-186.771 -31.995)"><path class="d" d="M 201.5620269775391 62.67824172973633 C 201.5617828369141 62.67824172973633 201.5618286132813 62.67824172973633 201.5615844726563 62.67824172973633 C 199.3837127685547 62.67817306518555 197.2706146240234 62.24221420288086 195.2810211181641 61.38247299194336 C 193.2198181152344 60.49178314208984 191.4037780761719 59.19215393066406 189.8833770751953 57.51969146728516 C 184.0204467773438 51.07047271728516 184.4902648925781 41.06032180786133 190.9306640625 35.20539093017578 C 193.8316192626953 32.57373428344727 197.6060943603516 31.11635208129883 201.5595550537109 31.10101318359375 C 203.1341857910156 31.10100173950195 204.7049560546875 31.33504295349121 206.2321319580078 31.79663276672363 L 206.2373046875 31.79819297790527 L 206.2424468994141 31.79981231689453 C 211.7325592041016 33.52404403686523 215.8722686767578 38.08315277099609 217.0460662841797 43.69795227050781 L 217.0472564697266 43.70365142822266 L 217.0483856201172 43.70937347412109 C 217.2575836181641 44.77170181274414 217.3636474609375 45.84054183959961 217.3636474609375 46.88619232177734 C 217.3795776367188 51.30978393554688 215.496337890625 55.56838226318359 212.1968078613281 58.56643295288086 C 209.2806091308594 61.21784973144531 205.5035400390625 62.67824172973633 201.5620269775391 62.67824172973633 Z"/><path class="e" d="M 201.5634460449219 32.10100173950195 C 197.8819885253906 32.11528396606445 194.31982421875 33.48101425170898 191.6033325195313 35.94533157348633 C 185.5611267089844 41.43826293945313 185.1304016113281 50.80481338500977 190.6233215332031 56.84702301025391 C 193.5370483398438 60.05214309692383 197.5418090820313 61.67823791503906 201.5616149902344 61.67823791503906 C 205.1189422607422 61.67823791503906 208.6879425048828 60.4051628112793 211.5243225097656 57.82632446289063 C 214.6122131347656 55.02057266235352 216.378662109375 51.05766296386719 216.3636474609375 46.88619232177734 C 216.3636474609375 45.89117431640625 216.2600708007813 44.88187408447266 216.0672302246094 43.90258407592773 C 214.9686279296875 38.64751434326172 211.0942993164063 34.37175369262695 205.9428100585938 32.75386428833008 C 204.5177917480469 32.32315444946289 203.0484924316406 32.10100173950195 201.5634460449219 32.10100173950195 M 201.5595550537109 30.10100555419922 L 201.5634460449219 30.10100555419922 C 203.2322692871094 30.10100555419922 204.900390625 30.34943389892578 206.5214538574219 30.83940124511719 L 206.5317840576172 30.84252166748047 L 206.5420837402344 30.84574890136719 C 212.3771514892578 32.6783332824707 216.7771148681641 37.52459335327148 218.0249176025391 43.49332427978516 L 218.0272979736328 43.50473403930664 L 218.0295562744141 43.51616287231445 C 218.2509307861328 44.64044952392578 218.3633422851563 45.77272033691406 218.3636474609375 46.88168334960938 C 218.3798522949219 51.59053421020508 216.3773345947266 56.11902618408203 212.8692932128906 59.30654144287109 C 209.768798828125 62.12552261352539 205.7528076171875 63.67824172973633 201.5616149902344 63.67824172973633 C 199.2465209960938 63.67824172973633 196.9999694824219 63.21469116210938 194.8843383789063 62.30047225952148 C 192.6916961669922 61.35297393798828 190.7601928710938 59.97080230712891 189.1434326171875 58.19236373901367 C 182.9095916748047 51.33514404296875 183.4095764160156 40.69129180908203 190.2579803466797 34.4654541015625 C 193.343017578125 31.66679382324219 197.354736328125 30.1173095703125 201.5556793212891 30.10102081298828 L 201.5595550537109 30.10100555419922 Z"/></g><g transform="translate(10.705 10.006)"><path class="c" d="M209.238,48.822h-.744a3.34,3.34,0,0,0-.626-1.356h1.374a.678.678,0,0,0,.042-1.356h-6.826a.678.678,0,0,0-.043,1.356h2.757a2.031,2.031,0,0,1,1.909,1.356H202.46a.678.678,0,0,0-.042,1.356h4.664a2.031,2.031,0,0,1-1.909,1.356H202.46a.678.678,0,0,0-.626.937.644.644,0,0,0,.149.221l5.422,5.423a.679.679,0,0,0,.994-.924l-.034-.034L204.1,52.89h1.075a3.393,3.393,0,0,0,3.321-2.712h.748a.678.678,0,0,0,.042-1.356h-.046Z" transform="translate(-201.759 -46.11)"/></g></g></g></svg>