<svg width="150" height="153" viewBox="0 0 150 153" fill="none" xmlns="http://www.w3.org/2000/svg">
<path opacity="0.1" fill-rule="evenodd" clip-rule="evenodd" d="M75.223 74.202C75.223 75.3995 74.2554 76.3741 73.0554 76.3741C71.8612 76.3741 70.8902 75.4146 70.8902 74.202C70.8902 73.0066 71.8623 72.0344 73.0554 72.0344C74.2554 72.0344 75.223 73.0066 75.223 74.202ZM59.8839 28.0481C63.2264 24.2777 68.0282 22.1169 73.0554 22.1169C82.7639 22.1169 90.66 30.0131 90.66 39.7193C90.66 47.226 85.8969 53.9152 78.8044 56.3629C76.5936 57.1234 75.223 59.0495 75.223 61.3857V65.3723C75.223 66.5723 74.2554 67.5399 73.0554 67.5399C71.8623 67.5399 70.8902 66.5723 70.8902 65.3723V61.3857C70.8902 57.2077 73.4403 53.6307 77.3906 52.2692C82.7366 50.4204 86.3271 45.3771 86.3271 39.7193C86.3271 32.4037 80.3755 26.4499 73.0554 26.4499C69.2645 26.4499 65.6466 28.0823 63.1284 30.9192C62.3316 31.8186 60.9631 31.8983 60.0684 31.106C59.1713 30.3091 59.0916 28.9429 59.8839 28.0481ZM49.2875 3.25111C48.691 2.21514 49.0439 0.890041 50.0798 0.293452C51.1181 -0.309827 52.4432 0.047554 53.0398 1.08584L58.0443 9.74926C58.8856 11.2054 57.8102 12.9982 56.1681 12.9982C55.4191 12.9982 54.6928 12.6112 54.2897 11.9144L49.2875 3.25111ZM31.8401 18.5333C32.4367 17.495 33.7618 17.1421 34.8001 17.7409L43.4633 22.7432C45.3822 23.8495 44.5791 26.7844 42.3796 26.7844C42.0108 26.7844 41.6397 26.6911 41.2958 26.4931L32.6325 21.4908C31.5964 20.8943 31.2435 19.5692 31.8401 18.5333ZM25.1644 43.4509C25.1644 42.2557 26.132 41.2834 27.3297 41.2834H37.3342C38.5318 41.2834 39.5017 42.2557 39.5017 43.4509C39.5017 44.6463 38.5318 45.6162 37.3342 45.6162H27.3297C26.132 45.6162 25.1644 44.6463 25.1644 43.4509ZM112.663 41.2834H122.672C123.865 41.2834 124.838 42.2557 124.838 43.4509C124.838 44.6463 123.865 45.6162 122.672 45.6162H112.663C111.47 45.6162 110.498 44.6463 110.498 43.4509C110.498 42.2557 111.47 41.2834 112.663 41.2834ZM105.744 25.7007C105.143 24.6648 105.498 23.3396 106.536 22.7432L115.2 17.7409C116.236 17.1421 117.561 17.495 118.157 18.5333C118.758 19.5692 118.403 20.8943 117.365 21.4908L108.702 26.4931C107.678 27.0875 106.342 26.7459 105.744 25.7007ZM91.9578 9.74926L96.9599 1.08584C97.5565 0.047554 98.8816 -0.309827 99.9176 0.293452C100.956 0.890041 101.311 2.21514 100.71 3.25111L95.7077 11.9144C95.1033 12.9603 93.7768 13.3016 92.7501 12.7068C91.7119 12.1102 91.3567 10.7852 91.9578 9.74926ZM95.1363 110.613L79.064 86.6972H127.272L143.713 110.613H95.1363ZM126.242 147.209V114.948H93.9819C93.2601 114.948 92.5839 114.586 92.1832 113.987L77.1674 91.6403V148.575H124.879C125.619 148.575 126.242 147.949 126.242 147.209ZM25.1212 148.575C24.3812 148.575 23.7551 147.949 23.7551 147.209V114.948H56.0201C56.7419 114.948 57.4135 114.586 57.8189 113.987L72.8346 91.6403V148.575H25.1212ZM22.7282 86.6972L6.28487 110.613H54.8612L70.9334 86.6972H22.7282ZM149.619 111.553L130.195 83.3025C129.79 82.7128 129.125 82.3643 128.41 82.3643H21.5874C20.8771 82.3643 20.2078 82.7128 19.8025 83.3025L0.383312 111.553C-0.602965 112.982 0.429368 114.948 2.16602 114.948H19.4222V147.209C19.4222 150.351 21.9791 152.908 25.1212 152.908H124.879C128.021 152.908 130.575 150.351 130.575 147.209V114.948H147.834C149.567 114.948 150.602 112.98 149.619 111.553Z" fill="black"/>
</svg>
