<svg xmlns="http://www.w3.org/2000/svg" xmlns:xlink="http://www.w3.org/1999/xlink" width="499.023" height="307.904" viewBox="0 0 499.023 307.904">
  <defs>
    <linearGradient id="linear-gradient" x1="0.5" y1="-0.574" x2="0.5" y2="0.5" gradientUnits="objectBoundingBox">
      <stop offset="0" stop-color="#e5e5e5"/>
      <stop offset="1" stop-color="#fff"/>
    </linearGradient>
    <clipPath id="clip-path">
      <rect id="Rectangle_17738" data-name="Rectangle 17738" width="333.151" height="279.237" fill="none"/>
    </clipPath>
    <clipPath id="clip-path-2">
      <path id="Path_6608" data-name="Path 6608" d="M0,484.545c0,32.569,111.71,58.971,249.511,58.971s249.511-26.4,249.511-58.971-111.71-58.971-249.511-58.971S0,451.976,0,484.545" transform="translate(0 -425.574)" fill="url(#linear-gradient)"/>
    </clipPath>
    <clipPath id="clip-path-4">
      <path id="Path_6610" data-name="Path 6610" d="M494.315,407.439c-1.185.641-1.85,2.589-2.019,2.613s-.481-.024-.481-.216.048-.842-.169-.842-.457,1.059-.505,2.6-.6,5.214,0,5.681c.373.293,3.8,2.094,3.9,2.335s-.072,1.926.217,2.19.963.915,1.493.939a22.974,22.974,0,0,0,5.031,0,11.082,11.082,0,0,0,3.322-1.228c.048-.193-.361-4.285-.819-4.791s-3.756-5.031-4.02-5.441a4.662,4.662,0,0,1-.457-1.974,2.544,2.544,0,0,0-1.5-2.142,5.366,5.366,0,0,0-1.5-.179,5.965,5.965,0,0,0-2.5.454" transform="translate(-490.865 -406.985)" fill="#75737c"/>
    </clipPath>
    <clipPath id="clip-path-6">
      <path id="Path_6613" data-name="Path 6613" d="M399.709,5.083c-1.259,2.644-1.2,4.029-3.274,5.855s-11.13,9.227-11.973,9.975.829,4.38,2.151,5.009,4.151-1.8,4.151-1.8c1.28-1.422,7.252-8.152,8.437-8.39s4.07-.758,4.713-1.422,3.363-9.2,2.286-10.757a2.69,2.69,0,0,0-2.247-.9,4.723,4.723,0,0,0-4.244,2.428" transform="translate(-384.234 -2.655)" fill="none"/>
    </clipPath>
    <linearGradient id="linear-gradient-3" x1="-5.447" y1="10.678" x2="-5.433" y2="10.678" gradientUnits="objectBoundingBox">
      <stop offset="0" stop-color="#f2bfad"/>
      <stop offset="1" stop-color="#f2dad4"/>
    </linearGradient>
    <clipPath id="clip-path-7">
      <path id="Path_6614" data-name="Path 6614" d="M373.03,48.96c-.739.2-9.3,8.169-8.711,11.222,1.381,7.2,21.61,12.439,22.071,15.578s-1.569,33.231-.461,34.338,12.831,5.354,18.738,5.723,16.271-1.689,16.837-3.244-2.883-31.454-2.483-31.454.513,9.412,5.013,11.846c2.971,1.607,7.057-.049,7.839-.935s-2.792-13.4-4.41-17.62-3.164-12.939-6.821-16.033-8.819-2.568-10.6-3.3c-1.151-.471-4.061-.418-6.376-.365-1.257.028-2.338.057-2.867,0a54.769,54.769,0,0,0-5.92.194c-3.052.64-8.121,1.181-9.795,1.723s-8.268,2.855-8.219,1.87,3.051-5.316,2.51-5.759-3.79-.984-4.331-1.673c-.511-.65-1.2-2.133-1.893-2.133a.489.489,0,0,0-.125.016" transform="translate(-364.29 -48.944)" fill="#46399a"/>
    </clipPath>
    <clipPath id="clip-path-8">
      <path id="Path_6615" data-name="Path 6615" d="M535.278,139.757s-5.261,1.59-5.671,2.138-1.14,2.736,0,3.648,2.39,1.594,3.742.542,2.586-2.469,3.367-2.648a8.259,8.259,0,0,1,1.574-.044,7.9,7.9,0,0,0,2.526-.184c.981-.385,2.844-7.826,2.092-8.278a.236.236,0,0,0-.122-.027c-1.181,0-7.509,4.853-7.509,4.853" transform="translate(-528.997 -134.904)" fill="none"/>
    </clipPath>
    <linearGradient id="linear-gradient-4" x1="-12.564" y1="17.437" x2="-12.54" y2="17.437" gradientUnits="objectBoundingBox">
      <stop offset="0" stop-color="#f2bfad"/>
      <stop offset="0.704" stop-color="#f2dad4"/>
      <stop offset="1" stop-color="#f2dad4"/>
    </linearGradient>
    <clipPath id="clip-path-10">
      <path id="Path_6617" data-name="Path 6617" d="M449.008,41.326c-2.1.061-4.539.132-4.64,1.5-.108,1.453-.473,8.484.135,9.518.559.951,1.552,3.714,5.448,3.591s6.422-4.017,6.635-4.474-.244-6.087-.244-7.031-5.094-3.106-7.248-3.106h-.087" transform="translate(-444.161 -41.325)" fill="none"/>
    </clipPath>
    <linearGradient id="linear-gradient-5" x1="-9.195" y1="14.084" x2="-9.174" y2="14.084" xlink:href="#linear-gradient-3"/>
    <clipPath id="clip-path-12">
      <path id="Path_6619" data-name="Path 6619" d="M522.488,115.8l-19.208.159a1.061,1.061,0,0,0-.822.4L491.79,129.845a1.06,1.06,0,0,0,.849,1.717l19.719-.335a1.059,1.059,0,0,0,.83-.424l10.079-13.468a.962.962,0,0,0-.77-1.539h-.008" transform="translate(-491.559 -115.796)" fill="none"/>
    </clipPath>
    <linearGradient id="linear-gradient-6" x1="-5.103" y1="8.239" x2="-5.092" y2="8.239" gradientUnits="objectBoundingBox">
      <stop offset="0" stop-color="#f2f2f2"/>
      <stop offset="1" stop-color="#ccc"/>
    </linearGradient>
    <clipPath id="clip-path-14">
      <path id="Path_6621" data-name="Path 6621" d="M406.153,409.57a2.544,2.544,0,0,0-1.5,2.142,4.67,4.67,0,0,1-.457,1.974c-.265.409-3.563,4.935-4.021,5.441s-.866,4.6-.818,4.791a11.09,11.09,0,0,0,3.322,1.228,23,23,0,0,0,5.032,0c.529-.024,1.2-.674,1.492-.939s.121-1.95.217-2.191,3.526-2.042,3.9-2.335c.6-.467.048-4.141,0-5.682s-.289-2.6-.505-2.6-.169.65-.169.843-.313.24-.482.216-.833-1.973-2.018-2.613a5.966,5.966,0,0,0-2.5-.454,5.35,5.35,0,0,0-1.5.179" transform="translate(-399.358 -409.391)" fill="#75737c"/>
    </clipPath>
    <clipPath id="clip-path-15">
      <rect id="Rectangle_17755" data-name="Rectangle 17755" width="131" height="117" transform="translate(0.194 0.541)" fill="none"/>
    </clipPath>
    <clipPath id="clip-path-16">
      <rect id="Rectangle_17754" data-name="Rectangle 17754" width="131" height="117" transform="translate(0 0.337)" fill="none"/>
    </clipPath>
    <clipPath id="clip-path-17">
      <rect id="Rectangle_17753" data-name="Rectangle 17753" width="47.297" height="47.297" fill="none"/>
    </clipPath>
  </defs>
  <g id="Group_11154" data-name="Group 11154" transform="translate(-280.029 -628)">
    <g id="Group_11151" data-name="Group 11151" transform="translate(30.151)">
      <g id="Group_11116" data-name="Group 11116" transform="translate(311.849 656.667)">
        <g id="Group_11115" data-name="Group 11115" clip-path="url(#clip-path)">
          <path id="Path_6606" data-name="Path 6606" d="M686.841,351.2a2.315,2.315,0,0,0-4.574.715c.332,2.156.755,8.91-1.576,11.628a3.109,3.109,0,0,1-1.879,1.08l.213-12.864a3.346,3.346,0,1,0-6.691.028l.6,24.413a3.121,3.121,0,0,1-1.958-1.091c-2.33-2.718-1.908-9.472-1.576-11.628a2.315,2.315,0,1,0-4.574-.716c-.166,1.063-1.5,10.52,2.63,15.35a7.835,7.835,0,0,0,5.593,2.75l.263,10.626h5.051l.366-22.2a7.824,7.824,0,0,0,5.476-2.741c4.133-4.83,2.8-14.288,2.629-15.35" transform="translate(-401.646 -223.987)" fill="#bdbdbd"/>
          <path id="Path_6607" data-name="Path 6607" d="M131.066,407.489a1.475,1.475,0,1,0-2.915.456c.211,1.374.481,5.68-1,7.413a1.981,1.981,0,0,1-1.2.689l.135-8.2a2.133,2.133,0,1,0-4.265.017l.385,15.562a1.991,1.991,0,0,1-1.248-.7c-1.486-1.732-1.216-6.038-1-7.412a1.475,1.475,0,1,0-2.915-.456c-.106.677-.959,6.706,1.676,9.785a5,5,0,0,0,3.566,1.753l.168,6.774h3.22l.234-14.152a4.986,4.986,0,0,0,3.491-1.747c2.635-3.079,1.782-9.108,1.676-9.785" transform="translate(-72.545 -261.923)" fill="#bdbdbd"/>
        </g>
      </g>
      <g id="Group_11118" data-name="Group 11118" transform="translate(249.878 817.962)">
        <g id="Group_11117" data-name="Group 11117" clip-path="url(#clip-path-2)">
          <rect id="Rectangle_17739" data-name="Rectangle 17739" width="499.023" height="117.942" transform="translate(0 0)" fill="url(#linear-gradient)"/>
        </g>
      </g>
      <g id="Group_11120" data-name="Group 11120" transform="translate(311.849 656.667)">
        <g id="Group_11119" data-name="Group 11119" clip-path="url(#clip-path)">
          <path id="Path_6609" data-name="Path 6609" d="M499.085,391.953s-.1,5.675,0,6.243-2.221,3.895-3.169,3.747a10.373,10.373,0,0,1-3.115-.779c-.274-.316-.154-1.06-.056-1.74s.806-6.86.806-7.177,4.484-1.157,5.536-.294" transform="translate(-305.92 -243.165)" fill="#ffd3bc"/>
        </g>
      </g>
      <g id="Group_11122" data-name="Group 11122" transform="translate(497.891 810.917)">
        <g id="Group_11121" data-name="Group 11121" clip-path="url(#clip-path-4)">
          <rect id="Rectangle_17741" data-name="Rectangle 17741" width="21.362" height="21.648" transform="translate(-8.067 5.872) rotate(-37.164)" fill="#75737c"/>
        </g>
      </g>
      <g id="Group_11124" data-name="Group 11124" transform="translate(311.849 656.667)">
        <g id="Group_11123" data-name="Group 11123" clip-path="url(#clip-path)">
          <path id="Path_6611" data-name="Path 6611" d="M418.238,400.611s0,3.3-.1,3.873,2.221,3.894,3.169,3.747a10.355,10.355,0,0,0,3.115-.779c.274-.316.153-1.06.056-1.74s-.708-4.49-.708-4.807-4.484-1.158-5.537-.294" transform="translate(-259.662 -248.542)" fill="#ffd3bc"/>
          <path id="Path_6612" data-name="Path 6612" d="M418.65,207.484c-1.341,4.876-3.877,21.579-3.877,29.7s-.812,28.814-.812,31.959-.338,10.949.474,11.355a8.122,8.122,0,0,0,5.284,1.22,3.477,3.477,0,0,0,3.319-3.523c.068-1.49.677-12.193,1.287-16.325s2.777-12.1,4.2-17.227,4.742-15.433,5.622-15.394,6.366,22.621,6.823,23.9,1.328,19.463,1.384,20.989,0,2.995.96,3.616,3.9,2.147,5.425,2.26,2.543-2.317,2.825-3.051.783-25.055.6-31.727.347-19.113.038-23.17-1.3-12.751-1.931-14.58-31.625,0-31.625,0" transform="translate(-257.024 -128.342)" fill="#192b59"/>
        </g>
      </g>
      <g id="Group_11126" data-name="Group 11126" transform="translate(457.477 657.673)">
        <g id="Group_11125" data-name="Group 11125" clip-path="url(#clip-path-6)">
          <rect id="Rectangle_17743" data-name="Rectangle 17743" width="26.373" height="26.162" transform="matrix(0.111, -0.994, 0.994, 0.111, -3.249, 23.603)" fill="url(#linear-gradient-3)"/>
        </g>
      </g>
      <g id="Group_11128" data-name="Group 11128" transform="translate(449.918 675.217)">
        <g id="Group_11127" data-name="Group 11127" clip-path="url(#clip-path-7)">
          <rect id="Rectangle_17744" data-name="Rectangle 17744" width="95.224" height="95.548" transform="matrix(0.604, -0.797, 0.797, 0.604, -32.93, 42.706)" fill="#46399a"/>
        </g>
      </g>
      <g id="Group_11130" data-name="Group 11130" transform="translate(512.343 707.796)">
        <g id="Group_11129" data-name="Group 11129" clip-path="url(#clip-path-8)">
          <rect id="Rectangle_17745" data-name="Rectangle 17745" width="15.888" height="13.107" transform="translate(-1.249 0.042) rotate(-3.377)" fill="url(#linear-gradient-4)"/>
        </g>
      </g>
      <g id="Group_11132" data-name="Group 11132" transform="translate(311.849 656.667)">
        <g id="Group_11131" data-name="Group 11131" clip-path="url(#clip-path)">
          <path id="Path_6616" data-name="Path 6616" d="M435.554,23.516c-1.7-.352-4.975-3.557-5.276-6.815-.293-3.173-2.626-12.092,5.5-15.437,7.622-3.139,15.465.091,16.593,3.961,1.053,3.615-7.894,3.777-11.174,6.131s-3.5,3.917-4.322,3.545-1.317,8.614-1.317,8.614" transform="translate(-266.868 0)" fill="#7e7878"/>
        </g>
      </g>
      <g id="Group_11134" data-name="Group 11134" transform="translate(480.189 672.329)">
        <g id="Group_11133" data-name="Group 11133" clip-path="url(#clip-path-10)">
          <rect id="Rectangle_17747" data-name="Rectangle 17747" width="18.002" height="18.861" transform="translate(-6.004 2.748) rotate(-25.587)" fill="url(#linear-gradient-5)"/>
        </g>
      </g>
      <g id="Group_11136" data-name="Group 11136" transform="translate(311.849 656.667)">
        <g id="Group_11135" data-name="Group 11135" clip-path="url(#clip-path)">
          <path id="Path_6618" data-name="Path 6618" d="M439.756,26.679c.44-.013-.08,2.667.716,3.542s4.26,5.442,7.926,5c3.17-.386,2.715-3.117,3.172-5.366.415-2.042,1.732-2.218,2.2-7.549.179-2.063,1.154-5.294-.637-5.891s-8.517-2.189-10.189,0-1.831,7.443-2.707,6.766-2.706-3.98-3.781-2.189.955,5.759,3.3,5.692" transform="translate(-270.851 -9.496)" fill="#f2dad4"/>
        </g>
      </g>
      <g id="Group_11138" data-name="Group 11138" transform="translate(498.154 700.554)">
        <g id="Group_11137" data-name="Group 11137" clip-path="url(#clip-path-12)">
          <rect id="Rectangle_17749" data-name="Rectangle 17749" width="36.097" height="29.39" transform="translate(-6.946 3.6) rotate(-28.528)" fill="url(#linear-gradient-6)"/>
        </g>
      </g>
      <g id="Group_11140" data-name="Group 11140" transform="translate(311.849 656.667)">
        <g id="Group_11139" data-name="Group 11139" clip-path="url(#clip-path)">
          <path id="Path_6620" data-name="Path 6620" d="M551.282,131.6c-1.039.1-2.546.689-2.546,1.231s1.211.691,1.544.742.772.155.647.322-.376,1-1.043.856a40.744,40.744,0,0,0-4.153-.188c-.564,0-1.231.4-1.273.814s-.167.5-.5.522-.939.334-.939.877,1.341,1.031,1.341,1.223a23.959,23.959,0,0,0,3.145,2.1c.516.3,1.479,1.058,2.021,1.058a1.644,1.644,0,0,0,1.519-1.261c.068-.746,1.139-1.289,1.153-1.655s-.339-.637-.3-.868.977-.556.977-1.139a6.611,6.611,0,0,0-.421-1.614c-.054-.244-.271-.773-.054-.841s.977-.773.841-1.424-1.479-.8-1.959-.75" transform="translate(-337.21 -81.715)" fill="#ffd3bc"/>
        </g>
      </g>
      <g id="Group_11142" data-name="Group 11142" transform="translate(463.209 811.829)">
        <g id="Group_11141" data-name="Group 11141" clip-path="url(#clip-path-14)">
          <rect id="Rectangle_17751" data-name="Rectangle 17751" width="21.647" height="21.361" transform="translate(-7.791 10.219) rotate(-52.836)" fill="#75737c"/>
        </g>
      </g>
      <g id="Group_11150" data-name="Group 11150" transform="translate(517.806 627.459)" clip-path="url(#clip-path-15)">
        <g id="Group_11149" data-name="Group 11149" transform="translate(0.194 0.204)">
          <g id="Group_11148" data-name="Group 11148" transform="translate(0 0)" clip-path="url(#clip-path-16)">
            <path id="Path_6623" data-name="Path 6623" d="M282.417,268.958a3.018,3.018,0,0,0,.39-4.25l-22.822-27.435a30.161,30.161,0,1,0-6.192,4.653l1.427-.944,22.947,27.586a3.018,3.018,0,0,0,4.25.39m-19.927-51.112a23.648,23.648,0,1,1-21.387-25.71,23.674,23.674,0,0,1,21.387,25.71" transform="translate(-181.388 -161.48)" fill="#efefef"/>
            <path id="Path_6624" data-name="Path 6624" d="M210.263,305.566a50.051,50.051,0,0,0-3.046,7.941,24.756,24.756,0,0,0-.826,7.708,30.124,30.124,0,0,0,4.137,14,30.518,30.518,0,0,0,23.829,14.862,29.625,29.625,0,0,0,18.208-4.368c.265-.175-.365-.113-.488-.032a28.028,28.028,0,0,1-16.844,4.16,29.981,29.981,0,0,1-13.933-4.42,30.412,30.412,0,0,1-14.183-22.94A25.2,25.2,0,0,1,207.68,314a47.869,47.869,0,0,1,3.208-8.544c.052-.111-.546-.062-.625.106" transform="translate(-179.294 -265.662)" fill="#6a79a8"/>
            <path id="Path_6625" data-name="Path 6625" d="M565.919,614l8.911,10.713,12.292,14.777c.365.438.72.887,1.1,1.317a3.513,3.513,0,0,0,5.626-.689c.054-.1-.533-.058-.625.107-1.059,1.895-3.254,1.734-4.53.213-.408-.486-.811-.975-1.217-1.463l-5.084-6.112-12.817-15.407-3.058-3.676c-.1-.125-.7.092-.595.22" transform="translate(-491.752 -533.623)" fill="#6a79a8"/>
            <path id="Path_6626" data-name="Path 6626" d="M343.174,237.882a23.249,23.249,0,0,1,21.8-1.16,23.626,23.626,0,0,1,13.515,23.56c-.009.1.615.029.633-.169a23.744,23.744,0,0,0-23.84-25.861,24.6,24.6,0,0,0-12.6,3.6c-.269.163.363.107.488.032" transform="translate(-297.706 -203.83)" fill="#6a79a8"/>
            <path id="Path_6627" data-name="Path 6627" d="M294.654,251.68a3.018,3.018,0,0,0,.39-4.25l-22.822-27.435a30.162,30.162,0,1,0-6.193,4.653l1.427-.944L290.4,251.29a3.018,3.018,0,0,0,4.25.39m-19.927-51.111a23.648,23.648,0,1,1-21.387-25.71,23.674,23.674,0,0,1,21.387,25.71" transform="translate(-192.022 -146.464)" fill="#fff"/>
            <path id="Path_6628" data-name="Path 6628" d="M292.817,250.344a3.244,3.244,0,0,0,.318-4.586c-.378-.462-.763-.917-1.145-1.376l-5.172-6.217L273.6,222.27l-3.182-3.825-.03.214a30.631,30.631,0,1,0-6.994,5.113c.757-.4,1.457-.883,2.173-1.356l-.5.007,8.822,10.6,12.636,15.191c.467.561.929,1.126,1.4,1.683a3.454,3.454,0,0,0,4.835.491c.338-.264-.18-.436-.411-.255a2.751,2.751,0,0,1-3.952-.635l-1.313-1.579-5.322-6.4-13.017-15.648-3.1-3.724c-.117-.141-.369-.077-.5.007a29.754,29.754,0,0,1-34.508-1.67,29.815,29.815,0,1,1,42.414-5.643,30.906,30.906,0,0,1-3.2,3.652.161.161,0,0,0-.03.214l8.307,9.987,12.494,15.019,1.715,2.061c.1.118.2.235.3.356a2.906,2.906,0,0,1-.35,4.049c-.286.254.332.329.522.159" transform="translate(-189.924 -145.049)" fill="#6a79a8"/>
            <path id="Path_6629" data-name="Path 6629" d="M315.795,242.661a23.469,23.469,0,1,1,.045-3.77,23.94,23.94,0,0,1-.045,3.77c-.027.3.615.2.638-.059a23.913,23.913,0,1,0-.655,3.769,24.058,24.058,0,0,0,.655-3.769c.029-.3-.613-.2-.638.059" transform="translate(-233.41 -188.528)" fill="#6a79a8"/>
            <g id="Group_11147" data-name="Group 11147" transform="translate(35.507 28.294)" opacity="0.5">
              <g id="Group_11146" data-name="Group 11146">
                <g id="Group_11145" data-name="Group 11145" clip-path="url(#clip-path-17)">
                  <path id="Path_6630" data-name="Path 6630" d="M296.588,218.107a23.648,23.648,0,1,0,21.387,25.71,23.674,23.674,0,0,0-21.387-25.71" transform="translate(-270.778 -218.007)" fill="#fff"/>
                </g>
              </g>
            </g>
            <path id="Path_6631" data-name="Path 6631" d="M294.863,216.668a24.345,24.345,0,0,0-23.888,13.476,23.976,23.976,0,1,0,27.554-12.855,24.773,24.773,0,0,0-3.666-.621c-.266-.025-.663.351-.237.392a23.5,23.5,0,0,1,11.3,42.615,23.393,23.393,0,0,1-27.068-.356,23.757,23.757,0,0,1-8.709-25.391,23.519,23.519,0,0,1,20.734-16.913,23.771,23.771,0,0,1,3.745.045c.266.023.664-.355.237-.392" transform="translate(-233.427 -188.471)" fill="#6a79a8"/>
            <path id="Path_6632" data-name="Path 6632" d="M403.658,420.9a11.047,11.047,0,0,0-5.209-3.336,11.644,11.644,0,0,0-9.654,1.489,9.32,9.32,0,0,0-1.846,1.508c-.261.29.348.351.521.158a10.325,10.325,0,0,1,4.895-2.83,10.614,10.614,0,0,1,9.206,1.885,8.875,8.875,0,0,1,1.5,1.393c.166.2.771-.037.582-.268" transform="translate(-336.174 -362.733)" fill="#6a79a8"/>
            <path id="Path_6633" data-name="Path 6633" d="M381.206,365.224a1.185,1.185,0,1,0-1.19,1.179,1.185,1.185,0,0,0,1.19-1.179" transform="translate(-329.18 -316.618)" fill="#6a79a8"/>
            <path id="Path_6634" data-name="Path 6634" d="M505.3,365.905a1.185,1.185,0,1,0-1.19,1.179,1.185,1.185,0,0,0,1.19-1.179" transform="translate(-437.025 -317.209)" fill="#6a79a8"/>
            <path id="Path_6635" data-name="Path 6635" d="M346.1,398.761c.014,1.264-.744,2.3-1.692,2.307s-1.728-1.006-1.741-2.27.744-2.3,1.692-2.307,1.728,1.006,1.741,2.27" transform="translate(-297.748 -344.824)" fill="#ff9c81"/>
            <path id="Path_6636" data-name="Path 6636" d="M534,396.727c.014,1.264-.744,2.3-1.692,2.307s-1.728-1.006-1.741-2.27.744-2.3,1.692-2.307,1.728,1.006,1.741,2.27" transform="translate(-461.039 -343.056)" fill="#ff9c81"/>
          </g>
        </g>
      </g>
    </g>
    <path id="Path_6637" data-name="Path 6637" d="M3.928.223A1.421,1.421,0,0,1,2.853-.171a1.551,1.551,0,0,1-.378-1.12V-19.808a1.647,1.647,0,0,1,.374-1.16,1.268,1.268,0,0,1,.976-.4,1.445,1.445,0,0,1,.853.207,3.672,3.672,0,0,1,.669.7L17.7-4.181H16.95v-15.7a1.516,1.516,0,0,1,.378-1.1,1.431,1.431,0,0,1,1.075-.389,1.38,1.38,0,0,1,1.059.389,1.555,1.555,0,0,1,.363,1.1V-1.256a1.614,1.614,0,0,1-.337,1.086,1.148,1.148,0,0,1-.919.393A1.583,1.583,0,0,1,17.683,0a3.283,3.283,0,0,1-.72-.71L4.635-16.99h.715v15.7a1.591,1.591,0,0,1-.363,1.12A1.372,1.372,0,0,1,3.928.223Zm26.849.06a7.5,7.5,0,0,1-3.808-.93,6.366,6.366,0,0,1-2.506-2.642,8.627,8.627,0,0,1-.891-4.035,9.2,9.2,0,0,1,.5-3.143,6.761,6.761,0,0,1,1.454-2.391,6.293,6.293,0,0,1,2.279-1.526,8.012,8.012,0,0,1,2.968-.525,7.5,7.5,0,0,1,3.808.93,6.381,6.381,0,0,1,2.506,2.631,8.563,8.563,0,0,1,.891,4.024,9.286,9.286,0,0,1-.5,3.154,6.747,6.747,0,0,1-1.454,2.4A6.3,6.3,0,0,1,33.749-.242,8,8,0,0,1,30.776.283Zm0-2.364a3.954,3.954,0,0,0,2.184-.6,3.885,3.885,0,0,0,1.448-1.77,7.146,7.146,0,0,0,.513-2.872,5.866,5.866,0,0,0-1.128-3.9,3.764,3.764,0,0,0-3.017-1.324,4.006,4.006,0,0,0-2.184.59A3.824,3.824,0,0,0,27.144-10.2a7.138,7.138,0,0,0-.513,2.876,5.9,5.9,0,0,0,1.133,3.9A3.741,3.741,0,0,0,30.776-2.082ZM51.307,0a1.675,1.675,0,0,1-1.237-.43,1.675,1.675,0,0,1-.429-1.237V-19.483a1.675,1.675,0,0,1,.429-1.237,1.675,1.675,0,0,1,1.237-.43h7.139a9.566,9.566,0,0,1,3.745.656,5.161,5.161,0,0,1,2.359,1.886,5.242,5.242,0,0,1,.816,2.966,4.832,4.832,0,0,1-1.136,3.266,5.551,5.551,0,0,1-3.091,1.761v-.441a5.587,5.587,0,0,1,3.489,1.65,5,5,0,0,1,1.26,3.549,5.274,5.274,0,0,1-1.866,4.339A8.073,8.073,0,0,1,58.793,0Zm1.32-2.407h5.816a5.234,5.234,0,0,0,3.334-.882A3.237,3.237,0,0,0,62.863-5.96a3.23,3.23,0,0,0-1.086-2.686,5.3,5.3,0,0,0-3.334-.867H52.627Zm0-9.513h5.324a5.243,5.243,0,0,0,3.289-.869,3.045,3.045,0,0,0,1.1-2.542,3.042,3.042,0,0,0-1.1-2.547,5.263,5.263,0,0,0-3.289-.865H52.627ZM74.978.283A6.038,6.038,0,0,1,72-.379a4.078,4.078,0,0,1-1.763-1.977,8.115,8.115,0,0,1-.581-3.273v-7.685a1.547,1.547,0,0,1,.389-1.156,1.535,1.535,0,0,1,1.115-.378,1.575,1.575,0,0,1,1.126.378,1.522,1.522,0,0,1,.4,1.156v7.693A4.019,4.019,0,0,0,73.4-3a2.813,2.813,0,0,0,2.279.854A3.624,3.624,0,0,0,78.458-3.3a4.305,4.305,0,0,0,1.077-3.057v-6.956a1.547,1.547,0,0,1,.389-1.156,1.535,1.535,0,0,1,1.115-.378,1.575,1.575,0,0,1,1.126.378,1.521,1.521,0,0,1,.4,1.156V-1.333q0,1.556-1.475,1.556A1.447,1.447,0,0,1,80-.181a1.6,1.6,0,0,1-.389-1.152V-3.864l.4.639a5.167,5.167,0,0,1-1.935,2.6A5.353,5.353,0,0,1,74.978.283Zm16.962,0a12.714,12.714,0,0,1-2.713-.3,7.892,7.892,0,0,1-2.562-1.043,1.378,1.378,0,0,1-.536-.588,1.242,1.242,0,0,1-.107-.68,1.1,1.1,0,0,1,.265-.592.959.959,0,0,1,.564-.316,1.136,1.136,0,0,1,.746.15,9.13,9.13,0,0,0,2.259.9,9.2,9.2,0,0,0,2.131.255A4.122,4.122,0,0,0,94.375-2.5a1.773,1.773,0,0,0,.8-1.518A1.5,1.5,0,0,0,94.65-5.24a3.78,3.78,0,0,0-1.621-.668l-2.852-.578a5.3,5.3,0,0,1-2.818-1.369,3.5,3.5,0,0,1-.949-2.539,3.913,3.913,0,0,1,.752-2.395,4.807,4.807,0,0,1,2.1-1.568,8.1,8.1,0,0,1,3.1-.553,9.321,9.321,0,0,1,2.492.324,7.588,7.588,0,0,1,2.183.993,1.136,1.136,0,0,1,.5.556,1.1,1.1,0,0,1,.049.674,1.279,1.279,0,0,1-.317.59.959.959,0,0,1-.58.3,1.271,1.271,0,0,1-.767-.174,7.181,7.181,0,0,0-1.8-.8,6.515,6.515,0,0,0-1.752-.249A3.948,3.948,0,0,0,90-12.1a1.863,1.863,0,0,0-.8,1.571,1.658,1.658,0,0,0,.481,1.224,2.871,2.871,0,0,0,1.5.683l2.852.579a5.936,5.936,0,0,1,2.942,1.329,3.283,3.283,0,0,1,.992,2.51A3.856,3.856,0,0,1,96.326-.919,7.264,7.264,0,0,1,91.939.283Zm10.9-.107a1.416,1.416,0,0,1-1.115-.436,1.747,1.747,0,0,1-.389-1.205v-11.7a1.735,1.735,0,0,1,.389-1.22,1.443,1.443,0,0,1,1.115-.421,1.479,1.479,0,0,1,1.126.421,1.705,1.705,0,0,1,.4,1.22v11.7a1.759,1.759,0,0,1-.385,1.205A1.442,1.442,0,0,1,102.844.175Zm0-18.08a1.974,1.974,0,0,1-1.383-.456,1.616,1.616,0,0,1-.5-1.255,1.593,1.593,0,0,1,.5-1.266,2.03,2.03,0,0,1,1.383-.436,2.02,2.02,0,0,1,1.4.436,1.618,1.618,0,0,1,.483,1.266,1.642,1.642,0,0,1-.483,1.255A1.964,1.964,0,0,1,102.844-17.9ZM110.121.223a1.477,1.477,0,0,1-1.115-.4,1.594,1.594,0,0,1-.389-1.152V-13.315a1.553,1.553,0,0,1,.389-1.145,1.48,1.48,0,0,1,1.094-.389,1.464,1.464,0,0,1,1.09.389,1.563,1.563,0,0,1,.385,1.145v2.335l-.33-.533a4.92,4.92,0,0,1,2.059-2.536,6.1,6.1,0,0,1,3.23-.86,5.881,5.881,0,0,1,2.906.643,3.982,3.982,0,0,1,1.714,1.947,8.256,8.256,0,0,1,.57,3.292v7.694a1.6,1.6,0,0,1-.389,1.152,1.477,1.477,0,0,1-1.115.4,1.514,1.514,0,0,1-1.126-.4,1.568,1.568,0,0,1-.4-1.152V-8.864a4.244,4.244,0,0,0-.727-2.75,2.819,2.819,0,0,0-2.286-.867,3.872,3.872,0,0,0-2.937,1.148,4.241,4.241,0,0,0-1.1,3.057v6.943A1.362,1.362,0,0,1,110.121.223Zm22.651.06a8.664,8.664,0,0,1-4.125-.921,6.457,6.457,0,0,1-2.671-2.618,8.186,8.186,0,0,1-.94-4.028,8.277,8.277,0,0,1,.919-3.986,6.8,6.8,0,0,1,2.54-2.672,7.1,7.1,0,0,1,3.708-.966,7,7,0,0,1,2.718.5,5.66,5.66,0,0,1,2.052,1.444,6.369,6.369,0,0,1,1.3,2.286,9.546,9.546,0,0,1,.448,3.027.923.923,0,0,1-.314.756,1.382,1.382,0,0,1-.9.259H127.423V-8.492h9.228l-.489.424a6.485,6.485,0,0,0-.444-2.549,3.473,3.473,0,0,0-1.3-1.594,3.806,3.806,0,0,0-2.122-.556,4.188,4.188,0,0,0-2.379.654,4.1,4.1,0,0,0-1.489,1.819,6.78,6.78,0,0,0-.508,2.73v.193a5.59,5.59,0,0,0,1.25,3.953A4.72,4.72,0,0,0,132.8-2.082a8.456,8.456,0,0,0,1.9-.23,6.17,6.17,0,0,0,1.91-.8,1.594,1.594,0,0,1,.915-.28,1,1,0,0,1,.656.271,1.085,1.085,0,0,1,.315.6,1.21,1.21,0,0,1-.113.738,1.615,1.615,0,0,1-.631.667,7.526,7.526,0,0,1-2.376,1.049A10.321,10.321,0,0,1,132.772.283Zm14.339,0a12.714,12.714,0,0,1-2.713-.3,7.892,7.892,0,0,1-2.562-1.043,1.378,1.378,0,0,1-.536-.588,1.242,1.242,0,0,1-.107-.68,1.1,1.1,0,0,1,.265-.592.959.959,0,0,1,.564-.316,1.136,1.136,0,0,1,.746.15,9.13,9.13,0,0,0,2.259.9,9.2,9.2,0,0,0,2.131.255,4.122,4.122,0,0,0,2.388-.569,1.773,1.773,0,0,0,.8-1.518,1.5,1.5,0,0,0-.526-1.221,3.78,3.78,0,0,0-1.621-.668l-2.852-.578a5.3,5.3,0,0,1-2.818-1.369,3.5,3.5,0,0,1-.949-2.539,3.913,3.913,0,0,1,.752-2.395,4.807,4.807,0,0,1,2.1-1.568,8.1,8.1,0,0,1,3.1-.553,9.321,9.321,0,0,1,2.492.324,7.588,7.588,0,0,1,2.183.993,1.136,1.136,0,0,1,.5.556,1.1,1.1,0,0,1,.049.674,1.279,1.279,0,0,1-.317.59.959.959,0,0,1-.58.3,1.271,1.271,0,0,1-.767-.174,7.181,7.181,0,0,0-1.8-.8,6.515,6.515,0,0,0-1.752-.249,3.948,3.948,0,0,0-2.37.592,1.863,1.863,0,0,0-.8,1.571,1.658,1.658,0,0,0,.481,1.224,2.871,2.871,0,0,0,1.5.683l2.852.579a5.936,5.936,0,0,1,2.942,1.329,3.283,3.283,0,0,1,.992,2.51A3.856,3.856,0,0,1,151.5-.919,7.264,7.264,0,0,1,147.111.283Zm14.527,0a12.714,12.714,0,0,1-2.713-.3,7.892,7.892,0,0,1-2.562-1.043,1.378,1.378,0,0,1-.536-.588,1.242,1.242,0,0,1-.107-.68,1.1,1.1,0,0,1,.265-.592.959.959,0,0,1,.564-.316,1.136,1.136,0,0,1,.746.15,9.13,9.13,0,0,0,2.259.9,9.2,9.2,0,0,0,2.131.255,4.122,4.122,0,0,0,2.388-.569,1.773,1.773,0,0,0,.8-1.518,1.5,1.5,0,0,0-.526-1.221,3.78,3.78,0,0,0-1.621-.668l-2.852-.578a5.3,5.3,0,0,1-2.818-1.369,3.5,3.5,0,0,1-.949-2.539,3.913,3.913,0,0,1,.752-2.395,4.807,4.807,0,0,1,2.1-1.568,8.1,8.1,0,0,1,3.1-.553,9.321,9.321,0,0,1,2.492.324,7.588,7.588,0,0,1,2.183.993,1.136,1.136,0,0,1,.5.556,1.1,1.1,0,0,1,.049.674,1.279,1.279,0,0,1-.317.59.959.959,0,0,1-.58.3,1.271,1.271,0,0,1-.767-.174,7.181,7.181,0,0,0-1.8-.8,6.515,6.515,0,0,0-1.752-.249,3.948,3.948,0,0,0-2.37.592,1.863,1.863,0,0,0-.8,1.571,1.658,1.658,0,0,0,.481,1.224,2.871,2.871,0,0,0,1.5.683l2.852.579a5.936,5.936,0,0,1,2.942,1.329,3.283,3.283,0,0,1,.992,2.51,3.856,3.856,0,0,1-1.641,3.288A7.264,7.264,0,0,1,161.638.283Zm-150,34A9.95,9.95,0,0,1,6.4,32.941a9,9,0,0,1-3.451-3.782A12.707,12.707,0,0,1,1.733,23.41a13.624,13.624,0,0,1,.694-4.494A9.7,9.7,0,0,1,4.417,15.5,8.716,8.716,0,0,1,7.54,13.328a10.558,10.558,0,0,1,4.094-.761,10.064,10.064,0,0,1,5.253,1.326,8.908,8.908,0,0,1,3.44,3.752,12.648,12.648,0,0,1,1.217,5.734,13.679,13.679,0,0,1-.7,4.509,9.893,9.893,0,0,1-1.994,3.441,8.63,8.63,0,0,1-3.123,2.192A10.558,10.558,0,0,1,11.634,34.283Zm0-2.7a6.449,6.449,0,0,0,3.6-.965,6.128,6.128,0,0,0,2.273-2.8A11.089,11.089,0,0,0,18.3,23.41,9.284,9.284,0,0,0,16.561,17.4a5.99,5.99,0,0,0-4.927-2.132,6.5,6.5,0,0,0-3.578.954A6.043,6.043,0,0,0,5.772,19,11.048,11.048,0,0,0,4.98,23.41a9.3,9.3,0,0,0,1.75,6.009A5.954,5.954,0,0,0,11.634,31.581Zm15.249,8.041a1.5,1.5,0,0,1-1.115-.393,1.556,1.556,0,0,1-.389-1.141v-17.4a1.553,1.553,0,0,1,.389-1.145,1.48,1.48,0,0,1,1.094-.389,1.51,1.51,0,0,1,1.115.389,1.553,1.553,0,0,1,.389,1.145V23.3l-.33-.64a4.624,4.624,0,0,1,1.88-2.6,5.743,5.743,0,0,1,3.342-.973A5.967,5.967,0,0,1,38.9,22.633a9.328,9.328,0,0,1,.806,4.043,9.463,9.463,0,0,1-.8,4.039,5.91,5.91,0,0,1-5.649,3.568,5.683,5.683,0,0,1-3.31-.967,4.716,4.716,0,0,1-1.89-2.541h.351v7.314a1.383,1.383,0,0,1-1.526,1.534Zm5.619-7.7a3.954,3.954,0,0,0,2.185-.6,3.885,3.885,0,0,0,1.448-1.77,7.146,7.146,0,0,0,.513-2.872,5.866,5.866,0,0,0-1.128-3.9A3.763,3.763,0,0,0,32.5,21.455a4.006,4.006,0,0,0-2.184.59A3.822,3.822,0,0,0,28.87,23.8a7.141,7.141,0,0,0-.513,2.876,5.9,5.9,0,0,0,1.133,3.9A3.74,3.74,0,0,0,32.5,31.918Zm12.1,7.7a1.5,1.5,0,0,1-1.115-.393,1.556,1.556,0,0,1-.389-1.141v-17.4a1.553,1.553,0,0,1,.389-1.145,1.48,1.48,0,0,1,1.094-.389,1.51,1.51,0,0,1,1.115.389,1.553,1.553,0,0,1,.389,1.145V23.3l-.33-.64a4.624,4.624,0,0,1,1.88-2.6,5.743,5.743,0,0,1,3.342-.973,5.967,5.967,0,0,1,5.644,3.542,9.328,9.328,0,0,1,.806,4.043,9.463,9.463,0,0,1-.8,4.039,5.91,5.91,0,0,1-5.649,3.568,5.683,5.683,0,0,1-3.31-.967,4.716,4.716,0,0,1-1.89-2.541h.351v7.314a1.383,1.383,0,0,1-1.526,1.534Zm5.619-7.7a3.954,3.954,0,0,0,2.185-.6,3.885,3.885,0,0,0,1.448-1.77,7.146,7.146,0,0,0,.513-2.872,5.866,5.866,0,0,0-1.128-3.9,3.763,3.763,0,0,0-3.017-1.324,4.006,4.006,0,0,0-2.184.59A3.822,3.822,0,0,0,46.592,23.8a7.141,7.141,0,0,0-.513,2.876,5.9,5.9,0,0,0,1.133,3.9A3.74,3.74,0,0,0,50.224,31.918Zm16.95,2.364a7.5,7.5,0,0,1-3.808-.93,6.366,6.366,0,0,1-2.506-2.642,8.627,8.627,0,0,1-.891-4.035,9.2,9.2,0,0,1,.5-3.143,6.761,6.761,0,0,1,1.454-2.391,6.293,6.293,0,0,1,2.279-1.526,8.012,8.012,0,0,1,2.968-.525,7.5,7.5,0,0,1,3.808.93,6.381,6.381,0,0,1,2.506,2.631,8.563,8.563,0,0,1,.891,4.024,9.286,9.286,0,0,1-.5,3.154,6.747,6.747,0,0,1-1.454,2.4,6.3,6.3,0,0,1-2.275,1.526A8,8,0,0,1,67.175,34.283Zm0-2.364a3.954,3.954,0,0,0,2.184-.6,3.885,3.885,0,0,0,1.448-1.77,7.146,7.146,0,0,0,.513-2.872,5.866,5.866,0,0,0-1.128-3.9,3.763,3.763,0,0,0-3.017-1.324,4.006,4.006,0,0,0-2.184.59A3.824,3.824,0,0,0,63.542,23.8a7.138,7.138,0,0,0-.513,2.876,5.9,5.9,0,0,0,1.133,3.9A3.741,3.741,0,0,0,67.175,31.918Zm12.146,2.3a1.543,1.543,0,0,1-1.147-.4,1.568,1.568,0,0,1-.4-1.152V20.685a1.553,1.553,0,0,1,.389-1.145,1.48,1.48,0,0,1,1.094-.389,1.464,1.464,0,0,1,1.09.389,1.563,1.563,0,0,1,.385,1.145V22.87h-.3a4.682,4.682,0,0,1,1.759-2.73,6.174,6.174,0,0,1,3.3-1.066,1.069,1.069,0,0,1,.849.254,1.346,1.346,0,0,1,.366.938,1.316,1.316,0,0,1-.289,1,1.5,1.5,0,0,1-1.011.45l-.573.052A4.616,4.616,0,0,0,81.867,23a3.939,3.939,0,0,0-1.021,2.876v6.791a1.605,1.605,0,0,1-.385,1.152A1.5,1.5,0,0,1,79.32,34.223Zm16.715.06a6.527,6.527,0,0,1-3.043-.638,4.055,4.055,0,0,1-1.818-1.861,6.861,6.861,0,0,1-.6-3.018V21.69H88.768a1.3,1.3,0,0,1-.928-.31,1.272,1.272,0,0,1,0-1.708,1.33,1.33,0,0,1,.928-.3H90.58V16.262a1.528,1.528,0,0,1,.4-1.145,1.548,1.548,0,0,1,1.126-.389,1.509,1.509,0,0,1,1.115.389,1.553,1.553,0,0,1,.389,1.145v3.112h3.5a1.327,1.327,0,0,1,.932.3,1.285,1.285,0,0,1,0,1.708,1.3,1.3,0,0,1-.932.31h-3.5v6.848a3.679,3.679,0,0,0,.673,2.4,2.713,2.713,0,0,0,2.2.811,3.757,3.757,0,0,0,.939-.1,3.924,3.924,0,0,1,.686-.124.618.618,0,0,1,.518.2,1.286,1.286,0,0,1,.21.857,2.153,2.153,0,0,1-.16.848.924.924,0,0,1-.584.524,7.066,7.066,0,0,1-.972.225A6.467,6.467,0,0,1,96.035,34.283Zm9.954,0a6.038,6.038,0,0,1-2.978-.662,4.078,4.078,0,0,1-1.763-1.977,8.115,8.115,0,0,1-.581-3.273V20.685a1.351,1.351,0,0,1,1.5-1.534,1.575,1.575,0,0,1,1.126.378,1.522,1.522,0,0,1,.4,1.156v7.693A4.019,4.019,0,0,0,104.414,31a2.813,2.813,0,0,0,2.279.854,3.624,3.624,0,0,0,2.777-1.156,4.305,4.305,0,0,0,1.077-3.057V20.685a1.351,1.351,0,0,1,1.5-1.534,1.575,1.575,0,0,1,1.126.378,1.521,1.521,0,0,1,.4,1.156V32.667q0,1.556-1.475,1.556a1.447,1.447,0,0,1-1.094-.4,1.6,1.6,0,0,1-.389-1.152V30.136l.4.639a5.167,5.167,0,0,1-1.935,2.6A5.353,5.353,0,0,1,105.989,34.283Zm13.339-.06a1.477,1.477,0,0,1-1.115-.4,1.594,1.594,0,0,1-.389-1.152V20.685a1.553,1.553,0,0,1,.389-1.145,1.48,1.48,0,0,1,1.094-.389,1.464,1.464,0,0,1,1.09.389,1.563,1.563,0,0,1,.385,1.145V23.02l-.33-.533a4.92,4.92,0,0,1,2.059-2.536,6.1,6.1,0,0,1,3.23-.86,5.881,5.881,0,0,1,2.906.643,3.982,3.982,0,0,1,1.714,1.947,8.256,8.256,0,0,1,.57,3.292v7.694a1.6,1.6,0,0,1-.389,1.152,1.477,1.477,0,0,1-1.115.4,1.514,1.514,0,0,1-1.126-.4,1.568,1.568,0,0,1-.4-1.152V25.136a4.244,4.244,0,0,0-.727-2.75,2.819,2.819,0,0,0-2.286-.867,3.872,3.872,0,0,0-2.937,1.148,4.241,4.241,0,0,0-1.1,3.057v6.943A1.362,1.362,0,0,1,119.328,34.223Zm17.272-.047a1.417,1.417,0,0,1-1.115-.436,1.747,1.747,0,0,1-.389-1.205v-11.7a1.735,1.735,0,0,1,.389-1.22A1.443,1.443,0,0,1,136.6,19.2a1.479,1.479,0,0,1,1.126.421,1.705,1.705,0,0,1,.4,1.22v11.7a1.759,1.759,0,0,1-.385,1.205A1.442,1.442,0,0,1,136.6,34.175Zm0-18.08a1.974,1.974,0,0,1-1.383-.456,1.616,1.616,0,0,1-.5-1.255,1.593,1.593,0,0,1,.5-1.266,2.435,2.435,0,0,1,2.782,0,1.618,1.618,0,0,1,.483,1.266A1.642,1.642,0,0,1,138,15.64,1.964,1.964,0,0,1,136.6,16.1Zm12.024,18.187a6.527,6.527,0,0,1-3.043-.638,4.055,4.055,0,0,1-1.818-1.861,6.861,6.861,0,0,1-.6-3.018V21.69h-1.812a1.3,1.3,0,0,1-.928-.31,1.272,1.272,0,0,1,0-1.708,1.33,1.33,0,0,1,.928-.3h1.812V16.262a1.528,1.528,0,0,1,.4-1.145,1.548,1.548,0,0,1,1.126-.389,1.509,1.509,0,0,1,1.115.389,1.553,1.553,0,0,1,.389,1.145v3.112h3.5a1.327,1.327,0,0,1,.932.3,1.284,1.284,0,0,1,0,1.708,1.3,1.3,0,0,1-.932.31h-3.5v6.848a3.679,3.679,0,0,0,.673,2.4,2.712,2.712,0,0,0,2.2.811,3.757,3.757,0,0,0,.939-.1,3.923,3.923,0,0,1,.686-.124.618.618,0,0,1,.518.2,1.286,1.286,0,0,1,.21.857,2.153,2.153,0,0,1-.16.848.924.924,0,0,1-.584.524,7.066,7.066,0,0,1-.972.225A6.467,6.467,0,0,1,148.624,34.283Zm6.494-.107A1.417,1.417,0,0,1,154,33.739a1.747,1.747,0,0,1-.389-1.205v-11.7a1.735,1.735,0,0,1,.389-1.22,1.443,1.443,0,0,1,1.115-.421,1.479,1.479,0,0,1,1.126.421,1.705,1.705,0,0,1,.4,1.22v11.7a1.759,1.759,0,0,1-.385,1.205A1.442,1.442,0,0,1,155.119,34.175Zm0-18.08a1.974,1.974,0,0,1-1.383-.456,1.616,1.616,0,0,1-.5-1.255,1.593,1.593,0,0,1,.5-1.266,2.435,2.435,0,0,1,2.782,0A1.618,1.618,0,0,1,157,14.385a1.642,1.642,0,0,1-.483,1.255A1.964,1.964,0,0,1,155.119,16.1Zm12.656,18.187a8.664,8.664,0,0,1-4.125-.921,6.457,6.457,0,0,1-2.671-2.618,8.186,8.186,0,0,1-.94-4.028,8.277,8.277,0,0,1,.919-3.986,6.8,6.8,0,0,1,2.54-2.672,7.1,7.1,0,0,1,3.708-.966,7,7,0,0,1,2.718.5,5.66,5.66,0,0,1,2.052,1.444,6.369,6.369,0,0,1,1.3,2.286,9.545,9.545,0,0,1,.448,3.027.923.923,0,0,1-.314.756,1.382,1.382,0,0,1-.9.259H162.426V25.508h9.228l-.489.424a6.485,6.485,0,0,0-.444-2.549,3.473,3.473,0,0,0-1.3-1.594,3.806,3.806,0,0,0-2.122-.556,4.188,4.188,0,0,0-2.379.654,4.1,4.1,0,0,0-1.489,1.819,6.78,6.78,0,0,0-.508,2.73v.193a5.59,5.59,0,0,0,1.25,3.952,4.72,4.72,0,0,0,3.622,1.336,8.456,8.456,0,0,0,1.9-.23,6.17,6.17,0,0,0,1.91-.8,1.594,1.594,0,0,1,.915-.28,1,1,0,0,1,.656.271,1.085,1.085,0,0,1,.315.6,1.21,1.21,0,0,1-.113.738,1.616,1.616,0,0,1-.631.667,7.526,7.526,0,0,1-2.376,1.049A10.321,10.321,0,0,1,167.775,34.283Zm14.339,0a12.714,12.714,0,0,1-2.713-.3,7.892,7.892,0,0,1-2.562-1.043,1.378,1.378,0,0,1-.536-.588,1.242,1.242,0,0,1-.107-.68,1.1,1.1,0,0,1,.265-.592.959.959,0,0,1,.564-.316,1.136,1.136,0,0,1,.746.15,8.793,8.793,0,0,0,4.389,1.159,4.122,4.122,0,0,0,2.388-.569,1.773,1.773,0,0,0,.8-1.518,1.5,1.5,0,0,0-.526-1.221,3.78,3.78,0,0,0-1.621-.668l-2.852-.578a5.3,5.3,0,0,1-2.818-1.369,3.5,3.5,0,0,1-.949-2.539,3.913,3.913,0,0,1,.752-2.395,4.807,4.807,0,0,1,2.1-1.568,8.1,8.1,0,0,1,3.1-.553,9.321,9.321,0,0,1,2.492.324,7.588,7.588,0,0,1,2.183.993,1.136,1.136,0,0,1,.5.556,1.1,1.1,0,0,1,.049.674,1.279,1.279,0,0,1-.317.59.959.959,0,0,1-.58.3,1.271,1.271,0,0,1-.767-.174,7.181,7.181,0,0,0-1.8-.8,6.515,6.515,0,0,0-1.752-.249,3.948,3.948,0,0,0-2.37.592,1.863,1.863,0,0,0-.8,1.571,1.658,1.658,0,0,0,.481,1.224,2.871,2.871,0,0,0,1.5.683l2.852.579a5.936,5.936,0,0,1,2.942,1.329,3.283,3.283,0,0,1,.992,2.51,3.856,3.856,0,0,1-1.641,3.288A7.264,7.264,0,0,1,182.114,34.283ZM4.526,68.223a1.513,1.513,0,0,1-1.126-.4A1.569,1.569,0,0,1,3,66.667V55.69H1.335a1.3,1.3,0,0,1-.928-.31,1.272,1.272,0,0,1,0-1.708,1.331,1.331,0,0,1,.928-.3h2.52l-.854.8V53.083A6.2,6.2,0,0,1,4.47,48.6a6.542,6.542,0,0,1,4.279-1.772l.951-.082a1.139,1.139,0,0,1,.8.161,1,1,0,0,1,.4.543,1.331,1.331,0,0,1,.021.678,1.294,1.294,0,0,1-.314.6.893.893,0,0,1-.609.289l-.576.047a3.8,3.8,0,0,0-2.577,1,3.666,3.666,0,0,0-.806,2.579v1.18l-.411-.463H8.954a1.328,1.328,0,0,1,.932.3,1.284,1.284,0,0,1,0,1.708,1.3,1.3,0,0,1-.932.31H6.03V66.667A1.353,1.353,0,0,1,4.526,68.223Zm13.958.06a7.5,7.5,0,0,1-3.808-.93,6.367,6.367,0,0,1-2.506-2.642,8.627,8.627,0,0,1-.891-4.035,9.2,9.2,0,0,1,.5-3.143,6.761,6.761,0,0,1,1.454-2.391,6.293,6.293,0,0,1,2.279-1.526,8.012,8.012,0,0,1,2.968-.525,7.5,7.5,0,0,1,3.808.93A6.381,6.381,0,0,1,24.8,56.652a8.563,8.563,0,0,1,.891,4.024,9.286,9.286,0,0,1-.5,3.154,6.747,6.747,0,0,1-1.454,2.4,6.3,6.3,0,0,1-2.275,1.526A8,8,0,0,1,18.484,68.283Zm0-2.364a3.954,3.954,0,0,0,2.184-.6,3.885,3.885,0,0,0,1.448-1.77,7.146,7.146,0,0,0,.513-2.872,5.866,5.866,0,0,0-1.128-3.9,3.763,3.763,0,0,0-3.017-1.324,4.006,4.006,0,0,0-2.184.59A3.824,3.824,0,0,0,14.852,57.8a7.138,7.138,0,0,0-.513,2.876,5.9,5.9,0,0,0,1.133,3.9A3.741,3.741,0,0,0,18.484,65.918Zm15.839,2.364a6.038,6.038,0,0,1-2.978-.662,4.078,4.078,0,0,1-1.763-1.977A8.115,8.115,0,0,1,29,62.37V54.685a1.351,1.351,0,0,1,1.5-1.534,1.575,1.575,0,0,1,1.126.378,1.521,1.521,0,0,1,.4,1.156v7.693A4.019,4.019,0,0,0,32.749,65a2.813,2.813,0,0,0,2.279.854A3.624,3.624,0,0,0,37.8,64.7a4.305,4.305,0,0,0,1.077-3.057V54.685a1.351,1.351,0,0,1,1.5-1.534,1.575,1.575,0,0,1,1.126.378,1.521,1.521,0,0,1,.4,1.156V66.667q0,1.556-1.475,1.556a1.447,1.447,0,0,1-1.094-.4,1.594,1.594,0,0,1-.389-1.152V64.136l.4.639a5.167,5.167,0,0,1-1.935,2.6A5.353,5.353,0,0,1,34.324,68.283Zm13.339-.06a1.477,1.477,0,0,1-1.115-.4,1.594,1.594,0,0,1-.389-1.152V54.685a1.553,1.553,0,0,1,.389-1.145,1.48,1.48,0,0,1,1.094-.389,1.464,1.464,0,0,1,1.09.389,1.563,1.563,0,0,1,.385,1.145V57.02l-.33-.533a4.92,4.92,0,0,1,2.059-2.536,6.1,6.1,0,0,1,3.23-.86,5.881,5.881,0,0,1,2.906.643,3.982,3.982,0,0,1,1.714,1.947,8.256,8.256,0,0,1,.57,3.292v7.694a1.594,1.594,0,0,1-.389,1.152,1.477,1.477,0,0,1-1.115.4,1.514,1.514,0,0,1-1.126-.4,1.568,1.568,0,0,1-.4-1.152V59.136a4.244,4.244,0,0,0-.727-2.75,2.819,2.819,0,0,0-2.286-.867,3.872,3.872,0,0,0-2.937,1.148,4.241,4.241,0,0,0-1.1,3.057v6.943A1.362,1.362,0,0,1,47.662,68.223Zm21.365.06a5.948,5.948,0,0,1-5.644-3.568,10.565,10.565,0,0,1,0-8.082,6.121,6.121,0,0,1,2.256-2.616,6.184,6.184,0,0,1,3.392-.926,5.718,5.718,0,0,1,3.3.952,4.613,4.613,0,0,1,1.875,2.535h-.33V48.162a1.553,1.553,0,0,1,.389-1.145,1.509,1.509,0,0,1,1.115-.389,1.548,1.548,0,0,1,1.126.389,1.528,1.528,0,0,1,.4,1.145V66.667a1.594,1.594,0,0,1-.389,1.152,1.742,1.742,0,0,1-2.231,0,1.594,1.594,0,0,1-.389-1.152V64.049l.33.64A4.612,4.612,0,0,1,72.363,67.3,5.694,5.694,0,0,1,69.028,68.283Zm.755-2.364a3.954,3.954,0,0,0,2.184-.6,3.885,3.885,0,0,0,1.448-1.77,7.146,7.146,0,0,0,.513-2.872,5.866,5.866,0,0,0-1.128-3.9,3.763,3.763,0,0,0-3.017-1.324,4.006,4.006,0,0,0-2.184.59A3.824,3.824,0,0,0,66.15,57.8a7.138,7.138,0,0,0-.513,2.876,5.9,5.9,0,0,0,1.133,3.9A3.741,3.741,0,0,0,69.782,65.918Z" transform="translate(283 699)" fill="#bababa"/>
  </g>
</svg>
