<svg xmlns="http://www.w3.org/2000/svg" xmlns:xlink="http://www.w3.org/1999/xlink" width="39.442" height="38" viewBox="0 0 39.442 38">
  <defs>
    <clipPath id="clip-path">
      <rect id="Rectangle_2280" data-name="Rectangle 2280" width="3.753" height="5.376" fill="#95d177" stroke="#95d177" stroke-width="0.2"/>
    </clipPath>
  </defs>
  <g id="Group_10598" data-name="Group 10598" transform="translate(-418 -762)">
    <path id="Path_4011" data-name="Path 4011" d="M8.557,45.942c2.357,1.351,8.475,4.69,11.386,4.69.066,0,.131,0,.194,0,5.134-.288,17.23-8.8,18.034-9.369a2.555,2.555,0,0,0-2.4-4.509l-7.461,3.6a2.584,2.584,0,0,0-2.589-2.524H21.441a12,12,0,0,0-7.283-3.024c-2.413-.057-4.58-.074-5.6-.078V33.505H0V47.616H8.557Zm5.572-9.89a10.774,10.774,0,0,1,6.659,2.864l.178.161h4.759a1.351,1.351,0,1,1,0,2.7H16.993v1.246h8.732a2.585,2.585,0,0,0,2.056-1.029l8.536-4.123a1.286,1.286,0,0,1,1.265.069,1.309,1.309,0,0,1-.053,2.25l-.055.035c-.125.089-12.566,8.887-17.407,9.159-2.474.14-8.875-3.324-11.51-4.882V35.974c1.018,0,3.172.021,5.572.078M7.311,46.37H1.246V34.751H7.311Z" transform="translate(418 749.367)" fill="#95d177"/>
    <rect id="Rectangle_2230" data-name="Rectangle 2230" width="1.246" height="1.124" transform="translate(422.928 788.07)" fill="#95d177"/>
    <rect id="Rectangle_2231" data-name="Rectangle 2231" width="1.246" height="1.124" transform="translate(422.928 790.312)" fill="#95d177"/>
    <rect id="Rectangle_2232" data-name="Rectangle 2232" width="1.246" height="1.124" transform="translate(422.928 792.554)" fill="#95d177"/>
    <path id="Path_4012" data-name="Path 4012" d="M35.17,6.086a6.092,6.092,0,1,0-6.092,6.091A6.1,6.1,0,0,0,35.17,6.086m-10.937,0a4.846,4.846,0,1,1,4.845,4.845,4.848,4.848,0,0,1-4.845-4.845" transform="translate(409.333 762)" fill="#95d177"/>
    <path id="Path_4013" data-name="Path 4013" d="M42.56,21.6a6.089,6.089,0,1,0,0-12.177,6.19,6.19,0,0,0-1.228.121l.249,1.221a4.912,4.912,0,0,1,.979-.1,4.843,4.843,0,1,1-4.8,5.533l-1.234.178A6.124,6.124,0,0,0,42.56,21.6" transform="translate(404.227 758.449)" fill="#95d177"/>
    <path id="Path_4014" data-name="Path 4014" d="M9.542,15.5a6.089,6.089,0,0,0,12.116.871L20.425,16.2a4.843,4.843,0,1,1-4.8-5.533,4.555,4.555,0,0,1,.984.1l.264-1.219a5.839,5.839,0,0,0-1.247-.129A6.093,6.093,0,0,0,9.542,15.5" transform="translate(414.402 758.449)" fill="#95d177"/>
    <g id="Group_10352" data-name="Group 10352" transform="translate(436.535 765.401)">
      <g id="Group_10351" data-name="Group 10351" clip-path="url(#clip-path)">
        <path id="Path_5853" data-name="Path 5853" d="M3.507,1.309H2.6A1.528,1.528,0,0,0,2.377.717,1.67,1.67,0,0,0,2.2.492h.906c.132,0,.264,0,.4,0h.006A.249.249,0,0,0,3.753.246.25.25,0,0,0,3.507,0H.648c-.132,0-.264,0-.4,0H.246A.249.249,0,0,0,0,.246.271.271,0,0,0,.027.352.26.26,0,0,0,.058.4L.074.419A.238.238,0,0,0,.246.492h.777A1.86,1.86,0,0,1,1.21.5a1.323,1.323,0,0,1,.263.071,1.352,1.352,0,0,1,.249.145A1.353,1.353,0,0,1,1.908.9a1.352,1.352,0,0,1,.145.249,1.332,1.332,0,0,1,.05.159H.648c-.132,0-.264,0-.4,0H.246a.246.246,0,1,0,0,.492H2.1a1.333,1.333,0,0,1-.049.157,1.352,1.352,0,0,1-.145.249,1.354,1.354,0,0,1-.185.185,1.352,1.352,0,0,1-.249.145,1.323,1.323,0,0,1-.264.071,2.952,2.952,0,0,1-.3.008H.4a.249.249,0,0,0-.246.246c0,.057,0,.114,0,.171a.262.262,0,0,0,.084.189l.118.109.514.478.682.635.615.572c.1.095.2.19.3.283l0,0a.258.258,0,0,0,.174.072A.253.253,0,0,0,2.826,5.3.246.246,0,0,0,2.9,5.13a.254.254,0,0,0-.073-.172L2.6,4.749l-.538-.5-.648-.6L.853,3.123.838,3.109c.1,0,.195,0,.292,0a1.571,1.571,0,0,0,1.312-.827A1.6,1.6,0,0,0,2.6,1.8h.5c.132,0,.264,0,.4,0h.006a.246.246,0,0,0,0-.492" transform="translate(0 0)" fill="#95d177" stroke="#95d177" stroke-width="0.2"/>
      </g>
    </g>
    <g id="Group_10353" data-name="Group 10353" transform="translate(428.126 771.489)">
      <g id="Group_10351-2" data-name="Group 10351" clip-path="url(#clip-path)">
        <path id="Path_5853-2" data-name="Path 5853" d="M3.507,1.309H2.6A1.528,1.528,0,0,0,2.377.717,1.67,1.67,0,0,0,2.2.492h.906c.132,0,.264,0,.4,0h.006A.249.249,0,0,0,3.753.246.25.25,0,0,0,3.507,0H.648c-.132,0-.264,0-.4,0H.246A.249.249,0,0,0,0,.246.271.271,0,0,0,.027.352.26.26,0,0,0,.058.4L.074.419A.238.238,0,0,0,.246.492h.777A1.86,1.86,0,0,1,1.21.5a1.323,1.323,0,0,1,.263.071,1.352,1.352,0,0,1,.249.145A1.353,1.353,0,0,1,1.908.9a1.352,1.352,0,0,1,.145.249,1.332,1.332,0,0,1,.05.159H.648c-.132,0-.264,0-.4,0H.246a.246.246,0,1,0,0,.492H2.1a1.333,1.333,0,0,1-.049.157,1.352,1.352,0,0,1-.145.249,1.354,1.354,0,0,1-.185.185,1.352,1.352,0,0,1-.249.145,1.323,1.323,0,0,1-.264.071,2.952,2.952,0,0,1-.3.008H.4a.249.249,0,0,0-.246.246c0,.057,0,.114,0,.171a.262.262,0,0,0,.084.189l.118.109.514.478.682.635.615.572c.1.095.2.19.3.283l0,0a.258.258,0,0,0,.174.072A.253.253,0,0,0,2.826,5.3.246.246,0,0,0,2.9,5.13a.254.254,0,0,0-.073-.172L2.6,4.749l-.538-.5-.648-.6L.853,3.123.838,3.109c.1,0,.195,0,.292,0a1.571,1.571,0,0,0,1.312-.827A1.6,1.6,0,0,0,2.6,1.8h.5c.132,0,.264,0,.4,0h.006a.246.246,0,0,0,0-.492" transform="translate(0 0)" fill="#95d177" stroke="#95d177" stroke-width="0.2"/>
      </g>
    </g>
    <g id="Group_10354" data-name="Group 10354" transform="translate(444.944 771.489)">
      <g id="Group_10351-3" data-name="Group 10351" clip-path="url(#clip-path)">
        <path id="Path_5853-3" data-name="Path 5853" d="M3.507,1.309H2.6A1.528,1.528,0,0,0,2.377.717,1.67,1.67,0,0,0,2.2.492h.906c.132,0,.264,0,.4,0h.006A.249.249,0,0,0,3.753.246.25.25,0,0,0,3.507,0H.648c-.132,0-.264,0-.4,0H.246A.249.249,0,0,0,0,.246.271.271,0,0,0,.027.352.26.26,0,0,0,.058.4L.074.419A.238.238,0,0,0,.246.492h.777A1.86,1.86,0,0,1,1.21.5a1.323,1.323,0,0,1,.263.071,1.352,1.352,0,0,1,.249.145A1.353,1.353,0,0,1,1.908.9a1.352,1.352,0,0,1,.145.249,1.332,1.332,0,0,1,.05.159H.648c-.132,0-.264,0-.4,0H.246a.246.246,0,1,0,0,.492H2.1a1.333,1.333,0,0,1-.049.157,1.352,1.352,0,0,1-.145.249,1.354,1.354,0,0,1-.185.185,1.352,1.352,0,0,1-.249.145,1.323,1.323,0,0,1-.264.071,2.952,2.952,0,0,1-.3.008H.4a.249.249,0,0,0-.246.246c0,.057,0,.114,0,.171a.262.262,0,0,0,.084.189l.118.109.514.478.682.635.615.572c.1.095.2.19.3.283l0,0a.258.258,0,0,0,.174.072A.253.253,0,0,0,2.826,5.3.246.246,0,0,0,2.9,5.13a.254.254,0,0,0-.073-.172L2.6,4.749l-.538-.5-.648-.6L.853,3.123.838,3.109c.1,0,.195,0,.292,0a1.571,1.571,0,0,0,1.312-.827A1.6,1.6,0,0,0,2.6,1.8h.5c.132,0,.264,0,.4,0h.006a.246.246,0,0,0,0-.492" transform="translate(0 0)" fill="#95d177" stroke="#95d177" stroke-width="0.2"/>
      </g>
    </g>
  </g>
</svg>
