<svg width="189" height="146" viewBox="0 0 189 146" fill="none" xmlns="http://www.w3.org/2000/svg">
<g clip-path="url(#clip0_239_1344)">
<path d="M183.324 87.0349C181.752 89.7056 179.765 91.7986 177.738 93.9545C177.091 94.642 176.417 95.3057 175.717 95.9434C175.401 96.2304 175.09 96.5116 174.779 96.7943C170.761 100.434 165.967 103.214 160.723 104.826C160.556 104.877 160.388 104.928 160.219 104.977C155.276 106.397 150.271 107.4 145.041 107.451C139.724 107.712 134.36 107.484 128.842 107.161C128.135 107.12 127.427 107.1 126.718 107.098C124.448 107.094 122.319 107.103 120.189 107.372C111.702 108.092 104.658 111.814 98.3949 116.769C95.2632 119.247 92.3232 122.023 89.4884 124.868C79.5736 137.144 65.4293 147.975 48.1835 145.695C46.6886 145.531 45.2968 145.35 43.8027 145.186C41.3117 144.679 38.8359 144.269 36.404 143.453C35.0713 142.964 33.753 142.571 32.4196 142.082C27.176 140.009 22.8125 137.496 18.5095 133.976C17.3239 133.062 16.3436 132.118 15.3483 131.074C12.8753 128.564 10.9444 126.169 9.27798 123.432C2.14311 112.157 6.26662 98.9054 8.20548 86.4992C8.75398 82.4122 7.83717 78.357 6.60826 74.5245C5.39737 70.9429 3.76412 67.5492 2.23105 63.9408C-3.9315 49.3121 2.98353 31.5204 19.2008 26.1624C21.4005 25.4156 23.614 24.7664 25.9003 24.6059C29.4328 24.3485 32.744 24.7266 36.2015 25.3809C45.6075 27.197 54.9068 31.8306 64.7006 29.2987C67.5454 28.6408 70.2757 27.4103 72.7177 25.7446C76.537 23.1686 80.2879 20.5095 84.0402 17.8677C85.9934 16.3697 88.0174 14.9404 90.1033 13.5993C92.1891 12.2574 94.3378 11.0038 96.5397 9.85716C109.849 2.96141 125.287 -1.81385 139.723 0.662348C195.151 10.1724 193.76 69.3089 183.324 87.0342V87.0349Z" fill="#A2E3EB"/>
<path d="M63.6695 10.0143C63.8735 14.8792 58.0923 19.8779 53.2415 20.0825C48.3915 20.2871 44.2939 16.5088 44.0899 11.6439C43.886 6.77901 47.6527 2.66889 52.5027 2.46429C57.3528 2.25969 63.4656 5.1487 63.6695 10.0136V10.0143Z" fill="#A2E3EB"/>
<path d="M123.318 129.451C127.949 128.247 130.729 123.506 129.529 118.862C128.329 114.218 123.603 111.428 118.973 112.632C114.342 113.836 111.562 118.577 112.762 123.221C113.962 127.865 118.688 130.655 123.318 129.451Z" fill="#A2E3EB"/>
<path d="M109.566 129.128C109.915 126.061 107.719 123.291 104.662 122.942C101.605 122.592 98.8438 124.794 98.495 127.861C98.1461 130.927 100.342 133.697 103.399 134.047C106.456 134.397 109.217 132.194 109.566 129.128Z" fill="#A2E3EB"/>
<path d="M157.526 23.6343H36.9796C34.1803 23.6343 31.9111 25.9104 31.9111 28.7182V110.291C31.9111 113.099 34.1803 115.375 36.9796 115.375H157.526C160.325 115.375 162.595 113.099 162.595 110.291V28.7182C162.595 25.9104 160.325 23.6343 157.526 23.6343Z" fill="#424242"/>
<path d="M98.1036 27.4216C98.5734 26.9504 98.5734 26.1864 98.1036 25.7151C97.6338 25.2439 96.8722 25.2439 96.4024 25.7151C95.9326 26.1864 95.9326 26.9504 96.4024 27.4216C96.8722 27.8928 97.6338 27.8928 98.1036 27.4216Z" fill="#6B6B6B"/>
<path d="M15.1926 109.721H179.313C179.831 109.721 180.251 110.143 180.251 110.662V115.089C180.251 115.608 179.831 116.029 179.313 116.029H15.1926C14.6751 116.029 14.2549 115.608 14.2549 115.089V110.662C14.2549 110.143 14.6751 109.721 15.1926 109.721Z" fill="#6E6E6E"/>
<path d="M83.2207 109.721H111.615V109.935C111.615 111.271 110.535 112.354 109.204 112.354H85.6331C84.3019 112.354 83.2214 111.271 83.2214 109.935V109.721H83.2207Z" fill="#999999"/>
<g style="mix-blend-mode:multiply" opacity="0.19">
<path d="M144.499 23.6343H31.9111V99.8916H144.499V23.6343Z" fill="#0B6770"/>
</g>
<path d="M138.165 12.9814H22.3477V93.8608H138.165V12.9814Z" fill="#F7F7F7"/>
<path d="M138.165 11.4849H22.3477V18.7804H138.165V11.4849Z" fill="#7181BF"/>
<g opacity="0.33">
<path opacity="0.33" d="M27.3145 15.3493C27.492 14.6649 27.0828 13.9659 26.4005 13.7878C25.7182 13.6098 25.0213 14.0203 24.8438 14.7047C24.6663 15.3891 25.0756 16.0882 25.7578 16.2662C26.4401 16.4442 27.1371 16.0337 27.3145 15.3493Z" fill="white"/>
<path opacity="0.33" d="M30.6369 16.145C31.2538 15.8027 31.4772 15.0236 31.136 14.4048C30.7948 13.786 30.018 13.5619 29.4012 13.9042C28.7843 14.2464 28.5608 15.0255 28.9021 15.6443C29.2433 16.2631 30.02 16.4872 30.6369 16.145Z" fill="white"/>
<path opacity="0.33" d="M35.1379 15.5219C35.41 14.8696 35.1035 14.1194 34.4532 13.8464C33.8028 13.5734 33.055 13.8809 32.7828 14.5332C32.5107 15.1855 32.8172 15.9357 33.4676 16.2087C34.1179 16.4817 34.8657 16.1742 35.1379 15.5219Z" fill="white"/>
</g>
<path opacity="0.33" d="M60.832 14.8979H101.839" stroke="white" stroke-width="3" stroke-miterlimit="10" stroke-linecap="square"/>
<path opacity="0.33" d="M91.1904 28.0791H127.472" stroke="#C1A8DB" stroke-width="6" stroke-miterlimit="10" stroke-linecap="square"/>
<path opacity="0.33" d="M110.298 32.7754H127.47" stroke="#C1A8DB" stroke-width="6" stroke-miterlimit="10" stroke-linecap="square"/>
<path opacity="0.33" d="M30.6602 28.0791H46.0608" stroke="#C1A8DB" stroke-width="6" stroke-miterlimit="10" stroke-linecap="square"/>
<path d="M30.903 42H56.5256C57.7184 42 58.6864 43.0495 58.6864 44.3429V89.7077C58.6864 91.001 57.7184 92.0506 56.5256 92.0506H30.903C29.7102 92.0506 28.7422 91.001 28.7422 89.7077V44.3429C28.7422 43.0495 29.7102 42 30.903 42Z" fill="#E7E1ED"/>
<path d="M92.3049 42H66.6823C65.4889 42 64.5215 43.049 64.5215 44.3429V89.7077C64.5215 91.0016 65.4889 92.0506 66.6823 92.0506H92.3049C93.4983 92.0506 94.4657 91.0016 94.4657 89.7077V44.3429C94.4657 43.049 93.4983 42 92.3049 42Z" fill="#E7E1ED"/>
<path d="M128.085 42H102.463C101.269 42 100.302 43.049 100.302 44.3429V89.7077C100.302 91.0016 101.269 92.0506 102.463 92.0506H128.085C129.279 92.0506 130.246 91.0016 130.246 89.7077V44.3429C130.246 43.049 129.279 42 128.085 42Z" fill="#E7E1ED"/>
<g style="mix-blend-mode:multiply" opacity="0.26">
<g style="mix-blend-mode:multiply" opacity="0.59">
<path d="M77.7961 73.9561C81.9361 73.9561 85.6842 72.2731 88.3971 69.5513C91.1101 66.83 92.7884 63.0704 92.7884 58.9177C92.7884 50.6123 86.0761 43.8794 77.7961 43.8794C69.5161 43.8794 62.8037 50.6123 62.8037 58.9177C62.8037 67.2231 69.5161 73.9561 77.7961 73.9561Z" fill="white"/>
<path d="M77.7961 73.9561C81.9361 73.9561 85.6842 72.2731 88.3971 69.5513C91.1101 66.83 92.7884 63.0704 92.7884 58.9177C92.7884 50.6123 86.0761 43.8794 77.7961 43.8794C69.5161 43.8794 62.8037 50.6123 62.8037 58.9177C62.8037 67.2231 69.5161 73.9561 77.7961 73.9561Z" stroke="#545454" stroke-width="4" stroke-miterlimit="10"/>
</g>
<g style="mix-blend-mode:multiply" opacity="0.26">
<path d="M77.7961 73.9561C81.9361 73.9561 85.6842 72.2731 88.3971 69.5513C91.1101 66.83 92.7884 63.0704 92.7884 58.9177C92.7884 50.6123 86.0761 43.8794 77.7961 43.8794C69.5161 43.8794 62.8037 50.6123 62.8037 58.9177C62.8037 67.2231 69.5161 73.9561 77.7961 73.9561Z" stroke="#545454" stroke-width="4" stroke-miterlimit="10" stroke-linecap="round"/>
</g>
<g style="mix-blend-mode:multiply" opacity="0.26">
<path d="M101.734 86L85.0645 69.5716L88.3766 66.2085L105.434 82.1475L101.734 86Z" fill="#545454"/>
</g>
</g>
<path opacity="0.74" d="M76.6262 68.0908C80.7662 68.0908 84.5143 66.4079 87.2272 63.6861C89.9402 60.9648 91.6185 57.2052 91.6185 53.0525C91.6185 44.7471 84.9062 38.0142 76.6262 38.0142C68.3461 38.0142 61.6338 44.7471 61.6338 53.0525C61.6338 61.3579 68.3461 68.0908 76.6262 68.0908Z" fill="white"/>
<path d="M76.6262 68.0908C80.7662 68.0908 84.5143 66.4079 87.2272 63.6861C89.9402 60.9648 91.6185 57.2052 91.6185 53.0525C91.6185 44.7471 84.9062 38.0142 76.6262 38.0142C68.3461 38.0142 61.6338 44.7471 61.6338 53.0525C61.6338 61.3579 68.3461 68.0908 76.6262 68.0908Z" stroke="#505BD4" stroke-width="4" stroke-miterlimit="10" stroke-linecap="round"/>
<path d="M102.646 78.9651L87.2275 63.686" stroke="#505BD4" stroke-width="4" stroke-miterlimit="10" stroke-linecap="square"/>
</g>
<defs>
<clipPath id="clip0_239_1344">
<rect width="189" height="146" fill="white"/>
</clipPath>
</defs>
</svg>
