<svg xmlns="http://www.w3.org/2000/svg" width="19.845" height="25" viewBox="0 0 19.845 25"><defs><style>.a{fill:#f37921;}</style></defs><path class="a" d="M34.053,54.9a2.942,2.942,0,0,1-2.942-2.942h5.884A2.941,2.941,0,0,1,34.053,54.9Z" transform="translate(-24.13 -29.901)"/><path class="a" d="M39.3,34.25h0c0,1.085-.88,1.157-1.965,1.157H21.418c-1.086,0-1.965-.071-1.965-1.157v-.187A1.96,1.96,0,0,1,20.57,32.3l.624-5.382a8.182,8.182,0,0,1,6.5-8V16.821a1.683,1.683,0,0,1,3.366,0v2.09a8.181,8.181,0,0,1,6.5,8l.624,5.383A1.959,1.959,0,0,1,39.3,34.063Z" transform="translate(-19.453 -15.139)"/></svg>