<svg xmlns="http://www.w3.org/2000/svg" width="34.861" height="43.916" viewBox="0 0 34.861 43.916"><defs><style>.a{fill:#fff;}</style></defs><g transform="translate(-19.453 -15.139)"><path class="a" d="M36.269,57.117a5.158,5.158,0,0,1-5.158-5.158H41.427A5.157,5.157,0,0,1,36.269,57.117Z" transform="translate(0.614 1.938)"/><path class="a" d="M54.314,48.724h0c0,1.907-1.546,2.033-3.452,2.033H22.9c-1.907,0-3.451-.126-3.451-2.033V48.4a3.444,3.444,0,0,1,1.963-3.1l1.1-9.458A14.377,14.377,0,0,1,33.927,21.767V18.095a2.956,2.956,0,0,1,5.913,0v3.672A14.376,14.376,0,0,1,51.256,35.834l1.1,9.46a3.443,3.443,0,0,1,1.962,3.1Z" transform="translate(0 0)"/></g></svg>