<svg xmlns="http://www.w3.org/2000/svg" width="18.49" height="21.064" viewBox="0 0 18.49 21.064">
  <path id="Path_5888" data-name="Path 5888" d="M210.7,117.6a2.745,2.745,0,0,1,2.743,2.614,7.038,7.038,0,0,1,4.293,6.481v3.954a2.231,2.231,0,0,1-.175,4.455H203.837a2.231,2.231,0,0,1-.175-4.455v-3.954a7.037,7.037,0,0,1,4.293-6.481A2.746,2.746,0,0,1,210.7,117.6Zm-1.626,4.028a5.32,5.32,0,0,0-3.694,5.067v4.118a1.545,1.545,0,0,1-1.544,1.545.515.515,0,1,0,0,1.03h13.721a.515.515,0,1,0,0-1.03,1.543,1.543,0,0,1-1.544-1.545v-4.118a5.321,5.321,0,0,0-3.694-5.067l-.6-.191v-1.094a1.03,1.03,0,0,0-2.059,0v1.094ZM207.437,135.1h1.716a1.544,1.544,0,0,0,3.089,0h1.716a3.26,3.26,0,0,1-6.521,0Z" transform="translate(-201.453 -117.45)" fill="#fff" stroke="#fff" stroke-width="0.3"/>
</svg>
