<svg xmlns="http://www.w3.org/2000/svg" width="34.565" height="37.79" viewBox="0 0 34.565 37.79"><defs><style>.a{fill:#593cc7;}</style></defs><g transform="translate(-168.914 -246.83)"><path class="a" d="M203.368,430.611a6.688,6.688,0,0,0-5.131-4.847l-7.278-2a20.856,20.856,0,0,1-4.724,11.995,20.992,20.992,0,0,1-4.73-12.084c-1.02.329-1.986.671-2.97.95-1.534.435-3.085.805-4.618,1.241a6.529,6.529,0,0,0-5,6.64c0,1.973.033,3.946.054,5.919,0,.247.024.494.038.754h34.473c0-2.694,0-5.352,0-8.01A2.2,2.2,0,0,0,203.368,430.611Z" transform="translate(0 -154.556)"/><path class="a" d="M239.29,260.595a2.025,2.025,0,0,1,.46.766c.491,1.265.854,2.592,1.46,3.8a5.545,5.545,0,0,0,3.494,2.964,5.679,5.679,0,0,0,6.445-2.616,13.051,13.051,0,0,0,1.758-4.347.994.994,0,0,1,.35-.541,4.561,4.561,0,0,0,1.707-2.57c.24-.848.061-1.154-.793-1.447.042-.559.1-1.121.122-1.684a10.145,10.145,0,0,0-.014-1.7,13.068,13.068,0,0,0-.5-2.516,3.248,3.248,0,0,0-3.4-2.29c-.116,0-.234-.117-.35-.181a10.373,10.373,0,0,0-2.005-1.09,9.575,9.575,0,0,0-4.676-.047,6.1,6.1,0,0,0-5.034,5.686c-.09,1.263.055,2.544.1,3.947-.7.468-.781.714-.509,1.662A4.633,4.633,0,0,0,239.29,260.595Z" transform="translate(-60.167)"/><path class="a" d="M296.753,460.492c-.3-1.524.038-1.317-1.637-1.345a.57.57,0,0,0-.663.572c-.138.912-.326,1.816-.465,2.728a1.093,1.093,0,0,0,.09.657c.432.763.9,1.5,1.395,2.31,1.229-1.387,2.048-2.788,1.34-4.613A1.8,1.8,0,0,1,296.753,460.492Z" transform="translate(-109.3 -185.562)"/><path class="a" d="M293.027,426.392h-4.479c.411,1.2.778,2.307,1.178,3.4a.573.573,0,0,0,.413.272c1.594.175,1.595.169,2.109-1.336.041-.119.082-.237.122-.356Z" transform="translate(-104.558 -156.934)"/></g></svg>