<svg xmlns="http://www.w3.org/2000/svg" width="70.282" height="37.416" viewBox="0 0 70.282 37.416"><defs><style>.a{fill:#593cc7;}</style></defs><g transform="translate(-203.385 -559.294)"><g transform="translate(203.385 526.428)"><path class="a" d="M172.082,387.137c0-1.9-.719-2.624-2.6-2.624q-32.49,0-64.98-.018a2.61,2.61,0,0,0-2.7,1.535v34.345a2.645,2.645,0,0,0,2.766,1.536q32.421-.039,64.843-.018c1.981,0,2.673-.7,2.673-2.694Q172.082,403.168,172.082,387.137Zm-47.542,22.208a2.08,2.08,0,0,1,2.1,2.089,2.046,2.046,0,0,1-2.078,2.035q-4.08.032-8.161,0a2.05,2.05,0,0,1-2.1-2.078,2.083,2.083,0,0,1,2.142-2.049c.634-.014,1.269,0,1.938,0V396.927c-.6,0-1.2.005-1.808,0a2.1,2.1,0,0,1-2.272-2.059,2.08,2.08,0,0,1,2.251-2.074q3.909-.013,7.818,0a2.079,2.079,0,1,1-.037,4.135c-.569,0-1.138,0-1.755,0v12.415C123.264,409.342,123.9,409.328,124.539,409.345Zm13.31-4.255c-.948.115-1.911.111-2.968.166,0,2.047.02,4.065-.006,6.083a2.04,2.04,0,0,1-2.973,1.9,2.1,2.1,0,0,1-1.139-2.041c.007-2.9,0-5.792,0-8.688q0-3.655,0-7.309a2.122,2.122,0,0,1,2.4-2.41c1.554.012,3.118-.044,4.658.117a6.153,6.153,0,0,1,.022,12.181Zm21.742-1.945h-.1c0,1.675.13,3.363-.029,5.023a6.1,6.1,0,0,1-12.1.011c-.178-1.891-.116-3.808-.12-5.713a41.933,41.933,0,0,1,.116-4.4,6.109,6.109,0,0,1,11.85-1.073,9.489,9.489,0,0,1,.364,2.3C159.633,400.57,159.59,401.859,159.59,403.146Z" transform="translate(-101.8 -351.629)"/><path class="a" d="M394.715,458.847a2.072,2.072,0,1,0-4.132.021q-.015,3.956,0,7.913a2.075,2.075,0,1,0,4.133-.021c.01-1.307,0-2.615,0-3.922C394.717,461.507,394.727,460.177,394.715,458.847Z" transform="translate(-341.041 -411.249)"/><path class="a" d="M297.193,456.726a18.964,18.964,0,0,0-2.451-.021v4.083c.785,0,1.5.037,2.2-.009a2.05,2.05,0,0,0,1.9-1.925A1.984,1.984,0,0,0,297.193,456.726Z" transform="translate(-261.646 -411.251)"/></g></g></svg>