<svg xmlns="http://www.w3.org/2000/svg" width="70" height="70" viewBox="0 0 70 70"><defs><style>.a{fill:#593cc7;}</style></defs><g transform="translate(399.25 10.887)"><path class="a" d="M-338.193,32.653q-7.026,2.325-14.05,4.652a5.943,5.943,0,0,1-6.029-1.049,10.548,10.548,0,0,1-1.653-1.98c-.748-1.043-1.435-2.13-2.149-3.2l-.125.044V59.113h.136c.208-.089.411-.19.623-.265q11.148-3.973,22.3-7.943a2.131,2.131,0,0,0,1.689-2.4q0-7.655,0-15.309v-.775C-337.764,32.52-337.98,32.582-338.193,32.653Z"/><path class="a" d="M-376.322,37.282q-6.993-2.319-13.987-4.639c-.224-.075-.453-.134-.7-.205a2.594,2.594,0,0,0-.04.285q0,8.03,0,16.06a2.072,2.072,0,0,0,1.618,2.1q10.059,3.574,20.119,7.15c.961.342,1.912.716,2.867,1.075h.137V31.123c-.938,1.177-1.751,2.4-2.572,3.614A6.132,6.132,0,0,1-376.322,37.282Z"/><path class="a" d="M-372.26,32.433q2.261-3.376,4.505-6.764c.085-.129.157-.266.259-.44-.2-.079-.36-.154-.528-.21q-11.844-3.934-23.7-7.85a1.019,1.019,0,0,0-.824.164q-2.84,2.356-5.626,4.774a13.115,13.115,0,0,0-1.08,1.186v1.093a2.7,2.7,0,0,0,1.642,1.508q11.3,3.737,22.594,7.508A2.1,2.1,0,0,0-372.26,32.433Z"/><path class="a" d="M-329.962,22.416c-1.948-1.681-3.923-3.332-5.866-5.019a.97.97,0,0,0-1.088-.2q-9.836,3.279-19.68,6.53c-1.462.485-2.921.979-4.424,1.483.141.234.238.411.35.577q2.177,3.268,4.357,6.534a2.19,2.19,0,0,0,3.029,1.013q11-3.657,22.008-7.3a3,3,0,0,0,2.026-1.647V23.293A6.165,6.165,0,0,0-329.962,22.416Z"/><path class="a" d="M-365.961,12.145a2.117,2.117,0,0,0,3.424,0q4.422-4.416,8.84-8.839c.129-.129.261-.255.377-.395a1.962,1.962,0,0,0,.352-2.164,1.976,1.976,0,0,0-1.815-1.235c-.431-.024-.865-.007-1.3-.007-1.336,0-2.672,0-4.067,0V-1.3c0-2.277-.048-4.555.018-6.83a2.582,2.582,0,0,0-1.522-2.753h-5.2A2.553,2.553,0,0,0-368.374-8.2c.067,2.32.021,4.644.022,6.967,0,.239,0,.477,0,.741-1.814,0-3.521-.011-5.227,0a2.05,2.05,0,0,0-2.114,1.829,2.213,2.213,0,0,0,.794,1.874Q-370.422,7.669-365.961,12.145Z"/><path class="a" d="M-339.577,13.772c-.247-.109-.342-.16-.444-.194-4.4-1.456-8.809-2.9-13.207-4.378a.688.688,0,0,0-.815.249q-2.745,2.763-5.506,5.512c-2.9,2.893-6.486,2.894-9.4-.006-1.825-1.814-3.649-3.632-5.45-5.47a.825.825,0,0,0-1-.237c-3.556,1.195-7.122,2.36-10.684,3.538-.9.3-1.794.606-2.878.972,8.243,2.731,16.27,5.395,24.307,8.031a2.033,2.033,0,0,0,1.167-.1q10.14-3.336,20.268-6.706C-342.054,14.6-340.885,14.208-339.577,13.772Z"/></g></svg>