<svg xmlns="http://www.w3.org/2000/svg" width="51.047" height="50.161" viewBox="0 0 51.047 50.161">
  <g id="Group_2619" data-name="Group 2619" transform="translate(-4.75 -4.75)">
    <g id="Group_2618" data-name="Group 2618" transform="translate(5 5)">
      <path id="Path_6706" data-name="Path 6706" d="M50.867,54.611a.936.936,0,1,1,0-1.872,2.808,2.808,0,0,0,2.808-2.808V45.25a2.808,2.808,0,0,0-2.808-2.808H26.529a2.808,2.808,0,0,0-2.808,2.808v4.68a2.808,2.808,0,0,0,2.808,2.808H37.25a.936.936,0,0,1,0,1.872H26.529a4.681,4.681,0,0,1-4.68-4.68V45.25a4.681,4.681,0,0,1,4.68-4.68H50.867a4.681,4.681,0,0,1,4.68,4.68v4.68A4.681,4.681,0,0,1,50.867,54.611Zm0-17.785H26.529a4.681,4.681,0,0,1-4.68-4.68v-4.68a4.681,4.681,0,0,1,4.68-4.68H48.867a.936.936,0,0,1,0,1.872H26.529a2.808,2.808,0,0,0-2.808,2.808v4.68a2.808,2.808,0,0,0,2.808,2.808H50.867a2.808,2.808,0,0,0,2.808-2.808v-4.68a.936.936,0,1,1,1.872,0v4.68A4.681,4.681,0,0,1,50.867,36.826Zm-36.506,0H9.68A4.681,4.681,0,0,1,5,32.146v-4.68a4.681,4.681,0,0,1,4.68-4.68h4.68a4.681,4.681,0,0,1,4.68,4.68v4.68A4.681,4.681,0,0,1,14.361,36.826ZM9.68,24.657a2.808,2.808,0,0,0-2.808,2.808v4.68A2.808,2.808,0,0,0,9.68,34.954h4.68a2.808,2.808,0,0,0,2.808-2.808v-4.68a2.808,2.808,0,0,0-2.808-2.808Zm41.186-5.616H26.529a4.681,4.681,0,0,1-4.68-4.68V9.68A4.681,4.681,0,0,1,26.529,5a.936.936,0,1,1,0,1.872A2.808,2.808,0,0,0,23.721,9.68v4.68a2.808,2.808,0,0,0,2.808,2.808H50.867a2.808,2.808,0,0,0,2.808-2.808V9.68a2.808,2.808,0,0,0-2.808-2.808H33.082a.936.936,0,0,1,0-1.872H50.867a4.681,4.681,0,0,1,4.68,4.68v4.68A4.681,4.681,0,0,1,50.867,19.041Zm-36.506,0H9.68A4.681,4.681,0,0,1,5,14.361V9.68A4.681,4.681,0,0,1,9.68,5h4.68a4.681,4.681,0,0,1,4.68,4.68v4.68A4.681,4.681,0,0,1,14.361,19.041ZM9.68,6.872A2.808,2.808,0,0,0,6.872,9.68v4.68A2.808,2.808,0,0,0,9.68,17.169h4.68a2.808,2.808,0,0,0,2.808-2.808V9.68a2.808,2.808,0,0,0-2.808-2.808Z" transform="translate(-5 -5)" fill="#3a15a6" stroke="#3a15a6" stroke-width="0.5"/>
    </g>
    <path id="Path_6707" data-name="Path 6707" d="M12.02,57.041a7.02,7.02,0,1,1,7.02-7.02,7.021,7.021,0,0,1-7.02,7.02Z" transform="translate(0 -2.43)" fill="#f37921" stroke="#f37921" stroke-width="0.5"/>
    <path id="Path_6708" data-name="Path 6708" d="M12.148,45A5.148,5.148,0,1,0,17.3,50.148,5.148,5.148,0,0,0,12.148,45Z" transform="translate(-0.128 -2.558)" fill="#fff" stroke="#f37921" stroke-width="0.5"/>
    <path id="Path_6709" data-name="Path 6709" d="M92.71,75.6a.91.91,0,0,0-.91.91v5.281a.91.91,0,0,0,1.82,0V76.51A.91.91,0,0,0,92.71,75.6Z" transform="translate(122.514 -39.009) rotate(90)" fill="#f37921" stroke="#f37921" stroke-width="0.6"/>
  </g>
</svg>
