<svg xmlns="http://www.w3.org/2000/svg" width="28.691" height="32.398" viewBox="0 0 28.691 32.398">
  <g id="Group_1" data-name="Group 1" transform="translate(-60 -59)">
    <path id="Path_258" data-name="Path 258" d="M78.2,98.7c0-.873-.607-1.394-1.675-1.394a3.571,3.571,0,0,0-.887.085v2.8a3.3,3.3,0,0,0,.718.056c1.14,0,1.844-.577,1.844-1.548Zm0,0" transform="translate(-10.622 -23.095)" fill="#ee2424"/>
    <path id="Path_259" data-name="Path 259" d="M97.283,97.371a4.448,4.448,0,0,0-.971.085v6.207a3.858,3.858,0,0,0,.746.043c1.942.012,3.209-1.056,3.209-3.322a2.721,2.721,0,0,0-2.984-3.013Zm0,0" transform="translate(-23.086 -23.137)" fill="#ee2424"/>
    <path id="Path_260" data-name="Path 260" d="M89.875,70.588H89.1V66.835a.539.539,0,0,0-.008-.071.623.623,0,0,0-.15-.411l-6.247-7.136,0,0a.62.62,0,0,0-.126-.105c-.014-.01-.028-.017-.042-.025a.628.628,0,0,0-.125-.053l-.034-.011A.66.66,0,0,0,82.215,59H66.865a1.273,1.273,0,0,0-1.272,1.27V70.588h-.777A1.815,1.815,0,0,0,63,72.4v9.442a1.816,1.816,0,0,0,1.816,1.816h.777v6.464A1.274,1.274,0,0,0,66.865,91.4H87.826A1.274,1.274,0,0,0,89.1,90.126V83.664h.777a1.817,1.817,0,0,0,1.816-1.816V72.4a1.815,1.815,0,0,0-1.816-1.816ZM66.865,60.27H81.58v6.5a.635.635,0,0,0,.636.634h5.611v3.183H66.865Zm15.6,16.906a4.814,4.814,0,0,1-1.577,3.843,6.811,6.811,0,0,1-4.376,1.224,18.725,18.725,0,0,1-2.435-.14V72.786a19.051,19.051,0,0,1,2.9-.2A6.1,6.1,0,0,1,80.855,73.6a4.2,4.2,0,0,1,1.605,3.575ZM65.894,82.145V72.786a17.483,17.483,0,0,1,2.9-.2,4.548,4.548,0,0,1,2.9.76,2.773,2.773,0,0,1,1.012,2.2,3.026,3.026,0,0,1-.873,2.252,4.4,4.4,0,0,1-3.082,1,5.459,5.459,0,0,1-.732-.042v3.392Zm21.932,7.638H66.865v-6.12H87.826Zm1.841-15.366H86.023v2.168h3.406V78.33H86.023v3.815H83.87V72.658h5.8Zm0,0" transform="translate(-3)" fill="#ee2424"/>
  </g>
</svg>
