<svg width="24" height="24" viewBox="0 0 24 24" fill="none" xmlns="http://www.w3.org/2000/svg">
<path d="M21.6 0H7.2C5.88 0 4.8 1.08 4.8 2.4V16.8C4.8 18.12 5.88 19.2 7.2 19.2H21.6C22.92 19.2 24 18.12 24 16.8V2.4C24 1.08 22.92 0 21.6 0ZM21.6 16.8H7.2V2.4H21.6V16.8ZM2.4 4.8H0V21.6C0 22.92 1.08 24 2.4 24H19.2V21.6H2.4V4.8ZM16.8 12V8.4C16.8 7.74 16.26 7.2 15.6 7.2H13.2V13.2H15.6C16.26 13.2 16.8 12.66 16.8 12ZM14.4 8.4H15.6V12H14.4V8.4ZM19.2 10.8H20.4V9.6H19.2V8.4H20.4V7.2H18V13.2H19.2V10.8ZM9.6 10.8H10.8C11.46 10.8 12 10.26 12 9.6V8.4C12 7.74 11.46 7.2 10.8 7.2H8.4V13.2H9.6V10.8ZM9.6 8.4H10.8V9.6H9.6V8.4Z" fill="#F37921"/>
</svg>
