<svg xmlns="http://www.w3.org/2000/svg" width="66.465" height="70" viewBox="0 0 66.465 70"><defs><style>.a{fill:#593cc7;}.b{fill:#fff;stroke:#fff;stroke-width:0.6px;}</style></defs><g transform="translate(-419.5 -188.104)"><path class="a" d="M440.647,231.321v3.989a2.047,2.047,0,0,0,2.047,2.047h9.55a2.047,2.047,0,0,0,2.047-2.047v-3.989A19.082,19.082,0,0,1,440.647,231.321Z" transform="translate(0.056 0.099)"/><path class="a" d="M447.469,228.489a15.026,15.026,0,0,0,15.008-15.008v-4.848a10.323,10.323,0,0,1-6.283,2.126H445.37a6.109,6.109,0,0,1-3.637-1.2,19.116,19.116,0,0,1-7.225,1.2,6.117,6.117,0,0,1-2.047-.352v3.074a15.026,15.026,0,0,0,15.008,15.008Z" transform="translate(0.049 0.06)"/><path class="a" d="M434.508,206.666a14.577,14.577,0,0,0,8.815-2.531v.484a2.047,2.047,0,0,0,2.047,2.047h10.824a6.291,6.291,0,0,0,6.283-6.283A12.293,12.293,0,0,0,450.2,188.1h-5.463a12.288,12.288,0,0,0-12.274,12.274v4.241a2.047,2.047,0,0,0,2.047,2.047Z" transform="translate(0.049)"/><path class="a" d="M452.067,241.45h-9.373a6.147,6.147,0,0,1-6.14-6.14v-5.737l-6.284,1.521a14.044,14.044,0,0,0-10.77,13.687v11.131a2.046,2.046,0,0,0,2.047,2.046h35.958c-5.3-4.037-6.844-11.056-5.438-16.508Z" transform="translate(0 0.146)"/><g transform="translate(456.513 214.857)"><path class="a" d="M466.881,225.445h8.452a1.279,1.279,0,0,0,1.02-.516,13.287,13.287,0,0,0,2.782-8.1v-.845a1.268,1.268,0,0,0-1.267-1.268c-2.349,0-5.41,1.521-6.761,2.261-1.353-.74-4.414-2.261-6.761-2.261a1.268,1.268,0,0,0-1.268,1.268h0v.845a13.287,13.287,0,0,0,2.782,8.1A1.275,1.275,0,0,0,466.881,225.445Z" transform="translate(-456.374 -214.711)"/><path class="a" d="M483.334,239.112a19.711,19.711,0,0,1,2.475,8.472c.009.227.03.451.03.68v.091a9.656,9.656,0,0,1-1.421,4.937,9.276,9.276,0,0,1-1.36,1.993,8.339,8.339,0,0,1-6.379,2.673H465.534a8.339,8.339,0,0,1-6.379-2.673,9.239,9.239,0,0,1-1.36-1.993,9.656,9.656,0,0,1-1.421-4.937v-.091c0-.229.02-.453.03-.68a19.723,19.723,0,0,1,2.474-8.472,37.35,37.35,0,0,1,4.324-6.269c1.311-1.571,2.71-3.068,4.1-4.486a1.265,1.265,0,0,1,.9-.377h5.8a1.262,1.262,0,0,1,.9.377c1.392,1.418,2.79,2.915,4.1,4.486A40.722,40.722,0,0,1,483.334,239.112Z" transform="translate(-456.387 -214.711)"/><g transform="translate(9.987 23.764)"><path class="b" d="M475.272,241.366h-.794a3.561,3.561,0,0,0-.668-1.446h1.465a.723.723,0,0,0,.045-1.444.3.3,0,0,0-.045,0h-7.231a.723.723,0,1,0-.046,1.444.3.3,0,0,0,.046,0h2.893a2.165,2.165,0,0,1,2.035,1.446h-4.927a.723.723,0,0,0-.045,1.446h4.971a2.165,2.165,0,0,1-2.035,1.446h-2.891a.723.723,0,0,0-.51,1.235l5.781,5.78a.723.723,0,1,0,1.058-.984c-.011-.013-.023-.025-.035-.037l-4.549-4.549h1.145a3.616,3.616,0,0,0,3.541-2.891h.8a.723.723,0,0,0,.045-1.446h-.048Z" transform="translate(-467.299 -238.475)"/></g></g></g></svg>