<svg xmlns="http://www.w3.org/2000/svg" width="36.838" height="48" viewBox="0 0 36.838 48"><defs><style>.a{fill:#64798c;}</style></defs><path class="a" d="M31.486,10.67A12.66,12.66,0,1,1,18.849,23.33,12.649,12.649,0,0,1,31.486,10.67Z" transform="translate(-13.051 -10.67)"/><path class="a" d="M46.614,33.637a.573.573,0,0,0-.086-.133,57.369,57.369,0,0,0-5.482-5.122.55.55,0,0,0-.332-.135.571.571,0,0,0-.33.058,14.971,14.971,0,0,1-13.721,0,.571.571,0,0,0-.33-.058.55.55,0,0,0-.332.135A57.371,57.371,0,0,0,20.519,33.5a.571.571,0,0,0-.086.133c-2.829,3.25-5.208,7.687-5.329,14.822a.566.566,0,0,0,.566.573H51.376a.566.566,0,0,0,.566-.573C51.822,41.325,49.442,36.887,46.614,33.637Z" transform="translate(-15.104 -1.032)"/></svg>