<svg xmlns="http://www.w3.org/2000/svg" width="18.729" height="18.729" viewBox="0 0 18.729 18.729"><defs><style>.a{fill:#341793;}</style></defs><g transform="translate(-273.248 -623.945)"><path class="a" d="M1.94,0A1.944,1.944,0,0,1,3.882,1.943l.012,14.848a1.94,1.94,0,0,1-3.88,0L0,1.94A1.937,1.937,0,0,1,1.94,0Z" transform="translate(273.246 635.258) rotate(-90)"/><path class="a" d="M1.94,0A1.937,1.937,0,0,1,3.879,1.937L3.867,16.785a1.94,1.94,0,0,1-3.88,0L0,1.94A1.944,1.944,0,0,1,1.94,0Z" transform="translate(284.545 642.672) rotate(180)"/></g></svg>