<svg xmlns="http://www.w3.org/2000/svg" width="41.017" height="41" viewBox="0 0 41.017 41">
  <g id="PMS_AIF_leads" data-name="PMS/AIF leads" transform="translate(0 -0.005)">
    <path id="Path_6636" data-name="Path 6636" d="M0,14.4c.066-.276.126-.559.2-.829A6.622,6.622,0,0,1,8.776,8.98a.876.876,0,0,0,.8-.072c1.112-.631,2.242-1.232,3.354-1.863a.724.724,0,0,0,.313-.457,7.274,7.274,0,0,1,14.444-.276,1,1,0,0,0,.6.878c1.076.553,2.128,1.148,3.18,1.743a.779.779,0,0,0,.727.06,6.616,6.616,0,1,1-4.3,7.483,6.442,6.442,0,0,1,2.116-6.191c.132-.12.27-.234.445-.385L27.782,8.427a21.5,21.5,0,0,1-.823,2.164,7.054,7.054,0,0,1-4.117,3.594c-.138.048-.337.2-.343.307-.024,1.8-.018,3.606-.018,5.386a5.358,5.358,0,0,1,1.034.012,5.878,5.878,0,0,1,.98.4c1.509-.793,2.356-.553,3.24.98a4.524,4.524,0,0,1,.511-.09,1.964,1.964,0,0,1,2.164,2.008v8.511a4.637,4.637,0,0,1-.89,2.777,6.521,6.521,0,0,1-.673.89,1.831,1.831,0,0,0-.4,1.665h1.3v3.979H15.207V37.032h1.31a3.187,3.187,0,0,0-.258-1.737c-.715-1.376-1.382-2.777-2.044-4.183a4.5,4.5,0,0,1-.385-1.208c-.15-.908-.264-1.821-.349-2.741a5.332,5.332,0,0,0-1.112-3.126,1.68,1.68,0,0,1-.18-.276,1.684,1.684,0,0,1,1.557-2.609,4.254,4.254,0,0,1,4.027,3.456c.18.86.349,1.719.523,2.579l.108.012c.036-.3.108-.6.114-.9.006-3.871,0-7.736.012-11.607a.466.466,0,0,0-.361-.529,7.149,7.149,0,0,1-4.7-5.079c-.06-.222-.114-.445-.18-.7L10.549,9.888c.18.156.319.27.451.391a6.438,6.438,0,0,1,2.116,6.191A6.617,6.617,0,0,1,.21,16.878C.126,16.6.066,16.325,0,16.049Zm17.3,14.7c-.295-1.455-.571-2.855-.86-4.25a2.917,2.917,0,0,0-2.8-2.356c-.385.018-.517.24-.325.577.084.144.174.276.27.415a5.144,5.144,0,0,1,1.016,2.14c.132.884.2,1.773.349,2.657a10.713,10.713,0,0,0,.5,2.32A38.854,38.854,0,0,0,17.2,34.2a4.441,4.441,0,0,1,.655,2.7.5.5,0,0,0,.03.12h9.136a7.1,7.1,0,0,1,.276-1.731,7.5,7.5,0,0,1,1.034-1.431c.048-.066.1-.132.144-.2A3.23,3.23,0,0,0,29.08,31.8c.012-2.837.006-5.674,0-8.511a.7.7,0,0,0-.667-.787c-.385,0-.649.319-.655.793v1.154H26.435c0-.866.006-1.7,0-2.543a.682.682,0,0,0-.679-.733.693.693,0,0,0-.643.727c-.012.319,0,.631,0,.95v1.593H23.8V22.1c0-.589-.234-.92-.649-.926-.433-.006-.673.325-.673.944v2.332H21.158V14.239c0-.661-.222-1-.661-1s-.661.337-.661,1c0,3.841-.03,7.682.018,11.523a5.776,5.776,0,0,1-.823,3.1c-.06.1-.186.222-.289.222-.463.024-.932.012-1.437.012Zm.962-20.665A3.316,3.316,0,0,1,22.582,3.4a3.226,3.226,0,0,1,1.2,2.146,3.323,3.323,0,0,1-1.07,2.873,5.5,5.5,0,0,1,2.512,2.416,5.924,5.924,0,0,0-9.094-7.574,5.816,5.816,0,0,0-.349,7.556,5.412,5.412,0,0,1,2.488-2.386Zm-7.513,9.984a5.164,5.164,0,0,0-.421-6.93,5.279,5.279,0,0,0-7.519.06A5.165,5.165,0,0,0,2.458,18.4l1.869-1.443a3.31,3.31,0,0,1,4.3-5.019,3.217,3.217,0,0,1,1.244,2.122,3.271,3.271,0,0,1-1,2.891l1.869,1.455Zm27.776,0a5.2,5.2,0,0,0-.655-7.147,5.258,5.258,0,0,0-7.556.565,5.119,5.119,0,0,0-.084,6.564l1.851-1.431a3.316,3.316,0,0,1,4.49-4.881c1.449,1.316,1.467,3.078.084,4.875L38.529,18.4Zm-17.9-9.154a4.057,4.057,0,0,0-3.751,2.356c-.09.21-.09.355.126.469.487.252.962.529,1.455.763a.43.43,0,0,0,.4-.1,1.98,1.98,0,0,1,3.252-.012.447.447,0,0,0,.391.12c.493-.234.974-.5,1.455-.763.24-.126.228-.283.126-.5a3.9,3.9,0,0,0-3.45-2.332ZM16.536,39.641H28.389V38.367H16.548v1.274ZM22.48,5.951a1.4,1.4,0,1,0,.006.006ZM8.6,14.564a2.019,2.019,0,0,0-1.966-1.99A1.984,1.984,0,1,0,8.6,14.564Zm27.77,0a1.975,1.975,0,1,0,0,.006ZM9.737,19.445a3.875,3.875,0,0,0-6.227,0A5.165,5.165,0,0,0,9.737,19.445Zm27.77-.018a3.908,3.908,0,0,0-6.233,0A5.121,5.121,0,0,0,37.507,19.427Z" fill="#f8c181"/>
    <path id="Path_6637" data-name="Path 6637" d="M33.059,23.165h1.316V31.46a.547.547,0,0,0,.331.571,1.919,1.919,0,0,1,.938,2.182,1.984,1.984,0,0,1-3.841.036,1.91,1.91,0,0,1,.9-2.194.61.61,0,0,0,.361-.637c-.012-2.591-.006-5.181-.006-7.766v-.481Zm.661,11.222a.658.658,0,1,0-.661-.655A.691.691,0,0,0,33.72,34.388Z" fill="#f8c181"/>
    <path id="Path_6638" data-name="Path 6638" d="M38.343,35.7H37.026V27.415a.546.546,0,0,0-.325-.577,1.93,1.93,0,0,1-.95-2.176A1.987,1.987,0,0,1,39.6,24.62a1.9,1.9,0,0,1-.9,2.194.638.638,0,0,0-.367.679c.012,2.573,0,5.151,0,7.724V35.7Zm0-10.585a.658.658,0,1,0-.643.673A.7.7,0,0,0,38.343,25.119Z" fill="#f8c181"/>
    <path id="Path_6639" data-name="Path 6639" d="M3.967,23.171H5.283v8.307a.518.518,0,0,0,.313.541,1.925,1.925,0,0,1,.956,2.212,1.984,1.984,0,0,1-3.841,0,1.921,1.921,0,0,1,.956-2.206.518.518,0,0,0,.313-.541c-.012-2.6,0-5.205,0-7.808v-.493Zm.673,9.9a.658.658,0,1,0-.03,1.316.658.658,0,1,0,.03-1.316Z" fill="#f8c181"/>
    <path id="Path_6640" data-name="Path 6640" d="M9.257,35.7H7.94V27.445a.57.57,0,0,0-.337-.607,1.913,1.913,0,0,1-.932-2.182,1.983,1.983,0,0,1,3.841-.018,1.914,1.914,0,0,1-.908,2.194.61.61,0,0,0-.355.643c.012,2.729,0,5.452,0,8.229ZM8.613,24.482a.658.658,0,1,0,.643.673A.691.691,0,0,0,8.613,24.482Z" fill="#f8c181"/>
  </g>
</svg>
