<svg width="23" height="21" viewBox="0 0 23 21" fill="none" xmlns="http://www.w3.org/2000/svg">
<path d="M15.9212 14.1101L17.3513 15.5401C17.3142 16.1722 17.0368 16.7662 16.576 17.2005C16.1151 17.6347 15.5057 17.8764 14.8725 17.8759H6.36372L3.55129 20.7121C3.47066 20.803 3.37151 20.8755 3.26051 20.9249C3.14951 20.9742 3.02923 20.9992 2.90777 20.9982C2.7857 20.9982 2.66483 20.9741 2.55205 20.9274C2.43928 20.8807 2.33681 20.8122 2.25049 20.7259C2.16418 20.6396 2.09571 20.5371 2.04899 20.4243C2.00228 20.3116 1.97824 20.1907 1.97824 20.0686V17.852C1.42096 17.7326 0.921127 17.4266 0.561409 16.9845C0.201692 16.5425 0.0036369 15.9909 1.14819e-06 15.421V7.88937C-0.000312384 7.56376 0.0635885 7.2413 0.188046 6.94042C0.312504 6.63954 0.495076 6.36616 0.725312 6.13593C0.955548 5.90569 1.22893 5.72312 1.52981 5.59866C1.83068 5.4742 2.15315 5.4103 2.47875 5.41061H3.98031V7.15051H2.47875C2.38007 7.14862 2.28199 7.16626 2.19016 7.20243C2.09833 7.23859 2.01456 7.29256 1.94367 7.36124C1.87278 7.42991 1.81617 7.51193 1.77711 7.60257C1.73805 7.69321 1.7173 7.79068 1.71606 7.88937V15.3971C1.71731 15.599 1.79807 15.7923 1.94083 15.9351C2.08359 16.0778 2.27686 16.1586 2.47875 16.1598H3.71813V18.1142L5.67253 16.1598H14.8964C15.0982 16.1586 15.2915 16.0778 15.4343 15.9351C15.577 15.7923 15.6578 15.599 15.659 15.3971V14.1101H15.9212ZM23 2.47901V9.98677C22.9963 10.5567 22.7983 11.1083 22.4386 11.5504C22.0788 11.9924 21.579 12.2985 21.0217 12.4179V14.6344C21.0135 14.8919 20.9118 15.1376 20.7357 15.3256C20.5443 15.474 20.3105 15.5575 20.0684 15.564C19.8169 15.5604 19.577 15.4576 19.401 15.278L16.6124 12.4894H8.10362C7.77801 12.4897 7.45555 12.4258 7.15467 12.3013C6.85379 12.1769 6.58041 11.9943 6.35017 11.7641C6.11994 11.5338 5.93737 11.2604 5.81291 10.9596C5.68845 10.6587 5.62455 10.3362 5.62486 10.0106V2.47901C5.62455 2.15341 5.68845 1.83094 5.81291 1.53006C5.93737 1.22919 6.11994 0.955806 6.35017 0.72557C6.58041 0.495334 6.85379 0.312763 7.15467 0.188305C7.45555 0.0638469 7.77801 -5.39954e-05 8.10362 0.000259536H20.4974C20.8253 -0.00449787 21.1509 0.0561916 21.4552 0.178778C21.7594 0.301364 22.0361 0.483385 22.2691 0.714194C22.5021 0.945002 22.6868 1.21996 22.8123 1.52299C22.9378 1.82602 23.0016 2.15103 23 2.47901Z" fill="#F37921"/>
<path d="M14.1241 8.93164H13.0087C12.773 8.93164 12.582 9.12265 12.582 9.35827V10.0757C12.582 10.3113 12.773 10.5023 13.0087 10.5023H14.1241C14.3597 10.5023 14.5507 10.3113 14.5507 10.0757V9.35827C14.5507 9.12265 14.3597 8.93164 14.1241 8.93164Z" fill="white"/>
<path d="M16.7573 4.4356C16.7713 4.079 16.7073 3.72364 16.5698 3.39431C16.4323 3.06498 16.2246 2.76963 15.9612 2.52887C15.4273 2.05219 14.6837 1.81384 13.7518 1.81384C13.0031 1.78092 12.2643 1.99533 11.6496 2.424C11.4163 2.60966 11.2266 2.84412 11.0936 3.11093C10.9606 3.37775 10.8876 3.67043 10.8798 3.96845C10.8768 4.0053 10.8815 4.04236 10.8933 4.07736C10.9052 4.11236 10.9241 4.14457 10.9489 4.17201C10.9737 4.19945 11.0038 4.22155 11.0374 4.23696C11.071 4.25237 11.1074 4.26076 11.1443 4.26161L12.3956 4.28783C12.495 4.28843 12.592 4.25797 12.6732 4.2007C12.7544 4.14344 12.8157 4.06224 12.8485 3.96845C12.896 3.81838 12.9775 3.68133 13.0868 3.56804C13.2888 3.40482 13.5431 3.32041 13.8026 3.33049C14.0621 3.34057 14.3091 3.44446 14.4978 3.62286C14.5934 3.73125 14.6661 3.85785 14.7116 3.99506C14.7571 4.13227 14.7743 4.27725 14.7623 4.4213C14.7653 4.7218 14.6826 5.01694 14.524 5.27218C14.3688 5.51947 14.1594 5.72814 13.9115 5.88234C13.5075 6.13995 13.1484 6.46201 12.8485 6.8357C12.6741 7.1056 12.5814 7.42009 12.5815 7.7414C12.5775 7.78435 12.583 7.82767 12.5976 7.86825C12.6122 7.90884 12.6356 7.9457 12.6661 7.97621C12.6966 8.00671 12.7335 8.03011 12.774 8.04473C12.8146 8.05935 12.8579 8.06483 12.9009 8.06078H14.2571C14.3362 8.06448 14.4139 8.03839 14.4748 7.98765C14.5357 7.93692 14.5753 7.86522 14.586 7.78668C14.5955 7.61091 14.6409 7.43895 14.7194 7.2814C14.8365 7.06162 15.0111 6.87788 15.2247 6.7499C15.6647 6.5208 16.0469 6.19482 16.3426 5.79653C16.6191 5.39712 16.7641 4.92136 16.7573 4.4356Z" fill="white"/>
</svg>
