<svg width="21" height="22" viewBox="0 0 21 22" fill="none" xmlns="http://www.w3.org/2000/svg">
<path d="M19.8613 3.59862C19.8613 4.17663 19.6899 4.74166 19.3688 5.22227C19.0478 5.70289 18.5914 6.07752 18.0574 6.2988C17.5234 6.52008 16.9359 6.57807 16.3689 6.46544C15.802 6.35282 15.2812 6.07463 14.8724 5.66605C14.4635 5.25747 14.185 4.73685 14.072 4.16999C13.959 3.60314 14.0166 3.01551 14.2376 2.4814C14.4585 1.94729 14.8328 1.49067 15.3133 1.16928C15.7937 0.84789 16.3586 0.676153 16.9366 0.675782C17.3206 0.675535 17.7009 0.750956 18.0557 0.897732C18.4105 1.04451 18.733 1.25976 19.0046 1.5312C19.2762 1.80264 19.4916 2.12493 19.6386 2.47967C19.7856 2.83441 19.8613 3.21463 19.8613 3.59862Z" fill="#F37921"/>
<path d="M16.9364 7.1931C16.2251 7.1931 15.5297 6.98217 14.9383 6.58698C14.3468 6.19178 13.8858 5.63008 13.6136 4.97289C13.3414 4.31571 13.2702 3.59256 13.409 2.8949C13.5477 2.19724 13.8903 1.55639 14.3933 1.05341C14.8962 0.55042 15.5371 0.207882 16.2347 0.0691083C16.9324 -0.0696654 17.6555 0.00155832 18.3127 0.273773C18.9699 0.545987 19.5316 1.00697 19.9268 1.59842C20.322 2.18987 20.5329 2.88522 20.5329 3.59655C20.532 4.55011 20.1527 5.46433 19.4784 6.1386C18.8042 6.81287 17.8899 7.19211 16.9364 7.1931ZM16.9364 1.34836C16.491 1.34836 16.0556 1.48043 15.6853 1.72788C15.3149 1.97533 15.0263 2.32703 14.8559 2.73852C14.6854 3.15001 14.6408 3.6028 14.7277 4.03964C14.8146 4.47648 15.0291 4.87773 15.344 5.19268C15.659 5.50762 16.0602 5.72209 16.497 5.80899C16.9339 5.89588 17.3867 5.85128 17.7982 5.68084C18.2097 5.51039 18.5614 5.22175 18.8088 4.85142C19.0563 4.48109 19.1883 4.0457 19.1883 3.60031C19.1883 3.00305 18.9511 2.43026 18.5288 2.00794C18.1064 1.58561 17.5336 1.34836 16.9364 1.34836Z" fill="#F37921"/>
<path d="M19.8613 17.9834C19.8613 18.5615 19.6899 19.1266 19.3687 19.6072C19.0476 20.0879 18.5911 20.4625 18.057 20.6837C17.5229 20.905 16.9352 20.9628 16.3683 20.8501C15.8013 20.7373 15.2805 20.4589 14.8717 20.0501C14.4629 19.6414 14.1846 19.1206 14.0718 18.5536C13.959 17.9866 14.0169 17.3989 14.2381 16.8649C14.4593 16.3308 14.834 15.8743 15.3146 15.5531C15.7953 15.232 16.3604 15.0605 16.9385 15.0605C17.7137 15.0605 18.4571 15.3685 19.0052 15.9166C19.5534 16.4648 19.8613 17.2082 19.8613 17.9834Z" fill="#F37921"/>
<path d="M16.9325 21.5818C16.2212 21.5818 15.5258 21.3709 14.9344 20.9757C14.3429 20.5805 13.8819 20.0187 13.6097 19.3616C13.3375 18.7044 13.2663 17.9812 13.405 17.2836C13.5438 16.5859 13.8864 15.9451 14.3893 15.4421C14.8923 14.9391 15.5332 14.5966 16.2308 14.4578C16.9285 14.319 17.6516 14.3902 18.3088 14.6624C18.966 14.9347 19.5277 15.3956 19.9229 15.9871C20.3181 16.5785 20.529 17.2739 20.529 17.9852C20.528 18.9388 20.1488 19.853 19.4745 20.5273C18.8003 21.2015 17.886 21.5808 16.9325 21.5818ZM16.9325 15.737C16.4871 15.737 16.0517 15.8691 15.6814 16.1166C15.311 16.364 15.0224 16.7157 14.8519 17.1272C14.6815 17.5387 14.6369 17.9915 14.7238 18.4283C14.8107 18.8652 15.0252 19.2664 15.3401 19.5813C15.6551 19.8963 16.0563 20.1108 16.4931 20.1976C16.93 20.2845 17.3828 20.2399 17.7943 20.0695C18.2057 19.8991 18.5575 19.6104 18.8049 19.2401C19.0523 18.8698 19.1844 18.4344 19.1844 17.989C19.1846 17.6932 19.1264 17.4002 19.0133 17.1269C18.9002 16.8536 18.7343 16.6052 18.5252 16.396C18.3161 16.1868 18.0678 16.0208 17.7945 15.9076C17.5212 15.7944 17.2283 15.7361 16.9325 15.7361V15.737Z" fill="#F37921"/>
<path d="M7.26756 10.79C7.26756 11.3681 7.09614 11.9332 6.77498 12.4139C6.45381 12.8945 5.99733 13.2692 5.46325 13.4904C4.92917 13.7116 4.34148 13.7695 3.7745 13.6567C3.20753 13.5439 2.68672 13.2656 2.27796 12.8568C1.86919 12.448 1.59082 11.9272 1.47804 11.3602C1.36526 10.7933 1.42314 10.2056 1.64436 9.67151C1.86559 9.13743 2.24022 8.68095 2.72088 8.35978C3.20154 8.03862 3.76663 7.86719 4.34472 7.86719C4.72855 7.86719 5.10863 7.9428 5.46325 8.08968C5.81786 8.23657 6.14007 8.45186 6.41148 8.72327C6.68289 8.99469 6.89819 9.31689 7.04508 9.67151C7.19196 10.0261 7.26756 10.4062 7.26756 10.79Z" fill="#F37921"/>
<path d="M4.34655 14.3884C3.63522 14.3884 2.93987 14.1775 2.34842 13.7823C1.75697 13.3871 1.29599 12.8254 1.02377 12.1682C0.751558 11.511 0.680335 10.7879 0.819109 10.0902C0.957882 9.39255 1.30042 8.75171 1.80341 8.24872C2.30639 7.74573 2.94724 7.40319 3.6449 7.26442C4.34256 7.12565 5.06571 7.19687 5.72289 7.46909C6.38008 7.7413 6.94178 8.20228 7.33698 8.79373C7.73217 9.38518 7.94311 10.0805 7.94311 10.7919C7.94211 11.7454 7.56287 12.6596 6.8886 13.3339C6.21433 14.0082 5.30011 14.3874 4.34655 14.3884ZM4.34655 8.54368C3.90116 8.54368 3.46577 8.67574 3.09544 8.92319C2.72511 9.17064 2.43647 9.52234 2.26602 9.93383C2.09558 10.3453 2.05098 10.7981 2.13787 11.235C2.22477 11.6718 2.43924 12.073 2.75418 12.388C3.06913 12.7029 3.47038 12.9174 3.90722 13.0043C4.34405 13.0912 4.79685 13.0466 5.20834 12.8762C5.61983 12.7057 5.97153 12.4171 6.21898 12.0467C6.46643 11.6764 6.5985 11.241 6.5985 10.7956C6.59863 10.4998 6.54047 10.2069 6.42735 9.93355C6.31424 9.66022 6.14838 9.41187 5.93925 9.20265C5.73013 8.99344 5.48183 8.82747 5.20855 8.71424C4.93527 8.60101 4.64236 8.54273 4.34655 8.54273V8.54368Z" fill="#F37921"/>
<path d="M6.47096 10.3565C6.27239 10.3568 6.07928 10.2915 5.92178 10.1705C5.76428 10.0496 5.65125 9.87992 5.60035 9.68799C5.54945 9.49606 5.56353 9.29267 5.6404 9.10958C5.71726 8.9265 5.85259 8.77401 6.02525 8.67593L14.3687 3.91869C14.4714 3.86022 14.5845 3.82255 14.7017 3.80781C14.8189 3.79307 14.9379 3.80156 15.0518 3.8328C15.1657 3.86404 15.2724 3.9174 15.3657 3.98986C15.459 4.06231 15.5371 4.15244 15.5956 4.25508C15.654 4.35772 15.6917 4.47087 15.7065 4.58808C15.7212 4.70528 15.7127 4.82425 15.6815 4.93817C15.6502 5.05209 15.5969 5.15875 15.5244 5.25205C15.452 5.34534 15.3618 5.42345 15.2592 5.48192L6.91571 10.2392C6.78024 10.3164 6.62691 10.3569 6.47096 10.3565Z" fill="#F37921"/>
<path d="M14.8119 17.7754C14.6562 17.7753 14.5032 17.7345 14.3681 17.6571L6.02461 12.8999C5.81732 12.7818 5.66542 12.5862 5.60233 12.3561C5.53925 12.1261 5.57014 11.8804 5.68822 11.6731C5.80631 11.4658 6.0019 11.3139 6.23198 11.2508C6.46205 11.1877 6.70777 11.2186 6.91506 11.3367L15.2585 16.0939C15.4312 16.192 15.5665 16.3445 15.6434 16.5276C15.7203 16.7106 15.7344 16.914 15.6835 17.1059C15.6325 17.2979 15.5195 17.4676 15.362 17.5885C15.2045 17.7094 15.0114 17.7748 14.8128 17.7744L14.8119 17.7754Z" fill="#F37921"/>
</svg>
