<svg xmlns="http://www.w3.org/2000/svg" width="80" height="80" viewBox="0 0 80 80"><defs><style>.a{fill:#f8f8f8;}.b{fill:#593cc7;}</style></defs><g transform="translate(-40 -1552)"><rect class="a" width="80" height="80" rx="12" transform="translate(40 1552)"/><g transform="translate(27.339 1539.145)"><path class="b" d="M48.2,50.657a5.263,5.263,0,0,0,1.41-3.887,5.882,5.882,0,0,0-.654-2.855,4.438,4.438,0,0,0-1.8-1.835,5.733,5.733,0,0,0-5.194,0A4.438,4.438,0,0,0,40.155,43.9a5.882,5.882,0,0,0-.654,2.855,5.263,5.263,0,0,0,1.41,3.887,5.4,5.4,0,0,0,7.293,0ZM43.7,48.57a4.988,4.988,0,0,1,0-3.623.94.94,0,0,1,1.709,0,4.976,4.976,0,0,1,0,3.623.94.94,0,0,1-1.709,0Z" transform="translate(1.589 1.995)"/><path class="b" d="M59.331,49.91a5.733,5.733,0,0,0-5.194,0,4.426,4.426,0,0,0-1.812,1.823,5.871,5.871,0,0,0-.654,2.855,5.252,5.252,0,0,0,1.41,3.887,5.4,5.4,0,0,0,7.293,0,5.252,5.252,0,0,0,1.41-3.887,5.882,5.882,0,0,0-.654-2.855A4.438,4.438,0,0,0,59.331,49.91ZM57.588,56.4a.94.94,0,0,1-1.709,0,4.976,4.976,0,0,1,0-3.623.94.94,0,0,1,1.709,0,4.988,4.988,0,0,1,0,3.623Z" transform="translate(3.373 3.143)"/><path class="b" d="M56.1,41.7a1.9,1.9,0,0,0-1.571.826L44.122,57.776a1.9,1.9,0,0,0,3.13,2.144L57.664,44.67A1.9,1.9,0,0,0,56.1,41.7Z" transform="translate(2.231 2.03)"/><path class="b" d="M76.177,51.39A6.41,6.41,0,0,0,72.863,41.2a2.958,2.958,0,0,1-2.179-3,6.41,6.41,0,0,0-8.669-6.3,2.958,2.958,0,0,1-3.532-1.147h0a6.41,6.41,0,0,0-10.721,0A2.958,2.958,0,0,1,44.231,31.9a6.41,6.41,0,0,0-8.669,6.3,2.958,2.958,0,0,1-2.179,3A6.41,6.41,0,0,0,30.07,51.39a2.958,2.958,0,0,1,0,3.715A6.41,6.41,0,0,0,33.384,65.3a2.958,2.958,0,0,1,2.179,3,6.41,6.41,0,0,0,8.669,6.3,2.958,2.958,0,0,1,3.532,1.147,6.41,6.41,0,0,0,10.721,0A2.958,2.958,0,0,1,62.016,74.6a6.41,6.41,0,0,0,8.669-6.3,2.958,2.958,0,0,1,2.179-3,6.41,6.41,0,0,0,3.314-10.194,2.958,2.958,0,0,1,0-3.715ZM73.494,57.25a2.97,2.97,0,0,1-1.537,4.724,6.375,6.375,0,0,0-4.713,6.479,2.97,2.97,0,0,1-4.013,2.924,6.375,6.375,0,0,0-7.614,2.511,2.97,2.97,0,0,1-4.965,0,6.375,6.375,0,0,0-5.332-2.9,6.456,6.456,0,0,0-2.293.424,2.97,2.97,0,0,1-4.013-2.924A6.375,6.375,0,0,0,34.3,62.008a2.97,2.97,0,0,1-1.537-4.724,6.375,6.375,0,0,0,0-8.027A2.97,2.97,0,0,1,34.3,44.533a6.375,6.375,0,0,0,4.713-6.479,2.97,2.97,0,0,1,4.013-2.924,6.375,6.375,0,0,0,7.614-2.523,2.97,2.97,0,0,1,4.965,0,6.375,6.375,0,0,0,7.625,2.477,2.97,2.97,0,0,1,4.013,2.924,6.375,6.375,0,0,0,4.713,6.479,2.97,2.97,0,0,1,1.537,4.724,6.375,6.375,0,0,0,0,8.038Z" transform="translate(0 0)"/></g></g></svg>