<?xml version="1.0" encoding="utf-8"?>
<!-- Generator: Adobe Illustrator 25.4.7, SVG Export Plug-In . SVG Version: 6.00 Build 0)  -->
<svg version="1.1" id="Layer_3" xmlns="http://www.w3.org/2000/svg" xmlns:xlink="http://www.w3.org/1999/xlink" x="0px" y="0px"
	 viewBox="0 0 200 200" style="enable-background:new 0 0 200 200;" xml:space="preserve">
<style type="text/css">
	.st0{fill-rule:evenodd;clip-rule:evenodd;fill:#2972C1;}
	.st1{fill-rule:evenodd;clip-rule:evenodd;fill:#FFFFFF;}
</style>
<g>
	<g>
		<path class="st0" d="M169.4,24.3H30.6c-3.5,0-6.3,2.8-6.3,6.3v91.6c0,3.5,2.8,6.3,6.3,6.3h73.6c-0.2-1.7-0.4-3.4-0.4-5.2
			c0-21.1,17.1-38.2,38.2-38.2c14.6,0,27.3,8.2,33.7,20.3V30.5C175.7,27.1,172.9,24.3,169.4,24.3L169.4,24.3z M142,89.5
			c18.6,0,33.7,15.1,33.7,33.7s-15.1,33.7-33.7,33.7s-33.7-15.1-33.7-33.7C108.2,104.6,123.3,89.5,142,89.5L142,89.5z M142,96.3
			c14.9,0,27,12.1,27,27s-12.1,27-27,27s-27-12.1-27-27S127.1,96.3,142,96.3L142,96.3z M142,100.7c12.4,0,22.5,10.1,22.5,22.5
			s-10.1,22.5-22.5,22.5s-22.5-10.1-22.5-22.5S129.5,100.7,142,100.7L142,100.7z M167.6,151.5c-5.2,4.7-11.6,8-18.8,9.3l8.6,14.9
			l4.4-13.2l13.7,2.8L167.6,151.5z M116.3,151.5l-7.6,13.1l13.7-2.8l4.4,13.2l8.2-14.3C127.9,159.5,121.5,156.2,116.3,151.5
			L116.3,151.5z M99.1,106.4c1.2,0,2.2,1,2.2,2.2s-1,2.2-2.2,2.2H38.9c-1.2,0-2.2-1-2.2-2.2s1-2.2,2.2-2.2H99.1z M161.6,38.5
			c1.2,0,2.2,1,2.2,2.2s-1,2.2-2.2,2.2H95.1c-1.2,0-2.2-1-2.2-2.2s1-2.2,2.2-2.2H161.6z M161.6,72.5c1.2,0,2.2,1,2.2,2.2
			s-1,2.2-2.2,2.2H95.2c-1.2,0-2.2-1-2.2-2.2s1-2.2,2.2-2.2H161.6z M161.6,55.5c1.2,0,2.2,1,2.2,2.2s-1,2.2-2.2,2.2H95.2
			c-1.2,0-2.2-1-2.2-2.2s1-2.2,2.2-2.2H161.6z M105.5,89.4c1.2,0,2.2,1,2.2,2.2s-1,2.2-2.2,2.2H39c-1.2,0-2.2-1-2.2-2.2
			s1-2.2,2.2-2.2H105.5z"/>
	</g>
	<path class="st1" d="M70.1,45.4h-2.5c-0.4-1.7-1.1-3.2-2.1-4.6h4.7c1.3,0,2.3-1,2.4-2.2c0-1.3-1-2.3-2.2-2.4l0,0H47.1
		c-1.3,0-2.3,1-2.4,2.2c0,1.3,1,2.3,2.2,2.4h9.3c2.9,0,5.5,1.8,6.5,4.6H47.1c-1.3,0-2.3,1-2.4,2.2c0,1.3,1,2.3,2.2,2.4h15.9
		c-1,2.7-3.6,4.6-6.5,4.6h-9.2c-1.3,0-2.3,1-2.3,2.3c0,0.3,0.1,0.6,0.2,0.9c0.1,0.3,0.3,0.5,0.5,0.7l18.4,18.4
		c0.9,0.9,2.4,0.9,3.3,0s0.9-2.2,0.1-3.1l-0.1-0.1L52.7,59.2h3.6c5.5,0,10.2-3.8,11.3-9.2h2.5c1.3,0,2.3-1,2.4-2.2
		c0-1.3-1-2.3-2.2-2.4l0,0L70.1,45.4L70.1,45.4z"/>
</g>
</svg>
