<svg width="285" height="238" viewBox="0 0 285 238" fill="none" xmlns="http://www.w3.org/2000/svg">
<g clip-path="url(#clip0_8564_7834)">
<path d="M194.702 0.000210883L0 115.413L5.85552 125.298L200.557 9.88537L194.702 0.000210883Z" fill="#F2F2F2"/>
<path d="M237.02 9.67598L42.318 125.089L48.1735 134.974L242.875 19.5611L237.02 9.67598Z" fill="#F2F2F2"/>
<path d="M274.501 20.259L79.7996 135.672L85.6551 145.557L280.357 30.1442L274.501 20.259Z" fill="#F2F2F2"/>
<path d="M126.82 135.292C160.486 135.292 187.778 107.991 187.778 74.3121C187.778 40.6338 160.486 13.332 126.82 13.332C93.1529 13.332 65.8607 40.6338 65.8607 74.3121C65.8607 107.991 93.1529 135.292 126.82 135.292Z" fill="white"/>
<path d="M65.4073 74.3116C65.4073 40.437 92.9567 12.8779 126.82 12.8779C160.682 12.8779 188.232 40.437 188.232 74.3116C188.232 108.186 160.682 135.745 126.82 135.745C92.9567 135.745 65.4073 108.186 65.4073 74.3116ZM66.3142 74.3116C66.3142 107.686 93.4568 134.838 126.82 134.838C160.182 134.838 187.325 107.686 187.325 74.3116C187.325 40.9372 160.182 13.7851 126.82 13.7851C93.4568 13.7851 66.3142 40.9372 66.3142 74.3116Z" fill="#3F3D56"/>
<path d="M115.953 74.5765C115.953 72.4265 116.59 70.3248 117.784 68.5372C118.978 66.7496 120.676 65.3563 122.661 64.5335C124.647 63.7108 126.832 63.4955 128.94 63.9149C131.047 64.3344 132.984 65.3697 134.503 66.8899C136.023 68.4102 137.058 70.3471 137.477 72.4557C137.897 74.5644 137.681 76.7501 136.859 78.7364C136.037 80.7227 134.644 82.4204 132.857 83.6148C131.07 84.8093 128.969 85.4468 126.82 85.4468C123.938 85.4468 121.174 84.3015 119.136 82.2629C117.098 80.2244 115.953 77.4595 115.953 74.5765ZM126.82 64.2363C124.079 64.2394 121.452 65.3298 119.514 67.2683C117.576 69.2068 116.486 71.835 116.483 74.5765C116.483 76.6215 117.089 78.6207 118.225 80.3211C119.361 82.0215 120.975 83.3469 122.864 84.1295C124.753 84.9121 126.831 85.1169 128.836 84.7179C130.841 84.3189 132.683 83.3341 134.129 81.888C135.574 80.4419 136.559 78.5995 136.957 76.5937C137.356 74.5879 137.152 72.5089 136.369 70.6195C135.587 68.7301 134.262 67.1151 132.562 65.979C130.862 64.8428 128.864 64.2363 126.82 64.2363Z" fill="#3F3D56"/>
<path d="M106.147 74.5767C106.147 70.4865 107.359 66.4882 109.631 63.0874C111.902 59.6865 115.131 57.0359 118.908 55.4707C122.686 53.9054 126.842 53.4959 130.853 54.2939C134.863 55.0918 138.546 57.0614 141.438 59.9536C144.329 62.8458 146.298 66.5306 147.095 70.5422C147.893 74.5538 147.484 78.7119 145.919 82.4907C144.354 86.2695 141.705 89.4993 138.305 91.7717C134.905 94.0441 130.908 95.2569 126.82 95.2569C124.105 95.2569 121.416 94.722 118.908 93.6827C116.4 92.6434 114.121 91.1202 112.202 89.1998C110.282 87.2795 108.759 84.9997 107.72 82.4907C106.681 79.9816 106.147 77.2925 106.147 74.5767ZM126.82 54.4267C122.836 54.4267 118.941 55.6085 115.629 57.8226C112.316 60.0367 109.734 63.1837 108.21 66.8656C106.685 70.5476 106.286 74.599 107.064 78.5078C107.841 82.4165 109.759 86.0068 112.576 88.8249C115.393 91.6429 118.982 93.562 122.89 94.3395C126.797 95.117 130.847 94.7179 134.528 93.1928C138.209 91.6677 141.354 89.0851 143.568 85.7714C145.781 82.4578 146.962 78.562 146.962 74.5767C146.956 69.2345 144.832 64.1127 141.056 60.3352C137.28 56.5576 132.16 54.4328 126.82 54.4267Z" fill="#CCCCCC"/>
<path d="M86.5337 74.5773C86.5337 66.6067 88.8964 58.8151 93.3231 52.1878C97.7498 45.5606 104.042 40.3952 111.403 37.345C118.764 34.2948 126.864 33.4967 134.679 35.0517C142.494 36.6067 149.672 40.4449 155.306 46.0809C160.94 51.717 164.777 58.8977 166.331 66.7152C167.886 74.5326 167.088 82.6355 164.039 89.9994C160.99 97.3632 155.826 103.657 149.201 108.085C142.576 112.514 134.787 114.877 126.82 114.877C116.139 114.865 105.899 110.615 98.3465 103.06C90.794 95.5052 86.5458 85.2618 86.5337 74.5773ZM126.82 34.8076C118.957 34.8076 111.27 37.1401 104.732 41.51C98.1946 45.88 93.099 52.0912 90.09 59.3581C87.081 66.6251 86.2937 74.6214 87.8277 82.336C89.3617 90.0505 93.148 97.1368 98.708 102.699C104.268 108.261 111.352 112.048 119.064 113.583C126.775 115.117 134.769 114.33 142.033 111.32C149.298 108.31 155.507 103.212 159.875 96.6721C164.244 90.132 166.575 82.443 166.575 74.5773C166.563 64.0334 162.371 53.9247 154.918 46.4691C147.465 39.0134 137.36 34.8196 126.82 34.8076Z" fill="#CCCCCC"/>
<path d="M126.82 79.3494C129.601 79.3494 131.855 77.094 131.855 74.3119C131.855 71.5298 129.601 69.2744 126.82 69.2744C124.038 69.2744 121.784 71.5298 121.784 74.3119C121.784 77.094 124.038 79.3494 126.82 79.3494Z" fill="#7168D6"/>
<path d="M113.833 93.9314C116.614 93.9314 118.868 91.6761 118.868 88.8939C118.868 86.1118 116.614 83.8564 113.833 83.8564C111.052 83.8564 108.797 86.1118 108.797 88.8939C108.797 91.6761 111.052 93.9314 113.833 93.9314Z" fill="#7168D6"/>
<path d="M164.499 91.8103C167.28 91.8103 169.534 89.555 169.534 86.7728C169.534 83.9907 167.28 81.7354 164.499 81.7354C161.718 81.7354 159.463 83.9907 159.463 86.7728C159.463 89.555 161.718 91.8103 164.499 91.8103Z" fill="#7168D6"/>
<path d="M126.82 76.6981C128.137 76.6981 129.205 75.6298 129.205 74.312C129.205 72.9941 128.137 71.9258 126.82 71.9258C125.502 71.9258 124.434 72.9941 124.434 74.312C124.434 75.6298 125.502 76.6981 126.82 76.6981Z" fill="#2F2E41"/>
<path d="M164.499 89.1591C165.816 89.1591 166.884 88.0908 166.884 86.7729C166.884 85.4551 165.816 84.3867 164.499 84.3867C163.181 84.3867 162.113 85.4551 162.113 86.7729C162.113 88.0908 163.181 89.1591 164.499 89.1591Z" fill="#2F2E41"/>
<path d="M113.833 91.5448C115.15 91.5448 116.218 90.4765 116.218 89.1586C116.218 87.8408 115.15 86.7725 113.833 86.7725C112.515 86.7725 111.447 87.8408 111.447 89.1586C111.447 90.4765 112.515 91.5448 113.833 91.5448Z" fill="#2F2E41"/>
<path d="M15.5034 49.9198C16.8208 49.9198 17.8887 48.8515 17.8887 47.5336C17.8887 46.2158 16.8208 45.1475 15.5034 45.1475C14.186 45.1475 13.118 46.2158 13.118 47.5336C13.118 48.8515 14.186 49.9198 15.5034 49.9198Z" fill="#7168D6"/>
<path d="M126.687 47.666H21.9966V47.1357H127.217V74.4438H126.687V47.666Z" fill="#2F2E41"/>
<path d="M8.6123 47.5331C8.6123 46.1697 9.01645 44.8369 9.77365 43.7033C10.5308 42.5697 11.6071 41.6861 12.8662 41.1644C14.1254 40.6426 15.5109 40.5061 16.8477 40.7721C18.1844 41.0381 19.4123 41.6946 20.376 42.6587C21.3397 43.6227 21.996 44.851 22.2619 46.1882C22.5278 47.5254 22.3913 48.9114 21.8698 50.171C21.3482 51.4307 20.465 52.5073 19.3318 53.2647C18.1985 54.0222 16.8662 54.4265 15.5033 54.4265C14.5984 54.4265 13.7023 54.2482 12.8662 53.9018C12.0302 53.5553 11.2705 53.0476 10.6306 52.4075C9.99075 51.7673 9.48315 51.0074 9.13685 50.1711C8.79054 49.3347 8.6123 48.4383 8.6123 47.5331ZM15.5033 41.1699C14.2452 41.1699 13.0154 41.5431 11.9694 42.2423C10.9233 42.9415 10.108 43.9353 9.62658 45.098C9.14514 46.2607 9.01917 47.5401 9.2646 48.7745C9.51004 50.0088 10.1159 51.1426 11.0055 52.0325C11.895 52.9224 13.0285 53.5284 14.2624 53.7739C15.4962 54.0195 16.7752 53.8935 17.9375 53.4119C19.0998 52.9302 20.0933 52.1147 20.7922 51.0682C21.4912 50.0218 21.8642 48.7916 21.8642 47.5331C21.8623 45.8461 21.1915 44.2287 19.999 43.0358C18.8066 41.8429 17.1897 41.1719 15.5033 41.1699Z" fill="#2F2E41"/>
<path d="M31.4057 118.589C32.7231 118.589 33.791 117.52 33.791 116.203C33.791 114.885 32.7231 113.816 31.4057 113.816C30.0883 113.816 29.0203 114.885 29.0203 116.203C29.0203 117.52 30.0883 118.589 31.4057 118.589Z" fill="#7168D6"/>
<path d="M24.5146 116.202C24.5146 114.839 24.9188 113.506 25.676 112.372C26.4332 111.239 27.5094 110.355 28.7686 109.833C30.0277 109.312 31.4133 109.175 32.75 109.441C34.0867 109.707 35.3146 110.364 36.2783 111.328C37.242 112.292 37.8983 113.52 38.1642 114.857C38.4301 116.194 38.2937 117.58 37.7721 118.84C37.2505 120.1 36.3673 121.176 35.2341 121.934C34.1009 122.691 32.7686 123.095 31.4056 123.095C29.578 123.095 27.8253 122.369 26.533 121.076C25.2407 119.784 24.5147 118.03 24.5146 116.202ZM31.4056 109.839C30.1476 109.839 28.9178 110.212 27.8717 110.911C26.8257 111.61 26.0104 112.604 25.5289 113.767C25.0475 114.93 24.9215 116.209 25.1669 117.443C25.4124 118.678 26.0182 119.812 26.9078 120.701C27.7974 121.591 28.9308 122.197 30.1647 122.443C31.3986 122.688 32.6775 122.562 33.8399 122.081C35.0022 121.599 35.9956 120.784 36.6945 119.737C37.3935 118.691 37.7666 117.461 37.7666 116.202C37.7646 114.515 37.0938 112.898 35.9014 111.705C34.7089 110.512 33.0921 109.841 31.4056 109.839Z" fill="#2F2E41"/>
<path d="M238.444 61.0556C239.762 61.0556 240.83 59.9872 240.83 58.6694C240.83 57.3515 239.762 56.2832 238.444 56.2832C237.127 56.2832 236.059 57.3515 236.059 58.6694C236.059 59.9872 237.127 61.0556 238.444 61.0556Z" fill="#7168D6"/>
<path d="M231.553 58.6688C231.553 57.3054 231.958 55.9726 232.715 54.839C233.472 53.7054 234.548 52.8219 235.807 52.3001C237.067 51.7784 238.452 51.6419 239.789 51.9078C241.126 52.1738 242.353 52.8304 243.317 53.7944C244.281 54.7585 244.937 55.9868 245.203 57.324C245.469 58.6611 245.332 60.0472 244.811 61.3068C244.289 62.5664 243.406 63.643 242.273 64.4005C241.14 65.1579 239.807 65.5622 238.444 65.5622C237.54 65.5622 236.643 65.3839 235.807 65.0375C234.971 64.6911 234.212 64.1833 233.572 63.5432C232.932 62.9031 232.424 62.1431 232.078 61.3068C231.732 60.4704 231.553 59.5741 231.553 58.6688ZM238.444 52.3057C236.758 52.3076 235.141 52.9786 233.949 54.1715C232.756 55.3644 232.085 56.9818 232.084 58.6688C232.084 59.9273 232.457 61.1576 233.156 62.204C233.855 63.2504 234.848 64.066 236.01 64.5476C237.173 65.0292 238.452 65.1552 239.685 64.9097C240.919 64.6641 242.053 64.0581 242.942 63.1682C243.832 62.2783 244.438 61.1445 244.683 59.9102C244.929 58.6758 244.803 57.3964 244.321 56.2337C243.84 55.071 243.024 54.0772 241.978 53.378C240.932 52.6788 239.703 52.3057 238.444 52.3057Z" fill="#2F2E41"/>
<path d="M164.234 59.4688L231.814 58.4043L231.823 58.9342L164.764 59.9908V86.7733H164.234V59.4688Z" fill="#2F2E41"/>
<path d="M38.0318 115.937H113.568V89.1592H114.098V116.467H38.0318V115.937Z" fill="#2F2E41"/>
<path d="M30.0805 59.9941H0.92627V61.8501H30.0805V59.9941Z" fill="#CCCCCC"/>
<path d="M30.0805 65.2969H0.92627V67.1528H30.0805V65.2969Z" fill="#CCCCCC"/>
<path d="M30.0805 70.5996H0.92627V72.4555H30.0805V70.5996Z" fill="#CCCCCC"/>
<path d="M45.9828 128.663H16.8286V130.519H45.9828V128.663Z" fill="#CCCCCC"/>
<path d="M45.9828 133.966H16.8286V135.822H45.9828V133.966Z" fill="#CCCCCC"/>
<path d="M45.9828 139.269H16.8286V141.124H45.9828V139.269Z" fill="#CCCCCC"/>
<path d="M253.022 71.3955H223.867V73.2514H253.022V71.3955Z" fill="#CCCCCC"/>
<path d="M253.022 76.6982H223.867V78.5542H253.022V76.6982Z" fill="#CCCCCC"/>
<path d="M253.022 82H223.867V83.8559H253.022V82Z" fill="#CCCCCC"/>
<path d="M266.9 229.52L262.755 231.003L255.066 215.71L261.185 213.522L266.9 229.52Z" fill="#FFB8B8"/>
<path d="M256.026 237.942L255.965 237.773C255.474 236.392 255.55 234.873 256.177 233.549C256.803 232.224 257.93 231.202 259.309 230.707L267.474 227.788L269.395 233.163L256.026 237.942Z" fill="#2F2E41"/>
<path d="M239.939 233.623L235.536 233.623L233.442 216.634L239.94 216.634L239.939 233.623Z" fill="#FFB8B8"/>
<path d="M241.062 237.892L226.865 237.892V237.712C226.865 236.986 227.008 236.268 227.286 235.597C227.564 234.926 227.971 234.317 228.484 233.804C228.997 233.29 229.606 232.883 230.276 232.605C230.947 232.328 231.665 232.185 232.391 232.185L241.063 232.185L241.062 237.892Z" fill="#2F2E41"/>
<path d="M249.974 125.086L248.059 121.301C248.059 121.301 240.926 123.089 240.277 127.224L249.974 125.086Z" fill="#7168D6"/>
<path d="M257.875 168.364L252.667 197.433L266.494 221.895L258.234 225.128L244.228 201.416L242.432 194.95L241.354 228.721L233.905 228.494L230.489 196.96L235.967 167.646L257.875 168.364Z" fill="#2F2E41"/>
<path d="M233.003 173.608C232.842 172.889 232.378 150.913 232.378 150.913C232.378 150.913 240.037 125.761 240.107 125.554L240.134 125.473L245.949 123.293C246.031 123.255 247.968 122.392 249.553 123.112C249.96 123.309 250.318 123.594 250.604 123.945C250.889 124.296 251.095 124.704 251.206 125.143C251.865 125.635 256.618 130.96 256.618 138.184L256.797 155.231L260.782 173.712L260.606 173.749C260.497 173.773 255.64 175.236 247.99 175.236C243.739 175.236 233.003 173.608 233.003 173.608Z" fill="#3F3D56"/>
<path d="M242.112 120.108C246.452 120.108 249.971 116.588 249.971 112.247C249.971 107.905 246.452 104.385 242.112 104.385C237.771 104.385 234.253 107.905 234.253 112.247C234.253 116.588 237.771 120.108 242.112 120.108Z" fill="#FFB8B8"/>
<path opacity="0.2" d="M253.308 146.882L239.559 166.072L237.528 157.11L253.308 146.882Z" fill="black"/>
<path d="M228.905 166.486C229.398 166.467 229.88 166.339 230.318 166.113C230.757 165.887 231.14 165.567 231.441 165.177C231.742 164.786 231.954 164.335 232.062 163.853C232.17 163.372 232.171 162.873 232.066 162.391L242.282 156.122L236.64 153.482L227.804 159.84C227.007 160.072 226.322 160.588 225.88 161.29C225.437 161.993 225.268 162.833 225.404 163.653C225.539 164.472 225.971 165.213 226.616 165.735C227.262 166.257 228.076 166.525 228.905 166.486Z" fill="#FFB8B8"/>
<path d="M235.967 153.635L232.468 156.087L235.436 161.359L239.559 157.946L235.967 153.635Z" fill="#7168D6"/>
<path d="M234.136 153.789L242.366 144.245L239.213 131.082C238.887 129.722 239.067 128.29 239.719 127.052C240.372 125.815 241.452 124.858 242.759 124.359C244.065 123.86 245.508 123.854 246.819 124.342C248.13 124.83 249.218 125.778 249.881 127.01L249.952 127.143L252.858 146.69L238.258 161.661L234.136 153.789Z" fill="#3F3D56"/>
<path d="M248.806 119.073L242.283 119.307C241.885 119.321 240.806 115.029 240.665 114.138C240.553 113.558 240.234 113.039 239.768 112.677C239.301 112.316 238.719 112.136 238.13 112.172C237.642 112.218 236.411 111.306 235.14 110.225C232.728 108.174 232.853 104.321 235.503 102.587C235.576 102.54 235.647 102.496 235.716 102.457C237.388 101.521 239.344 101.207 241.259 101.183C242.996 101.161 244.781 101.38 246.311 102.202C249.054 103.676 250.513 106.897 250.641 110.009C250.77 113.121 249.772 116.164 248.641 119.065" fill="#2F2E41"/>
<path d="M284.641 238H205.271C205.176 238 205.084 237.962 205.017 237.895C204.95 237.827 204.912 237.736 204.912 237.641C204.912 237.545 204.95 237.454 205.017 237.386C205.084 237.319 205.176 237.281 205.271 237.281H284.641C284.736 237.281 284.827 237.319 284.895 237.386C284.962 237.454 285 237.545 285 237.641C285 237.736 284.962 237.827 284.895 237.895C284.827 237.962 284.736 238 284.641 238Z" fill="#3F3D56"/>
<path d="M49.6815 223.622C50.7286 224.002 51.8527 224.098 52.9458 223.899C54.0388 223.699 55.0638 223.212 55.9221 222.484C58.1078 220.586 58.7933 217.46 59.3507 214.564L61 206L57.5471 208.46C55.0638 210.229 52.5247 212.055 50.8055 214.617C49.0862 217.179 48.3361 220.677 49.7171 223.45" fill="#E6E6E6"/>
<path d="M53 228.943C53.4734 229.598 54.1243 230.131 54.8899 230.491C55.6554 230.851 56.5099 231.025 57.3709 230.997C59.5841 230.901 61.4285 229.496 63.0886 228.161L68 224.214L64.7496 224.073C62.412 223.971 60.0142 223.875 57.7877 224.532C55.5613 225.189 53.508 226.767 53.1009 228.865" fill="#E6E6E6"/>
<path d="M49.041 236.583C51.154 232.87 53.6048 228.743 57.9842 227.424C59.2018 227.058 60.4785 226.927 61.7456 227.038C62.145 227.072 62.0453 227.684 61.6467 227.65C59.5227 227.475 57.4028 228.032 55.6438 229.227C53.9512 230.371 52.6333 231.962 51.5179 233.649C50.8346 234.682 50.2226 235.76 49.6106 236.835C49.4151 237.179 48.8432 236.931 49.041 236.583Z" fill="#F2F2F2"/>
<path d="M76.0006 234H79.3884L81 221L76 221L76.0006 234Z" fill="#FFB6B6"/>
<path d="M75 233L81.7183 233C82.8538 233 83.943 233.408 84.7459 234.135C85.5488 234.861 85.9999 235.846 86 236.874V237L75.0002 237L75 233Z" fill="#2F2E41"/>
<path d="M92.0006 234H95.3884L97 221L92 221L92.0006 234Z" fill="#FFB6B6"/>
<path d="M91 233L97.7183 233C98.8538 233 99.943 233.408 100.746 234.135C101.549 234.861 102 235.846 102 236.874V237L91.0002 237L91 233Z" fill="#2F2E41"/>
<path d="M98.2594 174.97C98.5468 174.644 98.7589 174.259 98.8809 173.842C99.0028 173.426 99.0316 172.987 98.9651 172.558C98.8987 172.13 98.7387 171.72 98.4963 171.36C98.254 170.999 97.9353 170.696 97.5625 170.471L92.0288 144L86 146.367L93.3352 171.643C92.998 172.291 92.9114 173.041 93.0917 173.749C93.2721 174.458 93.707 175.075 94.314 175.485C94.9209 175.896 95.6578 176.07 96.385 175.975C97.1121 175.88 97.7791 175.522 98.2594 174.97Z" fill="#FFB6B6"/>
<path d="M72.1475 169.703L69.6885 172.209C69.6885 172.209 67.0521 181.906 72.097 193.866L75.4713 228.541L81.5423 229L83.3546 188.658L91.7169 202.049L90.2562 228.857L96.967 228.702L100 198.997L91.7169 168L72.1475 169.703Z" fill="#2F2E41"/>
<path d="M81.4595 173C77.6786 172.974 73.9025 172.73 70.151 172.268L70 172.249L73.7418 156.139L72.4534 135.411L84.6202 135.003C85.7217 134.964 86.799 135.325 87.6454 136.016C88.4919 136.707 89.0478 137.681 89.2064 138.749L91.6965 155.286L94 169.958L93.9691 170.002C92.3138 172.38 86.7792 173 81.4595 173Z" fill="#7168D6"/>
<path d="M84 138.715L86.2478 135.677C86.2478 135.677 90.1885 132.772 91.4357 138.997C92.6828 145.222 95 155.327 95 155.327L87.2945 156L84 138.715Z" fill="#7168D6"/>
<path d="M60.7406 174.97C60.4532 174.644 60.2411 174.259 60.1191 173.842C59.9972 173.426 59.9684 172.987 60.0349 172.558C60.1013 172.13 60.2613 171.72 60.5037 171.36C60.746 170.999 61.0647 170.696 61.4375 170.471L66.9712 144L73 146.367L65.6648 171.643C66.002 172.291 66.0886 173.041 65.9083 173.749C65.7279 174.458 65.293 175.075 64.686 175.485C64.0791 175.896 63.3422 176.07 62.615 175.975C61.8879 175.88 61.2209 175.522 60.7406 174.97Z" fill="#FFB6B6"/>
<path d="M75 138.715L72.5478 135.677C72.5478 135.677 68.2489 132.772 66.8884 138.997C65.5278 145.222 63 155.327 63 155.327L71.406 156L75 138.715Z" fill="#7168D6"/>
<path d="M85.7239 132H69.2761C68.9378 132 68.6134 131.872 68.3742 131.644C68.135 131.416 68.0004 131.108 68 130.786V124.04C68 121.642 69.0009 119.343 70.7825 117.648C72.5641 115.952 74.9804 115 77.5 115C80.0196 115 82.4359 115.952 84.2175 117.648C85.9991 119.343 87 121.642 87 124.04V130.786C86.9996 131.108 86.865 131.416 86.6258 131.644C86.3866 131.872 86.0622 132 85.7239 132Z" fill="#2F2E41"/>
<path d="M79.5 132C83.0899 132 86 128.866 86 125C86 121.134 83.0899 118 79.5 118C75.9102 118 73 121.134 73 125C73 128.866 75.9102 132 79.5 132Z" fill="#FFB6B6"/>
<path d="M89 125H79.2164L79.116 123.68L78.6144 125H77.108L76.9091 122.384L75.9149 125H73V124.87C73.0022 123.049 73.7731 121.303 75.1435 120.015C76.514 118.727 78.3721 118.002 80.3103 118H81.6897C83.6278 118.002 85.4859 118.727 86.8564 120.015C88.2269 121.303 88.9978 123.049 89 124.87V125Z" fill="#2F2E41"/>
<path d="M78.8489 134C78.7806 134 78.7124 133.993 78.6451 133.981L72 132.729V121H79.315L79.1339 121.225C76.6142 124.364 78.5125 129.453 79.8683 132.207C79.9682 132.408 80.0128 132.636 79.9968 132.864C79.9809 133.091 79.9051 133.309 79.7781 133.493C79.6718 133.65 79.5322 133.778 79.3706 133.866C79.2091 133.954 79.0303 134 78.8489 134Z" fill="#2F2E41"/>
<path d="M120.728 238H39.2724C39.2002 238 39.1309 237.947 39.0798 237.854C39.0287 237.76 39 237.633 39 237.5C39 237.367 39.0287 237.24 39.0798 237.146C39.1309 237.053 39.2002 237 39.2724 237H120.728C120.8 237 120.869 237.053 120.92 237.146C120.971 237.24 121 237.367 121 237.5C121 237.633 120.971 237.76 120.92 237.854C120.869 237.947 120.8 238 120.728 238Z" fill="#3F3D56"/>
</g>
<defs>
<clipPath id="clip0_8564_7834">
<rect width="285" height="238" fill="white"/>
</clipPath>
</defs>
</svg>
