<svg width="14" height="12" viewBox="0 0 14 12" fill="none" xmlns="http://www.w3.org/2000/svg">
<path fill-rule="evenodd" clip-rule="evenodd" d="M2.47063 8.74996C2.47063 8.85371 2.45019 8.95643 2.41049 9.05228C2.37079 9.14813 2.3126 9.23522 2.23924 9.30858C2.16588 9.38193 2.07879 9.44012 1.98294 9.47983C1.8871 9.51953 1.78437 9.53996 1.68063 9.53996C1.57688 9.53996 1.47415 9.51953 1.37831 9.47983C1.28246 9.44012 1.19537 9.38193 1.12201 9.30858C1.04865 9.23522 0.990461 9.14813 0.95076 9.05228C0.911059 8.95643 0.890625 8.85371 0.890625 8.74996C0.890625 8.54044 0.973857 8.3395 1.12201 8.19135C1.27016 8.04319 1.4711 7.95996 1.68063 7.95996C1.89015 7.95996 2.09109 8.04319 2.23924 8.19135C2.38739 8.3395 2.47063 8.54044 2.47063 8.74996ZM13.1006 8.74996C13.1006 8.95948 13.0174 9.16042 12.8692 9.30858C12.7211 9.45673 12.5201 9.53996 12.3106 9.53996C12.1011 9.53996 11.9002 9.45673 11.752 9.30858C11.6039 9.16042 11.5206 8.95948 11.5206 8.74996C11.5206 8.54044 11.6039 8.3395 11.752 8.19135C11.9002 8.04319 12.1011 7.95996 12.3106 7.95996C12.5201 7.95996 12.7211 8.04319 12.8692 8.19135C13.0174 8.3395 13.1006 8.54044 13.1006 8.74996Z" fill="#00A6ED"/>
<path fill-rule="evenodd" clip-rule="evenodd" d="M4.12492 3.635L5.71492 5.77L2.41992 6.15L3.47992 3.705C3.22492 3.605 3.04492 3.355 3.04492 3.065C3.04492 2.685 3.35492 2.375 3.73492 2.375C3.88198 2.37578 4.02496 2.42342 4.14309 2.511C4.26122 2.59858 4.34836 2.72154 4.39184 2.86202C4.43532 3.00251 4.43289 3.15319 4.38489 3.2922C4.33689 3.4312 4.24582 3.55128 4.12492 3.635ZM10.5049 3.705L11.5649 6.15L8.26992 5.77L9.85992 3.635C9.67992 3.51 9.55992 3.3 9.55992 3.065C9.55992 2.685 9.86992 2.375 10.2499 2.375C10.6299 2.375 10.9399 2.685 10.9399 3.065C10.9399 3.355 10.7599 3.605 10.5049 3.705Z" fill="#E19747"/>
<path d="M13.99 3.54505C13.99 3.16505 13.68 2.85505 13.3 2.85505C12.92 2.85505 12.61 3.16505 12.61 3.54505C12.61 3.68505 12.655 3.82005 12.725 3.92505C12.615 3.92505 12.505 3.95005 12.4 4.02005L10.435 5.29005C10.175 5.45505 9.835 5.39505 9.65 5.14505L7.465 2.18005C7.44943 2.15619 7.43095 2.13435 7.41 2.11505C7.57725 2.02297 7.70913 1.87788 7.78488 1.70262C7.86063 1.52737 7.87594 1.3319 7.8284 1.14699C7.78087 0.962073 7.67318 0.798222 7.5223 0.681225C7.37143 0.564229 7.18592 0.500732 6.995 0.500732C6.80408 0.500732 6.61857 0.564229 6.4677 0.681225C6.31682 0.798222 6.20913 0.962073 6.1616 1.14699C6.11406 1.3319 6.12937 1.52737 6.20512 1.70262C6.28087 1.87788 6.41275 2.02297 6.58 2.11505C6.56 2.13505 6.54 2.15505 6.525 2.18005L4.34 5.14505C4.16 5.39505 3.815 5.45505 3.555 5.29005L1.59 4.02005C1.485 3.95005 1.375 3.92505 1.265 3.92505C1.34 3.81505 1.38 3.68505 1.38 3.54505C1.38 3.16505 1.07 2.85505 0.69 2.85505C0.31 2.85505 0 3.16505 0 3.54505C0 3.92505 0.31 4.23505 0.69 4.23505C0.715 4.23505 0.74 4.23505 0.76 4.23005C0.695 4.34505 0.67 4.48005 0.7 4.62505L2 11.11C2.095 11.575 2.505 11.91 2.98 11.91H11.01C11.485 11.91 11.895 11.575 11.99 11.11L13.29 4.62505C13.32 4.48005 13.29 4.34005 13.23 4.23005C13.255 4.23005 13.28 4.23505 13.3 4.23505C13.68 4.23505 13.99 3.92505 13.99 3.54505Z" fill="#FFB02E"/>
<path d="M6.99414 10C7.32566 10 7.6436 9.8683 7.87802 9.63388C8.11244 9.39946 8.24414 9.08152 8.24414 8.75C8.24414 8.41848 8.11244 8.10054 7.87802 7.86612C7.6436 7.6317 7.32566 7.5 6.99414 7.5C6.66262 7.5 6.34468 7.6317 6.11026 7.86612C5.87584 8.10054 5.74414 8.41848 5.74414 8.75C5.74414 9.08152 5.87584 9.39946 6.11026 9.63388C6.34468 9.8683 6.66262 10 6.99414 10Z" fill="#00A6ED"/>
<path fill-rule="evenodd" clip-rule="evenodd" d="M4.5 8.75C4.5 8.94891 4.42098 9.13968 4.28033 9.28033C4.13968 9.42098 3.94891 9.5 3.75 9.5C3.55109 9.5 3.36032 9.42098 3.21967 9.28033C3.07902 9.13968 3 8.94891 3 8.75C3 8.55109 3.07902 8.36032 3.21967 8.21967C3.36032 8.07902 3.55109 8 3.75 8C3.94891 8 4.13968 8.07902 4.28033 8.21967C4.42098 8.36032 4.5 8.55109 4.5 8.75ZM11 8.75C11 8.94891 10.921 9.13968 10.7803 9.28033C10.6397 9.42098 10.4489 9.5 10.25 9.5C10.0511 9.5 9.86032 9.42098 9.71967 9.28033C9.57902 9.13968 9.5 8.94891 9.5 8.75C9.5 8.55109 9.57902 8.36032 9.71967 8.21967C9.86032 8.07902 10.0511 8 10.25 8C10.4489 8 10.6397 8.07902 10.7803 8.21967C10.921 8.36032 11 8.55109 11 8.75Z" fill="#F8312F"/>
</svg>
