<svg width="12" height="14" viewBox="0 0 12 14" fill="none" xmlns="http://www.w3.org/2000/svg">
<path d="M6.00039 0.600098C5.1517 0.600098 4.33776 0.93724 3.73765 1.53736C3.13753 2.13747 2.80039 2.95141 2.80039 3.8001C2.80039 4.64879 3.13753 5.46272 3.73765 6.06284C4.33776 6.66296 5.1517 7.0001 6.00039 7.0001C6.84908 7.0001 7.66301 6.66296 8.26313 6.06284C8.86325 5.46272 9.20039 4.64879 9.20039 3.8001C9.20039 2.95141 8.86325 2.13747 8.26313 1.53736C7.66301 0.93724 6.84908 0.600098 6.00039 0.600098ZM2.00759 7.8001C1.7969 7.79926 1.58812 7.84001 1.39321 7.92003C1.19831 8.00005 1.02111 8.11776 0.871798 8.26641C0.722482 8.41506 0.603978 8.59172 0.523084 8.78626C0.442189 8.98081 0.400494 9.18941 0.400391 9.4001C0.400391 10.7529 1.06679 11.7729 2.10839 12.4377C3.13399 13.0913 4.51639 13.4001 6.00039 13.4001C7.48439 13.4001 8.86679 13.0913 9.89239 12.4377C10.934 11.7737 11.6004 10.7521 11.6004 9.4001C11.6004 8.97575 11.4318 8.56879 11.1318 8.26873C10.8317 7.96867 10.4247 7.8001 10.0004 7.8001H2.00759Z" fill="#FFAA4A"/>
</svg>
