<svg width="12" height="12" viewBox="0 0 12 12" fill="none" xmlns="http://www.w3.org/2000/svg">
<g clip-path="url(#clip0_1_817)">
<path d="M11.432 12H0.569333C0.419256 12 0.275247 11.9408 0.168628 11.8351C0.0620091 11.7295 0.00140587 11.5861 0 11.436V0.568C0.000353082 0.417235 0.060492 0.272765 0.167225 0.166282C0.273957 0.0597997 0.418568 -4.13443e-07 0.569333 0H4.10267C4.25331 0 4.39778 0.0598427 4.5043 0.166363C4.61082 0.272884 4.67067 0.417357 4.67067 0.568C4.67067 0.718643 4.61082 0.863116 4.5043 0.969637C4.39778 1.07616 4.25331 1.136 4.10267 1.136H1.13733V10.8693H10.864V8.04267C10.864 7.89202 10.9238 7.74755 11.0304 7.64103C11.1369 7.53451 11.2814 7.47467 11.432 7.47467C11.5826 7.47467 11.7271 7.53451 11.8336 7.64103C11.9402 7.74755 12 7.89202 12 8.04267V11.436C11.9989 11.5859 11.9386 11.7294 11.8322 11.8351C11.7258 11.9407 11.582 12 11.432 12Z" fill="#83838B"/>
<path d="M11.9996 0.568V4.02533C11.9996 4.17598 11.9397 4.32045 11.8332 4.42697C11.7267 4.53349 11.5822 4.59333 11.4316 4.59333C11.2809 4.59333 11.1365 4.53349 11.0299 4.42697C10.9234 4.32045 10.8636 4.17598 10.8636 4.02533V1.94L6.02358 6.78C5.91469 6.8708 5.77579 6.9176 5.63416 6.9112C5.49253 6.9048 5.35841 6.84567 5.25816 6.74542C5.15791 6.64517 5.09878 6.51105 5.09238 6.36942C5.08598 6.22779 5.13278 6.08888 5.22358 5.98L10.0582 1.136H7.97424C7.8236 1.136 7.67913 1.07616 7.57261 0.969637C7.46608 0.863116 7.40624 0.718643 7.40624 0.568C7.40624 0.417357 7.46608 0.272884 7.57261 0.166363C7.67913 0.0598427 7.8236 0 7.97424 0H11.4316C11.47 0.000241417 11.5084 0.00381027 11.5462 0.0106667L11.6009 0.0253333C11.6189 0.0300148 11.6364 0.0367243 11.6529 0.0453334C11.6679 0.0503406 11.6822 0.0570514 11.6956 0.0653333C11.7125 0.0730674 11.7285 0.0824461 11.7436 0.0933333C11.76 0.103693 11.7756 0.115282 11.7902 0.128C11.8054 0.139341 11.8197 0.151822 11.8329 0.165333C11.8983 0.230475 11.9468 0.310563 11.9742 0.398667C11.9742 0.417333 11.9836 0.436 11.9889 0.454667C11.9958 0.492053 11.9994 0.52998 11.9996 0.568Z" fill="#83838B"/>
</g>
<defs>
<clipPath id="clip0_1_817">
<rect width="12" height="12" fill="white"/>
</clipPath>
</defs>
</svg>
