<svg xmlns="http://www.w3.org/2000/svg" xmlns:xlink="http://www.w3.org/1999/xlink" width="479.79" height="314.645" viewBox="0 0 479.79 314.645"><defs><style>.a{fill:none;}.b,.c,.k{opacity:0.5;}.b{fill:url(#a);}.c{fill:#9bd6e8;}.d{fill:#63acc2;}.e{clip-path:url(#b);}.f{fill:#d5ebfe;}.g{fill:#303c60;}.h{fill:#f09959;}.i,.k{fill:#6791c9;}.j{fill:#75a1de;}.l{fill:#e38540;}.m{fill:#f5ce5c;}.n{fill:#4381db;}.o{fill:#2e5b9a;}.p{fill:#9cbeed;}.q{fill:#fff;}.r{fill:#232e4f;}.s{fill:#1b243d;}.t{fill:#ffd24f;}.u{fill:#edc055;}.v{fill:#2a66c6;}.w{fill:#0f2d5c;}.x{fill:#9ec8ff;}.y{fill:#3e6bab;}.z{fill:#c1c765;}</style><linearGradient id="a" x1="0.147" y1="1.029" x2="0.801" y2="0.143" gradientUnits="objectBoundingBox"><stop offset="0" stop-color="#4659c1"/><stop offset="1" stop-color="#3ad0de"/></linearGradient><clipPath id="b"><circle class="a" cx="83.586" cy="83.586" r="83.586" transform="translate(0 118.209) rotate(-45)"/></clipPath></defs><g transform="translate(-2804.085 -1240.468)"><path class="b" d="M2426.8,721.976c38.144-36.412,47.257-110.753,11.927-162.442-29.448-43.082-83.688-87.4-152.039-100.316s-128.23-12.9-154.127,4.162c-21.193,13.966-11.341,33.417-4.7,49.946,8.872,22.065,10.179,39.584-26.319,71.638-41.664,36.591-52.942,50.327-55.03,85.708-1.7,28.776,22.326,67.484,53.851,73.03,43.888,7.722,60.178-12.674,103.115-26.423,34.444-11.03,58.334-5.872,89.563,15.267S2370.821,775.411,2426.8,721.976Z" transform="translate(790.655 795.497)"/><path class="c" d="M3704.53,2340.883c-54.986-.139-177.83,2.221-274.37,7.234s-14.828,16.247,51.662,11.464,113,10.448,194.379,5.3S3768.328,2341.043,3704.53,2340.883Z" transform="translate(-461.917 -813.124)"/><g transform="translate(2819.394 1280.951)"><g transform="translate(0 0)"><g transform="translate(0 75.243)"><path class="d" d="M2762.264,1675.952a.4.4,0,0,1-.378-.283l-1.119-3.787a.4.4,0,0,1,.208-.468l3.561-1.706a.395.395,0,0,1,.341.712l-3.258,1.56,1.023,3.464a.4.4,0,0,1-.379.507Z" transform="translate(-2760.75 -1669.669)"/></g><g transform="translate(3.214 87.831)"><path class="d" d="M2798.646,1805.09a.4.4,0,0,1-.378-.283l-2.1-7.1a.395.395,0,1,1,.757-.224l2.1,7.1a.394.394,0,0,1-.267.49A.389.389,0,0,1,2798.646,1805.09Zm-4.191-14.191a.394.394,0,0,1-.378-.283l-2.1-7.1a.395.395,0,0,1,.757-.224l2.1,7.1a.4.4,0,0,1-.267.49A.389.389,0,0,1,2794.454,1790.9Zm-4.191-14.19a.394.394,0,0,1-.378-.283l-2.1-7.095a.395.395,0,0,1,.757-.224l2.1,7.095a.4.4,0,0,1-.267.491A.385.385,0,0,1,2790.263,1776.709Zm-4.191-14.19a.4.4,0,0,1-.379-.283l-2.1-7.095a.395.395,0,0,1,.757-.224l2.1,7.1a.394.394,0,0,1-.266.491A.389.389,0,0,1,2786.072,1762.519Zm-4.191-14.191a.4.4,0,0,1-.379-.283l-2.1-7.1a.395.395,0,0,1,.757-.224l2.1,7.1a.394.394,0,0,1-.379.506Zm-4.191-14.19a.4.4,0,0,1-.379-.283l-2.1-7.095a.395.395,0,0,1,.758-.224l2.1,7.1a.4.4,0,0,1-.267.49A.4.4,0,0,1,2777.689,1734.138Z" transform="translate(-2775.198 -1726.253)"/></g><g transform="translate(28.362 172.974)"><path class="d" d="M2889.757,2113.557a.395.395,0,0,1-.379-.283l-1.118-3.787a.395.395,0,0,1,.757-.223l1,3.382,3.307-1.224a.395.395,0,1,1,.274.74l-3.7,1.371A.4.4,0,0,1,2889.757,2113.557Z" transform="translate(-2888.243 -2108.981)"/></g><g transform="translate(40.481 121.389)"><path class="d" d="M2943.116,1929.19a.395.395,0,0,1-.137-.765l7.3-2.7a.395.395,0,1,1,.273.74l-7.3,2.7A.394.394,0,0,1,2943.116,1929.19Zm14.6-5.4a.395.395,0,0,1-.137-.765l7.3-2.7a.395.395,0,0,1,.274.741l-7.3,2.7A.389.389,0,0,1,2957.711,1923.79Zm14.6-5.4a.395.395,0,0,1-.137-.765l7.3-2.7a.395.395,0,1,1,.274.741l-7.3,2.7A.391.391,0,0,1,2972.307,1918.39Zm14.6-5.4a.395.395,0,0,1-.137-.765l7.3-2.7a.395.395,0,0,1,.274.741l-7.3,2.7A.394.394,0,0,1,2986.9,1912.99Zm14.6-5.4a.4.4,0,0,1-.137-.766l7.3-2.7a.395.395,0,0,1,.274.741l-7.3,2.7A.4.4,0,0,1,3001.5,1907.59Zm14.6-5.4a.395.395,0,0,1-.137-.765l7.3-2.7a.395.395,0,0,1,.273.74l-7.3,2.7A.405.405,0,0,1,3016.094,1902.189Zm14.6-5.4a.395.395,0,0,1-.137-.765l7.3-2.7a.395.395,0,0,1,.273.741l-7.3,2.7A.4.4,0,0,1,3030.69,1896.789Zm14.6-5.4a.395.395,0,0,1-.137-.765l7.3-2.7a.395.395,0,1,1,.274.74l-7.3,2.7A.394.394,0,0,1,3045.285,1891.389Zm14.6-5.4a.395.395,0,0,1-.137-.765l7.3-2.7a.395.395,0,1,1,.273.74l-7.3,2.7A.389.389,0,0,1,3059.881,1885.989Zm14.6-5.4a.395.395,0,0,1-.137-.765l7.3-2.7a.395.395,0,1,1,.273.741l-7.3,2.7A.388.388,0,0,1,3074.477,1880.589Z" transform="translate(-2942.721 -1877.099)"/></g><g transform="translate(186.438 117.319)"><path class="d" d="M3606.312,1861.608a.393.393,0,0,1-.2-.056l-3.233-1.919-3.527,1.3a.395.395,0,1,1-.274-.741l3.7-1.37a.4.4,0,0,1,.339.031l3.4,2.015a.4.4,0,0,1-.2.735Z" transform="translate(-3598.819 -1858.803)"/></g><g transform="translate(200.543 123.492)"><path class="d" d="M3767.708,1949.719a.391.391,0,0,1-.2-.055l-7.006-4.159a.395.395,0,1,1,.4-.679l7.006,4.159a.395.395,0,0,1-.2.734ZM3753.7,1941.4a.393.393,0,0,1-.2-.055l-7.006-4.158a.395.395,0,1,1,.4-.679l7.006,4.158a.395.395,0,0,1-.2.734Zm-14.013-8.317a.391.391,0,0,1-.2-.055l-7.006-4.159a.395.395,0,0,1,.4-.679l7.006,4.158a.395.395,0,0,1-.2.734Zm-14.012-8.317a.389.389,0,0,1-.2-.056l-7.006-4.158a.395.395,0,1,1,.4-.679l7.006,4.159a.395.395,0,0,1-.2.734Zm-14.012-8.317a.39.39,0,0,1-.2-.055l-7.006-4.159a.395.395,0,1,1,.4-.679l7.006,4.158a.395.395,0,0,1-.2.734Zm-14.012-8.317a.4.4,0,0,1-.2-.055l-7.006-4.158a.395.395,0,0,1,.4-.679l7.006,4.158a.395.395,0,0,1-.2.734Zm-14.012-8.317a.393.393,0,0,1-.2-.055l-7.007-4.159a.395.395,0,0,1,.4-.679l7.007,4.158a.395.395,0,0,1-.2.734Zm-14.012-8.317a.393.393,0,0,1-.2-.056l-7.006-4.158a.395.395,0,0,1,.4-.679l7.006,4.159a.395.395,0,0,1-.2.734Z" transform="translate(-3662.221 -1886.553)"/></g><g transform="translate(312.641 189.886)"><path class="d" d="M4169.913,2187.948a.394.394,0,0,1-.2-.055l-3.4-2.015a.395.395,0,0,1,.4-.679l3.184,1.89,3.1-2.021a.395.395,0,0,1,.431.661l-3.307,2.156A.4.4,0,0,1,4169.913,2187.948Z" transform="translate(-4166.123 -2185.003)"/></g><g transform="translate(326.353 125.938)"><path class="d" d="M4228.156,1957.719a.395.395,0,0,1-.215-.726l7.009-4.568a.395.395,0,0,1,.431.662l-7.009,4.568A.393.393,0,0,1,4228.156,1957.719Zm14.02-9.135a.395.395,0,0,1-.216-.726l7.009-4.568a.395.395,0,1,1,.431.662l-7.009,4.568A.393.393,0,0,1,4242.175,1948.584Zm14.018-9.135a.395.395,0,0,1-.216-.726l7.009-4.568a.395.395,0,1,1,.431.662l-7.008,4.568A.393.393,0,0,1,4256.193,1939.448Zm14.019-9.135a.395.395,0,0,1-.216-.726l7.01-4.568a.395.395,0,1,1,.43.662l-7.009,4.568A.393.393,0,0,1,4270.211,1930.313Zm14.019-9.135a.395.395,0,0,1-.216-.726l7.009-4.568a.4.4,0,1,1,.432.662l-7.01,4.568A.393.393,0,0,1,4284.23,1921.178Zm14.018-9.135a.395.395,0,0,1-.215-.725l7.009-4.568a.395.395,0,0,1,.432.661l-7.01,4.568A.394.394,0,0,1,4298.248,1912.042Zm14.019-9.135a.395.395,0,0,1-.216-.726l7.01-4.568a.395.395,0,0,1,.431.662l-7.009,4.567A.392.392,0,0,1,4312.267,1902.907Z" transform="translate(-4227.761 -1897.549)"/></g><g transform="translate(424.482 115.326)"><path class="d" d="M4669.26,1856.68a.395.395,0,0,1-.216-.726l3.165-2.062.651-3.72a.4.4,0,0,1,.778.136l-.682,3.889a.4.4,0,0,1-.173.263l-3.308,2.155A.393.393,0,0,1,4669.26,1856.68Z" transform="translate(-4668.864 -1849.846)"/></g><g transform="translate(429.868 35.614)"><path class="d" d="M4693.471,1564.056a.391.391,0,0,1-.068-.005.4.4,0,0,1-.321-.457l1.4-7.971a.4.4,0,0,1,.778.136l-1.4,7.971A.4.4,0,0,1,4693.471,1564.056Zm2.793-15.942a.4.4,0,0,1-.068-.006.4.4,0,0,1-.321-.457l1.4-7.971a.395.395,0,0,1,.778.136l-1.4,7.971A.4.4,0,0,1,4696.264,1548.114Zm2.794-15.943a.4.4,0,0,1-.39-.463l1.4-7.971a.395.395,0,1,1,.777.136l-1.4,7.971A.4.4,0,0,1,4699.059,1532.172Zm2.793-15.942a.415.415,0,0,1-.069-.006.4.4,0,0,1-.321-.457l1.4-7.971a.395.395,0,1,1,.777.136l-1.4,7.971A.4.4,0,0,1,4701.852,1516.229Zm2.794-15.943a.39.39,0,0,1-.069-.006.4.4,0,0,1-.321-.457l1.4-7.971a.395.395,0,1,1,.778.136l-1.4,7.971A.394.394,0,0,1,4704.646,1500.287Z" transform="translate(-4693.075 -1491.526)"/></g><g transform="translate(440.582 23.442)"><path class="d" d="M4744.888,1441.8a.4.4,0,0,1-.068-.006.4.4,0,0,1-.321-.457l.606-3.461-3.5-.277a.395.395,0,0,1,.062-.787l3.937.311a.4.4,0,0,1,.281.152.392.392,0,0,1,.076.31l-.681,3.889A.4.4,0,0,1,4744.888,1441.8Z" transform="translate(-4741.238 -1436.815)"/></g><g transform="translate(10.728)"><path class="d" d="M2809.368,1404.037a.395.395,0,0,1-.171-.751l7.167-3.434a.395.395,0,1,1,.341.712l-7.167,3.435A.392.392,0,0,1,2809.368,1404.037Zm14.335-6.869a.395.395,0,0,1-.171-.751l7.167-3.434a.395.395,0,0,1,.341.712l-7.167,3.434A.391.391,0,0,1,2823.7,1397.168Zm14.335-6.869a.4.4,0,0,1-.171-.751l7.167-3.434a.395.395,0,1,1,.341.712l-7.167,3.435A.394.394,0,0,1,2838.038,1390.3Zm14.334-6.869a.395.395,0,0,1-.171-.751l7.168-3.434a.395.395,0,1,1,.341.712l-7.167,3.434A.392.392,0,0,1,2852.372,1383.431Zm14.335-6.869a.395.395,0,0,1-.171-.751l7.167-3.434a.395.395,0,1,1,.341.712l-7.167,3.434A.387.387,0,0,1,2866.707,1376.562Zm14.334-6.869a.395.395,0,0,1-.171-.751l7.167-3.434a.395.395,0,1,1,.341.712l-7.167,3.434A.391.391,0,0,1,2881.042,1369.693Zm14.335-6.869a.395.395,0,0,1-.171-.751l4.743-2.272a.356.356,0,0,1,.06-.023l2.58-.753a.395.395,0,1,1,.221.758l-2.549.745-4.714,2.259A.393.393,0,0,1,2895.376,1362.824Zm14.952-5.254a.395.395,0,0,1-.111-.774l7.629-2.228a.395.395,0,1,1,.221.758l-7.628,2.228A.4.4,0,0,1,2910.328,1357.57Zm320.972-2.526h-.031l-7.923-.626a.395.395,0,1,1,.062-.787l7.923.626a.395.395,0,0,1-.031.789Zm-15.846-1.252h-.031l-7.923-.626a.395.395,0,0,1,.062-.787l7.923.626a.395.395,0,0,1-.031.788Zm-289.868-.677a.395.395,0,0,1-.111-.774l7.629-2.228a.395.395,0,0,1,.222.758l-7.63,2.228A.388.388,0,0,1,2925.586,1353.115Zm274.022-.574h-.032l-7.923-.626a.395.395,0,0,1,.063-.787l7.923.626a.395.395,0,0,1-.031.788Zm-15.846-1.252h-.032l-7.923-.626a.395.395,0,0,1,.062-.787l7.923.626a.395.395,0,0,1-.031.789Zm-15.846-1.252h-.032l-7.923-.626a.395.395,0,0,1,.062-.787l7.923.626a.395.395,0,0,1-.031.788Zm-15.846-1.252h-.032l-7.923-.626a.395.395,0,0,1,.062-.787l7.923.626a.395.395,0,0,1-.03.788Zm-211.227-.126a.395.395,0,0,1-.111-.774l7.629-2.228a.395.395,0,0,1,.222.758l-7.629,2.228A.389.389,0,0,1,2940.844,1348.659Zm195.38-1.126h-.032l-7.923-.626a.395.395,0,1,1,.062-.787l7.923.626a.395.395,0,0,1-.031.788Zm-15.836-1.354a.373.373,0,0,1-.047,0l-7.893-.93a.395.395,0,1,1,.093-.784l7.893.93a.395.395,0,0,1-.046.787Zm-15.786-1.86-.047,0-7.893-.93a.395.395,0,1,1,.093-.784l7.893.93a.395.395,0,0,1-.046.787Zm-148.5-.115a.395.395,0,0,1-.111-.774l7.629-2.228a.395.395,0,0,1,.221.758l-7.629,2.228A.4.4,0,0,1,2956.1,1344.2Zm132.714-1.745a.349.349,0,0,1-.047,0l-7.893-.93a.395.395,0,1,1,.093-.784l7.893.93a.395.395,0,0,1-.046.787Zm-15.786-1.86-.046,0-7.893-.93a.395.395,0,0,1,.092-.784l7.893.93a.395.395,0,0,1-.046.787Zm-101.67-.851a.395.395,0,0,1-.111-.774l7.629-2.228a.395.395,0,0,1,.221.758l-7.628,2.228A.392.392,0,0,1,2971.36,1339.747Zm85.884-1.01-.047,0-7.893-.93a.395.395,0,1,1,.093-.784l7.893.93a.395.395,0,0,1-.046.787Zm-15.786-1.86a.352.352,0,0,1-.047,0l-7.893-.93a.395.395,0,1,1,.093-.784l7.893.93a.395.395,0,0,1-.046.787Zm-54.84-1.586a.395.395,0,0,1-.11-.774l7.629-2.228a.395.395,0,0,1,.222.758l-7.629,2.228A.4.4,0,0,1,2986.618,1335.292Zm39.054-.274-.047,0-7.893-.93a.395.395,0,1,1,.092-.784l7.894.93a.395.395,0,0,1-.046.787Zm-15.786-1.86-.047,0-7.893-.93a.395.395,0,0,1,.093-.784l7.893.93a.395.395,0,0,1-.046.787Z" transform="translate(-2808.973 -1331.438)"/></g></g><g transform="translate(186.279 3.368)"><g transform="translate(0 110.028)"><path class="d" d="M3602.361,1845.88a.394.394,0,0,1-.082-.009l-3.862-.82a.395.395,0,0,1,.164-.772l3.437.73.393-3.491a.4.4,0,0,1,.785.088l-.442,3.923a.392.392,0,0,1-.161.276A.4.4,0,0,1,3602.361,1845.88Z" transform="translate(-3598.104 -1841.167)"/></g><g transform="translate(5.223 12.085)"><path class="d" d="M3621.978,1491.47a.331.331,0,0,1-.044,0,.4.4,0,0,1-.349-.436l.92-8.162a.395.395,0,0,1,.785.089l-.92,8.162A.4.4,0,0,1,3621.978,1491.47Zm1.839-16.323-.044,0a.4.4,0,0,1-.349-.437l.92-8.162a.395.395,0,0,1,.785.088l-.919,8.162A.4.4,0,0,1,3623.816,1475.147Zm1.838-16.324a.319.319,0,0,1-.044,0,.4.4,0,0,1-.348-.436l.919-8.162a.395.395,0,1,1,.785.088l-.919,8.162A.4.4,0,0,1,3625.655,1458.823Zm1.838-16.324-.044,0a.4.4,0,0,1-.349-.436l.919-8.162a.395.395,0,1,1,.785.088l-.919,8.162A.394.394,0,0,1,3627.493,1442.5Zm1.838-16.324a.349.349,0,0,1-.045,0,.394.394,0,0,1-.348-.437l.919-8.162a.395.395,0,0,1,.785.088l-.919,8.162A.4.4,0,0,1,3629.331,1426.175Zm1.838-16.323-.044,0a.4.4,0,0,1-.349-.437l.92-8.162a.395.395,0,0,1,.785.089l-.919,8.162A.4.4,0,0,1,3631.169,1409.852Z" transform="translate(-3621.583 -1400.9)"/></g><g transform="translate(16.252)"><path class="d" d="M3671.556,1351.288l-.044,0a.394.394,0,0,1-.348-.437l.442-3.923a.395.395,0,1,1,.784.088l-.442,3.923A.4.4,0,0,1,3671.556,1351.288Z" transform="translate(-3671.161 -1346.575)"/></g></g><g transform="translate(32.36 180.015)"><path class="d" d="M2910.554,2141.608h-.019l-3.944-.184a.395.395,0,1,1,.037-.788l3.943.184a.395.395,0,0,1-.018.79Z" transform="translate(-2906.215 -2140.634)"/><g transform="translate(12.01 0.56)"><path class="d" d="M3194.513,2154.847h-.019l-8.066-.376a.395.395,0,1,1,.037-.789l8.066.376a.395.395,0,0,1-.018.789Zm-16.132-.752h-.019l-8.066-.376a.395.395,0,0,1,.037-.789l8.066.377a.395.395,0,0,1-.018.789Zm-16.132-.752h-.019l-8.066-.376a.395.395,0,0,1,.036-.789l8.066.376a.395.395,0,0,1-.017.789Zm-16.133-.752h-.019l-8.066-.376a.395.395,0,1,1,.037-.789l8.066.376a.395.395,0,0,1-.018.789Zm-16.132-.752h-.019l-8.066-.376a.395.395,0,1,1,.037-.788l8.066.376a.395.395,0,0,1-.019.789Zm-16.131-.752h-.019l-8.066-.376a.395.395,0,0,1,.037-.789l8.066.376a.395.395,0,0,1-.018.789Zm-16.132-.752h-.019l-8.066-.376a.395.395,0,0,1,.037-.789l8.066.376a.395.395,0,0,1-.017.789Zm-16.133-.752h-.019l-8.066-.376a.395.395,0,1,1,.037-.789l8.066.376a.395.395,0,0,1-.018.789Zm-16.132-.752h-.019l-8.066-.376a.395.395,0,0,1,.037-.789l8.067.376a.395.395,0,0,1-.018.789Zm-16.133-.752h-.019l-8.066-.376a.395.395,0,1,1,.036-.788l8.066.376a.395.395,0,0,1-.018.789Zm-16.132-.752h-.019l-8.066-.376a.395.395,0,0,1,.037-.789l8.066.376a.395.395,0,0,1-.018.789Zm-16.132-.752h-.019l-8.066-.376a.395.395,0,0,1,.037-.789l8.066.376a.395.395,0,0,1-.018.789Zm-16.132-.752h-.019l-8.066-.376a.395.395,0,0,1,.037-.789l8.066.376a.395.395,0,0,1-.018.789Zm-16.132-.752h-.019l-8.066-.376a.395.395,0,0,1,.037-.789l8.066.376a.395.395,0,0,1-.018.789Zm-16.132-.752h-.019l-8.066-.376a.395.395,0,1,1,.037-.788l8.066.376a.395.395,0,0,1-.018.789Z" transform="translate(-2960.202 -2143.151)"/></g><g transform="translate(253.992 11.842)"><path class="d" d="M4052.287,2194.841h-.018l-3.944-.184a.4.4,0,0,1-.376-.413.4.4,0,0,1,.414-.376l3.943.184a.395.395,0,0,1-.018.789Z" transform="translate(-4047.948 -2193.868)"/></g></g><g transform="translate(308.005 28.955)"><g transform="translate(128.028)"><path class="d" d="M4721.183,1465.305a.395.395,0,0,1-.292-.66l2.655-2.922a.395.395,0,1,1,.584.531l-2.655,2.922A.394.394,0,0,1,4721.183,1465.305Z" transform="translate(-4720.789 -1461.593)"/></g><g transform="translate(8.106 8.922)"><path class="d" d="M4182.114,1628.491a.395.395,0,0,1-.292-.66l5.451-6a.394.394,0,1,1,.583.531l-5.45,6A.394.394,0,0,1,4182.114,1628.491Zm10.9-12a.4.4,0,0,1-.292-.66l5.451-6a.395.395,0,1,1,.584.531l-5.451,6A.394.394,0,0,1,4193.016,1616.491Zm10.9-12a.395.395,0,0,1-.292-.66l5.451-6a.395.395,0,0,1,.585.531l-5.451,6A.4.4,0,0,1,4203.918,1604.491Zm10.9-12a.395.395,0,0,1-.292-.66l5.451-6a.4.4,0,0,1,.585.531l-5.452,6A.393.393,0,0,1,4214.82,1592.491Zm10.9-12a.395.395,0,0,1-.292-.66l5.451-6a.395.395,0,0,1,.584.531l-5.451,6A.4.4,0,0,1,4225.722,1580.491Zm10.9-12a.395.395,0,0,1-.292-.66l5.451-6a.395.395,0,0,1,.585.531l-5.452,6A.392.392,0,0,1,4236.624,1568.49Zm10.9-12a.395.395,0,0,1-.292-.66l5.451-6a.395.395,0,1,1,.584.531l-5.451,6A.4.4,0,0,1,4247.526,1556.491Zm10.9-12a.395.395,0,0,1-.292-.66l5.452-6a.394.394,0,1,1,.583.531l-5.451,6A.4.4,0,0,1,4258.428,1544.491Zm10.9-12a.395.395,0,0,1-.292-.66l5.452-6a.394.394,0,1,1,.583.531l-5.45,6A.4.4,0,0,1,4269.331,1532.491Zm10.9-12a.4.4,0,0,1-.292-.66l5.451-6a.395.395,0,0,1,.584.531l-5.451,6A.394.394,0,0,1,4280.232,1520.49Zm10.9-12a.395.395,0,0,1-.292-.66l5.452-6a.395.395,0,0,1,.584.531l-5.451,6A.4.4,0,0,1,4291.134,1508.49Z" transform="translate(-4181.719 -1501.701)"/></g><g transform="translate(0 140.923)"><path class="d" d="M4145.676,2098.776a.394.394,0,0,1-.292-.66l2.654-2.922a.395.395,0,1,1,.584.531l-2.655,2.922A.392.392,0,0,1,4145.676,2098.776Z" transform="translate(-4145.281 -2095.064)"/></g></g></g><g transform="translate(2804.085 1240.468)"><g class="e" transform="translate(0 0)"><circle class="f" cx="83.586" cy="83.586" r="83.586" transform="translate(0 118.209) rotate(-45)"/><g transform="translate(43.889 44.859)"><path class="g" d="M3271.083,1418.311c12.7-11.308,22.021-4.563,28.965,2.976,5.535,6.01,6.307,7.342,10.879,13.568a5.463,5.463,0,0,1,1.223,3.1c.128,6.883,3.65,35.985-.265,46.027-4.563,11.705-60.84,17.062-60.84,17.062Z" transform="translate(-3210.267 -1412.293)"/><g transform="translate(96.221 23.832)"><path class="g" d="M3464.048,1558.154a.636.636,0,0,1-.032-1.271,5.341,5.341,0,0,0,4.114-2.273c6.3-8.159,2.75-35.434-.34-50.263a.636.636,0,0,1,1.245-.26,198.886,198.886,0,0,1,3.639,26.735c.725,12.321-.465,20.585-3.537,24.565a6.63,6.63,0,0,1-5.057,2.767Z" transform="translate(-3463.411 -1503.58)"/></g><path class="g" d="M3165.256,1422.427c-24.4,13.491-9.523,59.121-40.472,75.389-8.574,4.507-34.917,27.378-17.657,57.534,11.29,19.726,45.035,15.475,56.145-1.984S3165.256,1422.427,3165.256,1422.427Z" transform="translate(-3099.679 -1419.781)"/><g transform="translate(0 19.666)"><path class="g" d="M3095.487,1574.4a.618.618,0,0,1-.084-.005.636.636,0,0,1-.547-.714,33.409,33.409,0,0,1,2.991-9.11,39.952,39.952,0,0,1,14.625-16.473c14.309-9.105,23.807-17.687,35.041-60a.636.636,0,1,1,1.229.326c-5.433,20.464-10.82,34.3-16.954,43.54-5.7,8.586-11.562,12.71-18.634,17.211a38.073,38.073,0,0,0-17.037,24.677A.636.636,0,0,1,3095.487,1574.4Z" transform="translate(-3094.85 -1487.623)"/></g><g transform="translate(0.535 16.294)"><path class="g" d="M3097.534,1553.04a.636.636,0,0,1-.537-.976,44.26,44.26,0,0,1,13.413-13.673c20.1-13,23.422-20.469,40.027-63.281a.636.636,0,1,1,1.186.46c-8.306,21.415-13.269,33.964-18.7,42.86-5.836,9.56-12.42,14.949-21.821,21.029a42.987,42.987,0,0,0-13.028,13.284A.636.636,0,0,1,3097.534,1553.04Z" transform="translate(-3096.898 -1474.704)"/></g><path class="h" d="M3322.481,1531.5a71.139,71.139,0,0,0-7.109,33.284s.97,6.14,4.848,7.432,9.371-2.585,9.048-7.755,1.292-17.773,3.231-22.3S3322.481,1531.5,3322.481,1531.5Z" transform="translate(-3257.747 -1500.377)"/><path class="i" d="M3172.772,1959.976c.529,4.761-.661,4.365,3.571,5.158s11.771-2.116,11.771-2.116l-8.465-15.739Z" transform="translate(-3152.429 -1807.61)"/><path class="h" d="M3208.283,1623.092c-2.38,7.737-20.235,1.786-26.483,3.571s-11.605,27.972-12.5,51.481.3,42.256,2.678,45.231,41.661,4.166,45.231,2.976-29.757-16.069-29.757-16.069-2.083-27.377.595-41.363,26.782-32.436,26.782-32.436Z" transform="translate(-3149.645 -1568.058)"/><path class="h" d="M3346.318,1632.211c6.249,9.522,22.616,8.332,28.27,16.069s17.557,50.29,17.557,50.29l12.5-43.148s10.136-1.7,6.844,5.356c-5.854,12.554-8.036,53.059-14.385,58.813-7.06,6.4-14.086,1.19-18.051-10.011-3.835-10.835-13.391-34.221-20.235-43.148s-14.284-23.211-14.284-23.211Z" transform="translate(-3279.348 -1574.797)"/><path class="j" d="M3185.08,1633.289c12.5,14.582,36.9,13.986,42.256,12.2l5.357-1.785s4.167-1.488,7.737,2.678,12.2,30.353,13.688,36.3,3.869,15.772,3.869,15.772-6.385,7.663-6.385,15.4,2.711,7.8,2.711,7.8-7.933-1.778-9.718-6.539-17.855-47.91-17.855-47.91l-44.338.893.595,48.8s-3.868-3.571-9.225,0-7.142,11.9-6.249,13.093-1.785,1.19-1.785.3-5.059-22.615-1.488-58.325,10.415-39.577,14.284-39.875A12.571,12.571,0,0,1,3185.08,1633.289Z" transform="translate(-3145.188 -1574.685)"/><g transform="translate(85.644 83.193)"><path class="i" d="M3505.881,1972.91a.461.461,0,0,0,.132.029Z" transform="translate(-3484.218 -1909.742)"/><path class="i" d="M3446.281,1772.617c-2.579.794-6.943,9.92-6.943,9.92s-9.92-21.625-12.9-51.582l-3.541,20.323c4.889,13.124,12.56,33.717,13.762,36.921,1.633,4.355,8.22,6.172,9.123,6.374-.247-.083-.792-.413-1.245-1.72-.26-.238-1.75-.934-2.029-1.19-2.381-2.182-1.389-7.34.2-13.094S3448.86,1771.824,3446.281,1772.617Z" transform="translate(-3422.901 -1730.955)"/></g><path class="i" d="M3217.62,1706.325l-4.918-22.485c-5.357,7.539-5.952,33.33-3.77,50.987,1.79,14.48,4.467,18.238,6.307,19.748a5.4,5.4,0,0,1,.842.6l-.6-48.8Z" transform="translate(-3178.272 -1612.947)"/><path class="j" d="M3191.011,1683.08c9.126,24.6,4.563,29.561,16.572,58.435,6.708,16.127,19.64,28.27,19.64,28.27a82.13,82.13,0,0,0,23.508,1.786c13.093-.893,22.679-1.792,22.679-1.792s-13.752-8.325-14.347-13.979-3.178-28.081.195-43.951c2.633-12.394-8.229-24.788-8.229-24.788l-18.152-.893Z" transform="translate(-3165.906 -1612.385)"/><path class="k" d="M3252.019,1821.419c-1.587-5.754,6.745,1.785,20.435,3.174s28.965-.793,21.426,1.587-28.171-1.19-24.4,6.349c4.436,8.873,9.674,17.458,17.261,22.617,4.959,3.373,16.863,6.547,5.356,4.762s-23.808-15.277-29.164-24.006S3252.373,1822.7,3252.019,1821.419Z" transform="translate(-3210.844 -1713.03)"/><path class="l" d="M3342.827,1565.539c.12-5.939,1.569-16.075,3.265-20.031,1.388-3.241-4.354-7.311-7.723-9.359l-2.849-.122q-.651,1.419-1.221,2.819c-3.009,19.75,5.993,27.912,10.289,29.554a12.987,12.987,0,0,0,5.707.627A34.6,34.6,0,0,1,3342.827,1565.539Z" transform="translate(-3271.34 -1503.723)"/><g transform="translate(53.048 58.629)"><path class="m" d="M3311.031,1648.864a13.448,13.448,0,0,1-3.174-.384c-2.489-.606-8.427-2.913-9.808-11.2a.361.361,0,0,1,.711-.119c1.31,7.86,6.917,10.042,9.268,10.615,3.648.89,7.518.068,9-1.91,1.189-1.585.472-4.963.465-5a.361.361,0,1,1,.7-.153c.033.152.792,3.737-.593,5.583C3316.382,1647.935,3313.856,1648.864,3311.031,1648.864Z" transform="translate(-3298.045 -1636.864)"/></g><path class="h" d="M3373.186,1497.831c-2.019,10.659-6.681,19.258-14.57,17.637s-16.183-12.88-14-23.506,10.349-17.927,18.238-16.306S3375.875,1483.628,3373.186,1497.831Z" transform="translate(-3279.146 -1458.947)"/><path class="h" d="M3518.833,1762.871s-14.582,39.183-15.275,43.25.694,6.646,1.09,6.646,12.8-21.228,12.8-21.228Z" transform="translate(-3396.714 -1671.345)"/><path class="h" d="M3563.019,1730.829c1.19-3.968-.662-8.993-.662-8.993l5.291.661Z" transform="translate(-3440.305 -1641.023)"/><g transform="translate(112.425 49.115)"><path class="n" d="M3541.583,1634.344h-14.762a1.339,1.339,0,0,1-1.283-1.722l9.319-31.246a1.338,1.338,0,0,1,1.283-.956H3550.9a1.339,1.339,0,0,1,1.284,1.722l-9.318,31.245A1.339,1.339,0,0,1,3541.583,1634.344Z" transform="translate(-3525.482 -1600.421)"/><path class="o" d="M3548.675,1634.344h-14.762a1.339,1.339,0,0,1-1.283-1.722l9.319-31.246a1.339,1.339,0,0,1,1.283-.956h14.762a1.339,1.339,0,0,1,1.283,1.722l-9.319,31.245A1.338,1.338,0,0,1,3548.675,1634.344Z" transform="translate(-3530.722 -1600.421)"/><path class="p" d="M3546.5,1614.931c-1.574,5.671-2.633,10.327-2.366,10.4s1.759-4.463,3.333-10.133,2.633-10.327,2.366-10.4S3548.073,1609.261,3546.5,1614.931Z" transform="translate(-3539.233 -1603.655)"/></g><path class="h" d="M3576.831,1667.511c.437-5.153,4.9-9.982,6.6-11.524a2.438,2.438,0,0,0,.8-1.83c-.024-2.568-.139-8.632-.67-9.34-.676-.9-2.367-12.51-3.156-12.06s.226,10.595.226,10.595-1.916-.9-2.931-1.353-5.184,4.17-5.184,4.17-1.955,4.94,3.391,2.824c6.348-2.513,1.587,4.5-2.646,8.994-3.487,3.7-.52,4.524-.52,4.524l2.817-.113Z" transform="translate(-3447.107 -1575.191)"/><g transform="translate(122.155 89.479)"><path class="m" d="M3568.717,1761.956a5.235,5.235,0,0,1-1.536-.239c-1.38-.43-3.791-1.817-4.427-6.275a.361.361,0,0,1,.714-.1c.533,3.73,2.327,5.117,3.737,5.624a3.673,3.673,0,0,0,2.445.115.361.361,0,0,1,.689-.069.5.5,0,0,1-.111.527A2.208,2.208,0,0,1,3568.717,1761.956Z" transform="translate(-3562.75 -1755.03)"/></g><g transform="translate(121.51 91.017)"><path class="m" d="M3566.333,1765.033a9.379,9.379,0,0,1-1.326-.1c-2.565-.373-4.285-1.676-4.718-3.576a.361.361,0,0,1,.7-.16,4.061,4.061,0,0,0,3.177,2.828,6.122,6.122,0,0,0,3.855-.014.353.353,0,0,1,.486-.13.367.367,0,0,1,.132.5C3568.392,1764.83,3567.418,1765.033,3566.333,1765.033Z" transform="translate(-3560.28 -1760.921)"/></g><g transform="translate(80.878 30.963)"><path class="q" d="M3408.749,1544.416a3.259,3.259,0,0,1-.494-.038c-2.534-.388-4.067-3.646-3.49-7.417s3.019-6.418,5.549-6.033,4.068,3.646,3.49,7.417C3413.265,1541.87,3411.1,1544.416,3408.749,1544.416Zm1.084-12.251c-1.679,0-3.382,2.187-3.811,4.99-.454,2.963.657,5.7,2.425,5.967s3.646-2,4.1-4.968-.657-5.7-2.425-5.967A1.889,1.889,0,0,0,3409.833,1532.164Z" transform="translate(-3404.644 -1530.891)"/></g><g transform="translate(90.786 32.62)"><path class="q" d="M3445.054,1549.109a1.69,1.69,0,0,1-.255-.019c-1.69-.259-2.575-3-2.059-6.37s2.181-5.719,3.871-5.462,2.576,3,2.059,6.37a10.1,10.1,0,0,1-1.392,3.926A2.867,2.867,0,0,1,3445.054,1549.109Zm1.306-10.908c-.946,0-2.237,1.845-2.669,4.664-.448,2.926.3,5.128,1.255,5.273.463.071,1.019-.335,1.53-1.112a9.13,9.13,0,0,0,1.245-3.544c.448-2.926-.3-5.127-1.254-5.274A.72.72,0,0,0,3446.36,1538.2Z" transform="translate(-3442.594 -1537.239)"/></g><g transform="translate(62.163 27.801)"><path class="q" d="M3353.038,1525.607a.652.652,0,0,1-.176-.025l-19.442-5.555a.636.636,0,1,1,.349-1.223l19.442,5.555a.636.636,0,0,1-.174,1.248Z" transform="translate(-3332.958 -1518.78)"/></g><path class="g" d="M3373.218,1466.973c-30.089,17.723-31.743,5.82-31.743,5.82l1.786-16.93,17.855.992Z" transform="translate(-3277.088 -1444.488)"/><path class="h" d="M3330.481,1522.505c.7,3-.256,5.781-2.135,6.22s-3.971-1.634-4.671-4.63.256-5.781,2.135-6.22S3329.781,1519.51,3330.481,1522.505Z" transform="translate(-3263.766 -1490.268)"/><path class="m" d="M3335.788,1547.5a1.185,1.185,0,1,1-1.185-1.185A1.185,1.185,0,0,1,3335.788,1547.5Z" transform="translate(-3271.135 -1511.323)"/><path class="h" d="M3375.671,1976.989s8.134-3.571,10.515-1.984,9.259,8.862,9.259,8.862Z" transform="translate(-3302.357 -1827.797)"/><path class="o" d="M3397.842,1970.6c-.154.193-.385.275-.515.178l-16.737-12.46c-.9-.671-1.33-1.7-.9-2.24s1.529-.349,2.382.384l15.828,13.6C3398.026,1970.164,3398,1970.406,3397.842,1970.6Z" transform="translate(-3305.203 -1813.883)"/><path class="h" d="M3271.334,1977.929s13.491,5.357,15.078,5.357,10.449-5.952,13.424-5.159,17.525,8.135,17.128,8.73-4.562,1.984-16.863,1.587-32.338-2.182-32.338-2.182Z" transform="translate(-3222.621 -1830.258)"/></g></g></g><g transform="translate(3005.135 1358.799)"><path class="r" d="M3804.318,2248.969s-70.742-49.136-100.666-20.8c-23.894,22.623,18.519,49.2,72.778,42.053,38.191-5.03,42.52,2.276,49.209,2.119,49.778-3.814,116.851-18.708,84.21-42.105-44.466-31.874-74.544,1.917-90.038,10.328Z" transform="translate(-3696.834 -2080.243)"/><path class="s" d="M3928.443,2239.5c-18.594-3.837-89.424,22.43-89.424,22.43s-61.683-18.593-76.439-20.364-21.544,3.836-21.544,3.836,6.962-7.846,15.052-8.559,19.774-2.656,19.774-2.656,118.051-5.607,133.693-2.066S3928.443,2239.5,3928.443,2239.5Z" transform="translate(-3729.496 -2090.694)"/><path class="t" d="M3941.7,1897.449c-2.805.442-46.412,19.464-46.947,27.432s11.946,72.612,36.087,81.023,51.143,0,51.143,0,28.331-69.942,19.92-83.222-46.48-25.232-46.48-25.232Z" transform="translate(-3843.069 -1844.261)"/><path class="t" d="M3824.5,1945.806c-41.66,22.323-51.891,62.628-40.873,71.511,7.72,6.225,36.832,19.994,62.064,19.109a411.632,411.632,0,0,1,48.93,1.49s43.285-8.807,51.918-21.779-15.318-55.11-36.793-67.29S3824.5,1945.806,3824.5,1945.806Z" transform="translate(-3757.925 -1877.562)"/><path class="h" d="M4074.357,1834.976a10.508,10.508,0,0,1-10.478-10.478v-35.264a10.478,10.478,0,0,1,20.955,0V1824.5A10.509,10.509,0,0,1,4074.357,1834.976Z" transform="translate(-3968.055 -1756.557)"/><path class="l" d="M4074.357,1778.757a10.508,10.508,0,0,0-10.478,10.477v28.836c6.178,5.162,12.159,2.457,20.955-4.36v-24.476A10.508,10.508,0,0,0,4074.357,1778.757Z" transform="translate(-3968.055 -1756.557)"/><path class="h" d="M4170.742,1799.763c-1.722,3.515-4.518,5.464-6.246,4.354s-1.732-4.86-.011-8.375,4.518-5.464,6.245-4.354S4172.464,1796.248,4170.742,1799.763Z" transform="translate(-4041.444 -1765.66)"/><path class="h" d="M4016.2,1799.731c1.991,3.2,2.373,7.063.854,8.632s-4.365.249-6.356-2.949-2.373-7.063-.854-8.632S4014.206,1796.533,4016.2,1799.731Z" transform="translate(-3927.436 -1769.387)"/><ellipse class="h" cx="18.019" cy="23.202" rx="18.019" ry="23.202" transform="translate(88.755 10.675)"/><path class="u" d="M4221.9,2043.445c11.8,6.3,22.093,30.154,22.093,30.154s-26.562,4.131-32.071,8.264.786-1.574,3.936-12.986S4221.9,2043.445,4221.9,2043.445Z" transform="translate(-4075.834 -1952.142)"/><path class="u" d="M3865.208,2036.858c2.755,12.592,15.937,47.748,15.937,47.748s-12.209-13.906-25.185-14.693-17.79-.984-17.708,2.164c.016.622,2.164-13.969,12.2-23.02S3865.208,2036.858,3865.208,2036.858Z" transform="translate(-3801.332 -1947.274)"/><path class="v" d="M4001.877,2162.041h-71.283a5.88,5.88,0,0,1-5.8-4.908l-8.595-51.3a5.879,5.879,0,0,1,5.8-6.851h88.472a5.879,5.879,0,0,1,5.8,6.851l-8.6,51.3A5.878,5.878,0,0,1,4001.877,2162.041Z" transform="translate(-3858.869 -1993.181)"/><path class="d" d="M4001.877,2168.481h-71.283a5.821,5.821,0,0,1-5.8-4.73L3916.2,2114.3a5.736,5.736,0,0,1,5.8-6.6h88.472a5.735,5.735,0,0,1,5.8,6.6l-8.6,49.447A5.819,5.819,0,0,1,4001.877,2168.481Z" transform="translate(-3858.869 -1999.622)"/><path class="s" d="M3980.743,2400.461c-.427-.073-46.038-11.489-56.22-3.078s34.086,8.554,42.054,6.712S3980.743,2400.461,3980.743,2400.461Z" transform="translate(-3863.963 -2211.394)"/><path class="s" d="M4183.144,2408.293s9.739-7.338,22.577-6.01,23.9,4.127,12.837,7.6a81.358,81.358,0,0,1-27.888,3.47A9.64,9.64,0,0,1,4183.144,2408.293Z" transform="translate(-4056.182 -2217.179)"/><path class="w" d="M4064.3,1694.892c-11.7,3.551-7.631,36.5,5.75,35.416s13.925-15.333,12.976-24.56S4076.373,1691.228,4064.3,1694.892Z" transform="translate(-3963.274 -1693.721)"/><path class="w" d="M4031.006,1725.288c-3.256-3.121-7.734,6.7-5.97,11.017s-.7,6.828,1.684,11.475-4.4-2.952-5.348-8.516-1.492-15.2-2.85-19.54.069-11.871,6.115-13.433,7.454-4.342,9.761-4.478,13.3.95,18.726,3.935,8.413,7.463,8.006,14.247-2.171,24.153-3.8,27-2.471,2.174-1.981.544,2.253-11.4.9-14.928-.679-12.212-4.207-12.891-2.714,5.338-6.92,5.79S4031.006,1725.288,4031.006,1725.288Z" transform="translate(-3934.19 -1699.693)"/></g><g transform="translate(2969.849 1276.811)"><path class="x" d="M3629.625,1413.829h-64.273a3.68,3.68,0,0,1-3.679-3.726l.338-26.7a3.794,3.794,0,0,1,3.772-3.726h64.274a3.68,3.68,0,0,1,3.679,3.726l-.338,26.7A3.794,3.794,0,0,1,3629.625,1413.829Z" transform="translate(-3561.673 -1379.674)"/><path class="q" d="M3637.006,1418.944h-57.881a3.187,3.187,0,0,1-3.186-3.227l.28-22.112a3.286,3.286,0,0,1,3.268-3.227h57.881a3.187,3.187,0,0,1,3.187,3.227l-.28,22.112A3.287,3.287,0,0,1,3637.006,1418.944Z" transform="translate(-3572.214 -1387.583)"/><path class="x" d="M3636.787,1504.554c-.385,14.076-7.064,18.423-7.064,18.423s3-8.073.773-12.006a14.3,14.3,0,0,0-5.932-5.589Z" transform="translate(-3608.145 -1471.951)"/><path class="x" d="M3691.09,1414.063h-37.312a1.1,1.1,0,0,1-1.1-1.112v-.052a1.134,1.134,0,0,1,1.127-1.112h37.311a1.1,1.1,0,0,1,1.1,1.112v.052A1.133,1.133,0,0,1,3691.09,1414.063Z" transform="translate(-3628.92 -1403.402)"/><path class="x" d="M3690.859,1432.3h-37.312a1.1,1.1,0,0,1-1.1-1.113v-.052a1.133,1.133,0,0,1,1.127-1.113h37.312a1.1,1.1,0,0,1,1.1,1.113v.052A1.133,1.133,0,0,1,3690.859,1432.3Z" transform="translate(-3628.749 -1416.877)"/><path class="x" d="M3690.6,1452.914h-37.312a1.1,1.1,0,0,1-1.1-1.113v-.052a1.134,1.134,0,0,1,1.127-1.113h37.312a1.1,1.1,0,0,1,1.1,1.113v.052A1.134,1.134,0,0,1,3690.6,1452.914Z" transform="translate(-3628.556 -1432.111)"/><path class="x" d="M3605.771,1414.376c-.051,4.058-2.781,7.348-6.1,7.348s-5.962-3.29-5.91-7.348,2.781-7.349,6.1-7.349S3605.822,1410.318,3605.771,1414.376Z" transform="translate(-3585.386 -1399.886)"/></g><g transform="translate(3022.692 1325.006)"><path class="x" d="M3832.905,1598.872h-65.1a3.727,3.727,0,0,1-3.727-3.773l.343-27.045a3.843,3.843,0,0,1,3.821-3.774h65.1a3.727,3.727,0,0,1,3.726,3.774l-.342,27.045A3.843,3.843,0,0,1,3832.905,1598.872Z" transform="translate(-3764.082 -1564.279)"/><path class="q" d="M3840.379,1604.052h-58.623a3.229,3.229,0,0,1-3.228-3.268l.284-22.4a3.329,3.329,0,0,1,3.31-3.269h58.623a3.229,3.229,0,0,1,3.228,3.269l-.284,22.4A3.328,3.328,0,0,1,3840.379,1604.052Z" transform="translate(-3774.757 -1572.29)"/><path class="x" d="M3909.193,1690.76c.029,14.256,6.683,18.659,6.683,18.659s-2.832-8.177-.475-12.16a15.026,15.026,0,0,1,6.151-5.66Z" transform="translate(-3871.308 -1657.74)"/><path class="x" d="M3835.669,1606.336h-31.888a1.025,1.025,0,0,1-1.025-1.038l0-.23a1.057,1.057,0,0,1,1.05-1.038H3835.7a1.026,1.026,0,0,1,1.025,1.038l0,.23A1.057,1.057,0,0,1,3835.669,1606.336Z" transform="translate(-3792.66 -1593.652)"/><path class="x" d="M3835.436,1624.806h-31.889a1.024,1.024,0,0,1-1.024-1.038l0-.23a1.057,1.057,0,0,1,1.051-1.038h31.888a1.025,1.025,0,0,1,1.024,1.038l0,.23A1.058,1.058,0,0,1,3835.436,1624.806Z" transform="translate(-3792.487 -1607.3)"/><path class="x" d="M3835.17,1645.686h-31.888a1.026,1.026,0,0,1-1.025-1.038l0-.231a1.057,1.057,0,0,1,1.051-1.038H3835.2a1.025,1.025,0,0,1,1.024,1.038l0,.231A1.057,1.057,0,0,1,3835.17,1645.686Z" transform="translate(-3792.291 -1622.729)"/><path class="x" d="M3964.019,1611.375h-4.612a3.727,3.727,0,0,1-3.726-3.773l.12-9.434a3.843,3.843,0,0,1,3.821-3.774h4.612a3.728,3.728,0,0,1,3.727,3.774l-.12,9.434A3.843,3.843,0,0,1,3964.019,1611.375Z" transform="translate(-3905.659 -1586.532)"/></g><g transform="translate(3152.245 1358.663)"><circle class="y" cx="19.462" cy="19.462" r="19.462" transform="translate(0 35.989) rotate(-67.607)"/><path class="q" d="M4322.878,1741.381c2.523-.348,4.7,5.918,4.525,7.919s4.7-.261,7.049,1.479,1.653,10.791,0,11.4-8.322.7-10.47-.435a6.466,6.466,0,0,0-3.6-.92l-1.106-9.468a8.443,8.443,0,0,0,2.818-1.708C4323.574,1748.344,4322.878,1741.381,4322.878,1741.381Zm-11.226,22.191c.609.522,7.484,2.176,7.832-1.305s-1.392-10.878-1.392-10.878-4.784-.241-6.44.606C4311.013,1752.322,4311.042,1763.05,4311.652,1763.572Z" transform="translate(-4297.904 -1728.793)"/></g><g transform="translate(2991.769 1358.908)"><circle class="y" cx="15.107" cy="15.107" r="15.107" transform="matrix(0.196, -0.981, 0.981, 0.196, 0, 29.628)"/><path class="q" d="M3686.742,1724.084c1.959-.271,3.648,4.594,3.513,6.147s3.648-.2,5.472,1.148,1.283,8.376,0,8.849-6.46.54-8.128-.338a5.018,5.018,0,0,0-2.793-.714l-.859-7.349a6.56,6.56,0,0,0,2.188-1.326C3687.283,1729.488,3686.742,1724.084,3686.742,1724.084Zm-8.714,17.226c.474.406,5.81,1.689,6.08-1.013s-1.08-8.444-1.08-8.444-3.713-.187-5,.47C3677.532,1732.576,3677.556,1740.9,3678.028,1741.31Z" transform="translate(-3669.303 -1716.259)"/></g><g transform="translate(2990.851 1397.794)"><circle class="z" cx="19.462" cy="19.462" r="19.462" transform="translate(0 27.523) rotate(-45)"/><path class="q" d="M3710.821,1923.719c-2.874-17.2,10.289-17.621,10.289-17.621V1901l10.429,10.43-10.048,10.049v-5.83s-5.052.212-6.963,2.972S3710.821,1923.719,3710.821,1923.719Z" transform="translate(-3692.582 -1885.882)"/></g></g></svg>