<svg xmlns="http://www.w3.org/2000/svg" width="25" height="25" viewBox="0 0 25 25"><defs><style>.a{fill:#fff;}</style></defs><path class="a" d="M9.528,15.319a21.04,21.04,0,0,0,9.153,9.153l3.056-3.056a1.381,1.381,0,0,1,1.417-.333,15.843,15.843,0,0,0,4.958.792A1.393,1.393,0,0,1,29.5,23.264v4.847A1.393,1.393,0,0,1,28.111,29.5,23.609,23.609,0,0,1,4.5,5.889,1.393,1.393,0,0,1,5.889,4.5H10.75a1.393,1.393,0,0,1,1.389,1.389,15.778,15.778,0,0,0,.792,4.958,1.394,1.394,0,0,1-.347,1.417L9.528,15.319Z" transform="translate(-4.5 -4.5)"/></svg>