<svg width="24" height="25" viewBox="0 0 24 25" fill="none" xmlns="http://www.w3.org/2000/svg">
<path fill-rule="evenodd" clip-rule="evenodd" d="M3.79401 4.43522C5.59754 2.93071 8.33829 1.3999 11.9999 1.3999C18.1703 1.3999 23.0999 6.37526 23.0999 12.4999C23.0999 17.6523 19.5907 21.9797 14.8301 23.2336C14.2426 23.3884 13.6409 23.0376 13.4862 22.4501C13.3314 21.8626 13.6822 21.2609 14.2697 21.1062C18.0891 20.1001 20.8999 16.6275 20.8999 12.4999C20.8999 7.58455 16.9495 3.5999 11.9999 3.5999C8.99151 3.5999 6.73227 4.8491 5.20329 6.12458C4.86393 6.40768 4.56219 6.69086 4.29827 6.9599H6.4399C7.04742 6.9599 7.5399 7.45239 7.5399 8.0599C7.5399 8.66742 7.04742 9.1599 6.4399 9.1599H1.9999C1.39239 9.1599 0.899902 8.66742 0.899902 8.0599V3.4999C0.899902 2.89239 1.39239 2.3999 1.9999 2.3999C2.60742 2.3999 3.0999 2.89239 3.0999 3.4999V5.05319C3.31415 4.84982 3.5455 4.64254 3.79401 4.43522Z" fill="#593CC7"/>
<path fill-rule="evenodd" clip-rule="evenodd" d="M1.9999 11.3999C2.60742 11.3999 3.0999 11.8924 3.0999 12.4999C3.0999 12.8947 3.12559 13.2831 3.17527 13.6634C3.25395 14.2658 2.8294 14.8179 2.227 14.8966C1.6246 14.9753 1.07248 14.5507 0.993801 13.9483C0.931817 13.4738 0.899902 12.9903 0.899902 12.4999C0.899902 11.8924 1.39239 11.3999 1.9999 11.3999ZM2.33775 15.3113C2.89886 15.0784 3.54251 15.3445 3.77537 15.9057C4.07531 16.6284 4.46809 17.3037 4.93911 17.9164C5.30934 18.3981 5.21901 19.0887 4.73735 19.4589C4.25569 19.8292 3.56509 19.7388 3.19485 19.2572C2.60811 18.4938 2.11804 17.6516 1.74341 16.7489C1.51054 16.1878 1.77664 15.5442 2.33775 15.3113ZM5.04087 19.7625C5.41111 19.2808 6.1017 19.1905 6.58337 19.5607C7.19615 20.0317 7.87142 20.4245 8.59415 20.7244C9.15526 20.9573 9.42136 21.6009 9.18849 22.1621C8.95563 22.7232 8.31198 22.9893 7.75087 22.7564C6.84816 22.3818 6.00597 21.8917 5.24263 21.305C4.76097 20.9347 4.67064 20.2441 5.04087 19.7625ZM9.60319 22.2728C9.68187 21.6704 10.234 21.2459 10.8364 21.3245C11.2167 21.3742 11.6051 21.3999 11.9999 21.3999C12.6074 21.3999 13.0999 21.8924 13.0999 22.4999C13.0999 23.1074 12.6074 23.5999 11.9999 23.5999C11.5095 23.5999 11.026 23.568 10.5515 23.506C9.94907 23.4273 9.52451 22.8752 9.60319 22.2728Z" fill="#593CC7"/>
</svg>
