<?xml version="1.0" encoding="utf-8"?>
<!-- Generator: Adobe Illustrator 27.3.1, SVG Export Plug-In . SVG Version: 6.00 Build 0)  -->
<svg version="1.1" id="Layer_1" xmlns="http://www.w3.org/2000/svg" xmlns:xlink="http://www.w3.org/1999/xlink" x="0px" y="0px"
	 viewBox="0 0 86.6 86.7" fill="#5b35de" style="enable-background:new 0 0 86.6 86.7;" xml:space="preserve">
<style type="text/css">
	.st0{fill-rule:evenodd;clip-rule:evenodd;fill:#5b35de;}
	.st1{fill-rule:evenodd;clip-rule:evenodd;fill:#5b35de;}
</style>
<path class="st0" d="M40,86.7c-0.1,0-0.2,0-0.3,0c-10.9-0.9-20.9-5.9-28.3-13.9C4.1,64.8,0,54.3,0,43.4C0,19.5,19.5,0,43.4,0
	c13.3,0,25.9,6.2,34.1,16.5l0.4-4c0.2-1.7,1.6-2.9,3.2-2.9c0.1,0,0.2,0,0.3,0c0.8,0.1,1.6,0.5,2.2,1.2c0.6,0.7,0.8,1.5,0.7,2.4
	l-1.2,12.1c-0.1,0.9-0.5,1.7-1.2,2.2c-0.6,0.5-1.3,0.7-2,0.7c-0.1,0-0.3,0-0.4,0l-12.1-1.6c-1.8-0.2-3-1.9-2.8-3.6
	c0.1-0.9,0.6-1.6,1.2-2.1c0.6-0.4,1.3-0.7,2-0.7c0.1,0,0.3,0,0.4,0l4.3,0.6c-7-8.9-17.7-14.2-29.1-14.2c-9.9,0-19.2,3.8-26.2,10.8
	S6.5,33.6,6.5,43.4c0,9.3,3.5,18.2,9.7,25c6.3,6.8,14.8,11,24.1,11.8c1.8,0.2,3.1,1.7,2.9,3.5c-0.1,0.9-0.5,1.6-1.1,2.2
	C41.5,86.5,40.8,86.7,40,86.7L40,86.7L40,86.7z"/>
<path class="st1" d="M50.5,86.2c-1.6,0-2.9-1.1-3.2-2.7c-0.2-0.8,0-1.7,0.5-2.4c0.5-0.7,1.2-1.2,2.1-1.3l0.3-0.1l1.5-0.3l1.5-0.4
	l1-0.3l0,0l0.2-0.1c0.2-0.1,0.5-0.1,0.7-0.1l0,0c0.1,0,0.1,0,0.2,0c1.4,0,2.7,0.9,3.1,2.3c0.2,0.8,0.2,1.7-0.2,2.5
	c-0.4,0.8-1.1,1.3-1.9,1.6l-1.2,0.4c0,0-0.1,0-0.1,0h0l-1.6,0.4h0c0,0-0.1,0-0.1,0l-1.6,0.3l-0.1,0l-0.4,0.1
	C50.9,86.2,50.7,86.2,50.5,86.2L50.5,86.2z"/>
<path class="st1" d="M64.5,80.9c-1.1,0-2.2-0.6-2.8-1.6c-0.4-0.7-0.6-1.6-0.4-2.4c0.2-0.8,0.7-1.5,1.5-2l1.4-0.9l1.3-0.9l1.1-0.8
	c0.4-0.4,1-0.6,1.5-0.7v-0.1l0.8,0.1c0.9,0.1,1.6,0.5,2.2,1.2c0.6,0.7,0.8,1.5,0.7,2.4s-0.5,1.7-1.2,2.2l0,0c0,0-0.1,0-0.1,0.1
	l-1.2,0.9c0,0-0.1,0.1-0.1,0.1L68,79.2c0,0-0.1,0.1-0.1,0.1l0,0l-1.4,0.9c0,0-0.1,0.1-0.1,0.1l-0.2,0.1
	C65.7,80.7,65.1,80.9,64.5,80.9L64.5,80.9z"/>
<path class="st1" d="M75.6,70.8c-0.7,0-1.4-0.2-2-0.7c-0.7-0.5-1.1-1.3-1.2-2.1c-0.1-0.8,0.1-1.7,0.6-2.4l0.1-0.1l0.8-1.1l0.7-1.1
	l0.7-1.2l0.2-0.3c0.4-0.7,1.1-1.3,1.9-1.5v-0.1l0.7,0c0.1,0,0.2,0,0.2,0c0.6,0,1.1,0.1,1.6,0.4c1.6,0.9,2.1,2.8,1.2,4.4L81,65.3
	l-0.1,0.1l-0.8,1.2l-0.1,0.1L79.3,68c0,0-0.1,0.1-0.1,0.1l-0.8,1.2c0,0,0,0.1-0.1,0.1l0,0l-0.2,0.2c-0.5,0.7-1.3,1.1-2.1,1.2
	C75.9,70.8,75.7,70.8,75.6,70.8L75.6,70.8z"/>
<path class="st0" d="M53.9,57.7c-0.6,0-1.2-0.2-1.7-0.5L40.6,50c-1-0.6-1.5-1.6-1.5-2.7V23.4c0-0.9,0.3-1.7,0.9-2.3
	c0.6-0.6,1.4-1,2.3-1H43v0.1c0.6,0.1,1.1,0.4,1.6,0.9c0.6,0.6,1,1.4,1,2.3v22l10,6.3c0.7,0.5,1.2,1.2,1.4,2c0.2,0.8,0,1.7-0.4,2.4
	C56,57.1,55,57.7,53.9,57.7L53.9,57.7z"/>
<path class="st1" d="M82.2,57.3c-0.3,0-0.6,0-0.8-0.1c-0.8-0.2-1.5-0.8-2-1.5c-0.4-0.7-0.5-1.6-0.3-2.5l0.3-1l0.3-1.3l0.2-1.3l0.2-1
	c0.2-1.5,1.4-2.6,2.9-2.7l0,0H83c0.1,0,0.1,0,0.2,0c0.2,0,0.3,0,0.4,0h0.1c0.8,0.1,1.6,0.6,2.1,1.3c0.5,0.7,0.7,1.6,0.6,2.4
	l-0.2,1.1c0,0,0,0.1,0,0.1L86,52.2c0,0.1,0,0.1,0,0.1l-0.3,1.4l-0.3,1.1c-0.2,0.8-0.8,1.5-1.5,2C83.3,57.1,82.8,57.3,82.2,57.3
	L82.2,57.3L82.2,57.3z"/>
<path class="st1" d="M83.4,42.4c-0.7,0-1.5-0.3-2-0.7c-0.7-0.5-1.1-1.3-1.2-2.2L80.1,39l-0.2-1.3l-0.2-1.4l-0.3-1.4
	C79,33.2,80,31.5,81.7,31l0-0.1h0.8c1.5,0,2.8,1.1,3.1,2.6l0.3,1.5c0,0,0,0.1,0,0.1l0.3,1.5v0.1l0.2,1.5v0.1l0.1,0.5
	c0.2,1.8-1.1,3.4-2.9,3.5C83.6,42.3,83.5,42.3,83.4,42.4L83.4,42.4z"/>
<g id="RWXghf_00000169541295459126186030000014422213474083270836_">
	
		<image style="overflow:visible;" width="1024" height="1024" id="RWXghf" xlink:href="EFBBD8D0DD6F2E1D.png"  transform="matrix(0.5 0 0 0.5 127.3745 -177.42)">
	</image>
</g>
</svg>
