<?xml version="1.0" encoding="UTF-8"?><svg id="Layer_1" xmlns="http://www.w3.org/2000/svg" viewBox="0 0 86.58 86.74"><defs><style>.cls-1{fill:#17c257;}.cls-1,.cls-2{fill-rule:evenodd;}.cls-2{fill:#8ce0a8;}</style></defs><path class="cls-1" d="m40.01,86.73c-.09,0-.17,0-.26-.01-10.86-.93-20.91-5.87-28.29-13.91C4.07,64.76,0,54.33,0,43.43,0,19.48,19.49,0,43.44,0c13.3,0,25.92,6.15,34.11,16.54l.4-4.04c.17-1.66,1.55-2.9,3.21-2.9.1,0,.21,0,.32.02.85.08,1.64.5,2.18,1.16.55.67.81,1.51.72,2.37l-1.19,12.09c-.09.87-.53,1.68-1.21,2.22-.57.45-1.28.7-2,.7-.14,0-.29,0-.43-.03l-12.13-1.63c-1.76-.24-3-1.87-2.77-3.63.11-.85.55-1.61,1.23-2.14.56-.43,1.26-.67,1.97-.67.14,0,.28,0,.42.03l4.28.57c-6.97-8.91-17.73-14.19-29.12-14.19-9.89,0-19.18,3.84-26.16,10.82-6.98,6.98-10.82,16.27-10.82,26.15,0,9.3,3.46,18.18,9.73,25.02,6.28,6.84,14.83,11.04,24.09,11.83,1.76.16,3.08,1.72,2.94,3.48-.07.86-.47,1.64-1.13,2.2-.58.5-1.33.77-2.09.77h.02Z"/><path class="cls-2" d="m50.54,86.24c-1.57,0-2.9-1.12-3.18-2.67-.15-.84.05-1.73.54-2.43.5-.71,1.25-1.18,2.11-1.32l.34-.05,1.47-.31,1.47-.38,1.04-.31h0l.18-.06c.23-.07.47-.11.71-.13h.21c1.42,0,2.69.95,3.09,2.3.25.83.16,1.7-.25,2.46-.4.75-1.1,1.32-1.92,1.56l-1.23.36s-.06.02-.1.03h-.03l-1.64.43h-.02s-.08.02-.12.03l-1.6.35-.13.03-.42.06c-.18.03-.35.04-.53.04h0Z"/><path class="cls-2" d="m64.55,80.88c-1.13,0-2.19-.6-2.77-1.57-.44-.74-.57-1.61-.36-2.45.21-.83.73-1.53,1.47-1.98l1.39-.91,1.26-.89,1.1-.84c.44-.36.97-.59,1.52-.68v-.1l.78.06c.86.08,1.64.48,2.2,1.15.55.65.82,1.51.74,2.36s-.49,1.65-1.15,2.19l-.03.03s-.05.04-.07.05l-1.18.92s-.07.05-.1.07l-1.33.95s-.07.05-.1.08l-.02.02-1.41.92s-.08.05-.12.07l-.19.1c-.48.28-1.05.44-1.62.44h0Z"/><path class="cls-2" d="m75.61,70.76c-.71,0-1.41-.24-1.97-.67-.68-.53-1.12-1.29-1.24-2.14-.11-.84.12-1.71.64-2.39l.11-.14.78-1.09.73-1.11.69-1.15.18-.32c.41-.74,1.09-1.28,1.9-1.52v-.07l.66-.05h.25c.55,0,1.1.14,1.58.41,1.55.87,2.1,2.84,1.24,4.39l-.19.36-.05.11-.77,1.25-.05.09-.83,1.26s-.05.07-.07.09l-.82,1.16s-.04.06-.07.09l-.02.03-.15.18c-.53.68-1.28,1.12-2.14,1.23-.14.02-.28.03-.42.03l.03-.03Z"/><path class="cls-1" d="m53.89,57.71c-.6,0-1.19-.17-1.7-.49l-11.59-7.23c-.95-.6-1.51-1.62-1.51-2.74v-23.82c0-.85.34-1.68.94-2.29.61-.61,1.42-.95,2.28-.95h.72v.08c.6.13,1.14.43,1.58.87.6.6.95,1.44.95,2.3v22.02l10.05,6.28c.73.46,1.24,1.17,1.44,2.02.19.84.05,1.71-.41,2.44-.6.94-1.62,1.51-2.74,1.51h0Z"/><path class="cls-2" d="m82.19,57.31c-.28,0-.56-.04-.83-.11-.82-.22-1.54-.77-1.97-1.51-.43-.74-.54-1.63-.32-2.46l.26-.97.29-1.29.24-1.32.16-1.01c.23-1.47,1.42-2.58,2.9-2.72h.27c.15,0,.3,0,.44.03h.06c.85.13,1.61.59,2.12,1.28.51.68.72,1.56.6,2.4l-.17,1.11s-.02.07-.02.09l-.25,1.39c-.01.06-.02.1-.03.14l-.33,1.4-.28,1.11c-.21.83-.76,1.55-1.5,1.98-.49.29-1.06.44-1.63.44h0v.02Z"/><path class="cls-2" d="m83.38,42.36c-.74,0-1.46-.26-2.04-.72-.67-.55-1.09-1.32-1.18-2.18l-.06-.49-.18-1.34-.25-1.36-.3-1.41c-.37-1.69.68-3.38,2.34-3.81l-.02-.11h.85c1.52.02,2.8,1.07,3.12,2.55l.33,1.46s.02.08.03.13l.27,1.52v.1l.22,1.47v.11l.05.5c.19,1.76-1.09,3.36-2.86,3.55-.12,0-.23.02-.34.02h.02Z"/></svg>