<svg xmlns="http://www.w3.org/2000/svg" width="17.398" height="18.829" viewBox="0 0 17.398 18.829"><defs><style>.a{fill:#f37921;stroke:#f37921;}</style></defs><g transform="translate(-561.452 -344.5)"><path class="a" d="M-76.68-92.464a7.108,7.108,0,0,1,9.241-.244l-2.115.08a.49.49,0,0,0-.473.51.493.493,0,0,0,.492.473h.018l3.248-.12a.491.491,0,0,0,.473-.492v-.058l-.12-3.211a.492.492,0,0,0-.51-.473.49.49,0,0,0-.473.51l.076,2.014a8,8,0,0,0-4.69-1.8,8.017,8.017,0,0,0-5.826,2.079,8.087,8.087,0,0,0-2.432,7.9.489.489,0,0,0,.477.375.43.43,0,0,0,.116-.015.492.492,0,0,0,.36-.593,7.1,7.1,0,0,1,2.137-6.943Zm0,0" transform="translate(642 441)"/><path class="a" d="M-20.927,52.547a.492.492,0,0,0-.593-.361.492.492,0,0,0-.361.593,7.1,7.1,0,0,1-2.137,6.943,7.076,7.076,0,0,1-4.759,1.831,7.091,7.091,0,0,1-4.54-1.635l2.141-.193a.491.491,0,0,0,.444-.535.488.488,0,0,0-.535-.444l-3.237.291a.491.491,0,0,0-.444.535l.291,3.237a.491.491,0,0,0,.488.448.173.173,0,0,0,.044,0,.491.491,0,0,0,.444-.535l-.175-1.97a8.031,8.031,0,0,0,4.671,1.78c.138.007.277.011.411.011a8.036,8.036,0,0,0,5.414-2.09,8.085,8.085,0,0,0,2.432-7.9Zm0,0" transform="translate(599.002 299.57)"/></g></svg>