<svg xmlns="http://www.w3.org/2000/svg" width="46.488" height="46.486" viewBox="0 0 46.488 46.486"><defs><style>.a{fill:#fff;stroke:#fff;stroke-width:2px;}</style></defs><g transform="translate(-889.999 -57)"><path class="a" d="M276.663,239.894a1.737,1.737,0,0,0-1.888,1.573l-.231,2.525a21.935,21.935,0,0,0-38.143,1.83,1.737,1.737,0,1,0,3.1,1.58,18.474,18.474,0,0,1,32.139-1.532l-2.477-1.77a1.738,1.738,0,0,0-2.02,2.828l7.513,5.367a1.74,1.74,0,0,0,2.741-1.257l.843-9.256A1.736,1.736,0,0,0,276.663,239.894Z" transform="translate(657.242 -175.757)"/><path class="a" d="M274.842,263.84a1.738,1.738,0,0,0-2.338.758,18.474,18.474,0,0,1-32.139,1.532l2.477,1.77a1.738,1.738,0,1,0,2.02-2.828l-7.513-5.367a1.739,1.739,0,0,0-2.74,1.257l-.844,9.256a1.738,1.738,0,1,0,3.461.315l.23-2.525a21.935,21.935,0,0,0,38.143-1.83A1.739,1.739,0,0,0,274.842,263.84Z" transform="translate(657.242 -175.757)"/></g></svg>