<svg xmlns="http://www.w3.org/2000/svg" width="27.303" height="37.688" viewBox="0 0 27.303 37.688"><defs><style>.a{fill:#593cc7;}</style></defs><g transform="translate(-11.162)"><g transform="translate(11.162 0)"><circle class="a" cx="8.009" cy="8.009" r="8.009" transform="translate(5.643)"/><path class="a" d="M28.211,35.606h-6.8A10.266,10.266,0,0,0,11.162,45.86v8.313l.021.13.573.179A46.694,46.694,0,0,0,25.7,56.73c7.536,0,11.9-2.15,12.175-2.286l.535-.272h.056V45.86A10.265,10.265,0,0,0,28.211,35.606ZM26.4,51.738,24.93,53.884a.1.1,0,0,1-.087.047h0a.1.1,0,0,1-.087-.048l-1.362-2.147a.108.108,0,0,1-.016-.063l.682-10.422a.1.1,0,0,1,.1-.1h1.414a.106.106,0,0,1,.106.1l.732,10.421A.1.1,0,0,1,26.4,51.738Zm-.663-10.9H24.052l-1.461-3.02a.523.523,0,0,1,.524-.523h3.509a.523.523,0,0,1,.523.523Z" transform="translate(-11.162 -19.042)"/></g></g></svg>