<svg xmlns="http://www.w3.org/2000/svg" width="22.534" height="22.535" viewBox="0 0 22.534 22.535"><defs><style>.a{fill:#df514c;}</style></defs><path class="a" d="M14.642,3.375A11.267,11.267,0,1,0,25.909,14.642,11.266,11.266,0,0,0,14.642,3.375ZM17.5,18.721l-2.855-2.855-2.855,2.855A.866.866,0,1,1,10.563,17.5l2.855-2.855-2.855-2.855a.866.866,0,0,1,1.224-1.224l2.855,2.855L17.5,10.563a.866.866,0,1,1,1.224,1.224l-2.855,2.855L18.721,17.5a.87.87,0,0,1,0,1.224A.86.86,0,0,1,17.5,18.721Z" transform="translate(-3.375 -3.375)"/></svg>