<svg xmlns="http://www.w3.org/2000/svg" width="37" height="37" viewBox="0 0 37 37">
  <g id="Group_8771" data-name="Group 8771" transform="translate(2609 -876)">
    <rect id="Rectangle_17535" data-name="Rectangle 17535" width="37" height="37" transform="translate(-2609 876)" fill="#fff"/>
    <g id="Group_8746" data-name="Group 8746" transform="translate(-2607.767 878.878)">
      <path id="Path_6767" data-name="Path 6767" d="M256.174,215.492c-.1.02-.093.117-.119.182a2.105,2.105,0,0,1-2.109,1.414q-4.9,0-9.8,0h-.422c.158.912.315,1.792.458,2.674.027.165.1.2.245.2a8.7,8.7,0,0,1,.908.025,1.5,1.5,0,0,1-.035,2.986,2.543,2.543,0,0,1-.269.013q-6.094,0-12.188,0a1.511,1.511,0,0,1-1.618-1.3A1.491,1.491,0,0,1,232.456,220a7.059,7.059,0,0,1,.974-.035c.165,0,.23-.048.258-.22.128-.806.263-1.612.415-2.414.04-.21-.017-.242-.206-.24-.921.008-1.84,0-2.761,0a.7.7,0,0,1-.479-.117.466.466,0,0,1-.181-.505.461.461,0,0,1,.388-.372,3.149,3.149,0,0,1,.437-.016q11.245,0,22.491.009a1.233,1.233,0,0,0,1.374-1.532c-.01-.109-.028-.169-.151-.158-.078.007-.157,0-.236,0q-15.841,0-31.682-.008c-.316,0-.413.059-.4.391.028.883.42,1.294,1.3,1.295h4.344c.09,0,.179,0,.269,0a.489.489,0,0,1,.519.5.5.5,0,0,1-.518.505c-.381.015-.763,0-1.145,0H224a2.118,2.118,0,0,1-2.244-1.6c-.009-.026-.041-.046-.062-.069V193.782c.011,0,.028-.006.03-.013a2.32,2.32,0,0,1,2.556-1.643c6.88.025,11.865.012,18.744.013a2.668,2.668,0,0,1,.369.011.493.493,0,0,1,.02.974,2.57,2.57,0,0,1-.436.023H224.065c-.986,0-1.361.374-1.361,1.357q0,9.257-.008,18.515c0,.314.088.377.386.376q15.857-.011,31.715,0c.279,0,.374-.042.374-.355q-.017-9.308-.009-18.616a1.114,1.114,0,0,0-1.273-1.277c-2.009,0-3.387,0-5.395,0a1.708,1.708,0,0,1-.434-.036.493.493,0,0,1,.028-.952,1.409,1.409,0,0,1,.3-.02c2.054,0,3.476,0,5.53,0a2.076,2.076,0,0,1,2.2,1.674c0,.015.033.024.05.036Zm-17.256,6.481h5.959a2.178,2.178,0,0,0,.369-.018.49.49,0,0,0,.018-.958,1.706,1.706,0,0,0-.368-.028c-1,0-2,0-3,0-.362,0-.589-.208-.583-.507a.517.517,0,0,1,.565-.5c.359-.012.718-.011,1.077,0,.177.006.24-.037.205-.225q-.217-1.189-.414-2.38c-.032-.193-.095-.273-.314-.272q-3.5.015-7,0c-.22,0-.284.078-.315.271-.119.74-.247,1.478-.374,2.217-.066.386-.068.386.333.386q2.053,0,4.107,0a1.847,1.847,0,0,1,.4.029.493.493,0,0,1-.02.96,1.991,1.991,0,0,1-.369.019q-3.1,0-6.195,0a1.926,1.926,0,0,0-.4.029.489.489,0,0,0,.022.957,2.25,2.25,0,0,0,.369.018Z" transform="translate(-221.694 -192.127)" fill="#3a15a6"/>
      <path id="Path_6768" data-name="Path 6768" d="M259.669,213.965c-.779,1.529-1.53,3-2.278,4.474-.12.236-.241.468-.551.471s-.434-.227-.554-.463c-.625-1.232-1.254-2.463-1.909-3.747-.128.246-.234.45-.34.653-.708,1.356-.367,1.123-1.851,1.144-.337.005-.673,0-1.01,0-.367-.005-.584-.2-.583-.5s.22-.5.586-.5c.471-.005.943-.011,1.413,0a.333.333,0,0,0,.359-.22c.279-.572.579-1.134.862-1.7.124-.248.247-.5.571-.49.3.006.426.239.545.477.569,1.126,1.147,2.249,1.721,3.372.054.107.111.213.186.356.119-.23.222-.427.323-.624q.967-1.9,1.931-3.791c.128-.253.245-.526.588-.52.323.005.438.261.562.506.407.808.826,1.609,1.228,2.42a.331.331,0,0,0,.357.218c.47-.015.942-.009,1.413,0,.363,0,.585.2.583.506s-.219.5-.587.5c-.606,0-1.212-.009-1.818.006a.648.648,0,0,1-.664-.4C260.411,215.4,260.048,214.707,259.669,213.965Z" transform="translate(-232.347 -199.582)" fill="#3a15a6"/>
      <path id="Path_6769" data-name="Path 6769" d="M265.807,201.678c0-1.04,0-2.082,0-3.123,0-.544.153-.692.706-.693q1.127,0,2.254,0c.5,0,.667.164.667.665q0,3.156,0,6.313c0,.507-.162.669-.657.67q-1.177,0-2.355,0c-.438,0-.612-.17-.614-.609C265.8,203.827,265.807,202.752,265.807,201.678Zm1.012.033c0,.85.005,1.7,0,2.549,0,.184.037.254.236.246.381-.016.762-.01,1.143,0,.16,0,.235-.021.235-.212q-.011-2.6,0-5.2c0-.18-.065-.23-.236-.225-.359.011-.718.016-1.075,0-.232-.011-.307.056-.3.3C266.828,200.011,266.819,200.861,266.819,201.71Z" transform="translate(-237.956 -194.241)" fill="#f37921"/>
      <path id="Path_6770" data-name="Path 6770" d="M250.591,203.136c0-.85,0-1.7,0-2.551,0-.433.179-.609.613-.611q1.194-.006,2.388,0c.433,0,.628.182.629.6q.007,2.552,0,5.1c0,.43-.187.607-.62.609q-1.211,0-2.423,0c-.41,0-.587-.182-.588-.6C250.588,204.837,250.591,203.987,250.591,203.136Zm2.622-.007c0-.627-.006-1.254,0-1.88,0-.191-.025-.285-.251-.273-.38.02-.763.015-1.143,0-.181-.006-.225.053-.223.227q.009,1.931,0,3.862c0,.146.016.224.2.218.4-.014.807-.015,1.211,0,.2.007.212-.083.21-.241C253.209,204.4,253.213,203.767,253.213,203.129Z" transform="translate(-232.346 -195.019)" fill="#f37921"/>
      <path id="Path_6771" data-name="Path 6771" d="M261.849,204.675c0,.615,0,1.231,0,1.846,0,.438-.176.607-.612.609q-1.194,0-2.388,0c-.451,0-.625-.173-.626-.634q-.007-1.8,0-3.591c0-.482.164-.643.652-.645q1.177-.008,2.354,0c.46,0,.619.17.622.636C261.851,203.488,261.849,204.082,261.849,204.675Zm-1.012.031c0-.39-.008-.782,0-1.172.006-.191-.027-.283-.251-.271-.368.02-.739.018-1.107,0-.219-.01-.258.079-.256.273q.014,1.171,0,2.344c0,.186.044.254.241.246.379-.015.761-.016,1.14,0,.2.009.239-.068.233-.249C260.829,205.487,260.837,205.1,260.837,204.706Z" transform="translate(-235.158 -195.861)" fill="#f37921"/>
      <path id="Path_6772" data-name="Path 6772" d="M232.655,198.872H227.2a2.6,2.6,0,0,1-.336-.011.493.493,0,0,1-.081-.958,1.154,1.154,0,0,1,.33-.038q5.554,0,11.108,0a1.071,1.071,0,0,1,.33.042.452.452,0,0,1,.325.521.447.447,0,0,1-.4.429,2.248,2.248,0,0,1-.369.015Z" transform="translate(-223.443 -194.241)" fill="#3a15a6"/>
      <path id="Path_6773" data-name="Path 6773" d="M232.654,216.331H227.2a2.591,2.591,0,0,1-.336-.009.492.492,0,0,1-.08-.957,1.3,1.3,0,0,1,.364-.04q5.52,0,11.041,0a1.242,1.242,0,0,1,.332.034.456.456,0,0,1,.355.533.45.45,0,0,1-.434.434,2.683,2.683,0,0,1-.3.007Z" transform="translate(-223.443 -200.677)" fill="#3a15a6"/>
      <path id="Path_6774" data-name="Path 6774" d="M232.65,207.9q-2.811,0-5.622,0c-.449,0-.708-.323-.557-.686a.524.524,0,0,1,.539-.322h11.109a1.557,1.557,0,0,1,.335.013.472.472,0,0,1,.421.52.463.463,0,0,1-.469.473c-.089.008-.179,0-.269,0Z" transform="translate(-223.439 -197.569)" fill="#3a15a6"/>
      <path id="Path_6775" data-name="Path 6775" d="M230.478,203.111q-1.7,0-3.4,0c-.421,0-.655-.185-.651-.506s.246-.5.664-.5q3.4,0,6.8,0a.582.582,0,0,1,.593.291.469.469,0,0,1-.059.534.578.578,0,0,1-.513.187Q232.194,203.107,230.478,203.111Z" transform="translate(-223.439 -195.803)" fill="#3a15a6"/>
      <path id="Path_6776" data-name="Path 6776" d="M237.378,211.143q1.7,0,3.4,0c.425,0,.651.178.65.5s-.227.5-.653.5q-3.4,0-6.8,0c-.395,0-.628-.183-.64-.489s.229-.517.609-.518C235.089,211.141,236.234,211.143,237.378,211.143Z" transform="translate(-225.986 -199.137)" fill="#3a15a6"/>
      <path id="Path_6777" data-name="Path 6777" d="M229.623,220.562c-.852,0-1.705,0-2.558,0-.4,0-.626-.184-.635-.494s.231-.514.645-.514q2.558,0,5.116,0c.4,0,.621.175.628.491s-.22.516-.638.517C231.328,220.563,230.476,220.562,229.623,220.562Z" transform="translate(-223.44 -202.237)" fill="#3a15a6"/>
      <path id="Path_6778" data-name="Path 6778" d="M227.955,212.15c-.325,0-.65.006-.975,0a.505.505,0,1,1,.008-1.005q.975-.009,1.95,0a.511.511,0,0,1,.552.506.517.517,0,0,1-.561.5C228.605,212.155,228.28,212.15,227.955,212.15Z" transform="translate(-223.439 -199.136)" fill="#3a15a6"/>
      <path id="Path_6779" data-name="Path 6779" d="M242.86,203.109c-.325,0-.65.005-.975,0a.5.5,0,1,1-.019-1q.992-.016,1.984,0a.492.492,0,0,1,.523.528.485.485,0,0,1-.537.475C243.511,203.114,243.185,203.109,242.86,203.109Z" transform="translate(-228.934 -195.802)" fill="#3a15a6"/>
    </g>
    <path id="Path_6807" data-name="Path 6807" d="M259.95,192.639a.6.6,0,0,1-1.2.025.6.6,0,1,1,1.2-.025Z" transform="translate(-2843.12 686.83)" fill="#3a15a6"/>
  </g>
</svg>
