<svg xmlns="http://www.w3.org/2000/svg" xmlns:xlink="http://www.w3.org/1999/xlink" width="215" height="156" viewBox="0 0 215 156">
  <defs>
    <clipPath id="clip-path">
      <rect id="Rectangle_17413" data-name="Rectangle 17413" width="215" height="156" transform="translate(-4179 5689.439)" fill="none"/>
    </clipPath>
  </defs>
  <g id="right_side_abstract" data-name="right side abstract" transform="translate(-1151 -613)">
    <g id="Mask_Group_246" data-name="Mask Group 246" transform="translate(5330 -5076.439)" clip-path="url(#clip-path)">
      <rect id="Rectangle_17410" data-name="Rectangle 17410" width="215" height="156" transform="translate(-4179 5688.439)" fill="none"/>
      <g id="Group_22205" data-name="Group 22205" transform="translate(-5330 5080.439)">
        <g id="Group_22202" data-name="Group 22202">
          <path id="Path_6005" data-name="Path 6005" d="M.963,69.826C-4.258,97.4,12.389,124.032,35.4,137.851c26.03,15.629,48.461,21.961,53.887,52.513,1.754,9.878,4.644,23.82,9.183,32.842,16.684,33.165,55.421,23.309,84.5,22.611,27.3-.655,45.092,14.841,72.6,37.165.173.141,57.692,73.342,84.11.747,4.895-13.454,6.069-24.489,8.165-31.865,8.246-29.018,34.727-28.032,74.833-45.112,50.759-21.617,67.14-80.772,12.7-100.564C414.465,98.58,396.365,97.5,376.3,87.659c-41.007-20.111-36.827-61.4-72.416-79.206C291.137.526,271.977-1.287,258.942.8c-50.188,8.032-69.7,27.874-106,17-12.332-3.7-27.7-10.751-46.061-13.6C59.578-3.153,9.177,26.454.963,69.826" transform="matrix(-0.588, 0.809, -0.809, -0.588, 1596.826, 703.946)" fill="#f8f9fe"/>
          <g id="Group_22198" data-name="Group 22198" transform="matrix(-0.891, 0.454, -0.454, -0.891, 1596.961, 741.437)">
            <g id="Group_22195" data-name="Group 22195" transform="translate(0.101 0.102)">
              <path id="Path_5957" data-name="Path 5957" d="M.083,152.467S6.952-35.287,112.389,61.651s67.418-77.8,130.668-1.494S345.11-43.5,498.084,10.3" transform="translate(-0.083 -0.084)" fill="none" stroke="#5739bc" stroke-miterlimit="10" stroke-width="0.167"/>
              <path id="Path_5958" data-name="Path 5958" d="M.164,153.9S8.147-31.6,113.05,64.659s68.576-78.468,132.808-2.813,102.683-104.1,252.33-51.474" transform="translate(-0.093 -0.145)" fill="none" stroke="#5739bc" stroke-miterlimit="10" stroke-width="0.166"/>
              <path id="Path_5959" data-name="Path 5959" d="M.244,155.333s9.1-183.249,113.465-87.669,69.735-79.137,134.949-4.133S351.969-41.013,498.291,10.445" transform="translate(-0.104 -0.205)" fill="none" stroke="#5739bc" stroke-miterlimit="10" stroke-width="0.166"/>
              <path id="Path_5960" data-name="Path 5960" d="M.324,156.766s10.212-181,114.045-86.1,70.893-79.805,137.089-5.453S355.4-39.77,498.394,10.519" transform="translate(-0.114 -0.264)" fill="none" stroke="#5739bc" stroke-miterlimit="10" stroke-width="0.165"/>
              <path id="Path_5961" data-name="Path 5961" d="M.405,158.2S11.731-20.546,115.029,73.674,187.08-6.8,254.258,66.9,358.827-38.529,498.5,10.59" transform="translate(-0.125 -0.323)" fill="none" stroke="#5739bc" stroke-miterlimit="10" stroke-width="0.164"/>
              <path id="Path_5962" data-name="Path 5962" d="M.485,159.626s12.441-176.489,115.2-82.949S188.9-4.465,257.058,68.586,362.256-37.289,498.6,10.66" transform="translate(-0.135 -0.38)" fill="none" stroke="#5739bc" stroke-miterlimit="10" stroke-width="0.164"/>
              <path id="Path_5963" data-name="Path 5963" d="M.565,161.055S14.12-13.181,116.348,79.68s74.369-81.81,143.51-9.41S365.684-36.049,498.7,10.73" transform="translate(-0.145 -0.436)" fill="none" stroke="#5739bc" stroke-miterlimit="10" stroke-width="0.163"/>
              <path id="Path_5964" data-name="Path 5964" d="M.646,162.483S15.315-9.5,117.007,82.681,192.535.2,262.658,71.951,369.114-34.812,498.808,10.8" transform="translate(-0.156 -0.491)" fill="none" stroke="#5739bc" stroke-miterlimit="10" stroke-width="0.163"/>
              <path id="Path_5965" data-name="Path 5965" d="M.726,163.909S16.51-5.821,117.668,85.681s76.686-83.147,147.79-12.049S372.543-33.575,498.912,10.865" transform="translate(-0.166 -0.545)" fill="none" stroke="#5739bc" stroke-miterlimit="10" stroke-width="0.162"/>
              <path id="Path_5966" data-name="Path 5966" d="M.806,165.336S17.7-2.141,118.327,88.681,196.172,4.865,268.258,75.312,375.972-32.339,499.016,10.933" transform="translate(-0.176 -0.598)" fill="none" stroke="#5739bc" stroke-miterlimit="10" stroke-width="0.161"/>
              <path id="Path_5967" data-name="Path 5967" d="M.886,166.76S18.9,1.537,118.987,91.679s79-84.484,152.071-14.688S379.4-31.1,499.118,11" transform="translate(-0.187 -0.65)" fill="none" stroke="#5739bc" stroke-miterlimit="10" stroke-width="0.161"/>
              <path id="Path_5968" data-name="Path 5968" d="M.967,168.184S20.094,5.214,119.647,94.676,199.809,9.524,273.858,78.668,382.83-29.869,499.223,11.064" transform="translate(-0.197 -0.701)" fill="none" stroke="#5739bc" stroke-miterlimit="10" stroke-width="0.16"/>
              <path id="Path_5969" data-name="Path 5969" d="M1.047,169.606S21.289,8.889,120.306,97.671s81.321-85.819,156.353-17.327,109.6-108.981,222.668-69.218" transform="translate(-0.208 -0.751)" fill="none" stroke="#5739bc" stroke-miterlimit="10" stroke-width="0.16"/>
              <path id="Path_5970" data-name="Path 5970" d="M1.127,171.028S22.483,12.563,120.966,100.666,203.444,14.178,279.458,82.02,389.688-27.4,499.429,11.188" transform="translate(-0.218 -0.8)" fill="none" stroke="#5739bc" stroke-miterlimit="10" stroke-width="0.159"/>
              <path id="Path_5971" data-name="Path 5971" d="M1.208,172.449S23.678,16.238,121.626,103.66,205.263,16.5,282.259,83.695,393.117-26.173,499.533,11.25" transform="translate(-0.228 -0.848)" fill="none" stroke="#5739bc" stroke-miterlimit="10" stroke-width="0.158"/>
              <path id="Path_5972" data-name="Path 5972" d="M1.288,173.868s23.585-153.958,121-67.215,84.8-87.825,162.773-21.285S396.546-24.944,499.636,11.311" transform="translate(-0.239 -0.895)" fill="none" stroke="#5739bc" stroke-miterlimit="10" stroke-width="0.158"/>
              <path id="Path_5973" data-name="Path 5973" d="M1.368,175.285s24.7-151.7,121.577-65.641S208.9,21.151,287.858,87.04,399.975-23.716,499.74,11.369" transform="translate(-0.249 -0.94)" fill="none" stroke="#5739bc" stroke-miterlimit="10" stroke-width="0.157"/>
              <path id="Path_5974" data-name="Path 5974" d="M1.449,176.7S27.263,27.251,123.6,112.635s87.113-89.161,167.053-23.923S403.4-22.488,499.843,11.428" transform="translate(-0.26 -0.985)" fill="none" stroke="#5739bc" stroke-miterlimit="10" stroke-width="0.156"/>
              <path id="Path_5975" data-name="Path 5975" d="M1.529,178.119s26.929-147.2,122.736-62.494,88.272-89.83,169.194-25.244,113.374-111.643,206.488-78.9" transform="translate(-0.27 -1.028)" fill="none" stroke="#5739bc" stroke-miterlimit="10" stroke-width="0.156"/>
              <path id="Path_5976" data-name="Path 5976" d="M1.609,179.533S29.651,34.587,124.924,118.612s89.431-90.5,171.335-26.563,114-112.085,203.791-80.51" transform="translate(-0.28 -1.07)" fill="none" stroke="#5739bc" stroke-miterlimit="10" stroke-width="0.155"/>
              <path id="Path_5977" data-name="Path 5977" d="M1.689,180.947S30.847,38.255,125.584,121.6s90.59-91.167,173.475-27.882S413.69-18.813,500.153,11.594" transform="translate(-0.291 -1.111)" fill="none" stroke="#5739bc" stroke-miterlimit="10" stroke-width="0.155"/>
              <path id="Path_5978" data-name="Path 5978" d="M1.77,182.359S32.041,41.92,126.244,124.585s91.748-91.836,175.615-29.2S417.12-17.591,500.257,11.647" transform="translate(-0.301 -1.15)" fill="none" stroke="#5739bc" stroke-miterlimit="10" stroke-width="0.154"/>
              <path id="Path_5979" data-name="Path 5979" d="M1.85,183.771S33.236,45.585,126.9,127.57s92.906-92.5,177.755-30.521S420.549-16.369,500.361,11.7" transform="translate(-0.311 -1.189)" fill="none" stroke="#5739bc" stroke-miterlimit="10" stroke-width="0.153"/>
              <path id="Path_5980" data-name="Path 5980" d="M1.93,185.18s32.5-135.932,125.633-54.627,94.065-93.172,179.9-31.841S423.977-15.148,500.463,11.75" transform="translate(-0.322 -1.226)" fill="none" stroke="#5739bc" stroke-miterlimit="10" stroke-width="0.153"/>
              <path id="Path_5981" data-name="Path 5981" d="M2.011,186.588s33.614-133.68,126.212-53.054,95.224-93.839,182.037-33.159S427.407-13.93,500.568,11.8" transform="translate(-0.332 -1.262)" fill="none" stroke="#5739bc" stroke-miterlimit="10" stroke-width="0.152"/>
              <path id="Path_5982" data-name="Path 5982" d="M2.091,188S36.82,56.57,128.883,136.515s96.382-94.508,184.176-34.478S430.835-12.712,500.671,11.847" transform="translate(-0.342 -1.296)" fill="none" stroke="#5739bc" stroke-miterlimit="10" stroke-width="0.152"/>
              <path id="Path_5983" data-name="Path 5983" d="M2.171,189.4S38.014,60.228,129.542,139.494s97.54-95.177,186.318-35.8,118.4-115.192,184.915-91.8" transform="translate(-0.353 -1.329)" fill="none" stroke="#5739bc" stroke-miterlimit="10" stroke-width="0.151"/>
              <path id="Path_5984" data-name="Path 5984" d="M2.252,190.806S39.21,63.887,130.2,142.472s98.7-95.845,188.457-37.117S437.694-10.281,500.879,11.94" transform="translate(-0.363 -1.362)" fill="none" stroke="#5739bc" stroke-miterlimit="10" stroke-width="0.15"/>
              <path id="Path_5985" data-name="Path 5985" d="M2.332,192.21S40.4,67.543,130.862,145.45s99.857-96.513,190.6-38.437S441.122-9.066,500.981,11.984" transform="translate(-0.374 -1.392)" fill="none" stroke="#5739bc" stroke-miterlimit="10" stroke-width="0.15"/>
              <path id="Path_5986" data-name="Path 5986" d="M2.412,193.612S41.6,71.2,131.522,148.425s101.015-97.181,192.738-39.756S444.551-7.855,501.085,12.027" transform="translate(-0.384 -1.422)" fill="none" stroke="#5739bc" stroke-miterlimit="10" stroke-width="0.149"/>
              <path id="Path_5987" data-name="Path 5987" d="M2.493,195.013S42.793,74.852,132.181,151.4s102.174-97.85,194.878-41.076S447.98-6.643,501.188,12.069" transform="translate(-0.394 -1.449)" fill="none" stroke="#5739bc" stroke-miterlimit="10" stroke-width="0.149"/>
              <path id="Path_5988" data-name="Path 5988" d="M2.573,196.412S43.989,78.5,132.841,154.372s103.333-98.518,197.019-42.4S451.409-5.434,501.292,12.108" transform="translate(-0.405 -1.476)" fill="none" stroke="#5739bc" stroke-miterlimit="10" stroke-width="0.148"/>
              <path id="Path_5989" data-name="Path 5989" d="M2.653,197.809S45.183,82.155,133.5,157.343,237.992,58.156,332.66,113.628,454.838-4.226,501.4,12.146" transform="translate(-0.415 -1.501)" fill="none" stroke="#5739bc" stroke-miterlimit="10" stroke-width="0.147"/>
              <path id="Path_5990" data-name="Path 5990" d="M2.734,199.206s43.643-113.4,131.426-38.893,105.65-99.855,201.3-45.034S458.267-3.019,501.5,12.185" transform="translate(-0.426 -1.525)" fill="none" stroke="#5739bc" stroke-miterlimit="10" stroke-width="0.147"/>
              <path id="Path_5991" data-name="Path 5991" d="M2.814,200.6S47.572,89.453,134.821,163.281,241.629,62.758,338.26,116.928,461.7-1.814,501.6,12.22" transform="translate(-0.436 -1.547)" fill="none" stroke="#5739bc" stroke-miterlimit="10" stroke-width="0.146"/>
              <path id="Path_5992" data-name="Path 5992" d="M2.894,201.994S48.767,93.1,135.48,166.248,243.447,65.057,341.06,118.575,465.125-.61,501.705,12.255" transform="translate(-0.446 -1.568)" fill="none" stroke="#5739bc" stroke-miterlimit="10" stroke-width="0.146"/>
              <path id="Path_5993" data-name="Path 5993" d="M2.974,203.386S49.962,96.745,136.139,169.213,245.265,67.354,343.86,120.222,468.554.592,501.809,12.287" transform="translate(-0.457 -1.587)" fill="none" stroke="#5739bc" stroke-miterlimit="10" stroke-width="0.145"/>
              <path id="Path_5994" data-name="Path 5994" d="M3.055,204.776s48.1-104.389,133.745-32.6S247.084,69.649,346.66,121.866,471.983,1.793,501.913,12.318" transform="translate(-0.467 -1.605)" fill="none" stroke="#5739bc" stroke-miterlimit="10" stroke-width="0.144"/>
              <path id="Path_5995" data-name="Path 5995" d="M3.135,206.166s49.216-102.135,134.324-31.026,111.444-103.2,212-51.63S475.412,2.993,502.016,12.348" transform="translate(-0.477 -1.621)" fill="none" stroke="#5739bc" stroke-miterlimit="10" stroke-width="0.144"/>
              <path id="Path_5996" data-name="Path 5996" d="M3.215,207.553s50.33-99.882,134.9-29.453S250.72,74.235,352.26,125.15,478.841,4.19,502.119,12.376" transform="translate(-0.488 -1.636)" fill="none" stroke="#5739bc" stroke-miterlimit="10" stroke-width="0.143"/>
              <path id="Path_5997" data-name="Path 5997" d="M3.3,208.938s51.445-97.629,135.483-27.879S252.539,76.525,355.06,126.79,482.27,5.385,502.223,12.4" transform="translate(-0.498 -1.649)" fill="none" stroke="#5739bc" stroke-miterlimit="10" stroke-width="0.143"/>
              <path id="Path_5998" data-name="Path 5998" d="M3.376,210.323s52.56-95.376,136.063-26.306,114.918-105.2,218.422-55.589S485.7,6.58,502.327,12.428" transform="translate(-0.509 -1.66)" fill="none" stroke="#5739bc" stroke-miterlimit="10" stroke-width="0.142"/>
              <path id="Path_5999" data-name="Path 5999" d="M3.456,211.7S57.129,118.582,140.1,186.972,256.175,81.1,360.66,130.064,489.127,7.773,502.43,12.451" transform="translate(-0.519 -1.67)" fill="none" stroke="#5739bc" stroke-miterlimit="10" stroke-width="0.141"/>
              <path id="Path_6002" data-name="Path 6002" d="M3.7,215.842s57.017-86.363,138.38-20.012S261.63,87.955,369.06,134.963,499.414,11.341,502.74,12.51" transform="translate(-0.55 -1.689)" fill="none" stroke="#5739bc" stroke-miterlimit="10" stroke-width="0.139"/>
            </g>
          </g>
        </g>
      </g>
    </g>
  </g>
</svg>
