<svg width="44" height="44" viewBox="0 0 44 44" fill="none" xmlns="http://www.w3.org/2000/svg">
<g id="Group 48103357">
<g id="Group 48103300">
<g id="Group 48103293">
<path id="Ellipse 3477" d="M43.8258 22.1744C43.8564 18.3354 42.874 14.5563 40.9775 11.2183C39.0811 7.88031 36.3377 5.10158 33.0243 3.16249L31.3707 5.98814C34.1871 7.63637 36.5189 9.99829 38.1309 12.8356C39.7429 15.6729 40.578 18.8852 40.5519 22.1483L43.8258 22.1744Z" fill="#F87000"/>
<path id="Ellipse 3482" d="M32.762 40.989C36.102 39.096 38.8836 36.3556 40.8261 33.0443C42.7687 29.7329 43.8035 25.9677 43.8261 22.1287L40.5522 22.1094C40.533 25.3726 39.6534 28.573 38.0022 31.3876C36.3511 34.2023 33.9867 36.5317 31.1477 38.1407L32.762 40.989Z" fill="#E0211D"/>
<path id="Ellipse 3478" d="M33.0638 3.18562C29.7544 1.2396 25.9904 0.200868 22.1514 0.174244C18.3124 0.147621 14.5342 1.13405 11.1982 3.03399L12.8185 5.87892C15.6541 4.26397 18.8655 3.42551 22.1287 3.44814C25.3918 3.47077 28.5913 4.35369 31.4042 6.00781L33.0638 3.18562Z" fill="#FBB900"/>
<path id="Ellipse 3479" d="M11.238 3.01141C7.89801 4.90436 5.11641 7.64477 3.17385 10.9561C1.23129 14.2675 0.196504 18.0327 0.173902 21.8717L3.44782 21.891C3.46703 18.6278 4.3466 15.4274 5.99777 12.6127C7.64895 9.79809 10.0133 7.46873 12.8523 5.85972L11.238 3.01141Z" fill="#C5D805"/>
<path id="Ellipse 3480" d="M0.174217 21.826C0.143574 25.665 1.12604 29.4441 3.02249 32.7821C4.91894 36.1201 7.66227 38.8988 10.9757 40.8379L12.6293 38.0122C9.81293 36.364 7.4811 34.0021 5.86912 31.1648C4.25714 28.3275 3.42204 25.1152 3.44808 21.8521L0.174217 21.826Z" fill="#7ABE26"/>
<path id="Ellipse 3481" d="M10.9362 40.8148C14.2456 42.7608 18.0096 43.7995 21.8486 43.8262C25.6876 43.8528 29.4658 42.8664 32.8018 40.9664L31.1815 38.1215C28.3459 39.7364 25.1345 40.5749 21.8713 40.5523C18.6082 40.5296 15.4087 39.6467 12.5958 37.9926L10.9362 40.8148Z" fill="#D9D9D9"/>
<circle id="Ellipse 3476" cx="18.5525" cy="18.5525" r="18.5525" transform="matrix(-0.999968 -0.00798196 -0.00798196 0.999968 40.7012 3.59863)" fill="#D9D9D9"/>
</g>
<g id="Group 48103281">
<g id="Clip path group">
<g id="Group">
<path id="Vector" d="M22.041 40.5136C32.2437 40.5136 40.5146 32.2427 40.5146 22.04C40.5146 11.8373 32.2437 3.56641 22.041 3.56641C11.8383 3.56641 3.56738 11.8373 3.56739 22.04C3.56739 32.2427 11.8383 40.5136 22.041 40.5136Z" fill="#FFD8D8"/>
<g id="Mask group">
<mask id="mask0_8786_8221" style="mask-type:alpha" maskUnits="userSpaceOnUse" x="3" y="3" width="38" height="38">
<path id="Vector_2" d="M22.041 40.5136C32.2437 40.5136 40.5146 32.2427 40.5146 22.04C40.5146 11.8373 32.2437 3.56641 22.041 3.56641C11.8383 3.56641 3.56738 11.8373 3.56739 22.04C3.56739 32.2427 11.8383 40.5136 22.041 40.5136Z" fill="#FFD8D8"/>
</mask>
<g mask="url(#mask0_8786_8221)">
<g id="Group 48103296">
<ellipse id="Ellipse 3464" cx="22.0512" cy="22.0429" rx="18.623" ry="18.623" fill="white"/>
<path id="Vector_3" d="M22.0472 39.6022C31.7442 39.6022 39.6052 31.7413 39.6052 22.0443C39.6052 12.3473 31.7442 4.48633 22.0472 4.48633C12.3502 4.48633 4.48926 12.3473 4.48926 22.0443C4.48926 31.7413 12.3502 39.6022 22.0472 39.6022Z" fill="black"/>
<path id="Vector_4" d="M22.004 40.673C32.3149 40.673 40.6735 32.3144 40.6735 22.0035C40.6735 11.6926 32.3149 3.33398 22.004 3.33398C11.6931 3.33398 3.33447 11.6926 3.33447 22.0035C3.33447 32.3144 11.6931 40.673 22.004 40.673Z" fill="#FFE4CE"/>
<path id="Vector_5" d="M30.0961 41.113H13.5371V35.6529C13.5371 33.0124 15.6774 30.8721 18.318 30.8721L21.8166 32.3597L25.3153 30.8721C27.9559 30.8721 30.0961 33.0124 30.0961 35.6529V41.113Z" fill="white"/>
<path id="Vector_6" d="M19.4577 30.8721H18.318C15.6774 30.8721 13.5371 33.0124 13.5371 35.6529V41.113H19.9547L19.4577 30.8721Z" fill="#283F6D"/>
<path id="Vector_7" d="M19.458 30.8698H18.961C18.2371 30.8698 16.9731 33.3099 16.9731 33.3099L18.6546 35.0692L17.4353 36.9329L19.955 41.1091L19.458 30.8682V30.8698Z" fill="#1E2F52"/>
<path id="Vector_8" d="M15.8132 31.5811C14.4482 32.4226 13.5371 33.9317 13.5371 35.6529V41.1129H15.8132V31.5827V31.5811Z" fill="#1E2F52"/>
<path id="Vector_9" d="M24.1757 30.8721H25.3154C27.956 30.8721 30.0962 33.0124 30.0962 35.6529V41.113H23.6787L24.1757 30.8721Z" fill="#283F6D"/>
<path id="Vector_10" d="M24.1757 30.8698H24.6727C25.3966 30.8698 26.6605 33.3099 26.6605 33.3099L24.9791 35.0692L26.1983 36.9329L23.6787 41.1091L24.1757 30.8682V30.8698Z" fill="#1E2F52"/>
<path id="Vector_11" d="M27.7959 31.5811C29.1609 32.4226 30.072 33.9317 30.072 35.6529V41.1129H27.7959V31.5827V31.5811Z" fill="#1E2F52"/>
<path id="Vector_12" d="M19.52 30.6277C19.52 31.8585 20.5835 32.6073 21.874 32.6073H21.9154C23.2059 32.6073 24.1584 31.8585 24.1584 30.6277V27.7784C24.1584 26.5475 23.2059 25.3184 21.9154 25.3184H21.874C20.5835 25.3184 19.52 26.5475 19.52 27.7784V30.6277Z" fill="#FFC0AD"/>
<path id="Vector_13" d="M30.6321 15.6758V25.1116C30.6321 27.5948 28.5216 29.6059 25.9208 29.6059H18.2376C15.6352 29.6059 13.5264 27.5931 13.5264 25.1116V15.8315L30.6337 15.6758H30.6321Z" fill="#FFD4BC"/>
<path id="Vector_14" d="M22.0785 23.8838C22.5755 23.8838 23.0509 23.7712 23.475 23.5742C23.5264 23.6752 23.5562 23.7812 23.5562 23.8937C23.5562 24.4384 22.8952 24.8788 22.0785 24.8788C21.2619 24.8788 20.6025 24.4384 20.6025 23.8937C20.6025 23.7812 20.6324 23.6752 20.6837 23.5742C21.1078 23.7729 21.5816 23.8838 22.0802 23.8838H22.0785Z" fill="#FFC0AD"/>
<path id="Vector_15" d="M25.1455 24.4886C25.1455 25.0634 25.6342 25.5289 26.2355 25.5289C26.8369 25.5289 27.3256 25.0634 27.3256 24.4886C27.3256 23.9137 26.8369 23.4482 26.2355 23.4482C25.6342 23.4482 25.1455 23.9137 25.1455 24.4886Z" fill="#FFC0AD"/>
<path id="Vector_16" d="M19.0135 24.4886C19.0135 25.0634 18.5248 25.5289 17.9235 25.5289C17.3222 25.5289 16.8335 25.0634 16.8335 24.4886C16.8335 23.9137 17.3222 23.4482 17.9235 23.4482C18.5248 23.4482 19.0135 23.9137 19.0135 24.4886Z" fill="#FFC0AD"/>
<g id="Group_2">
<path id="Vector_17" d="M23.8161 25.8057C23.8161 26.8371 22.9779 27.6731 21.9442 27.6731C20.9105 27.6731 20.0723 26.8371 20.0723 25.8057" fill="#B83336"/>
<g id="Clip path group_2">
<mask id="mask1_8786_8221" style="mask-type:luminance" maskUnits="userSpaceOnUse" x="20" y="25" width="4" height="3">
<g id="clippath-1">
<path id="Vector_18" d="M23.8166 25.8076C23.8166 26.839 22.9784 27.6751 21.9447 27.6751C20.911 27.6751 20.0728 26.839 20.0728 25.8076" fill="white"/>
</g>
</mask>
<g mask="url(#mask1_8786_8221)">
<g id="Group_3">
<path id="Vector_19" d="M24.1877 28.2673C24.1877 29.2563 23.3843 30.0581 22.3937 30.0581C21.403 30.0581 20.5996 29.2563 20.5996 28.2673C20.5996 27.2783 21.403 26.4766 22.3937 26.4766C23.3843 26.4766 24.1877 27.2783 24.1877 28.2673Z" fill="#FC8879"/>
</g>
</g>
</g>
</g>
<g id="Group_4">
<path id="Vector_20" d="M26.1466 22.3205C26.4597 22.3205 26.7364 22.5208 26.9103 22.8271C26.9203 22.7459 26.9252 22.6632 26.9252 22.5787C26.9252 21.8884 26.5757 21.3271 26.145 21.3271C25.7143 21.3271 25.3647 21.8867 25.3647 22.5787C25.3647 22.6648 25.3697 22.7476 25.3797 22.8271C25.5536 22.5191 25.8302 22.3205 26.1433 22.3205H26.1466Z" fill="#5A2A00"/>
<path id="Vector_21" d="M18.029 22.3205C18.3421 22.3205 18.6187 22.5208 18.7926 22.8271C18.8026 22.7459 18.8076 22.6632 18.8076 22.5787C18.8076 21.8884 18.458 21.3271 18.0273 21.3271C17.5966 21.3271 17.2471 21.8867 17.2471 22.5787C17.2471 22.6648 17.252 22.7476 17.262 22.8271C17.4359 22.5191 17.7126 22.3205 18.0257 22.3205H18.029Z" fill="#5A2A00"/>
</g>
<path id="Vector_22" d="M23.0735 33.3398C23.0735 33.9044 22.3214 34.363 21.8046 34.363C21.2877 34.363 20.5356 33.9044 20.5356 33.3398C20.5356 32.7753 21.2993 32.3564 21.8178 32.3564C22.3363 32.3564 23.0752 32.7736 23.0752 33.3398H23.0735Z" fill="#283F6D"/>
<path id="Vector_23" d="M22.7701 36.5791C22.6839 34.78 22.0296 33.526 22.0296 33.526L21.7778 33.3604L21.526 33.526C21.526 33.526 20.8716 34.78 20.7855 36.5791C20.6994 38.3781 21.1665 41.0551 21.1665 41.0551H22.3907C22.3907 41.0551 22.8562 38.3781 22.7717 36.5791H22.7701Z" fill="#283F6D"/>
<path id="Vector_24" d="M19.4581 29.9961L18.3184 30.8691C18.3184 30.8691 18.5668 32.688 20.6177 33.8476C20.6177 32.6466 21.817 32.3567 21.817 32.3567C21.817 32.3567 19.6237 31.6112 19.4581 29.9961Z" fill="white"/>
<path id="Vector_25" d="M24.1754 29.9961L25.3151 30.8691C25.3151 30.8691 25.0666 32.688 23.0158 33.8476C23.0158 32.6466 21.8164 32.3567 21.8164 32.3567C21.8164 32.3567 24.0097 31.6112 24.1754 29.9961Z" fill="white"/>
<path id="Vector_26" d="M30.6027 12.9968C29.1283 11.3965 27.6142 11.8852 27.6142 11.8852C24.1768 7.52844 18.566 8.91333 15.2032 11.3435C11.5289 13.6925 11.0088 13.0581 11.0088 13.0581C11.4925 13.6942 12.069 14.221 12.6372 14.597C11.5654 18.1603 13.4489 23.4994 13.4489 23.4994H14.3816V17.5474C14.3816 16.8831 14.8222 16.3463 15.4219 16.1923C15.6339 16.1376 17.9978 17.1531 21.7765 17.1531C25.5551 17.1531 27.6722 16.0962 27.6722 16.0962C28.8981 15.8245 30.1173 16.7555 30.1173 18.0079V23.4977H30.6573C31.6711 19.3563 32.2907 14.8339 30.5993 12.9968H30.6027Z" fill="url(#paint0_linear_8786_8221)"/>
<path id="Vector_27" d="M30.6037 12.9956C29.2983 11.5792 27.9614 11.7995 27.6732 11.8675C28.4899 13.2706 28.2314 15.0862 27.105 16.3137C27.4562 16.1845 27.6384 16.0934 27.6384 16.0934C28.8643 15.8217 30.0603 16.7527 30.0603 18.005V23.4949H30.6616C31.6754 19.3535 32.295 14.8311 30.6037 12.9939V12.9956Z" fill="url(#paint1_linear_8786_8221)"/>
<path id="Vector_28" d="M12.6167 14.6719C11.5962 18.2335 13.4499 23.4948 13.4499 23.4948H14.3213V17.5427C14.3213 16.8685 14.805 16.3268 15.4179 16.1827C14.3991 15.8729 13.4599 15.3511 12.6167 14.6719Z" fill="url(#paint2_linear_8786_8221)"/>
</g>
</g>
</g>
</g>
</g>
<path id="Polygon 11" d="M40.2047 15.1209L33.5366 15.4939L36.5978 9.50011L40.2047 15.1209Z" fill="#F87000"/>
</g>
</g>
</g>
<defs>
<linearGradient id="paint0_linear_8786_8221" x1="13.9227" y1="10.1408" x2="28.9693" y2="25.1874" gradientUnits="userSpaceOnUse">
<stop stop-color="#A95C00"/>
<stop offset="1" stop-color="#5A2A00"/>
</linearGradient>
<linearGradient id="paint1_linear_8786_8221" x1="29.3811" y1="23.4949" x2="29.3811" y2="11.8128" gradientUnits="userSpaceOnUse">
<stop stop-color="#A95C00"/>
<stop offset="1" stop-color="#5A2A00"/>
</linearGradient>
<linearGradient id="paint2_linear_8786_8221" x1="13.8641" y1="23.4948" x2="13.8641" y2="14.6719" gradientUnits="userSpaceOnUse">
<stop stop-color="#A95C00"/>
<stop offset="1" stop-color="#5A2A00"/>
</linearGradient>
</defs>
</svg>
