<svg width="1366" height="388" viewBox="0 0 1366 388" fill="none" xmlns="http://www.w3.org/2000/svg">
<rect width="1366" height="370" fill="url(#paint0_linear_8733_7378)"/>
<path d="M1206.89 244.38C1206.89 244.38 1206.85 244.265 1206.78 244.265C1206.7 244.265 1206.66 244.303 1206.66 244.38C1206.66 244.458 1206.7 244.496 1206.78 244.496C1206.85 244.496 1206.89 244.458 1206.89 244.38Z" fill="#FFE4CE"/>
<path d="M1207.74 223.771C1207.74 223.23 1207.31 222.806 1206.77 222.806C1206.23 222.806 1205.81 223.23 1205.81 223.771C1205.81 224.311 1206.23 224.735 1206.77 224.735C1207.31 224.735 1207.74 224.311 1207.74 223.771Z" fill="#FFE4CE"/>
<path d="M1208.44 203.161C1208.44 202.235 1207.7 201.502 1206.78 201.502C1205.85 201.502 1205.12 202.235 1205.12 203.161C1205.12 204.087 1205.85 204.82 1206.78 204.82C1207.7 204.82 1208.44 204.087 1208.44 203.161Z" fill="#FFE4CE"/>
<path d="M1208.55 182.512C1208.55 181.547 1207.74 180.737 1206.78 180.737C1205.81 180.737 1205 181.547 1205 182.512C1205 183.477 1205.81 184.287 1206.78 184.287C1207.74 184.287 1208.55 183.477 1208.55 182.512Z" fill="#FFE4CE"/>
<path d="M1208.43 161.91C1208.43 160.984 1207.7 160.251 1206.77 160.251C1205.85 160.251 1205.11 160.984 1205.11 161.91C1205.11 162.836 1205.85 163.569 1206.77 163.569C1207.7 163.569 1208.43 162.836 1208.43 161.91Z" fill="#FFE4CE"/>
<path d="M1207.7 141.298C1207.7 140.797 1207.28 140.372 1206.78 140.372C1206.28 140.372 1205.85 140.797 1205.85 141.298C1205.85 141.8 1206.28 142.225 1206.78 142.225C1207.28 142.225 1207.7 141.8 1207.7 141.298Z" fill="#FFE4CE"/>
<path d="M1206.82 120.655C1206.82 120.655 1206.82 120.615 1206.78 120.615C1206.74 120.615 1206.74 120.615 1206.74 120.655C1206.74 120.695 1206.74 120.695 1206.78 120.695C1206.82 120.695 1206.82 120.695 1206.82 120.655Z" fill="#FFE4CE"/>
<path d="M1227.47 285.623C1227.47 285.623 1227.47 285.583 1227.43 285.583C1227.39 285.583 1227.39 285.583 1227.39 285.623C1227.39 285.663 1227.39 285.663 1227.43 285.663C1227.47 285.663 1227.47 285.663 1227.47 285.623Z" fill="#FFE4CE"/>
<path d="M1229.12 265.024C1229.12 264.059 1228.34 263.326 1227.42 263.326C1226.49 263.326 1225.72 264.098 1225.72 265.024C1225.72 265.95 1226.49 266.722 1227.42 266.722C1228.34 266.722 1229.12 265.95 1229.12 265.024Z" fill="#FFE4CE"/>
<path d="M1230.89 244.372C1230.89 242.442 1229.34 240.899 1227.42 240.899C1225.49 240.899 1223.94 242.442 1223.94 244.372C1223.94 246.301 1225.49 247.845 1227.42 247.845C1229.34 247.845 1230.89 246.301 1230.89 244.372Z" fill="#FFE4CE"/>
<path d="M1231.28 223.766C1231.28 221.605 1229.54 219.868 1227.38 219.868C1225.22 219.868 1223.49 221.605 1223.49 223.766C1223.49 225.927 1225.22 227.663 1227.38 227.663C1229.54 227.663 1231.28 225.927 1231.28 223.766Z" fill="#FFE4CE"/>
<path d="M1231.28 203.161C1231.28 201 1229.54 199.264 1227.38 199.264C1225.22 199.264 1223.48 201 1223.48 203.161C1223.48 205.322 1225.22 207.059 1227.38 207.059C1229.54 207.059 1231.28 205.322 1231.28 203.161Z" fill="#FFE4CE"/>
<path d="M1231.28 182.516C1231.28 180.355 1229.54 178.618 1227.38 178.618C1225.22 178.618 1223.48 180.355 1223.48 182.516C1223.48 184.677 1225.22 186.413 1227.38 186.413C1229.54 186.413 1231.28 184.677 1231.28 182.516Z" fill="#FFE4CE"/>
<path d="M1231.28 161.901C1231.28 159.74 1229.55 158.004 1227.38 158.004C1225.22 158.004 1223.49 159.74 1223.49 161.901C1223.49 164.062 1225.22 165.799 1227.38 165.799C1229.55 165.799 1231.28 164.062 1231.28 161.901Z" fill="#FFE4CE"/>
<path d="M1231.28 141.309C1231.28 139.147 1229.54 137.411 1227.38 137.411C1225.22 137.411 1223.49 139.147 1223.49 141.309C1223.49 143.47 1225.22 145.206 1227.38 145.206C1229.54 145.206 1231.28 143.47 1231.28 141.309Z" fill="#FFE4CE"/>
<path d="M1230.82 120.656C1230.82 118.765 1229.27 117.222 1227.38 117.222C1225.49 117.222 1223.95 118.765 1223.95 120.656C1223.95 122.547 1225.49 124.091 1227.38 124.091C1229.27 124.091 1230.82 122.547 1230.82 120.656Z" fill="#FFE4CE"/>
<path d="M1229 100.04C1229 99.1523 1228.27 98.4577 1227.42 98.4577C1226.57 98.4577 1225.84 99.1909 1225.84 100.04C1225.84 100.889 1226.57 101.622 1227.42 101.622C1228.27 101.622 1229 100.889 1229 100.04Z" fill="#FFE4CE"/>
<path d="M1227.47 79.4346C1227.47 79.4346 1227.47 79.3945 1227.43 79.3945C1227.39 79.3945 1227.39 79.3945 1227.39 79.4346C1227.39 79.4746 1227.39 79.4746 1227.43 79.4746C1227.47 79.4746 1227.47 79.4746 1227.47 79.4346Z" fill="#FFE4CE"/>
<path d="M1248.03 305.956C1248.18 305.956 1248.3 306.077 1248.3 306.226C1248.3 306.375 1248.18 306.496 1248.03 306.496C1247.88 306.496 1247.76 306.375 1247.76 306.226C1247.76 306.077 1247.88 305.956 1248.03 305.956Z" fill="#FFE4CE"/>
<path d="M1250.81 285.62C1250.81 284.077 1249.57 282.803 1247.99 282.803C1246.41 282.803 1245.17 284.077 1245.17 285.62C1245.17 287.164 1246.45 288.438 1247.99 288.438C1249.53 288.438 1250.81 287.203 1250.81 285.62Z" fill="#FFE4CE"/>
<path d="M1251.88 265.022C1251.88 262.861 1250.15 261.125 1247.99 261.125C1245.83 261.125 1244.09 262.861 1244.09 265.022C1244.09 267.183 1245.83 268.92 1247.99 268.92C1250.15 268.92 1251.88 267.183 1251.88 265.022Z" fill="#FFE4CE"/>
<path d="M1251.88 244.375C1251.88 242.214 1250.15 240.477 1247.98 240.477C1245.82 240.477 1244.09 242.214 1244.09 244.375C1244.09 246.536 1245.82 248.272 1247.98 248.272C1250.15 248.272 1251.88 246.536 1251.88 244.375Z" fill="#FFE4CE"/>
<path d="M1251.89 223.76C1251.89 221.599 1250.15 219.862 1247.99 219.862C1245.83 219.862 1244.09 221.599 1244.09 223.76C1244.09 225.921 1245.83 227.657 1247.99 227.657C1250.15 227.657 1251.89 225.921 1251.89 223.76Z" fill="#FFE4CE"/>
<path d="M1251.89 203.158C1251.89 200.997 1250.15 199.261 1247.99 199.261C1245.83 199.261 1244.09 200.997 1244.09 203.158C1244.09 205.319 1245.83 207.056 1247.99 207.056C1250.15 207.056 1251.89 205.319 1251.89 203.158Z" fill="#FFE4CE"/>
<path d="M1251.88 182.519C1251.88 180.358 1250.15 178.622 1247.99 178.622C1245.83 178.622 1244.09 180.358 1244.09 182.519C1244.09 184.68 1245.83 186.417 1247.99 186.417C1250.15 186.417 1251.88 184.68 1251.88 182.519Z" fill="#FFE4CE"/>
<path d="M1251.89 161.907C1251.89 159.746 1250.15 158.01 1247.99 158.01C1245.83 158.01 1244.09 159.746 1244.09 161.907C1244.09 164.068 1245.83 165.805 1247.99 165.805C1250.15 165.805 1251.89 164.068 1251.89 161.907Z" fill="#FFE4CE"/>
<path d="M1251.89 141.299C1251.89 139.138 1250.15 137.401 1247.99 137.401C1245.83 137.401 1244.09 139.138 1244.09 141.299C1244.09 143.46 1245.83 145.196 1247.99 145.196C1250.15 145.196 1251.89 143.46 1251.89 141.299Z" fill="#FFE4CE"/>
<path d="M1251.89 120.656C1251.89 118.495 1250.15 116.759 1247.99 116.759C1245.83 116.759 1244.1 118.495 1244.1 120.656C1244.1 122.817 1245.83 124.554 1247.99 124.554C1250.15 124.554 1251.89 122.817 1251.89 120.656Z" fill="#FFE4CE"/>
<path d="M1251.89 100.052C1251.89 97.8907 1250.15 96.1541 1247.99 96.1541C1245.83 96.1541 1244.09 97.8907 1244.09 100.052C1244.09 102.213 1245.83 103.949 1247.99 103.949C1250.15 103.949 1251.89 102.213 1251.89 100.052Z" fill="#FFE4CE"/>
<path d="M1250.77 79.4437C1250.77 77.9387 1249.53 76.7039 1248.03 76.7039C1246.52 76.7039 1245.29 77.9387 1245.29 79.4437C1245.29 80.9487 1246.52 82.1836 1248.03 82.1836C1249.53 82.1836 1250.77 80.9487 1250.77 79.4437Z" fill="#FFE4CE"/>
<path d="M1248.18 58.8036C1248.18 58.8036 1248.1 58.6493 1248.03 58.6493C1247.95 58.6493 1247.87 58.7265 1247.87 58.8036C1247.87 58.8808 1247.95 58.958 1248.03 58.958C1248.1 58.958 1248.18 58.8808 1248.18 58.8036Z" fill="#FFE4CE"/>
<path d="M1268.68 326.871C1268.68 326.871 1268.68 326.831 1268.64 326.831C1268.6 326.831 1268.6 326.831 1268.6 326.871C1268.6 326.911 1268.6 326.911 1268.64 326.911C1268.68 326.911 1268.68 326.911 1268.68 326.871Z" fill="#FFE4CE"/>
<path d="M1268.63 303.413C1270.19 303.413 1271.45 304.674 1271.45 306.23C1271.45 307.786 1270.19 309.047 1268.63 309.047C1267.08 309.047 1265.82 307.786 1265.82 306.23C1265.82 304.674 1267.08 303.413 1268.63 303.413Z" fill="#FFE4CE"/>
<path d="M1272.53 285.628C1272.53 283.467 1270.8 281.73 1268.63 281.73C1266.47 281.73 1264.74 283.467 1264.74 285.628C1264.74 287.789 1266.47 289.525 1268.63 289.525C1270.8 289.525 1272.53 287.789 1272.53 285.628Z" fill="#FFE4CE"/>
<path d="M1272.53 265.022C1272.53 262.861 1270.79 261.125 1268.63 261.125C1266.47 261.125 1264.74 262.861 1264.74 265.022C1264.74 267.183 1266.47 268.92 1268.63 268.92C1270.79 268.92 1272.53 267.183 1272.53 265.022Z" fill="#FFE4CE"/>
<path d="M1272.53 244.371C1272.53 242.21 1270.8 240.473 1268.64 240.473C1266.48 240.473 1264.74 242.21 1264.74 244.371C1264.74 246.532 1266.48 248.269 1268.64 248.269C1270.8 248.269 1272.53 246.532 1272.53 244.371Z" fill="#FFE4CE"/>
<path d="M1272.53 223.766C1272.53 221.605 1270.79 219.868 1268.63 219.868C1266.47 219.868 1264.74 221.605 1264.74 223.766C1264.74 225.927 1266.47 227.663 1268.63 227.663C1270.79 227.663 1272.53 225.927 1272.53 223.766Z" fill="#FFE4CE"/>
<path d="M1272.53 203.164C1272.53 201.003 1270.79 199.266 1268.63 199.266C1266.47 199.266 1264.73 201.003 1264.73 203.164C1264.73 205.325 1266.47 207.062 1268.63 207.062C1270.79 207.062 1272.53 205.325 1272.53 203.164Z" fill="#FFE4CE"/>
<path d="M1272.53 182.519C1272.53 180.358 1270.8 178.622 1268.63 178.622C1266.47 178.622 1264.74 180.358 1264.74 182.519C1264.74 184.68 1266.47 186.417 1268.63 186.417C1270.8 186.417 1272.53 184.68 1272.53 182.519Z" fill="#FFE4CE"/>
<path d="M1272.53 161.91C1272.53 159.749 1270.8 158.013 1268.63 158.013C1266.47 158.013 1264.74 159.749 1264.74 161.91C1264.74 164.071 1266.47 165.808 1268.63 165.808C1270.8 165.808 1272.53 164.071 1272.53 161.91Z" fill="#FFE4CE"/>
<path d="M1272.53 141.306C1272.53 139.145 1270.79 137.408 1268.63 137.408C1266.47 137.408 1264.74 139.145 1264.74 141.306C1264.74 143.467 1266.47 145.203 1268.63 145.203C1270.79 145.203 1272.53 143.467 1272.53 141.306Z" fill="#FFE4CE"/>
<path d="M1272.53 120.656C1272.53 118.495 1270.79 116.759 1268.63 116.759C1266.47 116.759 1264.73 118.495 1264.73 120.656C1264.73 122.817 1266.47 124.554 1268.63 124.554C1270.79 124.554 1272.53 122.817 1272.53 120.656Z" fill="#FFE4CE"/>
<path d="M1272.53 100.049C1272.53 97.8877 1270.79 96.1512 1268.63 96.1512C1266.47 96.1512 1264.74 97.8877 1264.74 100.049C1264.74 102.21 1266.47 103.946 1268.63 103.946C1270.79 103.946 1272.53 102.21 1272.53 100.049Z" fill="#FFE4CE"/>
<path d="M1272.53 79.4394C1272.53 77.2783 1270.8 75.5418 1268.64 75.5418C1266.48 75.5418 1264.74 77.2783 1264.74 79.4394C1264.74 81.6004 1266.48 83.3369 1268.64 83.3369C1270.8 83.3369 1272.53 81.6004 1272.53 79.4394Z" fill="#FFE4CE"/>
<path d="M1271.37 58.8051C1271.37 57.3001 1270.14 56.0652 1268.63 56.0652C1267.13 56.0652 1265.89 57.3001 1265.89 58.8051C1265.89 60.3101 1267.13 61.5449 1268.63 61.5449C1270.14 61.5449 1271.37 60.3101 1271.37 58.8051Z" fill="#FFE4CE"/>
<path d="M1268.68 38.1885C1268.68 38.1885 1268.68 38.1484 1268.64 38.1484C1268.6 38.1484 1268.6 38.1484 1268.6 38.1885C1268.6 38.2285 1268.6 38.2285 1268.64 38.2285C1268.68 38.2285 1268.68 38.2285 1268.68 38.1885Z" fill="#FFE4CE"/>
<path d="M1290.98 326.879C1290.98 325.914 1290.21 325.181 1289.28 325.181C1288.35 325.181 1287.58 325.953 1287.58 326.879C1287.58 327.805 1288.35 328.577 1289.28 328.577C1290.21 328.577 1290.98 327.805 1290.98 326.879Z" fill="#FFE4CE"/>
<path d="M1293.14 306.23C1293.14 304.069 1291.4 302.333 1289.24 302.333C1287.08 302.333 1285.34 304.069 1285.34 306.23C1285.34 308.391 1287.08 310.128 1289.24 310.128C1291.4 310.128 1293.14 308.391 1293.14 306.23Z" fill="#FFE4CE"/>
<path d="M1293.14 285.625C1293.14 283.464 1291.4 281.727 1289.24 281.727C1287.08 281.727 1285.34 283.464 1285.34 285.625C1285.34 287.786 1287.08 289.522 1289.24 289.522C1291.4 289.522 1293.14 287.786 1293.14 285.625Z" fill="#FFE4CE"/>
<path d="M1293.13 265.022C1293.13 262.861 1291.4 261.125 1289.24 261.125C1287.08 261.125 1285.34 262.861 1285.34 265.022C1285.34 267.183 1287.08 268.92 1289.24 268.92C1291.4 268.92 1293.13 267.183 1293.13 265.022Z" fill="#FFE4CE"/>
<path d="M1293.14 244.368C1293.14 242.207 1291.4 240.471 1289.24 240.471C1287.08 240.471 1285.34 242.207 1285.34 244.368C1285.34 246.529 1287.08 248.266 1289.24 248.266C1291.4 248.266 1293.14 246.529 1293.14 244.368Z" fill="#FFE4CE"/>
<path d="M1293.14 223.76C1293.14 221.599 1291.4 219.862 1289.24 219.862C1287.08 219.862 1285.34 221.599 1285.34 223.76C1285.34 225.921 1287.08 227.657 1289.24 227.657C1291.4 227.657 1293.14 225.921 1293.14 223.76Z" fill="#FFE4CE"/>
<path d="M1293.14 203.158C1293.14 200.997 1291.4 199.261 1289.24 199.261C1287.08 199.261 1285.34 200.997 1285.34 203.158C1285.34 205.319 1287.08 207.056 1289.24 207.056C1291.4 207.056 1293.14 205.319 1293.14 203.158Z" fill="#FFE4CE"/>
<path d="M1293.14 182.513C1293.14 180.352 1291.4 178.615 1289.24 178.615C1287.08 178.615 1285.35 180.352 1285.35 182.513C1285.35 184.674 1287.08 186.41 1289.24 186.41C1291.4 186.41 1293.14 184.674 1293.14 182.513Z" fill="#FFE4CE"/>
<path d="M1293.14 161.91C1293.14 159.749 1291.4 158.013 1289.24 158.013C1287.08 158.013 1285.34 159.749 1285.34 161.91C1285.34 164.071 1287.08 165.808 1289.24 165.808C1291.4 165.808 1293.14 164.071 1293.14 161.91Z" fill="#FFE4CE"/>
<path d="M1293.14 141.299C1293.14 139.138 1291.4 137.401 1289.24 137.401C1287.08 137.401 1285.34 139.138 1285.34 141.299C1285.34 143.46 1287.08 145.196 1289.24 145.196C1291.4 145.196 1293.14 143.46 1293.14 141.299Z" fill="#FFE4CE"/>
<path d="M1293.14 120.656C1293.14 118.495 1291.4 116.759 1289.24 116.759C1287.08 116.759 1285.35 118.495 1285.35 120.656C1285.35 122.817 1287.08 124.554 1289.24 124.554C1291.4 124.554 1293.14 122.817 1293.14 120.656Z" fill="#FFE4CE"/>
<path d="M1293.14 100.052C1293.14 97.8907 1291.4 96.1541 1289.24 96.1541C1287.08 96.1541 1285.34 97.8907 1285.34 100.052C1285.34 102.213 1287.08 103.949 1289.24 103.949C1291.4 103.949 1293.14 102.213 1293.14 100.052Z" fill="#FFE4CE"/>
<path d="M1293.14 79.4394C1293.14 77.2783 1291.4 75.5418 1289.24 75.5418C1287.08 75.5418 1285.34 77.2783 1285.34 79.4394C1285.34 81.6004 1287.08 83.3369 1289.24 83.3369C1291.4 83.3369 1293.14 81.6004 1293.14 79.4394Z" fill="#FFE4CE"/>
<path d="M1293.14 58.7949C1293.14 56.6338 1291.4 54.8973 1289.24 54.8973C1287.08 54.8973 1285.34 56.6338 1285.34 58.7949C1285.34 60.9559 1287.08 62.6924 1289.24 62.6924C1291.4 62.6924 1293.14 60.9559 1293.14 58.7949Z" fill="#FFE4CE"/>
<path d="M1290.86 38.1913C1290.86 37.3037 1290.13 36.6091 1289.28 36.6091C1288.43 36.6091 1287.7 37.3423 1287.7 38.1913C1287.7 39.0402 1288.43 39.7734 1289.28 39.7734C1290.13 39.7734 1290.86 39.0402 1290.86 38.1913Z" fill="#FFE4CE"/>
<path d="M1310 347.482C1310 347.482 1309.96 347.366 1309.89 347.366C1309.81 347.366 1309.77 347.405 1309.77 347.482C1309.77 347.559 1309.81 347.598 1309.89 347.598C1309.96 347.598 1310 347.559 1310 347.482Z" fill="#FFE4CE"/>
<path d="M1313.28 326.875C1313.28 324.984 1311.74 323.441 1309.85 323.441C1307.96 323.441 1306.42 324.984 1306.42 326.875C1306.42 328.766 1307.96 330.31 1309.85 330.31C1311.74 330.31 1313.28 328.766 1313.28 326.875Z" fill="#FFE4CE"/>
<path d="M1313.74 306.237C1313.74 304.076 1312.01 302.34 1309.85 302.34C1307.69 302.34 1305.95 304.076 1305.95 306.237C1305.95 308.398 1307.69 310.135 1309.85 310.135C1312.01 310.135 1313.74 308.398 1313.74 306.237Z" fill="#FFE4CE"/>
<path d="M1313.75 285.625C1313.75 283.464 1312.01 281.727 1309.85 281.727C1307.69 281.727 1305.95 283.464 1305.95 285.625C1305.95 287.786 1307.69 289.522 1309.85 289.522C1312.01 289.522 1313.75 287.786 1313.75 285.625Z" fill="#FFE4CE"/>
<path d="M1313.75 265.019C1313.75 262.858 1312.01 261.122 1309.85 261.122C1307.69 261.122 1305.95 262.858 1305.95 265.019C1305.95 267.18 1307.69 268.917 1309.85 268.917C1312.01 268.917 1313.75 267.18 1313.75 265.019Z" fill="#FFE4CE"/>
<path d="M1313.75 244.371C1313.75 242.21 1312.01 240.473 1309.85 240.473C1307.69 240.473 1305.95 242.21 1305.95 244.371C1305.95 246.532 1307.69 248.269 1309.85 248.269C1312.01 248.269 1313.75 246.532 1313.75 244.371Z" fill="#FFE4CE"/>
<path d="M1313.75 223.763C1313.75 221.602 1312.01 219.865 1309.85 219.865C1307.69 219.865 1305.95 221.602 1305.95 223.763C1305.95 225.924 1307.69 227.66 1309.85 227.66C1312.01 227.66 1313.75 225.924 1313.75 223.763Z" fill="#FFE4CE"/>
<path d="M1313.75 203.161C1313.75 201 1312.01 199.264 1309.85 199.264C1307.69 199.264 1305.95 201 1305.95 203.161C1305.95 205.322 1307.69 207.059 1309.85 207.059C1312.01 207.059 1313.75 205.322 1313.75 203.161Z" fill="#FFE4CE"/>
<path d="M1313.75 182.516C1313.75 180.355 1312.01 178.618 1309.85 178.618C1307.69 178.618 1305.95 180.355 1305.95 182.516C1305.95 184.677 1307.69 186.413 1309.85 186.413C1312.01 186.413 1313.75 184.677 1313.75 182.516Z" fill="#FFE4CE"/>
<path d="M1313.75 161.907C1313.75 159.746 1312.01 158.01 1309.85 158.01C1307.69 158.01 1305.95 159.746 1305.95 161.907C1305.95 164.068 1307.69 165.805 1309.85 165.805C1312.01 165.805 1313.75 164.068 1313.75 161.907Z" fill="#FFE4CE"/>
<path d="M1313.75 141.302C1313.75 139.141 1312.01 137.404 1309.85 137.404C1307.69 137.404 1305.95 139.141 1305.95 141.302C1305.95 143.463 1307.69 145.199 1309.85 145.199C1312.01 145.199 1313.75 143.463 1313.75 141.302Z" fill="#FFE4CE"/>
<path d="M1313.74 120.653C1313.74 118.492 1312.01 116.756 1309.85 116.756C1307.69 116.756 1305.95 118.492 1305.95 120.653C1305.95 122.814 1307.69 124.551 1309.85 124.551C1312.01 124.551 1313.74 122.814 1313.74 120.653Z" fill="#FFE4CE"/>
<path d="M1313.74 100.049C1313.74 97.8877 1312 96.1512 1309.84 96.1512C1307.68 96.1512 1305.95 97.8877 1305.95 100.049C1305.95 102.21 1307.68 103.946 1309.84 103.946C1312 103.946 1313.74 102.21 1313.74 100.049Z" fill="#FFE4CE"/>
<path d="M1313.75 79.4364C1313.75 77.2754 1312.01 75.5389 1309.85 75.5389C1307.69 75.5389 1305.95 77.2754 1305.95 79.4364C1305.95 81.5974 1307.69 83.334 1309.85 83.334C1312.01 83.334 1313.75 81.5974 1313.75 79.4364Z" fill="#FFE4CE"/>
<path d="M1313.75 58.788C1313.75 56.627 1312.01 54.8905 1309.85 54.8905C1307.69 54.8905 1305.95 56.627 1305.95 58.788C1305.95 60.949 1307.69 62.6855 1309.85 62.6855C1312.01 62.6855 1313.75 60.949 1313.75 58.788Z" fill="#FFE4CE"/>
<path d="M1313.25 38.1837C1313.25 36.3314 1311.74 34.8264 1309.89 34.8264C1308.04 34.8264 1306.53 36.3314 1306.53 38.1837C1306.53 40.036 1308.04 41.541 1309.89 41.541C1311.74 41.541 1313.25 40.036 1313.25 38.1837Z" fill="#FFE4CE"/>
<path d="M1310 17.5756C1310 17.5756 1309.96 17.4599 1309.88 17.4599C1309.81 17.4599 1309.77 17.4985 1309.77 17.5756C1309.77 17.6528 1309.81 17.6914 1309.88 17.6914C1309.96 17.6914 1310 17.6528 1310 17.5756Z" fill="#FFE4CE"/>
<path d="M1331.46 347.485C1331.46 346.945 1331.03 346.521 1330.49 346.521C1329.95 346.521 1329.53 346.945 1329.53 347.485C1329.53 348.026 1329.95 348.45 1330.49 348.45C1331.03 348.45 1331.46 348.026 1331.46 347.485Z" fill="#FFE4CE"/>
<path d="M1334.39 326.878C1334.39 324.717 1332.65 322.98 1330.49 322.98C1328.33 322.98 1326.6 324.717 1326.6 326.878C1326.6 329.039 1328.33 330.775 1330.49 330.775C1332.65 330.775 1334.39 329.039 1334.39 326.878Z" fill="#FFE4CE"/>
<path d="M1334.39 306.23C1334.39 304.069 1332.65 302.333 1330.49 302.333C1328.33 302.333 1326.59 304.069 1326.59 306.23C1326.59 308.391 1328.33 310.128 1330.49 310.128C1332.65 310.128 1334.39 308.391 1334.39 306.23Z" fill="#FFE4CE"/>
<path d="M1334.39 285.632C1334.39 283.471 1332.66 281.734 1330.5 281.734C1328.33 281.734 1326.6 283.471 1326.6 285.632C1326.6 287.793 1328.33 289.529 1330.5 289.529C1332.66 289.529 1334.39 287.793 1334.39 285.632Z" fill="#FFE4CE"/>
<path d="M1334.39 265.026C1334.39 262.865 1332.65 261.129 1330.49 261.129C1328.33 261.129 1326.59 262.865 1326.59 265.026C1326.59 267.187 1328.33 268.924 1330.49 268.924C1332.65 268.924 1334.39 267.187 1334.39 265.026Z" fill="#FFE4CE"/>
<path d="M1334.39 244.368C1334.39 242.207 1332.65 240.471 1330.49 240.471C1328.33 240.471 1326.59 242.207 1326.59 244.368C1326.59 246.529 1328.33 248.266 1330.49 248.266C1332.65 248.266 1334.39 246.529 1334.39 244.368Z" fill="#FFE4CE"/>
<path d="M1334.39 223.76C1334.39 221.599 1332.65 219.862 1330.49 219.862C1328.33 219.862 1326.59 221.599 1326.59 223.76C1326.59 225.921 1328.33 227.657 1330.49 227.657C1332.65 227.657 1334.39 225.921 1334.39 223.76Z" fill="#FFE4CE"/>
<path d="M1334.39 203.161C1334.39 201 1332.65 199.264 1330.49 199.264C1328.33 199.264 1326.6 201 1326.6 203.161C1326.6 205.322 1328.33 207.059 1330.49 207.059C1332.65 207.059 1334.39 205.322 1334.39 203.161Z" fill="#FFE4CE"/>
<path d="M1334.39 182.513C1334.39 180.352 1332.65 178.615 1330.49 178.615C1328.33 178.615 1326.59 180.352 1326.59 182.513C1326.59 184.674 1328.33 186.41 1330.49 186.41C1332.65 186.41 1334.39 184.674 1334.39 182.513Z" fill="#FFE4CE"/>
<path d="M1334.39 161.907C1334.39 159.746 1332.65 158.01 1330.49 158.01C1328.33 158.01 1326.59 159.746 1326.59 161.907C1326.59 164.068 1328.33 165.805 1330.49 165.805C1332.65 165.805 1334.39 164.068 1334.39 161.907Z" fill="#FFE4CE"/>
<path d="M1334.39 141.299C1334.39 139.138 1332.65 137.401 1330.49 137.401C1328.33 137.401 1326.59 139.138 1326.59 141.299C1326.59 143.46 1328.33 145.196 1330.49 145.196C1332.65 145.196 1334.39 143.46 1334.39 141.299Z" fill="#FFE4CE"/>
<path d="M1334.39 120.656C1334.39 118.495 1332.66 116.759 1330.5 116.759C1328.33 116.759 1326.6 118.495 1326.6 120.656C1326.6 122.817 1328.33 124.554 1330.5 124.554C1332.66 124.554 1334.39 122.817 1334.39 120.656Z" fill="#FFE4CE"/>
<path d="M1334.39 100.052C1334.39 97.8907 1332.65 96.1541 1330.49 96.1541C1328.33 96.1541 1326.59 97.8907 1326.59 100.052C1326.59 102.213 1328.33 103.949 1330.49 103.949C1332.65 103.949 1334.39 102.213 1334.39 100.052Z" fill="#FFE4CE"/>
<path d="M1334.39 79.4364C1334.39 77.2754 1332.65 75.5389 1330.49 75.5389C1328.33 75.5389 1326.59 77.2754 1326.59 79.4364C1326.59 81.5974 1328.33 83.334 1330.49 83.334C1332.65 83.334 1334.39 81.5974 1334.39 79.4364Z" fill="#FFE4CE"/>
<path d="M1334.39 58.7949C1334.39 56.6338 1332.65 54.8973 1330.49 54.8973C1328.33 54.8973 1326.59 56.6338 1326.59 58.7949C1326.59 60.9559 1328.33 62.6924 1330.49 62.6924C1332.65 62.6924 1334.39 60.9559 1334.39 58.7949Z" fill="#FFE4CE"/>
<path d="M1334.39 38.1894C1334.39 36.0283 1332.65 34.2918 1330.49 34.2918C1328.33 34.2918 1326.59 36.0283 1326.59 38.1894C1326.59 40.3504 1328.33 42.0869 1330.49 42.0869C1332.65 42.0869 1334.39 40.3504 1334.39 38.1894Z" fill="#FFE4CE"/>
<path d="M1331.34 17.5856C1331.34 17.1225 1330.96 16.7366 1330.49 16.7366C1330.03 16.7366 1329.64 17.1225 1329.64 17.5856C1329.64 18.0487 1330.03 18.4346 1330.49 18.4346C1330.96 18.4346 1331.34 18.0487 1331.34 17.5856Z" fill="#FFE4CE"/>
<path d="M1352.76 347.487C1352.76 346.561 1352.03 345.828 1351.1 345.828C1350.17 345.828 1349.44 346.561 1349.44 347.487C1349.44 348.413 1350.17 349.146 1351.1 349.146C1352.03 349.146 1352.76 348.413 1352.76 347.487Z" fill="#FFE4CE"/>
<path d="M1355 326.875C1355 324.714 1353.26 322.977 1351.1 322.977C1348.94 322.977 1347.2 324.714 1347.2 326.875C1347.2 329.036 1348.94 330.772 1351.1 330.772C1353.26 330.772 1355 329.036 1355 326.875Z" fill="#FFE4CE"/>
<path d="M1355 306.237C1355 304.076 1353.26 302.34 1351.1 302.34C1348.94 302.34 1347.2 304.076 1347.2 306.237C1347.2 308.398 1348.94 310.135 1351.1 310.135C1353.26 310.135 1355 308.398 1355 306.237Z" fill="#FFE4CE"/>
<path d="M1355 285.625C1355 283.464 1353.26 281.727 1351.1 281.727C1348.94 281.727 1347.2 283.464 1347.2 285.625C1347.2 287.786 1348.94 289.522 1351.1 289.522C1353.26 289.522 1355 287.786 1355 285.625Z" fill="#FFE4CE"/>
<path d="M1355 265.019C1355 262.858 1353.26 261.122 1351.1 261.122C1348.94 261.122 1347.2 262.858 1347.2 265.019C1347.2 267.18 1348.94 268.917 1351.1 268.917C1353.26 268.917 1355 267.18 1355 265.019Z" fill="#FFE4CE"/>
<path d="M1355 244.375C1355 242.214 1353.26 240.477 1351.1 240.477C1348.94 240.477 1347.2 242.214 1347.2 244.375C1347.2 246.536 1348.94 248.272 1351.1 248.272C1353.26 248.272 1355 246.536 1355 244.375Z" fill="#FFE4CE"/>
<path d="M1355 223.763C1355 221.602 1353.26 219.865 1351.1 219.865C1348.94 219.865 1347.2 221.602 1347.2 223.763C1347.2 225.924 1348.94 227.66 1351.1 227.66C1353.26 227.66 1355 225.924 1355 223.763Z" fill="#FFE4CE"/>
<path d="M1355 203.154C1355 200.993 1353.26 199.257 1351.1 199.257C1348.94 199.257 1347.2 200.993 1347.2 203.154C1347.2 205.315 1348.94 207.052 1351.1 207.052C1353.26 207.052 1355 205.315 1355 203.154Z" fill="#FFE4CE"/>
<path d="M1355 182.516C1355 180.355 1353.26 178.618 1351.1 178.618C1348.94 178.618 1347.2 180.355 1347.2 182.516C1347.2 184.677 1348.94 186.413 1351.1 186.413C1353.26 186.413 1355 184.677 1355 182.516Z" fill="#FFE4CE"/>
<path d="M1355 161.907C1355 159.746 1353.26 158.01 1351.1 158.01C1348.94 158.01 1347.2 159.746 1347.2 161.907C1347.2 164.068 1348.94 165.805 1351.1 165.805C1353.26 165.805 1355 164.068 1355 161.907Z" fill="#FFE4CE"/>
<path d="M1355 141.302C1355 139.141 1353.26 137.404 1351.1 137.404C1348.94 137.404 1347.2 139.141 1347.2 141.302C1347.2 143.463 1348.94 145.199 1351.1 145.199C1353.26 145.199 1355 143.463 1355 141.302Z" fill="#FFE4CE"/>
<path d="M1355 120.663C1355 118.502 1353.26 116.765 1351.1 116.765C1348.94 116.765 1347.2 118.502 1347.2 120.663C1347.2 122.824 1348.94 124.561 1351.1 124.561C1353.26 124.561 1355 122.824 1355 120.663Z" fill="#FFE4CE"/>
<path d="M1355 100.055C1355 97.8936 1353.26 96.1571 1351.1 96.1571C1348.94 96.1571 1347.2 97.8936 1347.2 100.055C1347.2 102.216 1348.94 103.952 1351.1 103.952C1353.26 103.952 1355 102.216 1355 100.055Z" fill="#FFE4CE"/>
<path d="M1355 79.4364C1355 77.2754 1353.26 75.5389 1351.1 75.5389C1348.94 75.5389 1347.2 77.2754 1347.2 79.4364C1347.2 81.5974 1348.94 83.334 1351.1 83.334C1353.26 83.334 1355 81.5974 1355 79.4364Z" fill="#FFE4CE"/>
<path d="M1355 58.788C1355 56.627 1353.26 54.8905 1351.1 54.8905C1348.94 54.8905 1347.2 56.627 1347.2 58.788C1347.2 60.949 1348.94 62.6855 1351.1 62.6855C1353.26 62.6855 1355 60.949 1355 58.788Z" fill="#FFE4CE"/>
<path d="M1355 38.1894C1355 36.0283 1353.26 34.2918 1351.1 34.2918C1348.94 34.2918 1347.2 36.0283 1347.2 38.1894C1347.2 40.3504 1348.94 42.0869 1351.1 42.0869C1353.26 42.0869 1355 40.3504 1355 38.1894Z" fill="#FFE4CE"/>
<path d="M1352.72 17.5819C1352.72 16.6943 1351.99 15.9997 1351.14 15.9997C1350.29 15.9997 1349.56 16.7329 1349.56 17.5819C1349.56 18.4309 1350.29 19.1641 1351.14 19.1641C1351.99 19.1641 1352.72 18.4309 1352.72 17.5819Z" fill="#FFE4CE"/>
<path d="M1188.05 93.8539L1184.87 82.8103L1195.91 79.6215L1192.85 69.0431L1181.81 72.2319L1178.62 61.1884L1168.04 64.2428L1171.23 75.2864L1160.19 78.4752L1163.24 89.0536L1174.29 85.8648L1177.48 96.9084L1188.05 93.8539Z" fill="#FFE4CE"/>
<path d="M1137.45 242.491L1131.45 221.703L1152.24 215.701L1146.49 195.788L1125.7 201.791L1119.7 181.003L1099.79 186.752L1105.79 207.54L1085 213.543L1090.75 233.455L1111.54 227.453L1117.54 248.24L1137.45 242.491Z" fill="#FFE4CE"/>
<path d="M336.227 256.623L333.226 246.229L343.62 243.228L340.745 233.272L330.351 236.273L327.35 225.879L317.394 228.754L320.395 239.148L310.001 242.149L312.876 252.105L323.27 249.104L326.271 259.498L336.227 256.623Z" fill="#FFE4CE"/>
<path d="M667.227 58.745L664.226 48.351L674.62 45.3498L671.745 35.3937L661.351 38.3949L658.35 28.0009L648.394 30.8757L651.395 41.2697L641.001 44.2709L643.876 54.227L654.27 51.2258L657.271 61.6198L667.227 58.745Z" fill="#FFE4CE"/>
<path opacity="0.65" d="M126.671 351.004L107.913 286.042L172.875 267.284L154.908 205.059L89.9456 223.816L71.188 158.854L8.96215 176.821L27.7198 241.784L-37.2424 260.541L-19.2749 322.767L45.6873 304.009L64.4449 368.972L126.671 351.004Z" fill="#FFE4CE"/>
<g opacity="0.4">
<path d="M205.155 146.234C205.155 146.234 205.047 146.27 205.047 146.342C205.047 146.414 205.083 146.45 205.155 146.45C205.227 146.45 205.263 146.414 205.263 146.342C205.263 146.27 205.227 146.234 205.155 146.234Z" fill="#FFE4CE"/>
<path d="M185.919 145.444C185.415 145.444 185.019 145.84 185.019 146.345C185.019 146.849 185.415 147.245 185.919 147.245C186.423 147.245 186.82 146.849 186.82 146.345C186.82 145.84 186.423 145.444 185.919 145.444Z" fill="#FFE4CE"/>
<path d="M166.683 144.793C165.819 144.793 165.134 145.477 165.134 146.342C165.134 147.206 165.819 147.891 166.683 147.891C167.547 147.891 168.232 147.206 168.232 146.342C168.232 145.477 167.547 144.793 166.683 144.793Z" fill="#FFE4CE"/>
<path d="M147.411 144.686C146.511 144.686 145.754 145.443 145.754 146.343C145.754 147.244 146.511 148 147.411 148C148.312 148 149.068 147.244 149.068 146.343C149.068 145.443 148.312 144.686 147.411 144.686Z" fill="#FFE4CE"/>
<path d="M128.183 144.798C127.319 144.798 126.634 145.482 126.634 146.347C126.634 147.211 127.319 147.896 128.183 147.896C129.048 147.896 129.732 147.211 129.732 146.347C129.732 145.482 129.048 144.798 128.183 144.798Z" fill="#FFE4CE"/>
<path d="M108.945 145.476C108.477 145.476 108.081 145.872 108.081 146.341C108.081 146.809 108.477 147.205 108.945 147.205C109.413 147.205 109.81 146.809 109.81 146.341C109.81 145.872 109.413 145.476 108.945 145.476Z" fill="#FFE4CE"/>
<path d="M89.6786 146.302C89.6786 146.302 89.6412 146.302 89.6412 146.34C89.6412 146.377 89.6412 146.377 89.6786 146.377C89.7159 146.377 89.7159 146.377 89.7159 146.34C89.7159 146.302 89.7159 146.302 89.6786 146.302Z" fill="#FFE4CE"/>
<path d="M243.648 127.033C243.648 127.033 243.611 127.033 243.611 127.07C243.611 127.107 243.611 127.107 243.648 127.107C243.686 127.107 243.686 127.107 243.686 127.07C243.686 127.033 243.686 127.033 243.648 127.033Z" fill="#FFE4CE"/>
<path d="M224.422 125.492C223.522 125.492 222.837 126.212 222.837 127.076C222.837 127.941 223.558 128.661 224.422 128.661C225.287 128.661 226.007 127.941 226.007 127.076C226.007 126.212 225.287 125.492 224.422 125.492Z" fill="#FFE4CE"/>
<path d="M205.147 123.837C203.346 123.837 201.905 125.278 201.905 127.079C201.905 128.88 203.346 130.32 205.147 130.32C206.948 130.32 208.388 128.88 208.388 127.079C208.388 125.278 206.948 123.837 205.147 123.837Z" fill="#FFE4CE"/>
<path d="M185.915 123.472C183.898 123.472 182.277 125.092 182.277 127.109C182.277 129.126 183.898 130.747 185.915 130.747C187.932 130.747 189.553 129.126 189.553 127.109C189.553 125.092 187.932 123.472 185.915 123.472Z" fill="#FFE4CE"/>
<path d="M166.683 123.475C164.666 123.475 163.045 125.095 163.045 127.112C163.045 129.129 164.666 130.75 166.683 130.75C168.7 130.75 170.321 129.129 170.321 127.112C170.321 125.095 168.7 123.475 166.683 123.475Z" fill="#FFE4CE"/>
<path d="M147.415 123.475C145.398 123.475 143.777 125.095 143.777 127.112C143.777 129.129 145.398 130.75 147.415 130.75C149.431 130.75 151.052 129.129 151.052 127.112C151.052 125.095 149.431 123.475 147.415 123.475Z" fill="#FFE4CE"/>
<path d="M128.174 123.47C126.157 123.47 124.536 125.09 124.536 127.107C124.536 129.124 126.157 130.745 128.174 130.745C130.191 130.745 131.812 129.124 131.812 127.107C131.812 125.09 130.191 123.47 128.174 123.47Z" fill="#FFE4CE"/>
<path d="M108.954 123.472C106.937 123.472 105.316 125.092 105.316 127.109C105.316 129.126 106.937 130.747 108.954 130.747C110.971 130.747 112.592 129.126 112.592 127.109C112.592 125.092 110.971 123.472 108.954 123.472Z" fill="#FFE4CE"/>
<path d="M89.6798 123.903C87.9149 123.903 86.4743 125.344 86.4743 127.109C86.4743 128.874 87.9149 130.314 89.6798 130.314C91.4446 130.314 92.8853 128.874 92.8853 127.109C92.8853 125.344 91.4446 123.903 89.6798 123.903Z" fill="#FFE4CE"/>
<path d="M70.4373 125.597C69.6089 125.597 68.9607 126.282 68.9607 127.074C68.9607 127.866 69.645 128.551 70.4373 128.551C71.2297 128.551 71.914 127.866 71.914 127.074C71.914 126.282 71.2297 125.597 70.4373 125.597Z" fill="#FFE4CE"/>
<path d="M51.2056 127.033C51.2056 127.033 51.1682 127.033 51.1682 127.07C51.1682 127.107 51.1682 127.107 51.2056 127.107C51.243 127.107 51.243 127.107 51.243 127.07C51.243 127.033 51.243 127.033 51.2056 127.033Z" fill="#FFE4CE"/>
<path d="M262.625 107.84C262.625 107.7 262.738 107.588 262.877 107.588C263.017 107.588 263.13 107.7 263.13 107.84C263.13 107.979 263.017 108.092 262.877 108.092C262.738 108.092 262.625 107.979 262.625 107.84Z" fill="#FFE4CE"/>
<path d="M243.646 105.245C242.205 105.245 241.017 106.398 241.017 107.875C241.017 109.351 242.205 110.504 243.646 110.504C245.087 110.504 246.275 109.315 246.275 107.875C246.275 106.434 245.123 105.245 243.646 105.245Z" fill="#FFE4CE"/>
<path d="M224.421 104.242C222.404 104.242 220.784 105.863 220.784 107.88C220.784 109.897 222.404 111.518 224.421 111.518C226.438 111.518 228.059 109.897 228.059 107.88C228.059 105.863 226.438 104.242 224.421 104.242Z" fill="#FFE4CE"/>
<path d="M205.15 104.243C203.133 104.243 201.512 105.864 201.512 107.881C201.512 109.898 203.133 111.519 205.15 111.519C207.167 111.519 208.788 109.898 208.788 107.881C208.788 105.864 207.167 104.243 205.15 104.243Z" fill="#FFE4CE"/>
<path d="M185.909 104.237C183.892 104.237 182.271 105.858 182.271 107.875C182.271 109.892 183.892 111.513 185.909 111.513C187.926 111.513 189.546 109.892 189.546 107.875C189.546 105.858 187.926 104.237 185.909 104.237Z" fill="#FFE4CE"/>
<path d="M166.68 104.24C164.663 104.24 163.042 105.861 163.042 107.878C163.042 109.895 164.663 111.516 166.68 111.516C168.697 111.516 170.318 109.895 170.318 107.878C170.318 105.861 168.697 104.24 166.68 104.24Z" fill="#FFE4CE"/>
<path d="M147.418 104.242C145.401 104.242 143.78 105.863 143.78 107.88C143.78 109.897 145.401 111.518 147.418 111.518C149.435 111.518 151.056 109.897 151.056 107.88C151.056 105.863 149.435 104.242 147.418 104.242Z" fill="#FFE4CE"/>
<path d="M128.181 104.24C126.164 104.24 124.543 105.861 124.543 107.878C124.543 109.895 126.164 111.516 128.181 111.516C130.198 111.516 131.818 109.895 131.818 107.878C131.818 105.861 130.198 104.24 128.181 104.24Z" fill="#FFE4CE"/>
<path d="M108.945 104.237C106.928 104.237 105.308 105.858 105.308 107.875C105.308 109.892 106.928 111.513 108.945 111.513C110.962 111.513 112.583 109.892 112.583 107.875C112.583 105.858 110.962 104.237 108.945 104.237Z" fill="#FFE4CE"/>
<path d="M89.6796 104.235C87.6626 104.235 86.0419 105.856 86.0419 107.873C86.0419 109.89 87.6626 111.511 89.6796 111.511C91.6965 111.511 93.3173 109.89 93.3173 107.873C93.3173 105.856 91.6965 104.235 89.6796 104.235Z" fill="#FFE4CE"/>
<path d="M70.4477 104.238C68.4308 104.238 66.8101 105.859 66.8101 107.876C66.8101 109.893 68.4308 111.514 70.4477 111.514C72.4647 111.514 74.0854 109.893 74.0854 107.876C74.0854 105.859 72.4647 104.238 70.4477 104.238Z" fill="#FFE4CE"/>
<path d="M51.2138 105.283C49.8091 105.283 48.6566 106.436 48.6566 107.84C48.6566 109.245 49.8091 110.397 51.2138 110.397C52.6185 110.397 53.771 109.245 53.771 107.84C53.771 106.436 52.6185 105.283 51.2138 105.283Z" fill="#FFE4CE"/>
<path d="M31.9502 107.698C31.9502 107.698 31.8061 107.77 31.8061 107.842C31.8061 107.914 31.8781 107.986 31.9502 107.986C32.0222 107.986 32.0942 107.914 32.0942 107.842C32.0942 107.77 32.0222 107.698 31.9502 107.698Z" fill="#FFE4CE"/>
<path d="M282.146 88.5678C282.146 88.5678 282.108 88.5678 282.108 88.6052C282.108 88.6426 282.108 88.6426 282.146 88.6426C282.183 88.6426 282.183 88.6426 282.183 88.6052C282.183 88.5678 282.183 88.5678 282.146 88.5678Z" fill="#FFE4CE"/>
<path d="M260.252 88.6081C260.252 87.156 261.429 85.9788 262.881 85.9788C264.333 85.9788 265.51 87.156 265.51 88.6081C265.51 90.0602 264.333 91.2373 262.881 91.2373C261.429 91.2373 260.252 90.0602 260.252 88.6081Z" fill="#FFE4CE"/>
<path d="M243.653 84.9697C241.636 84.9697 240.015 86.5905 240.015 88.6074C240.015 90.6244 241.636 92.2451 243.653 92.2451C245.67 92.2451 247.29 90.6244 247.29 88.6074C247.29 86.5905 245.67 84.9697 243.653 84.9697Z" fill="#FFE4CE"/>
<path d="M224.421 84.9717C222.404 84.9717 220.784 86.5924 220.784 88.6094C220.784 90.6263 222.404 92.2471 224.421 92.2471C226.438 92.2471 228.059 90.6263 228.059 88.6094C228.059 86.5924 226.438 84.9717 224.421 84.9717Z" fill="#FFE4CE"/>
<path d="M205.146 84.9678C203.13 84.9678 201.509 86.5885 201.509 88.6055C201.509 90.6224 203.13 92.2432 205.146 92.2432C207.163 92.2432 208.784 90.6224 208.784 88.6055C208.784 86.5885 207.163 84.9678 205.146 84.9678Z" fill="#FFE4CE"/>
<path d="M185.915 84.9717C183.898 84.9717 182.277 86.5924 182.277 88.6094C182.277 90.6263 183.898 92.2471 185.915 92.2471C187.932 92.2471 189.553 90.6263 189.553 88.6094C189.553 86.5924 187.932 84.9717 185.915 84.9717Z" fill="#FFE4CE"/>
<path d="M166.687 84.9726C164.67 84.9726 163.049 86.5934 163.049 88.6103C163.049 90.6273 164.67 92.248 166.687 92.248C168.703 92.248 170.324 90.6273 170.324 88.6103C170.324 86.5934 168.703 84.9726 166.687 84.9726Z" fill="#FFE4CE"/>
<path d="M147.418 84.9697C145.401 84.9697 143.78 86.5905 143.78 88.6074C143.78 90.6244 145.401 92.2451 147.418 92.2451C149.435 92.2451 151.056 90.6244 151.056 88.6074C151.056 86.5905 149.435 84.9697 147.418 84.9697Z" fill="#FFE4CE"/>
<path d="M128.183 84.9697C126.166 84.9697 124.546 86.5905 124.546 88.6074C124.546 90.6244 126.166 92.2451 128.183 92.2451C130.2 92.2451 131.821 90.6244 131.821 88.6074C131.821 86.5905 130.2 84.9697 128.183 84.9697Z" fill="#FFE4CE"/>
<path d="M108.951 84.9717C106.934 84.9717 105.314 86.5924 105.314 88.6094C105.314 90.6263 106.934 92.2471 108.951 92.2471C110.968 92.2471 112.589 90.6263 112.589 88.6094C112.589 86.5924 110.968 84.9717 108.951 84.9717Z" fill="#FFE4CE"/>
<path d="M89.6796 84.9746C87.6626 84.9746 86.0419 86.5954 86.0419 88.6123C86.0419 90.6292 87.6626 92.25 89.6796 92.25C91.6965 92.25 93.3173 90.6292 93.3173 88.6123C93.3173 86.5954 91.6965 84.9746 89.6796 84.9746Z" fill="#FFE4CE"/>
<path d="M70.445 84.9717C68.428 84.9717 66.8073 86.5924 66.8073 88.6094C66.8073 90.6263 68.428 92.2471 70.445 92.2471C72.4619 92.2471 74.0827 90.6263 74.0827 88.6094C74.0827 86.5924 72.4619 84.9717 70.445 84.9717Z" fill="#FFE4CE"/>
<path d="M51.2101 84.9678C49.1932 84.9678 47.5724 86.5885 47.5724 88.6055C47.5724 90.6224 49.1932 92.2432 51.2101 92.2432C53.2271 92.2432 54.8478 90.6224 54.8478 88.6055C54.8478 86.5885 53.2271 84.9678 51.2101 84.9678Z" fill="#FFE4CE"/>
<path d="M31.9516 86.0526C30.5469 86.0526 29.3944 87.2051 29.3944 88.6098C29.3944 90.0145 30.5469 91.167 31.9516 91.167C33.3563 91.167 34.5088 90.0145 34.5088 88.6098C34.5088 87.2051 33.3563 86.0526 31.9516 86.0526Z" fill="#FFE4CE"/>
<path d="M12.7092 88.5678C12.7092 88.5678 12.6718 88.5678 12.6718 88.6052C12.6718 88.6426 12.6718 88.6426 12.7092 88.6426C12.7466 88.6426 12.7466 88.6426 12.7466 88.6052C12.7466 88.5678 12.7466 88.5678 12.7092 88.5678Z" fill="#FFE4CE"/>
<path d="M282.154 67.7543C281.253 67.7543 280.569 68.4747 280.569 69.3391C280.569 70.2035 281.289 70.9238 282.154 70.9238C283.018 70.9238 283.738 70.2035 283.738 69.3391C283.738 68.4747 283.018 67.7543 282.154 67.7543Z" fill="#FFE4CE"/>
<path d="M262.881 65.7363C260.864 65.7363 259.244 67.3571 259.244 69.374C259.244 71.391 260.864 73.0117 262.881 73.0117C264.898 73.0117 266.519 71.391 266.519 69.374C266.519 67.3571 264.898 65.7363 262.881 65.7363Z" fill="#FFE4CE"/>
<path d="M243.65 65.7402C241.633 65.7402 240.012 67.361 240.012 69.3779C240.012 71.3949 241.633 73.0156 243.65 73.0156C245.667 73.0156 247.288 71.3949 247.288 69.3779C247.288 67.361 245.667 65.7402 243.65 65.7402Z" fill="#FFE4CE"/>
<path d="M224.421 65.7412C222.404 65.7412 220.784 67.362 220.784 69.3789C220.784 71.3958 222.404 73.0166 224.421 73.0166C226.438 73.0166 228.059 71.3958 228.059 69.3789C228.059 67.362 226.438 65.7412 224.421 65.7412Z" fill="#FFE4CE"/>
<path d="M205.144 65.7402C203.127 65.7402 201.506 67.361 201.506 69.3779C201.506 71.3949 203.127 73.0156 205.144 73.0156C207.161 73.0156 208.782 71.3949 208.782 69.3779C208.782 67.361 207.161 65.7402 205.144 65.7402Z" fill="#FFE4CE"/>
<path d="M185.909 65.7363C183.892 65.7363 182.271 67.3571 182.271 69.374C182.271 71.391 183.892 73.0117 185.909 73.0117C187.926 73.0117 189.546 71.391 189.546 69.374C189.546 67.3571 187.926 65.7363 185.909 65.7363Z" fill="#FFE4CE"/>
<path d="M166.68 65.7402C164.663 65.7402 163.042 67.361 163.042 69.3779C163.042 71.3949 164.663 73.0156 166.68 73.0156C168.697 73.0156 170.318 71.3949 170.318 69.3779C170.318 67.361 168.697 65.7402 166.68 65.7402Z" fill="#FFE4CE"/>
<path d="M147.412 65.7353C145.395 65.7353 143.774 67.3561 143.774 69.373C143.774 71.39 145.395 73.0107 147.412 73.0107C149.429 73.0107 151.049 71.39 151.049 69.373C151.049 67.3561 149.429 65.7353 147.412 65.7353Z" fill="#FFE4CE"/>
<path d="M128.183 65.7383C126.166 65.7383 124.546 67.359 124.546 69.376C124.546 71.3929 126.166 73.0137 128.183 73.0137C130.2 73.0137 131.821 71.3929 131.821 69.376C131.821 67.359 130.2 65.7383 128.183 65.7383Z" fill="#FFE4CE"/>
<path d="M108.945 65.7383C106.928 65.7383 105.308 67.359 105.308 69.376C105.308 71.3929 106.928 73.0137 108.945 73.0137C110.962 73.0137 112.583 71.3929 112.583 69.376C112.583 67.359 110.962 65.7383 108.945 65.7383Z" fill="#FFE4CE"/>
<path d="M89.6796 65.7353C87.6626 65.7353 86.0419 67.3561 86.0419 69.373C86.0419 71.39 87.6626 73.0107 89.6796 73.0107C91.6965 73.0107 93.3173 71.39 93.3173 69.373C93.3173 67.3561 91.6965 65.7353 89.6796 65.7353Z" fill="#FFE4CE"/>
<path d="M70.4477 65.7363C68.4308 65.7363 66.8101 67.3571 66.8101 69.374C66.8101 71.391 68.4308 73.0117 70.4477 73.0117C72.4647 73.0117 74.0854 71.391 74.0854 69.374C74.0854 67.3571 72.4647 65.7363 70.4477 65.7363Z" fill="#FFE4CE"/>
<path d="M51.2099 65.7402C49.193 65.7402 47.5722 67.361 47.5722 69.3779C47.5722 71.3949 49.193 73.0156 51.2099 73.0156C53.2269 73.0156 54.8477 71.3949 54.8477 69.3779C54.8477 67.361 53.2269 65.7402 51.2099 65.7402Z" fill="#FFE4CE"/>
<path d="M31.9414 65.7363C29.9244 65.7363 28.3036 67.3571 28.3036 69.374C28.3036 71.391 29.9244 73.0117 31.9414 73.0117C33.9583 73.0117 35.579 71.391 35.579 69.374C35.579 67.3571 33.9583 65.7363 31.9414 65.7363Z" fill="#FFE4CE"/>
<path d="M12.7113 67.863C11.8829 67.863 11.2346 68.5473 11.2346 69.3397C11.2346 70.1321 11.9189 70.8164 12.7113 70.8164C13.5037 70.8164 14.188 70.1321 14.188 69.3397C14.188 68.5473 13.5037 67.863 12.7113 67.863Z" fill="#FFE4CE"/>
<path d="M301.383 49.9978C301.383 49.9978 301.275 50.0338 301.275 50.1058C301.275 50.1778 301.311 50.2139 301.383 50.2139C301.455 50.2139 301.491 50.1778 301.491 50.1058C301.491 50.0338 301.455 49.9978 301.383 49.9978Z" fill="#FFE4CE"/>
<path d="M282.149 46.9357C280.385 46.9357 278.944 48.3764 278.944 50.1412C278.944 51.906 280.385 53.3467 282.149 53.3467C283.914 53.3467 285.355 51.906 285.355 50.1412C285.355 48.3764 283.914 46.9357 282.149 46.9357Z" fill="#FFE4CE"/>
<path d="M262.888 46.5039C260.871 46.5039 259.25 48.1246 259.25 50.1416C259.25 52.1585 260.871 53.7793 262.888 53.7793C264.905 53.7793 266.526 52.1585 266.526 50.1416C266.526 48.1246 264.905 46.5039 262.888 46.5039Z" fill="#FFE4CE"/>
<path d="M243.65 46.501C241.633 46.501 240.012 48.1217 240.012 50.1387C240.012 52.1556 241.633 53.7764 243.65 53.7764C245.667 53.7764 247.288 52.1556 247.288 50.1387C247.288 48.1217 245.667 46.501 243.65 46.501Z" fill="#FFE4CE"/>
<path d="M224.419 46.5039C222.402 46.5039 220.781 48.1246 220.781 50.1416C220.781 52.1585 222.402 53.7793 224.419 53.7793C226.436 53.7793 228.056 52.1585 228.056 50.1416C228.056 48.1246 226.436 46.5039 224.419 46.5039Z" fill="#FFE4CE"/>
<path d="M205.146 46.5039C203.13 46.5039 201.509 48.1246 201.509 50.1416C201.509 52.1585 203.13 53.7793 205.146 53.7793C207.163 53.7793 208.784 52.1585 208.784 50.1416C208.784 48.1246 207.163 46.5039 205.146 46.5039Z" fill="#FFE4CE"/>
<path d="M185.912 46.5019C183.895 46.5019 182.274 48.1227 182.274 50.1396C182.274 52.1566 183.895 53.7773 185.912 53.7773C187.929 53.7773 189.55 52.1566 189.55 50.1396C189.55 48.1227 187.929 46.5019 185.912 46.5019Z" fill="#FFE4CE"/>
<path d="M166.683 46.5039C164.666 46.5039 163.045 48.1246 163.045 50.1416C163.045 52.1585 164.666 53.7793 166.683 53.7793C168.7 53.7793 170.321 52.1585 170.321 50.1416C170.321 48.1246 168.7 46.5039 166.683 46.5039Z" fill="#FFE4CE"/>
<path d="M147.415 46.5019C145.398 46.5019 143.777 48.1227 143.777 50.1396C143.777 52.1566 145.398 53.7773 147.415 53.7773C149.431 53.7773 151.052 52.1566 151.052 50.1396C151.052 48.1227 149.431 46.5019 147.415 46.5019Z" fill="#FFE4CE"/>
<path d="M128.18 46.501C126.164 46.501 124.543 48.1217 124.543 50.1387C124.543 52.1556 126.164 53.7764 128.18 53.7764C130.197 53.7764 131.818 52.1556 131.818 50.1387C131.818 48.1217 130.197 46.501 128.18 46.501Z" fill="#FFE4CE"/>
<path d="M108.948 46.5039C106.931 46.5039 105.31 48.1246 105.31 50.1416C105.31 52.1585 106.931 53.7793 108.948 53.7793C110.965 53.7793 112.586 52.1585 112.586 50.1416C112.586 48.1246 110.965 46.5039 108.948 46.5039Z" fill="#FFE4CE"/>
<path d="M89.6768 46.5039C87.6598 46.5039 86.039 48.1246 86.039 50.1416C86.039 52.1585 87.6598 53.7793 89.6768 53.7793C91.6937 53.7793 93.3145 52.1585 93.3145 50.1416C93.3145 48.1246 91.6937 46.5039 89.6768 46.5039Z" fill="#FFE4CE"/>
<path d="M70.4448 46.5078C68.4279 46.5078 66.8071 48.1286 66.8071 50.1455C66.8071 52.1624 68.4279 53.7832 70.4448 53.7832C72.4618 53.7832 74.0825 52.1624 74.0825 50.1455C74.0825 48.1286 72.4618 46.5078 70.4448 46.5078Z" fill="#FFE4CE"/>
<path d="M51.2074 46.501C49.1905 46.501 47.5697 48.1217 47.5697 50.1387C47.5697 52.1556 49.1905 53.7764 51.2074 53.7764C53.2244 53.7764 54.8451 52.1556 54.8451 50.1387C54.8451 48.1217 53.2244 46.501 51.2074 46.501Z" fill="#FFE4CE"/>
<path d="M31.9356 46.5019C29.9186 46.5019 28.2978 48.1227 28.2978 50.1396C28.2978 52.1566 29.9186 53.7773 31.9356 53.7773C33.9525 53.7773 35.5732 52.1566 35.5732 50.1396C35.5732 48.1227 33.9525 46.5019 31.9356 46.5019Z" fill="#FFE4CE"/>
<path d="M12.7049 46.9684C10.9761 46.9684 9.57145 48.3731 9.57145 50.1019C9.57145 51.8307 10.9761 53.2354 12.7049 53.2354C14.4337 53.2354 15.8384 51.8307 15.8384 50.1019C15.8384 48.3731 14.4337 46.9684 12.7049 46.9684Z" fill="#FFE4CE"/>
<path d="M301.386 29.9745C300.881 29.9745 300.485 30.3707 300.485 30.875C300.485 31.3792 300.881 31.7754 301.386 31.7754C301.89 31.7754 302.286 31.3792 302.286 30.875C302.286 30.3707 301.89 29.9745 301.386 29.9745Z" fill="#FFE4CE"/>
<path d="M282.153 27.2353C280.136 27.2353 278.515 28.8561 278.515 30.873C278.515 32.89 280.136 34.5107 282.153 34.5107C284.17 34.5107 285.791 32.89 285.791 30.873C285.791 28.8561 284.17 27.2353 282.153 27.2353Z" fill="#FFE4CE"/>
<path d="M262.881 27.2363C260.864 27.2363 259.244 28.8571 259.244 30.874C259.244 32.891 260.864 34.5117 262.881 34.5117C264.898 34.5117 266.519 32.891 266.519 30.874C266.519 28.8571 264.898 27.2363 262.881 27.2363Z" fill="#FFE4CE"/>
<path d="M243.656 27.2334C241.639 27.2334 240.018 28.8541 240.018 30.8711C240.018 32.888 241.639 34.5088 243.656 34.5088C245.673 34.5088 247.294 32.888 247.294 30.8711C247.294 28.8541 245.673 27.2334 243.656 27.2334Z" fill="#FFE4CE"/>
<path d="M224.424 27.2383C222.407 27.2383 220.787 28.859 220.787 30.876C220.787 32.8929 222.407 34.5137 224.424 34.5137C226.441 34.5137 228.062 32.8929 228.062 30.876C228.062 28.859 226.441 27.2383 224.424 27.2383Z" fill="#FFE4CE"/>
<path d="M205.144 27.2383C203.127 27.2383 201.506 28.859 201.506 30.876C201.506 32.8929 203.127 34.5137 205.144 34.5137C207.161 34.5137 208.782 32.8929 208.782 30.876C208.782 28.859 207.161 27.2383 205.144 27.2383Z" fill="#FFE4CE"/>
<path d="M185.909 27.2383C183.892 27.2383 182.271 28.859 182.271 30.876C182.271 32.8929 183.892 34.5137 185.909 34.5137C187.926 34.5137 189.546 32.8929 189.546 30.876C189.546 28.859 187.926 27.2383 185.909 27.2383Z" fill="#FFE4CE"/>
<path d="M166.683 27.2353C164.666 27.2353 163.045 28.8561 163.045 30.873C163.045 32.89 164.666 34.5107 166.683 34.5107C168.7 34.5107 170.321 32.89 170.321 30.873C170.321 28.8561 168.7 27.2353 166.683 27.2353Z" fill="#FFE4CE"/>
<path d="M147.412 27.2363C145.395 27.2363 143.774 28.8571 143.774 30.874C143.774 32.891 145.395 34.5117 147.412 34.5117C149.429 34.5117 151.049 32.891 151.049 30.874C151.049 28.8571 149.429 27.2363 147.412 27.2363Z" fill="#FFE4CE"/>
<path d="M128.18 27.2392C126.164 27.2392 124.543 28.86 124.543 30.8769C124.543 32.8939 126.164 34.5146 128.18 34.5146C130.197 34.5146 131.818 32.8939 131.818 30.8769C131.818 28.86 130.197 27.2392 128.18 27.2392Z" fill="#FFE4CE"/>
<path d="M108.945 27.2363C106.928 27.2363 105.308 28.8571 105.308 30.874C105.308 32.891 106.928 34.5117 108.945 34.5117C110.962 34.5117 112.583 32.891 112.583 30.874C112.583 28.8571 110.962 27.2363 108.945 27.2363Z" fill="#FFE4CE"/>
<path d="M89.6796 27.2334C87.6626 27.2334 86.0419 28.8541 86.0419 30.8711C86.0419 32.888 87.6626 34.5088 89.6796 34.5088C91.6965 34.5088 93.3173 32.888 93.3173 30.8711C93.3173 28.8541 91.6965 27.2334 89.6796 27.2334Z" fill="#FFE4CE"/>
<path d="M70.4477 27.2363C68.4308 27.2363 66.8101 28.8571 66.8101 30.874C66.8101 32.891 68.4308 34.5117 70.4477 34.5117C72.4647 34.5117 74.0854 32.891 74.0854 30.874C74.0854 28.8571 72.4647 27.2363 70.4477 27.2363Z" fill="#FFE4CE"/>
<path d="M51.2074 27.2392C49.1905 27.2392 47.5697 28.86 47.5697 30.8769C47.5697 32.8939 49.1905 34.5146 51.2074 34.5146C53.2244 34.5146 54.8451 32.8939 54.8451 30.8769C54.8451 28.86 53.2244 27.2392 51.2074 27.2392Z" fill="#FFE4CE"/>
<path d="M31.9414 27.2363C29.9244 27.2363 28.3036 28.8571 28.3036 30.874C28.3036 32.891 29.9244 34.5117 31.9414 34.5117C33.9583 34.5117 35.579 32.891 35.579 30.874C35.579 28.8571 33.9583 27.2363 31.9414 27.2363Z" fill="#FFE4CE"/>
<path d="M12.7101 27.2392C10.6931 27.2392 9.07238 28.86 9.07238 30.8769C9.07238 32.8939 10.6931 34.5146 12.7101 34.5146C14.727 34.5146 16.3478 32.8939 16.3478 30.8769C16.3478 28.86 14.727 27.2392 12.7101 27.2392Z" fill="#FFE4CE"/>
<path d="M301.388 10.091C300.523 10.091 299.839 10.7753 299.839 11.6398C299.839 12.5042 300.523 13.1885 301.388 13.1885C302.252 13.1885 302.937 12.5042 302.937 11.6398C302.937 10.7753 302.252 10.091 301.388 10.091Z" fill="#FFE4CE"/>
<path d="M282.15 8.00389C280.133 8.00389 278.512 9.62464 278.512 11.6416C278.512 13.6585 280.133 15.2793 282.15 15.2793C284.167 15.2793 285.788 13.6585 285.788 11.6416C285.788 9.62464 284.167 8.00389 282.15 8.00389Z" fill="#FFE4CE"/>
<path d="M262.888 8.00486C260.871 8.00486 259.25 9.62562 259.25 11.6426C259.25 13.6595 260.871 15.2803 262.888 15.2803C264.905 15.2803 266.526 13.6595 266.526 11.6426C266.526 9.62562 264.905 8.00486 262.888 8.00486Z" fill="#FFE4CE"/>
<path d="M243.65 7.99998C241.633 7.99998 240.012 9.62073 240.012 11.6377C240.012 13.6546 241.633 15.2754 243.65 15.2754C245.667 15.2754 247.288 13.6546 247.288 11.6377C247.288 9.62073 245.667 7.99998 243.65 7.99998Z" fill="#FFE4CE"/>
<path d="M224.419 8.00193C222.402 8.00193 220.781 9.62269 220.781 11.6396C220.781 13.6566 222.402 15.2773 224.419 15.2773C226.436 15.2773 228.056 13.6566 228.056 11.6396C228.056 9.62269 226.436 8.00193 224.419 8.00193Z" fill="#FFE4CE"/>
<path d="M205.15 8.00193C203.133 8.00193 201.512 9.62269 201.512 11.6396C201.512 13.6566 203.133 15.2773 205.15 15.2773C207.167 15.2773 208.787 13.6566 208.787 11.6396C208.787 9.62269 207.167 8.00193 205.15 8.00193Z" fill="#FFE4CE"/>
<path d="M185.912 8.00193C183.895 8.00193 182.274 9.62269 182.274 11.6396C182.274 13.6566 183.895 15.2773 185.912 15.2773C187.929 15.2773 189.55 13.6566 189.55 11.6396C189.55 9.62269 187.929 8.00193 185.912 8.00193Z" fill="#FFE4CE"/>
<path d="M166.677 7.99998C164.66 7.99998 163.039 9.62073 163.039 11.6377C163.039 13.6546 164.66 15.2754 166.677 15.2754C168.694 15.2754 170.315 13.6546 170.315 11.6377C170.315 9.62073 168.694 7.99998 166.677 7.99998Z" fill="#FFE4CE"/>
<path d="M147.415 7.99998C145.398 7.99998 143.777 9.62073 143.777 11.6377C143.777 13.6546 145.398 15.2754 147.415 15.2754C149.431 15.2754 151.052 13.6546 151.052 11.6377C151.052 9.62073 149.431 7.99998 147.415 7.99998Z" fill="#FFE4CE"/>
<path d="M128.18 7.99998C126.164 7.99998 124.543 9.62073 124.543 11.6377C124.543 13.6546 126.164 15.2754 128.18 15.2754C130.197 15.2754 131.818 13.6546 131.818 11.6377C131.818 9.62073 130.197 7.99998 128.18 7.99998Z" fill="#FFE4CE"/>
<path d="M108.948 8.00193C106.931 8.00193 105.31 9.62269 105.31 11.6396C105.31 13.6566 106.931 15.2773 108.948 15.2773C110.965 15.2773 112.586 13.6566 112.586 11.6396C112.586 9.62269 110.965 8.00193 108.948 8.00193Z" fill="#FFE4CE"/>
<path d="M89.6853 8.00389C87.6684 8.00389 86.0476 9.62464 86.0476 11.6416C86.0476 13.6585 87.6684 15.2793 89.6853 15.2793C91.7023 15.2793 93.323 13.6585 93.323 11.6416C93.323 9.62464 91.7023 8.00389 89.6853 8.00389Z" fill="#FFE4CE"/>
<path d="M70.4513 8.00389C68.4343 8.00389 66.8136 9.62464 66.8136 11.6416C66.8136 13.6585 68.4343 15.2793 70.4513 15.2793C72.4682 15.2793 74.089 13.6585 74.089 11.6416C74.089 9.62464 72.4682 8.00389 70.4513 8.00389Z" fill="#FFE4CE"/>
<path d="M51.2074 7.99998C49.1905 7.99998 47.5697 9.62073 47.5697 11.6377C47.5697 13.6546 49.1905 15.2754 51.2074 15.2754C53.2244 15.2754 54.8451 13.6546 54.8451 11.6377C54.8451 9.62073 53.2244 7.99998 51.2074 7.99998Z" fill="#FFE4CE"/>
<path d="M31.9356 8.00193C29.9187 8.00193 28.2979 9.62269 28.2979 11.6396C28.2979 13.6566 29.9187 15.2773 31.9356 15.2773C33.9526 15.2773 35.5733 13.6566 35.5733 11.6396C35.5733 9.62269 33.9526 8.00193 31.9356 8.00193Z" fill="#FFE4CE"/>
<path d="M12.7101 7.99998C10.6931 7.99998 9.07238 9.62073 9.07238 11.6377C9.07238 13.6546 10.6931 15.2754 12.7101 15.2754C14.727 15.2754 16.3478 13.6546 16.3478 11.6377C16.3478 9.62073 14.727 7.99998 12.7101 7.99998Z" fill="#FFE4CE"/>
</g>
<defs>
<linearGradient id="paint0_linear_8733_7378" x1="683" y1="0" x2="683" y2="641" gradientUnits="userSpaceOnUse">
<stop stop-color="#F9F8FF"/>
<stop offset="1" stop-color="#FFF1E8"/>
</linearGradient>
</defs>
</svg>
