<?xml version="1.0" encoding="utf-8"?>
<!-- Generator: Adobe Illustrator 25.4.7, SVG Export Plug-In . SVG Version: 6.00 Build 0)  -->
<svg version="1.1" id="Layer_5" xmlns="http://www.w3.org/2000/svg" xmlns:xlink="http://www.w3.org/1999/xlink" x="0px" y="0px"
	 viewBox="0 0 1140 645" style="enable-background:new 0 0 1140 645;" xml:space="preserve">
<style type="text/css">
	.st0{fill:#28C1E0;}
	.st1{fill:#CE7419;}
	.st2{fill:#2DD68A;}
	.st3{fill:#FECA27;}
	.st4{fill:#ED6F5F;}
	.st5{fill:#363636;}
	.st6{font-family:'ArialMT';}
	.st7{font-size:12px;}
</style>
<g>
	<g>
		<g>
			<g>
				<g>
					<path class="st0" d="M484.4,318.4c-50,17.4-93.2,49.3-124.6,90.7L174.5,274.2c59.6-80.1,142.8-141.5,239.3-174L484.4,318.4z"/>
				</g>
				<g>
					<path class="st1" d="M648.9,315.3c-24.5-7.4-50.4-11.5-77.3-11.5c-26.7,0-52.5,4-76.9,11.3L424,96.9
						c46.6-14.6,96.2-22.4,147.6-22.4c51.7,0,101.5,7.9,148.4,22.7L648.9,315.3z"/>
				</g>
				<g>
					<path class="st2" d="M168.1,282.9l185.4,134.9c-29.8,42.9-47.3,95-47.3,151.3H77C77,462.5,110.7,363.7,168.1,282.9z"/>
				</g>
				<g>
					<path class="st3" d="M783.5,409.5c-31.3-41.5-74.4-73.5-124.4-90.9l71.1-218.1c96.4,32.6,179.5,94.2,239,174.4L783.5,409.5z"/>
				</g>
				<g>
					<path class="st4" d="M975.4,283.6c57.1,80.7,90.7,179.2,90.7,285.5H836.9c0-56.1-17.4-108-47.1-150.9L975.4,283.6z"/>
				</g>
			</g>
		</g>
	</g>
	<g>
		<g>
			<path class="st5" d="M575.2,237.6c-1.6-8-13.1-8.2-14.8-0.1c-15.2,69.9-48.1,295.4-48.3,321.3c-0.3,33.8,23.1,61.4,52.3,61.6
				c29.2,0.3,53.1-26.9,53.4-60.7C617.9,533.9,589.1,307.8,575.2,237.6z M564.6,593c-15.2-0.1-27.4-12.5-27.2-27.7
				c0.1-15.2,12.5-27.4,27.7-27.2c15.2,0.1,27.4,12.5,27.2,27.7C592.2,581,579.7,593.1,564.6,593z"/>
		</g>
		<g>
			<ellipse class="st5" cx="564.7" cy="567.1" rx="18.7" ry="18.7"/>
		</g>
	</g>
	<text transform="matrix(1 0 0 1 13 32)" class="st6 st7"> </text>
	<g>
		<g>
			<path d="M39.2,553.5c0-2.2,0.1-3.2,0.1-5.4c7.8,3.2,11.7,4.7,19.5,7.6c0,2.5,0,3.7,0,6.1c-7.9,2.9-11.8,4.3-19.6,7.4
				c0-2.2,0-3.3-0.1-5.4c5.9-2.1,8.9-3.1,14.8-5.1C48,556.7,45.1,555.7,39.2,553.5z"/>
			<path d="M43.7,532.7c-0.2,3-0.2,4.6-0.4,7.6c1.6,0.1,2.4,0.1,4,0.2c0.1-2.7,0.2-4,0.3-6.7c1.5,0.1,2.2,0.1,3.7,0.2
				c-0.1,2.7-0.2,4-0.3,6.6c1.7,0.1,2.6,0.1,4.3,0.2c0.1-3,0.2-4.5,0.4-7.5c1.5,0.1,2.3,0.1,3.8,0.2c-0.3,4.9-0.4,7.4-0.5,12.3
				c-7.9-0.3-11.8-0.4-19.6-0.6c0.2-5.1,0.3-7.7,0.6-12.8C41.4,532.6,42.2,532.6,43.7,532.7z"/>
			<path d="M40.8,520c0.4-5.1,3.4-7.4,6.8-7c2.5,0.2,4.6,1.9,5.2,5c3.3-1.6,4.9-2.4,8.2-3.9c-0.2,2.2-0.3,3.3-0.5,5.5
				c-3.1,1.4-4.6,2.1-7.7,3.6c0,0.5-0.1,0.7-0.1,1.2c3,0.2,4.4,0.3,7.4,0.6c-0.1,1.9-0.2,2.9-0.3,4.9c-7.8-0.5-11.8-0.8-19.6-1.3
				C40.4,525.1,40.5,523.4,40.8,520z M44.7,520.6c-0.1,1.2-0.1,1.9-0.2,3.1c1.9,0.1,2.9,0.2,4.9,0.4c0.1-1.2,0.1-1.8,0.2-3.1
				c0.2-1.9-0.7-2.8-2.2-2.9C45.9,517.9,44.9,518.7,44.7,520.6z"/>
			<path d="M41.7,510.1c0.2-2.3,0.4-3.4,0.6-5.7c3.5-1.2,5.2-1.8,8.6-3c-3.1-2-4.6-2.9-7.7-4.9c0.3-2.3,0.4-3.4,0.8-5.6
				c4.8,3.6,7.2,5.3,12.1,8.8c2.6,0.3,3.9,0.5,6.4,0.8c-0.2,1.9-0.4,2.9-0.6,4.8c-2.6-0.3-3.9-0.4-6.5-0.7
				C50,506.6,47.2,507.7,41.7,510.1z"/>
			<path d="M46.8,471.6c0.9-4.9,4.2-8,8.6-8.3c-0.4,2.2-0.6,3.2-1,5.4c-1.8,0.5-2.9,1.9-3.3,3.8c-0.5,3,1.3,5.5,4.7,6
				c3.4,0.6,5.9-1.1,6.4-4.1c0.3-1.8-0.2-3.5-1.7-4.6c0.4-2.1,0.6-3.2,1-5.3c4,2,5.8,6,5,10.6c-1,5.8-5.7,9.3-11.5,8.3
				C49.2,482.5,45.7,477.6,46.8,471.6z"/>
			<path d="M71.1,453c-1.2,5.5-6.2,9.2-12,8s-8.9-6.7-7.6-12.4c1.3-5.8,6.5-9.3,12.2-7.9C69.4,442.1,72.3,447.5,71.1,453z M66.8,452
				c0.7-3.1-1-5.7-4.4-6.5c-3.4-0.8-6.1,0.8-6.8,4c-0.7,3.3,1,5.8,4.4,6.5C63.4,456.8,66.1,455.2,66.8,452z"/>
			<path d="M59.9,417c7.5,2.2,11.3,3.3,18.9,5.5c-0.5,1.9-0.8,2.8-1.3,4.7c-5.5,1.8-8.3,2.7-13.9,4.7c4.7,1.2,7,1.9,11.7,3.1
				c-0.5,1.9-0.7,2.8-1.2,4.7c-7.6-1.9-11.4-2.9-19-4.9c0.5-2,0.8-2.9,1.3-4.9c5.6-2,8.4-3,14-4.8c-4.7-1.3-7-2-11.7-3.3
				C59,419.9,59.3,419,59.9,417z"/>
			<path d="M82.3,411.7c-1.3,4.1-4.3,6.7-8.1,5.7c0.6-2,0.9-3,1.5-5c1.5,0.3,2.5-0.4,2.9-1.7c0.4-1.4,0.1-2.4-1-2.8
				c-3.5-1.1-4.6,9.1-11.3,7c-3.5-1.1-4.6-4.8-3.3-8.9c1.4-4.3,4.4-6.5,8-5.5c-0.7,2-1,3.1-1.7,5.1c-1.2-0.3-2.2,0.4-2.7,1.6
				c-0.4,1.1-0.1,2.2,1.1,2.5c3.3,1,4.9-9,11.1-6.9C81.9,403.9,83.7,407.3,82.3,411.7z"/>
			<path d="M74.8,384.2c-1.1,2.8-1.6,4.3-2.6,7.1c1.5,0.5,2.2,0.8,3.7,1.3c0.9-2.5,1.3-3.8,2.3-6.3c1.4,0.5,2.1,0.8,3.5,1.3
				c-0.9,2.5-1.4,3.7-2.2,6.2c1.6,0.6,2.4,0.9,4.1,1.4c1-2.8,1.5-4.2,2.5-7c1.4,0.5,2.2,0.8,3.6,1.3c-1.7,4.6-2.5,6.9-4.1,11.5
				c-7.4-2.6-11.2-3.8-18.6-6.4c1.6-4.8,2.5-7.2,4.3-11.9C72.7,383.4,73.4,383.7,74.8,384.2z"/>
			<path d="M75.7,371.3c1.9-4.7,5.4-6,8.6-4.7c2.3,0.9,3.9,3.1,3.5,6.3c3.6-0.6,5.4-0.8,9-1.3c-0.8,2-1.3,3-2.1,5.1
				c-3.4,0.4-5.1,0.6-8.4,1.1c-0.2,0.4-0.3,0.7-0.4,1.1c2.8,1.1,4.1,1.6,6.9,2.7c-0.7,1.8-1.1,2.7-1.7,4.5c-7.3-2.8-11-4.2-18.4-7
				C73.9,376,74.5,374.4,75.7,371.3z M79.3,373c-0.5,1.2-0.7,1.7-1.1,2.9c1.8,0.7,2.7,1.1,4.5,1.8c0.4-1.1,0.7-1.7,1.1-2.9
				c0.7-1.7,0.2-2.9-1.3-3.5C81.2,370.8,80,371.3,79.3,373z"/>
			<path d="M85.8,347.7c0.9-1.9,1.3-2.9,2.3-4.9c5.9,6,8.8,9,14.8,14.8c-1,2.2-1.5,3.3-2.5,5.6c-8.3-0.6-12.5-0.8-20.9-1.2
				c0.8-2,1.3-3,2.1-4.9c6.3,0.5,9.4,0.8,15.6,1.4C92.6,354.2,90.4,352.1,85.8,347.7z"/>
			<path d="M109.5,336.1c-1.4,2.7-2,4-3.4,6.7c1,1,1.6,1.6,2.6,2.6c-0.9,1.8-1.3,2.7-2.2,4.6c-5.9-6-8.8-9-14.5-15.2
				c1-2.1,1.6-3.1,2.6-5.2c8.4,0.9,12.5,1.4,20.8,2.5c-1,1.8-1.4,2.7-2.4,4.6C111.6,336.4,110.9,336.3,109.5,336.1z M98,334.5
				c2.1,2.2,3.2,3.3,5.3,5.4c0.9-1.8,1.3-2.7,2.2-4.5C102.6,335.1,101,334.9,98,334.5z"/>
			<path d="M99,321.2c3-5.7,4.6-8.5,7.8-14.1c1.3,0.8,2,1.1,3.3,1.9c-1.1,1.9-1.6,2.9-2.7,4.8c5.5,3.1,8.3,4.6,13.8,7.7
				c-1,1.7-1.4,2.6-2.4,4.3c-5.6-3-8.3-4.5-13.9-7.6c-1,1.9-1.6,2.9-2.6,4.8C101,322.2,100.3,321.9,99,321.2z"/>
			<path d="M108.4,304.2c1-1.8,1.5-2.6,2.6-4.4c6.8,4,10.1,6,16.9,10c-1,1.7-1.5,2.5-2.5,4.2C118.6,310.1,115.2,308.2,108.4,304.2z"
				/>
			<path d="M120.7,284c1.2-1.8,1.8-2.7,2.9-4.5c4.9,6.8,7.4,10.2,12.5,16.8c-1.3,2.1-2,3.1-3.3,5.2c-8.2-1.7-12.3-2.5-20.6-4.1
				c1.1-1.9,1.7-2.8,2.8-4.6c6.1,1.4,9.2,2.1,15.3,3.5C126.6,291.4,124.6,289,120.7,284z"/>
			<path d="M135.7,268.7c-1.8,2.5-2.6,3.8-4.4,6.3c1.3,0.9,2,1.3,3.3,2.2c1.5-2.2,2.3-3.3,3.8-5.5c1.2,0.8,1.8,1.3,3,2.1
				c-1.5,2.2-2.3,3.3-3.8,5.5c1.4,1,2.1,1.5,3.6,2.4c1.7-2.5,2.5-3.7,4.3-6.2c1.3,0.9,1.9,1.3,3.1,2.2c-2.8,4-4.2,6.1-7,10.2
				c-6.5-4.4-9.8-6.5-16.4-10.9c2.8-4.3,4.3-6.4,7.3-10.6C133.8,267.4,134.4,267.8,135.7,268.7z"/>
		</g>
	</g>
	<g>
		<g>
			<path d="M172.2,212.9c3-4,7.4-5.4,11.4-3.7c-1.4,1.7-2,2.6-3.4,4.4c-1.8-0.3-3.5,0.4-4.6,2c-1.9,2.5-1.3,5.5,1.5,7.5
				s5.8,1.6,7.6-0.8c1.1-1.5,1.4-3.2,0.6-4.9c1.3-1.7,2-2.6,3.3-4.3c2.6,3.5,2.4,7.9-0.4,11.7c-3.5,4.7-9.2,5.8-14,2.5
				C169.4,223.8,168.5,217.9,172.2,212.9z"/>
			<path d="M202.2,207.1c-3.6,4.3-9.7,5.3-14.3,1.7c-4.6-3.7-4.8-10-0.9-14.6c3.9-4.6,10.1-5.3,14.5-1.4
				C205.8,196.7,205.9,202.8,202.2,207.1z M198.9,204.3c2.1-2.5,1.8-5.5-0.8-7.8c-2.6-2.3-5.7-2.1-7.8,0.4c-2.2,2.6-1.8,5.6,0.9,7.8
				C193.8,207,196.8,206.8,198.9,204.3z"/>
			<path d="M209.6,170.1c5.5,5.5,8.2,8.3,13.7,13.9c-1.4,1.4-2.1,2-3.4,3.4c-5.7-1.1-8.6-1.6-14.4-2.4c3.5,3.3,5.3,4.9,8.8,8.2
				c-1.3,1.4-2,2.1-3.3,3.5c-5.8-5.3-8.6-7.9-14.4-13.2c1.4-1.5,2.1-2.3,3.5-3.7c5.9,0.8,8.8,1.3,14.5,2.3c-3.5-3.4-5.2-5.1-8.6-8.5
				C207.4,172.3,208.2,171.5,209.6,170.1z"/>
			<path d="M231.7,176.3c-3.1,2.9-7,3.7-9.8,1c1.5-1.5,2.3-2.2,3.8-3.6c1.1,1,2.3,0.9,3.3-0.1c1-1,1.2-2.1,0.5-2.9
				c-2.4-2.7-8.5,5.7-13.3,0.7c-2.6-2.7-1.7-6.4,1.5-9.4c3.3-3.1,7-3.6,9.7-0.9c-1.6,1.4-2.4,2.2-4,3.6c-0.9-0.9-2.1-0.8-3.1,0.1
				c-0.9,0.8-1.2,1.9-0.3,2.7c2.3,2.5,8.7-5.5,13.1-0.6C235.2,169.4,235.1,173.1,231.7,176.3z"/>
			<path d="M239,148.8c-2.4,1.9-3.5,2.9-5.9,4.9c1,1.2,1.5,1.8,2.6,3c2-1.7,3.1-2.6,5.1-4.3c0.9,1.1,1.4,1.7,2.3,2.8
				c-2,1.7-3.1,2.5-5.1,4.2c1.1,1.3,1.7,2,2.8,3.3c2.2-1.9,3.4-2.9,5.7-4.7c1,1.2,1.4,1.8,2.4,3c-3.8,3.1-5.6,4.6-9.3,7.8
				c-5.1-5.9-7.7-8.8-12.8-14.7c3.9-3.4,5.8-5,9.8-8.2C237.5,147.1,238,147.6,239,148.8z"/>
			<path d="M246.4,138.1c4.1-3.1,7.8-2.4,9.8,0.4c1.4,2,1.7,4.7-0.3,7.2c3.3,1.4,5,2.1,8.3,3.5c-1.8,1.3-2.6,1.9-4.4,3.2
				c-3.1-1.4-4.6-2-7.8-3.3c-0.4,0.3-0.6,0.4-0.9,0.7c1.8,2.3,2.7,3.5,4.5,5.8c-1.5,1.2-2.3,1.8-3.8,3c-4.9-6.1-7.3-9.2-12.2-15.3
				C242.4,141.2,243.7,140.2,246.4,138.1z M248.6,141.4c-1,0.8-1.5,1.1-2.5,1.9c1.2,1.5,1.8,2.3,3,3.8c1-0.8,1.5-1.1,2.4-1.9
				c1.5-1.1,1.6-2.4,0.7-3.6C251.3,140.5,250.1,140.3,248.6,141.4z"/>
			<path d="M267.4,123.2c1.8-1.2,2.7-1.8,4.5-2.9c1.7,8.2,2.6,12.2,4.6,20.3c-2,1.3-3,2-5,3.4c-6.7-4.8-10.2-7.2-17.1-11.8
				c1.8-1.3,2.6-1.9,4.4-3.1c5.1,3.6,7.6,5.5,12.5,9.3C269.7,132.3,269,129.2,267.4,123.2z"/>
			<path d="M293.6,125.9c-2.6,1.5-3.9,2.3-6.4,3.8c0.3,1.4,0.5,2.1,0.8,3.6c-1.7,1.1-2.6,1.6-4.3,2.7c-1.8-8.1-2.6-12.2-4-20.5
				c2-1.2,3-1.8,5.1-3c6.5,5.2,9.8,7.9,16.1,13.3c-1.8,1-2.7,1.5-4.4,2.5C295.2,127.3,294.7,126.9,293.6,125.9z M284.8,118.5
				c0.6,3,0.9,4.5,1.5,7.4c1.7-1,2.6-1.5,4.3-2.5C288.3,121.4,287.2,120.4,284.8,118.5z"/>
			<path d="M292.9,107.8c5.7-3.1,8.5-4.6,14.3-7.5c0.7,1.4,1,2,1.7,3.4c-2,1-2.9,1.5-4.9,2.5c2.9,5.6,4.3,8.4,7.2,14
				c-1.7,0.9-2.6,1.3-4.3,2.2c-3-5.5-4.4-8.3-7.4-13.9c-1.9,1-2.9,1.6-4.8,2.6C294,109.8,293.7,109.1,292.9,107.8z"/>
			<path d="M310.3,98.8c1.8-0.9,2.8-1.3,4.6-2.2c3.3,7.1,5,10.6,8.3,17.7c-1.8,0.8-2.6,1.2-4.4,2.1
				C315.4,109.4,313.7,105.9,310.3,98.8z"/>
			<path d="M332,89.1c2-0.8,3-1.2,5-2c0.1,8.4,0.2,12.5,0.6,20.8c-2.2,0.9-3.4,1.4-5.6,2.4c-5.7-6-8.6-9-14.6-14.9
				c2-0.9,3-1.4,5-2.2c4.3,4.6,6.4,6.9,10.5,11.5C332.5,98.5,332.3,95.4,332,89.1z"/>
			<path d="M353.1,85.2c-2.9,1-4.4,1.5-7.3,2.6c0.5,1.5,0.8,2.2,1.4,3.7c2.5-0.9,3.8-1.4,6.3-2.3c0.5,1.4,0.7,2.1,1.2,3.5
				c-2.5,0.9-3.8,1.3-6.3,2.2c0.6,1.6,0.9,2.4,1.5,4c2.8-1,4.2-1.5,7-2.5c0.5,1.4,0.7,2.2,1.2,3.6c-4.6,1.6-6.9,2.4-11.5,4.2
				c-2.8-7.3-4.2-10.9-7-18.2c4.8-1.8,7.2-2.7,12.1-4.4C352.4,83.1,352.6,83.8,353.1,85.2z"/>
		</g>
	</g>
	<g>
		<g>
			<path d="M487.8,45.7c2.4-0.8,3.6-1.2,6-1.9c3.9,4.5,5.8,6.8,9.5,11.4c0.7-5.9,1.2-8.8,2.2-14.7c2.4-0.6,3.6-0.9,6-1.5
				c1.8,7.7,2.6,11.5,4.4,19.2c-1.9,0.4-2.9,0.7-4.8,1.1c-1.1-4.6-1.7-6.9-2.9-11.4c-0.7,5-1,7.5-1.5,12.6c-1.5,0.4-2.3,0.6-3.8,1.1
				c-3.1-4-4.6-6-7.8-10c1.4,4.5,2.1,6.8,3.5,11.3c-1.9,0.6-2.8,0.9-4.7,1.5C491.5,56.9,490.3,53.2,487.8,45.7z"/>
			<path d="M529.4,55.7c-5.6,1-11-2.1-12.2-7.9C516,42,520,36.9,526,35.9c6.1-1,11.5,2.5,12.2,8.3C539,50.1,535,54.8,529.4,55.7z
				 M528.7,51.4c3.2-0.5,5-3.1,4.5-6.5c-0.5-3.5-3-5.3-6.4-4.8c-3.4,0.6-5.1,3.2-4.5,6.6C522.9,50.2,525.4,52,528.7,51.4z"/>
			<path d="M560.4,42.5c0.2,5.8-3.7,9.9-10.1,10.4c-3,0.2-4.5,0.4-7.4,0.7c-0.9-7.8-1.3-11.7-2.2-19.5c3.2-0.4,4.8-0.5,8.1-0.8
				C555.6,32.8,560.2,36.6,560.4,42.5z M549.7,48.8c3.7-0.3,5.8-2.5,5.6-6.1c-0.2-3.6-2.6-5.6-6.5-5.3c-1,0.1-1.5,0.1-2.4,0.2
				c0.4,4.6,0.6,6.8,1,11.4C548.3,48.9,548.8,48.9,549.7,48.8z"/>
			<path d="M576.9,36.4c-3.1-0.1-4.7-0.1-7.8-0.1c0,1.6,0,2.4,0,4c2.7,0,4.1,0,6.8,0.1c0,1.5-0.1,2.2-0.1,3.7
				c-2.7-0.1-4-0.1-6.7-0.1c0,1.7,0,2.6,0,4.3c3,0,4.5,0,7.5,0.1c0,1.5-0.1,2.3-0.1,3.8c-4.9-0.1-7.3-0.1-12.2,0
				c-0.2-7.9-0.3-11.8-0.4-19.7c5.3-0.1,7.9-0.1,13.2,0C577,34.1,576.9,34.9,576.9,36.4z"/>
			<path d="M590,33.3c5.3,0.4,7.6,3.5,7.2,6.9c-0.3,2.4-1.9,4.6-5.2,5.2c1.6,3.3,2.4,4.9,3.9,8.2c-2.2-0.2-3.3-0.3-5.5-0.5
				c-1.4-3.1-2.1-4.6-3.6-7.7c-0.5,0-0.7,0-1.2-0.1c-0.2,3-0.3,4.4-0.5,7.4c-1.9-0.1-2.9-0.2-4.9-0.3c0.3-7.9,0.5-11.8,0.9-19.6
				C584.7,32.9,586.5,33,590,33.3z M589.4,37.2c-1.3-0.1-1.9-0.1-3.2-0.2c-0.1,1.9-0.2,2.9-0.3,4.9c1.3,0.1,1.9,0.1,3.1,0.2
				c1.9,0.1,2.9-0.7,3-2.2C592.1,38.4,591.3,37.4,589.4,37.2z"/>
			<path d="M612.4,52.4c-3-0.5-4.5-0.8-7.5-1.2c-0.7,1.3-1,2-1.7,3.3c-2-0.3-3-0.4-5.1-0.7c3.8-7.5,5.8-11.2,10.1-18.5
				c2.4,0.4,3.6,0.6,6,1c1.7,8.3,2.5,12.4,3.7,20.7c-2-0.4-3-0.6-5.1-1C612.7,54.6,612.6,53.9,612.4,52.4z M610.4,41
				c-1.5,2.7-2.2,4-3.6,6.7c2,0.3,3,0.5,5,0.8C611.2,45.6,611,44.1,610.4,41z"/>
			<path d="M623.9,38.2c6.6,1.4,9.8,2.2,16.3,4c-0.4,1.5-0.6,2.2-1,3.7c-2.2-0.6-3.3-0.9-5.5-1.5c-1.6,6.1-2.4,9.2-4,15.3
				c-1.9-0.5-2.8-0.7-4.7-1.2c1.5-6.2,2.2-9.2,3.6-15.4c-2.2-0.5-3.3-0.8-5.5-1.2C623.4,40.5,623.6,39.7,623.9,38.2z"/>
			<path d="M655,50.9c-3-1.1-4.5-1.6-7.5-2.5c-0.5,1.5-0.7,2.3-1.2,3.8c2.6,0.8,3.9,1.3,6.6,2.2c-0.5,1.4-0.7,2.1-1.2,3.5
				c-2.6-0.9-3.9-1.3-6.5-2.2c-0.5,1.6-0.8,2.5-1.3,4.1c2.9,0.9,4.3,1.4,7.2,2.4c-0.5,1.4-0.8,2.2-1.3,3.6c-4.7-1.6-7-2.4-11.8-3.8
				c2.2-7.5,3.3-11.3,5.6-18.8c5.1,1.5,7.7,2.3,12.7,4.1C655.7,48.8,655.5,49.5,655,50.9z"/>
		</g>
	</g>
	<g>
		<g>
			<path d="M817,113.9c-2.8-1.1-4.2-1.7-7.1-2.7c-0.9,1.1-1.4,1.7-2.3,2.8c-1.9-0.7-2.9-1.1-4.8-1.7c5.3-6.5,8.1-9.6,13.8-15.9
				c2.3,0.9,3.4,1.3,5.6,2.2c0,8.5-0.1,12.7-0.6,21c-1.9-0.8-2.9-1.2-4.8-2C816.9,116.1,817,115.3,817,113.9z M817.4,102.3
				c-2,2.3-3,3.5-5,5.8c1.9,0.7,2.8,1.1,4.7,1.8C817.3,106.9,817.4,105.4,817.4,102.3z"/>
			<path d="M847.3,116.8c-2-1-3-1.5-5-2.5c-0.1-1.5-1.1-2.8-2.8-3.6c-3-1.4-5.9-0.3-7.3,2.8c-1.5,3.3-0.4,6.1,2.8,7.7
				c2.2,1.1,4.3,0.7,6-0.9c-2.3-1.1-3.4-1.7-5.7-2.8c0.6-1.3,0.9-1.9,1.5-3.2c4,1.9,5.9,2.9,9.9,4.9c-0.8,1.6-1.2,2.4-2.1,3.9
				c-2.5,2.5-7,4-11.7,1.7c-5.4-2.6-7.6-8-5.3-13.4c2.4-5.4,8.1-7.4,13.9-4.7C846,108.9,848.2,112.8,847.3,116.8z"/>
			<path d="M867.7,128.4c-1.9-1.2-2.9-1.8-4.8-2.9c0-1.5-0.9-2.9-2.5-3.8c-2.9-1.6-5.8-0.8-7.5,2.2c-1.8,3.2-0.9,6.1,2.1,7.8
				c2.1,1.2,4.2,1,6-0.5c-2.2-1.3-3.3-1.9-5.5-3.2c0.7-1.2,1.1-1.8,1.8-3.1c3.8,2.2,5.7,3.3,9.4,5.6c-0.9,1.5-1.4,2.3-2.4,3.8
				c-2.7,2.3-7.3,3.4-11.8,0.8c-5.2-3-7-8.6-4.2-13.8c2.8-5.2,8.7-6.8,14.2-3.6C867,120.4,868.9,124.4,867.7,128.4z"/>
			<path d="M881.6,130.1c4.3,2.9,4.8,6.7,2.8,9.5c-1.4,2-3.9,3.1-7,2c-0.2,3.6-0.4,5.4-0.7,9c-1.8-1.3-2.7-1.9-4.5-3.2
				c0.3-3.4,0.5-5.1,0.7-8.5c-0.4-0.3-0.6-0.4-1-0.7c-1.6,2.5-2.5,3.7-4.1,6.2c-1.6-1.1-2.4-1.6-4.1-2.6c4.2-6.6,6.4-9.9,10.6-16.6
				C877.3,127.1,878.7,128.1,881.6,130.1z M879.1,133.2c-1-0.7-1.6-1.1-2.6-1.8c-1.1,1.6-1.6,2.4-2.7,4.1c1,0.7,1.6,1,2.6,1.7
				c1.6,1.1,2.8,0.8,3.7-0.5C880.9,135.6,880.7,134.3,879.1,133.2z"/>
			<path d="M899.2,147.8c-2.4-1.9-3.6-2.9-6.1-4.8c-1,1.3-1.4,1.9-2.4,3.2c2.2,1.6,3.2,2.5,5.3,4.2c-0.9,1.2-1.4,1.7-2.3,2.9
				c-2.1-1.7-3.1-2.5-5.3-4.1c-1,1.4-1.6,2.1-2.6,3.4c2.4,1.8,3.5,2.7,5.9,4.6c-1,1.2-1.4,1.8-2.4,3c-3.8-3.1-5.7-4.5-9.7-7.4
				c4.7-6.3,7-9.5,11.7-15.8c4.2,3.1,6.3,4.7,10.3,7.9C900.6,146,900.1,146.6,899.2,147.8z"/>
			<path d="M897.6,167.4c-3.2-2.8-4.5-6.5-2.1-9.7c1.6,1.3,2.4,2,4,3.4c-0.9,1.2-0.6,2.4,0.4,3.3c1.1,0.9,2.2,1,3,0.2
				c2.4-2.7-6.6-7.9-2.2-13.2c2.4-2.9,6.2-2.4,9.6,0.5c3.5,3,4.4,6.7,2,9.6c-1.6-1.5-2.4-2.2-4.1-3.7c0.8-1,0.5-2.2-0.5-3.1
				c-0.9-0.8-2-1-2.8,0c-2.2,2.6,6.5,8.2,2,13.1C904.9,170.2,901.1,170.4,897.6,167.4z"/>
			<path d="M910.9,179.7c-3.1-3-4.1-6.8-1.5-9.8c1.5,1.4,2.3,2.2,3.8,3.6c-0.9,1.2-0.8,2.4,0.2,3.4c1,1,2.2,1.2,3,0.4
				c2.6-2.6-6.1-8.3-1.4-13.3c2.5-2.7,6.4-2,9.6,1.1c3.3,3.3,4,7,1.4,9.8c-1.5-1.6-2.3-2.4-3.9-3.9c0.8-1,0.7-2.2-0.3-3.2
				c-0.9-0.9-1.9-1.1-2.8-0.2c-2.4,2.5,6,8.6,1.2,13.2C918,183,914.3,183,910.9,179.7z"/>
			<path d="M933.1,174c1.4,1.5,2.1,2.3,3.5,3.8c-5.8,5.3-8.7,7.9-14.5,13.2c-1.3-1.4-2-2.2-3.3-3.6
				C924.5,182.1,927.3,179.4,933.1,174z"/>
			<path d="M949,192.3c1.4,1.7,2.1,2.6,3.4,4.3c-8.1,2.4-12.1,3.7-20,6.5c-1.5-1.9-2.3-2.8-3.9-4.7c4.1-7.3,6.1-10.9,10-18.4
				c1.5,1.7,2.2,2.5,3.7,4.2c-3.1,5.5-4.7,8.2-8,13.5C940.1,195.4,943,194.3,949,192.3z"/>
			<path d="M958.8,211.8c-1.8-2.6-2.7-3.9-4.6-6.4c-1.3,0.9-1.9,1.4-3.2,2.4c1.6,2.2,2.4,3.3,4,5.6c-1.2,0.8-1.8,1.3-3,2.1
				c-1.5-2.2-2.3-3.3-3.9-5.5c-1.4,1-2.1,1.5-3.5,2.6c1.8,2.4,2.7,3.7,4.4,6.1c-1.3,0.9-1.9,1.3-3.2,2.2c-2.8-4.1-4.3-6.1-7.2-10
				c6.3-4.8,9.4-7.1,15.7-11.9c3.2,4.2,4.7,6.3,7.7,10.6C960.7,210.5,960.1,210.9,958.8,211.8z"/>
		</g>
	</g>
	<g>
		<g>
			<path d="M1029.1,291.9c1.2,1.8,1.8,2.7,2.9,4.6c-8.2,1.7-12.3,2.6-20.5,4.6c-1.4-2-2-3.1-3.4-5.1c4.9-6.8,7.3-10.2,12-17.2
				c1.3,1.8,1.9,2.7,3.1,4.5c-3.7,5.1-5.6,7.6-9.4,12.6C1019.9,294.2,1023,293.4,1029.1,291.9z"/>
			<path d="M1037,311.8c-1.6-2.6-2.3-4-4-6.6c-1.4,0.8-2,1.2-3.4,2.1c1.4,2.3,2.1,3.4,3.5,5.8c-1.3,0.8-1.9,1.1-3.2,1.9
				c-1.4-2.3-2-3.4-3.4-5.7c-1.5,0.9-2.2,1.4-3.7,2.3c1.6,2.5,2.3,3.8,3.8,6.4c-1.3,0.8-2,1.2-3.3,1.9c-2.5-4.2-3.8-6.3-6.4-10.5
				c6.7-4.2,10-6.3,16.6-10.5c2.7,4.4,4.1,6.6,6.7,11C1039,310.7,1038.3,311.1,1037,311.8z"/>
			<path d="M1046.5,320.9c2.5,4.5,1.2,8.1-1.8,9.7c-2.2,1.2-4.9,1-7.2-1.3c-1.8,3.1-2.8,4.7-4.7,7.8c-1-1.9-1.5-2.9-2.6-4.8
				c1.8-2.9,2.7-4.3,4.5-7.3c-0.2-0.4-0.3-0.6-0.6-1c-2.6,1.5-3.9,2.2-6.5,3.6c-1-1.7-1.4-2.5-2.4-4.2c6.8-3.9,10.2-5.9,17-9.8
				C1044,316.4,1044.9,317.9,1046.5,320.9z M1042.9,322.5c-0.6-1.1-0.9-1.6-1.5-2.7c-1.7,1-2.5,1.4-4.2,2.4c0.6,1.1,0.9,1.6,1.5,2.7
				c0.9,1.6,2.1,2,3.5,1.2C1043.4,325.4,1043.8,324.2,1042.9,322.5z"/>
			<path d="M1051.2,329.7c1.1,2,1.6,3.1,2.6,5.1c-2.2,2.9-3.3,4.4-5.6,7.3c3.7,0,5.5-0.1,9.1,0c1,2.1,1.5,3.1,2.5,5.2
				c-6-0.4-9-0.5-14.9-0.8c-2.3,1.1-3.5,1.7-5.8,2.8c-0.9-1.7-1.3-2.6-2.2-4.4c2.3-1.2,3.5-1.7,5.8-2.9
				C1046.2,337.1,1047.9,334.7,1051.2,329.7z"/>
			<path d="M1054,374.2c-1.1-2.8-1.7-4.2-2.9-6.9c-1.5,0.1-2.2,0.2-3.7,0.3c-0.8-1.9-1.2-2.8-2-4.7c8.4-0.6,12.6-0.8,21-1.1
				c0.9,2.2,1.4,3.3,2.3,5.4c-6.1,5.8-9.2,8.6-15.5,14.1c-0.7-1.9-1.1-2.9-1.9-4.8C1052.4,375.7,1052.9,375.2,1054,374.2z
				 M1062.7,366.6c-3,0.2-4.6,0.3-7.6,0.5c0.8,1.8,1.2,2.8,1.9,4.6C1059.3,369.6,1060.4,368.6,1062.7,366.6z"/>
			<path d="M1073.2,397.4c-0.7-2.1-1.1-3.1-1.8-5.2c1-1.1,1.2-2.7,0.6-4.5c-1.1-3-3.9-4.3-7.1-3.1c-3.4,1.3-4.7,4-3.5,7.3
				c0.8,2.3,2.6,3.5,4.9,3.5c-0.8-2.4-1.2-3.6-2.1-5.9c1.3-0.5,2-0.7,3.3-1.2c1.5,4.1,2.2,6.1,3.5,10.2c-1.7,0.6-2.5,0.8-4.2,1.4
				c-3.5,0.1-7.8-2-9.5-6.9c-2-5.6,0.3-11,5.8-13.1c5.5-2.1,10.9,0.5,13,6.4C1077.8,390.9,1076.7,395.1,1073.2,397.4z"/>
			<path d="M1079.9,419.4c-0.6-2.1-0.9-3.2-1.5-5.3c1.1-1.1,1.3-2.6,0.8-4.5c-0.9-3.1-3.7-4.5-6.9-3.5c-3.5,1.1-4.9,3.7-3.9,7.1
				c0.7,2.3,2.4,3.6,4.7,3.7c-0.7-2.4-1-3.6-1.8-6c1.4-0.4,2-0.6,3.4-1c1.2,4.1,1.8,6.2,3,10.4c-1.7,0.5-2.6,0.7-4.3,1.2
				c-3.5-0.1-7.7-2.4-9.2-7.4c-1.7-5.7,0.9-11,6.5-12.8c5.6-1.8,10.9,1.1,12.7,7C1084.8,413.2,1083.5,417.3,1079.9,419.4z"/>
			<path d="M1089,429.8c1.2,5-1,8.1-4.3,8.8c-2.4,0.5-5-0.3-6.6-3.1c-2.6,2.5-3.9,3.8-6.5,6.3c-0.5-2.1-0.7-3.2-1.2-5.3
				c2.5-2.3,3.7-3.5,6.2-5.8c-0.1-0.5-0.2-0.7-0.3-1.1c-2.9,0.7-4.3,1.1-7.2,1.8c-0.5-1.9-0.7-2.8-1.2-4.7c7.6-2,11.4-3,19-5
				C1087.7,424.9,1088.2,426.5,1089,429.8z M1085,430.5c-0.3-1.2-0.4-1.8-0.8-3c-1.9,0.5-2.8,0.7-4.7,1.2c0.3,1.2,0.5,1.8,0.7,3
				c0.4,1.8,1.5,2.4,3,2.1C1084.8,433.4,1085.5,432.3,1085,430.5z"/>
			<path d="M1090.3,454.3c-0.6-3-0.9-4.5-1.5-7.5c-1.6,0.3-2.3,0.5-3.9,0.8c0.5,2.6,0.8,3.9,1.3,6.6c-1.5,0.3-2.2,0.4-3.6,0.7
				c-0.5-2.6-0.7-3.9-1.3-6.5c-1.7,0.3-2.5,0.5-4.2,0.9c0.6,2.9,0.9,4.4,1.4,7.3c-1.5,0.3-2.3,0.4-3.8,0.7c-0.9-4.8-1.4-7.2-2.4-12
				c7.7-1.7,11.5-2.5,19.2-4.2c1.1,5,1.6,7.5,2.5,12.5C1092.6,453.9,1091.8,454.1,1090.3,454.3z"/>
			<path d="M1076.5,468.2c-0.7-4.2,0.8-7.9,4.7-8.7c0.4,2.1,0.5,3.1,0.9,5.2c-1.5,0.4-2,1.5-1.8,2.8c0.2,1.4,1.1,2.2,2.2,2
				c3.6-0.6,0-10.2,6.9-11.4c3.7-0.6,6.3,2.2,7,6.5c0.7,4.5-1,7.8-4.6,8.6c-0.3-2.2-0.5-3.2-0.8-5.4c1.2-0.3,1.8-1.3,1.6-2.7
				c-0.2-1.2-0.9-2-2.1-1.8c-3.4,0.6-0.3,10.3-6.8,11.3C1080.3,475,1077.2,472.8,1076.5,468.2z"/>
			<path d="M1078.9,486.2c-0.5-4.3,1.1-7.9,5.1-8.5c0.3,2.1,0.4,3.1,0.7,5.2c-1.5,0.3-2.1,1.4-1.9,2.8c0.2,1.4,1,2.3,2.1,2.1
				c3.6-0.4,0.5-10.2,7.4-11.1c3.7-0.5,6.2,2.4,6.7,6.8c0.5,4.5-1.3,7.8-5,8.4c-0.2-2.2-0.3-3.3-0.6-5.4c1.2-0.2,1.9-1.3,1.8-2.6
				c-0.1-1.2-0.8-2-2-1.9c-3.4,0.4-0.7,10.3-7.3,11C1082.4,493.2,1079.5,490.9,1078.9,486.2z"/>
			<path d="M1099.8,495.4c0.2,2,0.3,3.1,0.4,5.1c-7.8,0.6-11.8,0.9-19.6,1.5c-0.2-1.9-0.2-2.9-0.4-4.9
				C1088.1,496.4,1092,496.1,1099.8,495.4z"/>
			<path d="M1101.3,519.2c0.1,2.2,0.1,3.3,0.2,5.4c-7.9-2.8-11.9-4.1-19.9-6.7c-0.1-2.4-0.2-3.7-0.3-6.1c7.7-3.3,11.5-5,19.2-8.5
				c0.2,2.2,0.2,3.3,0.4,5.4c-5.8,2.4-8.7,3.6-14.5,5.9C1092.3,516.4,1095.3,517.3,1101.3,519.2z"/>
			<path d="M1097.7,540.3c0-3.1,0-4.6,0-7.7c-1.6,0-2.4,0-4,0c0,2.7,0,4.1,0,6.8c-1.5,0-2.2,0-3.7,0c0-2.7,0-4,0-6.7
				c-1.7,0-2.6,0-4.3,0c0,3,0,4.5,0,7.5c-1.5,0-2.3,0-3.8,0c0.1-4.9,0.1-7.4,0-12.3c7.9-0.1,11.8-0.2,19.7-0.3
				c0.1,5.2,0.1,7.7,0,12.9C1100,540.4,1099.3,540.4,1097.7,540.3z"/>
		</g>
	</g>
</g>
</svg>
