<svg width="44" height="44" viewBox="0 0 44 44" fill="none" xmlns="http://www.w3.org/2000/svg">
<g id="Group 48103351">
<g id="Charector">
<g id="Group 48103293">
<path id="Ellipse 3477" d="M43.8258 22.1744C43.8564 18.3354 42.874 14.5563 40.9775 11.2183C39.0811 7.88031 36.3377 5.10158 33.0243 3.16249L31.3707 5.98814C34.1871 7.63637 36.5189 9.99829 38.1309 12.8356C39.7429 15.6729 40.578 18.8851 40.5519 22.1483L43.8258 22.1744Z" fill="#F87000"/>
<path id="Ellipse 3482" d="M32.762 40.989C36.102 39.096 38.8836 36.3556 40.8261 33.0443C42.7687 29.7329 43.8035 25.9677 43.8261 22.1287L40.5522 22.1094C40.533 25.3726 39.6534 28.573 38.0022 31.3876C36.3511 34.2023 33.9867 36.5317 31.1477 38.1407L32.762 40.989Z" fill="#E0211D"/>
<path id="Ellipse 3478" d="M33.0638 3.18562C29.7544 1.2396 25.9904 0.200868 22.1514 0.174244C18.3124 0.147621 14.5342 1.13405 11.1982 3.03399L12.8185 5.87892C15.6541 4.26397 18.8655 3.42551 22.1287 3.44814C25.3918 3.47077 28.5913 4.35369 31.4042 6.00781L33.0638 3.18562Z" fill="#FBB900"/>
<path id="Ellipse 3479" d="M11.238 3.0114C7.89802 4.90435 5.11642 7.64477 3.17386 10.9561C1.2313 14.2675 0.196512 18.0327 0.17391 21.8717L3.44782 21.891C3.46704 18.6278 4.3466 15.4274 5.99778 12.6127C7.64896 9.79809 10.0133 7.46873 12.8523 5.85972L11.238 3.0114Z" fill="#C5D805"/>
<path id="Ellipse 3480" d="M0.174225 21.826C0.143581 25.665 1.12605 29.4441 3.0225 32.7821C4.91894 36.1201 7.66227 38.8988 10.9757 40.8379L12.6293 38.0122C9.81293 36.364 7.4811 34.0021 5.86912 31.1648C4.25714 28.3275 3.42205 25.1152 3.44809 21.8521L0.174225 21.826Z" fill="#7ABE26"/>
<path id="Ellipse 3481" d="M10.9362 40.8148C14.2456 42.7608 18.0096 43.7995 21.8486 43.8261C25.6876 43.8528 29.4658 42.8663 32.8018 40.9664L31.1815 38.1215C28.3459 39.7364 25.1345 40.5749 21.8713 40.5523C18.6082 40.5296 15.4087 39.6467 12.5958 37.9926L10.9362 40.8148Z" fill="#D9D9D9"/>
<circle id="Ellipse 3476" cx="18.5525" cy="18.5525" r="18.5525" transform="matrix(-0.999968 -0.00798196 -0.00798196 0.999968 40.7012 3.59961)" fill="#D9D9D9"/>
</g>
<g id="Group 48103281">
<g id="Clip path group">
<g id="Group">
<path id="Vector" d="M22.041 40.5097C32.2437 40.5097 40.5146 32.2388 40.5146 22.0361C40.5146 11.8334 32.2437 3.5625 22.041 3.5625C11.8383 3.5625 3.56738 11.8334 3.56739 22.0361C3.56739 32.2388 11.8383 40.5097 22.041 40.5097Z" fill="#FFD8D8"/>
<g id="Mask group">
<mask id="mask0_8786_7939" style="mask-type:alpha" maskUnits="userSpaceOnUse" x="3" y="3" width="38" height="38">
<path id="Vector_2" d="M22.041 40.5097C32.2437 40.5097 40.5146 32.2388 40.5146 22.0361C40.5146 11.8334 32.2437 3.5625 22.041 3.5625C11.8383 3.5625 3.56738 11.8334 3.56739 22.0361C3.56739 32.2388 11.8383 40.5097 22.041 40.5097Z" fill="#FFD8D8"/>
</mask>
<g mask="url(#mask0_8786_7939)">
<g id="Group 48103295">
<circle id="Ellipse 3464" cx="22.0459" cy="22.0351" r="18.623" fill="white"/>
<path id="Vector_3" d="M34.456 34.4515C41.3128 27.5947 41.3128 16.4776 34.456 9.62079C27.5992 2.76398 16.4821 2.76398 9.62531 9.62078C2.7685 16.4776 2.7685 27.5947 9.62531 34.4515C16.4821 41.3083 27.5992 41.3083 34.456 34.4515Z" fill="black"/>
<path id="Vector_4" d="M35.2422 35.2384C42.5331 27.9475 42.5331 16.1267 35.2422 8.83577C27.9513 1.54488 16.1304 1.54488 8.83952 8.83577C1.54862 16.1267 1.54862 27.9475 8.83952 35.2384C16.1304 42.5293 27.9513 42.5293 35.2422 35.2384Z" fill="#FFF0C8"/>
<path id="Vector_5" d="M30.1333 41.1462H13.5742V35.6861C13.5742 33.0456 15.7145 30.9053 18.3551 30.9053L21.8537 32.3929L25.3524 30.9053C27.993 30.9053 30.1333 33.0456 30.1333 35.6861V41.1462Z" fill="white"/>
<path id="Vector_6" d="M19.4956 30.9053H18.3575C15.717 30.9053 13.5767 33.0456 13.5767 35.6861V41.1462H19.9942L19.4972 30.9053H19.4956Z" fill="#283F6D"/>
<path id="Vector_7" d="M19.4956 30.904H18.9986C18.2747 30.904 17.0107 33.3441 17.0107 33.3441L18.6938 35.1034L17.4746 36.967L19.9942 41.1432L19.4973 30.9023L19.4956 30.904Z" fill="#1E2F52"/>
<path id="Vector_8" d="M15.8503 31.6123C14.4853 32.4538 13.5742 33.963 13.5742 35.6841V41.1442H15.8503V31.614V31.6123Z" fill="#1E2F52"/>
<path id="Vector_9" d="M24.2147 30.9053H25.3545C27.995 30.9053 30.1353 33.0456 30.1353 35.6861V41.1462H23.7178L24.2147 30.9053Z" fill="#283F6D"/>
<path id="Vector_10" d="M24.2144 30.904H24.7114C25.4353 30.904 26.6993 33.3441 26.6993 33.3441L25.0162 35.1034L26.2355 36.967L23.7158 41.1432L24.2128 30.9023L24.2144 30.904Z" fill="#1E2F52"/>
<path id="Vector_11" d="M27.834 31.6123C29.199 32.4538 30.1101 33.963 30.1101 35.6841V41.1442H27.834V31.614V31.6123Z" fill="#1E2F52"/>
<path id="Vector_12" d="M19.5869 30.6579C19.5869 31.8888 20.6206 32.6375 21.9094 32.6375H21.9508C23.2413 32.6375 24.2253 31.8888 24.2253 30.6579V27.8086C24.2253 26.5778 23.2413 25.3486 21.9508 25.3486H21.9094C20.619 25.3486 19.5869 26.5778 19.5869 27.8086V30.6579Z" fill="#FFC0AD"/>
<path id="Vector_13" d="M30.6697 15.7109V25.1467C30.6697 27.6299 28.5592 29.641 25.9584 29.641H18.2752C15.6728 29.641 13.564 27.6283 13.564 25.1467V15.8667L30.6713 15.7109H30.6697Z" fill="#FFD4BC"/>
<path id="Vector_14" d="M25.5215 21.7748C25.5215 22.4656 25.871 23.0272 26.3017 23.0272C26.7324 23.0272 27.082 22.4673 27.082 21.7748C27.082 21.0824 26.7324 20.5225 26.3017 20.5225C25.871 20.5225 25.5215 21.0824 25.5215 21.7748Z" fill="#5A2A00"/>
<path id="Vector_15" d="M17.1533 21.7748C17.1533 22.4656 17.5029 23.0272 17.9336 23.0272C18.3643 23.0272 18.7138 22.4673 18.7138 21.7748C18.7138 21.0824 18.3643 20.5225 17.9336 20.5225C17.5029 20.5225 17.1533 21.0824 17.1533 21.7748Z" fill="#5A2A00"/>
<path id="Vector_16" d="M22.1152 23.7531C22.6121 23.7531 23.0876 23.6405 23.5117 23.4434C23.563 23.5444 23.5928 23.6504 23.5928 23.7631C23.5928 24.3081 22.9319 24.7487 22.1152 24.7487C21.2985 24.7487 20.6392 24.3081 20.6392 23.7631C20.6392 23.6504 20.669 23.5444 20.7203 23.4434C21.1444 23.6421 21.6182 23.7531 22.1168 23.7531H22.1152Z" fill="#FFC0AD"/>
<path id="Vector_17" d="M25.1846 24.5227C25.1846 25.0976 25.6733 25.5631 26.2746 25.5631C26.8759 25.5631 27.3646 25.0976 27.3646 24.5227C27.3646 23.9479 26.8759 23.4824 26.2746 23.4824C25.6733 23.4824 25.1846 23.9479 25.1846 24.5227Z" fill="#FFC0AD"/>
<path id="Vector_18" d="M19.0482 24.5227C19.0482 25.0976 18.5595 25.5631 17.9582 25.5631C17.3569 25.5631 16.8682 25.0976 16.8682 24.5227C16.8682 23.9479 17.3569 23.4824 17.9582 23.4824C18.5595 23.4824 19.0482 23.9479 19.0482 24.5227Z" fill="#FFC0AD"/>
<path id="Vector_19" d="M24.5127 25.5127C24.5127 26.9075 23.3796 28.039 21.9814 28.039C20.5833 28.039 19.4502 26.9075 19.4502 25.5127" fill="#B83336"/>
<g id="Clip path group_2">
<mask id="mask1_8786_7939" style="mask-type:luminance" maskUnits="userSpaceOnUse" x="19" y="25" width="6" height="4">
<g id="clippath-9">
<path id="Vector_20" d="M24.5112 25.5059C24.5112 26.9007 23.3781 28.0321 21.98 28.0321C20.5818 28.0321 19.4487 26.9007 19.4487 25.5059" fill="white"/>
</g>
</mask>
<g mask="url(#mask1_8786_7939)">
<g id="Group_2">
<path id="Vector_21" d="M25.0152 28.8301C25.0152 30.167 23.9285 31.252 22.5883 31.252C21.2481 31.252 20.1631 30.1686 20.1631 28.8301C20.1631 27.4916 21.2498 26.4082 22.5883 26.4082C23.9268 26.4082 25.0152 27.4916 25.0152 28.8301Z" fill="#FC8879"/>
</g>
</g>
</g>
<path id="Vector_22" d="M24.6832 25.4941C24.6832 26.9088 23.5336 28.0568 22.1155 28.0568C20.6975 28.0568 19.5479 26.9088 19.5479 25.4941" fill="#B83336"/>
<g id="Clip path group_3">
<mask id="mask2_8786_7939" style="mask-type:luminance" maskUnits="userSpaceOnUse" x="19" y="25" width="6" height="4">
<g id="clippath-10">
<path id="Vector_23" d="M24.6827 25.4971C24.6827 26.9118 23.5331 28.0598 22.115 28.0598C20.697 28.0598 19.5474 26.9118 19.5474 25.4971" fill="white"/>
</g>
</mask>
<g mask="url(#mask2_8786_7939)">
<g id="Group_3">
<path id="Vector_24" d="M25.1924 28.8678C25.1924 30.2245 24.0907 31.3245 22.7307 31.3245C21.3707 31.3245 20.269 30.2245 20.269 28.8678C20.269 27.5111 21.3707 26.4111 22.7307 26.4111C24.0907 26.4111 25.1924 27.5111 25.1924 28.8678Z" fill="#FC8879"/>
</g>
</g>
</g>
<path id="Vector_25" d="M23.1101 33.3776C23.1101 33.9424 22.358 34.4013 21.8412 34.4013C21.3243 34.4013 20.5723 33.9424 20.5723 33.3776C20.5723 32.8127 21.3359 32.3936 21.8544 32.3936C22.373 32.3936 23.1118 32.811 23.1118 33.3776H23.1101Z" fill="#283F6D"/>
<path id="Vector_26" d="M22.8067 36.6162C22.7205 34.8171 22.0662 33.5631 22.0662 33.5631L21.8144 33.3975L21.5626 33.5631C21.5626 33.5631 20.9083 34.8171 20.8221 36.6162C20.736 38.4152 21.2031 41.0922 21.2031 41.0922H22.4273C22.4273 41.0922 22.8928 38.4152 22.8083 36.6162H22.8067Z" fill="#283F6D"/>
<path id="Vector_27" d="M19.4955 30.0322L18.3574 30.9052C18.3574 30.9052 18.6059 32.7241 20.6551 33.8837C20.6551 32.6827 21.8544 32.3928 21.8544 32.3928C21.8544 32.3928 19.6611 31.6474 19.4955 30.0322Z" fill="white"/>
<path id="Vector_28" d="M24.2149 30.0322L25.3546 30.9052C25.3546 30.9052 25.1061 32.7241 23.0553 33.8837C23.0553 32.6827 21.856 32.3928 21.856 32.3928C21.856 32.3928 24.0493 31.6474 24.2149 30.0322Z" fill="white"/>
<path id="Vector_29" d="M30.6393 13.03C29.1649 11.4297 27.6508 11.9184 27.6508 11.9184C24.2135 7.56164 18.6027 8.94653 15.2398 11.3767C11.5656 13.7257 11.0454 13.0913 11.0454 13.0913C11.5291 13.7274 12.1056 14.2542 12.6738 14.6302C11.602 18.1935 13.4855 23.5326 13.4855 23.5326H14.4497V17.5806C14.4497 16.9163 14.8754 16.3795 15.4751 16.2255C15.6871 16.1708 18.0427 17.1863 21.823 17.1863C25.6033 17.1863 27.7303 16.1294 27.7303 16.1294C28.9562 15.8577 30.187 16.7887 30.187 18.0411V23.5309H30.6956C31.7094 19.3895 32.329 14.8671 30.6376 13.03H30.6393Z" fill="url(#paint0_linear_8786_7939)"/>
<path id="Vector_30" d="M30.6412 13.0298C29.3359 11.6134 27.999 11.8337 27.7108 11.9016C28.5275 13.3047 28.269 15.1203 27.1426 16.3479C27.4938 16.2186 27.676 16.1275 27.676 16.1275C28.9019 15.8559 30.0979 16.7869 30.0979 18.0392V23.5291H30.6992C31.7131 19.3877 32.3326 14.8652 30.6412 13.0281V13.0298Z" fill="url(#paint1_linear_8786_7939)"/>
<path id="Vector_31" d="M12.6533 14.709C11.6328 18.2706 13.4865 23.5319 13.4865 23.5319H14.3579V17.5798C14.3579 16.9056 14.8416 16.3639 15.4545 16.2198C14.4357 15.91 13.4965 15.3882 12.6533 14.709Z" fill="url(#paint2_linear_8786_7939)"/>
</g>
</g>
</g>
</g>
</g>
<path id="Polygon 11" d="M22.2711 7.94922L18.9059 2.18038L25.6362 2.18038L22.2711 7.94922Z" fill="#FBB900"/>
</g>
</g>
</g>
<defs>
<linearGradient id="paint0_linear_8786_7939" x1="13.961" y1="10.174" x2="29.0059" y2="25.2206" gradientUnits="userSpaceOnUse">
<stop stop-color="#A95C00"/>
<stop offset="1" stop-color="#5A2A00"/>
</linearGradient>
<linearGradient id="paint1_linear_8786_7939" x1="29.4187" y1="23.5291" x2="29.4187" y2="11.847" gradientUnits="userSpaceOnUse">
<stop stop-color="#A95C00"/>
<stop offset="1" stop-color="#5A2A00"/>
</linearGradient>
<linearGradient id="paint2_linear_8786_7939" x1="13.9023" y1="23.5319" x2="13.9023" y2="14.709" gradientUnits="userSpaceOnUse">
<stop stop-color="#A95C00"/>
<stop offset="1" stop-color="#5A2A00"/>
</linearGradient>
</defs>
</svg>
