<svg width="255" height="289" viewBox="0 0 255 289" fill="none" xmlns="http://www.w3.org/2000/svg">
<g clip-path="url(#clip0_8598_10620)">
<path d="M172.842 227.27C180.937 219.639 185.111 208.207 180.762 198.536C174.431 208.267 164.009 215.931 151.925 219.741C147.219 221.225 141.807 222.449 139.247 226.191C137.654 228.52 137.538 231.437 138.256 234.074C138.973 236.711 140.451 239.136 141.914 241.529L141.923 242.205C153.377 239.287 164.747 234.902 172.842 227.27Z" fill="#F2F2F2"/>
<path d="M180.519 198.587C179.154 207.008 174.688 215.105 167.859 221.209C166.377 222.59 164.695 223.738 162.87 224.616C160.992 225.449 158.945 225.827 156.894 225.722C154.962 225.66 152.994 225.402 151.078 225.751C150.138 225.916 149.242 226.269 148.442 226.79C147.642 227.31 146.955 227.987 146.422 228.779C145.152 230.65 144.73 232.806 144.402 234.927C144.037 237.282 143.702 239.733 142.153 241.759C141.966 242.004 142.414 242.243 142.602 241.998C145.296 238.474 144.394 233.969 146.212 230.168C147.06 228.395 148.528 226.833 150.722 226.297C152.64 225.829 154.67 226.093 156.626 226.17C158.63 226.298 160.639 225.993 162.516 225.278C164.385 224.485 166.114 223.396 167.637 222.051C170.97 219.198 173.818 215.822 176.07 212.054C178.569 207.927 180.258 203.359 181.045 198.596C181.092 198.305 180.565 198.298 180.519 198.587Z" fill="white"/>
<path d="M170.199 219.327C171.59 220.19 173.214 220.598 174.846 220.493C176.478 220.389 178.038 219.778 179.307 218.745C179.547 218.537 179.188 218.203 178.947 218.41C177.767 219.374 176.315 219.943 174.796 220.038C173.276 220.132 171.765 219.747 170.475 218.937C170.202 218.762 169.929 219.153 170.199 219.327Z" fill="white"/>
<path d="M157.869 225.866C157.599 224.395 157.642 222.883 157.997 221.43C158.352 219.977 159.011 218.616 159.929 217.436C160.115 217.19 159.667 216.951 159.48 217.197C158.527 218.426 157.846 219.844 157.48 221.357C157.114 222.87 157.072 224.443 157.357 225.973C157.414 226.264 157.925 226.155 157.869 225.866Z" fill="white"/>
<path d="M177.903 207.804C177.329 207.599 176.817 207.251 176.415 206.792C176.013 206.333 175.735 205.779 175.607 205.183C175.555 204.891 175.044 205 175.096 205.289C175.24 205.948 175.548 206.559 175.99 207.067C176.433 207.574 176.996 207.962 177.628 208.194C177.688 208.224 177.756 208.233 177.822 208.22C177.888 208.206 177.947 208.17 177.99 208.119C178.007 208.093 178.019 208.064 178.024 208.033C178.029 208.003 178.028 207.971 178.019 207.941C178.011 207.911 177.996 207.883 177.976 207.86C177.956 207.836 177.931 207.817 177.903 207.804Z" fill="white"/>
<path d="M142.376 187.54C142.403 187.723 142.429 187.906 142.453 188.091C142.794 190.547 142.905 193.029 142.784 195.505C142.778 195.696 142.769 195.89 142.757 196.081C142.376 202.106 140.736 207.983 137.944 213.333C136.809 215.517 135.497 217.605 134.022 219.576C131.968 222.326 129.489 225.165 128.624 228.255C128.53 228.575 128.459 228.901 128.411 229.231L140.974 242.161C141.019 242.178 141.061 242.197 141.107 242.215L141.581 242.751C141.666 242.653 141.752 242.549 141.837 242.451C141.887 242.395 141.933 242.335 141.983 242.278C142.015 242.24 142.047 242.201 142.079 242.167C142.089 242.155 142.1 242.142 142.107 242.131C142.139 242.098 142.164 242.064 142.192 242.033C142.673 241.457 143.15 240.877 143.623 240.293C143.627 240.29 143.627 240.29 143.627 240.285C147.22 235.827 150.416 231.069 152.681 226.04C152.749 225.889 152.82 225.735 152.883 225.578C153.883 223.323 154.675 220.982 155.248 218.583C155.554 217.28 155.784 215.96 155.938 214.631C156.325 211.2 156.09 207.726 155.243 204.379C153.552 197.671 149.413 191.51 142.879 187.818C142.712 187.723 142.547 187.632 142.376 187.54Z" fill="#F2F2F2"/>
<path d="M142.216 187.708C146.954 195.147 148.991 203.951 147.763 212.401C147.541 214.262 146.991 216.067 146.137 217.735C145.188 219.41 143.804 220.797 142.131 221.748C140.546 222.711 138.796 223.536 137.507 224.818C136.873 225.442 136.396 226.207 136.114 227.051C135.832 227.896 135.754 228.795 135.885 229.675C136.166 231.834 137.321 233.776 138.527 235.642C139.866 237.713 141.294 239.846 141.459 242.274C141.48 242.569 142.003 242.524 141.983 242.231C141.695 238.005 137.858 234.881 136.679 230.894C136.129 229.034 136.22 227.018 137.601 225.441C138.809 224.062 140.612 223.21 142.227 222.247C143.878 221.334 145.281 220.03 146.313 218.45C147.259 216.83 147.889 215.045 148.168 213.19C148.854 209.08 148.792 204.879 147.984 200.791C147.065 196.042 145.252 191.511 142.643 187.44C142.479 187.183 142.053 187.452 142.216 187.708Z" fill="white"/>
<path d="M148.329 209.673C151.77 209.642 154.706 207.396 155.198 204.438C155.246 204.146 154.728 204.067 154.679 204.359C154.219 207.131 151.495 209.189 148.279 209.218C147.94 209.221 147.993 209.677 148.329 209.673Z" fill="white"/>
<path d="M143.009 221.352C141.819 220.403 140.834 219.221 140.114 217.878C139.394 216.536 138.954 215.061 138.82 213.543C138.799 213.248 138.275 213.293 138.297 213.586C138.439 215.166 138.901 216.7 139.653 218.096C140.406 219.492 141.434 220.72 142.674 221.705C142.921 221.908 143.254 221.554 143.009 221.352Z" fill="white"/>
<path d="M146.506 196.438C145.87 196.567 145.213 196.554 144.583 196.4C143.953 196.246 143.364 195.955 142.859 195.547C142.616 195.342 142.283 195.696 142.524 195.9C143.084 196.349 143.735 196.67 144.431 196.841C145.127 197.013 145.852 197.031 146.556 196.894C146.696 196.866 146.806 196.778 146.793 196.644C146.78 196.579 146.744 196.522 146.69 196.484C146.637 196.445 146.571 196.429 146.506 196.438Z" fill="white"/>
<path d="M113.266 241.82C97.6299 252.526 82.0835 255.243 69.4911 249.471C53.3313 242.064 43.5424 221.669 42.6343 193.517L43.5916 193.607C44.4868 221.367 54.0443 241.434 69.813 248.662C82.0679 254.28 97.2785 251.58 112.643 241.06L113.266 241.82Z" fill="#F2F2F2"/>
<path d="M209.894 60.5397C208.354 77.5297 203.967 95.4448 197.087 112.73C188.58 134.106 176.956 152.934 163.473 167.178L162.725 166.525C176.143 152.349 187.713 133.605 196.185 112.317C203.842 93.0799 208.396 73.0607 209.362 54.4326L210.318 54.5929C210.216 56.5603 210.075 58.5426 209.894 60.5397Z" fill="#F2F2F2"/>
<path d="M168.356 36.3935L167.426 36.4955C163.282 20.1859 155.249 8.88674 144.194 3.81941C130.142 -2.62207 112.765 1.7035 95.2655 15.9995C77.6769 30.3684 62.1063 53.0652 51.4223 79.9098L50.5204 79.4965C61.2513 52.5346 76.9018 29.7282 94.589 15.2794C112.365 0.757474 130.096 -3.59981 144.516 3.01032C155.888 8.22285 164.131 19.7666 168.356 36.3935Z" fill="#F2F2F2"/>
<path d="M219.933 178.386C200.995 208.559 178.019 230.118 155.237 239.09L154.776 238.244C177.401 229.334 200.242 207.885 219.094 177.851L219.933 178.386Z" fill="#F2F2F2"/>
<path d="M249.152 110.787C248.84 114.23 248.44 117.716 247.952 121.244L247.002 121.013C250.647 94.6876 249.354 70.55 243.262 51.2052L244.177 51.0518C249.491 67.9267 251.18 88.4091 249.152 110.787Z" fill="#F2F2F2"/>
<path d="M51.3512 84.6317C48.9204 89.7599 46.6083 95.0727 44.4791 100.422C32.2265 131.208 26.0175 162.648 26.5249 191.346L25.5673 191.244C25.0594 162.439 31.2863 130.891 43.5772 100.009C45.7125 94.6443 48.0312 89.3165 50.469 84.1738L51.3512 84.6317Z" fill="#F2F2F2"/>
<path d="M112.806 262.973C97.1704 273.68 81.6241 276.397 69.0316 270.624C52.8719 263.217 43.0829 242.822 42.1748 214.67L43.1321 214.76C44.0274 242.52 53.5848 262.587 69.3535 269.815C81.6085 275.433 96.819 272.733 112.183 262.213L112.806 262.973Z" fill="#F2F2F2"/>
<path d="M209.434 81.693C207.894 98.683 203.507 116.598 196.628 133.884C188.12 155.26 176.497 174.088 163.013 188.332L162.265 187.678C175.683 173.503 187.254 154.758 195.726 133.47C203.383 114.233 207.937 94.214 208.902 75.5859L209.858 75.7462C209.757 77.7136 209.615 79.6959 209.434 81.693Z" fill="#F2F2F2"/>
<path d="M207.747 58.7207L206.818 58.8226C202.673 42.513 194.64 31.2139 183.586 26.1466C169.534 19.7051 152.157 24.0306 134.657 38.3266C117.069 52.6956 101.498 75.3923 90.814 102.237L89.9121 101.824C100.643 74.8617 116.293 52.0553 133.981 37.6065C151.757 23.0846 169.488 18.7273 183.908 25.3375C195.279 30.55 203.523 42.0938 207.747 58.7207Z" fill="#F2F2F2"/>
<path d="M218.692 206.974C199.754 237.147 176.778 258.706 153.996 267.678L153.535 266.832C176.159 257.922 199.001 236.473 217.852 206.438L218.692 206.974Z" fill="#F2F2F2"/>
<path d="M248.692 131.94C248.38 135.384 247.98 138.869 247.492 142.397L246.543 142.166C250.188 115.841 248.895 91.7034 242.802 72.3585L243.718 72.2051C249.031 89.08 250.72 109.562 248.692 131.94Z" fill="#F2F2F2"/>
<path d="M50.8915 105.785C48.4607 110.913 46.1486 116.226 44.0194 121.576C31.7669 152.361 25.5578 183.802 26.0652 212.499L25.1076 212.397C24.5997 183.593 30.8266 152.044 43.1175 121.162C45.2529 115.798 47.5715 110.47 50.0093 105.327L50.8915 105.785Z" fill="#F2F2F2"/>
<path d="M234.087 90.941C235.146 89.3476 234.519 87.0667 232.688 85.8464C230.856 84.6262 228.514 84.9287 227.455 86.5221C226.396 88.1155 227.023 90.3964 228.854 91.6167C230.686 92.8369 233.029 92.5344 234.087 90.941Z" fill="#FD6584"/>
<path d="M112.414 111.254C114.631 107.852 118.25 105.179 122.281 104.953C126.311 104.727 131.155 108.164 133.144 111.701C136.783 118.171 135.204 124.392 130.192 128.892C129.512 128.661 127.135 127.962 126.444 127.739L126.005 126.945L125.464 127.428C119.27 128.047 113.287 127.357 108.625 122.736C109.205 118.714 110.198 114.655 112.414 111.254Z" fill="#2F2E41"/>
<path d="M129.021 156.664L128.289 163.465L128.72 172.383L108.995 170.036L107.142 156.664L109.503 156.687L129.021 156.664Z" fill="#FFB6B6"/>
<path d="M120.922 127.275C125.446 127.275 129.113 123.602 129.113 119.072C129.113 114.542 125.446 110.87 120.922 110.87C116.399 110.87 112.732 114.542 112.732 119.072C112.732 123.602 116.399 127.275 120.922 127.275Z" fill="#FFB7B7"/>
<path d="M111.847 134.313L116.534 131.496L125.908 130.558L134.193 134.783L134.11 147.69L128.854 161.076L106.825 158.26L105.988 153.538C105.988 153.538 99.8953 145.343 106.457 140.649L111.847 134.313Z" fill="#7168D6"/>
<path d="M117.86 106.616C119.635 106.118 121.511 106.106 123.291 106.582C125.072 107.058 126.693 108.005 127.983 109.323C129.273 110.641 130.186 112.282 130.627 114.074C131.067 115.867 131.019 117.744 130.486 119.512C125.498 119.91 120.567 119.444 116.68 115.909L116.334 112.878L114.916 115.415C113.486 115.012 112.053 114.606 110.618 114.198C111.057 112.41 111.957 110.769 113.228 109.438C114.499 108.108 116.096 107.134 117.86 106.616Z" fill="#2F2E41"/>
<path d="M83.7163 95.9873C83.4942 96.4616 83.3786 96.9788 83.3777 97.5026C83.3768 98.0264 83.4906 98.5441 83.7111 99.0191C83.9315 99.4941 84.2533 99.9149 84.6538 100.252C85.0542 100.589 85.5236 100.834 86.0288 100.97L101.289 129.804L107.448 125.043L90.5113 98.1968C90.6827 97.3318 90.5312 96.4339 90.0856 95.6732C89.6401 94.9126 88.9313 94.342 88.0938 94.0696C87.2562 93.7973 86.348 93.8421 85.5412 94.1955C84.7344 94.549 84.085 95.1865 83.7163 95.9873Z" fill="#FFB6B6"/>
<path d="M108.748 139.548C108.748 139.548 107.334 140.804 105.323 137.336C103.713 134.559 95.6845 122.127 94.5476 117.818C93.924 117.835 93.3122 117.645 92.8087 117.276C92.3052 116.907 91.9386 116.381 91.7666 115.78L100.391 112.428C102.266 113.366 101.745 114.668 101.27 115.341L104.482 120.166L115.166 132.173L109.787 138.658L108.748 139.548Z" fill="#7168D6"/>
<path d="M254.535 288.635H0.465196C0.341818 288.635 0.223488 288.586 0.136246 288.498C0.0490049 288.411 0 288.293 0 288.169C0 288.045 0.0490049 287.927 0.136246 287.84C0.223488 287.752 0.341818 287.703 0.465196 287.703H254.535C254.658 287.703 254.777 287.752 254.864 287.84C254.951 287.927 255 288.045 255 288.169C255 288.293 254.951 288.411 254.864 288.498C254.777 288.586 254.658 288.635 254.535 288.635Z" fill="#CCCCCC"/>
<path d="M193.709 28.6328C189.123 24.1064 182.999 21.6082 176.859 20.0099C169.907 18.2007 162.719 17.135 155.618 16.1125C148.217 15.0469 140.786 14.225 133.327 13.6468C125.877 13.0716 118.414 12.7423 110.937 12.659C104.275 12.5843 97.5686 12.5819 90.9389 13.3222C84.6946 14.0193 78.4653 15.4184 72.8357 18.2906C67.8246 20.7922 63.6146 24.6513 60.6839 29.4292C57.9897 33.8766 56.3879 39.2079 56.9449 44.4357C57.2061 47.01 58.0065 49.5001 59.2937 51.7437C60.8027 54.2229 62.7256 56.4242 64.9787 58.2516C69.6302 62.185 75.1916 65.0605 79.1932 69.7354C80.2498 70.9601 81.1729 72.2943 81.9465 73.7153C82.5276 74.793 83.1812 75.7205 84.2619 76.3491C85.2266 76.9005 86.3327 77.1535 87.4408 77.0761C88.5489 76.9988 89.6092 76.5946 90.4883 75.9146C91.7348 74.9348 92.63 73.4245 93.5946 72.1814L96.958 67.8467C97.2012 67.458 97.4829 67.0949 97.7989 66.763C98.0257 66.5753 97.6516 66.7406 97.7258 66.6939C97.7666 66.6681 97.8383 66.6824 97.8829 66.6641C98.1069 66.5998 98.3365 66.5571 98.5686 66.5365C101.025 66.0843 103.486 65.6613 105.952 65.2676C115.06 63.796 124.226 62.5821 133.43 61.9279C138.174 61.5485 142.936 61.4347 147.693 61.5872C153.844 61.8392 159.91 63.0624 166.039 63.59C172.637 64.1582 179.568 64.0797 185.785 61.5318C190.762 59.4924 195.382 56.0614 198.077 51.3226C199.355 49.0813 200.113 46.5802 200.293 44.0053C200.622 38.1649 197.786 32.6575 193.709 28.6328Z" fill="#E6E6E6"/>
<path d="M107.27 17.4463C106.097 17.4463 104.924 17.4525 103.752 17.465C92.4987 17.5846 80.8682 18.4957 72.0424 24.3048C64.2085 29.4611 58.7181 40.9466 63.3645 49.1836C65.4982 52.9659 69.3639 55.719 73.4566 58.6335C75.0607 59.7761 76.7198 60.9576 78.3096 62.2299C81.7826 65.0093 85.0531 68.7394 86.9346 72.9336L95.1984 62.2836L96.7597 61.9842C98.2618 61.6962 133.764 54.9546 152.671 57.1433C154.41 57.3446 156.167 57.5763 157.867 57.8002C165.548 58.8123 172.803 59.7676 179.768 58.357C187.039 56.8835 195.023 51.2597 195.498 43.7394C195.824 38.5908 192.479 32.9428 186.978 29.3503C181.415 25.7179 174.477 24.2182 167.848 22.9934C147.866 19.3061 127.589 17.4494 107.27 17.4463Z" fill="white"/>
<path d="M171.402 33.8333H91.5972C91.1366 33.8333 90.695 33.6501 90.3694 33.324C90.0437 32.9978 89.8608 32.5556 89.8608 32.0944C89.8608 31.6332 90.0437 31.1909 90.3694 30.8648C90.695 30.5387 91.1366 30.3555 91.5972 30.3555H171.402C171.863 30.3555 172.305 30.5387 172.63 30.8648C172.956 31.1909 173.139 31.6332 173.139 32.0944C173.139 32.5556 172.956 32.9978 172.63 33.324C172.305 33.6501 171.863 33.8333 171.402 33.8333Z" fill="#7168D6"/>
<path d="M171.402 44.5071H91.5972C91.1367 44.5071 90.695 44.3239 90.3694 43.9978C90.0438 43.6717 89.8608 43.2294 89.8608 42.7682C89.8608 42.307 90.0438 41.8647 90.3694 41.5386C90.695 41.2125 91.1367 41.0293 91.5972 41.0293H171.402C171.863 41.0293 172.305 41.2125 172.63 41.5386C172.956 41.8647 173.139 42.307 173.139 42.7682C173.139 43.2294 172.956 43.6717 172.63 43.9978C172.305 44.3239 171.863 44.5071 171.402 44.5071Z" fill="#7168D6"/>
<path d="M100.897 55.1799H91.5972C91.1366 55.1799 90.695 54.9967 90.3694 54.6706C90.0437 54.3445 89.8608 53.9022 89.8608 53.441C89.8608 52.9799 90.0437 52.5376 90.3694 52.2115C90.695 51.8853 91.1366 51.7021 91.5972 51.7021H100.897C101.358 51.7021 101.799 51.8853 102.125 52.2115C102.451 52.5376 102.634 52.9799 102.634 53.441C102.634 53.9022 102.451 54.3445 102.125 54.6706C101.799 54.9967 101.358 55.1799 100.897 55.1799Z" fill="#7168D6"/>
<path d="M86.4779 96.8902C90.5539 96.8902 93.8581 93.5812 93.8581 89.4993C93.8581 85.4174 90.5539 82.1084 86.4779 82.1084C82.4019 82.1084 79.0977 85.4174 79.0977 89.4993C79.0977 93.5812 82.4019 96.8902 86.4779 96.8902Z" fill="#E6E6E6"/>
<path d="M65.005 180.384C66.0636 178.791 65.4371 176.51 63.6056 175.29C61.7741 174.07 59.4313 174.372 58.3727 175.965C57.3141 177.559 57.9407 179.84 59.7721 181.06C61.6036 182.28 63.9465 181.978 65.005 180.384Z" fill="#F2F2F2"/>
<path d="M223.355 179.881C224.414 178.288 223.787 176.007 221.956 174.787C220.125 173.567 217.782 173.869 216.723 175.463C215.665 177.056 216.291 179.337 218.123 180.557C219.954 181.777 222.297 181.475 223.355 179.881Z" fill="#E6E6E6"/>
<path d="M163.578 122.366C164.637 120.772 164.01 118.492 162.179 117.271C160.347 116.051 158.005 116.353 156.946 117.947C155.887 119.54 156.514 121.821 158.346 123.041C160.177 124.262 162.52 123.959 163.578 122.366Z" fill="#E6E6E6"/>
<path d="M139.252 280.137H134.94L132.888 263.479H139.252V280.137Z" fill="#FFB6B6"/>
<path d="M141.528 287.62H138.435L137.883 284.696L136.47 287.62H128.267C127.874 287.62 127.491 287.494 127.174 287.261C126.858 287.027 126.624 286.699 126.507 286.323C126.39 285.947 126.396 285.543 126.524 285.171C126.652 284.799 126.896 284.478 127.22 284.254L133.77 279.724V276.768L140.659 277.179L141.528 287.62Z" fill="#2F2E41"/>
<path d="M115.029 280.137H110.716L108.664 263.479H115.029V280.137Z" fill="#FFB6B6"/>
<path d="M117.305 287.62H114.212L113.66 284.696L112.246 287.62H104.044C103.651 287.62 103.268 287.494 102.951 287.261C102.635 287.027 102.401 286.699 102.284 286.323C102.167 285.947 102.173 285.543 102.301 285.171C102.429 284.799 102.673 284.478 102.996 284.254L109.546 279.724V276.768L116.436 277.179L117.305 287.62Z" fill="#2F2E41"/>
<path d="M141.113 265.772H141.066L140.236 238.687C140.773 237.651 141.045 236.497 141.029 235.329C141.013 234.162 140.709 233.016 140.144 231.995L140.025 231.779L140.333 230.35C140.728 228.514 140.547 226.6 139.813 224.871L139.04 199.607C141.804 181.667 128.631 169.967 128.631 169.967H108.897L104.66 184.544C101.86 211.87 102.368 238.498 106.812 264.297L106.691 264.358C106.255 264.509 106.068 265.114 106.273 265.71C106.478 266.306 106.999 266.667 107.435 266.516L117.856 266.153C118.293 266.002 118.48 265.397 118.275 264.801C118.069 264.205 117.549 263.844 117.113 263.995L116.404 264.354L117.915 238.218L117.748 233.445L118.093 228.029L119.691 203.668L125.737 233.625L131.913 266.073C131.743 266.228 131.623 266.43 131.57 266.654C131.517 266.878 131.533 267.113 131.616 267.328C131.699 267.542 131.845 267.727 132.035 267.856C132.225 267.986 132.45 268.055 132.679 268.055H141.113C141.415 268.055 141.705 267.934 141.919 267.72C142.132 267.506 142.252 267.216 142.252 266.913C142.252 266.611 142.132 266.32 141.919 266.106C141.705 265.892 141.415 265.772 141.113 265.772Z" fill="#2F2E41"/>
<path d="M131.91 190.041C132.355 189.766 132.735 189.397 133.022 188.96C133.31 188.522 133.498 188.027 133.574 187.508C133.649 186.99 133.611 186.461 133.46 185.96C133.31 185.458 133.051 184.996 132.703 184.605L135.726 152.111L127.968 152.711L127.436 184.463C126.819 185.092 126.455 185.926 126.411 186.807C126.367 187.688 126.647 188.554 127.199 189.242C127.75 189.929 128.534 190.39 129.403 190.538C130.271 190.685 131.163 190.508 131.91 190.041Z" fill="#FFB6B6"/>
<path d="M133.905 134.912C133.905 134.912 135.776 134.638 135.559 138.643C135.386 141.848 136.21 161.609 134.801 165.837C135.333 166.165 135.74 166.66 135.959 167.245C136.178 167.83 136.197 168.471 136.012 169.068L126.964 167.137C125.91 165.322 126.128 163.459 126.894 163.157L126.849 157.359L124.85 138.245L132.55 135.086L133.905 134.912Z" fill="#7168D6"/>
</g>
<defs>
<clipPath id="clip0_8598_10620">
<rect width="255" height="288.635" fill="white"/>
</clipPath>
</defs>
</svg>
