<svg width="44" height="44" viewBox="0 0 44 44" fill="none" xmlns="http://www.w3.org/2000/svg">
<g id="Charector">
<g id="Group 48103293">
<path id="Ellipse 3477" d="M43.8258 22.1744C43.8564 18.3354 42.874 14.5563 40.9775 11.2183C39.0811 7.88031 36.3377 5.10158 33.0243 3.16249L31.3707 5.98814C34.1871 7.63637 36.5189 9.99829 38.1309 12.8356C39.7429 15.6729 40.578 18.8852 40.5519 22.1483L43.8258 22.1744Z" fill="#F87000"/>
<path id="Ellipse 3482" d="M32.762 40.989C36.102 39.096 38.8836 36.3556 40.8261 33.0443C42.7687 29.7329 43.8035 25.9677 43.8261 22.1287L40.5522 22.1094C40.533 25.3726 39.6534 28.573 38.0022 31.3876C36.3511 34.2023 33.9867 36.5317 31.1477 38.1407L32.762 40.989Z" fill="#E0211D"/>
<path id="Ellipse 3478" d="M33.0638 3.18562C29.7544 1.2396 25.9904 0.200868 22.1514 0.174244C18.3124 0.147621 14.5342 1.13405 11.1982 3.03399L12.8185 5.87892C15.6541 4.26397 18.8655 3.42551 22.1287 3.44814C25.3918 3.47077 28.5913 4.35369 31.4042 6.00781L33.0638 3.18562Z" fill="#FBB900"/>
<path id="Ellipse 3479" d="M11.238 3.01141C7.89801 4.90436 5.11641 7.64477 3.17385 10.9561C1.23129 14.2675 0.196504 18.0327 0.173902 21.8717L3.44782 21.891C3.46703 18.6278 4.3466 15.4274 5.99777 12.6127C7.64895 9.79809 10.0133 7.46873 12.8523 5.85972L11.238 3.01141Z" fill="#C5D805"/>
<path id="Ellipse 3480" d="M0.174217 21.826C0.143574 25.665 1.12604 29.4441 3.02249 32.7821C4.91894 36.1201 7.66227 38.8988 10.9757 40.8379L12.6293 38.0122C9.81293 36.364 7.4811 34.0021 5.86912 31.1648C4.25714 28.3275 3.42204 25.1152 3.44808 21.8521L0.174217 21.826Z" fill="#7ABE26"/>
<path id="Ellipse 3481" d="M10.9362 40.8148C14.2456 42.7608 18.0096 43.7995 21.8486 43.8262C25.6876 43.8528 29.4658 42.8664 32.8018 40.9664L31.1815 38.1215C28.3459 39.7364 25.1345 40.5749 21.8713 40.5523C18.6082 40.5296 15.4087 39.6467 12.5958 37.9926L10.9362 40.8148Z" fill="#D9D9D9"/>
<circle id="Ellipse 3476" cx="18.5525" cy="18.5525" r="18.5525" transform="matrix(-0.999968 -0.00798196 -0.00798196 0.999968 40.7012 3.59863)" fill="#D9D9D9"/>
</g>
<g id="Group 48103281">
<g id="Clip path group">
<g id="Group">
<path id="Vector" d="M22.041 40.5136C32.2437 40.5136 40.5146 32.2427 40.5146 22.04C40.5146 11.8373 32.2437 3.56641 22.041 3.56641C11.8383 3.56641 3.56738 11.8373 3.56739 22.04C3.56739 32.2427 11.8383 40.5136 22.041 40.5136Z" fill="#D3EDB4"/>
<g id="Mask group">
<mask id="mask0_8786_8113" style="mask-type:alpha" maskUnits="userSpaceOnUse" x="3" y="3" width="38" height="38">
<path id="Vector_2" d="M22.041 40.5136C32.2437 40.5136 40.5146 32.2427 40.5146 22.04C40.5146 11.8373 32.2437 3.56641 22.041 3.56641C11.8383 3.56641 3.56738 11.8373 3.56739 22.04C3.56739 32.2427 11.8383 40.5136 22.041 40.5136Z" fill="#7ABE26"/>
</mask>
<g mask="url(#mask0_8786_8113)">
<g id="Group_2">
<g id="Group_3">
<path id="Vector_3" d="M30.5438 40.4616H14.1602V35.0588C14.1602 32.4459 16.278 30.3281 18.8908 30.3281L22.3528 31.8001L25.8148 30.3281C28.4276 30.3281 30.5455 32.4459 30.5455 35.0588V40.4616H30.5438Z" fill="white"/>
<path id="Vector_4" d="M20.0162 30.3281H18.8884C16.2755 30.3281 14.1577 32.4459 14.1577 35.0588V40.4616H20.5079L20.0162 30.3281Z" fill="#283F6D"/>
<path id="Vector_5" d="M20.0154 30.3259H19.5237C18.8073 30.3259 17.5566 32.7404 17.5566 32.7404L19.2204 34.4812L18.014 36.3253L20.5072 40.4577L20.0154 30.3242V30.3259Z" fill="#1E2F52"/>
<path id="Vector_6" d="M16.41 31.0283C15.0593 31.861 14.1577 33.3543 14.1577 35.0574V40.4602H16.41V31.03V31.0283Z" fill="#1E2F52"/>
<path id="Vector_7" d="M24.6861 30.3281H25.8139C28.4267 30.3281 30.5445 32.4459 30.5445 35.0588V40.4616H24.1943L24.6861 30.3281Z" fill="#283F6D"/>
<path id="Vector_8" d="M24.6861 30.3259H25.1778C25.8942 30.3259 27.1449 32.7404 27.1449 32.7404L25.4811 34.4812L26.6875 36.3253L24.1943 40.4577L24.6861 30.3242V30.3259Z" fill="#1E2F52"/>
<path id="Vector_9" d="M28.2671 31.0283C29.6178 31.861 30.5193 33.3543 30.5193 35.0574V40.4602H28.2671V31.03V31.0283Z" fill="#1E2F52"/>
</g>
<g id="Group_4">
<path id="Vector_10" d="M20.0483 30.0837C20.0483 31.3016 21.1318 32.0425 22.4088 32.0425H22.4497C23.7267 32.0425 24.6381 31.3016 24.6381 30.0837V27.2643C24.6381 26.0464 23.725 24.8301 22.4497 24.8301H22.4088C21.1318 24.8301 20.0483 26.0464 20.0483 27.2643V30.0837Z" fill="#FFC0AD"/>
<path id="Vector_11" d="M31.0756 15.293V24.6298C31.0756 27.0869 28.9873 29.0769 26.4138 29.0769H18.8113C16.2361 29.0769 14.1494 27.0853 14.1494 24.6298V15.4471L31.0773 15.293H31.0756Z" fill="url(#paint0_linear_8786_8113)"/>
<path id="Vector_12" d="M25.9805 21.2929C25.9805 21.9765 26.3263 22.5322 26.7525 22.5322C27.1787 22.5322 27.5246 21.9781 27.5246 21.2929C27.5246 20.6078 27.1787 20.0537 26.7525 20.0537C26.3263 20.0537 25.9805 20.6078 25.9805 21.2929Z" fill="#5A2A00"/>
<path id="Vector_13" d="M17.7012 21.2929C17.7012 21.9765 18.047 22.5322 18.4732 22.5322C18.8994 22.5322 19.2453 21.9781 19.2453 21.2929C19.2453 20.6078 18.8994 20.0537 18.4732 20.0537C18.047 20.0537 17.7012 20.6078 17.7012 21.2929Z" fill="#5A2A00"/>
<path id="Vector_14" d="M22.6124 23.4169C23.1041 23.4169 23.5746 23.3054 23.9942 23.1104C24.045 23.2103 24.0745 23.3152 24.0745 23.4267C24.0745 23.966 23.4205 24.402 22.6124 24.402C21.8043 24.402 21.1519 23.966 21.1519 23.4267C21.1519 23.3152 21.1814 23.2103 21.2322 23.1104C21.6518 23.3071 22.1206 23.4169 22.614 23.4169H22.6124Z" fill="#FFC0AD"/>
<path id="Vector_15" d="M25.6465 24.0118C25.6465 24.5806 26.13 25.0412 26.7251 25.0412C27.3201 25.0412 27.8037 24.5806 27.8037 24.0118C27.8037 23.443 27.3201 22.9824 26.7251 22.9824C26.13 22.9824 25.6465 23.443 25.6465 24.0118Z" fill="#FFC0AD"/>
<path id="Vector_16" d="M19.5761 24.0118C19.5761 24.5806 19.0926 25.0412 18.4975 25.0412C17.9025 25.0412 17.4189 24.5806 17.4189 24.0118C17.4189 23.443 17.9025 22.9824 18.4975 22.9824C19.0926 22.9824 19.5761 23.443 19.5761 24.0118Z" fill="#FFC0AD"/>
<g id="Group_5">
<path id="Vector_17" d="M20.6255 27.1664C20.6255 26.1452 21.4549 25.3174 22.4778 25.3174C23.5006 25.3174 24.33 26.1452 24.33 27.1664" fill="#B83336"/>
<g id="Clip path group_2">
<mask id="mask1_8786_8113" style="mask-type:luminance" maskUnits="userSpaceOnUse" x="20" y="25" width="5" height="3">
<g id="clippath-7">
<path id="Vector_18" d="M20.6265 27.1664C20.6265 26.1452 21.4559 25.3174 22.4787 25.3174C23.5016 25.3174 24.331 26.1452 24.331 27.1664" fill="white"/>
</g>
</mask>
<g mask="url(#mask1_8786_8113)">
<g id="Group_6">
<path id="Vector_19" d="M21.4058 27.8442C21.4058 26.8656 22.2008 26.0723 23.181 26.0723C24.1612 26.0723 24.9562 26.8656 24.9562 27.8442C24.9562 28.8228 24.1612 29.6162 23.181 29.6162C22.2008 29.6162 21.4058 28.8228 21.4058 27.8442Z" fill="#FC8879"/>
</g>
</g>
</g>
</g>
<path id="Vector_20" d="M18.1914 17.9473L19.1307 18.4792" stroke="#A95C00" stroke-miterlimit="10" stroke-linecap="round"/>
<path id="Vector_21" d="M27.0315 17.9473L26.0923 18.4792" stroke="#A95C00" stroke-miterlimit="10" stroke-linecap="round"/>
</g>
<g id="Group_7">
<path id="Vector_22" d="M23.5942 32.7706C23.5942 33.3295 22.85 33.7836 22.3386 33.7836C21.8272 33.7836 21.083 33.3295 21.083 32.7706C21.083 32.2116 21.8387 31.7969 22.3517 31.7969C22.8648 31.7969 23.5959 32.2099 23.5959 32.7706H23.5942Z" fill="#283F6D"/>
<path id="Vector_23" d="M23.2945 35.974C23.2093 34.1938 22.5618 32.953 22.5618 32.953L22.3127 32.7891L22.0635 32.953C22.0635 32.953 21.416 34.1938 21.3308 35.974C21.2456 37.7542 21.7078 40.4031 21.7078 40.4031H22.9192C22.9192 40.4031 23.3798 37.7542 23.2962 35.974H23.2945Z" fill="#283F6D"/>
<path id="Vector_24" d="M20.0164 29.4609L18.8887 30.3248C18.8887 30.3248 19.1345 32.1246 21.1639 33.272C21.1639 32.0836 22.3506 31.7968 22.3506 31.7968C22.3506 31.7968 20.1803 31.0591 20.0164 29.4609Z" fill="white"/>
<path id="Vector_25" d="M24.6853 29.4609L25.813 30.3248C25.813 30.3248 25.5672 32.1246 23.5378 33.272C23.5378 32.0836 22.3511 31.7968 22.3511 31.7968C22.3511 31.7968 24.5214 31.0591 24.6853 29.4609Z" fill="white"/>
</g>
<g id="Group_8">
<path id="Vector_26" d="M31.0455 12.64C29.5866 11.0566 28.0884 11.5401 28.0884 11.5401C24.6871 7.22908 19.1352 8.59944 15.8076 11.0041C12.1719 13.3285 11.6572 12.7007 11.6572 12.7007C12.1359 13.3301 12.7063 13.8514 13.2685 14.2235C12.208 17.7494 14.0717 23.0325 14.0717 23.0325H14.9651V17.1429C14.9651 16.4856 15.4159 15.9545 16.0109 15.802C16.2207 15.7479 18.568 16.7527 22.307 16.7527C26.046 16.7527 28.1294 15.7069 28.1294 15.7069C29.3424 15.4381 30.5374 16.3593 30.5374 17.5986V23.0308H31.1012C32.1044 18.9329 32.7175 14.4579 31.0439 12.64H31.0455Z" fill="url(#paint1_linear_8786_8113)"/>
<path id="Vector_27" d="M31.0445 12.6384C29.7528 11.2369 28.43 11.455 28.1448 11.5222C28.9529 12.9105 28.6972 14.7071 27.5825 15.9217C27.93 15.7939 28.1103 15.7037 28.1103 15.7037C29.3233 15.4349 30.5068 16.3561 30.5068 17.5953V23.0276H31.1018C32.105 18.9296 32.7181 14.4547 31.0445 12.6368V12.6384Z" fill="url(#paint2_linear_8786_8113)"/>
<path id="Vector_28" d="M13.2487 14.3008C12.239 17.825 14.0732 23.0311 14.0732 23.0311H14.9354V17.1415C14.9354 16.4743 15.4141 15.9383 16.0206 15.7957C15.0125 15.4892 14.083 14.9728 13.2487 14.3008Z" fill="url(#paint3_linear_8786_8113)"/>
</g>
</g>
</g>
</g>
</g>
</g>
<path id="Polygon 11" d="M10.0355 28.5247L7.10184 34.5245L3.36882 28.9243L10.0355 28.5247Z" fill="#7ABE26"/>
</g>
</g>
<defs>
<linearGradient id="paint0_linear_8786_8113" x1="22.6125" y1="29.0769" x2="22.6125" y2="15.293" gradientUnits="userSpaceOnUse">
<stop stop-color="#FFD4BC"/>
<stop offset="0.54" stop-color="#FACFB7"/>
<stop offset="1" stop-color="#FC8879"/>
</linearGradient>
<linearGradient id="paint1_linear_8786_8113" x1="14.5422" y1="9.81407" x2="29.4309" y2="24.7028" gradientUnits="userSpaceOnUse">
<stop stop-color="#A95C00"/>
<stop offset="1" stop-color="#5A2A00"/>
</linearGradient>
<linearGradient id="paint2_linear_8786_8113" x1="29.8348" y1="23.0276" x2="29.8348" y2="11.4681" gradientUnits="userSpaceOnUse">
<stop stop-color="#A95C00"/>
<stop offset="1" stop-color="#5A2A00"/>
</linearGradient>
<linearGradient id="paint3_linear_8786_8113" x1="14.483" y1="23.0311" x2="14.483" y2="14.3008" gradientUnits="userSpaceOnUse">
<stop stop-color="#A95C00"/>
<stop offset="1" stop-color="#5A2A00"/>
</linearGradient>
</defs>
</svg>
