<svg width="283" height="230" viewBox="0 0 283 230" fill="none" xmlns="http://www.w3.org/2000/svg">
<g clip-path="url(#clip0_8564_7797)">
<path d="M270.495 140.49C270.185 141.088 269.861 141.675 269.527 142.26C256.707 164.627 226.886 178.518 176.593 171.166C148.038 166.793 135.877 182.833 124.101 199.262C123.899 199.546 123.698 199.83 123.494 200.113C111.162 217.342 98.9529 234.619 68.4255 228.876C36.0628 223.751 16.0899 197.435 12.9992 169.338C12.9616 168.996 12.9276 168.651 12.8968 168.31C11.1605 150.093 16.5264 131.231 30.2158 116.992C38.4848 108.393 50.2332 103.825 62.3602 103.969C66.0115 104.037 69.6613 103.766 73.2626 103.159C74.0574 103.019 74.8285 102.865 75.5789 102.691C91.0285 99.1548 98.1479 88.6426 102.514 75.8139C102.617 75.5099 102.719 75.2058 102.818 74.8984C112.844 44.3044 108.208 1.36361 162.713 7.68054C211.487 11.2814 247.282 38.3667 264.84 69.6166C265.014 69.9309 265.187 70.2452 265.358 70.5595C270.184 79.2303 273.628 88.6029 275.565 98.3383C275.674 98.8849 275.773 99.4316 275.865 99.9782C278.348 114.491 276.721 128.597 270.495 140.49Z" fill="#F2F2F2"/>
<path d="M265.358 70.5591C261.859 74.7243 257.916 78.4944 253.6 81.8025C236.785 94.7166 215.489 101.72 194.479 103.189C183.681 103.949 172.831 103.211 162.235 100.996C151.456 98.7342 141.174 94.7507 131.217 90.0975C121.532 85.5708 112.134 80.4667 102.514 75.8136C102.617 75.5095 102.719 75.2054 102.818 74.898C113.308 79.9542 123.582 85.5264 134.195 90.3435C144.193 94.884 154.543 98.5873 165.367 100.569C176.167 102.532 187.188 102.965 198.108 101.853C219.06 99.7421 240.374 92.0005 256.482 78.1504C259.506 75.5502 262.302 72.695 264.84 69.6162C265.014 69.9305 265.188 70.2448 265.358 70.5591Z" fill="white"/>
<path d="M192.561 0.321301C192.537 0.321301 192.512 0.322082 192.488 0.323646C166.633 1.94587 146.381 23.5591 146.381 49.5284C146.381 75.4979 166.633 97.1113 192.488 98.733C192.642 98.7434 192.797 98.7217 192.943 98.6693C193.089 98.6169 193.222 98.5349 193.334 98.4284C193.447 98.3238 193.536 98.1969 193.597 98.056C193.658 97.915 193.689 97.763 193.688 97.6094V1.44742C193.688 1.14848 193.569 0.862008 193.357 0.650885C193.146 0.439762 192.86 0.321238 192.561 0.321301Z" fill="#CCCCCC"/>
<path d="M232.091 82.3871C231.708 82.3867 231.34 82.2344 231.069 81.9633L197.639 48.4834C197.505 48.3495 197.398 48.1902 197.326 48.0147C197.253 47.8393 197.216 47.6512 197.216 47.4612V1.44731C197.216 1.24987 197.256 1.05439 197.334 0.873196C197.412 0.691998 197.527 0.528991 197.672 0.39443C197.816 0.258201 197.987 0.153164 198.174 0.0858251C198.361 0.0184865 198.56 -0.00971757 198.758 0.00295181C224.781 1.63566 245.166 23.3899 245.166 49.5283C245.166 61.4013 240.916 72.8811 233.187 81.8836C233.057 82.0344 232.897 82.1569 232.718 82.2433C232.539 82.3298 232.344 82.3784 232.145 82.3861C232.127 82.3868 232.109 82.3871 232.091 82.3871Z" fill="#CCCCCC"/>
<path d="M198.666 99.0571C198.297 99.0568 197.942 98.9161 197.672 98.6634C197.528 98.5288 197.413 98.3656 197.334 98.1842C197.256 98.0028 197.216 97.8071 197.216 97.6095V56.0928C197.216 55.807 197.301 55.5275 197.46 55.2898C197.618 55.0522 197.844 54.8669 198.107 54.7575C198.371 54.6481 198.661 54.6195 198.941 54.6752C199.221 54.731 199.478 54.8686 199.68 55.0707L228.852 84.286C228.99 84.425 229.099 84.5907 229.172 84.7731C229.244 84.9555 229.279 85.1508 229.274 85.3471C229.269 85.5434 229.224 85.7366 229.142 85.915C229.06 86.0934 228.943 86.2533 228.797 86.3849C220.492 93.8733 209.908 98.3371 198.755 99.0543C198.726 99.0562 198.695 99.0571 198.666 99.0571Z" fill="#7168D6"/>
<path d="M275.865 99.9778C271.184 108.29 264.577 115.622 257.011 121.433C240.197 134.347 218.9 141.35 197.89 142.82C187.093 143.58 176.242 142.842 165.647 140.626C154.867 138.365 144.585 134.381 134.628 129.728C124.49 124.989 114.662 119.615 104.568 114.788C94.4842 109.964 84.1207 105.851 73.2626 103.158C74.0574 103.018 74.8285 102.865 75.5788 102.69C76.2884 102.875 76.9957 103.066 77.7007 103.264C98.9324 109.209 117.671 120.924 137.606 129.974C147.604 134.514 157.954 138.218 168.778 140.199C179.578 142.163 190.6 142.595 201.519 141.484C222.472 139.372 243.785 131.631 259.893 117.781C266.269 112.323 271.582 105.731 275.565 98.3379C275.674 98.8845 275.773 99.4311 275.865 99.9778Z" fill="white"/>
<path d="M65.0791 172.959C85.9969 178.815 104.493 190.273 124.101 199.262C123.899 199.546 123.698 199.829 123.494 200.113C122.996 199.884 122.501 199.655 122.006 199.423C111.868 194.684 102.04 189.31 91.9461 184.483C81.6475 179.556 71.0589 175.371 59.9485 172.682C44.5907 168.978 28.726 167.847 12.9992 169.338C12.9616 168.996 12.9276 168.651 12.8968 168.309C30.4284 166.652 48.115 168.228 65.0791 172.959Z" fill="white"/>
<path d="M149.153 205.924H0.390454C0.286899 205.924 0.187585 205.883 0.114361 205.809C0.0411367 205.736 0 205.636 0 205.533C0 205.429 0.0411367 205.329 0.114361 205.256C0.187585 205.183 0.286899 205.142 0.390454 205.142H149.153C149.257 205.142 149.356 205.183 149.43 205.256C149.503 205.329 149.544 205.429 149.544 205.533C149.544 205.636 149.503 205.736 149.43 205.809C149.356 205.883 149.257 205.924 149.153 205.924Z" fill="#CCCCCC"/>
<path d="M60.5669 153.17C65.8633 153.17 70.1569 148.87 70.1569 143.565C70.1569 138.261 65.8633 133.961 60.5669 133.961C55.2706 133.961 50.977 138.261 50.977 143.565C50.977 148.87 55.2706 153.17 60.5669 153.17Z" fill="#A0616A"/>
<path d="M96.4496 211.336L96.6733 216.125L78.3364 219.269L78.0061 212.201L96.4496 211.336Z" fill="#A0616A"/>
<path d="M101.028 209.896L101.537 220.783L101.342 220.793C99.8351 220.892 98.3344 220.528 97.0398 219.75C95.8692 219.003 95.1951 217.969 95.1422 216.837L94.8313 210.187L101.028 209.896Z" fill="#2F2E41"/>
<path d="M95.9366 219.216L100.724 219.215L103.001 200.724L95.9358 200.724L95.9366 219.216Z" fill="#A0616A"/>
<path d="M94.7156 217.651L104.143 217.65C104.932 217.65 105.713 217.806 106.442 218.108C107.171 218.411 107.833 218.854 108.391 219.413C108.949 219.971 109.392 220.635 109.693 221.365C109.995 222.095 110.151 222.877 110.151 223.667V223.863L94.7159 223.863L94.7156 217.651Z" fill="#2F2E41"/>
<path d="M50.7444 214.736C51.2689 214.418 51.7173 213.988 52.0581 213.478C52.3988 212.967 52.6237 212.388 52.7168 211.781C52.8099 211.174 52.769 210.554 52.5969 209.965C52.4248 209.375 52.1258 208.831 51.7209 208.369L55.5416 170.3L46.442 170.937L45.5477 208.158C44.8192 208.89 44.3843 209.865 44.3255 210.897C44.2666 211.93 44.588 212.948 45.2285 213.759C45.8691 214.57 46.7844 215.117 47.801 215.297C48.8176 215.477 49.8649 215.278 50.7444 214.736Z" fill="#A0616A"/>
<path d="M55.497 176.899L46.0679 175.748C45.7996 175.715 45.5415 175.625 45.3112 175.483C45.0809 175.342 44.8838 175.152 44.7333 174.927C44.5828 174.702 44.4824 174.448 44.439 174.181C44.3957 173.913 44.4103 173.64 44.482 173.379L46.9928 164.234C47.1678 162.86 47.8797 161.612 48.9722 160.763C50.0648 159.914 51.4489 159.534 52.8211 159.705C54.1933 159.877 55.4415 160.586 56.2922 161.678C57.1428 162.77 57.5264 164.155 57.3588 165.53L57.6047 174.981C57.6116 175.251 57.5603 175.52 57.4541 175.769C57.3479 176.018 57.1894 176.241 56.9894 176.423C56.7894 176.605 56.5526 176.742 56.295 176.824C56.0375 176.906 55.7653 176.932 55.497 176.899Z" fill="#7168D6"/>
<path d="M54.1781 220.129C53.0354 220.051 51.9337 219.672 50.9842 219.03C50.0347 218.389 49.2711 217.508 48.7705 216.476C48.27 215.444 48.0502 214.299 48.1335 213.155C48.2168 212.011 48.6001 210.909 49.2448 209.961L55.4039 203.557L77.855 183.419L89.8577 173.444C90.5581 172.862 91.3945 172.467 92.2887 172.297C93.1828 172.128 94.1054 172.188 94.9698 172.473C95.8343 172.758 96.6124 173.258 97.2311 173.926C97.8499 174.595 98.289 175.409 98.5074 176.294L104.778 201.7C104.883 202.122 104.828 202.569 104.623 202.953C104.418 203.337 104.077 203.631 103.668 203.778L96.8313 206.243C96.6024 206.325 96.3588 206.359 96.1161 206.343C95.8733 206.326 95.6367 206.259 95.4211 206.146C95.2056 206.033 95.0158 205.876 94.8639 205.686C94.7119 205.496 94.6011 205.276 94.5384 205.04L91.9379 195.274L77.4685 209.127L81.983 210.792C82.397 210.946 82.7381 211.25 82.9389 211.645C83.1396 212.039 83.1854 212.494 83.0671 212.92L81.6082 218.097C81.5076 218.458 81.294 218.777 80.9988 219.008C80.7037 219.238 80.3425 219.368 79.9683 219.378L54.1781 220.129Z" fill="#2F2E41"/>
<path d="M53.5648 205.69L52.9709 183.966L49.2248 174.438C48.46 172.494 48.1285 170.406 48.2538 168.32C48.379 166.235 48.9579 164.202 49.9499 162.364C50.9418 160.526 52.3229 158.927 53.9965 157.679C55.6701 156.432 57.5957 155.566 59.6385 155.142C59.9469 155.077 60.2544 155.015 60.561 154.954C62.5206 154.564 64.5399 154.59 66.4891 155.029C68.4382 155.468 70.274 156.311 71.8784 157.503C73.4827 158.696 74.8201 160.211 75.8045 161.952C76.7888 163.693 77.3983 165.622 77.5938 167.613L79.3541 183.967L79.347 183.999C76.54 196.503 68.4172 203.385 53.7839 205.656L53.5648 205.69Z" fill="#7168D6"/>
<path d="M62.4245 190.6C62.638 190.567 62.8538 190.551 63.0699 190.552L73.9086 174.481L71.8559 170.242L77.8389 166.304L82.201 173.455C82.5534 174.032 82.7092 174.709 82.6449 175.383C82.5807 176.057 82.2999 176.691 81.8448 177.192L67.0105 193.504C67.2435 194.304 67.2277 195.156 66.9652 195.947C66.7027 196.738 66.206 197.43 65.5411 197.932C64.8762 198.433 64.0746 198.72 63.243 198.754C62.4114 198.788 61.5891 198.568 60.8856 198.122C60.1821 197.677 59.6306 197.027 59.3046 196.26C58.9786 195.493 58.8935 194.645 59.0605 193.829C59.2276 193.012 59.6389 192.266 60.2398 191.689C60.8407 191.112 61.6027 190.732 62.4245 190.6Z" fill="#A0616A"/>
<path d="M72.9601 174.182C72.7169 174.114 72.4912 173.994 72.2984 173.831C72.1056 173.668 71.9503 173.465 71.843 173.236L68.0944 165.242C67.3797 164.164 67.1208 162.847 67.3743 161.578C67.6279 160.31 68.3733 159.194 69.4471 158.475C70.5209 157.756 71.8355 157.492 73.1028 157.743C74.3701 157.993 75.4866 158.736 76.2077 159.809L82.1302 166.392C82.2992 166.58 82.4258 166.802 82.5014 167.043C82.5769 167.284 82.5997 167.539 82.5681 167.79C82.5365 168.041 82.4512 168.282 82.3182 168.497C82.1851 168.712 82.0074 168.895 81.7971 169.035L74.4054 173.953C74.1951 174.093 73.9571 174.186 73.7077 174.226C73.4582 174.265 73.2032 174.25 72.9601 174.182Z" fill="#7168D6"/>
<path d="M187.763 151.015H156.109C155.652 151.015 155.215 150.834 154.892 150.511C154.57 150.187 154.388 149.749 154.388 149.292C154.388 148.835 154.57 148.397 154.892 148.074C155.215 147.751 155.652 147.569 156.109 147.569H187.763C188.219 147.569 188.657 147.751 188.979 148.074C189.302 148.397 189.483 148.835 189.483 149.292C189.483 149.749 189.302 150.187 188.979 150.511C188.657 150.834 188.219 151.015 187.763 151.015Z" fill="#CCCCCC"/>
<path d="M146.647 152.738C145.932 152.738 145.234 152.526 144.64 152.128C144.046 151.731 143.583 151.166 143.309 150.505C143.036 149.844 142.964 149.116 143.104 148.414C143.243 147.712 143.587 147.068 144.092 146.562C144.598 146.056 145.241 145.711 145.942 145.571C146.643 145.432 147.369 145.504 148.029 145.777C148.69 146.051 149.254 146.515 149.651 147.11C150.048 147.705 150.26 148.404 150.26 149.12C150.258 150.079 149.878 150.999 149.2 151.677C148.523 152.356 147.605 152.737 146.647 152.738Z" fill="#3F3D56"/>
<path d="M187.763 161.353H156.109C155.652 161.353 155.215 161.172 154.892 160.848C154.57 160.525 154.388 160.087 154.388 159.63C154.388 159.173 154.57 158.735 154.892 158.412C155.215 158.089 155.652 157.907 156.109 157.907H187.763C188.219 157.907 188.657 158.089 188.979 158.412C189.302 158.735 189.483 159.173 189.483 159.63C189.483 160.087 189.302 160.525 188.979 160.848C188.657 161.172 188.219 161.353 187.763 161.353Z" fill="#CCCCCC"/>
<path d="M146.647 163.076C145.932 163.076 145.234 162.864 144.64 162.466C144.046 162.069 143.583 161.504 143.309 160.843C143.036 160.181 142.964 159.454 143.104 158.752C143.243 158.05 143.587 157.406 144.092 156.9C144.598 156.394 145.241 156.049 145.942 155.909C146.643 155.77 147.369 155.841 148.029 156.115C148.69 156.389 149.254 156.853 149.651 157.448C150.048 158.043 150.26 158.742 150.26 159.458C150.258 160.417 149.877 161.337 149.2 162.015C148.523 162.693 147.605 163.075 146.647 163.076Z" fill="#3F3D56"/>
<path d="M187.763 171.691H156.109C155.652 171.691 155.215 171.509 154.892 171.186C154.57 170.863 154.388 170.425 154.388 169.968C154.388 169.511 154.57 169.073 154.892 168.75C155.215 168.427 155.652 168.245 156.109 168.245H187.763C188.219 168.245 188.657 168.427 188.979 168.75C189.302 169.073 189.483 169.511 189.483 169.968C189.483 170.425 189.302 170.863 188.979 171.186C188.657 171.509 188.219 171.691 187.763 171.691Z" fill="#CCCCCC"/>
<path d="M146.647 173.414C145.932 173.414 145.234 173.202 144.64 172.804C144.046 172.407 143.583 171.842 143.309 171.18C143.036 170.519 142.964 169.792 143.104 169.09C143.243 168.388 143.587 167.743 144.092 167.237C144.598 166.731 145.241 166.387 145.942 166.247C146.643 166.108 147.369 166.179 148.029 166.453C148.69 166.727 149.254 167.191 149.651 167.786C150.048 168.381 150.26 169.08 150.26 169.796C150.258 170.755 149.878 171.675 149.2 172.353C148.523 173.031 147.605 173.413 146.647 173.414Z" fill="#3F3D56"/>
<path d="M196.857 159.584H209.932C210.023 159.584 210.111 159.547 210.175 159.483C210.24 159.418 210.276 159.33 210.276 159.239V78.2889C210.276 78.1975 210.24 78.1099 210.175 78.0453C210.111 77.9806 210.023 77.9443 209.932 77.9443C209.841 77.9443 209.753 77.9806 209.689 78.0453C209.624 78.1099 209.588 78.1975 209.588 78.2889V158.894H196.857C196.812 158.894 196.767 158.903 196.725 158.92C196.683 158.938 196.645 158.963 196.613 158.995C196.581 159.027 196.556 159.065 196.538 159.107C196.521 159.149 196.512 159.194 196.512 159.239C196.512 159.284 196.521 159.329 196.538 159.371C196.556 159.413 196.581 159.451 196.613 159.483C196.645 159.515 196.683 159.54 196.725 159.558C196.767 159.575 196.812 159.584 196.857 159.584Z" fill="#3F3D56"/>
<path d="M252.882 25.381C252.008 25.4515 251.132 25.2609 250.366 24.8331C249.6 24.4053 248.978 23.7596 248.578 22.9776C248.179 22.1957 248.02 21.3127 248.121 20.4401C248.223 19.5676 248.58 18.7448 249.149 18.0758C249.717 17.4068 250.471 16.9217 251.314 16.6817C252.158 16.4417 253.054 16.4576 253.889 16.7275C254.723 16.9974 255.459 17.5092 256.004 18.198C256.548 18.8868 256.876 19.7218 256.946 20.5974C257.041 21.7715 256.666 22.9351 255.903 23.8322C255.141 24.7293 254.054 25.2864 252.882 25.381ZM252.827 24.6999C253.567 24.6403 254.272 24.3622 254.854 23.901C255.436 23.4398 255.869 22.816 256.097 22.1087C256.325 21.4014 256.338 20.6423 256.136 19.9273C255.933 19.2123 255.523 18.5736 254.958 18.0919C254.392 17.6102 253.697 17.3072 252.96 17.2212C252.223 17.1352 251.477 17.2701 250.816 17.6087C250.156 17.9474 249.61 18.4746 249.249 19.1238C248.887 19.773 248.726 20.5149 248.786 21.2558C248.825 21.7477 248.961 22.227 249.186 22.6663C249.41 23.1056 249.719 23.4964 250.094 23.8162C250.47 24.136 250.904 24.3786 251.373 24.5303C251.842 24.6819 252.336 24.7396 252.827 24.6999Z" fill="#CCCCCC"/>
<path d="M268.152 13.9848C269.66 13.9848 270.881 12.7611 270.881 11.2517C270.881 9.74222 269.66 8.51855 268.152 8.51855C266.645 8.51855 265.423 9.74222 265.423 11.2517C265.423 12.7611 266.645 13.9848 268.152 13.9848Z" fill="#CCCCCC"/>
<path d="M281.566 4.10086C282.358 4.10086 283 3.45808 283 2.66518C283 1.87227 282.358 1.22949 281.566 1.22949C280.775 1.22949 280.133 1.87227 280.133 2.66518C280.133 3.45808 280.775 4.10086 281.566 4.10086Z" fill="#CCCCCC"/>
<path d="M232.045 112.8C231.561 113.533 230.872 114.106 230.063 114.446C229.254 114.786 228.363 114.879 227.502 114.712C226.641 114.545 225.849 114.126 225.225 113.508C224.602 112.89 224.176 112.101 224 111.24C223.824 110.38 223.908 109.486 224.239 108.673C224.571 107.86 225.135 107.163 225.862 106.671C226.589 106.18 227.445 105.915 228.322 105.91C229.199 105.906 230.058 106.162 230.79 106.646C231.77 107.296 232.453 108.309 232.688 109.463C232.923 110.617 232.692 111.817 232.045 112.8ZM225.214 108.28C224.805 108.9 224.589 109.628 224.593 110.371C224.596 111.114 224.82 111.84 225.236 112.455C225.651 113.071 226.24 113.55 226.927 113.831C227.614 114.112 228.369 114.182 229.096 114.034C229.823 113.885 230.49 113.523 231.012 112.995C231.534 112.467 231.888 111.795 232.029 111.066C232.17 110.336 232.092 109.581 231.804 108.895C231.517 108.21 231.033 107.626 230.414 107.216C229.583 106.668 228.569 106.472 227.594 106.671C226.62 106.871 225.764 107.449 225.214 108.28Z" fill="#CCCCCC"/>
<path d="M237.357 129.134C238.865 129.134 240.086 127.911 240.086 126.401C240.086 124.892 238.865 123.668 237.357 123.668C235.85 123.668 234.628 124.892 234.628 126.401C234.628 127.911 235.85 129.134 237.357 129.134Z" fill="#CCCCCC"/>
<path d="M244.97 141.84C245.762 141.84 246.403 141.197 246.403 140.404C246.403 139.612 245.762 138.969 244.97 138.969C244.178 138.969 243.536 139.612 243.536 140.404C243.536 141.197 244.178 141.84 244.97 141.84Z" fill="#CCCCCC"/>
<path d="M121.93 38.2069C121.54 37.4202 121.391 36.5353 121.503 35.6641C121.615 34.7929 121.982 33.9744 122.558 33.3122C123.135 32.65 123.894 32.1739 124.741 31.9439C125.587 31.714 126.483 31.7406 127.314 32.0204C128.146 32.3003 128.875 32.8207 129.411 33.516C129.948 34.2112 130.266 35.0501 130.326 35.9264C130.386 36.8028 130.185 37.6773 129.749 38.4393C129.312 39.2014 128.66 39.8168 127.875 40.2077C126.821 40.7305 125.604 40.8135 124.489 40.4384C123.375 40.0633 122.455 39.2608 121.93 38.2069ZM129.262 34.558C128.932 33.8924 128.412 33.3398 127.768 32.9701C127.124 32.6004 126.385 32.4303 125.645 32.4811C124.904 32.532 124.195 32.8016 123.608 33.2559C123.021 33.7102 122.581 34.3287 122.345 35.0332C122.108 35.7378 122.086 36.4967 122.28 37.2141C122.474 37.9314 122.876 38.575 123.436 39.0634C123.995 39.5517 124.687 39.863 125.423 39.9578C126.159 40.0525 126.907 39.9266 127.571 39.5958C128.462 39.1514 129.14 38.3714 129.457 37.427C129.774 36.4825 129.704 35.4507 129.262 34.558Z" fill="#CCCCCC"/>
<path d="M107.517 38.7172C109.025 38.7172 110.246 37.4936 110.246 35.9841C110.246 34.4746 109.025 33.251 107.517 33.251C106.01 33.251 104.788 34.4746 104.788 35.9841C104.788 37.4936 106.01 38.7172 107.517 38.7172Z" fill="#CCCCCC"/>
<path d="M91.6032 36.9876C92.3949 36.9876 93.0367 36.3448 93.0367 35.5519C93.0367 34.759 92.3949 34.1162 91.6032 34.1162C90.8115 34.1162 90.1697 34.759 90.1697 35.5519C90.1697 36.3448 90.8115 36.9876 91.6032 36.9876Z" fill="#CCCCCC"/>
<path d="M70.7014 144.406L70.3017 143.386C69.1989 140.571 66.5618 138.407 63.7397 138.002C62.3316 137.817 60.9002 138.037 59.612 138.635C58.3237 139.233 57.2315 140.185 56.4623 141.381C55.8095 142.515 55.2942 143.723 54.9271 144.979C54.8013 145.353 54.6745 145.624 54.431 145.706C54.1567 145.805 53.8839 145.636 53.4317 145.355C53.3308 145.292 53.2143 145.26 53.0957 145.261C52.9771 145.262 52.8613 145.297 52.7618 145.362C52.6623 145.427 52.5833 145.518 52.5338 145.627C52.4844 145.735 52.4667 145.854 52.4827 145.972L52.9569 149.362L52.5601 149.009C49.9782 146.707 49.4478 142.376 51.3129 139.628L47.0682 140.502L47.2594 140.136C49.0223 136.728 52.0608 134.158 55.7105 132.988L51.6447 132.091L52.0556 131.838C55.6967 129.591 60.5002 129.655 64.2923 131.995C66.1969 133.217 67.7744 134.887 68.8874 136.859C70.0005 138.831 70.6154 141.046 70.6785 143.31L70.7014 144.406Z" fill="#2F2E41"/>
</g>
<defs>
<clipPath id="clip0_8564_7797">
<rect width="283" height="230" fill="white"/>
</clipPath>
</defs>
</svg>
