<svg width="44" height="44" viewBox="0 0 44 44" fill="none" xmlns="http://www.w3.org/2000/svg">
<g id="Group 48103356">
<g id="Charector">
<g id="Group 48103293">
<path id="Ellipse 3477" d="M0.174217 22.1743C0.143574 18.3353 1.12604 14.5562 3.02247 11.2182C4.91891 7.88026 7.66222 5.10155 10.9756 3.16247L12.6292 5.98811C9.81286 7.63632 7.48105 9.99823 5.86908 12.8355C4.25711 15.6728 3.42201 18.885 3.44806 22.1481L0.174217 22.1743Z" fill="#F87000"/>
<path id="Ellipse 3482" d="M11.2379 40.9887C7.89796 39.0958 5.11638 36.3554 3.17383 33.044C1.23128 29.7327 0.196503 25.9676 0.1739 22.1286L3.44779 22.1093C3.467 25.3724 4.34657 28.5728 5.99773 31.3874C7.6489 34.2021 10.0132 36.5314 12.8522 38.1404L11.2379 40.9887Z" fill="#E0211D"/>
<path id="Ellipse 3478" d="M10.9362 3.1856C14.2455 1.23959 18.0095 0.200869 21.8485 0.174245C25.6875 0.147622 29.4656 1.13404 32.8015 3.03397L31.1813 5.87888C28.3457 4.26394 25.1343 3.42549 21.8712 3.44812C18.6081 3.47075 15.4086 4.35366 12.5957 6.00777L10.9362 3.1856Z" fill="#FBB900"/>
<path id="Ellipse 3479" d="M32.7618 3.01139C36.1017 4.90432 38.8833 7.64472 40.8259 10.9561C42.7684 14.2674 43.8032 18.0325 43.8258 21.8715L40.5519 21.8908C40.5327 18.6277 39.6531 15.4273 38.002 12.6127C36.3508 9.79802 33.9865 7.46868 31.1475 5.85969L32.7618 3.01139Z" fill="#C5D805"/>
<path id="Ellipse 3480" d="M43.8255 21.8258C43.8561 25.6648 42.8737 29.4439 40.9772 32.7819C39.0808 36.1198 36.3375 38.8985 33.0241 40.8376L31.3705 38.012C34.1868 36.3638 36.5187 34.0019 38.1306 31.1646C39.7426 28.3273 40.5777 25.1151 40.5516 21.852L43.8255 21.8258Z" fill="#7ABE26"/>
<path id="Ellipse 3481" d="M33.0635 40.8145C29.7542 42.7605 25.9902 43.7992 22.1512 43.8259C18.3122 43.8525 14.5341 42.8661 11.1982 40.9661L12.8184 38.1212C15.654 39.7362 18.8654 40.5746 22.1285 40.552C25.3916 40.5294 28.5911 39.6464 31.404 37.9923L33.0635 40.8145Z" fill="#D9D9D9"/>
<circle id="Ellipse 3476" cx="21.9987" cy="22.0023" r="18.5524" transform="rotate(-0.457341 21.9987 22.0023)" fill="#D9D9D9"/>
</g>
<g id="Group 48103298">
<g id="Group 48103293_2">
<path id="Ellipse 3477_2" d="M43.8258 22.1743C43.8564 18.3353 42.874 14.5562 40.9775 11.2182C39.0811 7.88026 36.3378 5.10155 33.0244 3.16247L31.3708 5.98811C34.1871 7.63632 36.519 9.99823 38.1309 12.8355C39.7429 15.6728 40.578 18.885 40.5519 22.1481L43.8258 22.1743Z" fill="#F87000"/>
<path id="Ellipse 3482_2" d="M32.7621 40.9887C36.102 39.0958 38.8836 36.3554 40.8262 33.044C42.7687 29.7327 43.8035 25.9676 43.8261 22.1286L40.5522 22.1093C40.533 25.3724 39.6534 28.5728 38.0023 31.3874C36.3511 34.2021 33.9868 36.5314 31.1478 38.1404L32.7621 40.9887Z" fill="#E0211D"/>
<path id="Ellipse 3478_2" d="M33.0638 3.1856C29.7545 1.23959 25.9905 0.200869 22.1515 0.174245C18.3125 0.147622 14.5344 1.13404 11.1985 3.03397L12.8187 5.87888C15.6543 4.26394 18.8657 3.42549 22.1288 3.44812C25.3919 3.47075 28.5914 4.35366 31.4043 6.00777L33.0638 3.1856Z" fill="#FBB900"/>
<path id="Ellipse 3479_2" d="M11.2382 3.01139C7.89827 4.90432 5.11668 7.64472 3.17413 10.9561C1.23158 14.2674 0.196807 18.0325 0.174204 21.8715L3.4481 21.8908C3.46731 18.6277 4.34687 15.4273 5.99803 12.6127C7.6492 9.79802 10.0135 7.46868 12.8525 5.85969L11.2382 3.01139Z" fill="#C5D805"/>
<path id="Ellipse 3480_2" d="M0.17452 21.8258C0.143876 25.6648 1.12634 29.4439 3.02277 32.7819C4.91921 36.1198 7.66252 38.8985 10.9759 40.8376L12.6295 38.012C9.81316 36.3638 7.48135 34.0019 5.86938 31.1646C4.25741 28.3273 3.42232 25.1151 3.44836 21.852L0.17452 21.8258Z" fill="#7ABE26"/>
<path id="Ellipse 3481_2" d="M10.9365 40.8145C14.2458 42.7605 18.0098 43.7992 21.8488 43.8259C25.6878 43.8525 29.4659 42.8661 32.8018 40.9661L31.1816 38.1212C28.346 39.7362 25.1346 40.5746 21.8715 40.552C18.6084 40.5294 15.4089 39.6464 12.596 37.9923L10.9365 40.8145Z" fill="#D9D9D9"/>
<circle id="Ellipse 3476_2" cx="18.5524" cy="18.5524" r="18.5524" transform="matrix(-0.999968 -0.00798202 -0.00798191 0.999968 40.7012 3.59863)" fill="#D9D9D9"/>
</g>
<g id="Group 48103281">
<g id="Clip path group">
<g id="Group">
<g id="Mask group">
<mask id="mask0_8786_8164" style="mask-type:alpha" maskUnits="userSpaceOnUse" x="3" y="3" width="38" height="38">
<path id="Vector" d="M22.0409 40.5134C32.2435 40.5134 40.5143 32.2425 40.5143 22.0399C40.5143 11.8373 32.2435 3.56641 22.0409 3.56641C11.8382 3.56641 3.56738 11.8373 3.56739 22.0399C3.56739 32.2425 11.8382 40.5134 22.0409 40.5134Z" fill="#FFD8D8"/>
</mask>
<g mask="url(#mask0_8786_8164)">
<g id="Group 48103294">
<ellipse id="Ellipse 3464" cx="22.3226" cy="22.3172" rx="18.6229" ry="18.6229" fill="white"/>
<path id="Vector_2" d="M34.7328 34.7327C41.5896 27.8759 41.5896 16.7588 34.7328 9.90204C27.8761 3.04523 16.7592 3.04523 9.90248 9.90204C3.04577 16.7588 3.04577 27.8759 9.90248 34.7327C16.7592 41.5895 27.8761 41.5895 34.7328 34.7327Z" fill="black"/>
<path id="Vector_3" d="M35.5191 35.5197C42.81 28.2288 42.81 16.4079 35.5191 9.11707C28.2283 1.82619 16.4076 1.82619 9.11673 9.11707C1.82591 16.4079 1.82591 28.2288 9.11673 35.5197C16.4076 42.8105 28.2283 42.8105 35.5191 35.5197Z" fill="#FFE4CE"/>
<path id="Vector_4" d="M35.1034 35.1038C42.3177 27.8894 42.3177 16.1926 35.1034 8.97821C27.8891 1.76382 16.1925 1.76382 8.97816 8.97821C1.76387 16.1926 1.76387 27.8894 8.97816 35.1038C16.1925 42.3182 27.8891 42.3182 35.1034 35.1038Z" fill="#E9EFAB"/>
<path id="Vector_5" d="M30.4088 41.4283H13.8516V35.9683C13.8516 33.3278 15.9918 31.1875 18.6324 31.1875L22.131 32.6751L25.6297 31.1875C28.2702 31.1875 30.4105 33.3278 30.4105 35.9683V41.4283H30.4088Z" fill="white"/>
<path id="Vector_6" d="M19.7711 31.1875H18.6314C15.9909 31.1875 13.8506 33.3278 13.8506 35.9683V41.4283H20.2681L19.7711 31.1875Z" fill="#283F6D"/>
<path id="Vector_7" d="M19.77 31.1843H19.273C18.5491 31.1843 17.2852 33.6244 17.2852 33.6244L18.9666 35.3836L17.7473 37.2473L20.267 41.4234L19.77 31.1826V31.1843Z" fill="#1E2F52"/>
<path id="Vector_8" d="M16.1267 31.8975C14.7617 32.739 13.8506 34.2481 13.8506 35.9693V41.4293H16.1267V31.8991V31.8975Z" fill="#1E2F52"/>
<path id="Vector_9" d="M24.4896 31.1875H25.6294C28.2699 31.1875 30.4102 33.3278 30.4102 35.9683V41.4283H23.9927L24.4896 31.1875Z" fill="#283F6D"/>
<path id="Vector_10" d="M24.4896 31.1843H24.9866C25.7105 31.1843 26.9745 33.6244 26.9745 33.6244L25.2931 35.3836L26.5123 37.2473L23.9927 41.4234L24.4896 31.1826V31.1843Z" fill="#1E2F52"/>
<path id="Vector_11" d="M28.1104 31.8975C29.4754 32.739 30.3865 34.2481 30.3865 35.9693V41.4293H28.1104V31.8991V31.8975Z" fill="#1E2F52"/>
<path id="Vector_12" d="M19.8008 30.945C19.8008 32.1758 20.8958 32.9246 22.1862 32.9246H22.2276C23.5181 32.9246 24.4391 32.1758 24.4391 30.945V28.0957C24.4391 26.8649 23.5164 25.6357 22.2276 25.6357H22.1862C20.8958 25.6357 19.8008 26.8649 19.8008 28.0957V30.945Z" fill="#FFC0AD"/>
<path id="Vector_13" d="M30.9445 15.9951V25.4309C30.9445 27.914 28.834 29.9251 26.2332 29.9251H18.5501C15.9477 29.9251 13.8389 27.9124 13.8389 25.4309V16.1508L30.9461 15.9951H30.9445Z" fill="#FFD4BC"/>
<path id="Vector_14" d="M25.7969 22.057C25.7969 22.7478 26.1464 23.3094 26.5771 23.3094C27.0078 23.3094 27.3573 22.7495 27.3573 22.057C27.3573 21.3646 27.0078 20.8047 26.5771 20.8047C26.1464 20.8047 25.7969 21.3646 25.7969 22.057Z" fill="#5A2A00"/>
<path id="Vector_15" d="M17.4268 22.057C17.4268 22.7478 17.7763 23.3094 18.207 23.3094C18.6377 23.3094 18.9872 22.7495 18.9872 22.057C18.9872 21.3646 18.6377 20.8047 18.207 20.8047C17.7763 20.8047 17.4268 21.3646 17.4268 22.057Z" fill="#5A2A00"/>
<path id="Vector_16" d="M22.392 24.2014C22.889 24.2014 23.3644 24.0887 23.7885 23.8916C23.8398 23.9927 23.8697 24.0987 23.8697 24.2113C23.8697 24.7563 23.2087 25.197 22.392 25.197C21.5753 25.197 20.916 24.7563 20.916 24.2113C20.916 24.0987 20.9458 23.9927 20.9972 23.8916C21.4213 24.0904 21.895 24.2014 22.3937 24.2014H22.392Z" fill="#FFC0AD"/>
<path id="Vector_17" d="M25.46 24.802C25.46 25.3769 25.9486 25.8424 26.55 25.8424C27.1513 25.8424 27.64 25.3769 27.64 24.802C27.64 24.2272 27.1513 23.7617 26.55 23.7617C25.9486 23.7617 25.46 24.2272 25.46 24.802Z" fill="#FFC0AD"/>
<path id="Vector_18" d="M19.3226 24.802C19.3226 25.3769 18.8339 25.8424 18.2326 25.8424C17.6313 25.8424 17.1426 25.3769 17.1426 24.802C17.1426 24.2272 17.6313 23.7617 18.2326 23.7617C18.8339 23.7617 19.3226 24.2272 19.3226 24.802Z" fill="#FFC0AD"/>
<path id="Vector_19" d="M24.8551 27.3958C24.8551 27.9309 24.1958 28.3649 23.3841 28.3649C22.5724 28.3649 21.9131 27.9309 21.9131 27.3958C21.9131 26.8608 22.5724 26.4268 23.3841 26.4268C24.1958 26.4268 24.8551 26.8608 24.8551 27.3958Z" fill="#B83336"/>
<g id="Clip path group_2">
<mask id="mask1_8786_8164" style="mask-type:luminance" maskUnits="userSpaceOnUse" x="21" y="26" width="4" height="3">
<g id="clippath-3">
<path id="Vector_20" d="M24.86 27.3871C24.86 27.9221 24.2007 28.3561 23.389 28.3561C22.5773 28.3561 21.918 27.9221 21.918 27.3871C21.918 26.852 22.5773 26.418 23.389 26.418C24.2007 26.418 24.86 26.852 24.86 27.3871Z" fill="white"/>
</g>
</mask>
<g mask="url(#mask1_8786_8164)">
<g id="Group_2">
<path id="Vector_21" d="M22.3574 28.1491C22.3574 27.5643 22.8825 27.0889 23.5303 27.0889C24.178 27.0889 24.7031 27.5643 24.7031 28.1491C24.7031 28.7338 24.178 29.2093 23.5303 29.2093C22.8825 29.2093 22.3574 28.7338 22.3574 28.1491Z" fill="#FC8879"/>
</g>
</g>
</g>
<path id="Vector_22" d="M23.3875 33.6607C23.3875 34.2256 22.6354 34.6845 22.1185 34.6845C21.6017 34.6845 20.8496 34.2256 20.8496 33.6607C20.8496 33.0959 21.6133 32.6768 22.1318 32.6768C22.6503 32.6768 23.3891 33.0942 23.3891 33.6607H23.3875Z" fill="#283F6D"/>
<path id="Vector_23" d="M23.083 36.8994C22.9969 35.1003 22.3426 33.8463 22.3426 33.8463L22.0908 33.6807L21.839 33.8463C21.839 33.8463 21.1846 35.1003 21.0985 36.8994C21.0124 38.6984 21.4795 41.3754 21.4795 41.3754H22.7037C22.7037 41.3754 23.1692 38.6984 23.0847 36.8994H23.083Z" fill="#283F6D"/>
<path id="Vector_24" d="M19.7696 30.3125L18.6299 31.1855C18.6299 31.1855 18.8784 33.0044 20.9292 34.164C20.9292 32.963 22.1285 32.6731 22.1285 32.6731C22.1285 32.6731 19.9352 31.9276 19.7696 30.3125Z" fill="white"/>
<path id="Vector_25" d="M24.4893 30.3125L25.629 31.1855C25.629 31.1855 25.3805 33.0044 23.3297 34.164C23.3297 32.963 22.1304 32.6731 22.1304 32.6731C22.1304 32.6731 24.3237 31.9276 24.4893 30.3125Z" fill="white"/>
<path id="Vector_26" d="M30.917 13.3112C29.4426 11.711 27.9286 12.1996 27.9286 12.1996C24.4912 7.8429 18.8804 9.22778 15.5176 11.658C11.8434 14.0069 11.3232 13.3725 11.3232 13.3725C11.807 14.0086 12.3834 14.5354 12.9516 14.9114C11.8798 18.4747 13.7633 23.8138 13.7633 23.8138H14.6662V17.8618C14.6662 17.1975 15.1217 16.6607 15.7231 16.5067C15.9351 16.452 18.3073 17.4675 22.0859 17.4675C25.8645 17.4675 27.97 16.4106 27.97 16.4106C29.1958 16.1389 30.4034 17.0699 30.4034 18.3223V23.8121H30.9733C31.9871 19.6707 32.6067 15.1483 30.9153 13.3112H30.917Z" fill="url(#paint0_linear_8786_8164)"/>
<path id="Vector_27" d="M30.9161 13.3139C29.6108 11.8976 28.2739 12.1179 27.9857 12.1858C28.8024 13.5889 28.5439 15.4045 27.4175 16.632C27.7687 16.5028 27.9509 16.4117 27.9509 16.4117C29.1767 16.14 30.3728 17.071 30.3728 18.3233V23.8132H30.9741C31.9879 19.6718 32.6075 15.1494 30.9161 13.3123V13.3139Z" fill="url(#paint1_linear_8786_8164)"/>
<path id="Vector_28" d="M12.9306 14.9912C11.9102 18.5528 13.7639 23.814 13.7639 23.814H14.6352V17.862C14.6352 17.1878 15.1189 16.6461 15.7319 16.502C14.7131 16.1922 13.7738 15.6704 12.9306 14.9912Z" fill="url(#paint2_linear_8786_8164)"/>
</g>
</g>
</g>
</g>
</g>
<path id="Polygon 11" d="M9.89908 15.1209L3.23095 15.4939L6.29216 9.50013L9.89908 15.1209Z" fill="#C5D805"/>
</g>
</g>
</g>
</g>
<defs>
<linearGradient id="paint0_linear_8786_8164" x1="14.2388" y1="10.4553" x2="29.2853" y2="25.5018" gradientUnits="userSpaceOnUse">
<stop stop-color="#A95C00"/>
<stop offset="1" stop-color="#5A2A00"/>
</linearGradient>
<linearGradient id="paint1_linear_8786_8164" x1="29.6936" y1="23.8132" x2="29.6936" y2="12.1311" gradientUnits="userSpaceOnUse">
<stop stop-color="#A95C00"/>
<stop offset="1" stop-color="#5A2A00"/>
</linearGradient>
<linearGradient id="paint2_linear_8786_8164" x1="14.178" y1="23.814" x2="14.178" y2="14.9912" gradientUnits="userSpaceOnUse">
<stop stop-color="#A95C00"/>
<stop offset="1" stop-color="#5A2A00"/>
</linearGradient>
</defs>
</svg>
