<svg width="44" height="44" viewBox="0 0 44 44" fill="none" xmlns="http://www.w3.org/2000/svg">
<g id="Charector">
<g id="Group 48103293">
<path id="Ellipse 3477" d="M43.8258 22.1744C43.8564 18.3354 42.874 14.5563 40.9775 11.2183C39.0811 7.88031 36.3377 5.10158 33.0243 3.16249L31.3707 5.98814C34.1871 7.63637 36.5189 9.99829 38.1309 12.8356C39.7429 15.6729 40.578 18.8852 40.5519 22.1483L43.8258 22.1744Z" fill="#F87000"/>
<path id="Ellipse 3482" d="M32.762 40.989C36.102 39.096 38.8836 36.3556 40.8261 33.0443C42.7687 29.7329 43.8035 25.9677 43.8261 22.1287L40.5522 22.1094C40.533 25.3726 39.6534 28.573 38.0022 31.3876C36.3511 34.2023 33.9867 36.5317 31.1477 38.1407L32.762 40.989Z" fill="#E0211D"/>
<path id="Ellipse 3478" d="M33.0638 3.18562C29.7544 1.2396 25.9904 0.200868 22.1514 0.174244C18.3124 0.147621 14.5342 1.13405 11.1982 3.03399L12.8185 5.87892C15.6541 4.26397 18.8655 3.42551 22.1287 3.44814C25.3918 3.47077 28.5913 4.35369 31.4042 6.00781L33.0638 3.18562Z" fill="#FBB900"/>
<path id="Ellipse 3479" d="M11.238 3.01141C7.89801 4.90436 5.11641 7.64477 3.17385 10.9561C1.23129 14.2675 0.196504 18.0327 0.173902 21.8717L3.44782 21.891C3.46703 18.6278 4.3466 15.4274 5.99777 12.6127C7.64895 9.79809 10.0133 7.46873 12.8523 5.85972L11.238 3.01141Z" fill="#C5D805"/>
<path id="Ellipse 3480" d="M0.174217 21.826C0.143574 25.665 1.12604 29.4441 3.02249 32.7821C4.91894 36.1201 7.66227 38.8988 10.9757 40.8379L12.6293 38.0122C9.81293 36.364 7.4811 34.0021 5.86912 31.1648C4.25714 28.3275 3.42204 25.1152 3.44808 21.8521L0.174217 21.826Z" fill="#7ABE26"/>
<path id="Ellipse 3481" d="M10.9362 40.8148C14.2456 42.7608 18.0096 43.7995 21.8486 43.8262C25.6876 43.8528 29.4658 42.8664 32.8018 40.9664L31.1815 38.1215C28.3459 39.7364 25.1345 40.5749 21.8713 40.5523C18.6082 40.5296 15.4087 39.6467 12.5958 37.9926L10.9362 40.8148Z" fill="#D9D9D9"/>
<circle id="Ellipse 3476" cx="18.5525" cy="18.5525" r="18.5525" transform="matrix(-0.999968 -0.00798196 -0.00798196 0.999968 40.7012 3.59863)" fill="#D9D9D9"/>
</g>
<g id="Group 48103281">
<g id="Clip path group">
<g id="Group">
<path id="Vector" d="M22.041 40.5136C32.2437 40.5136 40.5146 32.2427 40.5146 22.04C40.5146 11.8373 32.2437 3.56641 22.041 3.56641C11.8383 3.56641 3.56738 11.8373 3.56739 22.04C3.56739 32.2427 11.8383 40.5136 22.041 40.5136Z" fill="#FFC2C0"/>
<g id="Mask group">
<mask id="mask0_8786_8271" style="mask-type:alpha" maskUnits="userSpaceOnUse" x="3" y="3" width="38" height="38">
<path id="Vector_2" d="M22.041 40.5136C32.2437 40.5136 40.5146 32.2427 40.5146 22.04C40.5146 11.8373 32.2437 3.56641 22.041 3.56641C11.8383 3.56641 3.56738 11.8373 3.56739 22.04C3.56739 32.2427 11.8383 40.5136 22.041 40.5136Z" fill="#FFD8D8"/>
</mask>
<g mask="url(#mask0_8786_8271)">
<g id="Group 48103297">
<ellipse id="Ellipse 3464" cx="22.0439" cy="22.04" rx="18.623" ry="18.623" fill="#FFC2C0"/>
<path id="Vector_3" d="M22.0399 39.5973C31.7369 39.5973 39.5978 31.7364 39.5978 22.0394C39.5978 12.3424 31.7369 4.48145 22.0399 4.48145C12.3429 4.48145 4.48193 12.3424 4.48193 22.0394C4.48193 31.7364 12.3429 39.5973 22.0399 39.5973Z" fill="black"/>
<path id="Vector_4" d="M22.0396 40.7062C32.3505 40.7062 40.7091 32.3476 40.7091 22.0367C40.7091 11.7258 32.3505 3.36719 22.0396 3.36719C11.7287 3.36719 3.37012 11.7258 3.37012 22.0367C3.37011 32.3476 11.7287 40.7062 22.0396 40.7062Z" fill="#FFC2C0"/>
<path id="Vector_5" d="M30.1301 41.1462H13.5728V35.6861C13.5728 33.0456 15.713 30.9053 18.3536 30.9053L21.8523 32.3929L25.3509 30.9053C27.9915 30.9053 30.1318 33.0456 30.1318 35.6861V41.1462H30.1301Z" fill="white"/>
<path id="Vector_6" d="M19.4909 30.9053H18.3512C15.7106 30.9053 13.5703 33.0456 13.5703 35.6861V41.1462H19.9879L19.4909 30.9053Z" fill="#283F6D"/>
<path id="Vector_7" d="M19.4917 30.906H18.9947C18.2708 30.906 17.0068 33.3461 17.0068 33.3461L18.6883 35.1054L17.469 36.969L19.9887 41.1452L19.4917 30.9043V30.906Z" fill="#1E2F52"/>
<path id="Vector_8" d="M15.8464 31.6143C14.4814 32.4558 13.5703 33.9649 13.5703 35.6861V41.1461H15.8464V31.6159V31.6143Z" fill="#1E2F52"/>
<path id="Vector_9" d="M24.2113 30.9053H25.351C27.9916 30.9053 30.1319 33.0456 30.1319 35.6861V41.1462H23.7144L24.2113 30.9053Z" fill="#283F6D"/>
<path id="Vector_10" d="M24.2113 30.906H24.7083C25.4322 30.906 26.6962 33.3461 26.6962 33.3461L25.0148 35.1054L26.234 36.969L23.7144 41.1452L24.2113 30.9043V30.906Z" fill="#1E2F52"/>
<path id="Vector_11" d="M27.8306 31.6143C29.1956 32.4558 30.1067 33.9649 30.1067 35.6861V41.1461H27.8306V31.6159V31.6143Z" fill="#1E2F52"/>
<path id="Vector_12" d="M19.5225 30.6618C19.5225 31.8927 20.6175 32.6414 21.9079 32.6414H21.9493C23.2398 32.6414 24.1608 31.8927 24.1608 30.6618V27.8125C24.1608 26.5817 23.2381 25.3525 21.9493 25.3525H21.9079C20.6175 25.3525 19.5225 26.5817 19.5225 27.8125V30.6618Z" fill="#FFC0AD"/>
<path id="Vector_13" d="M30.6658 15.7119V25.1477C30.6658 27.6309 28.5553 29.642 25.9545 29.642H18.2713C15.6689 29.642 13.5601 27.6293 13.5601 25.1477V15.8676L30.6674 15.7119H30.6658Z" fill="#FFD4BC"/>
<path id="Vector_14" d="M22.1137 23.9211C22.6107 23.9211 23.0861 23.8085 23.5102 23.6113C23.5615 23.7124 23.5914 23.8184 23.5914 23.931C23.5914 24.4761 22.9304 24.9167 22.1137 24.9167C21.297 24.9167 20.6377 24.4761 20.6377 23.931C20.6377 23.8184 20.6675 23.7124 20.7189 23.6113C21.1429 23.8101 21.6167 23.9211 22.1154 23.9211H22.1137Z" fill="#FFC0AD"/>
<path id="Vector_15" d="M25.1797 24.5237C25.1797 25.0986 25.6684 25.564 26.2697 25.564C26.871 25.564 27.3597 25.0986 27.3597 24.5237C27.3597 23.9489 26.871 23.4834 26.2697 23.4834C25.6684 23.4834 25.1797 23.9489 25.1797 24.5237Z" fill="#FFC0AD"/>
<path id="Vector_16" d="M19.0448 24.5237C19.0448 25.0986 18.5561 25.564 17.9548 25.564C17.3534 25.564 16.8647 25.0986 16.8647 24.5237C16.8647 23.9489 17.3534 23.4834 17.9548 23.4834C18.5561 23.4834 19.0448 23.9489 19.0448 24.5237Z" fill="#FFC0AD"/>
<path id="Vector_17" d="M23.8508 25.8408C23.8508 26.8729 23.0126 27.7094 21.9789 27.7094C20.9452 27.7094 20.1069 26.8729 20.1069 25.8408" fill="#B83336"/>
<g id="Clip path group_2">
<mask id="mask1_8786_8271" style="mask-type:luminance" maskUnits="userSpaceOnUse" x="20" y="25" width="4" height="3">
<g id="clippath-1">
<path id="Vector_18" d="M23.8498 25.8389C23.8498 26.8709 23.0116 27.7075 21.9779 27.7075C20.9442 27.7075 20.106 26.8709 20.106 25.8389" fill="white"/>
</g>
</mask>
<g mask="url(#mask1_8786_8271)">
<g id="Group_2">
<path id="Vector_19" d="M24.2219 28.3005C24.2219 29.2895 23.4185 30.0913 22.4279 30.0913C21.4372 30.0913 20.6338 29.2895 20.6338 28.3005C20.6338 27.3115 21.4372 26.5098 22.4279 26.5098C23.4185 26.5098 24.2219 27.3115 24.2219 28.3005Z" fill="#FC8879"/>
</g>
</g>
</g>
<path id="Vector_20" d="M19.1771 21.3473C18.9386 20.9563 18.314 21.1005 18.1914 21.5627C18.0689 21.1005 17.4443 20.9563 17.2058 21.3473C16.7436 22.1027 18.1914 23.042 18.1914 23.042C18.1914 23.042 19.6393 22.1027 19.1771 21.3473Z" fill="#ED6B74"/>
<path id="Vector_21" d="M27.1288 21.3473C26.8902 20.9563 26.2657 21.1005 26.1431 21.5627C26.0205 21.1005 25.396 20.9563 25.1575 21.3473C24.6953 22.1027 26.1431 23.042 26.1431 23.042C26.1431 23.042 27.5909 22.1027 27.1288 21.3473Z" fill="#ED6B74"/>
<path id="Vector_22" d="M23.1072 33.3785C23.1072 33.9434 22.3551 34.4023 21.8383 34.4023C21.3214 34.4023 20.5693 33.9434 20.5693 33.3785C20.5693 32.8136 21.333 32.3945 21.8515 32.3945C22.37 32.3945 23.1089 32.812 23.1089 33.3785H23.1072Z" fill="#283F6D"/>
<path id="Vector_23" d="M22.8038 36.6162C22.7176 34.8171 22.0633 33.5631 22.0633 33.5631L21.8115 33.3975L21.5597 33.5631C21.5597 33.5631 20.9053 34.8171 20.8192 36.6162C20.7331 38.4152 21.2002 41.0922 21.2002 41.0922H22.4244C22.4244 41.0922 22.8899 38.4152 22.8054 36.6162H22.8038Z" fill="#283F6D"/>
<path id="Vector_24" d="M19.4913 30.0322L18.3516 30.9052C18.3516 30.9052 18.6 32.7241 20.6509 33.8837C20.6509 32.6827 21.8502 32.3928 21.8502 32.3928C21.8502 32.3928 19.6569 31.6474 19.4913 30.0322Z" fill="white"/>
<path id="Vector_25" d="M24.211 30.0322L25.3507 30.9052C25.3507 30.9052 25.1022 32.7241 23.0514 33.8837C23.0514 32.6827 21.8521 32.3928 21.8521 32.3928C21.8521 32.3928 24.0453 31.6474 24.211 30.0322Z" fill="white"/>
<path id="Vector_26" d="M30.6359 13.0309C29.1615 11.4307 27.6474 11.9194 27.6474 11.9194C24.21 7.56262 18.5992 8.94751 15.2364 11.3777C11.5622 13.7267 11.042 13.0922 11.042 13.0922C11.5257 13.7284 12.1022 14.2551 12.6704 14.6312C11.5986 18.1945 13.4821 23.5336 13.4821 23.5336H14.3849V17.5815C14.3849 16.9173 14.8405 16.3805 15.4418 16.2265C15.6539 16.1718 18.0261 17.1873 21.8047 17.1873C25.5833 17.1873 27.6888 16.1304 27.6888 16.1304C28.9147 15.8587 30.1223 16.7897 30.1223 18.0421V23.5319H30.6922C31.706 19.3905 32.3256 14.8681 30.6342 13.0309H30.6359Z" fill="url(#paint0_linear_8786_8271)"/>
<path id="Vector_27" d="M30.6369 13.0317C29.3315 11.6153 27.9946 11.8357 27.7064 11.9036C28.5231 13.3067 28.2646 15.1223 27.1382 16.3498C27.4894 16.2206 27.6716 16.1295 27.6716 16.1295C28.8975 15.8578 30.0935 16.7888 30.0935 18.0412V23.531H30.6948C31.7087 19.3896 32.3282 14.8672 30.6369 13.0301V13.0317Z" fill="url(#paint1_linear_8786_8271)"/>
<path id="Vector_28" d="M12.6499 14.707C11.6294 18.2686 13.4831 23.5299 13.4831 23.5299H14.3545V17.5779C14.3545 16.9036 14.8382 16.3619 15.4511 16.2178C14.4323 15.908 13.4931 15.3862 12.6499 14.707Z" fill="url(#paint2_linear_8786_8271)"/>
</g>
</g>
</g>
</g>
</g>
<path id="Polygon 11" d="M34.0927 29.0867L40.7713 29.0568L37.4061 34.8854L34.0927 29.0867Z" fill="#E0211D"/>
</g>
</g>
<defs>
<linearGradient id="paint0_linear_8786_8271" x1="13.9575" y1="10.175" x2="29.0041" y2="25.2216" gradientUnits="userSpaceOnUse">
<stop stop-color="#A95C00"/>
<stop offset="1" stop-color="#5A2A00"/>
</linearGradient>
<linearGradient id="paint1_linear_8786_8271" x1="29.4143" y1="23.531" x2="29.4143" y2="11.8489" gradientUnits="userSpaceOnUse">
<stop stop-color="#A95C00"/>
<stop offset="1" stop-color="#5A2A00"/>
</linearGradient>
<linearGradient id="paint2_linear_8786_8271" x1="13.8973" y1="23.5299" x2="13.8973" y2="14.707" gradientUnits="userSpaceOnUse">
<stop stop-color="#A95C00"/>
<stop offset="1" stop-color="#5A2A00"/>
</linearGradient>
</defs>
</svg>
