<svg xmlns="http://www.w3.org/2000/svg" width="80" height="80" viewBox="0 0 80 80"><defs><style>.a{fill:#f8f8f8;}.b,.c{fill:#593cc7;}.c{stroke:#593cc7;}</style></defs><g transform="translate(-40 -1406)"><rect class="a" width="80" height="80" rx="12" transform="translate(40 1406)"/><g transform="translate(41.5 1402.621)"><path class="b" d="M13.53,70.454A6.987,6.987,0,1,0,6.5,63.467,7.024,7.024,0,0,0,13.53,70.454Z" transform="translate(5 -8.666)"/><path class="b" d="M74.24,63.467a7.03,7.03,0,1,0,7.03-6.986A7.024,7.024,0,0,0,74.24,63.467Z" transform="translate(-22.288 -8.666)"/><path class="c" d="M31.707,27.63a24.094,24.094,0,0,0-8.465,8.183,1.1,1.1,0,0,0-.172.624h0a1.1,1.1,0,0,0,2.034.531,22.1,22.1,0,0,1,37.287-.329H53.863a1.1,1.1,0,1,0-.031,2.19H64.6a1.1,1.1,0,0,0,1.1-1.1V27a1.1,1.1,0,1,0-2.19-.031V34.4A24.316,24.316,0,0,0,31.707,27.63Z" transform="translate(-4.473)"/></g></g></svg>