<svg xmlns="http://www.w3.org/2000/svg" width="27.004" height="38.97" viewBox="0 0 27.004 38.97"><defs><style>.a{fill:#fff;}</style></defs><g transform="translate(0 0)"><path class="a" d="M192.02,150.281h-4.411a10.343,10.343,0,0,0-2.428-5.124H192a2.228,2.228,0,1,0,.022-4.456H169.474a2.228,2.228,0,1,0,0,4.456h6.461a7.531,7.531,0,0,1,7.107,5.124H169.474a2.228,2.228,0,1,0,0,4.456h13.568a7.724,7.724,0,0,1-1.849,3.1,7.426,7.426,0,0,1-5.258,2.25h-6.461a2.159,2.159,0,0,0-1.537,3.743l16.13,15.239a2.2,2.2,0,0,0,3.141-.111,2.145,2.145,0,0,0-.045-3.03c-.022-.022-.045-.022-.045-.045l-12.053-11.34h.847A11.967,11.967,0,0,0,184.334,161a11.485,11.485,0,0,0,3.275-6.26h4.411a2.228,2.228,0,1,0,0-4.456Z" transform="translate(-167.245 -140.701)"/></g></svg>