<svg xmlns="http://www.w3.org/2000/svg" width="56.128" height="81" viewBox="0 0 56.128 81"><defs><style>.a{opacity:0.5;}.b{fill:#fff;}</style></defs><g class="a" transform="translate(-167.245 -140.701)"><g transform="translate(167.245 140.701)"><path class="b" d="M218.741,160.613h-9.169a21.5,21.5,0,0,0-5.048-10.651H218.7a4.631,4.631,0,1,0,.046-9.261H171.878a4.631,4.631,0,1,0,0,9.261h13.429a15.653,15.653,0,0,1,14.772,10.651h-28.2a4.631,4.631,0,1,0,0,9.261h28.2a16.054,16.054,0,0,1-3.844,6.437,15.435,15.435,0,0,1-10.929,4.677H171.878a4.488,4.488,0,0,0-3.2,7.78l33.527,31.674a4.573,4.573,0,0,0,6.529-.232,4.458,4.458,0,0,0-.093-6.3c-.046-.046-.093-.046-.093-.093L183.5,190.25h1.76a24.874,24.874,0,0,0,17.5-7.363,23.871,23.871,0,0,0,6.807-13.012h9.169a4.631,4.631,0,1,0,0-9.261Z" transform="translate(-167.245 -140.701)"/></g></g></svg>