<svg width="23" height="23" viewBox="0 0 23 23" fill="none" xmlns="http://www.w3.org/2000/svg">
<path d="M22.3068 21.2707L17.8303 16.8169C19.4485 14.9325 20.2933 12.5062 20.1951 10.0251C20.0969 7.54412 19.0629 5.19207 17.3008 3.44123C16.3942 2.52256 15.3128 1.79439 14.1202 1.29961C12.9276 0.804821 11.648 0.55343 10.3568 0.560191C8.76489 0.55497 7.19539 0.934715 5.78226 1.66701C4.36913 2.3993 3.15435 3.46239 2.24162 4.76552C1.3289 6.06864 0.74535 7.57307 0.540783 9.15041C0.336217 10.7277 0.516712 12.3311 1.06687 13.8237C1.61702 15.3162 2.52049 16.6535 3.70014 17.7215C4.87979 18.7895 6.30057 19.5564 7.84121 19.9567C9.38184 20.3571 10.9966 20.379 12.5475 20.0205C14.0985 19.6621 15.5396 18.934 16.7478 17.8984L21.2243 22.3712C21.3544 22.4882 21.522 22.5552 21.697 22.5601C21.7958 22.5589 21.8935 22.5383 21.9843 22.4994C22.0752 22.4605 22.1575 22.4041 22.2265 22.3334C22.3684 22.1951 22.4515 22.0075 22.4585 21.8096C22.4655 21.6117 22.396 21.4187 22.2643 21.2707H22.3068ZM4.45738 16.3068C3.68044 15.5392 3.0655 14.6238 2.64897 13.6146C2.23244 12.6054 2.02277 11.5229 2.03239 10.4313C2.04521 8.22669 2.9147 6.11327 4.45738 4.53698C5.23354 3.76086 6.15659 3.14692 7.1727 2.73093C8.1888 2.31494 9.27763 2.10524 10.3757 2.11406C12.0208 2.12526 13.626 2.62075 14.9908 3.53861C16.3555 4.45646 17.4192 5.75594 18.0487 7.27454C18.6783 8.79314 18.8458 10.4635 18.5303 12.0767C18.2149 13.6899 17.4304 15.1744 16.2751 16.3446C14.6935 17.8922 12.5705 18.763 10.3568 18.7722C8.14147 18.7617 6.02045 17.8753 4.45738 16.3068Z" fill="#AEAEAE"/>
</svg>
