<?xml version="1.0" encoding="utf-8"?>
<!-- Generator: Adobe Illustrator 25.4.7, SVG Export Plug-In . SVG Version: 6.00 Build 0)  -->
<svg version="1.1" id="Layer_1" xmlns="http://www.w3.org/2000/svg" xmlns:xlink="http://www.w3.org/1999/xlink" x="0px" y="0px"
	 viewBox="0 0 200 200" style="enable-background:new 0 0 200 200;" xml:space="preserve">
<style type="text/css">
	.st0{fill-rule:evenodd;clip-rule:evenodd;fill:#FFFFFF;}
	.st1{fill-rule:evenodd;clip-rule:evenodd;fill:#55A53F;}
</style>
<path class="st0" d="M69,82h-2.8c-0.4-1.9-1.2-3.5-2.3-5.1h5.2c1.4,0,2.6-1.1,2.7-2.4c0-1.4-1.1-2.6-2.4-2.7l0,0H43.5
	c-1.4,0-2.6,1.1-2.7,2.4c0,1.4,1.1,2.6,2.4,2.7h10.3c3.2,0,6.1,2,7.2,5.1H43.5c-1.4,0-2.6,1.1-2.7,2.4c0,1.4,1.1,2.6,2.4,2.7h17.6
	c-1.1,3-4,5.1-7.2,5.1H43.5c-1.4,0-2.6,1.1-2.6,2.6c0,0.3,0.1,0.7,0.2,1c0.1,0.3,0.3,0.6,0.6,0.8L62.1,117c1,1,2.7,1,3.7,0
	s1-2.4,0.1-3.4l-0.1-0.1L49.7,97.3h4c6.1,0,11.3-4.2,12.5-10.2H69c1.4,0,2.6-1.1,2.7-2.4c0-1.4-1.1-2.6-2.4-2.7l0,0L69,82L69,82z"/>
<g>
	<g>
		<path class="st1" d="M139.8,87.8c8.5,0,16.7,3.4,22.7,9.4s9.4,14.2,9.4,22.7s-3.4,16.7-9.4,22.7s-14.2,9.4-22.7,9.4
			s-16.7-3.4-22.7-9.4s-9.4-14.2-9.4-22.7s3.4-16.7,9.4-22.7C123,91.2,131.2,87.8,139.8,87.8L139.8,87.8z M139.8,95.9
			c-7.5,0-14.6,3.5-19.2,9.4c-4.6,6-6.1,13.7-4.2,20.9s7.1,13.2,14.1,16.1c6.9,2.9,14.8,2.4,21.3-1.4c6.5-3.7,10.9-10.3,11.9-17.8
			c1-7.4-1.6-14.9-6.9-20.2C152.3,98.4,146.2,95.9,139.8,95.9L139.8,95.9z M152.5,107.3L152.5,107.3c-4-4-9.5-5.9-15.1-5.1
			c-5.5,0.7-10.4,4-13.2,8.8c-2.8,4.8-3.2,10.7-1,15.9c2.1,5.2,6.6,9,12,10.5c5.4,1.4,11.2,0.3,15.6-3.1c4.4-3.4,7-8.7,7-14.3
			C157.7,115.2,155.9,110.6,152.5,107.3L152.5,107.3z M154.2,154.7v30.6l-14.4-10l-14.4,10v-30.6
			C134.6,158.5,144.9,158.5,154.2,154.7L154.2,154.7z M28.1,19.6v134.9c0,2.7,2.2,4.8,4.8,4.8h82.3c2.7,0,4.8-2.2,4.8-4.8l0,0
			c0-1.6-0.8-3-2-3.9c-7.6-5.4-12.9-13.5-14.9-22.7c-2.1-10-0.1-20.4,5.6-28.9c5-7.4,12.5-12.8,21.1-15.2c2.1-0.6,3.6-2.5,3.6-4.6
			v-28c0-2.7-2.2-4.8-4.8-4.8H111c-2.7,0-4.8-2.2-4.8-4.8v-22c0-2.7-2.2-4.8-4.8-4.8H33C30.2,14.8,28.1,16.9,28.1,19.6z M41.9,149.4
			c-1.6,0-2.9-1.3-2.9-2.9c0-1.6,1.3-2.9,2.9-2.9h50.4c1.6,0,2.9,1.3,2.9,2.9c0,1.6-1.3,2.9-2.9,2.9H41.9z M41.9,135.9L41.9,135.9
			c-1.6,0-2.9-1.3-2.9-2.9s1.3-2.9,2.9-2.9h50.4c1.6,0,2.9,1.3,2.9,2.9s-1.3,2.9-2.9,2.9H41.9z M41.9,57.9H118
			c1.6,0,2.9-1.3,2.9-2.9c0-1.6-1.3-2.9-2.9-2.9H41.9c-1.6,0-2.9,1.3-2.9,2.9C39,56.6,40.3,57.9,41.9,57.9L41.9,57.9z M41.9,45.6
			h43.7c1.6,0,2.9-1.3,2.9-2.9s-1.3-2.9-2.9-2.9H41.9c-1.6,0-2.9,1.3-2.9,2.9S40.3,45.6,41.9,45.6L41.9,45.6z M41.9,33.4h15.2
			c1.6,0,2.9-1.3,2.9-2.9s-1.3-2.9-2.9-2.9H41.9c-1.6,0-2.9,1.3-2.9,2.9S40.3,33.4,41.9,33.4L41.9,33.4z M111.8,24.3v14.1
			c0,1.2,1,2.3,2.3,2.3H126c1.9,0,3-2.2,1.7-3.7l-11.9-14.1C114.4,21.3,111.8,22.2,111.8,24.3z"/>
	</g>
	<path class="st0" d="M68.2,81.6h-2.8c-0.5-1.9-1.2-3.6-2.4-5.2h5.3c1.5,0,2.6-1.1,2.7-2.5c0-1.5-1.1-2.6-2.5-2.7l0,0H42.1
		c-1.5,0-2.6,1.1-2.7,2.5c0,1.5,1.1,2.6,2.5,2.7h10.6c3.3,0,6.2,2,7.4,5.2H42.1c-1.5,0-2.6,1.1-2.7,2.5c0,1.5,1.1,2.6,2.5,2.7H60
		c-1.1,3.1-4.1,5.2-7.4,5.2H42.1c-1.5,0-2.6,1.1-2.6,2.6c0,0.3,0.1,0.7,0.2,1c0.1,0.3,0.3,0.6,0.6,0.8l20.9,20.9c1,1,2.7,1,3.7,0
		c1-1,1-2.5,0.1-3.5l-0.1-0.1L48.5,97.2h4.1c6.2,0,11.6-4.3,12.8-10.5h2.8c1.5,0,2.6-1.1,2.7-2.5c0-1.5-1.1-2.6-2.5-2.7l0,0
		L68.2,81.6L68.2,81.6z"/>
</g>
</svg>
