<svg width="11" height="13" viewBox="0 0 11 13" fill="none" xmlns="http://www.w3.org/2000/svg">
<path d="M5.16027 5.92974C5.8374 5.93127 6.49409 5.6948 7.01841 5.26066C7.54273 4.82651 7.90222 4.22155 8.0356 3.5489C8.16899 2.87626 8.06801 2.17756 7.74988 1.5719C7.43174 0.966252 6.91615 0.491136 6.29099 0.227546C5.66583 -0.0360449 4.96979 -0.071794 4.32153 0.126392C3.67327 0.324578 3.1129 0.744431 2.73596 1.31438C2.35901 1.88434 2.18882 2.56911 2.25439 3.25197C2.31996 3.93484 2.61723 4.57353 3.09553 5.05917C3.36619 5.33485 3.68791 5.55366 4.04223 5.70306C4.39655 5.85245 4.7765 5.92949 5.16027 5.92974Z" fill="#83838B"/>
<path d="M8.1375 5.63943C8.0598 5.57645 7.98209 5.51571 7.90217 5.45947C7.55654 5.84938 7.13378 6.16121 6.66138 6.37468C6.18899 6.58814 5.67753 6.69846 5.16029 6.69846C4.64304 6.69846 4.13159 6.58814 3.65919 6.37468C3.18679 6.16121 2.76404 5.84938 2.41841 5.45947C2.33848 5.51571 2.26078 5.57645 2.18307 5.63943C1.48841 6.22254 0.931724 6.95613 0.55402 7.78616C0.176316 8.61619 -0.0127779 9.52151 0.000670195 10.4354C-0.00262105 10.6549 0.0152246 10.8741 0.0539536 11.09C0.400296 12.9616 2.36068 13.0066 4.78508 13.0066H5.16029C5.65982 13.0066 6.14381 13.0066 6.59894 13.0066C8.53269 13.0066 9.99354 12.8334 10.2688 11.0788C10.3029 10.8668 10.32 10.6524 10.3199 10.4377C10.3335 9.52341 10.1445 8.6177 9.76682 7.78728C9.38911 6.95686 8.83233 6.22288 8.1375 5.63943Z" fill="#83838B"/>
</svg>
