<svg xmlns="http://www.w3.org/2000/svg" width="33.445" height="43.579" viewBox="0 0 33.445 43.579"><defs><style>.a{fill:#586a7a;}</style></defs><g transform="translate(-0.001 0)"><path class="a" d="M30.322,10.67A11.494,11.494,0,1,1,18.849,22.164,11.484,11.484,0,0,1,30.322,10.67Z" transform="translate(-13.584 -10.67)"/><path class="a" d="M43.711,33.141a.52.52,0,0,0-.078-.121,52.085,52.085,0,0,0-4.977-4.65.5.5,0,0,0-.3-.122.518.518,0,0,0-.3.052,13.592,13.592,0,0,1-12.457,0,.519.519,0,0,0-.3-.052.5.5,0,0,0-.3.122,52.086,52.086,0,0,0-4.977,4.65.518.518,0,0,0-.078.121C17.374,36.091,15.214,40.12,15.1,46.6a.514.514,0,0,0,.514.52H48.035a.514.514,0,0,0,.514-.52C48.439,40.12,46.279,36.091,43.711,33.141Z" transform="translate(-15.104 -3.539)"/></g></svg>