<svg xmlns="http://www.w3.org/2000/svg" width="44" height="48" viewBox="0 0 44 48"><defs><style>.a{fill:#fff;}</style></defs><g transform="translate(0 0)"><path class="a" d="M327.668,22.5a6.5,6.5,0,1,1-6.5-6.5A6.5,6.5,0,0,1,327.668,22.5Zm0,0" transform="translate(-285.168 -14.5)"/><path class="a" d="M306.668,16a8,8,0,1,1,8-8A8.008,8.008,0,0,1,306.668,16Zm0-13a5,5,0,1,0,5,5,5.006,5.006,0,0,0-5-5Zm0,0" transform="translate(-270.668)"/><path class="a" d="M327.668,363.832a6.5,6.5,0,1,1-6.5-6.5A6.5,6.5,0,0,1,327.668,363.832Zm0,0" transform="translate(-285.168 -323.832)"/><path class="a" d="M306.668,357.332a8,8,0,1,1,8-8A8.008,8.008,0,0,1,306.668,357.332Zm0-13a5,5,0,1,0,5,5A5.006,5.006,0,0,0,306.668,344.332Zm0,0" transform="translate(-270.668 -309.332)"/><path class="a" d="M29,193.168a6.5,6.5,0,1,1-6.5-6.5A6.5,6.5,0,0,1,29,193.168Zm0,0" transform="translate(-14.5 -169.168)"/><path class="a" d="M8,186.668a8,8,0,1,1,8-8,8.008,8.008,0,0,1-8,8Zm0-13a5,5,0,1,0,5,5,5.005,5.005,0,0,0-5-5Zm0,0" transform="translate(0 -154.668)"/><path class="a" d="M116.35,104.8a2,2,0,0,1-.992-3.738l18.558-10.58a2,2,0,1,1,1.98,3.476l-18.558,10.58a1.987,1.987,0,0,1-.988.262Zm0,0" transform="translate(-103.628 -81.757)"/><path class="a" d="M134.927,280.8a1.987,1.987,0,0,1-.988-.262l-18.558-10.58a2,2,0,0,1,1.98-3.476l18.558,10.58a2,2,0,0,1-.992,3.738Zm0,0" transform="translate(-103.649 -241.26)"/></g></svg>