<svg width="224" height="32" viewBox="0 0 224 32" fill="none" xmlns="http://www.w3.org/2000/svg">
<path d="M222.396 16.3051L222.631 16L222.396 15.6949L210.844 0.69492L210.694 0.5H210.448H3H1.98384L2.60386 1.30508L13.9209 16L2.60386 30.6949L1.98384 31.5H3H210.448H210.694L210.844 31.3051L222.396 16.3051Z" fill="white" stroke="#588CF8"/>
<path d="M25.0737 20.099C24.509 20.099 23.9737 20.0257 23.4677 19.879C22.969 19.725 22.562 19.5197 22.2467 19.263C22.078 19.1383 21.9937 18.9623 21.9937 18.735C21.9937 18.581 22.0377 18.449 22.1257 18.339C22.221 18.2217 22.331 18.163 22.4557 18.163C22.5877 18.163 22.738 18.2143 22.9067 18.317C23.222 18.5443 23.552 18.7093 23.8967 18.812C24.2414 18.9147 24.6227 18.966 25.0407 18.966C25.576 18.966 25.9867 18.8743 26.2727 18.691C26.5587 18.5003 26.7017 18.2253 26.7017 17.866C26.7017 17.5873 26.566 17.3747 26.2947 17.228C26.0307 17.074 25.587 16.9273 24.9637 16.788C24.3184 16.6487 23.794 16.4873 23.3907 16.304C22.9874 16.1207 22.683 15.886 22.4777 15.6C22.2724 15.314 22.1697 14.951 22.1697 14.511C22.1697 14.0563 22.298 13.6493 22.5547 13.29C22.8114 12.9307 23.167 12.652 23.6217 12.454C24.0837 12.2487 24.6007 12.146 25.1727 12.146C26.2214 12.146 27.0757 12.4247 27.7357 12.982C27.831 13.0627 27.897 13.1433 27.9337 13.224C27.9777 13.2973 27.9997 13.3927 27.9997 13.51C27.9997 13.664 27.952 13.7997 27.8567 13.917C27.7687 14.027 27.6624 14.082 27.5377 14.082C27.4644 14.082 27.3947 14.071 27.3287 14.049C27.27 14.027 27.1894 13.9867 27.0867 13.928C26.786 13.708 26.4927 13.5467 26.2067 13.444C25.928 13.334 25.5834 13.279 25.1727 13.279C24.674 13.279 24.278 13.3817 23.9847 13.587C23.6987 13.785 23.5557 14.0637 23.5557 14.423C23.5557 14.7237 23.684 14.9547 23.9407 15.116C24.1974 15.2773 24.6337 15.4277 25.2497 15.567C25.9024 15.7137 26.4304 15.8787 26.8337 16.062C27.2444 16.238 27.556 16.4653 27.7687 16.744C27.9887 17.0227 28.0987 17.371 28.0987 17.789C28.0987 18.2437 27.9704 18.647 27.7137 18.999C27.4644 19.3437 27.1087 19.615 26.6467 19.813C26.192 20.0037 25.6677 20.099 25.0737 20.099ZM32.4294 14.489C33.6907 14.489 34.3214 15.226 34.3214 16.7V19.406C34.3214 19.6113 34.259 19.7727 34.1344 19.89C34.017 20.0073 33.852 20.066 33.6394 20.066C33.4267 20.066 33.258 20.0073 33.1334 19.89C33.0087 19.7727 32.9464 19.6113 32.9464 19.406V16.7C32.9464 16.3113 32.8657 16.029 32.7044 15.853C32.5504 15.6697 32.3047 15.578 31.9674 15.578C31.5714 15.578 31.2524 15.7027 31.0104 15.952C30.7757 16.2013 30.6584 16.535 30.6584 16.953V19.406C30.6584 19.6113 30.596 19.7727 30.4714 19.89C30.3467 20.0073 30.178 20.066 29.9654 20.066C29.7527 20.066 29.584 20.0073 29.4594 19.89C29.342 19.7727 29.2834 19.6113 29.2834 19.406V12.828C29.2834 12.6373 29.3457 12.4833 29.4704 12.366C29.6024 12.2487 29.771 12.19 29.9764 12.19C30.1817 12.19 30.3467 12.245 30.4714 12.355C30.596 12.465 30.6584 12.6153 30.6584 12.806V15.369C30.8417 15.083 31.0837 14.8667 31.3844 14.72C31.6924 14.566 32.0407 14.489 32.4294 14.489ZM38.1709 20.088C37.6209 20.088 37.1369 19.9743 36.7189 19.747C36.3083 19.5197 35.9893 19.1933 35.7619 18.768C35.5346 18.3427 35.4209 17.8477 35.4209 17.283C35.4209 16.7183 35.5346 16.227 35.7619 15.809C35.9893 15.3837 36.3083 15.0573 36.7189 14.83C37.1369 14.6027 37.6209 14.489 38.1709 14.489C38.7209 14.489 39.2013 14.6027 39.6119 14.83C40.0299 15.0573 40.3489 15.3837 40.5689 15.809C40.7963 16.227 40.9099 16.7183 40.9099 17.283C40.9099 17.8477 40.7963 18.3427 40.5689 18.768C40.3489 19.1933 40.0299 19.5197 39.6119 19.747C39.2013 19.9743 38.7209 20.088 38.1709 20.088ZM38.1599 19.021C38.6073 19.021 38.9483 18.8743 39.1829 18.581C39.4176 18.2877 39.5349 17.855 39.5349 17.283C39.5349 16.7183 39.4176 16.2893 39.1829 15.996C38.9483 15.6953 38.6109 15.545 38.1709 15.545C37.7309 15.545 37.3899 15.6953 37.1479 15.996C36.9133 16.2893 36.7959 16.7183 36.7959 17.283C36.7959 17.855 36.9133 18.2877 37.1479 18.581C37.3826 18.8743 37.7199 19.021 38.1599 19.021ZM49.2301 14.918C49.2815 14.786 49.3548 14.687 49.4501 14.621C49.5528 14.555 49.6628 14.522 49.7801 14.522C49.9488 14.522 50.0991 14.5807 50.2311 14.698C50.3705 14.808 50.4401 14.9473 50.4401 15.116C50.4401 15.2113 50.4218 15.2957 50.3851 15.369L48.5701 19.626C48.5115 19.7653 48.4198 19.8717 48.2951 19.945C48.1778 20.0183 48.0458 20.055 47.8991 20.055C47.7598 20.055 47.6278 20.0183 47.5031 19.945C47.3858 19.8717 47.2978 19.7653 47.2391 19.626L45.9301 16.48L44.6651 19.626C44.6065 19.7653 44.5148 19.8717 44.3901 19.945C44.2728 20.0183 44.1408 20.055 43.9941 20.055C43.8548 20.055 43.7228 20.0183 43.5981 19.945C43.4735 19.8717 43.3818 19.7653 43.3231 19.626L41.5191 15.369C41.4825 15.2737 41.4641 15.193 41.4641 15.127C41.4641 14.9583 41.5375 14.8153 41.6841 14.698C41.8308 14.5733 41.9921 14.511 42.1681 14.511C42.2928 14.511 42.4065 14.544 42.5091 14.61C42.6118 14.676 42.6888 14.775 42.7401 14.907L44.0381 18.262L45.3691 14.94C45.4278 14.8007 45.5121 14.698 45.6221 14.632C45.7321 14.5587 45.8531 14.522 45.9851 14.522C46.1171 14.522 46.2381 14.5587 46.3481 14.632C46.4581 14.698 46.5425 14.8007 46.6011 14.94L47.9431 18.273L49.2301 14.918ZM60.7574 14.489C61.344 14.489 61.7914 14.665 62.0994 15.017C62.4147 15.3617 62.5724 15.9227 62.5724 16.7V19.406C62.5724 19.6187 62.5064 19.7837 62.3744 19.901C62.2497 20.011 62.0847 20.066 61.8794 20.066C61.6814 20.066 61.5164 20.011 61.3844 19.901C61.2597 19.7837 61.1974 19.6187 61.1974 19.406V16.7C61.1974 16.2967 61.124 16.0107 60.9774 15.842C60.838 15.666 60.6217 15.578 60.3284 15.578C59.969 15.578 59.683 15.7027 59.4704 15.952C59.2577 16.194 59.1514 16.5277 59.1514 16.953V19.406C59.1514 19.6187 59.0854 19.7837 58.9534 19.901C58.8287 20.011 58.6674 20.066 58.4694 20.066C58.2714 20.066 58.1064 20.011 57.9744 19.901C57.8424 19.7837 57.7764 19.6187 57.7764 19.406V16.7C57.7764 16.2967 57.703 16.0107 57.5564 15.842C57.417 15.666 57.2007 15.578 56.9074 15.578C56.548 15.578 56.262 15.7027 56.0494 15.952C55.844 16.194 55.7414 16.5277 55.7414 16.953V19.406C55.7414 19.6187 55.6754 19.7837 55.5434 19.901C55.4114 20.011 55.2464 20.066 55.0484 20.066C54.8504 20.066 54.6854 20.011 54.5534 19.901C54.4287 19.7837 54.3664 19.6187 54.3664 19.406V15.149C54.3664 14.9437 54.4324 14.786 54.5644 14.676C54.6964 14.566 54.8614 14.511 55.0594 14.511C55.25 14.511 55.404 14.566 55.5214 14.676C55.646 14.7787 55.7084 14.929 55.7084 15.127V15.391C55.877 15.0977 56.1007 14.874 56.3794 14.72C56.6654 14.566 56.9917 14.489 57.3584 14.489C58.165 14.489 58.704 14.8263 58.9754 15.501C59.1367 15.193 59.375 14.9473 59.6904 14.764C60.0057 14.5807 60.3614 14.489 60.7574 14.489ZM67.7209 14.907C67.7795 14.775 67.8565 14.6797 67.9519 14.621C68.0545 14.555 68.1645 14.522 68.2819 14.522C68.4505 14.522 68.6009 14.5807 68.7329 14.698C68.8722 14.808 68.9419 14.9473 68.9419 15.116C68.9419 15.1967 68.9199 15.281 68.8759 15.369L65.8729 21.661C65.7482 21.9103 65.5539 22.035 65.2899 22.035C65.1212 22.035 64.9709 21.98 64.8389 21.87C64.7142 21.7673 64.6519 21.6353 64.6519 21.474C64.6519 21.3933 64.6739 21.3017 64.7179 21.199L65.4659 19.626L63.4199 15.369C63.3832 15.2957 63.3649 15.2113 63.3649 15.116C63.3649 14.9473 63.4345 14.8043 63.5739 14.687C63.7205 14.5697 63.8855 14.511 64.0689 14.511C64.1935 14.511 64.3072 14.544 64.4099 14.61C64.5125 14.6687 64.5932 14.764 64.6519 14.896L66.1919 18.295L67.7209 14.907ZM76.4973 14.907C76.5559 14.775 76.6329 14.676 76.7283 14.61C76.8309 14.544 76.9409 14.511 77.0583 14.511C77.2269 14.511 77.3773 14.5697 77.5093 14.687C77.6486 14.797 77.7183 14.9363 77.7183 15.105C77.7183 15.193 77.6963 15.281 77.6523 15.369L75.6173 19.626C75.5513 19.7653 75.4559 19.8717 75.3313 19.945C75.2139 20.0183 75.0819 20.055 74.9352 20.055C74.7959 20.055 74.6603 20.0183 74.5283 19.945C74.4036 19.8717 74.3083 19.7653 74.2423 19.626L72.1963 15.369C72.1596 15.2957 72.1413 15.2113 72.1413 15.116C72.1413 14.9473 72.2109 14.8043 72.3503 14.687C72.4969 14.5697 72.6619 14.511 72.8453 14.511C73.1093 14.511 73.3036 14.6393 73.4283 14.896L74.9683 18.295L76.4973 14.907ZM80.7931 14.489C81.5411 14.489 82.0948 14.676 82.4541 15.05C82.8208 15.4167 83.0041 15.9777 83.0041 16.733V19.417C83.0041 19.615 82.9454 19.7727 82.8281 19.89C82.7108 20 82.5494 20.055 82.3441 20.055C82.1534 20.055 81.9958 19.9963 81.8711 19.879C81.7538 19.7617 81.6951 19.6077 81.6951 19.417V19.175C81.5704 19.461 81.3724 19.6847 81.1011 19.846C80.8371 20.0073 80.5291 20.088 80.1771 20.088C79.8178 20.088 79.4914 20.0147 79.1981 19.868C78.9048 19.7213 78.6738 19.5197 78.5051 19.263C78.3364 19.0063 78.2521 18.7203 78.2521 18.405C78.2521 18.009 78.3511 17.6973 78.5491 17.47C78.7544 17.2427 79.0844 17.0777 79.5391 16.975C79.9938 16.8723 80.6208 16.821 81.4201 16.821H81.6951V16.568C81.6951 16.2087 81.6181 15.9483 81.4641 15.787C81.3101 15.6183 81.0608 15.534 80.7161 15.534C80.5034 15.534 80.2871 15.567 80.0671 15.633C79.8471 15.6917 79.5868 15.7797 79.2861 15.897C79.0954 15.9923 78.9561 16.04 78.8681 16.04C78.7361 16.04 78.6261 15.9923 78.5381 15.897C78.4574 15.8017 78.4171 15.677 78.4171 15.523C78.4171 15.3983 78.4464 15.292 78.5051 15.204C78.5711 15.1087 78.6774 15.0207 78.8241 14.94C79.0808 14.8007 79.3851 14.6907 79.7371 14.61C80.0964 14.5293 80.4484 14.489 80.7931 14.489ZM80.4521 19.098C80.8188 19.098 81.1158 18.977 81.3431 18.735C81.5778 18.4857 81.6951 18.1667 81.6951 17.778V17.547H81.4971C81.0058 17.547 80.6244 17.569 80.3531 17.613C80.0818 17.657 79.8874 17.734 79.7701 17.844C79.6528 17.954 79.5941 18.1043 79.5941 18.295C79.5941 18.5297 79.6748 18.724 79.8361 18.878C80.0048 19.0247 80.2101 19.098 80.4521 19.098ZM85.0835 20.066C84.8855 20.066 84.7205 20.011 84.5885 19.901C84.4639 19.7837 84.4015 19.6187 84.4015 19.406V12.839C84.4015 12.6263 84.4639 12.465 84.5885 12.355C84.7205 12.245 84.8855 12.19 85.0835 12.19C85.2815 12.19 85.4465 12.245 85.5785 12.355C85.7105 12.465 85.7765 12.6263 85.7765 12.839V19.406C85.7765 19.6187 85.7105 19.7837 85.5785 19.901C85.4465 20.011 85.2815 20.066 85.0835 20.066ZM91.4405 14.511C91.6532 14.511 91.8218 14.5697 91.9465 14.687C92.0712 14.8043 92.1335 14.962 92.1335 15.16V19.428C92.1335 19.6187 92.0675 19.7727 91.9355 19.89C91.8108 20.0073 91.6458 20.066 91.4405 20.066C91.2425 20.066 91.0848 20.011 90.9675 19.901C90.8502 19.791 90.7915 19.6407 90.7915 19.45V19.175C90.6228 19.4683 90.3955 19.6957 90.1095 19.857C89.8235 20.011 89.5008 20.088 89.1415 20.088C87.8215 20.088 87.1615 19.3473 87.1615 17.866V15.16C87.1615 14.962 87.2238 14.8043 87.3485 14.687C87.4732 14.5697 87.6382 14.511 87.8435 14.511C88.0562 14.511 88.2248 14.5697 88.3495 14.687C88.4742 14.8043 88.5365 14.962 88.5365 15.16V17.877C88.5365 18.2583 88.6135 18.5407 88.7675 18.724C88.9215 18.9073 89.1635 18.999 89.4935 18.999C89.8748 18.999 90.1792 18.8743 90.4065 18.625C90.6412 18.3683 90.7585 18.031 90.7585 17.613V15.16C90.7585 14.962 90.8208 14.8043 90.9455 14.687C91.0702 14.5697 91.2352 14.511 91.4405 14.511ZM97.8216 18.526C97.9463 18.526 98.0453 18.5737 98.1186 18.669C98.1993 18.7643 98.2396 18.8927 98.2396 19.054C98.2396 19.2813 98.1039 19.472 97.8326 19.626C97.5833 19.7653 97.3009 19.879 96.9856 19.967C96.6703 20.0477 96.3696 20.088 96.0836 20.088C95.2183 20.088 94.5326 19.8387 94.0266 19.34C93.5206 18.8413 93.2676 18.1593 93.2676 17.294C93.2676 16.744 93.3776 16.2563 93.5976 15.831C93.8176 15.4057 94.1256 15.0757 94.5216 14.841C94.9249 14.6063 95.3796 14.489 95.8856 14.489C96.3696 14.489 96.7913 14.5953 97.1506 14.808C97.5099 15.0207 97.7886 15.3213 97.9866 15.71C98.1846 16.0987 98.2836 16.557 98.2836 17.085C98.2836 17.4003 98.1443 17.558 97.8656 17.558H94.6206C94.6646 18.064 94.8076 18.438 95.0496 18.68C95.2916 18.9147 95.6436 19.032 96.1056 19.032C96.3403 19.032 96.5456 19.0027 96.7216 18.944C96.9049 18.8853 97.1103 18.8047 97.3376 18.702C97.5576 18.5847 97.7189 18.526 97.8216 18.526ZM95.9186 15.457C95.5446 15.457 95.2439 15.5743 95.0166 15.809C94.7966 16.0437 94.6646 16.381 94.6206 16.821H97.1066C97.0919 16.3737 96.9819 16.0363 96.7766 15.809C96.5713 15.5743 96.2853 15.457 95.9186 15.457ZM101.355 20.088C100.556 20.088 99.9107 19.9303 99.4194 19.615C99.1847 19.4757 99.0674 19.2777 99.0674 19.021C99.0674 18.8743 99.1077 18.757 99.1884 18.669C99.269 18.5737 99.368 18.526 99.4854 18.526C99.61 18.526 99.7824 18.5847 100.002 18.702C100.237 18.812 100.45 18.8963 100.64 18.955C100.838 19.0137 101.088 19.043 101.388 19.043C101.696 19.043 101.935 18.9917 102.103 18.889C102.279 18.7863 102.367 18.6433 102.367 18.46C102.367 18.3353 102.331 18.2363 102.257 18.163C102.191 18.0897 102.067 18.0237 101.883 17.965C101.707 17.899 101.436 17.8257 101.069 17.745C100.417 17.613 99.9474 17.426 99.6614 17.184C99.3827 16.942 99.2434 16.6083 99.2434 16.183C99.2434 15.8603 99.3387 15.5707 99.5294 15.314C99.72 15.05 99.9804 14.8483 100.31 14.709C100.648 14.5623 101.029 14.489 101.454 14.489C101.762 14.489 102.059 14.5293 102.345 14.61C102.631 14.6833 102.888 14.7933 103.115 14.94C103.35 15.0867 103.467 15.281 103.467 15.523C103.467 15.6697 103.427 15.7943 103.346 15.897C103.266 15.9923 103.167 16.04 103.049 16.04C102.969 16.04 102.888 16.0253 102.807 15.996C102.734 15.9593 102.639 15.908 102.521 15.842C102.309 15.732 102.125 15.6513 101.971 15.6C101.817 15.5413 101.627 15.512 101.399 15.512C101.128 15.512 100.912 15.567 100.75 15.677C100.596 15.787 100.519 15.9373 100.519 16.128C100.519 16.3113 100.6 16.4507 100.761 16.546C100.923 16.6413 101.234 16.7367 101.696 16.832C102.188 16.9347 102.573 17.052 102.851 17.184C103.13 17.316 103.328 17.481 103.445 17.679C103.57 17.877 103.632 18.13 103.632 18.438C103.632 18.9367 103.423 19.3363 103.005 19.637C102.595 19.9377 102.045 20.088 101.355 20.088ZM105.396 16.15C105.162 16.15 104.967 16.073 104.813 15.919C104.659 15.7577 104.582 15.5597 104.582 15.325C104.582 15.0903 104.659 14.896 104.813 14.742C104.967 14.588 105.162 14.511 105.396 14.511C105.631 14.511 105.825 14.588 105.979 14.742C106.133 14.896 106.21 15.0903 106.21 15.325C106.21 15.5597 106.133 15.7577 105.979 15.919C105.825 16.073 105.631 16.15 105.396 16.15ZM105.396 20.066C105.162 20.066 104.967 19.989 104.813 19.835C104.659 19.6737 104.582 19.4757 104.582 19.241C104.582 19.0063 104.659 18.812 104.813 18.658C104.967 18.4967 105.162 18.416 105.396 18.416C105.631 18.416 105.825 18.4967 105.979 18.658C106.133 18.812 106.21 19.0063 106.21 19.241C106.21 19.4757 106.133 19.6737 105.979 19.835C105.825 19.989 105.631 20.066 105.396 20.066ZM114.719 18.526C114.844 18.526 114.943 18.5737 115.016 18.669C115.097 18.7643 115.137 18.8927 115.137 19.054C115.137 19.2813 115.001 19.472 114.73 19.626C114.481 19.7653 114.198 19.879 113.883 19.967C113.568 20.0477 113.267 20.088 112.981 20.088C112.116 20.088 111.43 19.8387 110.924 19.34C110.418 18.8413 110.165 18.1593 110.165 17.294C110.165 16.744 110.275 16.2563 110.495 15.831C110.715 15.4057 111.023 15.0757 111.419 14.841C111.822 14.6063 112.277 14.489 112.783 14.489C113.267 14.489 113.689 14.5953 114.048 14.808C114.407 15.0207 114.686 15.3213 114.884 15.71C115.082 16.0987 115.181 16.557 115.181 17.085C115.181 17.4003 115.042 17.558 114.763 17.558H111.518C111.562 18.064 111.705 18.438 111.947 18.68C112.189 18.9147 112.541 19.032 113.003 19.032C113.238 19.032 113.443 19.0027 113.619 18.944C113.802 18.8853 114.008 18.8047 114.235 18.702C114.455 18.5847 114.616 18.526 114.719 18.526ZM112.816 15.457C112.442 15.457 112.141 15.5743 111.914 15.809C111.694 16.0437 111.562 16.381 111.518 16.821H114.004C113.989 16.3737 113.879 16.0363 113.674 15.809C113.469 15.5743 113.183 15.457 112.816 15.457ZM120.86 14.511C121.065 14.511 121.23 14.5697 121.355 14.687C121.479 14.8043 121.542 14.962 121.542 15.16V19.505C121.542 20.3483 121.307 20.9863 120.838 21.419C120.368 21.8517 119.675 22.068 118.759 22.068C117.959 22.068 117.292 21.9177 116.757 21.617C116.485 21.4557 116.35 21.2613 116.35 21.034C116.35 20.8727 116.386 20.7443 116.46 20.649C116.54 20.5537 116.643 20.506 116.768 20.506C116.834 20.506 116.914 20.5207 117.01 20.55C117.105 20.5867 117.204 20.627 117.307 20.671C117.571 20.781 117.805 20.8653 118.011 20.924C118.223 20.9827 118.465 21.012 118.737 21.012C119.697 21.012 120.178 20.5427 120.178 19.604V18.9C120.016 19.2007 119.782 19.4353 119.474 19.604C119.166 19.7653 118.814 19.846 118.418 19.846C117.948 19.846 117.53 19.736 117.164 19.516C116.804 19.2887 116.522 18.9733 116.317 18.57C116.111 18.1667 116.009 17.701 116.009 17.173C116.009 16.645 116.108 16.1793 116.306 15.776C116.511 15.3653 116.797 15.05 117.164 14.83C117.53 14.6027 117.948 14.489 118.418 14.489C118.814 14.489 119.166 14.5733 119.474 14.742C119.782 14.9033 120.016 15.1343 120.178 15.435V15.149C120.178 14.9583 120.24 14.8043 120.365 14.687C120.489 14.5697 120.654 14.511 120.86 14.511ZM118.781 18.779C119.221 18.779 119.562 18.636 119.804 18.35C120.053 18.064 120.178 17.6717 120.178 17.173C120.178 16.667 120.053 16.271 119.804 15.985C119.562 15.699 119.221 15.556 118.781 15.556C118.348 15.556 118.007 15.699 117.758 15.985C117.508 16.271 117.384 16.667 117.384 17.173C117.384 17.6717 117.508 18.064 117.758 18.35C118.007 18.636 118.348 18.779 118.781 18.779ZM126.766 13.73C127.016 13.752 127.217 13.8437 127.371 14.005C127.525 14.1663 127.602 14.3717 127.602 14.621C127.602 14.8923 127.514 15.1197 127.338 15.303C127.17 15.479 126.957 15.567 126.7 15.567C126.407 15.567 126.172 15.4643 125.996 15.259C125.82 15.0463 125.732 14.742 125.732 14.346C125.732 13.576 126.004 12.9087 126.546 12.344C126.649 12.2413 126.766 12.19 126.898 12.19C127.023 12.19 127.133 12.234 127.228 12.322C127.324 12.4027 127.371 12.5017 127.371 12.619C127.371 12.7217 127.331 12.817 127.25 12.905C127.008 13.1617 126.847 13.4367 126.766 13.73ZM129.043 13.73C129.293 13.752 129.494 13.8437 129.648 14.005C129.802 14.1663 129.879 14.3717 129.879 14.621C129.879 14.8923 129.791 15.1197 129.615 15.303C129.447 15.479 129.234 15.567 128.977 15.567C128.684 15.567 128.449 15.4643 128.273 15.259C128.097 15.0463 128.009 14.742 128.009 14.346C128.009 13.576 128.281 12.9087 128.823 12.344C128.926 12.2413 129.043 12.19 129.175 12.19C129.3 12.19 129.41 12.234 129.505 12.322C129.601 12.4027 129.648 12.5017 129.648 12.619C129.648 12.7217 129.608 12.817 129.527 12.905C129.285 13.1617 129.124 13.4367 129.043 13.73ZM137.324 18.768C137.463 18.9293 137.533 19.098 137.533 19.274C137.533 19.4867 137.449 19.6737 137.28 19.835C137.119 19.989 136.932 20.066 136.719 20.066C136.499 20.066 136.312 19.9743 136.158 19.791L134.09 17.261L132 19.791C131.839 19.9743 131.652 20.066 131.439 20.066C131.234 20.066 131.047 19.989 130.878 19.835C130.717 19.6737 130.636 19.4867 130.636 19.274C130.636 19.0907 130.702 18.922 130.834 18.768L133.089 16.084L130.911 13.477C130.772 13.3157 130.702 13.147 130.702 12.971C130.702 12.7583 130.783 12.575 130.944 12.421C131.113 12.2597 131.3 12.179 131.505 12.179C131.725 12.179 131.916 12.2743 132.077 12.465L134.09 14.896L136.081 12.465C136.242 12.2743 136.433 12.179 136.653 12.179C136.858 12.179 137.042 12.2597 137.203 12.421C137.372 12.575 137.456 12.7583 137.456 12.971C137.456 13.1543 137.39 13.323 137.258 13.477L135.08 16.084L137.324 18.768ZM144.747 18.768C144.886 18.9293 144.956 19.098 144.956 19.274C144.956 19.4867 144.872 19.6737 144.703 19.835C144.542 19.989 144.355 20.066 144.142 20.066C143.922 20.066 143.735 19.9743 143.581 19.791L141.513 17.261L139.423 19.791C139.262 19.9743 139.075 20.066 138.862 20.066C138.657 20.066 138.47 19.989 138.301 19.835C138.14 19.6737 138.059 19.4867 138.059 19.274C138.059 19.0907 138.125 18.922 138.257 18.768L140.512 16.084L138.334 13.477C138.195 13.3157 138.125 13.147 138.125 12.971C138.125 12.7583 138.206 12.575 138.367 12.421C138.536 12.2597 138.723 12.179 138.928 12.179C139.148 12.179 139.339 12.2743 139.5 12.465L141.513 14.896L143.504 12.465C143.665 12.2743 143.856 12.179 144.076 12.179C144.281 12.179 144.465 12.2597 144.626 12.421C144.795 12.575 144.879 12.7583 144.879 12.971C144.879 13.1543 144.813 13.323 144.681 13.477L142.503 16.084L144.747 18.768ZM152.17 18.768C152.309 18.9293 152.379 19.098 152.379 19.274C152.379 19.4867 152.294 19.6737 152.126 19.835C151.964 19.989 151.777 20.066 151.565 20.066C151.345 20.066 151.158 19.9743 151.004 19.791L148.936 17.261L146.846 19.791C146.684 19.9743 146.497 20.066 146.285 20.066C146.079 20.066 145.892 19.989 145.724 19.835C145.562 19.6737 145.482 19.4867 145.482 19.274C145.482 19.0907 145.548 18.922 145.68 18.768L147.935 16.084L145.757 13.477C145.617 13.3157 145.548 13.147 145.548 12.971C145.548 12.7583 145.628 12.575 145.79 12.421C145.958 12.2597 146.145 12.179 146.351 12.179C146.571 12.179 146.761 12.2743 146.923 12.465L148.936 14.896L150.927 12.465C151.088 12.2743 151.279 12.179 151.499 12.179C151.704 12.179 151.887 12.2597 152.049 12.421C152.217 12.575 152.302 12.7583 152.302 12.971C152.302 13.1543 152.236 13.323 152.104 13.477L149.926 16.084L152.17 18.768ZM159.593 18.768C159.732 18.9293 159.802 19.098 159.802 19.274C159.802 19.4867 159.717 19.6737 159.549 19.835C159.387 19.989 159.2 20.066 158.988 20.066C158.768 20.066 158.581 19.9743 158.427 19.791L156.359 17.261L154.269 19.791C154.107 19.9743 153.92 20.066 153.708 20.066C153.502 20.066 153.315 19.989 153.147 19.835C152.985 19.6737 152.905 19.4867 152.905 19.274C152.905 19.0907 152.971 18.922 153.103 18.768L155.358 16.084L153.18 13.477C153.04 13.3157 152.971 13.147 152.971 12.971C152.971 12.7583 153.051 12.575 153.213 12.421C153.381 12.2597 153.568 12.179 153.774 12.179C153.994 12.179 154.184 12.2743 154.346 12.465L156.359 14.896L158.35 12.465C158.511 12.2743 158.702 12.179 158.922 12.179C159.127 12.179 159.31 12.2597 159.472 12.421C159.64 12.575 159.725 12.7583 159.725 12.971C159.725 13.1543 159.659 13.323 159.527 13.477L157.349 16.084L159.593 18.768ZM161.46 12.19C161.754 12.19 161.988 12.2963 162.164 12.509C162.34 12.7143 162.428 13.015 162.428 13.411C162.428 14.1737 162.153 14.841 161.603 15.413C161.508 15.5157 161.394 15.567 161.262 15.567C161.138 15.567 161.028 15.5267 160.932 15.446C160.837 15.358 160.789 15.2553 160.789 15.138C160.789 15.0353 160.83 14.94 160.91 14.852C161.152 14.5953 161.314 14.3203 161.394 14.027C161.145 14.005 160.943 13.9133 160.789 13.752C160.635 13.5907 160.558 13.3853 160.558 13.136C160.558 12.8647 160.643 12.641 160.811 12.465C160.987 12.2817 161.204 12.19 161.46 12.19ZM163.737 12.19C164.031 12.19 164.265 12.2963 164.441 12.509C164.617 12.7143 164.705 13.015 164.705 13.411C164.705 14.1737 164.43 14.841 163.88 15.413C163.785 15.5157 163.671 15.567 163.539 15.567C163.415 15.567 163.305 15.5267 163.209 15.446C163.114 15.358 163.066 15.2553 163.066 15.138C163.066 15.0353 163.107 14.94 163.187 14.852C163.429 14.5953 163.591 14.3203 163.671 14.027C163.422 14.005 163.22 13.9133 163.066 13.752C162.912 13.5907 162.835 13.3853 162.835 13.136C162.835 12.8647 162.92 12.641 163.088 12.465C163.264 12.2817 163.481 12.19 163.737 12.19ZM171.912 18.856C172.132 18.8707 172.293 18.9257 172.396 19.021C172.498 19.1163 172.55 19.2557 172.55 19.439C172.55 19.6517 172.465 19.813 172.297 19.923C172.128 20.033 171.886 20.077 171.571 20.055L171.263 20.033C169.979 19.9303 169.338 19.2593 169.338 18.02V15.842H168.898C168.656 15.842 168.472 15.7907 168.348 15.688C168.223 15.578 168.161 15.424 168.161 15.226C168.161 15.0207 168.223 14.8667 168.348 14.764C168.472 14.654 168.656 14.599 168.898 14.599H169.338V13.741C169.338 13.499 169.411 13.3083 169.558 13.169C169.712 13.0297 169.917 12.96 170.174 12.96C170.43 12.96 170.632 13.0297 170.779 13.169C170.925 13.3083 170.999 13.499 170.999 13.741V14.599H171.769C172.267 14.599 172.517 14.808 172.517 15.226C172.517 15.424 172.454 15.578 172.33 15.688C172.205 15.7907 172.018 15.842 171.769 15.842H170.999V18.141C170.999 18.361 171.05 18.5297 171.153 18.647C171.255 18.757 171.406 18.8193 171.604 18.834L171.912 18.856ZM175.758 20.088C175.186 20.088 174.684 19.9743 174.251 19.747C173.819 19.5123 173.485 19.186 173.25 18.768C173.016 18.3427 172.898 17.844 172.898 17.272C172.898 16.7 173.016 16.205 173.25 15.787C173.485 15.3617 173.819 15.0353 174.251 14.808C174.684 14.5807 175.186 14.467 175.758 14.467C176.33 14.467 176.833 14.5807 177.265 14.808C177.698 15.0353 178.032 15.3617 178.266 15.787C178.501 16.205 178.618 16.7 178.618 17.272C178.618 17.844 178.501 18.3427 178.266 18.768C178.032 19.186 177.698 19.5123 177.265 19.747C176.833 19.9743 176.33 20.088 175.758 20.088ZM175.758 18.823C176.565 18.823 176.968 18.306 176.968 17.272C176.968 16.7513 176.862 16.3627 176.649 16.106C176.444 15.8493 176.147 15.721 175.758 15.721C174.952 15.721 174.548 16.238 174.548 17.272C174.548 18.306 174.952 18.823 175.758 18.823ZM185.836 14.984C186.313 14.984 186.738 15.0903 187.112 15.303C187.486 15.5083 187.776 15.798 187.981 16.172C188.187 16.546 188.289 16.9787 188.289 17.47C188.289 17.9833 188.168 18.438 187.926 18.834C187.684 19.23 187.343 19.538 186.903 19.758C186.471 19.978 185.968 20.088 185.396 20.088C184.942 20.088 184.498 20.0183 184.065 19.879C183.633 19.7397 183.259 19.5453 182.943 19.296C182.833 19.2153 182.756 19.131 182.712 19.043C182.668 18.9477 182.646 18.834 182.646 18.702C182.646 18.5113 182.698 18.35 182.8 18.218C182.91 18.0787 183.042 18.009 183.196 18.009C183.284 18.009 183.365 18.0237 183.438 18.053C183.512 18.075 183.607 18.119 183.724 18.185C184.018 18.361 184.285 18.5003 184.527 18.603C184.769 18.6983 185.033 18.746 185.319 18.746C185.767 18.746 186.104 18.6433 186.331 18.438C186.566 18.2327 186.683 17.9283 186.683 17.525C186.683 17.1437 186.562 16.843 186.32 16.623C186.086 16.403 185.767 16.293 185.363 16.293C185.114 16.293 184.887 16.326 184.681 16.392C184.476 16.4507 184.252 16.5533 184.01 16.7C183.856 16.788 183.702 16.832 183.548 16.832C183.372 16.832 183.222 16.7807 183.097 16.678C182.98 16.568 182.921 16.425 182.921 16.249V13.048C182.921 12.7913 182.991 12.5933 183.13 12.454C183.27 12.3147 183.468 12.245 183.724 12.245H187.266C187.809 12.245 188.08 12.4613 188.08 12.894C188.08 13.334 187.809 13.554 187.266 13.554H184.593V15.281C184.945 15.083 185.36 14.984 185.836 14.984ZM192.52 14.962C192.975 14.962 193.378 15.0683 193.73 15.281C194.09 15.4937 194.368 15.7907 194.566 16.172C194.772 16.5533 194.874 16.986 194.874 17.47C194.874 17.976 194.761 18.4307 194.533 18.834C194.306 19.23 193.991 19.5417 193.587 19.769C193.184 19.989 192.729 20.099 192.223 20.099C191.219 20.099 190.441 19.7653 189.891 19.098C189.341 18.4307 189.066 17.4773 189.066 16.238C189.066 15.4093 189.195 14.687 189.451 14.071C189.708 13.4477 190.075 12.971 190.551 12.641C191.035 12.311 191.596 12.146 192.234 12.146C192.652 12.146 193.074 12.2157 193.499 12.355C193.925 12.4943 194.288 12.6887 194.588 12.938C194.691 13.0187 194.764 13.1067 194.808 13.202C194.86 13.29 194.885 13.4 194.885 13.532C194.885 13.7227 194.83 13.8877 194.72 14.027C194.618 14.159 194.489 14.225 194.335 14.225C194.24 14.225 194.156 14.214 194.082 14.192C194.016 14.1627 193.925 14.115 193.807 14.049C193.514 13.873 193.25 13.7373 193.015 13.642C192.788 13.5393 192.553 13.488 192.311 13.488C191.857 13.488 191.494 13.697 191.222 14.115C190.958 14.533 190.808 15.1197 190.771 15.875C190.94 15.5963 191.178 15.3763 191.486 15.215C191.794 15.0463 192.139 14.962 192.52 14.962ZM192.124 18.768C192.469 18.768 192.744 18.6543 192.949 18.427C193.162 18.1997 193.268 17.899 193.268 17.525C193.268 17.1583 193.162 16.8613 192.949 16.634C192.744 16.4067 192.469 16.293 192.124 16.293C191.78 16.293 191.501 16.4067 191.288 16.634C191.076 16.8613 190.969 17.1583 190.969 17.525C190.969 17.8917 191.076 18.1923 191.288 18.427C191.501 18.6543 191.78 18.768 192.124 18.768ZM200.777 12.245C201.004 12.245 201.18 12.311 201.305 12.443C201.43 12.575 201.492 12.7437 201.492 12.949C201.492 13.1617 201.433 13.3707 201.316 13.576L197.884 19.648C197.803 19.802 197.697 19.9157 197.565 19.989C197.44 20.0623 197.308 20.099 197.169 20.099C196.956 20.099 196.766 20.0257 196.597 19.879C196.428 19.725 196.344 19.538 196.344 19.318C196.344 19.164 196.384 19.0173 196.465 18.878L199.468 13.62H196.421C195.886 13.62 195.618 13.3927 195.618 12.938C195.618 12.476 195.886 12.245 196.421 12.245H200.777ZM206.735 16.007C207.182 16.139 207.527 16.37 207.769 16.7C208.011 17.0227 208.132 17.4187 208.132 17.888C208.132 18.5773 207.868 19.1163 207.34 19.505C206.812 19.8937 206.082 20.088 205.151 20.088C204.219 20.088 203.49 19.8937 202.962 19.505C202.434 19.1163 202.17 18.5773 202.17 17.888C202.17 17.404 202.291 17.0007 202.533 16.678C202.775 16.3553 203.123 16.1317 203.578 16.007C203.196 15.8603 202.899 15.633 202.687 15.325C202.474 15.017 202.368 14.6577 202.368 14.247C202.368 13.6017 202.617 13.092 203.116 12.718C203.614 12.3367 204.293 12.146 205.151 12.146C206.016 12.146 206.694 12.333 207.186 12.707C207.684 13.081 207.934 13.5943 207.934 14.247C207.934 14.665 207.827 15.0317 207.615 15.347C207.402 15.6623 207.109 15.8823 206.735 16.007ZM205.151 13.455C204.366 13.455 203.974 13.7813 203.974 14.434C203.974 15.094 204.366 15.424 205.151 15.424C205.935 15.424 206.328 15.094 206.328 14.434C206.328 13.7813 205.935 13.455 205.151 13.455ZM205.151 18.779C206.075 18.779 206.537 18.438 206.537 17.756C206.537 17.074 206.075 16.733 205.151 16.733C204.227 16.733 203.765 17.074 203.765 17.756C203.765 18.438 204.227 18.779 205.151 18.779Z" fill="#588CF8"/>
</svg>
