<svg width="15" height="10" viewBox="0 0 15 10" fill="none" xmlns="http://www.w3.org/2000/svg">
<path d="M7.50653 7.13963C7.92206 7.13963 8.32826 7.01414 8.67376 6.77904C9.01926 6.54393 9.28854 6.20977 9.44756 5.8188C9.60657 5.42783 9.64818 4.99762 9.56711 4.58257C9.48605 4.16752 9.28595 3.78627 8.99213 3.48704C8.6983 3.1878 8.32395 2.98402 7.91641 2.90147C7.50886 2.81891 7.08643 2.86128 6.70253 3.02322C6.31863 3.18517 5.99051 3.45941 5.75965 3.81127C5.5288 4.16313 5.40558 4.57681 5.40558 4.99999C5.40558 5.56746 5.62693 6.11169 6.02093 6.51295C6.41494 6.91421 6.94932 7.13963 7.50653 7.13963Z" fill="#F37921"/>
<path fill-rule="evenodd" clip-rule="evenodd" d="M0.153262 5.58483C0.0570264 5.40549 0.0065918 5.20438 0.0065918 5C0.0065918 4.79562 0.0570264 4.59451 0.153262 4.41517C0.880013 3.07745 1.94534 1.96241 3.2385 1.18596C4.53165 0.409511 6.00542 0 7.50659 0C9.00776 0 10.4815 0.409511 11.7747 1.18596C13.0678 1.96241 14.1332 3.07745 14.8599 4.41517C14.9562 4.59451 15.0066 4.79562 15.0066 5C15.0066 5.20438 14.9562 5.40549 14.8599 5.58483C14.1332 6.92255 13.0678 8.03759 11.7747 8.81404C10.4815 9.59049 9.00776 10 7.50659 10C6.00542 10 4.53165 9.59049 3.2385 8.81404C1.94534 8.03759 0.880013 6.92255 0.153262 5.58483ZM11.0082 5C11.0082 5.7053 10.8028 6.39476 10.4181 6.9812C10.0333 7.56764 9.48642 8.02471 8.84659 8.29462C8.20676 8.56452 7.50271 8.63514 6.82347 8.49755C6.14423 8.35995 5.5203 8.02031 5.0306 7.52159C4.54089 7.02287 4.2074 6.38745 4.07229 5.69571C3.93718 5.00396 4.00652 4.28694 4.27155 3.63533C4.53658 2.98371 4.98538 2.42677 5.56122 2.03492C6.13705 1.64308 6.81404 1.43393 7.50659 1.43393C8.43527 1.43393 9.32591 1.80964 9.98259 2.47841C10.6393 3.14718 11.0082 4.05422 11.0082 5Z" fill="#F37921"/>
</svg>
