<svg xmlns="http://www.w3.org/2000/svg" width="73.831" height="70" viewBox="0 0 73.831 70"><defs><style>.a{fill:#593cc7;}</style></defs><g transform="translate(-328 -988.001)"><g transform="translate(346.005 1025.565)"><path class="a" d="M113.6,247.064a.9.9,0,1,0,.9.9A.9.9,0,0,0,113.6,247.064Z" transform="translate(-112.702 -247.064)"/></g><g transform="translate(350.27 988.001)"><path class="a" d="M153.411,12.564A13.831,13.831,0,0,0,139.6,26.372c0,.3,0,.609.032.977A13.785,13.785,0,0,0,145.9,37.938c.08.048.16.16.224.16h14.642c.1,0,.224-.208.352-.3a13.784,13.784,0,0,0-7.705-25.23Zm3.4,9.66h1.346a1.6,1.6,0,0,1,0,3.2h-1.346a5.761,5.761,0,0,1-4.293,4.021l4.021,3.813a1.611,1.611,0,0,1,.064,2.259,1.582,1.582,0,0,1-2.259.08l-6.824-6.456a1.6,1.6,0,0,1-.5-1.169,1.579,1.579,0,0,1,1.6-1.57h2.739a2.516,2.516,0,0,0,1.762-.769c.064-.048.112-.032.128-.208H148.6a1.6,1.6,0,1,1,0-3.2h4.646a2.652,2.652,0,0,0-1.906-.8H148.6a1.6,1.6,0,1,1,0-3.2h9.547a1.6,1.6,0,0,1,0,3.2H156.47A2.366,2.366,0,0,1,156.807,22.223Z" transform="translate(-139.602 -12.564)"/></g><g transform="translate(328 1003.25)"><path class="a" d="M62.283,134.893v-1.105a19.837,19.837,0,0,0-2-7.113l-1.121-2.195a26.359,26.359,0,0,0-8.859-8.714,12.782,12.782,0,0,1-1.858,2.291h1.666a1.6,1.6,0,1,1,0,3.2H22.347a1.6,1.6,0,1,1,0-3.2h1.522a16.95,16.95,0,0,1-4.565-9.451,12.919,12.919,0,0,0-4.165-.849h-.064c-.032.609.208,2.835.352,4.069l.416,3.845a.657.657,0,0,1,.016.176,1.859,1.859,0,0,1-.545,1.378c-.048.048-.1.08-.144.128a24.685,24.685,0,0,0-7.193,8.634,1.548,1.548,0,0,1-.3.417,2.014,2.014,0,0,1-1.137.625l-5.174,1.041A1.7,1.7,0,0,0,0,129.767v10.364a1.7,1.7,0,0,0,1.362,1.7l5.158,1.041a2.112,2.112,0,0,1,1.137.625,1.626,1.626,0,0,1,.3.433,23.284,23.284,0,0,0,3.748,5.543,1.61,1.61,0,0,1,.384.753,1.752,1.752,0,0,1-.176,1.362,7.392,7.392,0,0,0,1.954,9,8.773,8.773,0,0,0,5.911,1.906,9.149,9.149,0,0,0,5.847-2.435l1.57-1.49a1.872,1.872,0,0,1,1.362-.529,1.552,1.552,0,0,1,.272.016,31.593,31.593,0,0,0,12.559-.4,1.455,1.455,0,0,1,.368-.048,1.9,1.9,0,0,1,1.362.529l2.083,1.986a8.509,8.509,0,0,0,5.911,2.291h.3a8.407,8.407,0,0,0,6.055-2.659,7.5,7.5,0,0,0,.3-9.772,1.382,1.382,0,0,1-.16-.256,1.772,1.772,0,0,1,.176-2.05A20.717,20.717,0,0,0,62.283,134.893Zm-43.332.16a4.1,4.1,0,1,1,4.1-4.1A4.1,4.1,0,0,1,18.951,135.053Z" transform="translate(0 -107.755)"/></g><g transform="translate(387.045 1004.528)"><path class="a" d="M381.656,116.208a1.6,1.6,0,0,0-2.259,2.259,6.729,6.729,0,0,1-9.515,9.515.28.28,0,0,0-.08-.064l2.787,5.046a9.83,9.83,0,0,0,2.066.208,9.923,9.923,0,0,0,7-16.964Z" transform="translate(-369.802 -115.739)"/></g></g></svg>