<svg xmlns="http://www.w3.org/2000/svg" width="28.828" height="39.013" viewBox="0 0 28.828 39.013">
  <g id="Clients_with_ceases_SIPs_in_last_60_days" data-name="Clients with ceases SIPs  in last 60 days" transform="translate(0.333 0.333)">
    <path id="f" d="M0,29.037c0,9.316,7.16,9.316,14.08,9.316s14.08,0,14.08-9.316c0-6.767-4.006-14.183-9.853-16.7l.264-.358,6.938,3.384a.508.508,0,0,0,.673-.23.524.524,0,0,0,0-.452l-1.006-1.935,1.73-.563a.507.507,0,0,0-.026-.972L20.422,9.459l2.037-2.77a1.066,1.066,0,0,0,.145-.921c-.281-.972-1.756-1.875-3.043-2.4a10.548,10.548,0,0,0-2.08-.605l.034-.213V2.47c0-1.381-1.517-2.463-3.46-2.463s-3.46,1.082-3.46,2.463v.085l.034.213a10.222,10.222,0,0,0-2.08.605c-1.287.52-2.762,1.423-3.043,2.4a1.039,1.039,0,0,0,.145.921l2.037,2.77L1.261,11.206a.507.507,0,0,0-.026.972l1.73.563-1,1.935a.506.506,0,0,0,.213.682.472.472,0,0,0,.452,0l6.938-3.384.264.358C4.006,14.854,0,22.27,0,29.037m25-17.3-.7.23a.51.51,0,0,0-.324.639.3.3,0,0,0,.034.077l.571,1.108-5.4-2.634.614-.827,5.2,1.415ZM17.328,3.757a9.386,9.386,0,0,1,1.867.545c1.807.733,2.489,1.577,2.463,1.781l-4.33,5.89a11.378,11.378,0,0,0-1.313-.332l1.313-7.884ZM14.08,1.012c1.3,0,2.412.648,2.446,1.415L15.01,11.5c-.307-.026-.622-.051-.929-.051s-.622.017-.929.043L11.634,2.419C11.668,1.643,12.776,1,14.08,1M3.58,13.789l.571-1.108A.506.506,0,0,0,3.938,12c-.026-.009-.051-.026-.077-.034l-.7-.23,5.2-1.415.614.827L3.58,13.78ZM8.967,9.442h0L6.5,6.092c-.034-.213.648-1.057,2.455-1.79a9.555,9.555,0,0,1,1.867-.545l1.321,7.884a11.378,11.378,0,0,0-1.313.332L8.967,9.433Zm1.79,3.622.077-.026a9.552,9.552,0,0,1,6.495,0c.017,0,.043.017.06.017,5.762,2.088,9.759,9.367,9.759,15.981,0,7.739-4.935,8.3-13.075,8.3S1,36.785,1,29.037c0-6.614,4-13.884,9.751-15.981" transform="translate(0 -0.007)" fill="#edd37e" stroke="#edd37e" stroke-width="0.667"/>
    <path id="Path_6625" data-name="Path 6625" d="M15.983,18.936c.2.5.38.957.578,1.4a.342.342,0,0,0,.281.149c.264.017.512,0,.776,0a.717.717,0,0,1,.693.677.676.676,0,0,1-.545.792c-.281.066-.578.017-.858.066a.583.583,0,0,0-.38.215,3.825,3.825,0,0,1-4.077,2.806,1.452,1.452,0,0,0-.231.017c.132.149.231.248.33.347,1.221,1.188,2.443,2.36,3.681,3.548a.792.792,0,0,1,.215.99.692.692,0,0,1-.809.38,1.089,1.089,0,0,1-.462-.264q-2.649-2.55-5.3-5.083a.794.794,0,0,1,.594-1.436h2.377a2.146,2.146,0,0,0,2.1-1.5c-.165,0-.33-.017-.5-.017H10.3a.766.766,0,0,1-.776-.792.741.741,0,0,1,.825-.726h4.638c-.083-.182-.132-.314-.2-.429a2.271,2.271,0,0,0-1.964-1.122c-.825-.017-1.634,0-2.459,0a.738.738,0,0,1-.825-.71.758.758,0,0,1,.809-.792h7.114a.761.761,0,0,1,.842.759.773.773,0,0,1-.858.743H15.966Z" transform="translate(1.477 1.688)" fill="#edd37e" stroke="#edd37e" stroke-width="0.3"/>
  </g>
</svg>
