<svg xmlns="http://www.w3.org/2000/svg" width="497.19" height="346.415" viewBox="0 0 497.19 346.415"><defs><style>.a,.i{fill:#d1e3f1;}.b{fill:#1c47c1;}.c{fill:#0172d0;}.d{fill:#0036ac;}.e{fill:#ffac00;}.f{fill:#0c375a;}.g{fill:#000b17;}.h,.m,.o,.p{fill:#fff;}.i{opacity:0.6;}.j{fill:#fa8a00;}.k{fill:#005986;}.l,.n{fill:#ffce4f;}.m,.n{opacity:0.5;}.o{opacity:0.3;}.p{opacity:0.2;}.q{fill:#fda893;}.r{fill:#fd896b;}.s{fill:#0056c5;}.t{fill:#001030;}.u{fill:#ededed;}.v{fill:#d65c48;}</style></defs><g transform="translate(-378.758 -181.009)"><g transform="translate(388.824 188.848)"><path class="a" d="M624.847,222.282l1.271-6.477-6.068-1.191a14.783,14.783,0,0,0-.8-4.739l5-3.359-3.681-5.479-4.784,3.215a14.8,14.8,0,0,0-4.913-3.306l1.191-6.068-6.477-1.271-1.227,6.255a14.729,14.729,0,0,0-3.939.768l-3.359-5-5.479,3.682,3.215,4.784a14.762,14.762,0,0,0-3.3,4.913l-5.306-1.042-1.271,6.477,5.491,1.077a14.76,14.76,0,0,0,1.166,5l-4.786,3.215,3.681,5.479,5-3.359a14.768,14.768,0,0,0,4.825,2.8l-1.2,6.1,6.476,1.271,1.3-6.618a14.678,14.678,0,0,0,4.193-1.107l3.215,4.787,5.479-3.681-3.359-5a14.7,14.7,0,0,0,2.2-3.358Zm-16.265-2.594a6.05,6.05,0,1,1,1.647-8.394A6.055,6.055,0,0,1,608.582,219.688Z" transform="translate(-266.741 -181.698)"/><path class="a" d="M421.875,244.043l1.271-6.477-6.068-1.19a14.794,14.794,0,0,0-.8-4.74l5-3.359-3.681-5.479-4.784,3.215a14.776,14.776,0,0,0-4.913-3.3l1.191-6.07-6.477-1.271-1.227,6.256a14.676,14.676,0,0,0-3.939.767l-3.359-5-5.479,3.681,3.215,4.784a14.776,14.776,0,0,0-3.3,4.913l-5.3-1.041L381.94,236.2l5.493,1.078a14.736,14.736,0,0,0,1.165,5l-4.786,3.215,3.681,5.479,5-3.359a14.791,14.791,0,0,0,4.825,2.8l-1.2,6.106,6.476,1.27,1.3-6.618a14.627,14.627,0,0,0,4.193-1.107l3.215,4.787,5.479-3.681-3.359-5a14.739,14.739,0,0,0,2.2-3.359Zm-16.265-2.594a6.049,6.049,0,1,1,1.647-8.394A6.054,6.054,0,0,1,405.61,241.449Z" transform="translate(-381.94 -169.348)"/><path class="a" d="M587.724,201.681l.694-3.54-3.315-.651a8.144,8.144,0,0,0-.439-2.59l2.732-1.836-2.011-2.994-2.616,1.756a8.075,8.075,0,0,0-2.684-1.806l.651-3.317-3.54-.694-.671,3.419a8.065,8.065,0,0,0-2.152.419l-1.836-2.732-2.994,2.011,1.756,2.616a8.076,8.076,0,0,0-1.806,2.684l-2.9-.569-.7,3.54,3,.589a8.035,8.035,0,0,0,.638,2.731l-2.616,1.757,2.011,2.994,2.734-1.836a8.063,8.063,0,0,0,2.635,1.532l-.655,3.336,3.54.694.71-3.616a8,8,0,0,0,2.292-.605l1.757,2.616,2.994-2.011-1.836-2.732a8.147,8.147,0,0,0,1.2-1.836Zm-8.89-1.417a3.306,3.306,0,1,1,.9-4.588A3.308,3.308,0,0,1,578.835,200.264Z" transform="translate(-277.532 -186.01)"/></g><g transform="translate(396.723 181.009)"><g transform="translate(419.867 191.774)"><g transform="translate(0 10.728)"><path class="b" d="M657.431,393.621c12.929-15.375,25.529-32.2,32.563-44.321,9.188-15.839,13.121-28.668,11.691-38.131a1.149,1.149,0,0,0-2.273.343c2.5,16.542-12.91,44.754-44.585,81.649Z" transform="translate(-654.827 -310.192)"/></g><path class="c" d="M681.735,329.091s7.755,5.664,17.179-8.361C698.914,320.729,684.583,315.428,681.735,329.091Z" transform="translate(-639.555 -294.057)"/><path class="c" d="M682.047,336.849s6.085-7.429-7.392-17.618C674.655,319.231,668.565,333.243,682.047,336.849Z" transform="translate(-644.352 -294.333)"/><path class="c" d="M685.984,322.421s8.214-4.974-1.1-19.073C684.888,303.348,674.475,314.528,685.984,322.421Z" transform="translate(-640.217 -303.348)"/><path class="c" d="M673.415,342.377s5.383,7.952,18.994-2.057C692.409,340.32,680.718,330.484,673.415,342.377Z" transform="translate(-644.277 -284.532)"/><path class="c" d="M672.292,351.415s7.278-6.264-4.234-18.63C668.058,332.785,659.636,345.532,672.292,351.415Z" transform="translate(-648.876 -286.641)"/><path class="c" d="M665.368,353.285s5.231,8.053,19.03-1.7C684.4,351.587,672.9,341.531,665.368,353.285Z" transform="translate(-648.844 -278.243)"/></g><g transform="translate(149.754 3.381)"><g transform="translate(11.928 21.443)"><path class="b" d="M561.642,197.057c-14.478,2.35-15.839,16.332-27.12,14.577s-20.789,4.251-19.975,14.295,1.977,17.394-9.857,20.4-19.3,16.5-11.133,23.278c2.032,1.69,4.234,3.511,6.4,5.3.591.486,1.179.973,1.757,1.452l.4.332a22.128,22.128,0,0,0,29.537-1.069c3.257-3.2,5.38-7.248,4.582-12.257-2.5-15.685,12-8.28,19.59-16.455,8.745-9.415,1.506-19.389,8.733-25.681C574.6,212.475,576.12,194.706,561.642,197.057Z" transform="translate(-490.122 -196.845)"/><g transform="translate(9.83 17.077)"><path class="d" d="M549.732,208.125l-53.339,60.6c.591.486,1.179.973,1.757,1.452l53.291-60.544a1.139,1.139,0,1,0-1.709-1.506Z" transform="translate(-496.393 -207.739)"/></g></g><path class="c" d="M513.216,185.93c-11.34,9.3-5.5,22.077-16.133,26.224s-15.845,14.114-10.1,22.393,10.443,14.048,1.72,22.593-8.4,23.963,2.063,25.722c2.6.44,5.424.911,8.189,1.368.756.124,1.508.251,2.249.373l.514.086a22.129,22.129,0,0,0,25.007-15.756c1.212-4.4,1.013-8.971-2.193-12.9-10.034-12.31,6.22-13.186,8.68-24.065,2.836-12.533-8.433-17.525-5.342-26.6C532.167,192.757,524.557,176.628,513.216,185.93Z" transform="translate(-482.512 -183.166)"/><g transform="translate(16.443 20.959)"><path class="b" d="M508.7,197.455,493,276.641c.756.124,1.508.251,2.249.373L510.938,197.9a1.139,1.139,0,1,0-2.235-.444Z" transform="translate(-493.002 -196.536)"/></g></g><g transform="translate(0 223.061)"><g transform="translate(32.991)"><path class="b" d="M421.791,324.928c12.885,7.007,9.546,20.651,20.775,22.726s18.215,10.885,14.125,20.095-7.617,15.76,2.557,22.515,12.754,21.957,2.808,25.65c-2.474.922-5.156,1.914-7.786,2.884-.718.263-1.434.528-2.138.788-.163.061-.326.122-.489.18a22.125,22.125,0,0,1-27.522-10.775c-2.019-4.093-2.682-8.62-.271-13.083,7.542-13.975-8.589-11.782-13.048-22.005-5.14-11.776,4.99-18.8.249-27.125C404.46,335.2,408.9,317.922,421.791,324.928Z" transform="translate(-408.025 -323.307)"/><g transform="translate(13.747 19.952)"><path class="d" d="M418.991,336.746l30.3,74.827c-.718.263-1.434.528-2.138.788L416.878,337.6a1.14,1.14,0,0,1,2.113-.857Z" transform="translate(-416.795 -336.035)"/></g></g><g transform="translate(0 30.984)"><path class="c" d="M397.4,343.219c14.539,1.934,16.3,15.872,27.528,13.795s20.9,3.651,20.377,13.715-1.477,17.442,10.44,20.112,19.761,15.944,11.794,22.949c-1.981,1.746-4.131,3.632-6.24,5.477l-1.715,1.5c-.13.116-.262.23-.392.343a22.129,22.129,0,0,1-29.556-.219c-3.348-3.1-5.585-7.092-4.93-12.122,2.046-15.748-12.233-7.932-20.055-15.884-9.012-9.159-2.061-19.339-9.466-25.421C384.888,359,382.861,341.285,397.4,343.219Z" transform="translate(-386.979 -343.073)"/><g transform="translate(17.293 16.79)"><path class="b" d="M399.983,354.145l55.056,59.042-1.715,1.5L398.317,355.7a1.14,1.14,0,0,1,1.666-1.555Z" transform="translate(-398.011 -353.783)"/></g></g></g><g transform="translate(29.788)"><g transform="translate(13.455 10.157)"><path class="b" d="M440.583,278.7c-8.993-17.963-17.326-37.259-21.342-50.687-5.245-17.544-6.082-30.936-2.486-39.805a1.148,1.148,0,1,1,2.129.862c-6.284,15.506,2.132,46.53,24.338,89.79Z" transform="translate(-414.565 -187.488)"/></g><path class="c" d="M420.741,207.535s-8.861,3.7-14.759-12.133C405.982,195.4,421.153,193.584,420.741,207.535Z" transform="translate(-405.982 -172.884)"/><path class="c" d="M417.254,214s-4.189-8.642,11.293-15.411C428.547,198.591,431.205,213.636,417.254,214Z" transform="translate(-399.878 -171.03)"/><path class="c" d="M416.225,199.3s-6.828-6.752,5.51-18.293C421.735,181.009,429.258,194.307,416.225,199.3Z" transform="translate(-401.238 -181.009)"/><path class="c" d="M426.612,222.168s-7.089,6.48-17.992-6.425C408.62,215.743,422.281,208.9,426.612,222.168Z" transform="translate(-404.485 -162.297)"/><path class="c" d="M423.019,230.556s-5.62-7.788,8.457-17.132C431.476,213.424,436.7,227.783,423.019,230.556Z" transform="translate(-396.941 -162.612)"/><path class="c" d="M431.924,234.641s-6.962,6.612-18.11-6.084C413.814,228.557,427.344,221.458,431.924,234.641Z" transform="translate(-401.537 -155.106)"/></g></g><g transform="translate(469.984 181.46)"><g transform="translate(306.582 76.566)"><g transform="translate(4.964)"><path class="c" d="M638.559,242.337a6.1,6.1,0,1,1,6.1-6.1A6.1,6.1,0,0,1,638.559,242.337Zm0-10.283a4.185,4.185,0,1,0,4.185,4.185A4.191,4.191,0,0,0,638.559,232.053Z" transform="translate(-632.461 -230.141)"/></g><g transform="translate(26.917 21.394)"><path class="e" d="M652.564,255.985a6.1,6.1,0,1,1,6.1-6.1A6.106,6.106,0,0,1,652.564,255.985Zm0-10.283a4.185,4.185,0,1,0,4.184,4.185A4.19,4.19,0,0,0,652.564,245.7Z" transform="translate(-646.465 -243.789)"/></g><g transform="translate(33.673 47.274)"><g transform="translate(5.921)"><path class="c" d="M655.508,266.431a.956.956,0,0,1-.956-.956v-4.22a.956.956,0,0,1,1.912,0v4.22A.956.956,0,0,1,655.508,266.431Z" transform="translate(-654.552 -260.299)"/><g transform="translate(0 7.383)"><path class="c" d="M655.508,271.14a.956.956,0,0,1-.956-.956v-4.218a.956.956,0,0,1,1.912,0v4.218A.956.956,0,0,1,655.508,271.14Z" transform="translate(-654.552 -265.009)"/></g></g><g transform="translate(0 5.8)"><g transform="translate(8.052)"><path class="c" d="M660.657,265.913h-3.789a.957.957,0,0,1,0-1.914h3.789a.957.957,0,1,1,0,1.914Z" transform="translate(-655.912 -263.999)"/></g><path class="c" d="M655.52,265.913h-3.789a.957.957,0,0,1,0-1.914h3.789a.957.957,0,0,1,0,1.914Z" transform="translate(-650.775 -263.999)"/></g></g><g transform="translate(0 23.637)"><g transform="translate(5.921)"><path class="e" d="M634.027,251.352a.957.957,0,0,1-.956-.958v-4.218a.957.957,0,0,1,1.914,0v4.218A.959.959,0,0,1,634.027,251.352Z" transform="translate(-633.071 -245.22)"/><g transform="translate(0 7.382)"><path class="e" d="M634.027,256.061a.956.956,0,0,1-.956-.956v-4.218a.957.957,0,1,1,1.914,0v4.218A.957.957,0,0,1,634.027,256.061Z" transform="translate(-633.071 -249.929)"/></g></g><g transform="translate(0 5.8)"><g transform="translate(8.053)"><path class="e" d="M639.177,250.834h-3.79a.957.957,0,0,1,0-1.914h3.79a.957.957,0,0,1,0,1.914Z" transform="translate(-634.431 -248.92)"/></g><path class="e" d="M634.039,250.834H630.25a.957.957,0,0,1,0-1.914h3.789a.957.957,0,1,1,0,1.914Z" transform="translate(-629.294 -248.92)"/></g></g></g><g transform="translate(17.273)"><path class="c" d="M450.832,193.493a6.1,6.1,0,1,1,6.1-6.1A6.1,6.1,0,0,1,450.832,193.493Zm0-1.914a4.185,4.185,0,1,0-4.185-4.184A4.189,4.189,0,0,0,450.832,191.579Z" transform="translate(-444.734 -181.297)"/></g><g transform="translate(31.803 25.029)"><path class="e" d="M460.1,209.461a6.1,6.1,0,1,1,6.1-6.1A6.1,6.1,0,0,1,460.1,209.461Zm0-1.914a4.185,4.185,0,1,0-4.185-4.184A4.189,4.189,0,0,0,460.1,207.547Z" transform="translate(-454.003 -197.264)"/></g><g transform="translate(57.302 34.668)"><g transform="translate(0 5.921)"><path class="c" d="M476.4,208.146a.956.956,0,0,0-.956-.956h-4.218a.956.956,0,0,0,0,1.912h4.218A.956.956,0,0,0,476.4,208.146Z" transform="translate(-470.27 -207.19)"/><g transform="translate(7.382)"><path class="c" d="M481.111,208.146a.956.956,0,0,0-.956-.956h-4.218a.956.956,0,1,0,0,1.912h4.218A.956.956,0,0,0,481.111,208.146Z" transform="translate(-474.979 -207.19)"/></g></g><g transform="translate(5.8)"><g transform="translate(0 8.053)"><path class="c" d="M475.884,213.3v-3.79a.957.957,0,0,0-1.914,0v3.79a.957.957,0,0,0,1.914,0Z" transform="translate(-473.97 -208.55)"/></g><path class="c" d="M475.884,208.158v-3.789a.957.957,0,0,0-1.914,0v3.789a.957.957,0,1,0,1.914,0Z" transform="translate(-473.97 -203.413)"/></g></g><g transform="translate(0 18.152)"><g transform="translate(0 5.921)"><path class="e" d="M439.846,197.61a.956.956,0,0,0-.956-.956h-4.218a.957.957,0,0,0,0,1.914h4.218A.957.957,0,0,0,439.846,197.61Z" transform="translate(-433.715 -196.654)"/><g transform="translate(7.382)"><path class="e" d="M444.556,197.61a.957.957,0,0,0-.958-.956H439.38a.957.957,0,0,0,0,1.914H443.6A.959.959,0,0,0,444.556,197.61Z" transform="translate(-438.424 -196.654)"/></g></g><g transform="translate(5.8)"><g transform="translate(0 8.053)"><path class="e" d="M439.327,202.761v-3.79a.956.956,0,1,0-1.912,0v3.79a.956.956,0,1,0,1.912,0Z" transform="translate(-437.415 -198.014)"/></g><path class="e" d="M439.327,197.622v-3.789a.956.956,0,1,0-1.912,0v3.789a.956.956,0,1,0,1.912,0Z" transform="translate(-437.415 -192.877)"/></g></g></g><g transform="translate(444.056 242.669)"><g transform="translate(5.177)"><path class="f" d="M572.941,234.494V483.832a14.148,14.148,0,0,1-14.149,14.15H434.627a14.145,14.145,0,0,1-14.15-14.15V234.494a14.148,14.148,0,0,1,14.15-14.15H558.792a14.141,14.141,0,0,1,14.149,14.15Z" transform="translate(-420.477 -220.344)"/><path class="g" d="M571.454,233.938V483.276a14.148,14.148,0,0,1-14.149,14.15H433.14a14.114,14.114,0,0,1-10.043-4.179L563.723,221.324A14.143,14.143,0,0,1,571.454,233.938Z" transform="translate(-418.99 -219.788)"/></g><g transform="translate(0 42.352)"><path class="g" d="M1.7,0H5.176a0,0,0,0,1,0,0V32.94a0,0,0,0,1,0,0H1.7a1.7,1.7,0,0,1-1.7-1.7V1.7A1.7,1.7,0,0,1,1.7,0Z" transform="translate(0 2.501)"/><path class="g" d="M1.392,0H4.235a0,0,0,0,1,0,0V26.823a0,0,0,0,1,0,0H1.392A1.392,1.392,0,0,1,0,25.43V1.392A1.392,1.392,0,0,1,1.392,0Z" transform="translate(161.877 26.823) rotate(180)"/><path class="g" d="M1.7,0H5.176a0,0,0,0,1,0,0V32.94a0,0,0,0,1,0,0H1.7a1.7,1.7,0,0,1-1.7-1.7V1.7A1.7,1.7,0,0,1,1.7,0Z" transform="translate(0 39.912)"/></g><g transform="translate(12.235 7.059)"><path class="h" d="M9.24,0H254.28a9.24,9.24,0,0,1,9.24,9.24V129.108a9.24,9.24,0,0,1-9.24,9.24H9.239A9.239,9.239,0,0,1,0,129.109V9.24A9.24,9.24,0,0,1,9.24,0Z" transform="translate(138.348 0) rotate(90)"/><g transform="translate(8.943 24.545)"><rect class="i" width="96.574" height="9.741" rx="1.601" transform="translate(11.944)"/><rect class="i" width="45.839" height="7.071" rx="1.162" transform="translate(0 25.619)"/><rect class="i" width="45.839" height="7.071" rx="1.162" transform="translate(0 39.188)"/><rect class="i" width="45.839" height="7.071" rx="1.162" transform="translate(0 51.613)"/></g><g transform="translate(54.782 133.304)"><rect class="e" width="27.174" height="116.434"/><path class="j" d="M459.927,369.657c9.628-2.975,18.654-8.3,27.174-14.038v44.746H459.927Z" transform="translate(-459.927 -283.931)"/></g><g transform="translate(10.367 165.659)"><rect class="e" width="27.174" height="84.08" transform="translate(0)"/><path class="j" d="M453.738,366.139a48.692,48.692,0,0,0,5.03.461v28.277H431.593V366.866C436.4,365.282,443.437,364.634,453.738,366.139Z" transform="translate(-431.593 -310.797)"/></g><g transform="translate(99.196 98.518)"><rect class="e" width="27.174" height="151.221" transform="translate(0)"/><path class="j" d="M515.435,340.565v68.344H488.26V352.168C497.919,345.609,506.92,340.531,515.435,340.565Z" transform="translate(-488.26 -257.689)"/></g><path class="c" d="M548.2,259.1l-24.729,5.3,6.64,6.513-37.862,38.6-13.286-13.033L428.734,347.7l6.619,6.493L479.091,309.6l13.286,13.033,44.354-45.218,6.64,6.514Z" transform="translate(-422.849 -205.405)"/></g><g transform="translate(38.617 5.177)"><rect class="f" width="85.583" height="14.352" rx="2.359"/><rect class="g" width="51.292" height="3.529" rx="0.58" transform="translate(13.59 4.471)"/><path class="k" d="M492.7,228.316a2.117,2.117,0,1,1-2.118-2.118A2.117,2.117,0,0,1,492.7,228.316Z" transform="translate(-415.327 -222.198)"/></g></g><g transform="translate(551.529 246.514)"><g transform="translate(0 39.275)"><g transform="translate(252.963 97.241)"><path class="c" d="M683.273,309.937a20.605,20.605,0,0,0-3.063.011,18.094,18.094,0,0,0-6.052,1.586,17.552,17.552,0,0,0-5.207,3.726c-.411.425-.8.873-1.165,1.336-.409-.165-.823-.32-1.239-.473a27.247,27.247,0,0,0-3.173-.9c-.538-.132-1.1-.207-1.651-.3-.564-.063-1.124-.139-1.7-.163-.3-.019-.6-.03-.908-.03a16.521,16.521,0,0,0-6.008,1.039,14.731,14.731,0,0,0-3.185,1.676,14.031,14.031,0,0,0-1.431,1.141c-.227.205-.45.428-.671.658-.11.121-.218.235-.329.367-.057.066-.111.132-.171.2l-.091.114-.122.16,4.27,3.069.014-.016.071-.08c.05-.055.113-.121.169-.18.124-.122.254-.251.393-.37a8.882,8.882,0,0,1,.9-.691,10.474,10.474,0,0,1,2.064-1.049,11.653,11.653,0,0,1,4.742-.652c.328.006.657.047.988.085.091.009.177.02.268.027.42.075.84.124,1.264.229a21.142,21.142,0,0,1,2.53.705c.075.027.152.055.227.085a23.294,23.294,0,0,0-1.626,5.455,21.211,21.211,0,0,0-.124,6.529,14.673,14.673,0,0,0,.868,3.328,10.7,10.7,0,0,0,.8,1.638,8.921,8.921,0,0,0,1.16,1.56,7.6,7.6,0,0,0,1.624,1.321c.161.088.313.185.481.262s.337.158.5.223c.3.108.6.21.9.31a8.55,8.55,0,0,0,4,.235,7.984,7.984,0,0,0,3.731-1.809,9.241,9.241,0,0,0,2.358-3.174,12.257,12.257,0,0,0,.784-7.3,14.611,14.611,0,0,0-1.119-3.413l-.4-.8c-.141-.26-.3-.508-.452-.76l-.229-.378-.254-.357-.513-.713a20.152,20.152,0,0,0-4.729-4.25c-.125-.081-.251-.161-.375-.24s-.234-.152-.353-.223l-.361-.205-.726-.4c-.033-.02-.066-.038-.1-.055a17.633,17.633,0,0,1,4.532-4.214,20.519,20.519,0,0,1,5.1-2.315q1.378-.4,2.82-.677c.483-.088.969-.18,1.459-.241.491-.082.983-.122,1.481-.2A21.268,21.268,0,0,0,683.273,309.937Zm-14.766,12.827.575.307.288.155c.1.053.182.116.274.171.318.193.632.395.934.608a14.354,14.354,0,0,1,2.891,2.623l.365.483.182.24.16.252c.108.168.223.334.323.5l.278.524a9.406,9.406,0,0,1,.792,2.187,7.343,7.343,0,0,1-.3,4.331,4.775,4.775,0,0,1-1.08,1.6,3.282,3.282,0,0,1-1.506.82,4.013,4.013,0,0,1-1.864-.044c-.168-.053-.338-.1-.508-.151a2.874,2.874,0,0,1-.354-.158,3.1,3.1,0,0,1-.69-.513,4.561,4.561,0,0,1-.638-.793,6.373,6.373,0,0,1-.538-1,11.618,11.618,0,0,1-.732-2.37,17.2,17.2,0,0,1-.152-5.286,19.713,19.713,0,0,1,1.113-4.591C668.384,322.7,668.447,322.73,668.506,322.764Z" transform="translate(-647.109 -309.885)"/><path class="b" d="M660.722,318.448c-.331-.038-.66-.078-.988-.085a11.653,11.653,0,0,0-4.742.652,10.474,10.474,0,0,0-2.064,1.049,8.882,8.882,0,0,0-.9.691c-.14.119-.27.248-.393.37-.056.06-.119.125-.169.18l-.071.08-.025.03.011-.014-4.27-3.069.122-.16.091-.114c.06-.072.114-.138.171-.2.111-.132.219-.246.329-.367.221-.23.444-.453.671-.658a14.031,14.031,0,0,1,1.431-1.141,14.73,14.73,0,0,1,3.185-1.676,16.521,16.521,0,0,1,6.008-1.039A39.8,39.8,0,0,1,660.722,318.448Z" transform="translate(-647.109 -308.134)"/><path class="b" d="M665.1,316.209a9.247,9.247,0,0,0-2.2,4.845c-.3-.213-.616-.415-.934-.608-.092-.055-.179-.118-.274-.171l-.288-.155-.575-.307c-.06-.034-.122-.067-.188-.1a16,16,0,0,1,2.55-4.629c.03.017.063.034.1.055l.726.4.361.205c.119.071.235.151.353.223S664.973,316.128,665.1,316.209Z" transform="translate(-639.43 -306.934)"/></g><g transform="translate(61.605 187.11)"><path class="b" d="M559.1,378.8l-4.231,23.157-2.778,15.191c-13.958,5.555-27.056-3.6-27.056-3.6V367.216Z" transform="translate(-525.035 -367.216)"/><path class="d" d="M525.035,367.216,559.1,378.8l-4.231,23.157a117.007,117.007,0,0,1-29.834-15.36Z" transform="translate(-525.035 -367.216)"/><g transform="translate(116.824)"><path class="b" d="M633.626,367.216v46.335s-13.1,9.151-27.058,3.6l-2.735-14.975L599.561,378.8Z" transform="translate(-599.561 -367.216)"/><path class="d" d="M633.626,367.216v21.513c-8.317,6.338-18.633,10.628-29.793,13.443L599.561,378.8Z" transform="translate(-599.561 -367.216)"/></g></g><path class="c" d="M738.652,357.6a90.738,90.738,0,0,1-3,23.156l0,.013c-12.1,45.97-59.45,80.265-116.02,80.265-54.8,0-100.943-32.182-114.78-75.986A90.74,90.74,0,0,1,500.61,357.6c0-57.127,53.291-103.439,119.022-103.439a133.553,133.553,0,0,1,51.626,10.211l.01,0C711.138,281.09,738.652,316.551,738.652,357.6Z" transform="translate(-477.293 -244.271)"/><path class="b" d="M734.116,337.427c-12.1,45.97-59.45,80.265-116.02,80.265-54.8,0-100.943-32.182-114.78-75.986l0-11.178s37.215,70.394,116.88,73.843C699.249,407.793,733.594,338.555,734.116,337.427Z" transform="translate(-475.758 -200.928)"/><g transform="translate(0 86.604)"><path class="c" d="M513.293,303.1v54.173H489.748a93.428,93.428,0,0,1,0-54.173Z" transform="translate(-485.735 -303.1)"/><path class="b" d="M489.748,357.273a93.428,93.428,0,0,1,0-54.173S498.222,329.824,489.748,357.273Z" transform="translate(-485.735 -303.1)"/><path class="d" d="M489.46,323.716c0,4.979-.409,9.015-.914,9.015s-.912-4.036-.912-9.015.409-9.013.912-9.013S489.46,318.738,489.46,323.716Z" transform="translate(-484.658 -296.515)"/></g><g transform="translate(49.887)"><path class="c" d="M557.269,269.262a41.457,41.457,0,0,1-18.491,14.6,38.432,38.432,0,0,1-10.523,2.516l-10.7-38.527,0,0C517.93,247.981,545.8,257.621,557.269,269.262Z" transform="translate(-517.56 -247.852)"/><path class="b" d="M538.778,283.864a38.432,38.432,0,0,1-10.523,2.516l-10.7-38.527,0,0C517.839,248.109,535.681,266.674,538.778,283.864Z" transform="translate(-517.56 -247.852)"/></g><g transform="translate(101.805 14.626)"><path class="d" d="M631.746,262.842l-.516,2.7-.9,4.687c-38.706-11.2-78.014-1.5-78.408-1.4l-.787-4.7-.459-2.731C552.335,260.98,591.675,251.255,631.746,262.842Z" transform="translate(-550.68 -257.182)"/><g transform="translate(0.546 3.012)"><path class="b" d="M631.035,264.448l-.9,4.69q-2.709-.783-5.422-1.436c-3.074-.737-6.139-1.357-9.173-1.862-4.383-.737-8.706-1.249-12.918-1.582l-.68-.052c-1.889-.143-3.751-.246-5.582-.323-.069,0-.135,0-.2,0-2.116-.086-4.193-.125-6.22-.133h-.776c-.124,0-.249,0-.375,0-4.935.014-9.568.238-13.776.569-.155.009-.306.022-.458.039q-2.048.162-3.947.357c-.1.014-.187.022-.281.031q-2.283.237-4.333.5c-3.8.488-6.969,1.014-9.349,1.463-3.077.572-4.833,1-4.914,1.025l-.7-4.176c.6-.147,1.72-.415,3.293-.746h0c.185-.039.379-.082.577-.125,2.065-.426,4.806-.948,8.107-1.461,3.419-.527,7.441-1.047,11.923-1.436l.268-.025h0c.422-.035.853-.074,1.288-.1.848-.069,1.72-.135,2.6-.19l.426-.027c.111-.008.224-.013.34-.022,4.129-.249,8.573-.375,13.241-.3.372,0,.746.008,1.121.017q2.594.059,5.272.2,1.618.085,3.259.208c1.069.077,2.143.168,3.229.276.232.016.47.042.707.067,3.956.389,8.013.948,12.116,1.707q4.256.783,8.575,1.872C628.6,263.776,629.815,264.1,631.035,264.448Z" transform="translate(-551.028 -259.104)"/></g></g></g><g transform="translate(100.935)"><path class="l" d="M627.9,284.076c-.03.055-.064.116-.1.172a40.128,40.128,0,0,1-2.569,4.06c-3.074-.737-6.139-1.358-9.173-1.862-4.383-.737-8.706-1.249-12.918-1.582l-.68-.052c-1.889-.143-3.751-.246-5.582-.323-.069,0-.135,0-.2,0-2.116-.086-4.193-.125-6.22-.133h-.776c-.124,0-.249,0-.375,0-4.935.014-9.568.238-13.776.569-.155.009-.306.022-.458.039q-2.048.162-3.947.357c-.1.014-.187.022-.281.031q-2.283.237-4.333.5c-3.8.488-6.969,1.014-9.349,1.463q-1.164-1.733-2.155-3.579v0c-.052-.1-.1-.19-.151-.29l-.013-.025h0l-.009-.013c-.141-.273-.279-.544-.417-.82l-.13-.259c-.146-.3-.288-.608-.426-.914a41.311,41.311,0,0,1-3.7-15.716c-.017-.513-.027-1.025-.022-1.538a41.432,41.432,0,0,1,55.587-38.872c.29.108.578.216.862.328a1.638,1.638,0,0,1,.152.061c.276.107.552.219.823.335.163.064.318.133.478.2a.291.291,0,0,0,.039.017c.138.056.279.116.417.182a41.422,41.422,0,0,1,10.8,7.056q1.061.95,2.049,1.975A41.216,41.216,0,0,1,632.845,261.2c.042.513.069,1.025.089,1.538A41.193,41.193,0,0,1,627.9,284.076Z" transform="translate(-550.125 -222.797)"/><path class="m" d="M617.324,245.815l-7.026,7.617-.276.3-17.707,19.192-4.043,4.383c-1.889-.143-3.751-.246-5.582-.323-.069,0-.135,0-.2,0-2.116-.086-4.193-.125-6.22-.133h-.776c-.124,0-.249,0-.375,0l.362-.387.194-.207,3.762-4.03,12.772-13.677.475-.509L606.29,243.47l.944-1.013,6.013-6.436A41.222,41.222,0,0,1,617.324,245.815Z" transform="translate(-535.942 -215.292)"/><path class="m" d="M607.138,225.514l-53.487,57.321q-.611-1.138-1.149-2.32l51.863-56.128Q605.776,224.9,607.138,225.514Z" transform="translate(-548.776 -221.895)"/><path class="m" d="M613.735,231.581l-5.673,6.124-1.409,1.522-10.294,11.12-1.59,1.72-.324.35-1.138,1.224L591.126,256l-1.345,1.453-6.276,6.78-1.422,1.535-2.431,2.626-1.362,1.474-5.762,6.225-.091.1-1.1,1.185-3.409,3.685c-.155.009-.306.022-.458.039q-2.048.162-3.947.357l4.594-4.947h0l1.5-1.618.69-.74,4.892-5.269,1.2-1.293,2.323-2.5,1.362-1.47,6.292-6.772,1.431-1.539,2.458-2.651,1.279-1.375,5.591-6.018.284-.306,7.062-7.6,1.533-1.651,5.668-6.1Q612.746,230.556,613.735,231.581Z" transform="translate(-542.524 -218.933)"/><path class="j" d="M621.636,261.543a32.925,32.925,0,0,1-5.323,17.651,33.366,33.366,0,0,1-3.267,4.242c-4.383-.737-8.706-1.249-12.918-1.582l-.68-.052c-1.889-.143-3.751-.246-5.582-.323-.069,0-.135,0-.2,0-2.116-.086-4.193-.125-6.22-.133h-.776c-.124,0-.249,0-.375,0-4.935.014-9.568.238-13.776.569-.155.009-.306.022-.458.039q-2.048.162-3.947.357c-.1.014-.187.022-.281.031q-2.283.237-4.333.5c-.2-.227-.4-.461-.586-.693-.133-.16-.262-.325-.392-.488a.1.1,0,0,1-.022-.03c-.141-.182-.284-.362-.422-.547-.027-.031-.047-.061-.069-.091-.133-.177-.263-.357-.392-.539-.273-.375-.535-.754-.785-1.143-.108-.163-.212-.328-.315-.491-.042-.061-.082-.125-.121-.19-.089-.147-.18-.3-.266-.444a32.771,32.771,0,0,1-1.716-3.251c-.094-.21-.19-.422-.279-.633-.017-.035-.031-.074-.049-.108-.072-.172-.146-.348-.215-.52-.047-.113-.094-.224-.138-.342-.081-.2-.16-.409-.237-.616-.091-.232-.172-.47-.254-.7-.044-.13-.086-.259-.135-.387-.017-.049-.03-.1-.042-.143s-.03-.091-.044-.138c-.089-.285-.18-.569-.262-.859-.009-.02-.014-.042-.022-.064-.086-.288-.165-.582-.241-.879-.047-.18-.1-.365-.138-.552-.1-.379-.182-.762-.259-1.151-.03-.138-.056-.281-.082-.422-.039-.182-.069-.362-.1-.549-.017-.1-.035-.207-.049-.31-.03-.163-.055-.323-.077-.486-.022-.13-.039-.263-.056-.4-.039-.268-.074-.539-.1-.81-.039-.32-.069-.638-.1-.961-.038-.5-.069-1.009-.086-1.517a33.111,33.111,0,0,1,40.989-33.334q1.5.369,2.944.876h0a33.074,33.074,0,0,1,11.224,6.629q1.068.957,2.044,2a33.2,33.2,0,0,1,5.754,8.393,32.8,32.8,0,0,1,3.065,10.974c.069.694.116,1.392.143,2.1C621.633,260.533,621.636,261.038,621.636,261.543Z" transform="translate(-547.116 -219.786)"/><path class="e" d="M621.6,260.444a32.926,32.926,0,0,1-5.323,17.651,33.361,33.361,0,0,1-3.267,4.242c-4.383-.737-8.706-1.249-12.918-1.582l-.68-.052c-1.889-.143-3.751-.246-5.582-.323-.069,0-.135,0-.2,0-2.116-.086-4.193-.125-6.22-.133h-.776c-.124,0-.249,0-.375,0-4.935.014-9.568.238-13.776.569-.155.009-.306.022-.458.039q-2.048.162-3.947.357c-.1.014-.187.022-.281.031q-2.283.237-4.333.5c-.2-.227-.4-.461-.586-.693-.133-.16-.262-.324-.392-.488a.1.1,0,0,1-.022-.03c-.141-.182-.284-.362-.422-.547-.027-.031-.047-.061-.069-.091-.133-.177-.263-.357-.392-.539-.273-.375-.535-.754-.785-1.143-.108-.163-.212-.328-.315-.491-.042-.061-.082-.125-.121-.19-.089-.147-.18-.3-.267-.444a32.777,32.777,0,0,1-1.716-3.251c-.094-.21-.19-.422-.279-.633-.017-.034-.031-.074-.048-.108-.072-.172-.146-.348-.215-.52-.047-.113-.094-.224-.138-.342-.082-.2-.16-.409-.237-.616-.091-.232-.172-.47-.254-.7-.044-.133-.091-.263-.13-.4-.017-.044-.03-.091-.047-.133s-.03-.091-.044-.138c-.089-.285-.18-.569-.262-.859-.01-.02-.014-.042-.022-.064-.086-.288-.164-.582-.241-.879-.047-.18-.1-.365-.138-.552-.1-.379-.182-.762-.259-1.151-.03-.138-.056-.281-.082-.422-.039-.182-.069-.362-.1-.549-.017-.1-.035-.207-.049-.31-.03-.163-.055-.323-.077-.486-.022-.13-.039-.263-.056-.4-.039-.268-.074-.539-.1-.81-.039-.32-.069-.638-.1-.961A33.132,33.132,0,0,1,594,230.477l.061.014c.249.042.5.086.749.133.271.052.544.108.81.168.522.108,1.035.234,1.547.372h0l.044.013a33.075,33.075,0,0,1,11.719,5.863c.034.025.066.052.1.077q1.06.842,2.055,1.759c.039.035.074.069.113.108a33.319,33.319,0,0,1,6.22,7.883c.133.234.262.47.387.707a32.777,32.777,0,0,1,3.345,9.556c.052.281.1.561.143.842C621.434,258.784,621.533,259.612,621.6,260.444Z" transform="translate(-547.077 -218.688)"/><path class="n" d="M609.748,251.622l-17.143,18.417-4.069,4.367-.68-.052c-1.889-.143-3.751-.246-5.582-.323-.069,0-.135,0-.2,0-2.116-.086-4.193-.125-6.22-.133l4.289-4.6L592.231,256.3l.353-.379,13.677-14.694a32.777,32.777,0,0,1,3.345,9.556Q609.683,251.2,609.748,251.622Z" transform="translate(-535.525 -212.339)"/><path class="n" d="M596.682,231.019l-39.128,42.028c-.417-.961-.79-1.95-1.113-2.955l37.023-39.771A32.523,32.523,0,0,1,596.682,231.019Z" transform="translate(-546.541 -218.527)"/><path class="n" d="M606.641,236.34l-10,10.746-1.586,1.7-.707.762L593.2,250.78l-2.215,2.38-1.362,1.461-6.311,6.78-1.426,1.535-2.439,2.621-1.354,1.453-5.767,6.2-.215.229-.97,1.038-3.574,3.845q-2.048.162-3.947.357c-.1.014-.187.022-.281.031l4.607-4.953,1.608-1.727,1.035-1.108,4.543-4.885,1.2-1.284,2.314-2.488L580,260.806l6.3-6.767,1.436-1.539,2.474-2.66,1.288-1.383,5.612-6.03.539-.578,6.836-7.344c.034.025.066.052.1.077Q605.647,235.423,606.641,236.34Z" transform="translate(-542.626 -216.153)"/></g><g transform="translate(211.608 206.601)"><g transform="translate(0 41.203)"><g transform="translate(0 11.431)"><path class="e" d="M702.019,397.178c0,.038,0,.075,0,.114a5.574,5.574,0,0,1-2.136,4.027,12.483,12.483,0,0,1-1.127.909,22.778,22.778,0,0,1-4.267,2.345c-.364.158-.74.312-1.127.464-1.3.513-2.728.992-4.267,1.436q-.553.16-1.125.314-2.022.541-4.268,1c-.372.075-.746.149-1.127.219q-2.055.39-4.267.7c-.373.053-.748.1-1.127.154q-2.076.27-4.267.472-.559.049-1.125.1-2.093.172-4.267.273c-.375.017-.749.034-1.127.049q-2.1.078-4.267.092l-.754,0c-.124,0-.249,0-.373,0q-2.163,0-4.268-.078c-.378-.014-.752-.028-1.125-.045q-1.6-.071-3.162-.179-.557-.038-1.105-.082-.567-.045-1.127-.094-2.187-.193-4.267-.456c-.379-.049-.754-.1-1.127-.15q-1.324-.181-2.6-.392-.846-.141-1.671-.293c-.379-.071-.755-.143-1.125-.216q-2.241-.442-4.268-.973c-.267-.069-.531-.139-.792-.212-.113-.03-.224-.061-.336-.094-.61-.169-1.2-.348-1.779-.53q-1.307-.416-2.488-.865c-.387-.149-.762-.3-1.127-.45a25.879,25.879,0,0,1-3.784-1.927c-.166-.105-.328-.21-.483-.315-.2-.133-.384-.267-.563-.4-.2-.147-.384-.295-.563-.445-1.629-1.356-2.518-2.825-2.518-4.356a3.16,3.16,0,0,1,.016-.323l0-8.676,2.5,0,1.125,0,4.267,0,1.127,0,3.329,0,.937,0,1.127,0,4.268-.006,1.125,0,4.267-.006,1.127,0,4.267-.006,1.127,0,4.267-.006,1.125,0,4.268-.006,1.127,0,4.267,0,1.127,0,4.267-.008h1.125l4.267-.008h1.127l4.267-.006,1.127,0,4.268,0,1.125,0h.279l3.988-.006h1.127l4.267-.008,1.127,0,2.121,0,.016,9.006Z" transform="translate(-620.727 -388.172)"/><g transform="translate(2.518 0.003)"><g transform="translate(0 0.111)"><path class="j" d="M623.458,388.245v14.207c-.2-.133-.384-.267-.563-.4-.2-.147-.384-.295-.563-.445V388.248Z" transform="translate(-622.333 -388.245)"/></g><g transform="translate(5.392 0.103)"><path class="j" d="M626.9,388.24v16.906c-.387-.149-.762-.3-1.127-.45V388.243Z" transform="translate(-625.773 -388.24)"/></g><g transform="translate(10.786 0.096)"><path class="j" d="M630.341,388.235V406.85c-.266-.069-.531-.139-.792-.212-.113-.03-.224-.061-.336-.094V388.237Z" transform="translate(-629.214 -388.235)"/></g><g transform="translate(16.182 0.088)"><path class="j" d="M633.782,388.23v19.812c-.379-.071-.755-.143-1.125-.216V388.232Z" transform="translate(-632.656 -388.23)"/></g><g transform="translate(21.574 0.08)"><path class="j" d="M637.223,388.225v20.656c-.379-.049-.754-.1-1.127-.15v-20.5Z" transform="translate(-636.096 -388.225)"/></g><g transform="translate(26.968 0.072)"><path class="j" d="M640.664,388.22v21.214q-.567-.045-1.127-.094V388.222Z" transform="translate(-639.537 -388.22)"/></g><g transform="translate(32.362 0.064)"><path class="j" d="M644.1,388.215v21.527c-.378-.014-.752-.028-1.125-.045v-21.48Z" transform="translate(-642.978 -388.215)"/></g><g transform="translate(37.756 0.055)"><path class="j" d="M647.546,388.209v21.615l-.754,0c-.124,0-.249,0-.373,0V388.212Z" transform="translate(-646.419 -388.209)"/></g><g transform="translate(43.15 0.049)"><path class="j" d="M650.987,388.2v21.48c-.375.017-.749.035-1.127.049V388.207Z" transform="translate(-649.86 -388.205)"/></g><g transform="translate(48.544 0.041)"><path class="j" d="M654.426,388.2v21.118q-.56.049-1.125.1V388.2Z" transform="translate(-653.301 -388.2)"/></g><g transform="translate(53.937 0.033)"><path class="j" d="M657.868,388.2v20.5c-.373.053-.748.1-1.127.154V388.2Z" transform="translate(-656.741 -388.195)"/></g><g transform="translate(59.331 0.023)"><path class="j" d="M661.309,388.189v19.587c-.372.075-.746.149-1.127.219v-19.8Z" transform="translate(-660.182 -388.189)"/></g><g transform="translate(64.726 0.016)"><path class="j" d="M664.75,388.184v18.282q-.553.16-1.125.314V388.187Z" transform="translate(-663.624 -388.184)"/></g><g transform="translate(70.119 0.009)"><path class="j" d="M668.191,388.18v16.389c-.364.158-.74.312-1.127.464V388.18Z" transform="translate(-667.064 -388.18)"/></g><g transform="translate(75.512)"><path class="j" d="M671.632,388.174v13.144a12.469,12.469,0,0,1-1.127.909V388.176Z" transform="translate(-670.505 -388.174)"/></g></g></g><g transform="translate(0.014)"><path class="l" d="M702.006,392.42c0,6.374-18.19,11.54-40.634,11.54-3.068,0-6.054-.1-8.926-.279-3.613-.23-7.043-.6-10.221-1.08-2.837-.431-5.471-.955-7.855-1.557q-1.093-.277-2.113-.575a33.954,33.954,0,0,1-7.4-2.978c-.372-.216-.721-.434-1.046-.657-1.985-1.361-3.079-2.851-3.079-4.414a2.8,2.8,0,0,1,.033-.428c.789-6.175,18.665-11.112,40.6-11.112a134.437,134.437,0,0,1,15.262.842q1.364.158,2.679.342a82.253,82.253,0,0,1,10.344,2.072q1,.275,1.934.571a33.775,33.775,0,0,1,5.695,2.311,12.1,12.1,0,0,1,3.652,2.768,4.365,4.365,0,0,1,1.036,2.207A2.8,2.8,0,0,1,702.006,392.42Z" transform="translate(-620.736 -380.88)"/><path class="o" d="M693.158,387.563l-48.492,13.9c-3.613-.23-7.043-.6-10.221-1.08l55.061-15.585A12.1,12.1,0,0,1,693.158,387.563Z" transform="translate(-612.955 -378.658)"/><path class="o" d="M678.2,381.759l-54.452,15.428c-.372-.216-.721-.434-1.046-.657l52.819-15.113Q676.883,381.575,678.2,381.759Z" transform="translate(-619.621 -380.575)"/><path class="o" d="M687.42,383.528,630.2,399.866q-1.093-.277-2.113-.575l57.4-16.334Q686.487,383.232,687.42,383.528Z" transform="translate(-616.564 -379.701)"/><path class="j" d="M690.9,391.582a3.2,3.2,0,0,1-.033.425c-.784,4.889-15.034,8.8-32.445,8.8s-31.663-3.911-32.447-8.8a3.466,3.466,0,0,1-.031-.425c0-5.085,14.569-9.224,32.478-9.224S690.9,386.5,690.9,391.582Z" transform="translate(-617.782 -380.041)"/><path class="e" d="M690.852,391.7c-.784,4.889-15.035,8.8-32.445,8.8-.39,0-.774,0-1.16-.008a105.713,105.713,0,0,1-11.022-.666,73.1,73.1,0,0,1-9.289-1.635c-.693-.174-1.359-.356-2-.546a22.943,22.943,0,0,1-6.792-3.027,7.806,7.806,0,0,1-.988-.834,3.881,3.881,0,0,1-1.193-2.085c.784-4.891,15.036-8.8,32.447-8.8,2.2,0,4.355.063,6.44.182,1.06.061,2.107.136,3.13.227a79.213,79.213,0,0,1,11.285,1.748q1.06.254,2.047.533a27.952,27.952,0,0,1,6.286,2.489,6.929,6.929,0,0,1,3.054,2.93A2.75,2.75,0,0,1,690.852,391.7Z" transform="translate(-617.771 -379.735)"/><path class="p" d="M683.311,389.132l-33.4,9.485a105.722,105.722,0,0,1-11.021-.666l41.37-11.749A6.929,6.929,0,0,1,683.311,389.132Z" transform="translate(-610.434 -377.859)"/><path class="p" d="M667.545,383.241l-39.836,11.312a7.811,7.811,0,0,1-.988-.834l37.694-10.7C665.474,383.075,666.521,383.15,667.545,383.241Z" transform="translate(-617.339 -379.669)"/><path class="p" d="M678.06,384.807l-44.373,12.6c-.693-.174-1.359-.356-2-.546l44.329-12.591Q677.073,384.528,678.06,384.807Z" transform="translate(-614.522 -378.954)"/><g transform="translate(25.604 4.819)"><g transform="translate(0.199 0.509)"><path class="j" d="M656.545,395.725v1.532H649.69v-1.463a89.694,89.694,0,0,1-12.493-.967l3.695-2.375a73.018,73.018,0,0,0,11.23.884c3.257,0,4.424-.193,4.424-.525,0-1.215-18.812-.234-18.812-3.837,0-1.56,3.985-2.872,11.957-3.188v-1.506h6.855v1.478a79.333,79.333,0,0,1,9.868.8l-3.45,2.361a66.654,66.654,0,0,0-9.48-.718c-3.353,0-4.424.276-4.424.607,0,1.16,18.814.194,18.814,3.756C667.873,394.054,664.081,395.352,656.545,395.725Z" transform="translate(-637.197 -384.279)"/></g><path class="l" d="M656.419,395.4v1.533h-6.855v-1.463a89.691,89.691,0,0,1-12.493-.967l3.695-2.375a73.023,73.023,0,0,0,11.23.884c3.256,0,4.424-.193,4.424-.525,0-1.215-18.814-.235-18.814-3.837,0-1.561,3.986-2.872,11.959-3.19v-1.5h6.855v1.478a79.378,79.378,0,0,1,9.868.8l-3.452,2.362a66.4,66.4,0,0,0-9.479-.718c-3.355,0-4.424.276-4.424.607,0,1.16,18.814.193,18.814,3.756C667.746,393.729,663.954,395.027,656.419,395.4Z" transform="translate(-637.07 -383.954)"/></g></g></g><g transform="translate(2.554 26.968)"><g transform="translate(0 11.431)"><path class="e" d="M703.648,388.1c0,.039,0,.077,0,.114a5.566,5.566,0,0,1-2.137,4.027,12.488,12.488,0,0,1-1.127.911,22.872,22.872,0,0,1-4.267,2.345c-.364.157-.74.312-1.126.464-1.3.513-2.729.992-4.268,1.436-.368.105-.743.21-1.125.312q-2.022.543-4.268,1c-.372.077-.746.15-1.127.221q-2.055.39-4.267.7c-.371.055-.748.105-1.126.155q-2.079.27-4.268.47-.56.052-1.125.1-2.093.172-4.267.274c-.375.017-.749.033-1.127.047q-2.1.08-4.267.092c-.249,0-.5,0-.754,0-.124,0-.249,0-.373,0q-2.163,0-4.268-.08c-.376-.013-.752-.028-1.125-.044q-1.6-.071-3.162-.179c-.37-.025-.74-.053-1.105-.081s-.752-.061-1.127-.1q-2.187-.19-4.267-.456c-.379-.047-.754-.1-1.127-.149q-1.324-.183-2.6-.393-.846-.139-1.671-.292c-.378-.071-.754-.143-1.126-.216-1.492-.3-2.919-.622-4.268-.973-.266-.069-.531-.141-.792-.212l-.335-.094q-.915-.256-1.779-.531-1.307-.414-2.488-.864c-.386-.149-.762-.3-1.125-.45a25.831,25.831,0,0,1-3.786-1.927c-.165-.105-.328-.21-.483-.317q-.294-.2-.563-.4c-.2-.146-.384-.295-.563-.444-1.629-1.356-2.517-2.826-2.517-4.358a3.146,3.146,0,0,1,.016-.321l0-8.676,2.5,0,1.126,0,4.268-.006,1.125,0,3.33,0,.937,0,1.127,0,4.268,0,1.126,0,4.267-.006,1.127,0,4.267-.008h1.127l4.267-.006,1.125,0,4.268,0,1.127,0,4.267-.006h1.127l4.267-.008,1.125,0,4.268-.006,1.126,0,4.267-.006,1.127,0,4.268-.006,1.125,0H691l3.989-.006,1.126,0,4.267-.006,1.127,0,2.121,0,.016,9Z" transform="translate(-622.356 -379.091)"/><g transform="translate(2.517 0.003)"><g transform="translate(0 0.111)"><path class="j" d="M625.088,379.164v14.205q-.294-.2-.563-.4c-.2-.146-.384-.295-.563-.444v-13.36Z" transform="translate(-623.962 -379.164)"/></g><g transform="translate(5.394 0.103)"><path class="j" d="M628.528,379.159v16.906c-.386-.149-.762-.3-1.125-.45V379.161Z" transform="translate(-627.403 -379.159)"/></g><g transform="translate(10.786 0.094)"><path class="j" d="M631.97,379.153v18.616c-.266-.069-.531-.141-.792-.212l-.335-.094V379.156Z" transform="translate(-630.843 -379.153)"/></g><g transform="translate(16.182 0.088)"><path class="j" d="M635.411,379.149v19.812c-.378-.071-.754-.143-1.126-.216V379.151Z" transform="translate(-634.285 -379.149)"/></g><g transform="translate(21.574 0.08)"><path class="j" d="M638.852,379.144V399.8c-.379-.047-.754-.1-1.127-.149v-20.5Z" transform="translate(-637.725 -379.144)"/></g><g transform="translate(26.968 0.072)"><path class="j" d="M642.293,379.139v21.214c-.378-.03-.752-.061-1.127-.1V379.139Z" transform="translate(-641.166 -379.139)"/></g><g transform="translate(32.362 0.063)"><path class="j" d="M645.732,379.133V400.66c-.376-.013-.752-.028-1.125-.044v-21.48Z" transform="translate(-644.607 -379.133)"/></g><g transform="translate(37.756 0.055)"><path class="j" d="M649.175,379.128v21.613c-.249,0-.5,0-.754,0-.124,0-.249,0-.373,0V379.131Z" transform="translate(-648.048 -379.128)"/></g><g transform="translate(43.15 0.049)"><path class="j" d="M652.616,379.124V400.6c-.375.017-.749.033-1.127.047V379.124Z" transform="translate(-651.489 -379.124)"/></g><g transform="translate(48.544 0.039)"><path class="j" d="M656.055,379.118v21.118q-.56.052-1.125.1V379.12Z" transform="translate(-654.93 -379.118)"/></g><g transform="translate(53.938 0.031)"><path class="j" d="M659.5,379.113v20.5c-.372.055-.748.105-1.126.155V379.115Z" transform="translate(-658.371 -379.113)"/></g><g transform="translate(59.331 0.024)"><path class="j" d="M662.938,379.108v19.585c-.371.077-.746.15-1.127.221v-19.8Z" transform="translate(-661.811 -379.108)"/></g><g transform="translate(64.726 0.016)"><path class="j" d="M666.378,379.1v18.282c-.368.105-.743.21-1.125.312V379.1Z" transform="translate(-665.253 -379.103)"/></g><g transform="translate(70.12 0.008)"><path class="j" d="M669.82,379.1v16.39c-.364.157-.74.312-1.126.464V379.1Z" transform="translate(-668.694 -379.098)"/></g><g transform="translate(75.512)"><path class="j" d="M673.261,379.093v13.142a12.488,12.488,0,0,1-1.127.911V379.095Z" transform="translate(-672.134 -379.093)"/></g></g></g><g transform="translate(0.014)"><path class="l" d="M703.635,383.339c0,6.372-18.19,11.54-40.634,11.54-3.068,0-6.054-.1-8.926-.281-3.612-.229-7.043-.6-10.221-1.078-2.836-.431-5.471-.955-7.855-1.558-.727-.183-1.434-.375-2.113-.574a33.951,33.951,0,0,1-7.4-2.98c-.371-.215-.721-.434-1.044-.657-1.985-1.359-3.08-2.85-3.08-4.413a2.816,2.816,0,0,1,.033-.428c.788-6.175,18.667-11.112,40.6-11.112a134.393,134.393,0,0,1,15.262.842q1.364.158,2.681.342a82,82,0,0,1,10.343,2.072q1,.275,1.934.569a33.774,33.774,0,0,1,5.7,2.312,12.128,12.128,0,0,1,3.652,2.767,4.361,4.361,0,0,1,1.036,2.209A2.814,2.814,0,0,1,703.635,383.339Z" transform="translate(-622.365 -371.799)"/><path class="o" d="M694.787,378.481l-48.492,13.9c-3.612-.229-7.043-.6-10.221-1.078l55.061-15.585A12.128,12.128,0,0,1,694.787,378.481Z" transform="translate(-614.584 -369.577)"/><path class="o" d="M679.828,372.678,625.374,388.1c-.372-.215-.721-.434-1.044-.657l52.817-15.111Q678.511,372.494,679.828,372.678Z" transform="translate(-621.25 -371.494)"/><path class="o" d="M689.049,374.445l-57.221,16.339c-.727-.183-1.434-.375-2.113-.574l57.4-16.334Q688.116,374.151,689.049,374.445Z" transform="translate(-618.193 -370.62)"/><path class="j" d="M692.526,382.5a3.478,3.478,0,0,1-.031.423c-.784,4.891-15.036,8.8-32.447,8.8s-31.661-3.91-32.447-8.8a3.478,3.478,0,0,1-.031-.423c0-5.087,14.569-9.224,32.478-9.224S692.526,377.414,692.526,382.5Z" transform="translate(-619.411 -370.96)"/><path class="e" d="M692.483,382.618c-.784,4.891-15.036,8.8-32.447,8.8-.39,0-.774,0-1.16-.006a106.163,106.163,0,0,1-11.021-.666,72.816,72.816,0,0,1-9.289-1.637c-.693-.174-1.359-.354-2-.546a22.968,22.968,0,0,1-6.792-3.025,7.826,7.826,0,0,1-.988-.834,3.892,3.892,0,0,1-1.193-2.086c.785-4.891,15.036-8.8,32.447-8.8,2.2,0,4.355.064,6.44.183,1.06.06,2.107.136,3.132.226a79.2,79.2,0,0,1,11.283,1.749q1.061.254,2.047.533A27.926,27.926,0,0,1,689.224,379a6.94,6.94,0,0,1,3.055,2.928A2.935,2.935,0,0,1,692.483,382.618Z" transform="translate(-619.4 -370.654)"/><path class="p" d="M684.942,380.049l-33.4,9.487a106.162,106.162,0,0,1-11.021-.666l41.369-11.749A6.94,6.94,0,0,1,684.942,380.049Z" transform="translate(-612.063 -368.778)"/><path class="p" d="M669.176,374.159l-39.838,11.313a7.828,7.828,0,0,1-.988-.834l37.694-10.7C667.1,373.993,668.15,374.069,669.176,374.159Z" transform="translate(-618.968 -370.588)"/><path class="p" d="M679.689,375.726l-44.373,12.6c-.693-.174-1.359-.354-2-.546l44.329-12.589Q678.7,375.447,679.689,375.726Z" transform="translate(-616.151 -369.873)"/><g transform="translate(25.604 4.819)"><g transform="translate(0.201 0.509)"><path class="j" d="M658.174,386.643v1.533H651.32v-1.464a89.446,89.446,0,0,1-12.493-.966l3.693-2.375a73.208,73.208,0,0,0,11.23.884c3.257,0,4.424-.194,4.424-.525,0-1.215-18.812-.235-18.812-3.837,0-1.561,3.986-2.872,11.959-3.19v-1.5h6.853v1.477a79.7,79.7,0,0,1,9.869.8l-3.452,2.361a66.671,66.671,0,0,0-9.481-.718c-3.353,0-4.424.277-4.424.608,0,1.16,18.814.193,18.814,3.756C669.5,384.973,665.709,386.271,658.174,386.643Z" transform="translate(-638.827 -375.198)"/></g><path class="l" d="M658.047,386.318v1.533h-6.855v-1.464a89.959,89.959,0,0,1-12.494-.966l3.695-2.375a73.222,73.222,0,0,0,11.23.883c3.257,0,4.424-.193,4.424-.524,0-1.215-18.814-.235-18.814-3.839,0-1.56,3.986-2.872,11.959-3.188v-1.5h6.855v1.477a79.36,79.36,0,0,1,9.868.8l-3.452,2.361a66.626,66.626,0,0,0-9.479-.718c-3.355,0-4.424.276-4.424.608,0,1.16,18.814.193,18.814,3.754C669.375,384.647,665.583,385.945,658.047,386.318Z" transform="translate(-638.699 -374.873)"/></g></g></g><g transform="translate(2.182 12.733)"><g transform="translate(0 11.431)"><path class="e" d="M703.411,379.014v.114a5.566,5.566,0,0,1-2.137,4.027,12.4,12.4,0,0,1-1.126.909,22.879,22.879,0,0,1-4.267,2.345c-.364.158-.741.312-1.127.464-1.3.514-2.729.992-4.267,1.436q-.553.16-1.127.314c-1.347.361-2.773.694-4.269,1q-.557.113-1.126.221-2.055.388-4.267.7c-.373.053-.748.1-1.127.154q-2.079.27-4.267.472c-.375.035-.749.066-1.127.1-1.394.114-2.819.205-4.267.273-.373.017-.749.034-1.125.049q-2.1.078-4.268.092c-.249,0-.5,0-.754,0h-.372q-2.163-.007-4.268-.08c-.378-.013-.753-.028-1.127-.045q-1.6-.068-3.16-.179-.557-.038-1.107-.081c-.378-.028-.752-.061-1.127-.094-1.456-.129-2.881-.281-4.267-.456-.378-.049-.754-.1-1.126-.149q-1.324-.183-2.6-.393-.846-.141-1.67-.292c-.379-.071-.755-.144-1.127-.216-1.492-.3-2.919-.622-4.268-.975q-.4-.1-.792-.212c-.113-.03-.224-.061-.334-.093-.611-.171-1.206-.35-1.781-.531q-1.3-.416-2.488-.865-.578-.221-1.126-.45a25.9,25.9,0,0,1-3.786-1.927c-.165-.1-.326-.208-.481-.315q-.294-.2-.564-.4c-.2-.146-.384-.295-.563-.445-1.627-1.356-2.516-2.825-2.516-4.356,0-.108,0-.215.014-.323l0-8.676,2.5,0,1.127,0,4.267-.006,1.126,0,3.331,0h.937l1.125,0,4.268-.006h1.127l4.267-.008,1.126,0,4.267-.006,1.127,0,4.267-.006,1.127,0,4.268-.006,1.126,0,4.268-.006,1.125,0,4.267-.006,1.127,0,4.267-.006,1.127,0,4.267-.006,1.126,0,4.269-.006,1.127,0h.278l3.989,0,1.127,0,4.267-.008h1.126l2.122,0,.014,9Z" transform="translate(-622.119 -370.01)"/><g transform="translate(2.516 0.003)"><g transform="translate(0 0.111)"><path class="j" d="M624.851,370.083v14.205q-.294-.2-.564-.4-.294-.219-.563-.445V370.085Z" transform="translate(-623.724 -370.083)"/></g><g transform="translate(5.394 0.102)"><path class="j" d="M628.29,370.077v16.906q-.578-.221-1.126-.45V370.08Z" transform="translate(-627.165 -370.077)"/></g><g transform="translate(10.788 0.094)"><path class="j" d="M631.731,370.072v18.615q-.4-.1-.792-.212c-.113-.03-.224-.061-.334-.093V370.075Z" transform="translate(-630.606 -370.072)"/></g><g transform="translate(16.182 0.088)"><path class="j" d="M635.174,370.068V389.88c-.379-.071-.755-.144-1.127-.216v-19.6Z" transform="translate(-634.047 -370.068)"/></g><g transform="translate(21.576 0.078)"><path class="j" d="M638.614,370.062v20.656c-.378-.049-.754-.1-1.126-.149V370.064Z" transform="translate(-637.488 -370.062)"/></g><g transform="translate(26.968 0.071)"><path class="j" d="M642.055,370.057v21.214c-.378-.028-.752-.061-1.127-.094V370.059Z" transform="translate(-640.928 -370.057)"/></g><g transform="translate(32.362 0.063)"><path class="j" d="M645.5,370.052v21.527c-.378-.013-.752-.028-1.127-.045v-21.48Z" transform="translate(-644.369 -370.052)"/></g><g transform="translate(37.758 0.055)"><path class="j" d="M648.937,370.047V391.66c-.249,0-.5,0-.754,0h-.372V370.049Z" transform="translate(-647.811 -370.047)"/></g><g transform="translate(43.152 0.047)"><path class="j" d="M652.377,370.042v21.48c-.373.017-.749.034-1.125.049V370.044Z" transform="translate(-651.252 -370.042)"/></g><g transform="translate(48.544 0.039)"><path class="j" d="M655.819,370.037v21.118c-.375.034-.749.066-1.127.1V370.039Z" transform="translate(-654.692 -370.037)"/></g><g transform="translate(53.938 0.031)"><path class="j" d="M659.26,370.032v20.5c-.373.053-.748.1-1.127.154V370.034Z" transform="translate(-658.133 -370.032)"/></g><g transform="translate(59.332 0.024)"><path class="j" d="M662.7,370.027v19.585q-.557.113-1.126.221v-19.8Z" transform="translate(-661.574 -370.027)"/></g><g transform="translate(64.726 0.014)"><path class="j" d="M666.142,370.021V388.3q-.552.16-1.127.314V370.024Z" transform="translate(-665.015 -370.021)"/></g><g transform="translate(70.12 0.008)"><path class="j" d="M669.583,370.017v16.389c-.364.158-.741.312-1.127.464V370.019Z" transform="translate(-668.456 -370.017)"/></g><g transform="translate(75.514)"><path class="j" d="M673.023,370.012v13.142a12.4,12.4,0,0,1-1.126.909V370.012Z" transform="translate(-671.897 -370.012)"/></g></g></g><g transform="translate(0.014)"><path class="l" d="M703.4,374.257c0,6.374-18.188,11.54-40.634,11.54-3.066,0-6.054-.1-8.926-.279-3.612-.229-7.042-.6-10.219-1.078-2.837-.431-5.472-.956-7.855-1.558-.729-.183-1.434-.376-2.115-.574a33.975,33.975,0,0,1-7.4-2.98c-.373-.215-.723-.434-1.046-.657-1.984-1.359-3.079-2.851-3.079-4.414a2.619,2.619,0,0,1,.033-.428c.787-6.175,18.665-11.111,40.6-11.111a134.389,134.389,0,0,1,15.262.84q1.366.16,2.68.342a82.505,82.505,0,0,1,10.343,2.072q1,.277,1.936.571a33.746,33.746,0,0,1,5.693,2.312,12.066,12.066,0,0,1,3.654,2.767,4.355,4.355,0,0,1,1.035,2.207A2.63,2.63,0,0,1,703.4,374.257Z" transform="translate(-622.128 -362.718)"/><path class="o" d="M694.55,369.4l-48.494,13.9c-3.612-.229-7.042-.6-10.219-1.079L690.9,366.633A12.066,12.066,0,0,1,694.55,369.4Z" transform="translate(-614.347 -360.496)"/><path class="o" d="M679.59,363.6l-54.452,15.428c-.373-.215-.723-.434-1.046-.657l52.817-15.113Q678.276,363.414,679.59,363.6Z" transform="translate(-621.013 -362.414)"/><path class="o" d="M688.812,365.365,631.592,381.7c-.729-.183-1.434-.376-2.115-.574l57.4-16.335Q687.878,365.071,688.812,365.365Z" transform="translate(-617.957 -361.54)"/><path class="j" d="M692.287,373.419a3.215,3.215,0,0,1-.031.423c-.784,4.889-15.036,8.8-32.447,8.8s-31.662-3.911-32.445-8.8a3.2,3.2,0,0,1-.031-.423c0-5.087,14.569-9.223,32.477-9.223S692.287,368.333,692.287,373.419Z" transform="translate(-619.174 -361.879)"/><path class="e" d="M692.244,373.537c-.784,4.889-15.036,8.8-32.447,8.8-.389,0-.774,0-1.16-.006a105.631,105.631,0,0,1-11.02-.668,72.771,72.771,0,0,1-9.289-1.635c-.695-.174-1.361-.356-2-.545a23.018,23.018,0,0,1-6.794-3.025,8.09,8.09,0,0,1-.988-.834,3.883,3.883,0,0,1-1.191-2.086c.784-4.891,15.036-8.8,32.445-8.8,2.2,0,4.356.063,6.44.183,1.061.06,2.108.136,3.132.226a78.985,78.985,0,0,1,11.283,1.749c.707.168,1.392.346,2.049.533a28.015,28.015,0,0,1,6.284,2.488,6.934,6.934,0,0,1,3.055,2.93A2.758,2.758,0,0,1,692.244,373.537Z" transform="translate(-619.163 -361.573)"/><path class="p" d="M684.7,370.969l-33.4,9.487a105.639,105.639,0,0,1-11.02-.668l41.368-11.749A6.934,6.934,0,0,1,684.7,370.969Z" transform="translate(-611.826 -359.698)"/><path class="p" d="M668.938,365.078,629.1,376.391a8.1,8.1,0,0,1-.988-.834l37.694-10.7C666.867,364.912,667.914,364.988,668.938,365.078Z" transform="translate(-618.732 -361.507)"/><path class="p" d="M679.452,366.645l-44.373,12.6c-.694-.174-1.361-.356-2-.545L677.4,366.112C678.11,366.28,678.8,366.458,679.452,366.645Z" transform="translate(-615.914 -360.792)"/><g transform="translate(25.604 4.819)"><g transform="translate(0.199 0.509)"><path class="j" d="M657.937,377.562v1.531h-6.855v-1.463a89.7,89.7,0,0,1-12.493-.967l3.695-2.373a73.217,73.217,0,0,0,11.229.883c3.257,0,4.425-.193,4.425-.524,0-1.215-18.814-.235-18.814-3.839,0-1.56,3.986-2.872,11.959-3.188v-1.5h6.855v1.477a79.392,79.392,0,0,1,9.868.8l-3.452,2.361a66.647,66.647,0,0,0-9.479-.718c-3.355,0-4.424.276-4.424.608,0,1.158,18.812.193,18.812,3.754C669.263,375.891,665.471,377.189,657.937,377.562Z" transform="translate(-638.589 -366.117)"/></g><path class="l" d="M657.809,377.237v1.532h-6.853v-1.462a89.649,89.649,0,0,1-12.494-.967l3.695-2.375a72.982,72.982,0,0,0,11.229.884c3.257,0,4.424-.193,4.424-.525,0-1.215-18.812-.234-18.812-3.837,0-1.56,3.986-2.872,11.959-3.188v-1.5h6.853v1.477a79.39,79.39,0,0,1,9.869.8l-3.452,2.361a66.659,66.659,0,0,0-9.481-.718c-3.353,0-4.424.276-4.424.607,0,1.16,18.814.194,18.814,3.756C669.136,375.566,665.344,376.864,657.809,377.237Z" transform="translate(-638.462 -365.792)"/></g></g></g><g transform="translate(0.158)"><g transform="translate(0 11.431)"><path class="e" d="M702.12,370.893c0,.038,0,.075,0,.114a5.569,5.569,0,0,1-2.137,4.027,12.46,12.46,0,0,1-1.127.909,22.875,22.875,0,0,1-4.267,2.345c-.364.158-.74.312-1.125.464-1.3.513-2.729.992-4.268,1.436q-.553.16-1.126.313-2.022.541-4.268,1c-.372.077-.746.15-1.127.221q-2.055.39-4.267.7c-.371.053-.748.1-1.125.154q-2.079.27-4.268.472-.56.049-1.126.1c-1.394.114-2.818.205-4.267.273-.375.017-.749.035-1.127.049q-2.1.078-4.267.091c-.249,0-.5,0-.754,0-.124,0-.249,0-.373,0q-2.163,0-4.267-.078c-.378-.014-.754-.028-1.127-.045q-1.6-.071-3.162-.179c-.37-.025-.74-.052-1.105-.081s-.752-.061-1.127-.1q-2.187-.19-4.267-.455c-.379-.049-.754-.1-1.127-.15q-1.324-.181-2.6-.392-.846-.141-1.671-.293c-.378-.071-.754-.143-1.125-.216-1.492-.295-2.919-.621-4.269-.973-.266-.069-.531-.14-.792-.212-.113-.03-.224-.063-.335-.094q-.915-.256-1.779-.53-1.307-.416-2.488-.865c-.387-.149-.762-.3-1.127-.45a25.871,25.871,0,0,1-3.784-1.926c-.165-.105-.328-.21-.483-.317-.2-.132-.384-.265-.563-.4-.2-.146-.384-.295-.563-.444-1.629-1.356-2.517-2.825-2.517-4.356a3.154,3.154,0,0,1,.016-.323l0-8.676,2.5,0,1.125,0,4.267,0,1.127,0,3.329,0,.937,0,1.127,0,4.269-.006,1.125,0,4.267-.006,1.127,0,4.267-.008h1.127l4.267-.006,1.127,0,4.267-.006,1.127,0,4.267,0,1.127,0,4.267-.008h1.126l4.268-.008,1.125,0,4.267,0,1.127,0,4.268,0,1.126,0h.279l3.99-.006h1.125l4.267-.008,1.127,0,2.121,0,.016,9.006Z" transform="translate(-620.828 -361.887)"/><g transform="translate(2.518 0.003)"><g transform="translate(0 0.111)"><path class="j" d="M623.559,361.96v14.205c-.2-.132-.384-.265-.563-.4-.2-.146-.384-.295-.563-.444V361.963Z" transform="translate(-622.434 -361.96)"/></g><g transform="translate(5.392 0.103)"><path class="j" d="M627,361.955v16.906c-.387-.149-.762-.3-1.127-.45V361.958Z" transform="translate(-625.874 -361.955)"/></g><g transform="translate(10.786 0.096)"><path class="j" d="M630.442,361.95v18.615c-.266-.069-.531-.14-.792-.212-.113-.03-.224-.063-.335-.094V361.952Z" transform="translate(-629.315 -361.95)"/></g><g transform="translate(16.182 0.088)"><path class="j" d="M633.882,361.945v19.812c-.378-.071-.754-.143-1.125-.216V361.947Z" transform="translate(-632.757 -361.945)"/></g><g transform="translate(21.574 0.08)"><path class="j" d="M637.324,361.94V382.6c-.379-.049-.754-.1-1.127-.15v-20.5Z" transform="translate(-636.197 -361.94)"/></g><g transform="translate(26.968 0.072)"><path class="j" d="M640.765,361.935v21.214c-.378-.03-.752-.061-1.127-.1V361.935Z" transform="translate(-639.638 -361.935)"/></g><g transform="translate(32.362 0.064)"><path class="j" d="M644.206,361.93v21.527c-.378-.014-.754-.028-1.127-.045v-21.48Z" transform="translate(-643.079 -361.93)"/></g><g transform="translate(37.756 0.055)"><path class="j" d="M647.647,361.924v21.613c-.249,0-.5,0-.754,0-.124,0-.249,0-.373,0V361.927Z" transform="translate(-646.52 -361.924)"/></g><g transform="translate(43.15 0.049)"><path class="j" d="M651.088,361.92V383.4c-.375.017-.749.035-1.127.049V361.922Z" transform="translate(-649.961 -361.92)"/></g><g transform="translate(48.544 0.041)"><path class="j" d="M654.528,361.915v21.118q-.56.049-1.126.1V361.915Z" transform="translate(-653.402 -361.915)"/></g><g transform="translate(53.938 0.031)"><path class="j" d="M657.968,361.909v20.5c-.371.053-.748.1-1.125.154V361.911Z" transform="translate(-656.843 -361.909)"/></g><g transform="translate(59.331 0.023)"><path class="j" d="M661.41,361.9v19.585c-.371.077-.746.15-1.127.221v-19.8Z" transform="translate(-660.283 -361.904)"/></g><g transform="translate(64.726 0.016)"><path class="j" d="M664.851,361.9v18.283q-.553.16-1.126.313V361.9Z" transform="translate(-663.725 -361.899)"/></g><g transform="translate(70.12 0.009)"><path class="j" d="M668.291,361.895v16.389c-.364.158-.74.312-1.125.464V361.895Z" transform="translate(-667.166 -361.895)"/></g><g transform="translate(75.512)"><path class="j" d="M671.733,361.889v13.144a12.46,12.46,0,0,1-1.127.909V361.891Z" transform="translate(-670.606 -361.889)"/></g></g></g><g transform="translate(0.014)"><path class="l" d="M702.107,366.135c0,6.374-18.19,11.54-40.634,11.54-3.068,0-6.054-.1-8.926-.279-3.612-.23-7.043-.6-10.22-1.08-2.836-.431-5.471-.955-7.855-1.557-.727-.185-1.434-.376-2.113-.575a33.957,33.957,0,0,1-7.4-2.978c-.371-.216-.721-.436-1.044-.658-1.985-1.359-3.08-2.85-3.08-4.413a2.823,2.823,0,0,1,.033-.428c.789-6.175,18.667-11.112,40.6-11.112a134.411,134.411,0,0,1,15.262.842q1.364.158,2.681.342a82.284,82.284,0,0,1,10.343,2.072q1,.275,1.936.571a33.819,33.819,0,0,1,5.693,2.311,12.1,12.1,0,0,1,3.652,2.768,4.351,4.351,0,0,1,1.036,2.207A2.8,2.8,0,0,1,702.107,366.135Z" transform="translate(-620.837 -354.595)"/><path class="o" d="M693.259,361.278l-48.492,13.9c-3.612-.23-7.043-.6-10.22-1.08l55.061-15.585A12.1,12.1,0,0,1,693.259,361.278Z" transform="translate(-613.056 -352.373)"/><path class="o" d="M678.3,355.474,623.846,370.9c-.372-.216-.721-.436-1.044-.658l52.817-15.111Q676.983,355.29,678.3,355.474Z" transform="translate(-619.722 -354.29)"/><path class="o" d="M687.522,357.243,630.3,373.581c-.727-.185-1.434-.376-2.113-.575l57.4-16.334Q686.588,356.947,687.522,357.243Z" transform="translate(-616.665 -353.416)"/><path class="j" d="M691,365.3a3.454,3.454,0,0,1-.031.423c-.785,4.891-15.036,8.8-32.447,8.8s-31.662-3.91-32.447-8.8a3.454,3.454,0,0,1-.031-.423c0-5.085,14.569-9.224,32.478-9.224S691,360.211,691,365.3Z" transform="translate(-617.883 -353.756)"/><path class="e" d="M690.955,365.413c-.785,4.891-15.036,8.8-32.447,8.8-.39,0-.774,0-1.16-.006a105.711,105.711,0,0,1-11.021-.666,73.11,73.11,0,0,1-9.289-1.635c-.693-.174-1.359-.356-2-.547a22.944,22.944,0,0,1-6.792-3.025,7.809,7.809,0,0,1-.987-.834,3.891,3.891,0,0,1-1.193-2.086c.785-4.889,15.036-8.8,32.447-8.8,2.2,0,4.355.063,6.439.182,1.06.061,2.107.136,3.132.227a79.212,79.212,0,0,1,11.283,1.748q1.061.254,2.049.533a27.937,27.937,0,0,1,6.284,2.489,6.934,6.934,0,0,1,3.055,2.93A2.9,2.9,0,0,1,690.955,365.413Z" transform="translate(-617.872 -353.45)"/><path class="p" d="M683.414,362.847l-33.4,9.485a105.719,105.719,0,0,1-11.021-.666l41.369-11.749A6.934,6.934,0,0,1,683.414,362.847Z" transform="translate(-610.535 -351.574)"/><path class="p" d="M667.648,356.956,627.81,368.268a7.806,7.806,0,0,1-.988-.834l37.693-10.7C665.575,356.79,666.622,356.865,667.648,356.956Z" transform="translate(-617.44 -353.384)"/><path class="p" d="M678.163,358.522l-44.374,12.6c-.693-.174-1.359-.356-2-.547l44.329-12.589Q677.175,358.243,678.163,358.522Z" transform="translate(-614.623 -352.669)"/></g></g></g></g><g transform="translate(378.758 287.121)"><g transform="translate(53.733 23.646)"><path class="q" d="M465.642,268.6l1.774,5.435c-5.6,3.286-19.739,11.012-26.04,13.327-1.872.688-4.49,1.543-7.466,2.467-1.135.351-2.323.716-3.544,1.085-1.05.315-2.122.632-3.206.953-.049.014-.1.03-.146.042-1.434.166-3.254.37-5.32.583l.019-8.661,3.4-.944,2-.552,2.826-.782,6.187-1.712C440.763,276.983,460.922,271.081,465.642,268.6Z" transform="translate(-403.045 -261.057)"/><g transform="translate(60.257)"><path class="q" d="M458.542,268.023c.154-.058,2-.743,2.549.028a1.384,1.384,0,0,1-.085,1.611s1.359.767,1.4,1.558a1.82,1.82,0,0,1-.613,1.332s.873.43.846,1.177-1.053,1.845-2.577,2.248a3.137,3.137,0,0,1-2.159,0l-.023-.016s-.252.094-.691.24c-.734.245-1.994.635-3.467.964-2.353.527-5.265-2.712-5.48-4.8a24.4,24.4,0,0,1,1.851-4.416c.989-1.611,1.707-1.991,2.9-1.832s2.373.56,2.632.513,6.367-3.217,7.77-2.809C464.765,264.223,458.807,267.86,458.542,268.023Z" transform="translate(-448.237 -263.786)"/><g transform="translate(3.351 4.2)"><path class="r" d="M450.707,269.316a.322.322,0,0,1-.158-.041.335.335,0,0,1-.135-.451l.741-1.372a.332.332,0,0,1,.477-.119,4.315,4.315,0,0,0,2.92.641,1.206,1.206,0,0,0,.828-.513.7.7,0,0,0,.02-.536.333.333,0,0,1,.613-.262,1.361,1.361,0,0,1-.033,1.088,1.793,1.793,0,0,1-1.267.868,4.636,4.636,0,0,1-3.135-.549L451,269.141A.336.336,0,0,1,450.707,269.316Z" transform="translate(-450.375 -266.465)"/><g transform="translate(4.061 1.291)"><path class="r" d="M455.216,273.992l-.023-.016s-.252.094-.691.24a3.46,3.46,0,0,1-.665-2.207,2.459,2.459,0,0,0-.378-1.5,2.078,2.078,0,0,1-.488-1.238,2.935,2.935,0,0,1,.146-1.088,3.275,3.275,0,0,1,.11-.313,3.588,3.588,0,0,1,.2-.414.333.333,0,0,1,.574.34.523.523,0,0,0-.038.071,2.872,2.872,0,0,0-.328,1.24,1.482,1.482,0,0,0,.334.977,3.029,3.029,0,0,1,.533,1.9A2.553,2.553,0,0,0,455.216,273.992Z" transform="translate(-452.965 -267.289)"/></g><g transform="translate(1.342 1.738)"><path class="r" d="M451.565,271.357a.333.333,0,0,1-.143-.635h0a4.06,4.06,0,0,0,2.2-2.85.333.333,0,0,1,.663.069,4.663,4.663,0,0,1-2.576,3.384A.325.325,0,0,1,451.565,271.357Z" transform="translate(-451.231 -267.574)"/></g></g></g><path class="c" d="M468.22,269.679c-12.49,4.223-21.918,7.031-31.671,9.416-17.459,4.272-26.752,1.759-26.752,1.759l6.56,12.055,1.166,2.144a18.516,18.516,0,0,0,6.441.348,54.879,54.879,0,0,0,13.335-3.384c17.9-6.993,29.611-12.6,34.46-15.953Z" transform="translate(-409.797 -260.441)"/><path class="s" d="M447.952,269.116l-3.008,1.41,4.122,7.9,3.1-1.789Z" transform="translate(-389.849 -260.761)"/><path class="s" d="M421.589,287.87a18.557,18.557,0,0,1-6.441-.346l-1.166-2.146a3.227,3.227,0,0,1,2.079-2.43A11.756,11.756,0,0,0,421.589,287.87Z" transform="translate(-407.422 -252.91)"/></g><g transform="translate(4.24 209.135)"><path class="q" d="M388.1,382.116l-5.12,6.847a10.931,10.931,0,0,0,4.726,5.421l6.123-7.879Z" transform="translate(-375.522 -382.116)"/><g transform="translate(0 5.723)"><path class="e" d="M389.562,390.191s2.4-.516,3.213.312,2.876,12.094,4.8,14.558-.014,3.775-1.2,4.273-18.155-16.453-18.155-16.453,4.195-5.8,6.219-6.922S387.415,389,389.562,390.191Z" transform="translate(-378.224 -385.767)"/></g></g><g transform="translate(47.344 220.321)"><path class="q" d="M406.282,389.824l.778,8.515a10.942,10.942,0,0,0,7.139.867l-.721-9.954Z" transform="translate(-405.403 -389.252)"/><g transform="translate(0 6.753)"><path class="e" d="M412.965,395.563s1.5-2.072,2.712-2,10.677,7.374,13.892,7.941,2.626,2.938,2.055,4.152-25.452.519-25.452.519-.915-8.032-.133-10.319S410.466,396.139,412.965,395.563Z" transform="translate(-405.721 -393.56)"/></g></g><g transform="translate(13.414 128.052)"><path class="t" d="M413.317,330.807l-5.171,42.8a142.986,142.986,0,0,0-9.062,14.349c-3.71,6.761-13.6,24.3-13.6,24.3l5.982,4.56,32.764-33.952,8.722-52.474Z" transform="translate(-383.278 -330.39)"/><path class="f" d="M393.737,387.641a6.608,6.608,0,0,1-2.715,3.039l-6.946-5.867a10.465,10.465,0,0,1,2.365-3.212Z" transform="translate(-384.076 -301.325)"/></g><g transform="translate(16.992 128.454)"><path class="f" d="M386.359,332.431s9.227,22.683,21.217,40.372c0,0,1.792,17.215,4.853,26.379,1.342,4.013,3.939,23.024,3.939,23.024l9.095-.414-2.347-52.86-9.623-38.286Z" transform="translate(-386.359 -330.647)"/><path class="k" d="M415.834,388.593a7.647,7.647,0,0,1,0,4.72l-10.528.295a12.112,12.112,0,0,1-.434-4.6Z" transform="translate(-375.884 -297.759)"/></g><g transform="translate(16.679 39.831)"><g transform="translate(0 0.47)"><path class="c" d="M433.935,361.4c0,1.859,0,3.336-.019,4.331a93.421,93.421,0,0,1-13.215,2.572c-.116.014-.234.03-.351.042-.2.025-.39.047-.586.069l-.147.014c-.763.085-1.524.157-2.29.219a88.653,88.653,0,0,1-11.36.2c-.332-.016-.662-.033-1-.053-.295-.014-.6-.033-.9-.055-.133-.006-.27-.016-.4-.027-.254-.017-.5-.038-.756-.056a92.158,92.158,0,0,1-16.691-2.93c-.028-2.191-.055-6.656-.064-12.414,0-.315,0-.635,0-.959-.006-6.352.019-14.146.094-22.173.006-.635.013-1.268.022-1.906q.009-1.1.022-2.218c0-.124,0-.251,0-.375,0-.174.006-.346.009-.522,0-.35.006-.7.013-1.047.008-.509.014-1.016.022-1.521,0-.384.013-.768.016-1.152.011-.765.025-1.53.036-2.289.27-15.936.807-30.58,1.831-34.306a2.721,2.721,0,0,1,.3-.745,4.82,4.82,0,0,1,.395-.506,8.816,8.816,0,0,1,.661-.669,48.031,48.031,0,0,1,7.668-5.126c.35-.2.7-.4,1.05-.6.053-.028,8.156-2.762,8.208-2.793l8.477.594c1.017.6,9.037,3.323,10.021,3.936q.437.275.861.546a19.437,19.437,0,0,1,5.121,4.22c1.234,1.812,1.98,18.082,2.411,35.78.013.409.02.817.031,1.223.045,1.873.085,3.756.122,5.637.038,1.858.072,3.712.1,5.551.05,3.011.094,5.975.13,8.832,0,.324.006.646.011.969.033,2.784.06,5.454.08,7.946,0,.328,0,.649.006.969.028,3.742.047,7.056.049,9.716v0C433.935,360.7,433.935,361.056,433.935,361.4Z" transform="translate(-386.159 -274.411)"/></g><path class="b" d="M406.7,290.764l9.708-.564s.364,11.783-4.8,11.421S406.7,290.764,406.7,290.764Z" transform="translate(-374.503 -264.98)"/><g transform="translate(0.139 31.215)"><path class="s" d="M394.6,294.467a.442.442,0,0,0-.792-.27,43.762,43.762,0,0,0-6.678,13.246c-.31.994-.58,1.956-.814,2.872,0,.384-.011.768-.016,1.152-.008.5-.014,1.011-.022,1.521-.006.346-.011.7-.013,1.047,0,.176,0,.348-.009.522,0,.124,0,.251,0,.375a53.549,53.549,0,0,1,1.724-7.248,42.878,42.878,0,0,1,6.534-12.951.449.449,0,0,0,.089-.265Z" transform="translate(-386.248 -294.024)"/></g><g transform="translate(9.77 61.859)"><path class="s" d="M392.832,329.622h0c9.155-.041,16.969-4.206,21.911-7.694a50.221,50.221,0,0,0,8.617-7.631.441.441,0,0,0-.674-.567,49.255,49.255,0,0,1-8.471,7.493c-4.836,3.408-12.471,7.479-21.386,7.518a.44.44,0,0,0,0,.881Z" transform="translate(-392.392 -313.573)"/></g><g transform="translate(17.37 75.461)"><path class="s" d="M399.621,327.807c7.943,0,15.865-4.527,16.224-4.736a.44.44,0,1,0-.44-.762c-.092.053-9.413,5.377-17.677,4.521a.44.44,0,1,0-.091.876A19.062,19.062,0,0,0,399.621,327.807Z" transform="translate(-397.241 -322.25)"/></g><g transform="translate(21.214 7.157)"><path class="h" d="M410.613,335.137l-4.174,12.873-5.816-11.523,1.388-50.319.054-1.9,2.262-.319.313,2.554Z" transform="translate(-399.164 -275.682)"/><path class="u" d="M404.138,286.508l-1.088,1.354-1.542-1.694.054-1.9,2.262-.319Z" transform="translate(-398.662 -275.682)"/><path class="h" d="M399.692,284.592l4.017,4.341L407,283.572l-2.87-4.895Z" transform="translate(-399.692 -278.677)"/></g><path class="b" d="M399.58,274.111l-1.276.908a12.486,12.486,0,0,0-1.016.8,2.659,2.659,0,0,0-1.063,2.966,3.5,3.5,0,0,0,.147.6h0l2.427,11.68,7.342-9.791S400.813,279.372,399.58,274.111Z" transform="translate(-380.492 -274.111)"/><path class="b" d="M405.645,274.411s3.367,3.188,2.378,6.991l-1.535,6.458-3.966-6.762S405.362,279.374,405.645,274.411Z" transform="translate(-376.873 -273.941)"/></g><g transform="translate(0 49.731)"><path class="q" d="M377.043,369.35c-.208,2.262,2.547,1.035,1.768-3.549s1.431-8.734,2.383-8.6-.789,5.005.06,6.761,1.941-1.655,3.03-3.723c1.13-2.149,1.063-6.838.549-10.183s5.551-23.672,5.582-29.561l.74-2.5,2.706-9.142,4.236-14.316s-2.538-10.835-6.816-9.9c0,0-2.265,7.548-4.687,16.06-.409,1.445-.824,2.919-1.234,4.388-1.724,6.171-3.345,12.265-4.1,15.879-1.989,9.545-2.143,29.385-2.143,29.385s-3.511,7.289-3.594,10.532C375.434,364.337,377.25,367.086,377.043,369.35Z" transform="translate(-375.519 -278.071)"/><path class="c" d="M393.947,280.562c-.074.163-.3-.342-.428-.034-.5,1.144-2.695,3.971-3.783,6.723-.14.351-.281.716-.428,1.088-1.564,4.021-10.186,30.492-11.948,53.081l8.4,1.575c2.662-14.781,4.33-19.247,5.966-26.537.848-2.84,1.727-5.568,2.552-8.074l.006-.019c.329-1,.652-1.969.959-2.892a.21.21,0,0,1,.017-.047c.107-.324.21-.644.317-.958v0a68.57,68.57,0,0,0,2.455-8.394C398.768,291.435,396.766,282.352,393.947,280.562Z" transform="translate(-374.474 -280.426)"/><path class="s" d="M377.246,318.3l-.569,3.431,9.951,1.563.695-3.409Z" transform="translate(-374.862 -258.929)"/><g transform="translate(1.403 64.243)"><path class="t" d="M377.693,321.745s5.5-.408,7.833,1.259l-.489,3.22s-6.427-.719-7.927-.636C377.109,325.587,376.962,322.406,377.693,321.745Z" transform="translate(-376.026 -321.243)"/><path class="f" d="M380.852,324.08a2.257,2.257,0,1,1-2.22-2.671A2.478,2.478,0,0,1,380.852,324.08Z" transform="translate(-376.414 -321.409)"/><path class="k" d="M379.8,323.762a1.651,1.651,0,1,1-1.622-1.955A1.811,1.811,0,0,1,379.8,323.762Z" transform="translate(-376.335 -321.183)"/></g></g><g transform="translate(25.825)"><path class="f" d="M393.527,265.4c0,7.36,4.532,12.431,11.89,12.431s12.489-5.454,12.489-12.812-4.358-12.935-11.717-12.935C397.363,252.08,393.527,258.037,393.527,265.4Z" transform="translate(-391.123 -246.784)"/><path class="f" d="M393.645,267.314s.857-5.56,0-8.433.039-3.2,1.942-3.723,1.185-2.875,3.013-3.331c2.22-.555,3.018.848,4.709-1.242s3.261-2.2,4.892-1.483c2.032.9,2.6.107,5.226-.281a4.435,4.435,0,0,1,5.038,3.2c.445,1.828-1.358,3.4-.61,4.7s.828,5.532-1.168,7.054S393.645,267.314,393.645,267.314Z" transform="translate(-391.241 -248.701)"/><g transform="translate(0 20.416)"><path class="r" d="M396.051,263.09s-2.044-2.726-3.565-.472.629,8.913,4.352,7.288Z" transform="translate(-391.993 -261.726)"/><g transform="translate(0.798 2.387)"><path class="v" d="M395.736,266.983a.315.315,0,0,1-.3-.229,4.866,4.866,0,0,0-2.728-2.9.315.315,0,0,1,.223-.589,5.416,5.416,0,0,1,3.11,3.315.313.313,0,0,1-.3.4Z" transform="translate(-392.503 -263.248)"/></g><g transform="translate(1.567 3.623)"><path class="v" d="M393.308,265.5a.314.314,0,0,1-.265-.484,2.885,2.885,0,0,1,1.18-.953.315.315,0,0,1,.257.575,2.252,2.252,0,0,0-.908.718A.314.314,0,0,1,393.308,265.5Z" transform="translate(-392.993 -264.037)"/></g></g><g transform="translate(24.342 20.416)"><path class="r" d="M408.309,263.09s2.044-2.726,3.565-.472-.629,8.913-4.352,7.288Z" transform="translate(-407.522 -261.726)"/><g transform="translate(0.499 2.387)"><path class="v" d="M408.155,266.983a.315.315,0,0,0,.3-.229,4.866,4.866,0,0,1,2.728-2.9.315.315,0,0,0-.223-.589,5.416,5.416,0,0,0-3.11,3.315.313.313,0,0,0,.3.4Z" transform="translate(-407.84 -263.248)"/></g><g transform="translate(1.604 3.623)"><path class="v" d="M409.9,265.5a.314.314,0,0,0,.265-.484,2.884,2.884,0,0,0-1.18-.953.315.315,0,0,0-.257.575,2.252,2.252,0,0,1,.908.718A.314.314,0,0,0,409.9,265.5Z" transform="translate(-408.545 -264.037)"/></g></g><path class="q" d="M408.02,270.547v6.621s.892,6.2-4.148,6.161c-2.677-.02-5.537-5.463-5.537-5.463v-6.853Z" transform="translate(-388.394 -236.303)"/><path class="r" d="M408.02,270.547v2.938c-1.792,1.989-4.974,2.485-9.684,1.79v-4.262Z" transform="translate(-388.394 -236.303)"/><path class="q" d="M417.572,262.71a64.357,64.357,0,0,1-.859,8.363c-.122.643-.26,1.246-.415,1.787-1.394,4.88-4.878,13.246-14.636,9.761-4.309-1.538-6.306-6.338-7.2-11.221a47.234,47.234,0,0,1-.651-9.059,6.916,6.916,0,0,1,3.507-5.883c5.759-3.265,11.837-2.047,15.839-.509A6.89,6.89,0,0,1,417.572,262.71Z" transform="translate(-390.965 -245.471)"/><path class="f" d="M399.6,263.307c0,.707-.364,1.281-.814,1.281s-.814-.574-.814-1.281.364-1.279.814-1.279S399.6,262.6,399.6,263.307Z" transform="translate(-388.6 -241.138)"/><path class="f" d="M405.622,263.307c0,.707-.365,1.281-.814,1.281s-.814-.574-.814-1.281.364-1.279.814-1.279S405.622,262.6,405.622,263.307Z" transform="translate(-385.182 -241.138)"/><path class="f" d="M407.57,260.507a6.908,6.908,0,0,0-4.544-.16l.2,1.1a12.658,12.658,0,0,1,4.364.346A1.916,1.916,0,0,0,407.57,260.507Z" transform="translate(-385.732 -242.286)"/><path class="f" d="M396.427,260.507a6.908,6.908,0,0,1,4.544-.16l-.2,1.1a12.649,12.649,0,0,0-4.363.346A1.906,1.906,0,0,1,396.427,260.507Z" transform="translate(-389.546 -242.286)"/><g transform="translate(13.521 21.531)"><path class="r" d="M402.011,268.624a3.348,3.348,0,0,1-1.16-.1.314.314,0,1,1,.166-.607,1.887,1.887,0,0,0,1.267-.035.345.345,0,0,0,.118-.31,47.952,47.952,0,0,0-.773-4.758.315.315,0,0,1,.616-.127,46.264,46.264,0,0,1,.785,4.874.962.962,0,0,1-.361.818A1.33,1.33,0,0,1,402.011,268.624Z" transform="translate(-400.619 -262.437)"/></g><path class="h" d="M398.763,267.588c.257,1.293,1.111,3.673,3.989,3.673s3.695-2.174,3.974-3.673Z" transform="translate(-388.151 -237.982)"/><g transform="translate(12.736 34.215)"><path class="r" d="M401.743,271.542a3.3,3.3,0,0,0,1.533-.43.315.315,0,0,0-.326-.539,2.678,2.678,0,0,1-1.207.339,2.563,2.563,0,0,1-1.146-.337.315.315,0,0,0-.331.536A3.151,3.151,0,0,0,401.743,271.542Z" transform="translate(-400.118 -270.528)"/></g><path class="f" d="M417.24,267.308h-1.425a10.336,10.336,0,0,0-.793-4.314c-.973-2.613,1.1-3.765-.577-5.074s-5.85-.749-8.753-.843a62.191,62.191,0,0,0-8.752.212c-1.141.26-.516,2.155-.1,3.626s-1.4,3.088-1.706,4.609a6.735,6.735,0,0,0,0,1.785h-1.188c-.141-1.85-.163-3.571-.136-4.966a6.916,6.916,0,0,1,3.507-5.883c5.759-3.265,11.837-2.047,15.839-.509a6.89,6.89,0,0,1,4.413,6.761C417.505,264.119,417.4,265.723,417.24,267.308Z" transform="translate(-390.965 -245.471)"/></g></g></g></svg>