<svg xmlns="http://www.w3.org/2000/svg" xmlns:xlink="http://www.w3.org/1999/xlink" width="452.348" height="473.293" viewBox="0 0 452.348 473.293"><defs><style>.a{fill:none;}.b{fill:#3180c9;}.ah,.c{opacity:0.5;}.d{fill:#359eff;}.e{fill:#f8f5f4;}.f{fill:#ffde3b;}.g{fill:#4c8cd8;}.ah,.aj,.bh,.h,.x,.y{isolation:isolate;}.i,.y{fill:#bdb6c6;}.j{fill:#e9e6e6;}.k{fill:#2d2b29;}.l{fill:#b7bbbc;}.m{fill:#cfd2d3;}.n{fill:#4664c6;}.o{fill:#788eff;}.p{fill:#92acff;}.q{fill:#7b9fe1;}.r{fill:#2d6ad8;}.s{fill:#f25a5a;}.t{fill:#97cc66;}.u{fill:#44bfe5;}.v{fill:#e1e9f4;}.w{fill:#86b1ff;}.x{fill:#aca5b7;opacity:0.3;}.ah,.aj,.bh,.x,.y{mix-blend-mode:multiply;}.y{opacity:0.6;}.ad,.z{fill:#ffda40;}.aa{fill:url(#a);}.ab,.bh{fill:#d6850f;}.ac{fill:#ffbd29;}.ad,.aj{opacity:0.7;}.ae{fill:#312f2c;}.af{fill:#393532;}.ag,.ah{fill:#a1a81b;}.ai{fill:#252321;}.aj{fill:#679926;}.ak{fill:#717f89;}.al{fill:#92a3ad;}.am{fill:#db7521;}.an{fill:#f9963d;}.ao{fill:url(#b);}.ap{fill:#ee9b1e;}.aq{fill:#683426;}.ar{fill:#f7b425;}.as{fill:#7a3e2b;}.at{fill:#ffc343;}.au{fill:#8c4b34;}.av{fill:url(#c);}.aw{clip-path:url(#d);}.ax{fill:#fff0e5;}.ay{fill:#bcbcbc;}.az{fill:url(#e);}.ba{fill:#e6e4e2;}.bb{fill:#737271;}.bc{fill:#2d3133;}.bd{fill:#e4e6e6;}.be{fill:#b3b5b5;}.bf{fill:url(#f);}.bg{fill:#cbcdcd;}.bh{opacity:0.4;}.bi{fill:#d13333;}.bj{fill:#ff5050;}.bk{fill:#ed4040;}.bl{fill:#911975;}.bm{fill:#ed54d0;}.bn{fill:#c93aa7;}.bo{fill:#0982cc;}.bp{fill:#6ed6ff;}.bq{fill:#dfe62e;}.br{fill:#bed32a;}.bs{opacity:0.1;}.bt{fill:#c7efff;}.bu{fill:#1b1d1e;}.bv{fill:#1d2c66;}.bw{fill:#e1f8ff;}.bx{fill:#f3a984;}.by{fill:#fcbe9f;}.bz{fill:#724a2f;}.ca{fill:#b0b5b0;}.cb{fill:#2a4c96;}.cc{fill:#373431;}</style><linearGradient id="a" x1="0.12" y1="0.5" x2="0.824" y2="0.5" gradientUnits="objectBoundingBox"><stop offset="0" stop-color="#d6850f"/><stop offset="1" stop-color="#ffbd29"/></linearGradient><linearGradient id="b" x1="-223.843" y1="-75.018" x2="-223.843" y2="-74.608" gradientUnits="objectBoundingBox"><stop offset="0.253" stop-color="#3b3b3b"/><stop offset="0.426" stop-color="#636363"/><stop offset="0.579" stop-color="#545454"/><stop offset="0.732" stop-color="#3b3b3b"/></linearGradient><linearGradient id="c" x1="-62.668" y1="0.279" x2="-62.539" y2="0.603" gradientUnits="objectBoundingBox"><stop offset="0" stop-color="#f5dfc1"/><stop offset="0.259" stop-color="#f4ddbf"/><stop offset="0.352" stop-color="#f1d9b8"/><stop offset="0.418" stop-color="#ebd1ac"/><stop offset="0.432" stop-color="#eacfa9"/><stop offset="0.523" stop-color="#e6c69e"/><stop offset="0.829" stop-color="#dbad7f"/><stop offset="1" stop-color="#d7a474"/></linearGradient><clipPath id="d"><path class="a" d="M162.64,287.929a5.831,5.831,0,0,1,2.507,1.242l8.648,7.81-1.24.718-13.436-4.906c-.526-.372-1.341-.726-1.51-1.2l-1.816-3.9.613-.355Z" transform="translate(-155.793 -287.336)"/></clipPath><linearGradient id="e" x1="-10.488" y1="0.438" x2="-10.436" y2="0.581" gradientUnits="objectBoundingBox"><stop offset="0" stop-color="#312f2c"/><stop offset="0.058" stop-color="#33302d"/><stop offset="0.338" stop-color="#393532"/><stop offset="0.549" stop-color="#312e2b"/><stop offset="0.754" stop-color="#252321"/></linearGradient><linearGradient id="f" x1="15.593" y1="0.5" x2="16.593" y2="0.5" gradientUnits="objectBoundingBox"><stop offset="0" stop-color="#eef1f1"/><stop offset="1" stop-color="#f6f7f3"/></linearGradient></defs><g transform="translate(-69.441 -45.562)"><g transform="translate(69.441 48.71)"><g transform="translate(0 17.197)"><path class="b" d="M268.791,115.664a.944.944,0,0,0-.456.718v2.469l-30.86,17.817V134.2c0-.251-.205-.336-.456-.192a.947.947,0,0,0-.454.718V137.2L205.7,155.011v-2.469c0-.251-.2-.336-.454-.192a.945.945,0,0,0-.456.718v2.469l-30.862,17.817v-2.469c0-.251-.2-.336-.454-.192a.944.944,0,0,0-.456.718v2.467L142.163,191.7v-2.469c0-.251-.2-.338-.454-.192a.938.938,0,0,0-.456.716v2.469l-30.862,17.817V207.57c0-.251-.2-.336-.454-.192a.944.944,0,0,0-.456.718v2.469l-26.55,15.329-4.31,2.486V205.907l2.764-1.6a.938.938,0,0,0,.456-.716c0-.253-.2-.34-.456-.194L78.622,205V182.524l2.764-1.6a.944.944,0,0,0,.456-.718c0-.253-.2-.338-.456-.194l-2.764,1.6V159.14l2.764-1.6a.944.944,0,0,0,.456-.718c0-.253-.2-.338-.456-.192l-2.764,1.6V135.753l2.764-1.594a.944.944,0,0,0,.456-.718c0-.253-.2-.338-.456-.194l-2.764,1.6V112.371l2.764-1.6a.944.944,0,0,0,.456-.718c0-.253-.2-.338-.456-.192l-6.311,3.643a.95.95,0,0,0-.456.718c0,.251.205.338.456.192l2.638-1.523V135.37l-2.638,1.523a.943.943,0,0,0-.456.718c0,.251.205.338.456.192l2.638-1.523v22.475l-2.638,1.523a.95.95,0,0,0-.456.718c0,.253.205.338.456.192l2.638-1.523v22.475l-2.638,1.523a.946.946,0,0,0-.456.718c0,.251.205.338.456.192l2.638-1.523v22.475l-2.638,1.523a.943.943,0,0,0-.456.718c0,.251.205.336.456.192l2.638-1.523v22.929c0,.253.205.338.456.194l4.763-2.75,26.55-15.329v2.608c0,.253.2.338.456.192a.941.941,0,0,0,.454-.718v-2.608l30.862-17.817v2.608c0,.253.2.338.456.194a.947.947,0,0,0,.454-.718v-2.608l30.86-17.817V177.4c0,.251.2.338.456.192a.941.941,0,0,0,.454-.718v-2.608L204.8,156.446v2.608c0,.253.2.338.456.192a.941.941,0,0,0,.454-.718v-2.606l30.86-17.817v2.608c0,.251.2.338.454.192a.943.943,0,0,0,.456-.718v-2.608l30.86-17.817v2.608c0,.253.2.338.456.192a.941.941,0,0,0,.454-.718v-5.987C269.244,115.607,269.041,115.52,268.791,115.664Z" transform="translate(-64.785 -8.142)"/><g transform="translate(0 105.221)"><g transform="translate(3.242 117.344)"><path class="b" d="M73.718,178.209a2.479,2.479,0,0,1-.16.805,2.7,2.7,0,0,1-.384.7,2.361,2.361,0,0,1-.741.65,1.108,1.108,0,0,1-.748.209.526.526,0,0,1-.376-.264,1.208,1.208,0,0,1-.161-.621v-3.863a2.528,2.528,0,0,1,.161-.8,2.618,2.618,0,0,1,.376-.707,2.459,2.459,0,0,1,.748-.655,1.135,1.135,0,0,1,.741-.205.554.554,0,0,1,.384.268,1.181,1.181,0,0,1,.16.613Zm-.963-3.307c0-.18-.036-.283-.125-.34a.25.25,0,0,0-.2.042.649.649,0,0,0-.285.408.806.806,0,0,0-.036.26v3.863c0,.188.044.287.133.332a.207.207,0,0,0,.188-.036.6.6,0,0,0,.285-.406.8.8,0,0,0,.036-.262Z" transform="translate(-71.148 -173.455)"/></g><g transform="translate(3.36 93.537)"><path class="b" d="M72.762,164.858c0-.275-.1-.424-.3-.306a.828.828,0,0,0-.268.332,1.026,1.026,0,0,0-.106.365l-.811.469v-3.453l2.329-1.345v.955l-1.5.866v1.364a3.1,3.1,0,0,1,.357-.4.635.635,0,0,1,.2-.141c.5-.289.767-.158.91.072a1.408,1.408,0,0,1,.161.665v1.462a3.294,3.294,0,0,1-.188,1.189,2.382,2.382,0,0,1-1.071,1.252c-.6.346-.9.243-1.069-.051a2.588,2.588,0,0,1-.188-1.2l.963-.556v.258a1.994,1.994,0,0,0,.063.651c.046.106.116.129.232.063a.528.528,0,0,0,.222-.317,2.741,2.741,0,0,0,.072-.727Z" transform="translate(-71.21 -160.921)"/></g><g transform="translate(0.984 70.579)"><path class="b" d="M69.959,151.918V151.3a3.358,3.358,0,0,0,.811-.933,3.205,3.205,0,0,0,.215-.463l.581-.334v6.558l-.965.556v-5.14Z" transform="translate(-69.959 -148.169)"/><path class="b" d="M73.718,153.585a2.479,2.479,0,0,1-.16.807,2.694,2.694,0,0,1-.384.7,2.342,2.342,0,0,1-.741.651,1.13,1.13,0,0,1-.748.209.531.531,0,0,1-.376-.264,1.207,1.207,0,0,1-.161-.621v-3.863a2.55,2.55,0,0,1,.161-.8,2.646,2.646,0,0,1,.376-.707,2.484,2.484,0,0,1,.748-.655,1.13,1.13,0,0,1,.741-.2.548.548,0,0,1,.384.268,1.176,1.176,0,0,1,.16.613Zm-.963-3.307c0-.179-.036-.283-.125-.338a.235.235,0,0,0-.2.042.645.645,0,0,0-.285.406.817.817,0,0,0-.036.262v3.861c0,.188.044.287.133.334a.219.219,0,0,0,.188-.036.61.61,0,0,0,.285-.406.8.8,0,0,0,.036-.262Z" transform="translate(-68.89 -148.833)"/></g><g transform="translate(1.073 46.771)"><path class="b" d="M70.006,139.579v-.615a3.361,3.361,0,0,0,.811-.934,3.092,3.092,0,0,0,.215-.462l.581-.336v6.558l-.965.556v-5.138Z" transform="translate(-70.006 -135.459)"/><path class="b" d="M72.762,140.235c0-.277-.1-.425-.3-.308a.828.828,0,0,0-.268.332,1.044,1.044,0,0,0-.106.367l-.811.469v-3.453L73.6,136.3v.955l-1.5.864v1.366a3.11,3.11,0,0,1,.357-.4.67.67,0,0,1,.2-.141c.5-.289.767-.158.91.072a1.415,1.415,0,0,1,.161.667v1.462a3.305,3.305,0,0,1-.188,1.189,2.379,2.379,0,0,1-1.071,1.25c-.6.346-.9.245-1.069-.049a2.6,2.6,0,0,1-.188-1.2l.963-.557v.258a1.986,1.986,0,0,0,.063.651c.046.108.116.129.232.063a.518.518,0,0,0,.222-.315,2.767,2.767,0,0,0,.072-.729Z" transform="translate(-68.923 -136.298)"/></g><g transform="translate(0 23.808)"><path class="b" d="M69.468,128.3v-.454a3.252,3.252,0,0,1,.251-1.322,2.4,2.4,0,0,1,1.033-1.115c.492-.283.822-.287,1.018-.114a1.407,1.407,0,0,1,.268,1,8.929,8.929,0,0,1-.562,2.528c-.321.936-.7,1.82-.946,2.386l1.527-.881v.953l-2.615,1.51v-.955c.294-.625.562-1.244.8-1.846a15.948,15.948,0,0,0,.553-1.613,6.431,6.431,0,0,0,.277-1.462,1.674,1.674,0,0,0-.055-.5c-.044-.127-.123-.2-.268-.114a.613.613,0,0,0-.258.389,2.571,2.571,0,0,0-.063.6v.456Z" transform="translate(-69.441 -123.338)"/><path class="b" d="M73.718,128.962a2.479,2.479,0,0,1-.16.805,2.7,2.7,0,0,1-.384.7,2.361,2.361,0,0,1-.741.65,1.108,1.108,0,0,1-.748.209.526.526,0,0,1-.376-.264,1.208,1.208,0,0,1-.161-.621v-3.863a2.529,2.529,0,0,1,.161-.8,2.59,2.59,0,0,1,.376-.707,2.489,2.489,0,0,1,.748-.657,1.142,1.142,0,0,1,.741-.2.554.554,0,0,1,.384.268,1.182,1.182,0,0,1,.16.613Zm-.963-3.307c0-.18-.036-.283-.125-.338a.239.239,0,0,0-.2.04.65.65,0,0,0-.285.406.824.824,0,0,0-.036.262v3.863c0,.188.044.287.133.332a.207.207,0,0,0,.188-.036.6.6,0,0,0,.285-.406.8.8,0,0,0,.036-.262Z" transform="translate(-67.906 -124.208)"/></g><g transform="translate(0.089)"><path class="b" d="M69.515,115.958V115.5a3.252,3.252,0,0,1,.251-1.322,2.392,2.392,0,0,1,1.035-1.115c.49-.283.821-.287,1.016-.114a1.4,1.4,0,0,1,.268,1,8.929,8.929,0,0,1-.562,2.528c-.321.934-.7,1.82-.946,2.384l1.527-.881v.955l-2.615,1.51V119.5c.294-.625.562-1.244.8-1.846a15.951,15.951,0,0,0,.553-1.613,6.431,6.431,0,0,0,.277-1.462,1.666,1.666,0,0,0-.055-.5c-.044-.127-.123-.2-.266-.114a.6.6,0,0,0-.26.389,2.56,2.56,0,0,0-.063.6v.456Z" transform="translate(-69.488 -110.627)"/><path class="b" d="M72.762,115.61c0-.277-.1-.425-.3-.306a.815.815,0,0,0-.268.332,1.026,1.026,0,0,0-.106.365l-.811.469v-3.453l2.329-1.345v.955l-1.5.866v1.364a3.243,3.243,0,0,1,.357-.4.66.66,0,0,1,.2-.139c.5-.289.767-.158.91.072a1.408,1.408,0,0,1,.161.665v1.462a3.3,3.3,0,0,1-.188,1.189,2.382,2.382,0,0,1-1.071,1.252c-.6.346-.9.243-1.069-.051a2.592,2.592,0,0,1-.188-1.2l.963-.555v.258a1.98,1.98,0,0,0,.063.65c.046.108.116.131.232.063a.518.518,0,0,0,.222-.315,2.767,2.767,0,0,0,.072-.729Z" transform="translate(-67.939 -111.673)"/></g></g><g class="c" transform="translate(28.812 2.626)"><g transform="translate(0.001 0.002)"><g transform="translate(0 120.138)"><path class="d" d="M85.065,205.71a.5.5,0,0,1-.2.068c-.226.021-.321-.2-.211-.486l31.77-83.819a.88.88,0,0,1,.608-.562c.226-.021.321.2.211.486l-31.77,83.819A1.012,1.012,0,0,1,85.065,205.71Z" transform="translate(-84.611 -120.91)"/></g><g transform="translate(31.77 120.139)"><path class="d" d="M133.565,159.67c-.16.091-.313.1-.4,0L101.4,121.889c-.123-.148-.046-.471.173-.72s.5-.332.619-.186l31.772,37.779c.123.146.046.469-.173.718A.918.918,0,0,1,133.565,159.67Z" transform="translate(-101.338 -120.911)"/></g><g transform="translate(63.541 120.869)"><path class="d" d="M118.522,159.325c-.156.089-.31.1-.393,0-.129-.142-.055-.463.161-.716l31.768-37.05c.222-.251.5-.34.625-.2s.055.465-.161.718l-31.77,37.05A.934.934,0,0,1,118.522,159.325Z" transform="translate(-118.065 -121.295)"/></g><g transform="translate(95.311 46.402)"><path class="d" d="M135.247,157.534a.481.481,0,0,1-.224.07c-.218,0-.3-.23-.171-.52l31.77-74.466a.853.853,0,0,1,.621-.53c.218,0,.3.23.171.52l-31.77,74.466A1,1,0,0,1,135.247,157.534Z" transform="translate(-134.792 -82.088)"/></g><g transform="translate(127.081)"><path class="d" d="M151.976,105.039a.36.36,0,0,1-.342.044c-.167-.093-.148-.389.04-.667l31.772-46.4c.19-.273.475-.422.642-.33s.148.389-.042.665l-31.77,46.4A.948.948,0,0,1,151.976,105.039Z" transform="translate(-151.52 -57.657)"/></g></g><g transform="translate(0 78.412)"><g transform="translate(0 65.111)"><path class="d" d="M85.067,180.608a.36.36,0,0,1-.342.044c-.167-.093-.15-.391.04-.667l31.77-46.4c.192-.275.479-.424.642-.332s.15.391-.04.667l-31.77,46.4A.976.976,0,0,1,85.067,180.608Z" transform="translate(-84.611 -133.222)"/></g><g transform="translate(31.771)"><path class="d" d="M101.792,165.034a.448.448,0,0,1-.255.068c-.207-.021-.262-.273-.122-.562l31.772-65.112a.785.785,0,0,1,.632-.486c.207.021.262.273.122.562L102.17,164.616A1,1,0,0,1,101.792,165.034Z" transform="translate(-101.338 -98.94)"/></g><g transform="translate(63.541 0.001)"><path class="d" d="M150.29,114.316a.365.365,0,0,1-.327.051l-31.77-14.4c-.175-.08-.171-.368.011-.648s.469-.441.642-.361l31.77,14.395c.175.08.171.368-.009.65A.962.962,0,0,1,150.29,114.316Z" transform="translate(-118.065 -98.941)"/></g><g transform="translate(95.312 5.408)"><path class="d" d="M167.019,102.768a.508.508,0,0,1-.129.055l-31.77,8.988c-.243.07-.38-.1-.308-.386a.947.947,0,0,1,.564-.634l31.77-8.988c.243-.07.38.1.308.386A1,1,0,0,1,167.019,102.768Z" transform="translate(-134.793 -101.788)"/></g><g transform="translate(127.083 5.407)"><path class="d" d="M183.745,121.84a.345.345,0,0,1-.346.04l-31.772-19.071c-.161-.1-.139-.4.051-.672s.482-.414.642-.319l31.772,19.073c.161.1.139.4-.051.67A.971.971,0,0,1,183.745,121.84Z" transform="translate(-151.52 -101.787)"/></g></g><g transform="translate(0.001 41.363)"><g transform="translate(0 111.515)"><path class="e" d="M85.065,167.664c-.192.11-.37.091-.431-.066a.778.778,0,0,1,.292-.741L116.7,138.32c.245-.213.5-.234.574-.038a.787.787,0,0,1-.294.743l-31.77,28.537A.824.824,0,0,1,85.065,167.664Z" transform="translate(-84.611 -138.147)"/></g><g transform="translate(31.77 55.757)"><path class="e" d="M101.792,165.528a.4.4,0,0,1-.294.063c-.19-.053-.213-.327-.051-.613l31.772-55.756c.161-.285.45-.475.642-.422s.213.325.051.612l-31.772,55.756A.979.979,0,0,1,101.792,165.528Z" transform="translate(-101.338 -108.79)"/></g><g transform="translate(63.54)"><path class="e" d="M118.52,136.172a.407.407,0,0,1-.294.061c-.192-.051-.215-.325-.051-.612l31.77-55.758c.163-.283.45-.471.642-.422s.215.325.051.612l-31.77,55.758A1.009,1.009,0,0,1,118.52,136.172Z" transform="translate(-118.066 -79.434)"/></g><g transform="translate(95.311 0.001)"><path class="e" d="M167.017,155.609c-.188.108-.365.091-.429-.061l-31.77-75.2a.771.771,0,0,1,.283-.741c.237-.213.5-.241.577-.047l31.77,75.194a.77.77,0,0,1-.283.741A.83.83,0,0,1,167.017,155.609Z" transform="translate(-134.793 -79.435)"/></g><g transform="translate(127.081 70.881)"><path class="e" d="M183.745,117.735a.493.493,0,0,1-.184.066l-31.77,4.313c-.23.032-.334-.177-.232-.465a.9.9,0,0,1,.6-.579l31.77-4.313c.23-.032.334.177.232.467A1,1,0,0,1,183.745,117.735Z" transform="translate(-151.52 -116.753)"/></g></g><g transform="translate(0 26.563)"><g transform="translate(0 65.515)"><path class="f" d="M85.065,186.259a.5.5,0,0,1-.211.07c-.222.011-.308-.215-.192-.5l31.77-79.143a.884.884,0,0,1,.615-.547c.222-.011.31.213.192.5L85.47,185.78A1,1,0,0,1,85.065,186.259Z" transform="translate(-84.611 -106.136)"/></g><g transform="translate(31.77 65.517)"><path class="f" d="M133.564,116.834a.4.4,0,0,1-.3.061l-31.77-9.719c-.188-.059-.207-.334-.04-.621s.456-.465.642-.408l31.772,9.719c.188.057.207.334.04.619A.974.974,0,0,1,133.564,116.834Z" transform="translate(-101.338 -106.137)"/></g><g transform="translate(61.951 74.692)"><path class="f" d="M151.043,118.229a.425.425,0,0,1-.277.066l-33.36-6.281c-.2-.038-.237-.3-.084-.591s.439-.49.638-.452l33.36,6.281c.2.038.237.3.084.589A.98.98,0,0,1,151.043,118.229Z" transform="translate(-117.228 -110.968)"/></g><g transform="translate(95.311 33.871)"><path class="f" d="M135.247,137.558a.363.363,0,0,1-.338.046c-.167-.089-.154-.386.034-.663l31.77-47.1c.19-.277.475-.429.642-.338s.156.384-.032.661l-31.77,47.1A.952.952,0,0,1,135.247,137.558Z" transform="translate(-134.793 -89.475)"/></g><g transform="translate(127.081)"><path class="f" d="M151.976,106.493c-.169.1-.33.1-.41-.019-.11-.161-.017-.488.209-.729l31.772-33.872c.23-.239.5-.3.61-.142s.015.488-.211.729l-31.77,33.874A.93.93,0,0,1,151.976,106.493Z" transform="translate(-151.52 -71.642)"/></g></g><g transform="translate(0)"><g transform="translate(0 161.867)"><path class="f" d="M116.837,162.933a.354.354,0,0,1-.348.04L84.72,143.9c-.163-.1-.141-.4.051-.67s.481-.416.642-.319l31.77,19.071c.163.1.141.4-.051.672A.968.968,0,0,1,116.837,162.933Z" transform="translate(-84.611 -142.88)"/></g><g transform="translate(31.77 134.534)"><path class="f" d="M101.794,175.875a.365.365,0,0,1-.342.044c-.167-.093-.148-.391.04-.667l31.77-46.4c.194-.277.479-.422.644-.332s.148.391-.04.667l-31.772,46.4A.977.977,0,0,1,101.794,175.875Z" transform="translate(-101.338 -128.489)"/></g><g transform="translate(63.541 134.534)"><path class="f" d="M150.29,129.836a.448.448,0,0,1-.232.07l-31.768-.365c-.217,0-.291-.239-.161-.532a.835.835,0,0,1,.623-.52l31.77.367c.217,0,.289.239.161.53A1.01,1.01,0,0,1,150.29,129.836Z" transform="translate(-118.065 -128.489)"/></g><g transform="translate(95.312 63.498)"><path class="f" d="M135.247,163.471a.375.375,0,0,1-.315.055c-.18-.07-.186-.355-.011-.636l44.245-71.4c.175-.279.463-.452.644-.384s.184.355.009.638l-44.243,71.4A1,1,0,0,1,135.247,163.471Z" transform="translate(-134.793 -91.088)"/></g><g transform="translate(139.669)"><path class="f" d="M158.6,121.615a.6.6,0,0,1-.156.063c-.237.047-.357-.144-.27-.429l19.183-62.977a.943.943,0,0,1,.585-.608c.235-.049.355.144.27.429L159.028,121.07A1.011,1.011,0,0,1,158.6,121.615Z" transform="translate(-158.147 -57.656)"/></g></g></g><g transform="translate(26.539)"><path class="d" d="M86.143,164.081c1.508-.87,2.729-.353,2.729,1.155a5.664,5.664,0,0,1-2.729,4.306c-1.508.87-2.729.353-2.729-1.155A5.658,5.658,0,0,1,86.143,164.081Z" transform="translate(-83.414 40.299)"/><path class="d" d="M102.87,119.95c1.508-.87,2.729-.353,2.729,1.155a5.658,5.658,0,0,1-2.729,4.3c-1.508.872-2.729.355-2.729-1.153A5.658,5.658,0,0,1,102.87,119.95Z" transform="translate(-68.371 0.612)"/><path class="d" d="M119.6,139.841c1.506-.87,2.729-.353,2.729,1.155A5.669,5.669,0,0,1,119.6,145.3c-1.508.87-2.731.353-2.731-1.155A5.664,5.664,0,0,1,119.6,139.841Z" transform="translate(-53.328 18.5)"/><path class="d" d="M136.325,120.334c1.508-.87,2.729-.353,2.729,1.155a5.658,5.658,0,0,1-2.729,4.3c-1.508.872-2.729.355-2.729-1.153A5.658,5.658,0,0,1,136.325,120.334Z" transform="translate(-38.285 0.957)"/><path class="d" d="M153.052,81.128c1.508-.87,2.729-.353,2.729,1.153a5.658,5.658,0,0,1-2.729,4.306c-1.506.872-2.729.355-2.729-1.153A5.663,5.663,0,0,1,153.052,81.128Z" transform="translate(-23.242 -34.302)"/><path class="d" d="M169.781,56.7c1.506-.87,2.729-.353,2.729,1.153a5.663,5.663,0,0,1-2.729,4.306c-1.508.872-2.731.355-2.731-1.153A5.66,5.66,0,0,1,169.781,56.7Z" transform="translate(-8.199 -56.274)"/><g transform="translate(0 78.411)"><path class="d" d="M86.143,156.694c1.508-.87,2.729-.353,2.729,1.153a5.658,5.658,0,0,1-2.729,4.306c-1.508.872-2.729.355-2.729-1.153A5.658,5.658,0,0,1,86.143,156.694Z" transform="translate(-83.414 -44.755)"/><path class="d" d="M102.87,132.262c1.508-.87,2.729-.353,2.729,1.153a5.658,5.658,0,0,1-2.729,4.306c-1.508.872-2.729.355-2.729-1.153A5.658,5.658,0,0,1,102.87,132.262Z" transform="translate(-68.371 -66.727)"/><path class="d" d="M119.6,97.98c1.506-.87,2.729-.353,2.729,1.155a5.663,5.663,0,0,1-2.729,4.306c-1.508.87-2.731.353-2.731-1.155A5.667,5.667,0,0,1,119.6,97.98Z" transform="translate(-53.328 -97.558)"/><path class="d" d="M136.325,105.561c1.508-.872,2.729-.355,2.729,1.153a5.658,5.658,0,0,1-2.729,4.306c-1.508.87-2.729.355-2.729-1.153A5.658,5.658,0,0,1,136.325,105.561Z" transform="translate(-38.285 -90.741)"/><path class="d" d="M153.052,100.827c1.508-.87,2.729-.353,2.729,1.153a5.658,5.658,0,0,1-2.729,4.306c-1.506.872-2.729.355-2.729-1.153A5.663,5.663,0,0,1,153.052,100.827Z" transform="translate(-23.242 -94.997)"/><path class="d" d="M169.781,110.87c1.506-.872,2.729-.355,2.729,1.153a5.663,5.663,0,0,1-2.729,4.306c-1.508.87-2.731.353-2.731-1.153A5.66,5.66,0,0,1,169.781,110.87Z" transform="translate(-8.199 -85.967)"/></g><g transform="translate(0 41.361)"><path class="e" d="M86.143,151.876c1.508-.87,2.729-.353,2.729,1.155a5.664,5.664,0,0,1-2.729,4.306c-1.508.87-2.729.353-2.729-1.155A5.658,5.658,0,0,1,86.143,151.876Z" transform="translate(-83.414 -12.038)"/><path class="e" d="M102.87,137.187c1.508-.87,2.729-.353,2.729,1.153a5.658,5.658,0,0,1-2.729,4.306c-1.508.87-2.729.353-2.729-1.153A5.658,5.658,0,0,1,102.87,137.187Z" transform="translate(-68.371 -25.248)"/><path class="e" d="M136.325,78.473c1.508-.87,2.729-.353,2.729,1.155a5.658,5.658,0,0,1-2.729,4.306c-1.508.87-2.729.353-2.729-1.155A5.664,5.664,0,0,1,136.325,78.473Z" transform="translate(-38.285 -78.051)"/><path class="e" d="M153.052,118.065c1.508-.872,2.729-.355,2.729,1.153a5.658,5.658,0,0,1-2.729,4.306c-1.506.87-2.729.355-2.729-1.153A5.663,5.663,0,0,1,153.052,118.065Z" transform="translate(-23.242 -42.447)"/><path class="e" d="M169.781,115.793c1.506-.87,2.729-.353,2.729,1.155a5.663,5.663,0,0,1-2.729,4.306c-1.508.87-2.731.353-2.731-1.155A5.667,5.667,0,0,1,169.781,115.793Z" transform="translate(-8.199 -44.488)"/></g><g transform="translate(0 26.528)"><path class="f" d="M86.143,146.844c1.508-.87,2.729-.353,2.729,1.155a5.661,5.661,0,0,1-2.729,4.306c-1.508.87-2.729.353-2.729-1.155A5.664,5.664,0,0,1,86.143,146.844Z" transform="translate(-83.414 -1.73)"/><path class="f" d="M102.87,105.177c1.508-.872,2.729-.355,2.729,1.153a5.658,5.658,0,0,1-2.729,4.306c-1.508.87-2.729.353-2.729-1.153A5.658,5.658,0,0,1,102.87,105.177Z" transform="translate(-68.371 -39.203)"/><path class="f" d="M118.561,110.093c1.506-.87,2.729-.353,2.729,1.155a5.666,5.666,0,0,1-2.729,4.306c-1.508.87-2.731.353-2.731-1.155A5.667,5.667,0,0,1,118.561,110.093Z" transform="translate(-54.262 -34.781)"/><path class="f" d="M136.325,112.961c1.508-.87,2.729-.353,2.729,1.155a5.661,5.661,0,0,1-2.729,4.306c-1.508.87-2.729.353-2.729-1.155A5.661,5.661,0,0,1,136.325,112.961Z" transform="translate(-38.285 -32.201)"/><path class="f" d="M153.052,88.515c1.508-.87,2.729-.353,2.729,1.153a5.658,5.658,0,0,1-2.729,4.306c-1.506.872-2.729.355-2.729-1.153A5.663,5.663,0,0,1,153.052,88.515Z" transform="translate(-23.242 -54.186)"/><path class="f" d="M169.781,70.663c1.506-.87,2.729-.353,2.729,1.153a5.663,5.663,0,0,1-2.729,4.306c-1.508.872-2.731.355-2.731-1.153A5.66,5.66,0,0,1,169.781,70.663Z" transform="translate(-8.199 -70.241)"/></g><path class="f" d="M86.143,141.921c1.508-.872,2.729-.355,2.729,1.153a5.658,5.658,0,0,1-2.729,4.306c-1.508.87-2.729.353-2.729-1.155A5.658,5.658,0,0,1,86.143,141.921Z" transform="translate(-83.414 20.369)"/><path class="f" d="M102.87,151.961c1.508-.87,2.729-.353,2.729,1.155a5.664,5.664,0,0,1-2.729,4.306c-1.508.87-2.729.353-2.729-1.155A5.658,5.658,0,0,1,102.87,151.961Z" transform="translate(-68.371 29.4)"/><path class="f" d="M119.6,127.529c1.506-.87,2.729-.353,2.729,1.155a5.669,5.669,0,0,1-2.729,4.306c-1.508.87-2.731.353-2.731-1.155A5.664,5.664,0,0,1,119.6,127.529Z" transform="translate(-53.328 7.428)"/><path class="f" d="M136.325,127.721c1.508-.87,2.729-.353,2.729,1.155a5.664,5.664,0,0,1-2.729,4.306c-1.508.87-2.729.353-2.729-1.155A5.661,5.661,0,0,1,136.325,127.721Z" transform="translate(-38.285 7.6)"/><path class="f" d="M159.521,89.8c1.506-.87,2.729-.353,2.729,1.153a5.663,5.663,0,0,1-2.729,4.306c-1.508.872-2.731.355-2.731-1.153A5.661,5.661,0,0,1,159.521,89.8Z" transform="translate(-17.426 -26.505)"/><path class="f" d="M169.781,56.7c1.506-.87,2.729-.353,2.729,1.153a5.663,5.663,0,0,1-2.729,4.306c-1.508.872-2.731.355-2.731-1.153A5.66,5.66,0,0,1,169.781,56.7Z" transform="translate(-8.199 -56.274)"/></g></g><g transform="translate(215.699)"><g transform="translate(0 55.851)"><path class="f" d="M189.207,78.414a6.421,6.421,0,0,1-3.1,4.885c-1.709.988-3.1.4-3.1-1.309a6.429,6.429,0,0,1,3.1-4.885C187.82,76.117,189.207,76.7,189.207,78.414Z" transform="translate(-183.005 -76.625)"/><path class="d" d="M189.2,93.12a6.424,6.424,0,0,1-3.1,4.885c-1.711.988-3.1.4-3.1-1.311a6.424,6.424,0,0,1,3.1-4.885C187.817,90.824,189.2,91.409,189.2,93.12Z" transform="translate(-183.008 -63.401)"/><path class="d" d="M189.2,107.795a6.421,6.421,0,0,1-3.1,4.885c-1.711.988-3.1.4-3.1-1.309a6.421,6.421,0,0,1,3.1-4.885C187.817,105.5,189.2,106.084,189.2,107.795Z" transform="translate(-183.008 -50.203)"/></g><path class="e" d="M189.207,49.008a6.421,6.421,0,0,1-3.1,4.885c-1.709.988-3.1.4-3.1-1.309a6.429,6.429,0,0,1,3.1-4.885C187.82,46.711,189.207,47.3,189.207,49.008Z" transform="translate(-183.005 -47.219)"/><path class="f" d="M189.207,63.685a6.424,6.424,0,0,1-3.1,4.885c-1.709.986-3.1.4-3.1-1.311a6.429,6.429,0,0,1,3.1-4.885C187.82,61.386,189.207,61.973,189.207,63.685Z" transform="translate(-183.005 -34.022)"/></g></g><g transform="translate(72.972 45.562)"><g transform="translate(132.263)"><path class="g" d="M375.841,166.181l-95.422-52.449-116.3,67.147,130.176,75.157h96.79Z" transform="translate(-120.093 15.745)"/><path class="g" d="M346.125,173.624,257.24,124.95,140.938,192.1,264.576,263.48h96.791Z" transform="translate(-140.938 25.833)"/><g transform="translate(101.714)"><g class="h" transform="translate(50.642)"><g transform="translate(32.001 0.94)"><path class="i" d="M355.1,113.619l-.081,183.751L238,229.807l.081-183.75Z" transform="translate(-238.002 -46.057)"/></g><g transform="translate(8.959 11.156)"><path class="e" d="M351.6,254.892l.066-138.148L238.551,51.435l-.081,174.7,84.651,48.874Z" transform="translate(-214.54 -51.435)"/><path class="e" d="M350.633,255.8,350.7,117.3,237.582,51.995,237.5,226.7l84.758,48.935Z" transform="translate(-215.412 -50.932)"/><path class="e" d="M349.664,256.638l.066-138.775L236.612,52.554l-.081,174.7,84.866,49Z" transform="translate(-216.283 -50.429)"/><path class="e" d="M348.694,257.479l.067-139.057L235.643,53.114l-.081,174.7,84.972,49.059Z" transform="translate(-217.155 -49.926)"/><path class="e" d="M347.725,258.321l.066-139.34L234.674,53.673l-.081,174.7L319.672,277.5Z" transform="translate(-218.026 -49.423)"/><path class="e" d="M346.756,259.163l.067-139.622L233.7,54.233l-.081,174.7,85.186,49.182Z" transform="translate(-218.898 -48.919)"/><path class="e" d="M318.193,278.58,345.786,260l.067-139.9L232.736,54.792l-.081,174.7,85.287,49.24Z" transform="translate(-219.77 -48.416)"/><path class="e" d="M319.064,278.077l25.753-17.23.067-140.186L231.767,55.352l-.081,174.7,85.348,49.276Z" transform="translate(-220.641 -47.913)"/><path class="e" d="M319.936,277.574l23.912-15.94.067-140.414L230.8,55.911l-.081,174.7,85.409,49.311Z" transform="translate(-221.513 -47.41)"/><path class="e" d="M320.808,277.07,342.879,262.4l.067-140.616L229.828,56.471l-.081,174.7,85.47,49.346Z" transform="translate(-222.384 -46.906)"/><path class="e" d="M321.679,276.567l20.23-13.411.067-140.817L228.859,57.031l-.081,174.7,85.531,49.382Z" transform="translate(-223.256 -46.403)"/><path class="e" d="M322.551,276.064l18.39-12.146.067-141.02L227.89,57.59l-.081,174.7L313.4,281.71Z" transform="translate(-224.127 -45.9)"/><path class="e" d="M323.422,275.561l16.549-10.881.067-141.221L226.921,58.15l-.081,174.7L312.494,282.3Z" transform="translate(-224.999 -45.397)"/><path class="e" d="M324.294,275.058,339,265.441l.067-141.423L225.952,58.709l-.081,174.7,85.7,49.48Z" transform="translate(-225.871 -44.894)"/></g><path class="i" d="M221.235,55.848l-.081,183.75,118.635,68.494.081-183.75Z" transform="translate(-221.154 -36.311)"/><path class="j" d="M283.7,101.162l-.082,183.749,33.62-19.536.082-183.751Zm18.636,133.263c-4.165,2.4-7.536.482-7.55-4.3a16.542,16.542,0,0,1,7.5-13.014c4.165-2.4,7.557-.471,7.571,4.313A16.544,16.544,0,0,1,302.333,234.426Z" transform="translate(-164.981 -13.13)"/><path class="e" d="M309.036,186.832l-22.214,12.825V104.736l22.214-12.826Z" transform="translate(-162.097 -3.879)"/><path class="k" d="M297.045,170.764c-4.165,2.4-7.536.482-7.55-4.3a16.542,16.542,0,0,1,7.5-13.014c4.165-2.4,7.557-.471,7.571,4.313A16.544,16.544,0,0,1,297.045,170.764Z" transform="translate(-159.693 50.531)"/><g class="h" transform="translate(128.998 201.658)"><path class="l" d="M301.4,153.713l-1.221-.71c1.179.686,1.913,2.144,1.918,4.216a14.437,14.437,0,0,1-6.553,11.324c-1.816,1.048-3.466,1.143-4.659.45l1.223.71c1.193.691,2.841.6,4.657-.45a14.44,14.44,0,0,0,6.553-11.324C303.311,155.858,302.578,154.4,301.4,153.713Z" transform="translate(-287.442 -150.596)"/><path class="l" d="M302.888,152.283c-1.474-.857-3.514-.737-5.763.562-4.471,2.581-8.068,8.836-8.053,13.973.008,2.553.9,4.346,2.353,5.187l1.221.71c-1.449-.841-2.346-2.634-2.353-5.187-.013-5.138,3.582-11.392,8.053-13.973,2.251-1.3,4.289-1.419,5.763-.562Z" transform="translate(-289.072 -151.736)"/><path class="m" d="M297.768,153.219c-4.471,2.581-8.066,8.836-8.053,13.973s3.635,7.2,8.106,4.619,8.089-8.822,8.074-13.96S302.239,150.638,297.768,153.219Zm.048,16.837c-3.609,2.082-6.56.4-6.574-3.745a14.439,14.439,0,0,1,6.532-11.337c3.63-2.095,6.583-.412,6.594,3.759A14.44,14.44,0,0,1,297.816,170.057Z" transform="translate(-288.494 -151.399)"/></g><path class="e" d="M254.816,45.562l-1.618.94,117.021,67.562-30.4,17.665L222.8,64.167l-1.6.932,118.635,68.494,33.62-19.538Z" transform="translate(-221.115 -45.562)"/></g><g class="h" transform="translate(0 17.532)"><g transform="translate(32.001 0.94)"><path class="n" d="M328.441,122.849,328.36,306.6,211.339,239.038l.081-183.75Z" transform="translate(-211.339 -55.287)"/></g><g transform="translate(8.959 11.155)"><path class="e" d="M324.939,264.122l.066-138.148L211.887,60.666l-.081,174.7,84.651,48.874Z" transform="translate(-187.877 -60.666)"/><path class="e" d="M323.969,265.027l.066-138.493L210.918,61.225l-.081,174.7L295.6,284.863Z" transform="translate(-188.748 -60.163)"/><path class="e" d="M323,265.868l.066-138.775L209.949,61.785l-.081,174.7,84.866,49Z" transform="translate(-189.62 -59.659)"/><path class="e" d="M322.031,266.71l.067-139.057L208.98,62.345l-.081,174.7,84.972,49.059Z" transform="translate(-190.492 -59.156)"/><path class="e" d="M321.062,267.552l.066-139.34L208.011,62.9l-.081,174.7,85.079,49.121Z" transform="translate(-191.363 -58.653)"/><path class="e" d="M320.092,268.394l.067-139.622L207.042,63.464l-.081,174.7,85.186,49.182Z" transform="translate(-192.235 -58.15)"/><path class="e" d="M291.529,287.811l27.594-18.575.067-139.9L206.072,64.023l-.081,174.7,85.287,49.24Z" transform="translate(-193.106 -57.647)"/><path class="e" d="M292.4,287.308l25.753-17.23.067-140.186L205.1,64.583l-.081,174.7,85.348,49.276Z" transform="translate(-193.978 -57.143)"/><path class="e" d="M293.273,286.8l23.912-15.94.067-140.414L204.134,65.142l-.081,174.7,85.409,49.311Z" transform="translate(-194.849 -56.64)"/><path class="e" d="M294.144,286.3l22.071-14.675.067-140.616L203.165,65.7l-.081,174.7,85.47,49.346Z" transform="translate(-195.721 -56.137)"/><path class="e" d="M295.016,285.8l20.231-13.411.067-140.817L202.2,66.261l-.081,174.7,85.532,49.382Z" transform="translate(-196.593 -55.634)"/><path class="e" d="M295.887,285.295l18.39-12.146.067-141.02L201.227,66.821l-.081,174.7,85.593,49.417Z" transform="translate(-197.464 -55.131)"/><path class="e" d="M296.759,284.792l16.549-10.881.067-141.221L200.258,67.38l-.081,174.7,85.654,49.452Z" transform="translate(-198.336 -54.627)"/><path class="e" d="M297.631,284.288l14.708-9.617.067-141.423L199.288,67.94l-.081,174.7,85.7,49.48Z" transform="translate(-199.207 -54.124)"/></g><path class="n" d="M194.571,65.079l-.081,183.75,118.635,68.494.081-183.75Z" transform="translate(-194.49 -45.542)"/><path class="o" d="M257.034,110.391l-.082,183.751,33.62-19.538.082-183.749ZM275.67,243.655c-4.165,2.4-7.536.484-7.55-4.3a16.539,16.539,0,0,1,7.5-13.014c4.163-2.4,7.555-.473,7.571,4.313A16.545,16.545,0,0,1,275.67,243.655Z" transform="translate(-138.318 -22.361)"/><path class="e" d="M282.373,196.062l-22.214,12.825V113.967l22.214-12.825Z" transform="translate(-135.434 -13.11)"/><path class="k" d="M270.382,179.994c-4.165,2.4-7.536.484-7.55-4.3a16.539,16.539,0,0,1,7.5-13.014c4.163-2.4,7.555-.473,7.571,4.313A16.545,16.545,0,0,1,270.382,179.994Z" transform="translate(-133.03 41.3)"/><g class="h" transform="translate(128.999 201.658)"><path class="l" d="M274.736,162.944l-1.221-.71c1.179.686,1.911,2.144,1.916,4.216a14.433,14.433,0,0,1-6.553,11.324c-1.814,1.048-3.464,1.141-4.657.448l1.221.71c1.193.693,2.843.6,4.659-.448a14.442,14.442,0,0,0,6.553-11.324C276.646,165.089,275.915,163.63,274.736,162.944Z" transform="translate(-260.779 -159.827)"/><path class="l" d="M276.225,161.514c-1.474-.857-3.514-.737-5.764.562-4.471,2.581-8.066,8.836-8.051,13.973.008,2.553.9,4.346,2.353,5.187l1.221.71c-1.449-.841-2.346-2.634-2.353-5.187-.015-5.138,3.582-11.392,8.053-13.973,2.249-1.3,4.289-1.419,5.763-.562Z" transform="translate(-262.409 -160.967)"/><path class="m" d="M271.105,162.451c-4.471,2.581-8.068,8.836-8.053,13.973s3.633,7.2,8.1,4.617,8.089-8.822,8.076-13.96S275.576,159.869,271.105,162.451Zm.047,16.837c-3.609,2.082-6.562.4-6.574-3.747a14.436,14.436,0,0,1,6.53-11.335c3.63-2.1,6.583-.412,6.6,3.759A14.443,14.443,0,0,1,271.153,179.288Z" transform="translate(-261.831 -160.63)"/></g><path class="p" d="M228.152,54.792l-1.618.94,117.021,67.562-30.4,17.665L196.137,73.4l-1.6.932,118.635,68.494,33.62-19.538Z" transform="translate(-194.452 -54.792)"/></g></g></g><g transform="translate(120.848 231.392)"><g transform="translate(0 70.495)"><path class="g" d="M169.4,204.507l-34.471,19.9L313.748,327.651h19.4Z" transform="translate(-134.927 -204.507)"/></g><g transform="translate(15.807 74.656)"><path class="i" d="M326.132,325.681,143.25,220.094l.012-13.4,182.87,36.017Z" transform="translate(-143.25 -206.698)"/><path class="j" d="M368.818,236.406l-129.28,74.64V228.079l129.28-5.106Z" transform="translate(-56.656 -192.061)"/></g><path class="e" d="M455.406,272.958l-25.13,14.509L326.1,347.613,143.256,242.047l129.306-74.656Z" transform="translate(-127.437 -167.391)"/><g transform="translate(43.534 16.902)"><g transform="translate(0 31.923)"><g transform="translate(0 28.712)"><path class="q" d="M168.523,213.684l-1.2.693-9.474-5.47,1.2-.693Z" transform="translate(-157.848 -208.214)"/><path class="r" d="M168.495,212.88l-1.286.743-7.931-4.579,1.286-.742Z" transform="translate(-156.563 -208.136)"/></g><g transform="translate(5.533 24.974)"><path class="q" d="M170.679,212.017l-1.2.693-8.7-5.024,1.2-.693Z" transform="translate(-160.748 -205.574)"/><path class="r" d="M171.95,211.963l-1.286.742-9.9-5.717,1.286-.742Z" transform="translate(-160.761 -206.246)"/></g><g transform="translate(6.713 21.504)"><path class="q" d="M174.943,211.555l-1.2.693-12.361-7.137,1.2-.693Z" transform="translate(-161.382 -204.419)"/><path class="r" d="M174.056,210.255,172.77,211l-9-5.2,1.286-.742Z" transform="translate(-159.238 -203.845)"/></g><g transform="translate(12.893 19.536)"><path class="q" d="M176.811,209.719l-1.2.693-10.974-6.336,1.2-.693Z" transform="translate(-164.636 -203.383)"/><path class="r" d="M176.864,208.962l-1.286.742-9.6-5.544,1.286-.742Z" transform="translate(-163.432 -203.352)"/></g><g transform="translate(26.997 10.833)"><path class="q" d="M184.537,205.423l-1.2.693-11.274-6.51,1.2-.693Z" transform="translate(-172.062 -198.699)"/><path class="r" d="M184.82,204.8l-1.286.743-10.388-6,1.286-.742Z" transform="translate(-171.088 -198.801)"/></g><g transform="translate(33.127 7.64)"><path class="q" d="M185.563,203.1l-1.2.693-8.1-4.678,1.2-.693Z" transform="translate(-174.417 -195.952)"/><path class="r" d="M187.693,203.538l-1.286.742-11.117-6.419,1.286-.742Z" transform="translate(-175.29 -197.12)"/></g><g transform="translate(32.569 3.176)"><path class="q" d="M191.5,203.605l-1.2.693L175,195.462l1.2-.693Z" transform="translate(-174.996 -194.769)"/><path class="r" d="M191.006,202.532l-1.286.742L176.945,195.9l1.286-.743Z" transform="translate(-173.244 -194.422)"/></g><g transform="translate(39.3 1.518)"><path class="q" d="M193.115,201.618l-1.2.693-13.375-7.722,1.2-.693Z" transform="translate(-178.54 -193.896)"/><path class="r" d="M192.7,200.592l-1.286.742L180.4,194.973l1.286-.743Z" transform="translate(-176.868 -193.596)"/></g><g transform="translate(48.702)"><path class="q" d="M193.167,198.729l-1.2.693-8.145-4.7,1.2-.693Z" transform="translate(-183.192 -192.261)"/><path class="r" d="M194.722,198.839l-1.286.742-9.946-5.742,1.286-.743Z" transform="translate(-183.49 -193.097)"/></g><g transform="translate(19.664 16.502)"><path class="q" d="M176.889,206.846l-1.2.693-5.8-3.349,1.2-.693Z" transform="translate(-166.686 -200.246)"/><path class="r" d="M179.661,207.659l-1.286.742L168.2,202.528l1.286-.742Z" transform="translate(-168.201 -201.785)"/></g><g transform="translate(27.661 16.983)"><path class="q" d="M179.414,205.388l-1.2.693-5.8-3.349,1.2-.693Z" transform="translate(-172.412 -202.039)"/><path class="r" d="M179.359,204.568l-1.286.742-4.2-2.425,1.286-.742Z" transform="translate(-171.099 -201.945)"/></g><path class="q" d="M216.43,196.322l-53.408,30.836-1.086-.627L215.344,195.7Z" transform="translate(-154.172 -190.76)"/></g><g transform="translate(60.384)"><g transform="translate(0 27.379)"><path class="q" d="M198.923,195.371l-1.2.693-8.082-4.666,1.2-.693Z" transform="translate(-189.641 -190.705)"/><path class="r" d="M198.9,194.567l-1.286.742-6.539-3.775,1.286-.742Z" transform="translate(-188.355 -190.627)"/></g><g transform="translate(9.791 26.099)"><path class="q" d="M199.063,192.54l-1.2.693-3.052-1.762,1.2-.693Z" transform="translate(-194.782 -189.359)"/><path class="r" d="M200.334,192.486l-1.286.742-4.253-2.455,1.286-.742Z" transform="translate(-194.796 -190.031)"/></g><g transform="translate(8.341 21.111)"><path class="q" d="M204.572,192.8l-1.2.693-9.339-5.392,1.2-.693Z" transform="translate(-194.033 -187.405)"/><path class="r" d="M203,191.1l-1.286.742-4.538-2.62,1.286-.742Z" transform="translate(-191.204 -186.436)"/></g><g transform="translate(18.366 19.96)"><path class="q" d="M204.2,189.668l-1.2.693-3.224-1.861,1.2-.693Z" transform="translate(-198.891 -185.892)"/><path class="r" d="M205.878,189.848l-1.286.742-5.281-3.049,1.286-.743Z" transform="translate(-199.31 -186.799)"/></g><g transform="translate(25.067 8.6)"><path class="q" d="M215.851,187.637l-1.2.693-11.812-6.82,1.2-.693Z" transform="translate(-202.839 -180.818)"/><path class="r" d="M215.8,186.817l-1.286.742-10.211-5.9,1.286-.743Z" transform="translate(-201.526 -180.724)"/></g><g transform="translate(25.239 3.023)"><path class="q" d="M220.571,187.443l-1.2.693-16.441-9.493,1.2-.693Z" transform="translate(-202.929 -177.819)"/><path class="r" d="M220.786,186.78l-1.286.743-15.413-8.9,1.286-.743Z" transform="translate(-201.887 -177.881)"/></g><g transform="translate(35.813 3.716)"><path class="q" d="M220.365,184.406l-1.2.693-10.668-6.16,1.2-.693Z" transform="translate(-208.496 -178.246)"/><path class="r" d="M220.121,183.476l-1.286.743-8.668-5,1.286-.742Z" transform="translate(-206.995 -178.043)"/></g><g transform="translate(38.979)"><path class="q" d="M223.667,183.393l-1.2.693-12.3-7.1,1.2-.693Z" transform="translate(-210.164 -176.29)"/><path class="r" d="M223.253,182.366l-1.286.743-9.945-5.742,1.286-.743Z" transform="translate(-208.492 -175.989)"/></g><g transform="translate(49.974 0.49)"><path class="q" d="M223.263,180.24l-1.2.693-6.11-3.528,1.2-.693Z" transform="translate(-215.952 -176.399)"/><path class="r" d="M223.627,179.663l-1.286.742-5.4-3.115,1.286-.742Z" transform="translate(-215.059 -176.548)"/></g><g transform="translate(16.649 13.427)"><path class="q" d="M210.016,190.107l-1.2.693-10.168-5.871,1.2-.693Z" transform="translate(-198.19 -182.57)"/><path class="r" d="M211.49,190.171l-1.286.742-11.8-6.811,1.286-.742Z" transform="translate(-198.406 -183.359)"/></g><g transform="translate(22.274 12.539)"><path class="q" d="M212.365,188.548l-1.2.693-9.8-5.656,1.2-.693Z" transform="translate(-201.368 -182.892)"/><path class="r" d="M212.31,187.728l-1.286.742-8.2-4.732,1.286-.743Z" transform="translate(-200.056 -182.798)"/></g><path class="q" d="M247.489,178.39l-53.408,30.835L193,208.6,246.4,177.763Z" transform="translate(-186.624 -174.965)"/></g><g transform="translate(13.818 6.57)"><g transform="translate(0 41.75)"><path class="r" d="M210.416,204.989l-39.649,22.892-5.643-3.258,39.649-22.892Z" transform="translate(-165.124 -201.73)"/><path class="s" d="M174.435,215.926l-3.668,2.118-5.643-3.258,3.668-2.118Z" transform="translate(-165.124 -191.894)"/></g><g transform="translate(36.156 20.875)"><path class="r" d="M229.453,194,189.8,216.89l-5.644-3.258,39.649-22.892Z" transform="translate(-184.16 -190.74)"/><path class="t" d="M193.471,204.936l-3.668,2.118L184.16,203.8l3.668-2.118Z" transform="translate(-184.16 -180.903)"/></g><g transform="translate(72.311)"><path class="r" d="M248.489,183.007,208.84,205.9l-5.644-3.258,39.649-22.892Z" transform="translate(-203.196 -179.749)"/><path class="u" d="M212.508,193.945l-3.668,2.118L203.2,192.8l3.668-2.118Z" transform="translate(-203.196 -169.913)"/></g></g><g transform="translate(92.766 18.968)"><path class="v" d="M213.3,189.054,207.33,192.5l-.64-.369,5.968-3.446Z" transform="translate(-206.69 -184.11)"/><path class="v" d="M213.469,188l-2.483,1.433-.64-.369,2.483-1.433Z" transform="translate(-203.401 -185.056)"/><path class="v" d="M212.018,190.7l-3.261,1.882-.64-.369,3.26-1.883Z" transform="translate(-205.406 -182.629)"/><path class="v" d="M218.324,188.175l-7.336,4.235-.64-.369,7.336-4.235Z" transform="translate(-203.399 -184.901)"/><path class="v" d="M219.415,186.646l-4.046,2.336-.64-.369,4.046-2.336Z" transform="translate(-199.46 -186.276)"/></g><g transform="translate(56.944 39.65)"><path class="v" d="M194.438,199.943l-5.968,3.446-.64-.369,5.968-3.446Z" transform="translate(-187.83 -194.999)"/><path class="v" d="M194.609,198.892l-2.483,1.433-.64-.369,2.483-1.433Z" transform="translate(-184.541 -195.945)"/><path class="v" d="M193.158,201.591l-3.261,1.882-.64-.369,3.261-1.883Z" transform="translate(-186.546 -193.518)"/><path class="v" d="M199.464,199.064l-7.336,4.235-.64-.369,7.336-4.235Z" transform="translate(-184.539 -195.79)"/><path class="v" d="M200.555,197.535l-4.046,2.336-.64-.369,4.046-2.336Z" transform="translate(-180.6 -197.165)"/></g><g transform="translate(21.123 60.331)"><path class="v" d="M175.578,210.832l-5.968,3.446-.64-.369,5.968-3.446Z" transform="translate(-168.97 -205.888)"/><path class="v" d="M175.749,209.781l-2.483,1.433-.64-.369,2.483-1.433Z" transform="translate(-165.681 -206.834)"/><path class="v" d="M174.3,212.48l-3.261,1.882-.64-.369,3.261-1.883Z" transform="translate(-167.686 -204.407)"/><path class="v" d="M180.6,209.953l-7.336,4.235-.64-.369,7.336-4.235Z" transform="translate(-165.679 -206.679)"/><path class="v" d="M181.695,208.424l-4.046,2.336-.64-.369,4.046-2.336Z" transform="translate(-161.74 -208.054)"/></g></g><g transform="translate(82.805 81.194)"><g transform="translate(1.607)"><path class="s" d="M201.35,215.8,181.422,227.3l-2.051-1.184L199.3,214.611Z" transform="translate(-179.371 -206.12)"/><path class="s" d="M193.1,220.071l-9.671,5.583-2.051-1.184,9.671-5.583Z" transform="translate(-177.567 -202.274)"/><path class="t" d="M216.79,214.637l-31.356,18.1-2.051-1.184,31.356-18.1Z" transform="translate(-175.763 -207.161)"/><path class="t" d="M233.5,211.325,187.44,237.919l-2.051-1.184,46.063-26.595Z" transform="translate(-173.959 -210.14)"/><path class="t" d="M231.991,213.552l-42.546,24.564-2.051-1.184,42.546-24.564Z" transform="translate(-172.156 -208.137)"/><path class="r" d="M227.936,216.552l-36.485,21.065-2.051-1.184,36.485-21.065Z" transform="translate(-170.352 -205.439)"/><path class="r" d="M222.762,219.893l-29.3,16.919-2.051-1.184,29.305-16.919Z" transform="translate(-168.548 -202.435)"/><path class="u" d="M218.614,222.922l-23.151,13.366-2.051-1.184,23.151-13.366Z" transform="translate(-166.744 -199.711)"/><path class="u" d="M233.953,220.026l-36.485,21.065-2.051-1.184L231.9,218.842Z" transform="translate(-164.94 -202.315)"/><path class="w" d="M237.581,220.691l-38.107,22-2.051-1.184,38.107-22Z" transform="translate(-163.136 -201.716)"/><path class="w" d="M232.983,223.857l-31.5,18.188-2.051-1.184,31.5-18.189Z" transform="translate(-161.332 -198.87)"/><path class="r" d="M229.421,226.707l-25.935,14.974-2.051-1.184,25.935-14.974Z" transform="translate(-159.529 -196.306)"/><path class="s" d="M242.123,224.614l-36.631,21.149-2.051-1.184,36.631-21.149Z" transform="translate(-157.725 -198.189)"/><path class="s" d="M246.381,225.088,207.5,247.537l-2.051-1.184L244.329,223.9Z" transform="translate(-155.921 -197.763)"/></g><path class="w" d="M232.95,251l-1.236.714L178.525,221l1.236-.714Z" transform="translate(-178.525 -201.011)"/></g><g transform="translate(148.452 95.627)"><ellipse class="r" cx="3.192" cy="1.843" rx="3.192" ry="1.843" transform="translate(0 43.374)"/><path class="r" d="M224.323,244.457a1.376,1.376,0,0,1,0,2.606,5,5,0,0,1-4.515,0,1.376,1.376,0,0,1,0-2.606A4.989,4.989,0,0,1,224.323,244.457Z" transform="translate(-207.885 -194.197)"/><path class="r" d="M230.029,247.751a1.376,1.376,0,0,1,0,2.606,4.985,4.985,0,0,1-4.513,0,1.375,1.375,0,0,1,0-2.606A4.985,4.985,0,0,1,230.029,247.751Z" transform="translate(-202.753 -191.235)"/><path class="r" d="M235.777,251.071a1.375,1.375,0,0,1,0,2.606,4.985,4.985,0,0,1-4.513,0,1.376,1.376,0,0,1,0-2.606A4.985,4.985,0,0,1,235.777,251.071Z" transform="translate(-197.583 -188.249)"/><path class="r" d="M241.483,254.364a1.376,1.376,0,0,1,0,2.606,4.989,4.989,0,0,1-4.515,0,1.376,1.376,0,0,1,0-2.606A4.989,4.989,0,0,1,241.483,254.364Z" transform="translate(-192.453 -185.287)"/><path class="w" d="M272.986,230.525l6.543-3.778-.847-.488-6.543,3.778ZM243.8,247.374l14.649-8.46-.847-.49-14.649,8.46Zm15.8-9.124,12.23-7.06-.847-.49-12.23,7.062Zm-16.951,9.787-.847-.488L221.04,259.537l.847.49Zm38.024-21.954,9.3-5.366-.847-.49-9.3,5.367Zm-62.041,31.939,6.855-3.958-.847-.488-6.855,3.956Zm59.931-35.58.847.49,8.144-4.7-.847-.49Zm-15.05,9.668,14.746-8.513-.847-.49-14.748,8.515Zm-7.694,4.443,6.543-3.778-.847-.488-6.543,3.776Zm-9.29,5.364,8.139-4.7-.847-.49-8.139,4.7ZM226.643,253.4l18.741-10.82-.847-.488L225.8,252.911Z" transform="translate(-208.86 -217.739)"/><path class="w" d="M261.018,240.168l.849.49,12.228-7.062-.847-.488Zm-.3,1.153-.847-.488-14.651,8.458.847.49Zm2.6,1.4.847.49,8.139-4.7-.847-.488Zm9.288-5.362.849.49L280,234.071l-.849-.49ZM295.05,224.4,280.3,232.916l.847.49,14.748-8.515ZM243.124,255.36l-.847-.49-15.732,9.083.847.49Zm44.714-30.676-13.44,7.759.847.488,13.44-7.759Zm-42.924,25.76-.847-.49-20.913,12.074.847.49Zm44.076-26.425.847.488,7.85-4.532-.847-.49Zm-25.973,19.855-.847-.49-18.741,10.82.847.49Z" transform="translate(-204.037 -216.168)"/><path class="w" d="M260.812,245.8l.847.488,8.139-4.7-.847-.488Zm2.017,3.7-.847-.49-14.469,8.353.847.49Zm13.814-12.837L270.1,240.44l.847.49,6.543-3.778Zm1.151-.665.847.49,14.748-8.515-.849-.49Zm15.365-4.011,8.566-4.944-.847-.49-8.566,4.946Zm-52.543,26.456-.847-.49-10.6,6.122.847.49Zm19.044-11.975-18.741,10.82.847.49,18.741-10.82Zm3.472,1.878.845.49,14.651-8.46-.847-.488Zm28.028-16.182-12.228,7.06.847.488,12.228-7.06Zm6.929-7.882-4.4,2.539.849.488,4.4-2.539Zm-50.881,34.237-.847-.49-13.882,8.015.847.49Z" transform="translate(-198.629 -211.856)"/><path class="w" d="M260.9,257.243l14.649-8.46-.847-.488-14.651,8.458Zm15.8-9.122,12.23-7.062-.847-.488-12.23,7.06Zm-16.951,9.787-.847-.49-20.767,11.99.847.488Zm-24.017,9.983,6.855-3.956-.847-.49-6.855,3.958Zm59.929-35.578.847.488,8.146-4.7-.847-.488Zm-15.05,9.667,14.748-8.515-.847-.49-14.748,8.515Zm-7.692,4.441,6.541-3.776-.847-.49-6.541,3.778Zm-9.29,5.364,8.139-4.7-.847-.488-8.139,4.7ZM243.739,263.27l18.741-10.82-.847-.49-18.741,10.82Z" transform="translate(-193.485 -208.862)"/><path class="w" d="M264.995,241.107l.847.489,12.229-7.061-.847-.489Z" transform="translate(-166.408 -203.073)"/><path class="w" d="M259.045,245.468l.847.489,8.138-4.7-.847-.489Z" transform="translate(-171.759 -197.027)"/><path class="w" d="M271.326,238.114l-14.651,8.458.847.489,14.65-8.459Z" transform="translate(-173.89 -199.415)"/><path class="w" d="M276.583,236.575l-12.647,7.3.847.489,12.647-7.3Z" transform="translate(-167.361 -200.799)"/><path class="w" d="M270.906,243.407l-.847-.489-29.546,17.059.847.489Z" transform="translate(-188.425 -195.096)"/><path class="w" d="M272.039,235.486l.847.489,6.543-3.778-.847-.489Z" transform="translate(-160.073 -205.176)"/><path class="w" d="M253.833,250.129l-.847-.489-10.6,6.122.847.489Z" transform="translate(-186.743 -189.05)"/><path class="w" d="M267.313,243.593l-18.741,10.821.847.489,18.741-10.82Z" transform="translate(-181.178 -194.488)"/><path class="w" d="M276.09,232.876l.847.489,5.549-3.2-.847-.489Z" transform="translate(-156.43 -207.008)"/></g><g transform="translate(25.689 86.096)"><path class="x" d="M256.31,265.962c-2.781,1.533-5.525,3.128-8.289,4.691-2.933-1.679-5.865-3.358-8.815-5.008q-4.51-2.521-9.084-4.934,4.376,2.755,8.815,5.4c2.959,1.763,5.937,3.495,8.913,5.229l.173.1.171-.1c2.79-1.645,5.6-3.255,8.376-4.931q4.174-2.487,8.287-5.084Q260.558,263.6,256.31,265.962Z" transform="translate(-75.007 -169.564)"/><path class="x" d="M252.672,282.058c4.446-2.093,88.457-50.715,91.5-52.829C340.806,230.817,256.691,279.265,252.672,282.058Z" transform="translate(-54.727 -197.875)"/><path class="x" d="M248.725,270.612c-3.6-1.692-97.811-56.184-100.272-57.891C151.175,214,245.476,268.354,248.725,270.612Z" transform="translate(-148.453 -212.721)"/></g></g><path class="y" d="M187.1,193.964l30.478,17.6h92.049l-76.5-44.169Z" transform="translate(32.844 64.001)"/><g transform="translate(268.835 263.938)"><g transform="translate(0.151 11.433)"><ellipse class="z" cx="42.236" cy="24.385" rx="42.236" ry="24.385"/><path class="aa" d="M279.166,220.733c-16.494,9.523-43.236,9.523-59.73,0v3.392c16.494,9.523,43.236,9.523,59.73,0,8.346-4.819,12.469-11.153,12.368-17.468v-3.39C291.635,209.582,287.511,215.915,279.166,220.733Z" transform="translate(-207.065 -179.106)"/></g><g class="h" transform="translate(12.517 7.099)"><path class="ab" d="M249.948,205.7l-.254,10.841-.726.23L219.434,199.73l.021-11.465Z" transform="translate(-219.434 -188.264)"/><path class="ac" d="M235.371,205.682V217.03l29.86-17.249.021-11.465Z" transform="translate(-205.101 -188.218)"/></g><path class="ad" d="M279.575,191.724l-29.882,17.365-30.248-17.464C236.093,182.128,262.9,182.161,279.575,191.724Z" transform="translate(-206.907 -184.527)"/><g transform="translate(0.018 11.187)"><path class="ab" d="M212.867,199.642l-.014,5.909,42.771.858,0-6.767Z" transform="translate(-212.853 -182.121)"/><path class="ad" d="M225.345,190.417c-8.3,4.858-12.484,11.179-12.488,17.521h42.761Z" transform="translate(-212.849 -190.417)"/></g><g transform="translate(0 32.361)"><path class="ab" d="M225.317,218.744c-5.983-3.455-10.266-7.96-11.886-13.124a14.613,14.613,0,0,1-.568-4.053l-.015,1.028c-.021,2.122,0,7.195.581,9.288l.055.224c1.3,5.085,5.339,9.776,12.116,13.688.272.156.551.3.828.454l.006-6.883Q225.867,219.061,225.317,218.744Z" transform="translate(-212.843 -201.563)"/><path class="ac" d="M249.2,201.593l-.007,3.5L220,222.842l.007-3.5Z" transform="translate(-206.412 -201.54)"/><path class="ad" d="M255.627,201.618l-29.2,17.749q-.567-.3-1.117-.621c-5.983-3.455-10.266-7.96-11.886-13.124a14.685,14.685,0,0,1-.57-4.057Z" transform="translate(-212.835 -201.565)"/></g></g><path class="g" d="M128.877,247.539,108.3,259.421l100.52,58.035H218.3Z" transform="translate(-38.028 136.079)"/><g transform="translate(77.651 344.63)"><g class="h"><path class="ae" d="M183.533,227.51a2.564,2.564,0,0,0-2.583-.255l-68.2,39.635a2.559,2.559,0,0,1,2.583.253l9.914,5.725,68.2-39.633Z" transform="translate(-111.676 -227.012)"/><path class="af" d="M187.531,230.288l-68.2,39.634,18.089,14.568,68.2-39.634Z" transform="translate(-105.758 -224.065)"/><path class="ag" d="M123.056,268.156l60.753-35.307,11.381,9.165-60.752,35.309Z" transform="translate(-102.407 -221.762)"/><path class="ah" d="M183.752,234.618l10.129,8.157,1.309-.76-11.381-9.165-60.753,35.307,1.252,1.009Z" transform="translate(-102.407 -221.762)"/><path class="ae" d="M269.738,281.94c-.013-.065-.029-.127-.046-.194a5.1,5.1,0,0,0-.27-.8,6.32,6.32,0,0,0-.37-.693c-.04-.067-.082-.127-.125-.192a5.824,5.824,0,0,0-.351-.471c-.032-.038-.057-.082-.087-.118-.156-.165-.262-.266-.37-.365-.055-.049-.106-.1-.161-.152a3.841,3.841,0,0,0-.517-.367l-70.385-40.636-68.2,39.633,70.385,40.638a3.727,3.727,0,0,1,.519.367c.053.046.1.1.158.148.108.1.217.2.319.315.049.053.093.112.141.167a5.849,5.849,0,0,1,.351.473c.044.065.087.127.127.194a5.771,5.771,0,0,1,.348.65,5.218,5.218,0,0,1,.293.838c.017.066.03.131.046.2a3.829,3.829,0,0,1,.1.788l-.006,2.006a1.68,1.68,0,0,1-.7,1.54l68.2-39.633a1.687,1.687,0,0,0,.7-1.54l.006-2.006A3.871,3.871,0,0,0,269.738,281.94Z" transform="translate(-97.193 -217.167)"/><path class="af" d="M234.665,259.818l-68.2,39.635a5.814,5.814,0,0,1,.934,1.466l68.2-39.633A5.821,5.821,0,0,0,234.665,259.818Z" transform="translate(-63.37 -197.508)"/><path class="ai" d="M214.228,309.307l-70.385-40.638L125.755,254.1l-9.914-5.725c-2.013-1.162-3.641-.222-3.647,2.091l-.009,3.255a7.988,7.988,0,0,0,3.624,6.287l98.4,56.812c1.324.764,2.406.148,2.41-1.375l.006-2.006A5.278,5.278,0,0,0,214.228,309.307Z" transform="translate(-112.184 -208.246)"/></g><path class="aj" d="M157.806,242.435l-.055.746-.714-.074-4.972-4.26.027-.5,1.037.114C155.716,240.657,155.2,240.218,157.806,242.435Zm-2.988-5.565.038-.741-.722-.061-1.977,1.147-.03.5,1.045.114Zm.885.095c3.934,3.269,2.944,2.446,4.744,3.941l1.077.1.038-.513c-2.137-1.763-2.6-2.142-5.092-4.2l-.727-.072Zm3.01,5.552-.055.752.712.065,2.057-1.189.055-.511-1.073-.1Zm4.006-2.64,1.092.891.934-.539-1.1-.889Z" transform="translate(-76.319 -218.867)"/><g transform="translate(41.284 25.24)"><g transform="translate(51.591)"><g transform="translate(42.83 24.727)"><g transform="translate(0 4.768)"><path class="ai" d="M208.461,262.464l-5.094,2.972a4.881,4.881,0,0,1-4.406-.008l-14.408-8.317a1.555,1.555,0,0,1-.914-1.282l-.006,1.464a1.553,1.553,0,0,0,.915,1.282l14.408,8.319a4.874,4.874,0,0,0,4.406.006l5.092-2.971a1.551,1.551,0,0,0,.906-1.271l0-1.464A1.548,1.548,0,0,1,208.461,262.464Z" transform="translate(-183.633 -255.83)"/></g><g transform="translate(0.005)"><path class="af" d="M208.443,262.163l-14.408-8.319a4.857,4.857,0,0,0-4.406.008l-5.092,2.972a1.346,1.346,0,0,0,.013,2.545l14.408,8.317a4.881,4.881,0,0,0,4.406.008l5.094-2.972A1.353,1.353,0,0,0,208.443,262.163Z" transform="translate(-183.636 -253.32)"/></g></g><g transform="translate(31.559 18.22)"><g transform="translate(0 3.632)"><path class="ai" d="M191.266,253.075l-5.094,2.972a4.88,4.88,0,0,1-4.406-.008l-3.147-1.818a1.549,1.549,0,0,1-.915-1.28l0,1.464a1.554,1.554,0,0,0,.915,1.282l3.147,1.818a4.88,4.88,0,0,0,4.406.006l5.092-2.97a1.551,1.551,0,0,0,.906-1.271l0-1.464A1.553,1.553,0,0,1,191.266,253.075Z" transform="translate(-177.699 -251.806)"/></g><g transform="translate(0.004)"><path class="af" d="M191.249,252.236l-3.147-1.818a4.857,4.857,0,0,0-4.406.008L178.6,253.4a1.346,1.346,0,0,0,.015,2.545l3.147,1.818a4.88,4.88,0,0,0,4.406.008l5.094-2.972A1.353,1.353,0,0,0,191.249,252.236Z" transform="translate(-177.701 -249.894)"/></g></g><g transform="translate(20.287 11.713)"><g transform="translate(0 3.63)"><path class="ai" d="M185.331,249.65l-5.094,2.971a4.874,4.874,0,0,1-4.406-.006l-3.147-1.818a1.55,1.55,0,0,1-.914-1.282l-.006,1.466a1.557,1.557,0,0,0,.915,1.282l3.147,1.816a4.88,4.88,0,0,0,4.406.008l5.094-2.972a1.54,1.54,0,0,0,.9-1.269l.006-1.466A1.551,1.551,0,0,1,185.331,249.65Z" transform="translate(-171.764 -248.379)"/></g><g transform="translate(0.005)"><path class="af" d="M185.315,248.808l-3.149-1.816a4.859,4.859,0,0,0-4.4.006l-5.094,2.972a1.346,1.346,0,0,0,.013,2.545l3.147,1.818a4.874,4.874,0,0,0,4.406.006l5.094-2.971A1.355,1.355,0,0,0,185.315,248.808Z" transform="translate(-171.767 -246.468)"/></g></g><g transform="translate(9.016 5.204)"><g transform="translate(0 3.632)"><path class="ai" d="M179.4,246.222l-5.094,2.972a4.88,4.88,0,0,1-4.406-.006l-3.147-1.818a1.555,1.555,0,0,1-.915-1.282l0,1.466a1.549,1.549,0,0,0,.915,1.28l3.147,1.818a4.88,4.88,0,0,0,4.406.008l5.094-2.972a1.553,1.553,0,0,0,.9-1.269l0-1.466A1.548,1.548,0,0,1,179.4,246.222Z" transform="translate(-165.83 -244.953)"/></g><g transform="translate(0.004)"><path class="af" d="M179.38,245.383l-3.147-1.818a4.857,4.857,0,0,0-4.406.008l-5.094,2.972a1.346,1.346,0,0,0,.015,2.545l3.147,1.818a4.88,4.88,0,0,0,4.406.006l5.094-2.972A1.353,1.353,0,0,0,179.38,245.383Z" transform="translate(-165.832 -243.041)"/></g></g><g transform="translate(0 2.329)"><path class="ai" d="M172.393,242.8l-5.092,2.972a4.874,4.874,0,0,1-4.406-.008l-.893-.515a1.551,1.551,0,0,1-.915-1.282l0,1.466a1.555,1.555,0,0,0,.914,1.282l.893.515a4.875,4.875,0,0,0,4.406.006l5.094-2.971a1.551,1.551,0,0,0,.906-1.271l0-1.464A1.546,1.546,0,0,1,172.393,242.8Z" transform="translate(-161.083 -241.527)"/></g><g transform="translate(0.004)"><path class="af" d="M172.378,241.34l-.893-.515a4.863,4.863,0,0,0-4.406.006l-5.094,2.972a1.346,1.346,0,0,0,.015,2.545l.893.515a4.874,4.874,0,0,0,4.406.008l5.092-2.972A1.353,1.353,0,0,0,172.378,241.34Z" transform="translate(-161.085 -240.301)"/></g></g><g transform="translate(38.693 7.446)"><g transform="translate(54.102 31.236)"><g transform="translate(0 3.632)"><path class="ak" d="M196.344,263.848l-5.094,2.972a4.88,4.88,0,0,1-4.406-.008L183.7,265a1.554,1.554,0,0,1-.915-1.282l0,1.464a1.551,1.551,0,0,0,.915,1.282l3.147,1.818a4.874,4.874,0,0,0,4.406.006l5.092-2.97a1.551,1.551,0,0,0,.906-1.271l0-1.464A1.548,1.548,0,0,1,196.344,263.848Z" transform="translate(-182.777 -262.579)"/></g><g transform="translate(0.004)"><path class="al" d="M196.327,263.009l-3.147-1.818a4.857,4.857,0,0,0-4.406.008l-5.094,2.97a1.347,1.347,0,0,0,.015,2.547l3.147,1.816a4.881,4.881,0,0,0,4.406.008l5.094-2.972A1.353,1.353,0,0,0,196.327,263.009Z" transform="translate(-182.779 -260.667)"/></g></g><g transform="translate(42.831 24.729)"><g transform="translate(0 3.63)"><path class="ak" d="M190.408,260.423l-5.094,2.972a4.876,4.876,0,0,1-4.4-.008l-3.149-1.818a1.55,1.55,0,0,1-.914-1.28l0,1.464a1.555,1.555,0,0,0,.914,1.282l3.147,1.818a4.88,4.88,0,0,0,4.406.006l5.094-2.971a1.545,1.545,0,0,0,.9-1.271l.006-1.466A1.551,1.551,0,0,1,190.408,260.423Z" transform="translate(-176.843 -259.152)"/></g><g transform="translate(0.003)"><path class="al" d="M190.393,259.583l-3.149-1.818a4.859,4.859,0,0,0-4.4.006l-5.094,2.972a1.346,1.346,0,0,0,.013,2.545l3.149,1.818a4.876,4.876,0,0,0,4.4.008l5.094-2.972A1.353,1.353,0,0,0,190.393,259.583Z" transform="translate(-176.845 -257.241)"/></g></g><g transform="translate(31.559 18.22)"><g transform="translate(0 3.632)"><path class="ak" d="M184.475,257l-5.094,2.972a4.88,4.88,0,0,1-4.406-.008l-3.147-1.818a1.555,1.555,0,0,1-.915-1.282l0,1.466a1.554,1.554,0,0,0,.915,1.282l3.147,1.816a4.88,4.88,0,0,0,4.406.008l5.094-2.972a1.55,1.55,0,0,0,.9-1.269l0-1.466A1.545,1.545,0,0,1,184.475,257Z" transform="translate(-170.908 -255.726)"/></g><g transform="translate(0.004)"><path class="al" d="M184.458,256.156l-3.147-1.816a4.851,4.851,0,0,0-4.406.006l-5.094,2.972a1.346,1.346,0,0,0,.015,2.545l3.147,1.818a4.88,4.88,0,0,0,4.406.008l5.094-2.972A1.355,1.355,0,0,0,184.458,256.156Z" transform="translate(-170.91 -253.814)"/></g></g><g transform="translate(20.288 11.713)"><g transform="translate(0 3.632)"><path class="ak" d="M178.539,253.571l-5.092,2.971a4.88,4.88,0,0,1-4.406-.006l-3.147-1.818a1.554,1.554,0,0,1-.915-1.282l0,1.466a1.55,1.55,0,0,0,.914,1.28L169.035,258a4.88,4.88,0,0,0,4.406.008l5.094-2.972a1.551,1.551,0,0,0,.906-1.271l0-1.464A1.551,1.551,0,0,1,178.539,253.571Z" transform="translate(-164.974 -252.3)"/></g><g transform="translate(0.004)"><path class="al" d="M178.524,252.73l-3.147-1.818a4.857,4.857,0,0,0-4.406.008l-5.094,2.972a1.346,1.346,0,0,0,.015,2.545l3.147,1.818a4.88,4.88,0,0,0,4.406.006l5.092-2.971A1.354,1.354,0,0,0,178.524,252.73Z" transform="translate(-164.976 -250.388)"/></g></g><g transform="translate(9.016 5.206)"><g transform="translate(0 3.632)"><path class="ai" d="M172.606,250.143l-5.094,2.972a4.88,4.88,0,0,1-4.406-.008l-3.147-1.816a1.558,1.558,0,0,1-.915-1.282l0,1.464a1.555,1.555,0,0,0,.915,1.282l3.147,1.818a4.88,4.88,0,0,0,4.406.008l5.094-2.972a1.553,1.553,0,0,0,.9-1.271l0-1.464A1.54,1.54,0,0,1,172.606,250.143Z" transform="translate(-159.039 -248.874)"/></g><g transform="translate(0.004)"><path class="af" d="M172.588,249.3l-3.147-1.818a4.857,4.857,0,0,0-4.406.008l-5.092,2.971a1.347,1.347,0,0,0,.013,2.547l3.147,1.816a4.88,4.88,0,0,0,4.406.008l5.094-2.972A1.353,1.353,0,0,0,172.588,249.3Z" transform="translate(-159.041 -246.962)"/></g></g><g transform="translate(0 2.329)"><path class="ai" d="M165.6,246.718l-5.092,2.972a4.88,4.88,0,0,1-4.406-.008l-.893-.515a1.554,1.554,0,0,1-.915-1.282l0,1.466a1.549,1.549,0,0,0,.915,1.28l.893.517a4.88,4.88,0,0,0,4.406.006l5.092-2.971a1.551,1.551,0,0,0,.906-1.271l0-1.466A1.551,1.551,0,0,1,165.6,246.718Z" transform="translate(-154.292 -245.447)"/></g><g transform="translate(0.004)"><path class="af" d="M165.587,245.262l-.893-.517a4.857,4.857,0,0,0-4.406.008l-5.094,2.972a1.346,1.346,0,0,0,.015,2.545l.893.515a4.88,4.88,0,0,0,4.406.008l5.092-2.972A1.353,1.353,0,0,0,165.587,245.262Z" transform="translate(-154.294 -244.221)"/></g></g><g transform="translate(25.795 14.893)"><g transform="translate(54.102 31.236)"><g transform="translate(0 3.63)"><path class="ak" d="M189.553,267.77l-5.094,2.972a4.881,4.881,0,0,1-4.406-.008l-3.147-1.818a1.553,1.553,0,0,1-.915-1.282l0,1.466a1.554,1.554,0,0,0,.915,1.282l3.147,1.818a4.88,4.88,0,0,0,4.406.006l5.094-2.972a1.548,1.548,0,0,0,.9-1.269l0-1.466A1.545,1.545,0,0,1,189.553,267.77Z" transform="translate(-175.986 -266.499)"/></g><g transform="translate(0.004)"><path class="al" d="M189.536,266.928l-3.147-1.816a4.862,4.862,0,0,0-4.406.006l-5.094,2.972a1.346,1.346,0,0,0,.015,2.545l3.147,1.818a4.881,4.881,0,0,0,4.406.008l5.094-2.972A1.355,1.355,0,0,0,189.536,266.928Z" transform="translate(-175.988 -264.588)"/></g></g><g transform="translate(42.831 24.727)"><g transform="translate(0 3.632)"><path class="ak" d="M183.617,264.344l-5.092,2.971a4.88,4.88,0,0,1-4.406-.006l-3.147-1.818a1.552,1.552,0,0,1-.915-1.282l0,1.466a1.555,1.555,0,0,0,.914,1.282l3.147,1.816a4.88,4.88,0,0,0,4.406.008l5.094-2.972a1.551,1.551,0,0,0,.906-1.269l0-1.466A1.551,1.551,0,0,1,183.617,264.344Z" transform="translate(-170.052 -263.073)"/></g><g transform="translate(0.004)"><path class="al" d="M183.6,263.5l-3.147-1.816a4.851,4.851,0,0,0-4.406.006l-5.094,2.972a1.346,1.346,0,0,0,.015,2.545l3.147,1.818a4.88,4.88,0,0,0,4.406.006l5.092-2.971A1.354,1.354,0,0,0,183.6,263.5Z" transform="translate(-170.054 -261.161)"/></g></g><g transform="translate(31.559 18.22)"><g transform="translate(0 3.632)"><path class="ak" d="M177.684,260.916l-5.094,2.972a4.88,4.88,0,0,1-4.406-.006l-3.147-1.818a1.558,1.558,0,0,1-.915-1.282l0,1.464a1.553,1.553,0,0,0,.915,1.282l3.147,1.818a4.88,4.88,0,0,0,4.406.008l5.094-2.972a1.549,1.549,0,0,0,.9-1.271l0-1.464A1.54,1.54,0,0,1,177.684,260.916Z" transform="translate(-164.117 -259.647)"/></g><g transform="translate(0.004)"><path class="al" d="M177.666,260.077l-3.147-1.818a4.857,4.857,0,0,0-4.406.008l-5.092,2.972a1.346,1.346,0,0,0,.013,2.545l3.147,1.818a4.88,4.88,0,0,0,4.406.006l5.094-2.972A1.353,1.353,0,0,0,177.666,260.077Z" transform="translate(-164.119 -257.735)"/></g></g><g transform="translate(20.288 11.713)"><g transform="translate(0 3.632)"><path class="ak" d="M171.75,257.49l-5.094,2.972a4.88,4.88,0,0,1-4.406-.008l-3.147-1.816a1.554,1.554,0,0,1-.915-1.282l0,1.464a1.551,1.551,0,0,0,.915,1.282l3.147,1.818a4.88,4.88,0,0,0,4.406.006l5.092-2.971a1.551,1.551,0,0,0,.906-1.271l0-1.464A1.553,1.553,0,0,1,171.75,257.49Z" transform="translate(-158.183 -256.221)"/></g><g transform="translate(0.004)"><path class="al" d="M171.733,256.651l-3.147-1.818a4.857,4.857,0,0,0-4.406.008l-5.094,2.971a1.347,1.347,0,0,0,.015,2.547l3.147,1.816a4.88,4.88,0,0,0,4.406.008l5.094-2.972A1.353,1.353,0,0,0,171.733,256.651Z" transform="translate(-158.185 -254.309)"/></g></g><g transform="translate(9.016 5.206)"><g transform="translate(0 3.63)"><path class="ai" d="M165.815,254.065l-5.094,2.972a4.88,4.88,0,0,1-4.406-.008l-3.147-1.818a1.55,1.55,0,0,1-.914-1.282l-.006,1.466a1.558,1.558,0,0,0,.915,1.282l3.147,1.818a4.88,4.88,0,0,0,4.406.006l5.094-2.972a1.54,1.54,0,0,0,.9-1.269l.006-1.466A1.551,1.551,0,0,1,165.815,254.065Z" transform="translate(-152.248 -252.794)"/></g><g transform="translate(0.005)"><path class="af" d="M165.8,253.223l-3.147-1.816a4.863,4.863,0,0,0-4.406.006l-5.092,2.972a1.346,1.346,0,0,0,.013,2.545l3.147,1.818a4.88,4.88,0,0,0,4.406.008l5.094-2.972A1.354,1.354,0,0,0,165.8,253.223Z" transform="translate(-152.251 -250.883)"/></g></g><g transform="translate(0 2.329)"><path class="ai" d="M158.813,250.639l-5.094,2.971a4.88,4.88,0,0,1-4.406-.006l-.893-.517a1.553,1.553,0,0,1-.915-1.28l0,1.464a1.554,1.554,0,0,0,.915,1.282l.893.515a4.88,4.88,0,0,0,4.406.008l5.092-2.972a1.551,1.551,0,0,0,.906-1.269l0-1.466A1.552,1.552,0,0,1,158.813,250.639Z" transform="translate(-147.501 -249.368)"/></g><g transform="translate(0.004)"><path class="af" d="M158.8,249.181l-.893-.515a4.857,4.857,0,0,0-4.406.008l-5.094,2.971a1.346,1.346,0,0,0,.015,2.545l.893.517a4.88,4.88,0,0,0,4.406.006l5.094-2.971A1.355,1.355,0,0,0,158.8,249.181Z" transform="translate(-147.503 -248.142)"/></g></g><g transform="translate(12.896 22.338)"><g transform="translate(54.102 31.236)"><g transform="translate(0 3.632)"><path class="ak" d="M182.762,271.691l-5.094,2.971a4.88,4.88,0,0,1-4.406-.006l-3.147-1.818a1.553,1.553,0,0,1-.914-1.282l-.006,1.466a1.558,1.558,0,0,0,.915,1.282l3.147,1.816a4.88,4.88,0,0,0,4.406.008l5.094-2.972a1.545,1.545,0,0,0,.9-1.269l0-1.466A1.545,1.545,0,0,1,182.762,271.691Z" transform="translate(-169.195 -270.42)"/></g><g transform="translate(0.005)"><path class="al" d="M182.744,270.85l-3.147-1.818a4.857,4.857,0,0,0-4.406.008l-5.092,2.972a1.346,1.346,0,0,0,.013,2.545l3.147,1.818a4.88,4.88,0,0,0,4.406.006l5.094-2.971A1.354,1.354,0,0,0,182.744,270.85Z" transform="translate(-169.198 -268.508)"/></g></g><g transform="translate(42.831 24.729)"><g transform="translate(0 3.632)"><path class="ak" d="M176.828,268.263l-5.094,2.972a4.88,4.88,0,0,1-4.406-.006l-3.147-1.818a1.554,1.554,0,0,1-.915-1.282l0,1.464a1.549,1.549,0,0,0,.915,1.282l3.147,1.818a4.88,4.88,0,0,0,4.406.008l5.092-2.972a1.551,1.551,0,0,0,.906-1.271l0-1.464A1.548,1.548,0,0,1,176.828,268.263Z" transform="translate(-163.261 -266.994)"/></g><g transform="translate(0.004)"><path class="al" d="M176.811,267.424l-3.147-1.818a4.857,4.857,0,0,0-4.406.008l-5.094,2.971a1.347,1.347,0,0,0,.015,2.547l3.147,1.818a4.88,4.88,0,0,0,4.406.006l5.094-2.972A1.353,1.353,0,0,0,176.811,267.424Z" transform="translate(-163.263 -265.082)"/></g></g><g transform="translate(31.559 18.222)"><g transform="translate(0 3.63)"><path class="ak" d="M170.893,264.838,165.8,267.81a4.88,4.88,0,0,1-4.406-.008l-3.147-1.816a1.555,1.555,0,0,1-.914-1.282l-.006,1.464a1.555,1.555,0,0,0,.915,1.282l3.147,1.818a4.88,4.88,0,0,0,4.406.006l5.094-2.971a1.545,1.545,0,0,0,.9-1.271l.006-1.466A1.551,1.551,0,0,1,170.893,264.838Z" transform="translate(-157.326 -263.567)"/></g><g transform="translate(0.005)"><path class="al" d="M170.877,264l-3.149-1.818a4.859,4.859,0,0,0-4.4.006l-5.094,2.972a1.347,1.347,0,0,0,.013,2.547l3.147,1.816a4.88,4.88,0,0,0,4.406.008l5.094-2.972A1.353,1.353,0,0,0,170.877,264Z" transform="translate(-157.329 -261.656)"/></g></g><g transform="translate(20.288 11.714)"><g transform="translate(0 3.63)"><path class="ak" d="M164.959,261.412l-5.094,2.972a4.88,4.88,0,0,1-4.406-.008l-3.147-1.818a1.555,1.555,0,0,1-.915-1.282l0,1.466a1.554,1.554,0,0,0,.915,1.282l3.147,1.816a4.874,4.874,0,0,0,4.406.008l5.094-2.972a1.548,1.548,0,0,0,.9-1.269l0-1.466A1.553,1.553,0,0,1,164.959,261.412Z" transform="translate(-151.392 -260.141)"/></g><g transform="translate(0.004)"><path class="al" d="M164.942,260.57l-3.147-1.816a4.862,4.862,0,0,0-4.406.006l-5.094,2.972a1.346,1.346,0,0,0,.015,2.545l3.147,1.818a4.88,4.88,0,0,0,4.406.008l5.094-2.972A1.355,1.355,0,0,0,164.942,260.57Z" transform="translate(-151.394 -258.23)"/></g></g><g transform="translate(9.018 5.206)"><g transform="translate(0 3.632)"><path class="ai" d="M159.023,257.986l-5.092,2.971a4.88,4.88,0,0,1-4.406-.006l-3.149-1.818a1.553,1.553,0,0,1-.914-1.282l0,1.466a1.555,1.555,0,0,0,.914,1.282l3.147,1.816a4.88,4.88,0,0,0,4.406.008l5.094-2.972a1.551,1.551,0,0,0,.906-1.269l0-1.466A1.551,1.551,0,0,1,159.023,257.986Z" transform="translate(-145.458 -256.715)"/></g><g transform="translate(0.003)"><path class="af" d="M159.008,257.145l-3.147-1.818a4.857,4.857,0,0,0-4.406.008l-5.094,2.972a1.346,1.346,0,0,0,.013,2.545l3.149,1.818a4.88,4.88,0,0,0,4.406.006l5.092-2.971A1.354,1.354,0,0,0,159.008,257.145Z" transform="translate(-145.46 -254.803)"/></g></g><g transform="translate(0 2.331)"><path class="ai" d="M152.022,254.558l-5.094,2.972a4.88,4.88,0,0,1-4.406-.006l-.893-.517a1.553,1.553,0,0,1-.914-1.282l-.006,1.466a1.558,1.558,0,0,0,.915,1.282l.893.515a4.88,4.88,0,0,0,4.406.008l5.094-2.972a1.553,1.553,0,0,0,.9-1.271l0-1.464A1.54,1.54,0,0,1,152.022,254.558Z" transform="translate(-140.71 -253.289)"/></g><g transform="translate(0.005)"><path class="af" d="M152,253.1l-.893-.515a4.851,4.851,0,0,0-4.406.006l-5.092,2.972a1.346,1.346,0,0,0,.013,2.545l.893.517a4.88,4.88,0,0,0,4.406.006l5.094-2.972A1.353,1.353,0,0,0,152,253.1Z" transform="translate(-140.713 -252.062)"/></g></g><g transform="translate(0 29.785)"><g transform="translate(54.102 31.236)"><g transform="translate(0 3.632)"><path class="am" d="M175.97,275.61l-5.094,2.972a4.875,4.875,0,0,1-4.406-.008l-3.147-1.816a1.555,1.555,0,0,1-.914-1.282l0,1.464a1.553,1.553,0,0,0,.914,1.282l3.147,1.818a4.874,4.874,0,0,0,4.406.006l5.094-2.971a1.545,1.545,0,0,0,.9-1.271l.006-1.464A1.546,1.546,0,0,1,175.97,275.61Z" transform="translate(-162.405 -274.341)"/></g><g transform="translate(0.003)"><path class="an" d="M175.955,274.771l-3.149-1.818a4.853,4.853,0,0,0-4.4.008l-5.094,2.971a1.347,1.347,0,0,0,.013,2.547l3.147,1.816a4.875,4.875,0,0,0,4.406.008l5.094-2.972A1.353,1.353,0,0,0,175.955,274.771Z" transform="translate(-162.407 -272.429)"/></g></g><g transform="translate(42.83 24.729)"><g transform="translate(0 3.63)"><path class="ai" d="M170.037,272.185l-5.094,2.972a4.88,4.88,0,0,1-4.406-.008l-3.147-1.818a1.553,1.553,0,0,1-.915-1.28l0,1.464a1.554,1.554,0,0,0,.915,1.282l3.147,1.818a4.88,4.88,0,0,0,4.406.006l5.094-2.972a1.548,1.548,0,0,0,.9-1.269l0-1.466A1.549,1.549,0,0,1,170.037,272.185Z" transform="translate(-156.47 -270.914)"/></g><g transform="translate(0.004)"><path class="af" d="M170.02,271.345l-3.147-1.818a4.863,4.863,0,0,0-4.406.006l-5.094,2.972a1.346,1.346,0,0,0,.015,2.545l3.147,1.818a4.88,4.88,0,0,0,4.406.008l5.094-2.972A1.353,1.353,0,0,0,170.02,271.345Z" transform="translate(-156.472 -269.003)"/></g></g><g transform="translate(31.559 18.222)"><g transform="translate(0 3.63)"><path class="ai" d="M164.1,268.759l-5.092,2.971a4.874,4.874,0,0,1-4.406-.006l-3.147-1.818a1.551,1.551,0,0,1-.915-1.282l0,1.466a1.555,1.555,0,0,0,.914,1.282l3.147,1.816A4.874,4.874,0,0,0,159,273.2l5.094-2.972a1.546,1.546,0,0,0,.906-1.269l0-1.466A1.551,1.551,0,0,1,164.1,268.759Z" transform="translate(-150.536 -267.488)"/></g><g transform="translate(0.004)"><path class="af" d="M164.086,267.917l-3.147-1.816a4.863,4.863,0,0,0-4.406.006l-5.094,2.972a1.346,1.346,0,0,0,.015,2.545l3.147,1.818a4.874,4.874,0,0,0,4.406.006l5.092-2.971A1.354,1.354,0,0,0,164.086,267.917Z" transform="translate(-150.538 -265.577)"/></g></g><g transform="translate(20.287 11.713)"><g transform="translate(0 3.632)"><path class="ai" d="M158.168,265.331l-5.094,2.972a4.88,4.88,0,0,1-4.406-.006l-3.147-1.818a1.558,1.558,0,0,1-.915-1.282l0,1.466a1.553,1.553,0,0,0,.915,1.28l3.147,1.818a4.88,4.88,0,0,0,4.406.008l5.094-2.972a1.553,1.553,0,0,0,.9-1.271l0-1.464A1.54,1.54,0,0,1,158.168,265.331Z" transform="translate(-144.601 -264.062)"/></g><g transform="translate(0.004)"><path class="af" d="M158.151,264.492,155,262.674a4.857,4.857,0,0,0-4.406.008l-5.094,2.972a1.346,1.346,0,0,0,.015,2.545l3.147,1.818a4.88,4.88,0,0,0,4.406.006l5.094-2.972A1.353,1.353,0,0,0,158.151,264.492Z" transform="translate(-144.603 -262.15)"/></g></g><g transform="translate(9.016 5.206)"><g transform="translate(0 3.632)"><path class="ai" d="M152.232,261.9l-5.092,2.972a4.874,4.874,0,0,1-4.406-.008l-3.147-1.816a1.554,1.554,0,0,1-.915-1.282l0,1.464a1.553,1.553,0,0,0,.914,1.282l3.149,1.818a4.874,4.874,0,0,0,4.406.006l5.092-2.971a1.551,1.551,0,0,0,.906-1.271l0-1.464A1.546,1.546,0,0,1,152.232,261.9Z" transform="translate(-138.667 -260.636)"/></g><g transform="translate(0.004)"><path class="af" d="M152.217,261.066l-3.147-1.818a4.857,4.857,0,0,0-4.406.008l-5.094,2.97a1.347,1.347,0,0,0,.015,2.547l3.147,1.816a4.874,4.874,0,0,0,4.406.008l5.092-2.972A1.353,1.353,0,0,0,152.217,261.066Z" transform="translate(-138.669 -258.724)"/></g></g><g transform="translate(0 2.331)"><path class="ai" d="M145.23,258.479l-5.094,2.972a4.88,4.88,0,0,1-4.406-.008l-.893-.515a1.555,1.555,0,0,1-.914-1.282l0,1.464a1.55,1.55,0,0,0,.914,1.282l.893.517a4.88,4.88,0,0,0,4.406.006l5.094-2.972a1.54,1.54,0,0,0,.9-1.269l0-1.464A1.545,1.545,0,0,1,145.23,258.479Z" transform="translate(-133.92 -257.21)"/></g><g transform="translate(0.003)"><path class="af" d="M145.214,257.024l-.893-.517a4.853,4.853,0,0,0-4.4.008l-5.094,2.972a1.346,1.346,0,0,0,.013,2.545l.893.515a4.88,4.88,0,0,0,4.406.008l5.094-2.972A1.353,1.353,0,0,0,145.214,257.024Z" transform="translate(-133.922 -255.983)"/></g></g></g></g><path class="g" d="M101.766,256.967,99.2,258.458l-.756,1.652,10.587,6.1c-.006.013,93.08,53.851,93.08,53.851.078.013,1.711.952,1.776.99,11.314,4.564,7.734,3.117,16.511,6.667,4.965,2,4.376,1.875,1.939-.3-.374-.351-8.927-8-9.348-8.287-6.15-3.512-90.911-52.543-97.389-56.29l-10.942-6.323Z" transform="translate(-46.891 144.155)"/><path class="g" d="M90.85,266.171l10.587,6.1c-.006.011,66.252,38.36,66.252,38.36.078.013,1.711.952,1.776.99,11.314,4.564,6.089,2.167,14.866,5.717,2.492,1,3.157.786,1.937-.3-.372-.351-7.28-7.047-7.7-7.337-6.15-3.512-64.083-37.054-70.561-40.8l-10.942-6.325C93.864,260.731,88.417,264.473,90.85,266.171Z" transform="translate(-54.266 149.154)"/><g transform="translate(55.571 396.614)"><path class="ao" d="M165.572,291.914l2.811,2.545c.089.08-.072.175-.211.123l-4.424-1.612Z" transform="translate(-43.731 -220.628)"/><path class="ap" d="M105.385,261l97.589,56.542-.006-2.094-97.583-56.539Z" transform="translate(-96.218 -250.309)"/><path class="aq" d="M110.084,261.629l.006,2.078-9.525-5.5-.006-2.094Z" transform="translate(-100.559 -252.823)"/><path class="ar" d="M105.385,257.342v2.976l97.583,56.539,1.282-2.233Z" transform="translate(-96.218 -251.719)"/><path class="as" d="M100.559,257.172l1.283-2.233,9.509,5.505-1.276,2.222Z" transform="translate(-100.559 -253.88)"/><path class="at" d="M105.385,256.227v2.119l98.865,57.281,1.832-1.058Z" transform="translate(-96.218 -252.722)"/><path class="au" d="M101.234,255.439l1.832-1.058,9.475,5.486-1.819,1.05Z" transform="translate(-99.951 -254.381)"/><path class="av" d="M156.406,287.336l5.609.272a9.043,9.043,0,0,1,3.132,1.563l8.648,7.81c-1.024-.583-1.6.234-1.225.712-.015.006-13.451-4.9-13.451-4.9-.526-.372-1.341-.726-1.51-1.2l-1.816-3.9Z" transform="translate(-50.886 -224.745)"/><g transform="translate(104.907 62.591)"><g class="aw"><path class="ax" d="M159.422,292.991l-3.911-2.251,6.2-3.592,3.356,1.9c-1.413.465-2.342-.053-2.807.3-.441.334,2.473,2.224.553,2.593a7.791,7.791,0,0,1-3.28-.676c-.281-.087-.625-.177-.718,0C158.615,291.643,159.707,292.089,159.422,292.991Z" transform="translate(-156.047 -287.504)"/></g></g><path class="ar" d="M166.087,290.284c-.336.809-1.613.332-2.1.672-.689.477,2.56,2.3.551,2.593-.978.144-2.23-.492-3.155-.729-.292-.076-.737-.122-.841.053-.275.462.961.961.779,1.825l-7.951-4.735,3.941-4.735Z" transform="translate(-53.069 -226.641)"/><path class="at" d="M156.4,285.228l2.372,1.368,6.4,3.7c-.349.781-1.6.323-2.091.659a.2.2,0,0,0-.078.2l-8.625-4.991Z" transform="translate(-52.163 -226.641)"/><path class="ap" d="M155.025,287.014l7.548,4.37c-.186-.063-.374-.129-.541-.171-.292-.076-.737-.122-.841.053-.275.462.961.961.779,1.825l-9.331-5.369Z" transform="translate(-53.723 -225.034)"/></g><g transform="translate(40.656 405.32)"><path class="ay" d="M140.922,290.026a.722.722,0,0,0,.387.746.994.994,0,0,0,.86-.085c.788-.424,1.417-1.848.646-2.505a.7.7,0,0,0-.8.019A2.344,2.344,0,0,0,140.922,290.026Z" transform="translate(-49.345 -232.794)"/><path class="az" d="M92.712,264.617a1.386,1.386,0,0,1,.027-.245,7.255,7.255,0,0,1,.222-1.191c.019-.07.047-.131.068-.2a6.781,6.781,0,0,1,.4-.991c.04-.082.082-.156.125-.234a6.43,6.43,0,0,1,.492-.762c.057-.076.11-.156.169-.23a6.251,6.251,0,0,1,.659-.676c.065-.057.129-.112.2-.165a4.916,4.916,0,0,1,.72-.5,2.93,2.93,0,0,1,2.731-.188c.555.294,45.19,26.085,70.537,42.71,8.5,5.533,12.281,8.389,14.647,10.387.013.011.23.224.33.311a1.063,1.063,0,0,1,.264.8,2.964,2.964,0,0,1-1.381,2.31,1.108,1.108,0,0,1-.839.1.629.629,0,0,1-.217-.055c-.057-.017-.1-.023-.169-.044-.424-.161-.921-.349-1.548-.6-2.063-.822-5.411-2.323-12-5.753-6.216-3.227-15.316-8.171-28.889-15.878-19.711-11.172-44.873-26.061-45.316-26.34-.032-.023-.095-.059-.1-.063a2.084,2.084,0,0,1-.76-.9,2.392,2.392,0,0,1-.173-.359c-.015-.049-.021-.1-.036-.148a3.886,3.886,0,0,1-.112-.536c-.013-.106-.017-.19-.025-.287s-.021-.19-.027-.289Z" transform="translate(-92.706 -258.965)"/><path class="ba" d="M140.885,287.3a.892.892,0,0,1,1.012-.023l2.194,1.749a.7.7,0,0,0-.8.019,2.344,2.344,0,0,0-1.092,1.825.723.723,0,0,0,.372.741l-2.594-1.067a.91.91,0,0,1-.471-.934A2.964,2.964,0,0,1,140.885,287.3Z" transform="translate(-50.62 -233.637)"/><path class="ba" d="M142.041,288.4a.551.551,0,0,1,.669.01c.5.471,1.878,1.768,2.154,2.042a.241.241,0,0,0-.294,0,.826.826,0,0,0-.384.642c0,.144.055.237.146.266-.372-.108-2.179-.686-2.83-.889a.559.559,0,0,1-.332-.6A1.878,1.878,0,0,1,142.041,288.4Z" transform="translate(-49.123 -232.594)"/><path class="bb" d="M143.141,289.446a.245.245,0,0,1,.292,0,1.294,1.294,0,0,1,.439.536.38.38,0,0,1-.179.454c-.215.114-.444.036-.794-.082-.089-.03-.144-.123-.142-.266A.826.826,0,0,1,143.141,289.446Z" transform="translate(-47.694 -231.597)"/><path class="bc" d="M95.365,261.858l28.8,16.629,2.382-1.376-28.8-16.629Z" transform="translate(-90.315 -257.601)"/><g class="h" transform="translate(5.496 3.084)"><path class="bd" d="M101,262.84l1.89-1.1-5.4-1.153-1.89,1.1Z" transform="translate(-95.6 -260.589)"/><g transform="translate(28.581 14.538)"><path class="be" d="M110.648,269.893l1.89-1.1,0-.551-1.89,1.1Z" transform="translate(-110.648 -268.243)"/></g><g transform="translate(5.399 1.153)"><path class="bf" d="M121.626,275.679l1.89-1.1L100.332,261.2l-1.89,1.1Z" transform="translate(-98.442 -261.196)"/></g><g transform="translate(0 1.098)"><path class="bg" d="M101,262.32l-5.4-1.153,6.621,3.823,1.231-.7,20.73,11.968,0-.551Z" transform="translate(-95.6 -261.167)"/></g></g></g><g transform="translate(0 130.394)"><g class="h" transform="translate(205.272 66.109)"><g transform="translate(0 11.347)"><path class="ab" d="M196.227,195.031l-16.85-9.792L179.55,155l16.85,9.792Z" transform="translate(-179.377 -154.996)"/></g><g transform="translate(0.173)"><path class="z" d="M196.319,170.161l-16.85-9.792,19.653-11.347,16.85,9.792Z" transform="translate(-179.468 -149.022)"/></g><g transform="translate(16.85 9.792)"><path class="ac" d="M208.075,154.178,207.9,184.42l-19.653,11.347.173-30.242Z" transform="translate(-188.249 -154.178)"/></g></g><path class="bh" d="M199.2,149.022,179.55,160.369l-.173,30.242,16.85,9.792,19.653-11.347.173-30.242Z" transform="translate(25.895 -82.913)"/><g class="h" transform="translate(182.464 63.638)"><g transform="translate(0 11.347)"><path class="ab" d="M184.219,209.369l-16.85-9.792.129-45.882,16.85,9.792Z" transform="translate(-167.369 -153.695)"/></g><g transform="translate(0.129)"><path class="z" d="M184.287,168.86l-16.85-9.792,19.653-11.347,16.85,9.792Z" transform="translate(-167.437 -147.721)"/></g><g transform="translate(16.85 9.792)"><path class="ac" d="M196.022,152.876l-.129,45.882L176.241,210.1l.129-45.882Z" transform="translate(-176.241 -152.876)"/></g></g><path class="bh" d="M185.145,147.721,169.6,156.7l16.85,9.793-.129,45.882,15.546-8.976L202,157.513Z" transform="translate(17.101 -84.083)"/><g class="h" transform="translate(159.666 48.515)"><g transform="translate(0 11.339)"><path class="bi" d="M172.216,229.715l-16.85-9.792.049-74.194,16.85,9.792Z" transform="translate(-155.365 -145.729)"/></g><g transform="translate(0.049)"><path class="bj" d="M172.241,160.89l-16.85-9.792,19.64-11.339,16.85,9.792Z" transform="translate(-155.391 -139.758)"/></g><g transform="translate(16.85 9.792)"><path class="bk" d="M183.926,144.914l-.049,74.194-19.64,11.339.049-74.194Z" transform="translate(-164.237 -144.914)"/></g></g><g class="h" transform="translate(136.732)"><g transform="translate(0 11.339)"><path class="bi" d="M160.267,265.855l-16.85-9.792-.126-135.877,16.85,9.792Z" transform="translate(-143.291 -120.185)"/></g><path class="bj" d="M160.141,135.347l-16.85-9.792,19.64-11.339,16.85,9.792Z" transform="translate(-143.291 -114.215)"/><g transform="translate(16.85 9.792)"><path class="bk" d="M171.8,119.371l.126,135.877-19.64,11.339-.126-135.877Z" transform="translate(-152.162 -119.371)"/></g></g><g class="h" transform="translate(113.997 38.572)"><g transform="translate(0 11.339)"><path class="bl" d="M148.225,260.759l-16.85-9.792-.054-110.473,16.85,9.792Z" transform="translate(-131.32 -140.494)"/></g><path class="bm" d="M148.17,155.655l-16.85-9.792,19.64-11.339,16.85,9.792Z" transform="translate(-131.32 -134.523)"/><g transform="translate(16.85 9.792)"><path class="bn" d="M159.832,139.679l.054,110.473-19.64,11.339-.054-110.473Z" transform="translate(-140.192 -139.679)"/></g></g><g class="h" transform="translate(91.261 81.485)"><g transform="translate(0 11.347)"><path class="bl" d="M136.17,253.612l-16.591-9.792-.229-80.728,16.85,9.792Z" transform="translate(-119.35 -163.091)"/></g><path class="bm" d="M136.2,178.256l-16.85-9.792L139,157.117l16.85,9.792Z" transform="translate(-119.35 -157.117)"/><g transform="translate(16.82 9.792)"><path class="bn" d="M147.889,162.273,147.858,243l-19.653,11.347.03-80.728Z" transform="translate(-128.205 -162.273)"/></g></g><g class="h" transform="translate(68.423 113.786)"><g transform="translate(0 11.346)"><path class="bo" d="M124.176,251.485l-16.85-9.792.085-61.595,16.85,9.792Z" transform="translate(-107.325 -180.098)"/></g><g transform="translate(0.085)"><path class="bp" d="M124.22,195.263l-16.85-9.792,19.653-11.347,16.85,9.792Z" transform="translate(-107.37 -174.124)"/></g><g transform="translate(16.85 9.792)"><path class="d" d="M135.934,179.28l-.085,61.595L116.2,252.221l.084-61.595Z" transform="translate(-116.197 -179.28)"/></g></g><g class="h" transform="translate(45.615 158.307)"><g transform="translate(0 11.347)"><path class="bo" d="M112.167,243.573l-16.85-9.792.173-30.242,16.85,9.792Z" transform="translate(-95.317 -203.539)"/></g><g transform="translate(0.173)"><path class="bp" d="M112.258,218.7l-16.85-9.792,19.653-11.347,16.85,9.792Z" transform="translate(-95.408 -197.565)"/></g><g transform="translate(16.85 9.792)"><path class="d" d="M124.015,202.72l-.173,30.242-19.653,11.347.173-30.242Z" transform="translate(-104.189 -202.72)"/></g></g><g class="h" transform="translate(22.808 155.835)"><g transform="translate(0 11.347)"><path class="ag" d="M100.159,257.911l-16.85-9.792.129-45.882,16.85,9.792Z" transform="translate(-83.309 -202.237)"/></g><g transform="translate(0.129)"><path class="bq" d="M100.227,217.4l-16.85-9.792,19.653-11.347,16.85,9.792Z" transform="translate(-83.376 -196.263)"/></g><g transform="translate(16.85 9.792)"><path class="br" d="M111.962,201.419l-.129,45.882L92.18,258.647l.129-45.882Z" transform="translate(-92.18 -201.419)"/></g></g><g class="h" transform="translate(0 152.384)"><g transform="translate(0 11.347)"><path class="ag" d="M88.15,272.714,71.3,262.921l.082-62.5,16.85,9.792Z" transform="translate(-71.3 -200.42)"/></g><g transform="translate(0.082)"><path class="bq" d="M88.194,215.585l-16.85-9.792L91,194.446l16.85,9.792Z" transform="translate(-71.343 -194.446)"/></g><g transform="translate(16.85 9.792)"><path class="br" d="M99.907,199.6l-.082,62.5L80.172,273.45l.082-62.5Z" transform="translate(-80.172 -199.602)"/></g></g></g><path class="y" d="M333.125,232.311l-34.161-19.722a90.784,90.784,0,0,0-8.674,7.736c-14.991,15.337-14.708,27.77.629,27.77h12.87l.194,14.477,29.143-16.826Z" transform="translate(115.692 104.647)"/><g class="bs" transform="translate(359.651 120.521)"><path class="af" d="M280.973,109.631,260.659,121.36v-.614l20.315-11.729Z" transform="translate(-260.659 -109.017)"/><path class="af" d="M280.973,117.646l-20.315,11.729v-.614l20.315-11.729Z" transform="translate(-260.659 -101.809)"/><path class="af" d="M280.973,125.661,260.659,137.39v-.614l20.315-11.729Z" transform="translate(-260.659 -94.601)"/><path class="af" d="M280.973,133.677l-20.315,11.729v-.614l20.315-11.729Z" transform="translate(-260.659 -87.392)"/><path class="af" d="M280.973,141.692l-20.315,11.729v-.614l20.315-11.729Z" transform="translate(-260.659 -80.184)"/></g><g class="bs" transform="translate(410.483 102.678)"><path class="af" d="M307.737,100.237l-20.315,11.729v-.614l20.315-11.729Z" transform="translate(-287.422 -99.623)"/><path class="af" d="M307.737,108.252l-20.315,11.729v-.614l20.315-11.729Z" transform="translate(-287.422 -92.414)"/><path class="af" d="M307.737,116.267,287.422,128v-.614l20.315-11.729Z" transform="translate(-287.422 -85.206)"/><path class="af" d="M307.737,124.282l-20.315,11.729V135.4l20.315-11.729Z" transform="translate(-287.422 -77.998)"/><path class="af" d="M307.737,132.3l-20.315,11.729v-.614l20.315-11.729Z" transform="translate(-287.422 -70.79)"/></g></g><path class="g" d="M331.239,285.977c-.87-3.181-14.266-8.084-14.266-8.084-29.912-15.626-25.267-12.763-31.485-17.924q-5.276-.627-10.555-1.255c-1.835-.217-1.789-1-3.567-.674-2.494.454-9.284,3.027-8.045,10.38.633,3.745,8.226,10.3,15.056,16.942a137.77,137.77,0,0,1,11.062,12.264s1.064,2.135,1.947,3.666a11.436,11.436,0,0,0,5.322,5.214c3.3,1.738,7.375,0,6.921-2.3-.7-3.573-12.015-14.4-12.015-14.4l-5.973-15.109,26.854,8.915s5.119,2.762,6.517,3.462a14.5,14.5,0,0,0,7.084,1.9C330.018,288.972,331.452,286.757,331.239,285.977Z" transform="translate(151.225 182.015)"/><g transform="translate(410.964 323.006)"><g transform="translate(1.253)"><path class="bt" d="M297.887,285.1c-.259-1.182-9.1-23.586-9.1-23.586s-2.319-19.554-6.277-26.166c-2.428-4.059-7.163-3.6-9.222-.444-3.923,6.01,2.7,26.368,5.176,32.223,1.259,2.981,11.846,20.289,13.331,21.785C293.065,290.3,298.577,288.244,297.887,285.1Z" transform="translate(-244.145 -205.665)"/><g transform="translate(75.437 123.229)"><path class="bu" d="M291.023,276.926c-2.561-1.815-1.144-5.839-.9-9.07.025-.332,10.77,2.828,10.77,2.828a41.937,41.937,0,0,0,5.942,3.743c4.88,2.471,10.508,5.089,6.531,7.506-3.337,2.03-8.212,1.618-11.495.245C299.178,281.054,291.936,277.572,291.023,276.926Z" transform="translate(-289.513 -267.832)"/></g><g transform="translate(42.845 143.818)"><path class="bu" d="M278.686,283.456a52.48,52.48,0,0,1-1.133-5.795c-.185-1.529,10.3-3.471,10.62-1.311.182,1.242.91,1.575,1.27,2.705,1.033,3.245,9.47,10.151,5.939,15.208a3.268,3.268,0,0,1-1.365,1.142C286.1,298.918,279.473,286.608,278.686,283.456Z" transform="translate(-277.55 -275.389)"/></g><g transform="translate(5.577 81.277)"><path class="bv" d="M327.929,260.308l-29.378-2.776s-2.468-4.34-2.493-5.1l-31.847,12.2s-1.567,13.778,2.027,20.537a7.4,7.4,0,0,0,3.833,3.354c6,2.392,18.709,7.168,18.709,7.168l12.056,25.281c2.327,4.073,13.652.621,12.514-3.659L305.9,289.155a8.233,8.233,0,0,0-1.588-3.681l-4.58-6.19,19.7-.787,14.17,22.074c1.223,3.027,13.453.15,11.838-4.376-.109-.1-9.293-23.485-12.732-32.247A5.79,5.79,0,0,0,327.929,260.308Z" transform="translate(-263.871 -252.434)"/></g><g transform="translate(0 22.964)"><path class="bt" d="M302.081,291.693c-.45-5.07-.218-13.707-.458-20.02-.2-5.261-.09-17.641-.136-22.7-.1-11.19-2.234-13.287-6.419-16.159-.618-.422-2.774-.114-5.683.676a4.539,4.539,0,0,0-2.6-.659,9.235,9.235,0,0,0-5.724,1.967,12.32,12.32,0,0,1-2.7,1.4,20.971,20.971,0,0,0-2.85,1.921,2.094,2.094,0,0,0-.744.9c-4.923,2.348-9.211,4.978-10.748,7.228-6.92,10.13,4.8,29.215,3.643,53.569C284.352,307.536,301.272,297.461,302.081,291.693Z" transform="translate(-261.824 -228.282)"/><g transform="translate(23.689 12.682)"><path class="bv" d="M275.36,241.684a8.963,8.963,0,0,0,.872-4.024c-.114-1.084.005-2.3-1.122-1.9a14.147,14.147,0,0,0-3.757,1.918c-1.057.94-.875,1.858-.7,3.035C270.971,242.8,274.429,243.863,275.36,241.684Z" transform="translate(-270.519 -235.685)"/><path class="bv" d="M273.759,237.627l-2.117,1.261-.379,35.781a3.623,3.623,0,0,0,.539,2l3.035,4.94a.4.4,0,0,0,.73-.114l2.248-9.244a3.655,3.655,0,0,0,.068-1.365Z" transform="translate(-269.239 -232.337)"/></g><path class="bw" d="M273.473,236.225c-.033-.125-.071-.251-.112-.373-.153-.455-1.25-2.177-1.207-2.656s1.477-.213,2.716,1.545c.831,1.18,3.828,8.569,3.828,8.569S271.59,241,271.541,240.8c-.117-.469,1.97-2.234,2.054-2.768A4.393,4.393,0,0,0,273.473,236.225Z" transform="translate(-245.076 -227.667)"/><g transform="translate(13.924)"><path class="bx" d="M267.178,231.781c.662-1.079,2.629-.67,3.823-.692,1.872-.035,3.749-.06,5.615.044.46.025,2.776-.044,2.923.635.256,1.185,1.812,3.686,1.934,4.893.771,3.959.392,6.5-2,7.5l-1.7,1.049c-5.449,3.782-9.465-1.85-10.356-2.457.381-4.411-.714-8.754-.441-10.421A1.483,1.483,0,0,1,267.178,231.781Z" transform="translate(-266.935 -231.031)"/></g><path class="bw" d="M280.835,239.392l-5.563,7.926a16.5,16.5,0,0,1-7.089-5c-1.627-1.681-2.447-4.37-1.831-5.493a11.177,11.177,0,0,1,2.441-3.03c.025,6.223,3.55,5.839,5.454,6.166A16.841,16.841,0,0,0,280.835,239.392Z" transform="translate(-254.37 -226.262)"/></g><g transform="translate(8.08)"><path class="by" d="M283.223,247.483c-.46,1.907-.9,4.455-2.754,4.852-3.384.725-10.62-1.112-11.527-3.629-1.52-4.237-2.992-8.6-1.082-14.053a13.87,13.87,0,0,1,4.038-6.013,18.121,18.121,0,0,1,4.5-2.58c4.558-1.978,8.5-1.749,8.74,2.926a58.89,58.89,0,0,1,.188,6.967C284.844,243.47,283.891,244.718,283.223,247.483Z" transform="translate(-261.059 -218.666)"/><path class="bz" d="M283.878,223.311c.755-.038,1.2.956,2.667,1.06.986.071,1.379.768,2.286,2.231a12.434,12.434,0,0,1,.657,2.21c.2.482.559.594.8,1.395a18.451,18.451,0,0,1,.172,2.411c.185,1.191.687,1.291.4,2.61a19.038,19.038,0,0,1-1.774,5.016,26.536,26.536,0,0,0-.332-6.166c-.365-.992-1.5-.9-2.359-1.185-.9-.3-1.414.267-2.278.428-1.458.267-4.449.932-5.819,2.237-2.7,2.572-2.468,5.615-2.951,7.373a.4.4,0,0,1-.719.1c-.6-.948-1.828-1.9-3.071-.714-1.289,1.234-.776,3.289-.335,5.144.395,1.654.8,3.607.8,3.607a7.27,7.27,0,0,1-4.16-3.885,13.587,13.587,0,0,1-.479-1.872c-.117-.373-.354-.665-.452-1.049-.074-.294-.014-.624-.09-.9-.136-.509-.515-.771-.695-1.231-.1-.245,0-.594-.136-.847-.161-.3-.553-.343-.7-.654-.193-.4.03-3.016-.1-3.5a5.343,5.343,0,0,1-.169-3.583,28.447,28.447,0,0,0,.545-2.91c.267-1.109,1.082-.349,1.395-1.455a4.784,4.784,0,0,1,1.3-2.37c1.441-1.365,3.04-3.525,4.9-3.441,1.49.071,2.833-.864,4.408-.757C279.7,222.755,281.734,223.417,283.878,223.311Z" transform="translate(-264.79 -222.602)"/></g></g><g class="h" transform="translate(25.634 75.402)"><path class="e" d="M302.259,253.452l-31.485,18.3,20.212,11.669,31.485-18.3Z" transform="translate(-270.773 -244.803)"/><g class="h" transform="translate(20.499 19.418)"><g class="h"><path class="ca" d="M278.3,275.758l31.487-18.3a.534.534,0,0,1,.548.046l-31.484,18.3a.539.539,0,0,0-.55-.046Z" transform="translate(-278.297 -257.405)"/></g></g><g transform="translate(15.101 15.831)"><path class="j" d="M290.072,259.22l-8.342,4.816-5.414-3.123,8.342-4.825,5.414,3.123Z" transform="translate(-276.316 -256.088)"/><path class="cb" d="M284.662,256.088l-8.347,4.816.157.1,8.185-4.726,5.257,3.032.157-.091Z" transform="translate(-276.316 -256.088)"/></g><g transform="translate(11.021 13.886)"><path class="cc" d="M313.993,260.9l-1.406.79-1.18-.667c0-.2,1.4-.986,1.4-.986l1.182.67C314.059,260.839,314.034,260.875,313.993,260.9Zm-2.057-1.133-2.117,1.2-1.18-.667a13.158,13.158,0,0,1,2.114-1.4l1.18.67C312,259.706,311.977,259.741,311.937,259.766Zm-.15,2.411-1.4.79-1.182-.67c0-.193,1.4-.984,1.4-.984l1.18.668C311.855,262.114,311.83,262.153,311.787,262.177Zm-1.9-3.607-1.406.79-1.18-.668c0-.193,1.4-.986,1.4-.986l1.18.67C309.953,258.51,309.929,258.545,309.888,258.57Zm-.305,4.882-1.406.793-1.18-.67c0-.193,1.4-.986,1.4-.986l1.18.67C309.651,263.392,309.626,263.43,309.583,263.452Zm-.564-2-1.4.79-1.18-.67c0-.193,1.4-.984,1.4-.984l1.18.67C309.087,261.4,309.062,261.431,309.019,261.455Zm-1.2-4.024-2.114,1.2-1.182-.67a13.143,13.143,0,0,1,2.114-1.395l1.18.667C307.891,257.374,307.866,257.409,307.823,257.431Zm-.139,2.417-1.406.79-1.18-.667c0-.2,1.4-.986,1.4-.986l1.182.67C307.749,259.788,307.727,259.823,307.684,259.848Zm-.305,4.882-1.406.79-1.18-.668c0-.193,1.4-.986,1.4-.986l1.18.67C307.444,264.67,307.419,264.705,307.378,264.73Zm-.564-2-1.4.79-1.182-.67c0-.193,1.4-.984,1.4-.984l1.18.67C306.88,262.673,306.858,262.708,306.815,262.733Zm-1.038-6.5-1.406.79-1.18-.67c-.005-.193,1.4-.984,1.4-.984l1.182.67C305.842,256.178,305.817,256.213,305.776,256.238Zm-.3,4.888-1.406.79-1.18-.67c0-.193,1.4-.984,1.4-.984l1.182.67C305.545,261.063,305.52,261.1,305.479,261.125Zm-.275,4.888-10.252,5.915-1.18-.67c0-.193,10.247-6.108,10.247-6.108l1.18.67C305.27,265.953,305.245,265.989,305.2,266.013Zm-.3-6.893-1.406.793-1.18-.67c0-.193,1.4-.984,1.4-.984l1.182.667C304.975,259.06,304.951,259.1,304.907,259.12Zm-.3,4.888-1.406.793-1.18-.67c0-.193,1.4-.984,1.4-.984l1.182.668C304.676,263.948,304.651,263.986,304.61,264.008Zm-1.041-6.5-1.406.793-1.18-.67c0-.193,1.4-.984,1.4-.984l1.18.668C303.638,257.453,303.613,257.491,303.57,257.513Zm-.3,4.888-1.4.793-1.182-.67c0-.193,1.4-.984,1.4-.984l1.18.668C303.341,262.341,303.316,262.379,303.273,262.4Zm-.569-2-1.406.79-1.18-.667c0-.193,1.4-.986,1.4-.986l1.182.67C302.769,260.338,302.744,260.374,302.7,260.4Zm-.3,4.888-1.4.79-1.18-.667c0-.193,1.4-.986,1.4-.986l1.18.67C302.472,265.226,302.447,265.261,302.4,265.286Zm-1.038-6.5-1.406.79-1.18-.667c0-.193,1.4-.986,1.4-.986l1.182.67C301.431,258.731,301.409,258.766,301.366,258.79Zm-.3,4.888-1.406.79-1.18-.667c0-.193,1.4-.986,1.4-.986l1.182.67C301.137,263.618,301.112,263.654,301.069,263.678Zm-.569-2-1.406.79-1.18-.67c-.005-.193,1.4-.983,1.4-.983l1.18.67C300.565,261.616,300.54,261.651,300.5,261.676Zm-.3,4.888-1.4.79-1.18-.667c-.005-.2,1.4-.986,1.4-.986l1.18.67C300.268,266.5,300.243,266.539,300.2,266.563Zm-1.038-6.5-1.406.79-1.18-.667c0-.2,1.4-.986,1.4-.986l1.183.67C299.227,260.008,299.2,260.044,299.161,260.068Zm-.3,4.888-1.406.79-1.18-.667c0-.2,1.4-.986,1.4-.986l1.182.67C298.93,264.9,298.905,264.931,298.865,264.956Zm-.572-2-1.406.79-1.18-.668c0-.2,1.4-.986,1.4-.986l1.182.67C298.36,262.894,298.336,262.929,298.292,262.954Zm-.3,4.888-1.406.79-1.18-.667c0-.2,1.4-.986,1.4-.986l1.18.67C298.061,267.781,298.036,267.817,298,267.841Zm-1.041-6.5-1.4.79-1.182-.667c0-.2,1.4-.986,1.4-.986l1.18.67C297.023,261.286,297,261.322,296.955,261.346Zm-.3,4.888-1.4.79-1.182-.67c0-.193,1.4-.983,1.4-.983l1.18.667C296.726,266.174,296.7,266.209,296.658,266.234Zm-.569-2.005-1.406.793-1.18-.67c0-.193,1.4-.984,1.4-.984l1.182.668C296.154,264.171,296.129,264.207,296.088,264.229Zm-.3,4.888-1.406.793-1.18-.67c0-.193,1.4-.984,1.4-.984l1.18.667C295.857,269.056,295.832,269.095,295.791,269.116Zm-1.041-6.5-1.406.793-1.18-.67c0-.193,1.4-.984,1.4-.984l1.182.668C294.819,262.561,294.794,262.6,294.75,262.621Zm-.3,4.888-1.406.793-1.18-.67c0-.193,1.4-.983,1.4-.983l1.182.667C294.521,267.449,294.5,267.487,294.453,267.509Zm-.294,4.877-2.114,1.2-1.18-.667a13.025,13.025,0,0,1,2.111-1.4l1.18.67C294.227,272.326,294.2,272.361,294.159,272.386Zm-.275-6.879-1.406.793-1.18-.67c-.005-.194,1.4-.986,1.4-.986l1.18.67C293.949,265.446,293.925,265.485,293.884,265.506Zm-.3,4.888-1.4.79-1.18-.668c-.005-.193,1.4-.986,1.4-.986l1.18.67C293.652,270.334,293.628,270.37,293.584,270.394Zm-1.038-6.5-1.406.79-1.18-.667c0-.194,1.4-.986,1.4-.986l1.182.67C292.612,263.839,292.587,263.877,292.546,263.9Zm-.3,4.888-1.406.79-1.18-.667c0-.194,1.4-.986,1.4-.986l1.182.67C292.315,268.727,292.29,268.762,292.249,268.787Zm-.572-2-1.406.79-1.18-.668c0-.193,1.4-.986,1.4-.986l1.18.67C291.745,266.724,291.721,266.76,291.677,266.784Zm-.3,4.888-1.406.79-1.18-.668c0-.2,1.4-.986,1.4-.986l1.18.67C291.446,271.612,291.421,271.647,291.38,271.672Zm-1.041-6.5-1.4.79-1.182-.668c0-.193,1.4-.986,1.4-.986l1.18.67C290.408,265.117,290.383,265.152,290.34,265.177Zm-.294,4.888-2.117,1.2-1.182-.667a13.161,13.161,0,0,1,2.114-1.4l1.18.67C290.111,270,290.086,270.04,290.045,270.064Zm.033,4.754-1.406.79-1.18-.667c-.005-.193,1.4-.986,1.4-.986l1.182.67C290.143,274.759,290.119,274.794,290.078,274.819Zm-.6-6.757-1.406.79-1.18-.668c0-.2,1.4-.986,1.4-.986l1.182.67C289.538,268,289.514,268.037,289.473,268.062Zm-1.338-1.607-1.406.79-1.18-.668c0-.2,1.4-.986,1.4-.986l1.182.67C288.2,266.395,288.179,266.43,288.135,266.455Zm-.128,7.19-1.406.793-1.18-.67c0-.193,1.4-.986,1.4-.986l1.18.67C288.073,273.585,288.048,273.62,288.007,273.644Zm-.136,2.452-1.406.79-1.18-.67c0-.193,1.4-.983,1.4-.983l1.18.67C287.939,276.037,287.915,276.072,287.871,276.1Zm-.6-6.759-1.406.793-1.18-.67c-.005-.194,1.4-.984,1.4-.984l1.182.667C287.334,269.28,287.31,269.315,287.269,269.337Zm-1.338-1.607-2.117,1.2-1.18-.67a13.119,13.119,0,0,1,2.112-1.395l1.182.668C286,267.672,285.972,267.708,285.931,267.73Zm-.065,4.73-5.741,3.324h-.158l-1.153-.654a14.214,14.214,0,0,1,1.9-1.261.168.168,0,0,0,.1-.142.177.177,0,0,0-.106-.139l-1.553-.88a.162.162,0,0,1-.093-.131.147.147,0,0,1,.087-.131l3.463-2.005h.155l3.1,1.757a.158.158,0,0,1,.093.131A.15.15,0,0,1,285.866,272.459Zm-.063,2.463-1.406.79-1.18-.668c0-.2,1.4-.986,1.4-.986l1.18.67C285.868,274.862,285.844,274.9,285.8,274.922Zm-.136,2.452-1.406.79-1.18-.67c0-.193,1.4-.984,1.4-.984l1.18.668C285.732,277.312,285.711,277.35,285.667,277.374ZM283.6,276.2l-1.4.79-1.18-.668c0-.2,1.4-.986,1.4-.986l1.18.67C283.664,276.14,283.64,276.176,283.6,276.2Zm-1.785-6.07-1.406.79-1.18-.667c0-.193,1.4-.986,1.4-.986l1.18.67C281.877,270.07,281.853,270.105,281.812,270.13Zm-2.2,1.278-1.406.79-1.18-.67c0-.193,1.4-.984,1.4-.984l1.18.67C279.673,271.348,279.649,271.383,279.608,271.408Zm-.142,2.447-1.406.793-1.18-.67c0-.193,1.4-.983,1.4-.983l1.18.667C279.534,273.794,279.51,273.832,279.466,273.854Zm-2.062-1.169-1.406.79-1.18-.67c-.005-.193,1.4-.983,1.4-.983l1.18.667C277.469,272.625,277.444,272.661,277.4,272.685Z" transform="translate(-274.818 -255.374)"/></g><path class="by" d="M284.467,251.841c.872.564,1.842,2.5,2.858,3.768,1.684,2.1,3.673,4.046,2.076,6.727q-1.038,1.745-2.188,3.419c-1.06,1.545-1.828,1.749-2.959.39a29.8,29.8,0,0,1-2.861-4.239c-.883-1.518-1.91-6.833-1.91-6.833C280.026,252.146,283.99,251.365,284.467,251.841Z" transform="translate(-255.751 -247.805)"/><path class="j" d="M315.511,250.407l-31.484,18.3-5.215,19.971a2.081,2.081,0,0,1,.185.812.75.75,0,0,1-.289.676l31.484-18.3a.74.74,0,0,0,.289-.676,2.087,2.087,0,0,0-.183-.812Z" transform="translate(-257.087 -250.054)"/><g transform="translate(26.584)"><path class="e" d="M280.53,268.575l31.486-18.3.356.353-31.486,18.3Z" transform="translate(-280.53 -250.277)"/></g><g transform="translate(0 18.297)"><path class="i" d="M297.356,256.993l.357.354L292.5,277.318a2.08,2.08,0,0,1,.185.812c0,.6-.36.891-.817.643L270.784,266.6l-.011-.959,20.213,11.669v-.164c0-.613.362-.907.836-.635Z" transform="translate(-270.773 -256.993)"/></g><path class="r" d="M287.445,257.19a5.3,5.3,0,0,0-2.656,3.03c-.21,1.038.624,1.365,1.863.727a5.47,5.47,0,0,0,2.67-3.03C289.548,256.879,288.709,256.555,287.445,257.19Zm1.422.956a4.361,4.361,0,0,1-2.139,2.428c-.995.509-1.665.248-1.5-.583a4.284,4.284,0,0,1,2.131-2.427C288.374,257.053,289.047,257.315,288.867,258.146Z" transform="translate(-246.659 -238.917)"/></g><g transform="translate(0 38.647)"><path class="bt" d="M293.828,282.553c-.714-.891-19.712-14.475-19.022-14-.079-5.1,3.152-22.834-1.251-29.16-2.7-3.882-7.394-3.1-9.233.193-3.5,6.264-3.94,31.49-1.071,37.159,1.46,2.888,25.093,11.835,27.188,12.078C292.289,289.117,294.8,283.76,293.828,282.553Z" transform="translate(-261.364 -236.787)"/></g><path class="by" d="M282.854,255.8c-1.054-.616-6.171-1.814-7.7-2.114-1.646-.526-4.076,3.324-2.8,5.623.9.553,3.158,1.076,5.054,2.032a18.605,18.605,0,0,1,2.735,3.182,5.37,5.37,0,0,0,.619.823,5.564,5.564,0,0,0,4.722.9,1.943,1.943,0,0,0,.719-.316C287.619,264.749,285.911,257.586,282.854,255.8Z" transform="translate(-243.031 -169.084)"/></g></g></svg>