<svg xmlns="http://www.w3.org/2000/svg" width="66.285" height="63.523" viewBox="0 0 66.285 63.523"><defs><style>.a{fill:#593cc7;}</style></defs><g transform="translate(0 -1)"><path class="a" d="M4.762,26.692A2.762,2.762,0,0,1,2.81,21.977L21.883,2.9a2.761,2.761,0,1,1,3.905,3.905L6.715,25.883a2.754,2.754,0,0,1-1.953.809Z" transform="translate(3.523 1.927)"/><path class="a" d="M18.738,14.809a2.061,2.061,0,0,1-1.464-.608L7.608,4.535A2.07,2.07,0,0,1,9.072,1h9.667A2.072,2.072,0,0,1,20.81,3.071v9.667a2.071,2.071,0,0,1-2.071,2.071Z" transform="translate(12.333)"/><path class="a" d="M17.571,17.452V33.333H1V17.452A3.454,3.454,0,0,1,4.452,14h9.667A3.454,3.454,0,0,1,17.571,17.452Z" transform="translate(1.762 22.905)"/><path class="a" d="M25.571,13.452V40.381H9V13.452A3.454,3.454,0,0,1,12.452,10h9.667A3.454,3.454,0,0,1,25.571,13.452Z" transform="translate(15.857 15.857)"/><path class="a" d="M33.571,9.452V47.428H17V9.452A3.454,3.454,0,0,1,20.452,6h9.667A3.454,3.454,0,0,1,33.571,9.452Z" transform="translate(29.952 8.809)"/><path class="a" d="M64.214,26.643H2.071a2.071,2.071,0,0,1,0-4.143H64.214a2.071,2.071,0,1,1,0,4.143Z" transform="translate(0 37.881)"/></g></svg>