<svg xmlns="http://www.w3.org/2000/svg" width="23.763" height="33.062" viewBox="0 0 23.763 33.062"><defs><style>.a{opacity:0.5;}.b{fill:#fff;}</style></defs><g class="a" transform="translate(0)"><path class="b" d="M73.033,29.446A1.033,1.033,0,0,1,72,28.413V4.262A4.267,4.267,0,0,1,76.262,0H94.73a1.033,1.033,0,0,1,1.033,1.033V24.8a1.033,1.033,0,1,1-2.066,0V2.066H76.262a2.2,2.2,0,0,0-2.2,2.2V28.413A1.033,1.033,0,0,1,73.033,29.446Z" transform="translate(-72)"/><path class="b" d="M94.73,377.3H76.649a4.649,4.649,0,1,1,0-9.3H94.73a1.033,1.033,0,0,1,0,2.066H76.649a2.583,2.583,0,0,0,0,5.166H94.73a1.033,1.033,0,1,1,0,2.066Z" transform="translate(-72 -344.237)"/><path class="b" d="M147.114,426.066H129.033a1.033,1.033,0,0,1,0-2.066h18.081a1.033,1.033,0,0,1,0,2.066Z" transform="translate(-124.384 -396.621)"/><path class="b" d="M145.033,25.83A1.033,1.033,0,0,1,144,24.8V1.033a1.033,1.033,0,0,1,2.066,0V24.8A1.033,1.033,0,0,1,145.033,25.83Z" transform="translate(-139.351)"/></g></svg>