<svg xmlns="http://www.w3.org/2000/svg" xmlns:xlink="http://www.w3.org/1999/xlink" width="22.927" height="22.927" viewBox="0 0 22.927 22.927">
  <defs>
    <clipPath id="clip-path">
      <rect id="Rectangle_2244" data-name="Rectangle 2244" width="22.927" height="22.927" transform="translate(0 0)" fill="#212121"/>
    </clipPath>
  </defs>
  <g id="Group_2363" data-name="Group 2363" transform="translate(-398 -1026)">
    <g id="Group_2345" data-name="Group 2345" transform="translate(398 1026)">
      <g id="Group_2344" data-name="Group 2344" transform="translate(0 0)" clip-path="url(#clip-path)">
        <path id="Path_4037" data-name="Path 4037" d="M11.464,22.927A11.464,11.464,0,1,0,0,11.464,11.47,11.47,0,0,0,11.464,22.927m0-21.7a10.24,10.24,0,1,1-10.24,10.24,10.255,10.255,0,0,1,10.24-10.24M8.773,11.883a.612.612,0,0,1,0-.874l3.076-3.076a.591.591,0,0,1,.839,0,.612.612,0,0,1,0,.874l-2.656,2.656,2.656,2.656a.618.618,0,0,1-.874.874Z" transform="translate(0 0)" fill="#212121"/>
      </g>
    </g>
  </g>
</svg>
