<svg xmlns="http://www.w3.org/2000/svg" width="19.863" height="22" viewBox="0 0 19.863 22"><defs><style>.a{fill:#1f7ce0;fill-rule:evenodd;}</style></defs><g transform="translate(-828 -335)"><path class="a" d="M11.322,4.431l3.834,1.849a.379.379,0,0,1,.007.679L11.443,8.848a.4.4,0,0,1-.349,0L7.261,7a.378.378,0,0,1-.007-.678l3.719-1.89A.4.4,0,0,1,11.322,4.431Zm.028,7.022,9.074-4.61a.378.378,0,0,0-.008-.678l-9-4.338a.392.392,0,0,0-.348,0L2,6.435A.378.378,0,0,0,2,7.114l9,4.337a.393.393,0,0,0,.345,0Zm7.625,3.322a4.67,4.67,0,0,1-2.292,3.813c-1.263.644-2.288-.016-2.287-1.479a4.667,4.667,0,0,1,2.292-3.814c1.263-.644,2.287.019,2.287,1.478Zm2.678,3.958V8.478a.385.385,0,0,0-.389-.381.393.393,0,0,0-.176.043l-9.155,4.674a.377.377,0,0,0-.209.336V23.405a.385.385,0,0,0,.389.381.392.392,0,0,0,.176-.043l9.158-4.674A.379.379,0,0,0,21.653,18.732Zm-14.157.9L3.375,17.653a.378.378,0,0,1-.179-.506.432.432,0,0,1,.026-.045l2.063-3.033a.391.391,0,0,1,.54-.1.385.385,0,0,1,.14.17l2.063,5.009a.378.378,0,0,1-.2.5.384.384,0,0,1-.338-.014Z" transform="translate(826.21 333.214)"/></g></svg>