<svg xmlns="http://www.w3.org/2000/svg" width="29.5" height="29.861" viewBox="0 0 29.5 29.861"><defs><style>.a{fill:#593cc7;}.b{fill:#fff;stroke:#fff;stroke-width:0.3px;}</style></defs><g transform="translate(-485.5 -552.639)"><path class="a" d="M131.863,289.275l-3.269,4.275a3.457,3.457,0,0,1-2.746,1.357h-6.07a.864.864,0,0,1,0-1.729h5.261a2.048,2.048,0,0,0,2.056-2.056,2.017,2.017,0,0,0-2.016-1.977h-6.05a5.005,5.005,0,0,0-6.378-.465l-.651.465v9.795h15.03a5.186,5.186,0,0,0,4.362-2.381l3.373-5.247a1.774,1.774,0,0,0-2.9-2.037Z" transform="translate(379.953 281.831)"/><path class="a" d="M3.86,282h-3a.864.864,0,0,0-.864.864v11.523a.864.864,0,0,0,.864.864h3a.864.864,0,0,0,.864-.864V282.864A.864.864,0,0,0,3.86,282Z" transform="translate(485.5 287.248)"/><g transform="translate(1)"><path class="a" d="M296.754,32.73a7.614,7.614,0,0,0-5.172-5.7,7.723,7.723,0,0,0-2.237-.334,7.557,7.557,0,1,0,5.089,13.143,7.513,7.513,0,0,0,2.472-5.589A7.92,7.92,0,0,0,296.754,32.73Z" transform="translate(212.213 525.938)"/><g transform="translate(499.469 557.751)"><path class="b" d="M301.725,43.151h-.38a1.707,1.707,0,0,0-.32-.693h.7a.346.346,0,0,0,.022-.693h-3.487a.346.346,0,0,0-.022.693h1.409a1.038,1.038,0,0,1,.975.693h-2.361a.346.346,0,0,0-.022.693h2.383a1.038,1.038,0,0,1-.975.693h-1.386a.346.346,0,0,0-.32.479.326.326,0,0,0,.076.113l2.77,2.77a.347.347,0,1,0,.508-.472l-.017-.017-2.18-2.18h.549a1.734,1.734,0,0,0,1.7-1.386h.382a.346.346,0,0,0,.022-.693h-.023Z" transform="translate(-297.903 -41.765)"/></g></g></g></svg>