<svg xmlns="http://www.w3.org/2000/svg" width="44.512" height="50" viewBox="0 0 44.512 50"><defs><style>.a{fill:#d06519;}.b{fill:#c97a03;}.c{fill:#f2f4f4;stroke:#fff;stroke-width:0.3px;}</style></defs><g transform="translate(-493.565 -6)"><path class="a" d="M548.734,23.49h-5.215a1.564,1.564,0,0,0-1.106,2.67l1.352,1.352-2.03,1.873-2.656-1.519a1.56,1.56,0,0,0-1.882.255l-5.216,5.215a1.564,1.564,0,1,0,2.211,2.214l4.371-4.371,2.612,1.494a1.563,1.563,0,0,0,1.838-.208l2.964-2.735,1.648,1.648A1.567,1.567,0,0,0,550.3,30.27V25.055a1.566,1.566,0,0,0-1.565-1.565Z" transform="translate(-12.222 -2.852)"/><path class="b" d="M511.375,18.427h9.784a1.477,1.477,0,0,0,1.182-.6,15.392,15.392,0,0,0,3.221-9.384V7.468A1.468,1.468,0,0,0,524.1,6c-2.72,0-6.264,1.761-7.828,2.617C514.7,7.761,511.157,6,508.439,6a1.468,1.468,0,0,0-1.468,1.468h0v.978a15.384,15.384,0,0,0,3.221,9.384A1.479,1.479,0,0,0,511.375,18.427Z" transform="translate(-5.243 0)"/><path class="b" d="M527.644,50.161a22.84,22.84,0,0,0-2.865-9.808l-.3.3a4.253,4.253,0,0,1-3.065,1.273c-.086,0-.17-.008-.255-.012a4.239,4.239,0,0,1-2.811-1.261,4.329,4.329,0,0,1,0-6.132l1.427-1.427c-1.518-1.819-3.137-3.551-4.749-5.193a1.461,1.461,0,0,0-1.044-.437h-6.717a1.461,1.461,0,0,0-1.044.437c-1.612,1.642-3.231,3.375-4.749,5.193a43.182,43.182,0,0,0-5.006,7.258,22.84,22.84,0,0,0-2.865,9.808c-.011.263-.034.522-.034.787v.105a11.18,11.18,0,0,0,1.645,5.716,10.689,10.689,0,0,0,1.575,2.307,9.653,9.653,0,0,0,7.385,3.095h12.9a9.652,9.652,0,0,0,7.385-3.095,10.693,10.693,0,0,0,1.575-2.307,11.183,11.183,0,0,0,1.645-5.716v-.105C527.678,50.683,527.654,50.424,527.644,50.161Z" transform="translate(0 -6.172)"/><g transform="translate(506.213 33.462)"><g transform="translate(0)"><path class="c" d="M519.3,47.364h-.8a3.586,3.586,0,0,0-.675-1.461h1.48a.731.731,0,1,0,.046-1.461h-7.355a.731.731,0,0,0-.045,1.461h2.97a2.186,2.186,0,0,1,2.057,1.461h-4.979a.731.731,0,1,0-.045,1.461h5.024a2.187,2.187,0,0,1-2.057,1.461h-2.922a.731.731,0,0,0-.675,1.01.713.713,0,0,0,.16.238l5.842,5.842a.731.731,0,0,0,1.071-.995c-.012-.013-.024-.025-.037-.037l-4.6-4.6h1.159a3.655,3.655,0,0,0,3.578-2.922h.805a.731.731,0,1,0,.046-1.461H519.3Z" transform="translate(-511.238 -44.442)"/></g></g></g></svg>