<svg width="13" height="12" viewBox="0 0 13 12" fill="none" xmlns="http://www.w3.org/2000/svg">
<path d="M1.28978 3.5H1.47404C2.18342 3.5 2.76382 4.025 2.76382 4.66667V10.5C2.76382 11.1417 2.18342 11.6667 1.47404 11.6667H1.28978C0.580402 11.6667 0 11.1417 0 10.5V4.66667C0 4.025 0.580402 3.5 1.28978 3.5ZM6.44891 0C7.15829 0 7.73869 0.525 7.73869 1.16667V10.5C7.73869 11.1417 7.15829 11.6667 6.44891 11.6667C5.73953 11.6667 5.15913 11.1417 5.15913 10.5V1.16667C5.15913 0.525 5.73953 0 6.44891 0ZM11.608 6.66667C12.3174 6.66667 12.8978 7.19167 12.8978 7.83333V10.5C12.8978 11.1417 12.3174 11.6667 11.608 11.6667C10.8987 11.6667 10.3183 11.1417 10.3183 10.5V7.83333C10.3183 7.19167 10.8987 6.66667 11.608 6.66667Z" fill="#754FC7"/>
</svg>
