<svg xmlns="http://www.w3.org/2000/svg" width="78" height="78" viewBox="0 0 78 78"><defs><style>.a{fill:#fff;}.b{fill:none;stroke:#17c257;stroke-linecap:round;stroke-linejoin:round;stroke-width:5px;}.c,.d{stroke:none;}.d{fill:#17c257;}</style></defs><g transform="translate(-0.351 0.14)"><g class="a" transform="translate(0.351 -0.14)"><path class="c" d="M 39 75.75 C 34.03778839111328 75.75 29.22521209716797 74.77864837646484 24.6959285736084 72.86293029785156 C 20.32003593444824 71.0120849609375 16.38961219787598 68.36195373535156 13.01382350921631 64.98617553710938 C 9.638047218322754 61.61038970947266 6.987917423248291 57.67996597290039 5.137070655822754 53.30406951904297 C 3.221353054046631 48.77478790283203 2.25 43.96221160888672 2.25 39 C 2.25 34.03778839111328 3.221353054046631 29.22521209716797 5.137070655822754 24.6959285736084 C 6.987917423248291 20.32003593444824 9.638047218322754 16.38961219787598 13.01382350921631 13.01382350921631 C 16.38961219787598 9.638047218322754 20.32003593444824 6.987917423248291 24.6959285736084 5.137070655822754 C 29.22521209716797 3.221353054046631 34.03778839111328 2.25 39 2.25 C 43.96221160888672 2.25 48.77478790283203 3.221353054046631 53.30406951904297 5.137070655822754 C 57.67996597290039 6.987917423248291 61.61038970947266 9.638047218322754 64.98617553710938 13.01382350921631 C 68.36195373535156 16.38961219787598 71.0120849609375 20.32003593444824 72.86293029785156 24.6959285736084 C 74.77864837646484 29.22521209716797 75.75 34.03778839111328 75.75 39 C 75.75 43.96221160888672 74.77864837646484 48.77478790283203 72.86293029785156 53.30406951904297 C 71.0120849609375 57.67996597290039 68.36195373535156 61.61038970947266 64.98617553710938 64.98617553710938 C 61.61038970947266 68.36195373535156 57.67996597290039 71.0120849609375 53.30406951904297 72.86293029785156 C 48.77478790283203 74.77864837646484 43.96221160888672 75.75 39 75.75 Z"/><path class="d" d="M 39 4.5 C 34.34054183959961 4.5 29.82285690307617 5.41156005859375 25.57242965698242 7.209327697753906 C 21.46472930908203 8.946739196777344 17.77468490600586 11.43494415283203 14.60481262207031 14.60481262207031 C 11.43494415283203 17.77468490600586 8.946739196777344 21.46472930908203 7.209327697753906 25.57242965698242 C 5.41156005859375 29.82285690307617 4.5 34.34054183959961 4.5 39 C 4.5 43.65945816040039 5.41156005859375 48.17714309692383 7.209327697753906 52.42757415771484 C 8.946739196777344 56.53527069091797 11.43494415283203 60.22531509399414 14.60481262207031 63.39518737792969 C 17.77468490600586 66.56505584716797 21.46472930908203 69.05325317382813 25.57242965698242 70.79067230224609 C 29.82285690307617 72.58843994140625 34.34054183959961 73.5 39 73.5 C 43.65945816040039 73.5 48.17714309692383 72.58843994140625 52.42757415771484 70.79067230224609 C 56.53527069091797 69.05325317382813 60.22531509399414 66.56505584716797 63.39518737792969 63.39518737792969 C 66.56505584716797 60.22531509399414 69.05325317382813 56.53527069091797 70.79067230224609 52.42757415771484 C 72.58843994140625 48.17714309692383 73.5 43.65945816040039 73.5 39 C 73.5 34.34054183959961 72.58843994140625 29.82285690307617 70.79067230224609 25.57242965698242 C 69.05325317382813 21.46472930908203 66.56505584716797 17.77468490600586 63.39518737792969 14.60481262207031 C 60.22531509399414 11.43494415283203 56.53527069091797 8.946739196777344 52.42757415771484 7.209327697753906 C 48.17714309692383 5.41156005859375 43.65945816040039 4.5 39 4.5 M 39 0 C 60.53910064697266 0 78 17.46089935302734 78 39 C 78 60.53910064697266 60.53910064697266 78 39 78 C 17.46089935302734 78 0 60.53910064697266 0 39 C 0 17.46089935302734 17.46089935302734 0 39 0 Z"/></g><path class="b" d="M13450.376,954.341l7.287,8.363,22.227-20.1" transform="translate(-13425.758 -913.784)"/></g></svg>