<svg xmlns="http://www.w3.org/2000/svg" width="51.591" height="51.591" viewBox="0 0 51.591 51.591">
  <g id="Group_2613" data-name="Group 2613" transform="translate(-4.8 -4.8)">
    <path id="Path_6693" data-name="Path 6693" d="M55.281,70.946a.91.91,0,0,0-.91.91v3.071H6.82V55.311a.91.91,0,0,0-1.82,0V75.838a.91.91,0,0,0,.91.91H55.281a.91.91,0,0,0,.91-.91V71.856A.91.91,0,0,0,55.281,70.946Z" transform="translate(0 -20.556)" fill="#3a15a6" stroke="#3916a6" stroke-width="0.4"/>
    <path id="Path_6694" data-name="Path 6694" d="M92.71,76.6a.91.91,0,0,0-.91.91v2.281a.91.91,0,0,0,1.82,0V77.51A.91.91,0,0,0,92.71,76.6Z" transform="translate(-37.428 -31.62)" fill="#f37921" stroke="#f37921" stroke-width="0.3"/>
    <path id="Path_6695" data-name="Path 6695" d="M55.281,30.6H50.276V8.356a.91.91,0,0,0-.91-.91H46.408V5.91A.91.91,0,0,0,45.5,5H15.921l-.284.171L8.3,12.565l-.171.284a.918.918,0,0,0-.057.341V24.225H5.91a.91.91,0,0,0-.91.91H5v4.721a.91.91,0,1,0,1.82,0h0V26.045H29.287l5.574,6.086a.909.909,0,0,0,.683.284H54.371V42.989a.91.91,0,1,0,1.82,0V31.506A.91.91,0,0,0,55.281,30.6ZM15.352,8.128v4.209H11.143ZM30.368,24.51a.909.909,0,0,0-.683-.284H9.892V14.158h6.37a.91.91,0,0,0,.91-.91h0V6.82H44.588V8.356h0v9.752a.91.91,0,0,0,1.82,0V9.266H48.4V30.6H46.408V22.721a.91.91,0,0,0-1.82,0V30.6h-8.7Z" fill="#3a15a6" stroke="#3916a6" stroke-width="0.4"/>
    <path id="Path_6696" data-name="Path 6696" d="M13.411,78.32h8.418a.91.91,0,0,0,0-1.82H13.411a.91.91,0,0,0,0,1.82Z" transform="translate(-2.293 -33.656)" fill="#f37921" stroke="#f37921" stroke-width="0.3"/>
    <path id="Path_6697" data-name="Path 6697" d="M38,78.32a.911.911,0,0,0,0-1.82H33.178a.911.911,0,0,0,0,1.82Z" transform="translate(-10.119 -33.656)" fill="#f37921" stroke="#f37921" stroke-width="0.3"/>
    <path id="Path_6698" data-name="Path 6698" d="M13.565,85.02H35.686a.921.921,0,1,0,0-1.82H13.565a.921.921,0,1,0,0,1.82Z" transform="translate(-2.292 -34.662)" fill="#f37921" stroke="#f37921" stroke-width="0.3"/>
    <path id="Path_6699" data-name="Path 6699" d="M58.2,19.7H47.11a.91.91,0,0,0,0,1.82H58.2a.91.91,0,0,0,0-1.82Z" transform="translate(-19.197 -4.28)" fill="#f37921" stroke="#f37921" stroke-width="0.3"/>
    <path id="Path_6702" data-name="Path 6702" d="M13.3,78.32h7.414a.917.917,0,0,0,0-1.82H13.3a.918.918,0,0,0,0,1.82Z" transform="translate(-2.293 -39.35)" fill="#f37921" stroke="#f37921" stroke-width="0.3"/>
  </g>
</svg>
