<svg xmlns="http://www.w3.org/2000/svg" width="86.895" height="59.856" viewBox="0 0 86.895 59.856">
  <g id="Group_10194" data-name="Group 10194" transform="translate(-933.771 -222.749)">
    <path id="Path_4400" data-name="Path 4400" d="M59.37,79.107a27.351,27.351,0,0,0-21.6-26.7,12.645,12.645,0,1,0-11.406,0A27.35,27.35,0,0,0,4.75,79.107V80.1H59.37ZM21.4,41.137A10.661,10.661,0,1,1,32.06,51.8,10.674,10.674,0,0,1,21.4,41.137ZM6.754,78.115a25.325,25.325,0,0,1,50.612,0Z" transform="translate(930.521 201.005)" fill="#f37021" stroke="#f37021" stroke-width="3"/>
    <path id="Color_Overlay" data-name="Color Overlay" d="M9.809.534.543,9.687h0a1.815,1.815,0,0,0,0,2.589l9.265,9.153a1.83,1.83,0,0,0,.19.157,1.828,1.828,0,0,0,2.321-2.821L7.2,13.7a3.708,3.708,0,0,0-1.047-.732l-.4-.183H22.284a1.857,1.857,0,0,0,.32-.023,1.833,1.833,0,0,0,1.532-2.1,1.913,1.913,0,0,0-1.955-1.537H5.723l.556-.247a3.714,3.714,0,0,0,.927-.668l5.114-5.07A1.878,1.878,0,0,0,12.588.717a1.786,1.786,0,0,0-.159-.179,1.869,1.869,0,0,0-2.621,0Z" transform="translate(1020.666 244.689) rotate(180)" fill="#f37021"/>
    <path id="Color_Overlay-2" data-name="Color Overlay" d="M9.809,21.406.543,12.254h0a1.815,1.815,0,0,1,0-2.589L9.809.511A1.83,1.83,0,0,1,10,.354a1.868,1.868,0,0,1,2.59.4,1.878,1.878,0,0,1-.269,2.425L7.2,8.236a3.708,3.708,0,0,1-1.047.732l-.4.183H22.284a1.858,1.858,0,0,1,.32.023,1.833,1.833,0,0,1,1.532,2.1,1.913,1.913,0,0,1-1.955,1.537H5.723l.556.247a3.714,3.714,0,0,1,.927.668L12.32,18.8a1.878,1.878,0,0,1,.269,2.425,1.786,1.786,0,0,1-.159.179,1.869,1.869,0,0,1-2.621,0Z" transform="translate(992.304 244.019)" fill="#f37021"/>
  </g>
</svg>
