<svg width="19" height="13" viewBox="0 0 19 13" fill="none" xmlns="http://www.w3.org/2000/svg">
<path d="M9.50054 5.92974C10.1777 5.93127 10.8344 5.6948 11.3587 5.26066C11.883 4.82651 12.2425 4.22155 12.3759 3.5489C12.5093 2.87626 12.4083 2.17756 12.0901 1.5719C11.772 0.966252 11.2564 0.491136 10.6313 0.227546C10.0061 -0.0360449 9.31006 -0.071794 8.6618 0.126392C8.01354 0.324578 7.45317 0.744431 7.07623 1.31438C6.69928 1.88434 6.52909 2.56911 6.59466 3.25197C6.66023 3.93484 6.9575 4.57353 7.43581 5.05917C7.70646 5.33485 8.02818 5.55366 8.3825 5.70306C8.73682 5.85245 9.11677 5.92949 9.50054 5.92974Z" fill="white"/>
<path d="M17.1379 5.28174C16.715 5.76207 16.1446 6.08378 15.5189 6.19482C14.8932 6.30586 14.2488 6.19973 13.69 5.89361C14.7599 7.16055 15.3411 8.77703 15.3262 10.4444C15.3261 10.6595 15.3128 10.8744 15.2863 11.0878C17.3599 11.1013 19.0006 11.234 19.0006 9.11493C19.0133 8.37195 18.8509 7.63662 18.527 6.96996C18.203 6.3033 17.7268 5.72454 17.1379 5.28174Z" fill="white"/>
<path d="M15.0265 5.63965C15.5473 5.64174 16.0527 5.4608 16.4566 5.12766C16.8605 4.79451 17.1379 4.32978 17.2416 3.81263C17.3452 3.29549 17.2687 2.75793 17.0251 2.29153C16.7814 1.82514 16.3857 1.45877 15.9054 1.25484C15.425 1.05092 14.8897 1.02205 14.3907 1.17316C13.8917 1.32427 13.4599 1.64601 13.1687 2.08356C12.8776 2.52111 12.7452 3.04741 12.7941 3.57278C12.843 4.09815 13.0701 4.59009 13.4369 4.9648C13.6447 5.17806 13.8922 5.3475 14.1651 5.46333C14.4379 5.57916 14.7307 5.63909 15.0265 5.63965Z" fill="white"/>
<path d="M5.31114 5.89361C4.75235 6.19973 4.10796 6.30586 3.48224 6.19482C2.85653 6.08378 2.2861 5.76207 1.86325 5.28174C1.27554 5.72365 0.800075 6.30097 0.476175 6.96594C0.152275 7.63092 -0.0107594 8.36446 0.000550745 9.10593C0.000550745 11.0473 1.64568 11.0788 3.72373 11.0788C3.69117 10.8667 3.67484 10.6523 3.67489 10.4376C3.66224 8.7727 4.24327 7.15911 5.31114 5.89361Z" fill="white"/>
<path d="M3.97237 5.63965C4.49318 5.64174 4.99859 5.4608 5.40249 5.12766C5.8064 4.79451 6.08381 4.32978 6.18746 3.81263C6.29112 3.29549 6.2146 2.75793 5.97095 2.29153C5.7273 1.82514 5.33159 1.45877 4.85124 1.25484C4.3709 1.05092 3.83562 1.02205 3.33662 1.17316C2.83762 1.32427 2.40577 1.64601 2.11463 2.08356C1.8235 2.52111 1.6911 3.04741 1.73999 3.57278C1.78887 4.09815 2.01603 4.59009 2.38275 4.9648C2.59061 5.17806 2.83811 5.3475 3.11094 5.46333C3.38378 5.57916 3.67656 5.63909 3.97237 5.63965Z" fill="white"/>
<path d="M12.4778 5.63943C12.4001 5.57645 12.3224 5.51571 12.2424 5.45947C11.8968 5.84938 11.4741 6.16121 11.0017 6.37468C10.5293 6.58814 10.0178 6.69846 9.50056 6.69846C8.98331 6.69846 8.47186 6.58814 7.99946 6.37468C7.52707 6.16121 7.10431 5.84938 6.75868 5.45947C6.67875 5.51571 6.60105 5.57645 6.52334 5.63943C5.82868 6.22254 5.272 6.95613 4.89429 7.78616C4.51659 8.61619 4.32749 9.52151 4.34094 10.4354C4.33765 10.6549 4.3555 10.8741 4.39422 11.09C4.74057 12.9616 6.70096 13.0066 9.12535 13.0066H9.50056C10.0001 13.0066 10.4841 13.0066 10.9392 13.0066C12.873 13.0066 14.3338 12.8334 14.6091 11.0788C14.6432 10.8668 14.6603 10.6524 14.6602 10.4377C14.6738 9.52341 14.4848 8.6177 14.1071 7.78728C13.7294 6.95686 13.1726 6.22288 12.4778 5.63943Z" fill="white"/>
</svg>
