<svg width="19" height="14" viewBox="0 0 19 14" fill="none" xmlns="http://www.w3.org/2000/svg">
<path d="M9.50001 6.91411C10.1771 6.91564 10.8338 6.67918 11.3581 6.24503C11.8825 5.81088 12.242 5.20593 12.3753 4.53328C12.5087 3.86063 12.4077 3.16193 12.0896 2.55628C11.7715 1.95063 11.2559 1.47551 10.6307 1.21192C10.0056 0.94833 9.30953 0.912581 8.66127 1.11077C8.013 1.30895 7.45264 1.72881 7.07569 2.29876C6.69875 2.86871 6.52855 3.55348 6.59412 4.23635C6.65969 4.91922 6.95697 5.5579 7.43527 6.04355C7.70593 6.31923 8.02765 6.53804 8.38197 6.68743C8.73629 6.83683 9.11623 6.91386 9.50001 6.91411Z" fill="#83838B"/>
<path d="M17.1373 6.26611C16.7144 6.74644 16.144 7.06815 15.5183 7.17919C14.8926 7.29024 14.2482 7.18411 13.6894 6.87798C14.7593 8.14493 15.3405 9.76141 15.3257 11.4288C15.3255 11.6439 15.3122 11.8587 15.2857 12.0721C17.3593 12.0856 19 12.2184 19 10.0993C19.0127 9.35633 18.8504 8.62099 18.5264 7.95433C18.2025 7.28767 17.7262 6.70892 17.1373 6.26611Z" fill="#83838B"/>
<path d="M15.0259 6.62403C15.5468 6.62612 16.0522 6.44517 16.4561 6.11203C16.86 5.77889 17.1374 5.31415 17.241 4.79701C17.3447 4.27986 17.2682 3.7423 17.0245 3.27591C16.7809 2.80952 16.3852 2.44315 15.9048 2.23922C15.4245 2.03529 14.8892 2.00642 14.3902 2.15753C13.8912 2.30864 13.4593 2.63038 13.1682 3.06793C12.8771 3.50549 12.7447 4.03178 12.7936 4.55715C12.8424 5.08252 13.0696 5.57447 13.4363 5.94917C13.6442 6.16244 13.8917 6.33187 14.1645 6.4477C14.4374 6.56353 14.7301 6.62346 15.0259 6.62403Z" fill="#83838B"/>
<path d="M5.31059 6.87798C4.7518 7.18411 4.10741 7.29024 3.4817 7.17919C2.85598 7.06815 2.28555 6.74644 1.8627 6.26611C1.27499 6.70803 0.799525 7.28534 0.475625 7.95032C0.151726 8.6153 -0.0113087 9.34884 1.42812e-06 10.0903C1.42812e-06 12.0316 1.64513 12.0631 3.72318 12.0631C3.69062 11.851 3.67429 11.6367 3.67434 11.422C3.66169 9.75708 4.24272 8.14348 5.31059 6.87798Z" fill="#83838B"/>
<path d="M3.97184 6.62403C4.49265 6.62612 4.99805 6.44517 5.40196 6.11203C5.80586 5.77889 6.08327 5.31415 6.18693 4.79701C6.29058 4.27986 6.21407 3.7423 5.97042 3.27591C5.72677 2.80952 5.33106 2.44315 4.85071 2.23922C4.37036 2.03529 3.83509 2.00642 3.33609 2.15753C2.83709 2.30864 2.40523 2.63038 2.1141 3.06793C1.82296 3.50549 1.69056 4.03178 1.73945 4.55715C1.78834 5.08252 2.0155 5.57447 2.38222 5.94917C2.59008 6.16244 2.83757 6.33187 3.11041 6.4477C3.38325 6.56353 3.67602 6.62346 3.97184 6.62403Z" fill="#83838B"/>
<path d="M12.4772 6.62381C12.3995 6.56082 12.3218 6.50009 12.2419 6.44385C11.8962 6.83376 11.4735 7.14559 11.0011 7.35905C10.5287 7.57251 10.0172 7.68283 9.49999 7.68283C8.98275 7.68283 8.47129 7.57251 7.9989 7.35905C7.5265 7.14559 7.10374 6.83376 6.75811 6.44385C6.67819 6.50009 6.60048 6.56082 6.52278 6.62381C5.82812 7.20691 5.27143 7.9405 4.89373 8.77053C4.51602 9.60057 4.32693 10.5059 4.34038 11.4198C4.33709 11.6392 4.35493 11.8585 4.39366 12.0744C4.74 13.946 6.70039 13.991 9.12479 13.991H9.49999C9.99953 13.991 10.4835 13.991 10.9386 13.991C12.8724 13.991 14.3332 13.8178 14.6085 12.0632C14.6426 11.8512 14.6597 11.6368 14.6596 11.422C14.6732 10.5078 14.4842 9.60208 14.1065 8.77165C13.7288 7.94123 13.172 7.20726 12.4772 6.62381Z" fill="#83838B"/>
</svg>
