<svg width="70" height="70" viewBox="0 0 70 70" fill="none" xmlns="http://www.w3.org/2000/svg">
<path d="M35 0C25.7173 0 16.8149 3.68743 10.251 10.251C3.68743 16.8149 0 25.7174 0 35C0 44.2826 3.68743 53.1851 10.251 59.7491C16.8149 66.3126 25.7174 70 35 70C44.2826 70 53.1851 66.3126 59.7491 59.7491C66.3126 53.1851 70 44.2826 70 35C70 28.8563 68.3828 22.8209 65.311 17.5002C62.2392 12.1795 57.8209 7.76125 52.5002 4.68941C47.1795 1.61758 41.1441 0.00040003 35.0004 0.00040003L35 0ZM35 65.3326C26.9553 65.3326 19.2402 62.1368 13.5509 56.4483C7.86244 50.7598 4.66661 43.0444 4.66661 34.9992C4.66661 26.954 7.86244 19.2394 13.5509 13.5501C19.2394 7.86164 26.9548 4.66581 35 4.66581C43.0452 4.66581 50.7598 7.86164 56.4491 13.5501C62.1376 19.2386 65.3334 26.954 65.3334 34.9992C65.3334 43.0444 62.1376 50.759 56.4491 56.4483C50.7606 62.1368 43.0452 65.3326 35 65.3326Z" fill="#45C431"/>
<path d="M54.3049 21.8376C53.8674 21.4027 53.2763 21.1589 52.6596 21.1589C52.0434 21.1589 51.4518 21.4027 51.0148 21.8376L29.339 43.5133C29.0963 43.7414 28.7182 43.7414 28.4755 43.5133L19.0021 34.04C18.5652 33.6056 17.9735 33.3613 17.3574 33.3613C16.7407 33.3613 16.1496 33.6056 15.712 34.04C15.2777 34.4774 15.0339 35.0686 15.0339 35.6853C15.0339 36.3014 15.2777 36.8931 15.712 37.3301L28.4755 50.0935C28.7182 50.3216 29.0963 50.3216 29.339 50.0935L54.3054 25.1965C54.7398 24.7595 54.9835 24.1678 54.9835 23.5517C54.9835 22.935 54.7398 22.3439 54.3054 21.9064L54.3049 21.8376Z" fill="#45C431"/>
</svg>
