<?xml version="1.0" encoding="utf-8"?>
<!-- Generator: Adobe Illustrator 25.4.7, SVG Export Plug-In . SVG Version: 6.00 Build 0)  -->
<svg version="1.1" id="Layer_1" xmlns="http://www.w3.org/2000/svg" xmlns:xlink="http://www.w3.org/1999/xlink" x="0px" y="0px"
	 viewBox="0 0 200 200" style="enable-background:new 0 0 200 200;" xml:space="preserve">
<style type="text/css">
	.st0{fill:#BC5239;}
	.st1{fill:#FFFFFF;stroke:#FFFFFF;stroke-width:0.75;stroke-miterlimit:10;}
</style>
<g>
	<g>
		<path class="st0" d="M77.3,116.1c-1.3,0-2.4-1.2-2.2-2.6c0.2-1.1,1.2-2,2.3-2h70.4c1.3,0,2.3,1.1,2.3,2.4
			c-0.1,1.2-1.1,2.2-2.4,2.2H77.3z M77.3,102.9c-1.3,0-2.4-1.2-2.2-2.6c0.2-1.1,1.2-2,2.3-2h30.2c1.2,0,2.2,0.8,2.3,2
			c0.2,1.4-0.9,2.6-2.2,2.6H77.3z M117.5,133.8c-9.6-9.7-25.3-9.7-34.9,0c-4.5,4.5-7.2,10.7-7.2,17.5c0,13.6,11,24.7,24.7,24.7
			c6.8,0,13-2.7,17.5-7.2C127.1,159.1,127.1,143.4,117.5,133.8L117.5,133.8z M89.5,178.5c-3.2-1.2-6.1-3-8.6-5.2l-5.2,9l4.4-0.7
			c0.8-0.1,1.6,0.1,2.2,0.8l3,3.6L89.5,178.5z M119.2,173.3c-2.5,2.2-5.5,4-8.6,5.2l4.3,7.5l3-3.6c0.5-0.7,1.4-1,2.2-0.8l4.4,0.7
			L119.2,173.3z M108.3,141.7c-4.7-4.1-11.9-4.1-16.6,0c-5.6,4.9-5.8,13.4-0.6,18.5c4.9,4.9,12.9,4.9,17.9,0
			C114.1,155.1,113.9,146.6,108.3,141.7z M99.2,134.1c9.8-0.5,18,7.4,18,17.2c0,9.5-7.7,17.2-17.2,17.2c-9.7,0-17.5-8-17.2-17.7
			C83.1,141.8,90.3,134.5,99.2,134.1z M74,69L74,69c-0.6-0.6-1.2-0.9-2-0.9H35.9c-4.4,0-8,3.6-8,8v82.8c0,4.4,3.6,8,8,8h34.9
			c1.9,0,3.2-2,2.4-3.8V163c-0.4-0.9-1.4-1.6-2.4-1.6H52.4c-2.4,0-4.4-1.8-4.8-4.1c-0.9-5.3-5.5-9.2-10.9-9.2c-1.2,0-2.3-1-2.3-2.3
			V89c0-1.2,1-2.3,2.3-2.3c6.1,0,11.1-5,11.1-11.1c0-1.2,1-2.3,2.3-2.3h22.1C74.4,73.5,75.6,70.7,74,69z M115.9,78.1
			c-1.8,4.6-8.3,8.1-12.6,4.6c-1.2,2.2-3.5,3.8-6,4.3c-2.7,0.5-5.7-0.1-8.4-2.7c-2.3-2.3-4.3-4.4-6.1-6.2h-0.1H52.1
			c-1,6.8-6.4,12.2-13.2,13.2v52.4c6.8,1,12.2,6.4,13.2,13.2h19.2c-3.6-18,10.2-35,28.7-35s32.2,16.9,28.7,35h19.2
			c1-6.8,6.4-12.2,13.2-13.2V91.3c-6.8-1-12.2-6.4-13.2-13.2L115.9,78.1z M126,68.2c-0.1,0-0.1,0-0.2,0.1c-0.8,0.3-1.4,0.9-1.7,1.7
			v0.1c-0.5,1.7,0.7,3.4,2.4,3.4h21.1c2.4,0,4.4,1.7,4.8,4.1c0.8,4.7,4.5,8.4,9.1,9.1c2.3,0.4,4.1,2.4,4.1,4.8v52
			c0,2.4-1.8,4.4-4.1,4.8c-4.2,0.7-7.6,3.8-8.7,7.7c-0.9,3-4.5,5.5-7.6,5.5h-16c-1,0-1.9,0.6-2.3,1.5c0,0.1-0.1,0.2-0.1,0.2
			c-0.8,1.7,0.5,3.6,2.3,3.6h35.1c4.4,0,8-3.6,8-8V76.1c0-4.4-3.6-8-8-8H127C126.5,68.1,126.3,68.2,126,68.2z M69.5,17.5l-10-3.5
			c-0.3-0.1-0.6-0.1-0.9,0c-0.3,0.1-0.5,0.4-0.6,0.7L45.9,49.5c-0.2,0.6,0.1,1.3,0.7,1.5l10,3.5c0.6,0.2,1.3-0.1,1.5-0.7L70.2,19
			C70.5,18.4,70.1,17.7,69.5,17.5L69.5,17.5z M73.7,22.9L63.1,53l4.9,3.5c5.3,5.2,8.2,8.2,12.9,13.1c2.9,3,5.9,6.1,11.1,11.4
			c4,4,8.4-0.5,7.3-1.9l-8.7-8.4c-0.9-0.9-1-2.3-0.1-3.2s2.3-1,3.2-0.1l10.1,9.6l2.1,1.9c2.2,2,7.3-2.3,5.4-4.3l-10-9.6
			c-0.9-0.9-1-2.3-0.1-3.2s2.3-0.9,3.2-0.1l10.1,9.6c2.3,2.2,6.9-2.7,4.8-4.8c0,0,0,0-0.1-0.1l-10-9.6c-0.9-0.9-1-2.3-0.1-3.2
			s2.3-0.9,3.2-0.1l10,9.6c0.9,0.8,1.5,0.8,2.7,0.4c1.5-0.7,3.5-3.3,2.5-4.3l-14-13.9c-4-4-7.3-5.2-11.6-2.4
			c-6.9,4.7-13.3,4.2-17.5,1.9c-5.5-3-7.6-9.5-2.5-12.6l9.6-5.7L73.7,22.9z M136.5,52l-10.2-29.2c-6.6,1.1-25.5,3.7-27.4,4.9
			l-0.6,0.5l-13.8,8.2c-1.2,0.7-0.5,2,0.2,3c0.5,0.6,1.2,1.2,2.1,1.7c3,1.6,7.6,1.9,12.8-1.7c6.2-4.2,11.7-2.6,17.3,2.9l13.1,13
			L136.5,52z M140.4,14.1l-10,3.5c-0.6,0.2-0.9,0.9-0.7,1.5l11.6,33.2c0.4,0.9,0.5,1.9,1.1,2.2c0.3,0.1,0.6,0.2,0.9,0l10-3.5
			c0.6-0.2,0.9-0.9,0.7-1.5l-12.2-34.8c-0.1-0.3-0.3-0.5-0.6-0.7C141.1,14,140.7,14,140.4,14.1L140.4,14.1z"/>
	</g>
	<g id="Group_38" transform="translate(0.3 0.3)">
		<g id="Group_37">
			<path id="Path_194" class="st1" d="M66.2,101.6h-1.5c-0.2-1-0.6-1.9-1.3-2.7h2.8c0.8,0,1.4-0.6,1.4-1.3s-0.6-1.4-1.3-1.4l0,0
				H52.6c-0.8,0-1.4,0.6-1.4,1.3c0,0.8,0.6,1.4,1.3,1.4H58c1.7,0,3.3,1.1,3.8,2.7h-9.3c-0.8,0-1.4,0.6-1.4,1.3
				c0,0.8,0.6,1.4,1.3,1.4h9.4c-0.6,1.6-2.1,2.7-3.8,2.7h-5.5c-0.8,0-1.4,0.6-1.4,1.4c0,0.2,0,0.4,0.1,0.5c0.1,0.2,0.2,0.3,0.3,0.4
				l10.9,10.9c0.5,0.5,1.4,0.5,1.9,0s0.5-1.3,0.1-1.9l-0.1-0.1l-8.6-8.6h2.2c3.2,0,6-2.3,6.7-5.5h1.5c0.8,0,1.4-0.6,1.4-1.3
				C67.7,102.3,67.1,101.6,66.2,101.6L66.2,101.6L66.2,101.6L66.2,101.6z"/>
		</g>
	</g>
</g>
</svg>
