<svg width="69" height="69" viewBox="0 0 69 69" fill="none" xmlns="http://www.w3.org/2000/svg">
<path d="M66.8438 21.0127C67.2727 21.0127 67.684 20.8423 67.9873 20.539C68.2906 20.2357 68.4609 19.8244 68.4609 19.3955V5.39062C68.4595 4.10435 67.9479 2.87116 67.0384 1.96163C66.1288 1.05209 64.8957 0.540489 63.6094 0.539062H5.39925C4.11353 0.540487 2.88084 1.05165 1.97139 1.96048C1.06195 2.86932 0.54997 4.10168 0.547688 5.38739L0.539063 19.3847C0.539063 19.8136 0.709445 20.2249 1.01273 20.5282C1.31601 20.8315 1.72735 21.0019 2.15625 21.0019C3.44582 21.0019 4.68258 21.5142 5.59445 22.426C6.50631 23.3379 7.01859 24.5746 7.01859 25.8642C7.01859 27.1538 6.50631 28.3905 5.59445 29.3024C4.68258 30.2143 3.44582 30.7266 2.15625 30.7266C1.94379 30.7266 1.73341 30.7684 1.53713 30.8498C1.34085 30.9311 1.16253 31.0503 1.01234 31.2006C0.862161 31.3509 0.743062 31.5293 0.661854 31.7256C0.580647 31.922 0.538921 32.1324 0.539063 32.3448L0.547688 48.5178C0.549685 49.8037 1.06154 51.0363 1.97101 51.9454C2.88049 52.8545 4.11335 53.3658 5.39925 53.3672H23.7252C24.1541 53.3672 24.5655 53.1968 24.8687 52.8935C25.172 52.5902 25.3424 52.1789 25.3424 51.75C25.3424 51.3211 25.172 50.9098 24.8687 50.6065C24.5655 50.3032 24.1541 50.1328 23.7252 50.1328H5.39817C4.96953 50.132 4.55869 49.9613 4.25559 49.6582C3.9525 49.3551 3.78184 48.9443 3.78098 48.5156L3.77452 33.7992C5.6036 33.4262 7.24764 32.4327 8.42839 30.9868C9.60914 29.5409 10.2541 27.7315 10.2541 25.8648C10.2541 23.998 9.60914 22.1886 8.42839 20.7427C7.24764 19.2969 5.6036 18.3033 3.77452 17.9303L3.78098 5.39062C3.78184 4.96208 3.95253 4.55135 4.25566 4.24843C4.55878 3.9455 4.96963 3.77509 5.39817 3.77452H63.6105C64.0388 3.77537 64.4494 3.94591 64.7523 4.24881C65.0552 4.5517 65.2257 4.96227 65.2266 5.39062V17.9411C63.4007 18.3143 61.7598 19.3068 60.5814 20.7505C59.403 22.1942 58.7593 24.0006 58.7593 25.8642C58.7593 27.7278 59.403 29.5342 60.5814 30.978C61.7598 32.4217 63.4007 33.4141 65.2266 33.7874V48.5156C65.226 48.9444 65.0554 49.3554 64.7523 49.6585C64.4491 49.9617 64.0381 50.1322 63.6094 50.1328H62.5312C62.1023 50.1328 61.691 50.3032 61.3877 50.6065C61.0844 50.9098 60.9141 51.3211 60.9141 51.75C60.9141 52.1789 61.0844 52.5902 61.3877 52.8935C61.691 53.1968 62.1023 53.3672 62.5312 53.3672H63.6094C64.8957 53.3658 66.1288 52.8542 67.0384 51.9446C67.9479 51.0351 68.4595 49.8019 68.4609 48.5156V32.333C68.4609 31.9041 68.2906 31.4927 67.9873 31.1894C67.684 30.8862 67.2727 30.7158 66.8438 30.7158C65.557 30.7158 64.323 30.2046 63.4132 29.2948C62.5033 28.3849 61.9922 27.1509 61.9922 25.8642C61.9922 24.5775 62.5033 23.3435 63.4132 22.4336C64.323 21.5238 65.557 21.0127 66.8438 21.0127Z" fill="#999999"/>
<path d="M32.3491 19.9453H54.9897C55.4187 19.9453 55.83 19.7749 56.1333 19.4716C56.4366 19.1684 56.6069 18.757 56.6069 18.3281C56.6069 17.8992 56.4366 17.4879 56.1333 17.1846C55.83 16.8813 55.4187 16.7109 54.9897 16.7109H32.3491C31.9202 16.7109 31.5089 16.8813 31.2056 17.1846C30.9023 17.4879 30.7319 17.8992 30.7319 18.3281C30.7319 18.757 30.9023 19.1684 31.2056 19.4716C31.5089 19.7749 31.9202 19.9453 32.3491 19.9453ZM32.3491 27.4922H54.9897C55.4187 27.4922 55.83 27.3218 56.1333 27.0185C56.4366 26.7152 56.6069 26.3039 56.6069 25.875C56.6069 25.4461 56.4366 25.0348 56.1333 24.7315C55.83 24.4282 55.4187 24.2578 54.9897 24.2578H32.3491C31.9202 24.2578 31.5089 24.4282 31.2056 24.7315C30.9023 25.0348 30.7319 25.4461 30.7319 25.875C30.7319 26.3039 30.9023 26.7152 31.2056 27.0185C31.5089 27.3218 31.9202 27.4922 32.3491 27.4922ZM32.3491 35.0391H54.9897C55.4187 35.0391 55.83 34.8687 56.1333 34.5654C56.4366 34.2621 56.6069 33.8508 56.6069 33.4219C56.6069 32.993 56.4366 32.5816 56.1333 32.2784C55.83 31.9751 55.4187 31.8047 54.9897 31.8047H32.3491C31.9202 31.8047 31.5089 31.9751 31.2056 32.2784C30.9023 32.5816 30.7319 32.993 30.7319 33.4219C30.7319 33.8508 30.9023 34.2621 31.2056 34.5654C31.5089 34.8687 31.9202 35.0391 32.3491 35.0391ZM21.5679 16.7109H14.021C13.5921 16.7109 13.1808 16.8813 12.8775 17.1846C12.5742 17.4879 12.4038 17.8992 12.4038 18.3281C12.4038 18.757 12.5742 19.1684 12.8775 19.4716C13.1808 19.7749 13.5921 19.9453 14.021 19.9453H21.5679C21.9968 19.9453 22.4081 19.7749 22.7114 19.4716C23.0147 19.1684 23.1851 18.757 23.1851 18.3281C23.1851 17.8992 23.0147 17.4879 22.7114 17.1846C22.4081 16.8813 21.9968 16.7109 21.5679 16.7109ZM21.5679 24.2578H14.021C13.5921 24.2578 13.1808 24.4282 12.8775 24.7315C12.5742 25.0348 12.4038 25.4461 12.4038 25.875C12.4038 26.3039 12.5742 26.7152 12.8775 27.0185C13.1808 27.3218 13.5921 27.4922 14.021 27.4922H21.5679C21.9968 27.4922 22.4081 27.3218 22.7114 27.0185C23.0147 26.7152 23.1851 26.3039 23.1851 25.875C23.1851 25.4461 23.0147 25.0348 22.7114 24.7315C22.4081 24.4282 21.9968 24.2578 21.5679 24.2578ZM21.5679 31.8047H14.021C13.5921 31.8047 13.1808 31.9751 12.8775 32.2784C12.5742 32.5816 12.4038 32.993 12.4038 33.4219C12.4038 33.8508 12.5742 34.2621 12.8775 34.5654C13.1808 34.8687 13.5921 35.0391 14.021 35.0391H21.5679C21.9968 35.0391 22.4081 34.8687 22.7114 34.5654C23.0147 34.2621 23.1851 33.8508 23.1851 33.4219C23.1851 32.993 23.0147 32.5816 22.7114 32.2784C22.4081 31.9751 21.9968 31.8047 21.5679 31.8047ZM28.5757 39.8906V10.7812C28.5757 10.3523 28.4053 9.94101 28.102 9.63773C27.7987 9.33444 27.3874 9.16406 26.9585 9.16406C26.5296 9.16406 26.1183 9.33444 25.815 9.63773C25.5117 9.94101 25.3413 10.3523 25.3413 10.7812V39.8906C25.3413 40.3195 25.5117 40.7309 25.815 41.0342C26.1183 41.3374 26.5296 41.5078 26.9585 41.5078C27.3874 41.5078 27.7987 41.3374 28.102 41.0342C28.4053 40.7309 28.5757 40.3195 28.5757 39.8906Z" fill="#999999"/>
<path fill-rule="evenodd" clip-rule="evenodd" d="M43.5 38C47.503 38.071 51.3176 39.6826 54.1229 42.4879C56.9282 45.2933 58.5 49.068 58.5 53C58.5 56.932 56.9282 60.7067 54.1229 63.5121C51.3176 66.3174 47.503 67.929 43.5 68C39.497 67.929 35.6824 66.3174 32.8771 63.5121C30.0718 60.7067 28.5 56.932 28.5 53C28.5 49.068 30.0718 45.2933 32.8771 42.4879C35.6824 39.6826 39.497 38.071 43.5 38ZM40.3281 57.8727L36.5876 54.1959C36.2815 53.8942 36.1096 53.4856 36.1096 53.0596C36.1096 52.6336 36.2815 52.225 36.5876 51.9233C36.8954 51.6229 37.3116 51.4543 37.7455 51.4543C38.1794 51.4543 38.5957 51.6229 38.9034 51.9233L41.5383 54.5143L48.0966 48.0735C48.4038 47.7728 48.8199 47.6039 49.2536 47.6039C49.6874 47.6039 50.1035 47.7728 50.4107 48.0735C50.7165 48.3754 50.8881 48.7839 50.8881 49.2098C50.8881 49.6356 50.7165 50.0442 50.4107 50.3461L42.6937 57.9249C42.5371 58.078 42.3505 58.1984 42.1453 58.2789C41.9402 58.3594 41.7205 58.3984 41.4996 58.3936C41.2787 58.3887 41.061 58.34 40.8597 58.2505C40.6584 58.161 40.4776 58.0325 40.3281 57.8727Z" fill="#45C331"/>
</svg>
