<svg width="13" height="13" viewBox="0 0 13 13" fill="none" xmlns="http://www.w3.org/2000/svg">
<g clip-path="url(#clip0_10732_486)">
<path d="M3.86532 3.14318C4.66219 2.50471 5.65322 2.15755 6.67432 2.15918C7.73682 2.15918 8.71332 2.52718 9.48332 3.14318L10.2098 2.41668L10.9168 3.12368L10.1903 3.85018C10.6389 4.41181 10.9465 5.07274 11.0872 5.77764C11.228 6.48254 11.1978 7.2109 10.9992 7.90175C10.8007 8.59259 10.4395 9.22581 9.94596 9.74841C9.45242 10.271 8.84087 10.6678 8.1625 10.9055C7.48413 11.1432 6.75869 11.215 6.0469 11.1147C5.3351 11.0145 4.65768 10.7452 4.07133 10.3294C3.48497 9.91366 3.00676 9.36345 2.67671 8.72489C2.34667 8.08633 2.17439 7.37799 2.17432 6.65918C2.17432 5.59668 2.54232 4.62018 3.15832 3.85018L2.43182 3.12418L3.13882 2.41718L3.86532 3.14318ZM6.67432 10.1592C7.13394 10.1592 7.58907 10.0687 8.01371 9.89276C8.43835 9.71687 8.82418 9.45906 9.14919 9.13405C9.4742 8.80905 9.732 8.42321 9.9079 7.99857C10.0838 7.57393 10.1743 7.11881 10.1743 6.65918C10.1743 6.19955 10.0838 5.74443 9.9079 5.31979C9.732 4.89515 9.4742 4.50931 9.14919 4.18431C8.82418 3.8593 8.43835 3.60149 8.01371 3.4256C7.58907 3.24971 7.13394 3.15918 6.67432 3.15918C5.74606 3.15918 4.85582 3.52793 4.19944 4.18431C3.54307 4.84068 3.17432 5.73092 3.17432 6.65918C3.17432 7.58744 3.54307 8.47768 4.19944 9.13405C4.85582 9.79043 5.74606 10.1592 6.67432 10.1592ZM7.17432 6.15918H8.67432L6.17432 9.40918V7.15918H4.67432L7.17432 3.90668V6.15918ZM4.67432 0.65918H8.67432V1.65918H4.67432V0.65918Z" fill="url(#paint0_linear_10732_486)"/>
</g>
<defs>
<linearGradient id="paint0_linear_10732_486" x1="10.1416" y1="3.05099" x2="3.46591" y2="9.89501" gradientUnits="userSpaceOnUse">
<stop stop-color="#B62929"/>
<stop offset="1" stop-color="#FD4E4E"/>
</linearGradient>
<clipPath id="clip0_10732_486">
<rect width="12" height="12" fill="white" transform="translate(0.674316 0.15918)"/>
</clipPath>
</defs>
</svg>
