<svg xmlns="http://www.w3.org/2000/svg" width="48" height="48" viewBox="0 0 48 48"><defs><style>.a{fill:#e10e4e;}</style></defs><path class="a" d="M354.891,252.781a5.391,5.391,0,1,1,5.391-5.391A5.4,5.4,0,0,1,354.891,252.781Z" transform="translate(-316.734 -219.313)"/><path class="a" d="M52.891,252.781a5.391,5.391,0,1,1,5.391-5.391A5.4,5.4,0,0,1,52.891,252.781Z" transform="translate(-43.047 -219.313)"/><path class="a" d="M161.156,3.75a4.636,4.636,0,0,1-4.169-2.577l-.2-.4A1.406,1.406,0,0,0,155.531,0h-7.5a1.406,1.406,0,0,0-1.258.777l-.2.4a4.636,4.636,0,0,1-4.169,2.577A1.406,1.406,0,0,0,141,5.156v8.025a14.561,14.561,0,0,0,10.377,13.947,1.405,1.405,0,0,0,.808,0,14.561,14.561,0,0,0,10.377-13.947V5.156a1.406,1.406,0,0,0-1.406-1.406Zm-4.4,8.186-5.3,5.3a1.406,1.406,0,0,1-1.989,0l-2.652-2.652A1.406,1.406,0,1,1,148.8,12.6l1.657,1.657,4.309-4.309a1.406,1.406,0,1,1,1.989,1.989Z" transform="translate(-127.781)"/><g transform="translate(0 33.915)"><path class="a" d="M337.032,361.766a8.188,8.188,0,0,1-11.508-.007,9.855,9.855,0,0,0-2.075,2.018l.773.677a10.784,10.784,0,0,1,3.685,8.109v3.281h11.813a1.406,1.406,0,0,0,1.406-1.406V369.75A9.837,9.837,0,0,0,337.032,361.766Z" transform="translate(-293.125 -361.759)"/><path class="a" d="M4.093,361.766A9.837,9.837,0,0,0,0,369.75v4.688a1.406,1.406,0,0,0,1.406,1.406H13.219v-3.281a10.784,10.784,0,0,1,3.685-8.109l.773-.677a9.854,9.854,0,0,0-2.075-2.018,8.188,8.188,0,0,1-11.508.007Z" transform="translate(0 -361.759)"/><path class="a" d="M184.212,413.07a7.248,7.248,0,0,1-10.486,0A7.95,7.95,0,0,0,171,419.063v3.281h15.938v-3.281A7.95,7.95,0,0,0,184.212,413.07Z" transform="translate(-154.969 -408.26)"/></g><path class="a" d="M212.953,320.906a4.453,4.453,0,1,1,4.453-4.453A4.458,4.458,0,0,1,212.953,320.906Z" transform="translate(-188.953 -282.75)"/></svg>