<svg xmlns="http://www.w3.org/2000/svg" xmlns:xlink="http://www.w3.org/1999/xlink" width="274" height="171" viewBox="0 0 274 171">
  <defs>
    <clipPath id="clip-path">
      <rect id="Rectangle_17414" data-name="Rectangle 17414" width="274" height="171" fill="#fff"/>
    </clipPath>
    <clipPath id="clip-Final_design_1">
      <rect width="274" height="171"/>
    </clipPath>
  </defs>
  <g id="Final_design_1" data-name="Final design – 1" clip-path="url(#clip-Final_design_1)">
    <rect width="274" height="171" fill="#fff"/>
    <g id="Mask_Group_247" data-name="Mask Group 247" clip-path="url(#clip-path)">
      <rect id="Rectangle_17415" data-name="Rectangle 17415" width="274" height="171" fill="#fff"/>
      <g id="Group_22203" data-name="Group 22203" transform="translate(0 4)">
        <path id="Path_6004" data-name="Path 6004" d="M1.437,104.219c-7.793,41.154,17.054,80.905,51.4,101.531,38.851,23.327,72.33,32.778,80.429,78.378,2.618,14.743,6.931,35.552,13.706,49.018,24.9,49.5,82.718,34.79,126.128,33.748,40.753-.978,67.3,22.151,108.362,55.471.258.21,86.108,109.466,125.538,1.115,7.306-20.081,9.058-36.551,12.187-47.56,12.308-43.311,51.832-41.839,111.692-67.332,75.76-32.264,100.21-120.556,18.955-150.1-31.229-11.355-58.244-12.966-88.2-27.655-61.2-30.017-54.966-91.645-108.084-118.219C434.536.785,405.939-1.921,386.483,1.192c-74.908,11.988-104.035,41.6-158.2,25.37-18.406-5.516-41.339-16.046-68.748-20.3C88.923-4.706,13.7,39.484,1.437,104.219" transform="matrix(0.438, -0.899, 0.899, 0.438, -269.349, 151.354)" fill="#f8f9fe"/>
        <g id="Group_22194" data-name="Group 22194" transform="matrix(0.966, -0.259, 0.259, 0.966, -258.034, -4.676)">
          <g id="Group_22195" data-name="Group 22195" transform="translate(0.101 0.102)">
            <path id="Path_5957" data-name="Path 5957" d="M.083,165.006S7.517-38.2,121.63,66.717s72.965-84.2,141.421-1.617S373.5-47.086,539.062,11.138" transform="translate(-0.083 -0.084)" fill="none" stroke="#5739bc" stroke-miterlimit="10" stroke-width="0.167"/>
            <path id="Path_5958" data-name="Path 5958" d="M.164,166.519S8.8-34.247,122.338,69.933s74.218-84.925,143.736-3.045S377.207-45.778,539.168,11.179" transform="translate(-0.088 -0.111)" fill="none" stroke="#5739bc" stroke-miterlimit="10" stroke-width="0.166"/>
            <path id="Path_5959" data-name="Path 5959" d="M.244,168.031S10.09-30.3,123.045,73.148,198.518-12.5,269.1,68.676,380.911-44.471,539.273,11.221" transform="translate(-0.092 -0.138)" fill="none" stroke="#5739bc" stroke-miterlimit="10" stroke-width="0.166"/>
            <path id="Path_5960" data-name="Path 5960" d="M.324,169.544S11.377-26.345,123.753,76.364s76.726-86.372,148.369-5.9,112.493-113.627,267.256-59.2" transform="translate(-0.097 -0.164)" fill="none" stroke="#5739bc" stroke-miterlimit="10" stroke-width="0.165"/>
            <path id="Path_5961" data-name="Path 5961" d="M.405,171.055S12.663-22.4,124.461,79.578s77.981-87.1,150.686-7.329S388.32-41.859,539.485,11.3" transform="translate(-0.102 -0.19)" fill="none" stroke="#5739bc" stroke-miterlimit="10" stroke-width="0.164"/>
            <path id="Path_5962" data-name="Path 5962" d="M.485,172.566S13.949-18.446,125.167,82.792s79.235-87.819,153-8.757S392.025-40.552,539.589,11.342" transform="translate(-0.106 -0.216)" fill="none" stroke="#5739bc" stroke-miterlimit="10" stroke-width="0.164"/>
            <path id="Path_5963" data-name="Path 5963" d="M.565,174.077S15.236-14.5,125.875,86.006,206.363-2.537,281.193,75.821s114.535-115.068,258.5-64.439" transform="translate(-0.111 -0.241)" fill="none" stroke="#5739bc" stroke-miterlimit="10" stroke-width="0.163"/>
            <path id="Path_5964" data-name="Path 5964" d="M.646,175.587S16.522-10.548,126.582,89.218,208.324-.048,284.217,77.605,399.433-37.942,539.8,11.421" transform="translate(-0.115 -0.265)" fill="none" stroke="#5739bc" stroke-miterlimit="10" stroke-width="0.163"/>
            <path id="Path_5965" data-name="Path 5965" d="M.726,177.1S17.809-6.6,127.29,92.431s83-89.989,159.951-13.04,115.9-116.029,252.664-67.932" transform="translate(-0.12 -0.289)" fill="none" stroke="#5739bc" stroke-miterlimit="10" stroke-width="0.162"/>
            <path id="Path_5966" data-name="Path 5966" d="M.806,178.606S19.095-2.652,128,95.644s84.25-90.713,162.269-14.469S406.842-35.334,540.011,11.5" transform="translate(-0.125 -0.313)" fill="none" stroke="#5739bc" stroke-miterlimit="10" stroke-width="0.161"/>
            <path id="Path_5967" data-name="Path 5967" d="M.886,180.114S20.381,1.3,128.7,98.855s85.5-91.436,164.584-15.9S410.547-34.03,540.115,11.536" transform="translate(-0.129 -0.336)" fill="none" stroke="#5739bc" stroke-miterlimit="10" stroke-width="0.161"/>
            <path id="Path_5968" data-name="Path 5968" d="M.967,181.623s20.7-176.381,128.445-79.557,86.758-92.158,166.9-17.325S414.251-32.726,540.222,11.574" transform="translate(-0.134 -0.359)" fill="none" stroke="#5739bc" stroke-miterlimit="10" stroke-width="0.16"/>
            <path id="Path_5969" data-name="Path 5969" d="M1.047,183.131S22.955,9.189,130.119,105.276,218.132,12.4,299.337,86.524,417.956-31.424,540.327,11.61" transform="translate(-0.139 -0.381)" fill="none" stroke="#5739bc" stroke-miterlimit="10" stroke-width="0.16"/>
            <path id="Path_5970" data-name="Path 5970" d="M1.127,184.638s23.114-171.5,129.7-76.151,89.265-93.6,171.534-20.18,119.3-118.429,238.072-76.66" transform="translate(-0.143 -0.403)" fill="none" stroke="#5739bc" stroke-miterlimit="10" stroke-width="0.159"/>
            <path id="Path_5971" data-name="Path 5971" d="M1.208,186.145S25.527,17.081,131.534,111.7s90.52-94.329,173.851-21.609S425.365-28.82,540.538,11.683" transform="translate(-0.148 -0.424)" fill="none" stroke="#5739bc" stroke-miterlimit="10" stroke-width="0.158"/>
            <path id="Path_5972" data-name="Path 5972" d="M1.288,187.651S26.813,21.025,132.242,114.906s91.773-95.052,176.167-23.037S429.07-27.519,540.643,11.718" transform="translate(-0.152 -0.445)" fill="none" stroke="#5739bc" stroke-miterlimit="10" stroke-width="0.158"/>
            <path id="Path_5973" data-name="Path 5973" d="M1.368,189.157S28.1,24.969,132.949,118.114,225.976,22.339,311.432,93.65s121.342-119.869,229.316-81.9" transform="translate(-0.157 -0.465)" fill="none" stroke="#5739bc" stroke-miterlimit="10" stroke-width="0.157"/>
            <path id="Path_5974" data-name="Path 5974" d="M1.449,190.663s27.938-161.75,132.207-69.34,94.281-96.5,180.8-25.892,122.022-120.35,226.4-83.644" transform="translate(-0.162 -0.485)" fill="none" stroke="#5739bc" stroke-miterlimit="10" stroke-width="0.156"/>
            <path id="Path_5975" data-name="Path 5975" d="M1.529,192.167S30.673,32.857,134.364,124.531,229.9,27.309,317.48,97.21s122.7-120.83,223.479-85.389" transform="translate(-0.166 -0.504)" fill="none" stroke="#5739bc" stroke-miterlimit="10" stroke-width="0.156"/>
            <path id="Path_5976" data-name="Path 5976" d="M1.609,193.671S31.959,36.8,135.071,127.738,231.86,29.793,320.5,98.989,443.888-22.319,541.065,11.854" transform="translate(-0.171 -0.523)" fill="none" stroke="#5739bc" stroke-miterlimit="10" stroke-width="0.155"/>
            <path id="Path_5977" data-name="Path 5977" d="M1.689,195.176S33.246,40.742,135.778,130.945s98.044-98.669,187.749-30.176S447.591-21.021,541.169,11.887" transform="translate(-0.175 -0.541)" fill="none" stroke="#5739bc" stroke-miterlimit="10" stroke-width="0.155"/>
            <path id="Path_5978" data-name="Path 5978" d="M1.77,196.679S34.532,44.684,136.486,134.151s99.3-99.392,190.065-31.6S451.3-19.724,541.276,11.92" transform="translate(-0.18 -0.559)" fill="none" stroke="#5739bc" stroke-miterlimit="10" stroke-width="0.154"/>
            <path id="Path_5979" data-name="Path 5979" d="M1.85,198.182S35.819,48.626,137.194,137.357,237.744,37.242,329.576,104.324,455-18.426,541.381,11.952" transform="translate(-0.185 -0.576)" fill="none" stroke="#5739bc" stroke-miterlimit="10" stroke-width="0.153"/>
            <path id="Path_5980" data-name="Path 5980" d="M1.93,199.684S37.1,52.566,137.9,140.562,239.706,39.723,332.6,106.1,458.705-17.129,541.485,11.983" transform="translate(-0.189 -0.593)" fill="none" stroke="#5739bc" stroke-miterlimit="10" stroke-width="0.153"/>
            <path id="Path_5981" data-name="Path 5981" d="M2.011,201.185s36.38-144.679,136.6-57.42S241.668,42.2,335.624,107.878,462.411-15.833,541.592,12.013" transform="translate(-0.194 -0.609)" fill="none" stroke="#5739bc" stroke-miterlimit="10" stroke-width="0.152"/>
            <path id="Path_5982" data-name="Path 5982" d="M2.091,202.687S39.678,60.446,139.316,146.97,243.629,44.685,338.647,109.655,466.114-14.537,541.7,12.043" transform="translate(-0.199 -0.624)" fill="none" stroke="#5739bc" stroke-miterlimit="10" stroke-width="0.152"/>
            <path id="Path_5983" data-name="Path 5983" d="M2.171,204.187s38.793-139.8,137.852-54.014S245.589,47.164,341.671,111.429,469.819-13.242,541.8,12.072" transform="translate(-0.203 -0.639)" fill="none" stroke="#5739bc" stroke-miterlimit="10" stroke-width="0.151"/>
            <path id="Path_5984" data-name="Path 5984" d="M2.252,205.686s40-137.363,138.479-52.311S247.551,49.644,344.7,113.2,473.524-11.947,541.908,12.1" transform="translate(-0.208 -0.653)" fill="none" stroke="#5739bc" stroke-miterlimit="10" stroke-width="0.15"/>
            <path id="Path_5985" data-name="Path 5985" d="M2.332,207.186s41.2-134.925,139.106-50.608,108.074-104.455,206.281-41.6S477.228-10.652,542.013,12.131" transform="translate(-0.212 -0.667)" fill="none" stroke="#5739bc" stroke-miterlimit="10" stroke-width="0.15"/>
            <path id="Path_5986" data-name="Path 5986" d="M2.412,208.684S44.823,76.2,142.146,159.779,251.473,54.6,350.743,116.752,480.933-9.36,542.118,12.158" transform="translate(-0.217 -0.68)" fill="none" stroke="#5739bc" stroke-miterlimit="10" stroke-width="0.149"/>
            <path id="Path_5987" data-name="Path 5987" d="M2.493,210.183s43.616-130.048,140.359-47.2,110.582-105.9,210.914-44.456S484.637-8.066,542.223,12.185" transform="translate(-0.222 -0.692)" fill="none" stroke="#5739bc" stroke-miterlimit="10" stroke-width="0.149"/>
            <path id="Path_5988" data-name="Path 5988" d="M2.573,211.68S47.4,84.071,143.56,166.181,255.4,59.557,356.791,120.3,488.342-6.775,542.329,12.211" transform="translate(-0.226 -0.704)" fill="none" stroke="#5739bc" stroke-miterlimit="10" stroke-width="0.148"/>
            <path id="Path_5989" data-name="Path 5989" d="M2.653,213.177s46.03-125.17,141.615-43.8,113.09-107.348,215.547-47.311S492.046-5.483,542.435,12.237" transform="translate(-0.231 -0.715)" fill="none" stroke="#5739bc" stroke-miterlimit="10" stroke-width="0.147"/>
            <path id="Path_5990" data-name="Path 5990" d="M2.734,214.673S49.968,91.941,144.974,172.58,259.318,64.508,362.838,123.841,495.751-4.191,542.539,12.263" transform="translate(-0.236 -0.726)" fill="none" stroke="#5739bc" stroke-miterlimit="10" stroke-width="0.147"/>
            <path id="Path_5991" data-name="Path 5991" d="M2.814,216.169s48.441-120.293,142.869-40.39,115.6-108.795,220.18-50.168S499.456-2.9,542.646,12.287" transform="translate(-0.24 -0.736)" fill="none" stroke="#5739bc" stroke-miterlimit="10" stroke-width="0.146"/>
            <path id="Path_5992" data-name="Path 5992" d="M2.894,217.663s49.648-117.854,143.5-38.687,116.852-109.518,222.5-51.6S503.16-1.612,542.75,12.312" transform="translate(-0.245 -0.745)" fill="none" stroke="#5739bc" stroke-miterlimit="10" stroke-width="0.146"/>
            <path id="Path_5993" data-name="Path 5993" d="M2.974,219.158S53.828,103.741,147.1,182.173,265.2,71.932,371.91,129.15,506.865-.323,542.856,12.334" transform="translate(-0.249 -0.754)" fill="none" stroke="#5739bc" stroke-miterlimit="10" stroke-width="0.145"/>
            <path id="Path_5994" data-name="Path 5994" d="M3.055,220.651s52.059-112.978,144.75-35.282S267.165,74.4,374.934,130.918,510.569.965,542.962,12.356" transform="translate(-0.254 -0.762)" fill="none" stroke="#5739bc" stroke-miterlimit="10" stroke-width="0.144"/>
            <path id="Path_5995" data-name="Path 5995" d="M3.135,222.144S56.4,111.605,148.512,188.565,269.126,76.878,377.958,132.686,514.274,2.253,543.067,12.379" transform="translate(-0.259 -0.769)" fill="none" stroke="#5739bc" stroke-miterlimit="10" stroke-width="0.144"/>
            <path id="Path_5996" data-name="Path 5996" d="M3.215,223.636s54.472-108.1,146-31.876S271.086,79.349,380.981,134.453,517.978,3.54,543.172,12.4" transform="translate(-0.263 -0.775)" fill="none" stroke="#5739bc" stroke-miterlimit="10" stroke-width="0.143"/>
            <path id="Path_5997" data-name="Path 5997" d="M3.3,225.127s55.678-105.662,146.631-30.173S273.048,81.819,384.006,136.219,521.683,4.825,543.278,12.42" transform="translate(-0.268 -0.781)" fill="none" stroke="#5739bc" stroke-miterlimit="10" stroke-width="0.143"/>
            <path id="Path_5998" data-name="Path 5998" d="M3.376,226.619s56.885-103.224,147.259-28.471S275.009,84.29,387.03,137.985,525.387,6.111,543.383,12.44" transform="translate(-0.273 -0.786)" fill="none" stroke="#5739bc" stroke-miterlimit="10" stroke-width="0.142"/>
            <path id="Path_5999" data-name="Path 5999" d="M3.456,228.108s58.09-100.785,147.886-26.768S276.97,86.759,390.053,139.75,529.091,7.4,543.488,12.459" transform="translate(-0.277 -0.791)" fill="none" stroke="#5739bc" stroke-miterlimit="10" stroke-width="0.141"/>
            <path id="Path_6002" data-name="Path 6002" d="M3.7,232.573S65.406,139.1,153.464,210.915,282.854,94.164,399.124,145.039,540.2,11.245,543.8,12.511" transform="translate(-0.291 -0.799)" fill="none" stroke="#5739bc" stroke-miterlimit="10" stroke-width="0.139"/>
          </g>
        </g>
      </g>
    </g>
  </g>
</svg>
