<svg xmlns="http://www.w3.org/2000/svg" width="60.007" height="38.101" viewBox="0 0 60.007 38.101"><defs><style>.a{opacity:0.5;}.b{fill:#bebebe;}</style></defs><g class="a" transform="translate(0 0)"><path class="b" d="M51.9,109.015a6.851,6.851,0,1,0-7.86,0,11.87,11.87,0,0,0-4.049,2.375,15.36,15.36,0,0,0-5.557-3.028,8.679,8.679,0,1,0-8.976,0,15.488,15.488,0,0,0-5.5,2.992,11.966,11.966,0,0,0-4-2.327,6.851,6.851,0,1,0-7.86,0A12.025,12.025,0,0,0,0,120.389v.784a.051.051,0,0,0,.047.047H14.568a15.97,15.97,0,0,0-.131,2.007v.807a6.314,6.314,0,0,0,6.316,6.316h18.4a6.314,6.314,0,0,0,6.316-6.316v-.807a15.969,15.969,0,0,0-.131-2.007H59.959a.051.051,0,0,0,.047-.047v-.784A12.071,12.071,0,0,0,51.9,109.015ZM43.016,103.4a4.951,4.951,0,1,1,5.046,4.951h-.19A4.944,4.944,0,0,1,43.016,103.4Zm-19.876-2.47a6.78,6.78,0,1,1,7.171,6.768h-.784A6.789,6.789,0,0,1,23.141,100.929Zm-16.1,2.47a4.951,4.951,0,1,1,5.046,4.951H11.9A4.952,4.952,0,0,1,7.041,103.4Zm7.86,15.91H1.923a10.145,10.145,0,0,1,10-9.059h.142a10.039,10.039,0,0,1,6.471,2.41A15.589,15.589,0,0,0,14.9,119.309Zm28.65,4.725a4.424,4.424,0,0,1-4.417,4.417H20.73a4.424,4.424,0,0,1-4.417-4.417v-.807a13.639,13.639,0,0,1,13.215-13.618c.131.012.273.012.4.012s.273,0,.4-.012A13.639,13.639,0,0,1,43.55,123.227Zm1.413-4.725a15.548,15.548,0,0,0-3.6-6.6,10.088,10.088,0,0,1,6.53-2.458h.142a10.145,10.145,0,0,1,10,9.059Z" transform="translate(0 -92.25)"/></g></svg>