<svg xmlns="http://www.w3.org/2000/svg" width="59.385" height="45.705" viewBox="0 0 59.385 45.705">
  <g id="Trades" transform="translate(-0.652 -6.904)">
    <g id="Group_2567" data-name="Group 2567" transform="translate(0.904 7.182)">
      <path id="Path_6626" data-name="Path 6626" d="M56.4,19.861H3.461a2.436,2.436,0,0,0-1.635,4.251L21.262,37.122a2.461,2.461,0,0,0,4.088-1.8V27.911H56.4a2.515,2.515,0,0,0,2.453-2.453V22.314A2.408,2.408,0,0,0,56.4,19.861" transform="translate(0.011 7.436)" fill="#593cc7" stroke="#593cc7" stroke-width="0.5"/>
      <path id="Path_6627" data-name="Path 6627" d="M2.469,20.851H56.405A2.436,2.436,0,0,0,58.04,16.6L38.441,3.59a2.461,2.461,0,0,0-4.088,1.8V12.8H2.469A2.515,2.515,0,0,0,.016,15.254V18.4a2.237,2.237,0,0,0,2.453,2.453" transform="translate(0 -3)" fill="#593cc7" stroke="#593cc7" stroke-width="0.5"/>
    </g>
  </g>
</svg>
