<svg xmlns="http://www.w3.org/2000/svg" width="48.819" height="48.819" viewBox="0 0 48.819 48.819"><defs><style>.a{opacity:0.5;}.b{fill:#bebebe;}</style></defs><g class="a"><path class="b" d="M2.052,27.128A14.182,14.182,0,0,1,7.247,25.84c1.845,0,4.027,1.764,4.71,2.442l1.009,1.005,1.011-1c.685-.68,2.866-2.444,4.712-2.444,1.559,0,3.358,1.259,4.291,2.059v16.63a4.291,4.291,0,1,0,8.581,0v-2.86H28.7v2.86a1.43,1.43,0,0,1-2.86,0V27.9c.934-.8,2.732-2.059,4.291-2.059,1.845,0,4.027,1.764,4.71,2.442l1.009,1.005,1.011-1c.685-.68,2.866-2.444,4.712-2.444a14.179,14.179,0,0,1,5.195,1.288l2.052.993V25.84c0-12.9-10.14-22.289-22.979-22.941V0h-2.86V2.9C10.136,3.551,0,12.947,0,25.84l0,2.273ZM14.51,24.3c.44-5.9,3.058-16.334,8.47-18.31V24.363a8.478,8.478,0,0,0-4.291-1.384A8.38,8.38,0,0,0,14.51,24.3Zm11.33.068V5.986c5.435,1.985,8.031,12.42,8.47,18.31a8.38,8.38,0,0,0-4.179-1.317A8.479,8.479,0,0,0,25.84,24.363Zm20.011-.645a14.6,14.6,0,0,0-4.279-.739,8.564,8.564,0,0,0-4.387,1.444c-.394-5.883-2.171-13.146-5.909-17.736C39.307,9.043,45.009,15.508,45.851,23.718ZM17.543,6.686c-3.738,4.59-5.515,11.853-5.909,17.736a8.564,8.564,0,0,0-4.387-1.444,14.6,14.6,0,0,0-4.278.739C3.809,15.508,9.512,9.043,17.543,6.686Z" transform="translate(0 0)"/></g></svg>