<svg xmlns="http://www.w3.org/2000/svg" width="29.031" height="29" viewBox="0 0 29.031 29">
  <path id="Path_4042" data-name="Path 4042" d="M28.775,27.3l-5.9-5.85a12.975,12.975,0,0,0-.7-17.65A12.788,12.788,0,0,0,13.025,0a13,13,0,1,0,0,26,12.856,12.856,0,0,0,8.45-3.15l5.9,5.9a.951.951,0,0,0,.65.25.987.987,0,0,0,.7-.3,1.011,1.011,0,0,0,.05-1.4M5.225,20.75A10.769,10.769,0,0,1,2.025,13a11.181,11.181,0,0,1,3.2-7.8,10.883,10.883,0,0,1,7.8-3.2,11.031,11.031,0,0,1,7.8,18.8,11.181,11.181,0,0,1-7.8,3.2,11.017,11.017,0,0,1-7.8-3.25" fill="#7564dd"/>
</svg>
