<svg xmlns="http://www.w3.org/2000/svg" width="44.262" height="40.56" viewBox="0 0 44.262 40.56">
  <path id="Color_Overlay" data-name="Color Overlay" d="M116.375,405.961,99.4,389.041l0,0a3.376,3.376,0,0,1,0-4.785l16.973-16.92a3.359,3.359,0,0,1,.347-.291,3.4,3.4,0,0,1,4.745.731,3.5,3.5,0,0,1-.492,4.484l-9.386,9.356a6.792,6.792,0,0,1-1.918,1.354l-.73.338h30.289a3.391,3.391,0,0,1,3.394,3.926,3.511,3.511,0,0,1-3.581,2.842H108.889l1.019.457a6.806,6.806,0,0,1,1.7,1.235l9.369,9.374a3.5,3.5,0,0,1,.492,4.484,3.292,3.292,0,0,1-.292.331,3.4,3.4,0,0,1-4.8.007Z" transform="translate(-98.406 -366.389)" fill="#373737"/>
</svg>
