<svg xmlns="http://www.w3.org/2000/svg" width="24.84" height="21.647" viewBox="0 0 24.84 21.647"><defs><style>.a{fill:#faaa38;}</style></defs><g transform="translate(0 -32.89)"><circle class="a" cx="4.14" cy="4.14" r="4.14" transform="translate(8.317 32.89)"/><ellipse class="a" cx="2.446" cy="2.635" rx="2.446" ry="2.635" transform="translate(18.411 35.901)"/><circle class="a" cx="2.635" cy="2.635" r="2.635" transform="translate(1.235 35.901)"/><path class="a" d="M6.546,241.284c-1.056-.865-2.013-.751-3.234-.751A3.306,3.306,0,0,0,0,243.826v5.328a1.433,1.433,0,0,0,1.435,1.429c3.416,0,3,.062,3-.147C4.439,246.66,3.992,243.892,6.546,241.284Z" transform="translate(0 -197.643)"/><path class="a" d="M127.891,239.908c-2.111-.178-3.946,0-5.528,1.322-2.648,2.144-2.139,5.03-2.139,8.56a1.7,1.7,0,0,0,1.691,1.708c10.191,0,10.6.332,11.2-1.02.2-.457.144-.312.144-4.687A5.887,5.887,0,0,0,127.891,239.908Z" transform="translate(-114.322 -196.998)"/><path class="a" d="M381.044,240.535c-1.228,0-2.179-.113-3.234.751,2.535,2.588,2.107,5.168,2.107,9.151,0,.21-.342.147,2.953.147a1.485,1.485,0,0,0,1.486-1.48v-5.277A3.306,3.306,0,0,0,381.044,240.535Z" transform="translate(-359.516 -197.644)"/></g></svg>