<svg width="22" height="23" viewBox="0 0 22 23" fill="none" xmlns="http://www.w3.org/2000/svg">
<path d="M13.02 2.01001C12.18 1.37001 11.14 1 10 1C7.24 1 5 3.24 5 6C5 8.76 7.24 11 10 11C12.76 11 15 8.76 15 6" stroke="#F37921" stroke-width="2" stroke-linecap="round" stroke-linejoin="round"/>
<path d="M1.40997 21C1.40997 17.13 5.26 14 10 14" stroke="#F37921" stroke-width="2" stroke-linecap="round" stroke-linejoin="round"/>
<path d="M16.2 20.4C17.9673 20.4 19.4 18.9673 19.4 17.2C19.4 15.4327 17.9673 14 16.2 14C14.4327 14 13 15.4327 13 17.2C13 18.9673 14.4327 20.4 16.2 20.4Z" stroke="#F37921" stroke-width="2" stroke-linecap="round" stroke-linejoin="round"/>
<path d="M20.9079 21.7873L19 20" stroke="#F37921" stroke-width="2" stroke-linecap="round" stroke-linejoin="round"/>
</svg>
