<svg width="40" height="40" viewBox="0 0 40 40" fill="none" xmlns="http://www.w3.org/2000/svg">
<path d="M19.9237 21.1124C17.436 21.1124 15.439 19.2205 14.9136 16.2422C14.8434 15.9619 14.3881 13.4744 14.3881 12.8785C14.318 11.5121 14.7735 10.1107 15.7546 9.05953C16.7356 7.93822 18.3122 7.27271 19.8888 7.27271C21.4654 7.27271 22.9721 7.93847 24.0231 9.05953C25.0041 10.1107 25.5295 11.4772 25.4596 12.8785C25.4596 13.4741 25.0041 15.7866 24.9342 16.2422C24.3034 19.2904 22.4113 21.1124 19.9237 21.1124ZM19.9237 8.63915C18.6624 8.63915 17.5413 9.16461 16.7003 10.0056C15.9644 10.8114 15.579 11.7924 15.6492 12.8435C15.6492 13.229 15.9644 15.0158 16.1746 15.9968C16.4899 17.7836 17.6811 19.8157 19.9237 19.8157C22.1661 19.8157 23.2874 17.8537 23.6728 15.9968C23.883 14.9456 24.1983 13.1588 24.1983 12.8435C24.2684 11.7924 23.883 10.7412 23.0769 9.93546C22.2712 9.09451 21.0797 8.63915 19.9237 8.63915Z" fill="#4164B5"/>
<path d="M30.6451 33.6206H9.16736L9.62292 28.1548C9.90324 25.9125 12.0405 24.546 14.0375 24.1956L19.9236 23.1444L25.845 24.1956C28.5429 24.6511 30.1896 26.2277 30.3297 28.4L30.6451 33.6206ZM10.6039 32.3243H29.2436L29.0681 28.5053C28.9281 26.333 26.6505 25.6673 25.7044 25.5622L19.9933 24.511L14.2473 25.5622C12.8107 25.8425 11.1639 26.8937 10.9537 28.4002L10.6039 32.3243Z" fill="#4164B5"/>
<path d="M31.2407 24.1605C29.1384 24.1605 27.5618 22.5839 27.1065 20.2013C27.0363 19.886 26.7211 18.029 26.6509 17.5735C26.5808 16.4522 26.9662 15.3311 27.7722 14.4902C28.6132 13.5793 29.9445 13.0536 31.2058 13.0536C32.5373 13.0536 33.7635 13.579 34.6394 14.4902C35.4452 15.3311 35.9007 16.4522 35.8306 17.5735C35.8306 18.0291 35.4452 19.886 35.375 20.2714C34.9197 22.6541 33.2729 24.1605 31.2407 24.1605ZM31.2407 14.3151C30.3298 14.3151 29.3838 14.7005 28.753 15.3663C28.2275 15.9619 27.912 16.6978 27.9472 17.4686C27.9472 17.749 28.2275 19.1154 28.3326 19.9564C28.6129 21.3228 29.4539 22.8645 31.1705 22.8645C33.2729 22.8645 33.8685 20.6221 34.0085 19.9564C34.2187 19.1154 34.3939 17.714 34.3939 17.4686C34.4641 16.6628 34.1136 15.892 33.5881 15.3663C33.0627 14.7005 32.1515 14.3151 31.2406 14.3151H31.2407Z" fill="#4164B5"/>
<path d="M8.75927 24.1605C10.8616 24.1605 12.4382 22.5839 12.8935 20.2013C12.9637 19.886 13.2789 18.029 13.3491 17.5735C13.4192 16.4522 13.0338 15.3311 12.2278 14.4902C11.3868 13.5793 10.0555 13.0536 8.79419 13.0536C7.46272 13.0536 6.23655 13.579 5.36062 14.4902C4.55483 15.3311 4.09928 16.4522 4.16942 17.5735C4.16942 18.0291 4.55484 19.886 4.62498 20.2714C5.08029 22.6541 6.72712 24.1605 8.75927 24.1605ZM8.75927 14.3151C9.67017 14.3151 10.6162 14.7005 11.247 15.3663C11.7725 15.9619 12.088 16.6978 12.0528 17.4686C12.0528 17.749 11.7725 19.1154 11.6674 19.9564C11.3871 21.3228 10.5461 22.8645 8.82945 22.8645C6.7271 22.8645 6.13154 20.6221 5.99151 19.9564C5.78133 19.1154 5.60609 17.714 5.60609 17.4686C5.53595 16.6628 5.88642 15.892 6.41188 15.3663C6.93734 14.7005 7.84847 14.3151 8.75937 14.3151H8.75927Z" fill="#4164B5"/>
<path d="M40 33.6206H32.1167V32.2891H38.5985L38.3883 29.4511C38.2483 27.8044 36.5314 27.3488 35.7605 27.2088L31.4159 26.8935L30.9603 25.4569L35.9705 25.9125C38.2129 26.2979 39.5793 27.6293 39.7196 29.3812L40 33.6206Z" fill="#4164B5"/>
<path d="M-1.21102e-05 33.6206H7.88333V32.2891H1.40147L1.61166 29.4511C1.7517 27.8044 3.46862 27.3488 4.23944 27.2088L8.5841 26.8935L9.03966 25.4569L4.02948 25.9125C1.7871 26.2979 0.420656 27.6293 0.280383 29.3812L-1.21102e-05 33.6206Z" fill="#4164B5"/>
</svg>
