<svg xmlns="http://www.w3.org/2000/svg" width="37" height="37" viewBox="0 0 37 37">
  <g id="Group_8773" data-name="Group 8773" transform="translate(2337 -824)">
    <rect id="Rectangle_17537" data-name="Rectangle 17537" width="37" height="37" transform="translate(-2337 824)" fill="#fff"/>
    <g id="Group_8753" data-name="Group 8753" transform="translate(-2334.122 826.878)">
      <path id="Path_6786" data-name="Path 6786" d="M414.363,192.01h.724c.02.018.037.049.06.053a1.83,1.83,0,0,1,1.486,1.321,3.11,3.11,0,0,1,.083,1.014c0,.239-.077.55.042.7s.45.044.687.048a2.558,2.558,0,0,1,2.388,1.7c.048.136.032.294.139.41v23.569c-.02.02-.05.035-.058.059a2.545,2.545,0,0,1-2.775,1.991H391.85a2.547,2.547,0,0,1-2.747-2.736V206.515q0-4.4,0-8.8a2.517,2.517,0,0,1,2.128-2.536,4.741,4.741,0,0,1,.931-.032c.162,0,.2-.047.2-.2-.011-.341-.008-.683,0-1.024a1.923,1.923,0,0,1,1.447-1.85c.045-.012.1,0,.119-.062h.664c.02.018.037.05.059.054a1.886,1.886,0,0,1,1.563,1.833q.014.512,0,1.025c0,.156.016.227.2.227q3-.01,6,0c.185,0,.212-.066.206-.225-.011-.321-.007-.643,0-.964a1.936,1.936,0,0,1,1.3-1.843c.068-.025.167-.009.2-.106h.723c.011.015.018.042.032.045a1.882,1.882,0,0,1,1.6,1.948c0,.311.006.622,0,.933,0,.141.012.213.188.213q3.008-.01,6.016,0c.169,0,.2-.059.193-.206-.008-.34-.008-.682,0-1.022a1.932,1.932,0,0,1,1.274-1.8C414.214,192.095,414.319,192.11,414.363,192.01Zm-9.852,27.246H417.26a1.348,1.348,0,0,0,1.5-1.5q0-6.931.006-13.863c0-.243-.047-.313-.3-.312q-5.485.015-10.971.006a2.811,2.811,0,0,1-.3,0,.6.6,0,0,1,0-1.2,2.814,2.814,0,0,1,.3-.005h8.59c.824,0,1.648,0,2.472,0,.136,0,.214-.005.213-.186-.009-1.527,0-3.054-.01-4.58a1.3,1.3,0,0,0-.962-1.21,4.286,4.286,0,0,0-.959-.053c-.149-.009-.122.093-.122.18,0,.291.007.583,0,.874a1.922,1.922,0,0,1-3.8.3,6.111,6.111,0,0,1-.044-1.171c0-.136-.026-.191-.179-.191q-3.014.009-6.028,0c-.172,0-.2.066-.191.211.009.271.007.543,0,.814a1.922,1.922,0,0,1-3.809.31,5.843,5.843,0,0,1-.039-1.111c0-.16-.027-.224-.209-.224q-3,.01-6,0c-.155,0-.209.037-.2.2a7.361,7.361,0,0,1,0,.843,1.861,1.861,0,0,1-1.217,1.714,1.832,1.832,0,0,1-2.036-.4,2.123,2.123,0,0,1-.6-1.761c.02-.593,0-.594-.579-.593a1.34,1.34,0,0,0-1.466,1.481c0,1.417.008,2.833-.008,4.249,0,.259.071.3.313.3q5.471-.012,10.941-.006c.1,0,.2-.005.3,0a.6.6,0,0,1,.014,1.2,2.988,2.988,0,0,1-.3,0q-5.47,0-10.941-.006c-.256,0-.328.049-.327.319q.015,6.916.007,13.832a1.357,1.357,0,0,0,1.543,1.526Zm14.241.836a3.587,3.587,0,0,1-2.073.371q-12.188,0-24.375,0a3.371,3.371,0,0,1-1.982-.376,1.35,1.35,0,0,0,1.455,1.58H417.3A1.348,1.348,0,0,0,418.752,220.091ZM405.263,195.64c0-.542,0-1.083,0-1.624a.723.723,0,1,0-1.439-.011q-.009,1.624,0,3.248a.723.723,0,1,0,1.439-.019C405.266,196.7,405.263,196.171,405.263,195.64Zm-10.255-.006c0-.542,0-1.083,0-1.624a.724.724,0,1,0-1.441,0q0,1.609,0,3.219a.725.725,0,1,0,1.441,0C395.012,196.7,395.008,196.164,395.008,195.633Zm20.5.008c0-.542,0-1.083,0-1.624a.724.724,0,1,0-1.441-.015q-.007,1.624,0,3.248a.724.724,0,1,0,1.441-.015C415.512,196.7,415.509,196.173,415.509,195.642Z" transform="translate(-389.102 -192.01)" fill="#3a15a6"/>
      <path id="Path_6787" data-name="Path 6787" d="M413.184,209.636a.6.6,0,1,1,.615-.6A.607.607,0,0,1,413.184,209.636Z" transform="translate(-397.763 -198.064)" fill="#3a15a6"/>
      <g id="Group_8748" data-name="Group 8748" transform="translate(4.355 13.694)">
        <rect id="Rectangle_17529" data-name="Rectangle 17529" width="4.419" height="4.419" fill="none" stroke="#f37921" stroke-linecap="round" stroke-linejoin="round" stroke-width="1"/>
        <rect id="Rectangle_17530" data-name="Rectangle 17530" width="4.419" height="4.419" transform="translate(8.839)" fill="none" stroke="#f37921" stroke-linecap="round" stroke-linejoin="round" stroke-width="1"/>
        <rect id="Rectangle_17531" data-name="Rectangle 17531" width="4.419" height="4.419" transform="translate(17.678)" fill="none" stroke="#f37921" stroke-linecap="round" stroke-linejoin="round" stroke-width="1"/>
        <rect id="Rectangle_17532" data-name="Rectangle 17532" width="4.419" height="4.419" transform="translate(0 6.945)" fill="none" stroke="#f37921" stroke-linecap="round" stroke-linejoin="round" stroke-width="1"/>
        <rect id="Rectangle_17533" data-name="Rectangle 17533" width="4.419" height="4.419" transform="translate(8.839 6.945)" fill="none" stroke="#f37921" stroke-linecap="round" stroke-linejoin="round" stroke-width="1"/>
        <rect id="Rectangle_17534" data-name="Rectangle 17534" width="4.419" height="4.419" transform="translate(17.678 6.945)" fill="none" stroke="#f37921" stroke-linecap="round" stroke-linejoin="round" stroke-width="1"/>
      </g>
    </g>
  </g>
</svg>
