<svg width="234" height="234" viewBox="0 0 234 234" fill="none" xmlns="http://www.w3.org/2000/svg">
<g id="CH-5">
<g id="Group">
<path id="Vector" d="M117 234C181.617 234 234 181.617 234 117C234 52.3827 181.617 0 117 0C52.3827 0 8.83106e-06 52.3827 1.97247e-05 117C3.06184e-05 181.617 52.3827 234 117 234Z" fill="#FFC2C0"/>
<g id="Mask group">
<mask id="mask0_8786_8560" style="mask-type:alpha" maskUnits="userSpaceOnUse" x="0" y="0" width="234" height="234">
<path id="Vector_2" d="M117 234C181.617 234 234 181.617 234 117C234 52.3827 181.617 0 117 0C52.3827 0 8.83106e-06 52.3827 1.97247e-05 117C3.06184e-05 181.617 52.3827 234 117 234Z" fill="#FFD8D8"/>
</mask>
<g mask="url(#mask0_8786_8560)">
<g id="Group 48103297">
<path id="Vector_3" d="M116.994 235.22C182.296 235.22 235.234 182.281 235.234 116.979C235.234 51.6764 182.296 -1.26172 116.994 -1.26172C51.6911 -1.26172 -1.24707 51.6764 -1.24708 116.979C-1.24709 182.281 51.6911 235.22 116.994 235.22Z" fill="#FFC2C0"/>
<path id="Vector_4" d="M168.233 238.005H63.3691V203.424C63.3691 186.701 76.9243 173.146 93.648 173.146L115.806 182.567L137.965 173.146C154.688 173.146 168.244 186.701 168.244 203.424V238.005H168.233Z" fill="white"/>
<path id="Vector_5" d="M100.85 173.146H93.6314C76.9077 173.146 63.3525 186.701 63.3525 203.424V238.005H103.997L100.85 173.146Z" fill="#283F6D"/>
<path id="Vector_6" d="M100.856 173.153H97.7081C93.1233 173.153 85.1182 188.607 85.1182 188.607L95.7672 199.749L88.0453 211.552L104.003 238.002L100.856 173.143V173.153Z" fill="#1E2F52"/>
<path id="Vector_7" d="M77.768 177.637C69.1229 182.966 63.3525 192.524 63.3525 203.425V238.006H77.768V177.647V177.637Z" fill="#1E2F52"/>
<path id="Vector_8" d="M130.749 173.146H137.967C154.691 173.146 168.246 186.701 168.246 203.424V238.005H127.602L130.749 173.146Z" fill="#283F6D"/>
<path id="Vector_9" d="M130.749 173.153H133.897C138.481 173.153 146.486 188.607 146.486 188.607L135.837 199.749L143.559 211.552L127.602 238.002L130.749 173.143V173.153Z" fill="#1E2F52"/>
<path id="Vector_10" d="M153.669 177.637C162.314 182.966 168.084 192.524 168.084 203.425V238.006H153.669V177.647V177.637Z" fill="#1E2F52"/>
<path id="Vector_11" d="M101.052 171.607C101.052 179.402 107.987 184.145 116.16 184.145H116.422C124.595 184.145 130.428 179.402 130.428 171.607V153.562C130.428 145.766 124.584 137.981 116.422 137.981H116.16C107.987 137.981 101.052 145.766 101.052 153.562V171.607Z" fill="#FFC0AD"/>
<path id="Vector_12" d="M171.627 76.9219V136.682C171.627 152.409 158.26 165.146 141.788 165.146H93.1282C76.6459 165.146 63.29 152.399 63.29 136.682V77.9081L171.637 76.9219H171.627Z" fill="#FFD4BC"/>
<path id="Vector_13" d="M117.461 128.911C120.609 128.911 123.62 128.198 126.306 126.949C126.631 127.589 126.82 128.261 126.82 128.974C126.82 132.426 122.634 135.217 117.461 135.217C112.289 135.217 108.113 132.426 108.113 128.974C108.113 128.261 108.302 127.589 108.627 126.949C111.313 128.208 114.314 128.911 117.472 128.911H117.461Z" fill="#FFC0AD"/>
<path id="Vector_14" d="M136.881 132.731C136.881 136.372 139.976 139.32 143.784 139.32C147.593 139.32 150.688 136.372 150.688 132.731C150.688 129.091 147.593 126.143 143.784 126.143C139.976 126.143 136.881 129.091 136.881 132.731Z" fill="#FFC0AD"/>
<path id="Vector_15" d="M98.0267 132.731C98.0267 136.372 94.9317 139.32 91.1232 139.32C87.3148 139.32 84.2197 136.372 84.2197 132.731C84.2197 129.091 87.3148 126.143 91.1232 126.143C94.9317 126.143 98.0267 129.091 98.0267 132.731Z" fill="#FFC0AD"/>
<path id="Vector_16" d="M128.464 141.071C128.464 147.608 123.155 152.906 116.608 152.906C110.062 152.906 104.753 147.608 104.753 141.071" fill="#B83336"/>
<g id="Clip path group">
<mask id="mask1_8786_8560" style="mask-type:luminance" maskUnits="userSpaceOnUse" x="104" y="141" width="25" height="12">
<g id="clippath-1">
<path id="Vector_17" d="M128.458 141.058C128.458 147.594 123.149 152.892 116.603 152.892C110.056 152.892 104.747 147.594 104.747 141.058" fill="white"/>
</g>
</mask>
<g mask="url(#mask1_8786_8560)">
<g id="Group_2">
<path id="Vector_18" d="M130.814 156.652C130.814 162.916 125.725 167.993 119.451 167.993C113.177 167.993 108.089 162.916 108.089 156.652C108.089 150.388 113.177 145.311 119.451 145.311C125.725 145.311 130.814 150.388 130.814 156.652Z" fill="#FC8879"/>
</g>
</g>
</g>
<path id="Vector_19" d="M98.8654 112.612C97.3546 110.136 93.3992 111.049 92.6229 113.976C91.8465 111.049 87.8911 110.136 86.3803 112.612C83.4532 117.396 92.6229 123.345 92.6229 123.345C92.6229 123.345 101.793 117.396 98.8654 112.612Z" fill="#ED6B74"/>
<path id="Vector_20" d="M149.228 112.612C147.717 110.136 143.762 111.049 142.985 113.976C142.209 111.049 138.253 110.136 136.743 112.612C133.815 117.396 142.985 123.345 142.985 123.345C142.985 123.345 152.155 117.396 149.228 112.612Z" fill="#ED6B74"/>
<path id="Vector_21" d="M123.754 188.81C123.754 192.388 118.991 195.294 115.717 195.294C112.444 195.294 107.681 192.388 107.681 188.81C107.681 185.232 112.517 182.578 115.801 182.578C119.085 182.578 123.764 185.222 123.764 188.81H123.754Z" fill="#283F6D"/>
<path id="Vector_22" d="M121.833 209.317C121.288 197.923 117.144 189.981 117.144 189.981L115.549 188.932L113.954 189.981C113.954 189.981 109.81 197.923 109.264 209.317C108.719 220.711 111.677 237.665 111.677 237.665H119.431C119.431 237.665 122.379 220.711 121.844 209.317H121.833Z" fill="#283F6D"/>
<path id="Vector_23" d="M100.854 167.617L93.6357 173.146C93.6357 173.146 95.2095 184.666 108.198 192.01C108.198 184.404 115.794 182.568 115.794 182.568C115.794 182.568 101.903 177.847 100.854 167.617Z" fill="white"/>
<path id="Vector_24" d="M130.745 167.617L137.963 173.146C137.963 173.146 136.389 184.666 123.401 192.01C123.401 184.404 115.805 182.568 115.805 182.568C115.805 182.568 129.696 177.847 130.745 167.617Z" fill="white"/>
<path id="Vector_25" d="M171.438 59.9445C162.1 49.8096 152.511 52.9046 152.511 52.9046C130.741 25.3116 95.2056 34.0826 73.9076 49.4738C50.6371 64.351 47.3428 60.3327 47.3428 60.3327C50.4063 64.3614 54.0574 67.6978 57.656 70.0794C50.868 92.6469 62.7969 126.461 62.7969 126.461H68.5149V88.765C68.5149 84.5578 71.4001 81.1586 75.2085 80.1828C76.5515 79.8366 91.5755 86.268 115.507 86.268C139.438 86.268 152.773 79.5743 152.773 79.5743C160.537 77.8537 168.185 83.75 168.185 91.6817V126.451H171.795C178.215 100.222 182.139 71.5797 171.427 59.9445H171.438Z" fill="url(#paint0_linear_8786_8560)"/>
<path id="Vector_26" d="M171.443 59.9437C163.176 50.9733 154.709 52.3687 152.884 52.7989C158.056 61.6853 156.419 73.1841 149.285 80.9584C151.509 80.1401 152.663 79.563 152.663 79.563C160.427 77.8424 168.002 83.7387 168.002 91.6704V126.44H171.811C178.232 100.211 182.155 71.5684 171.443 59.9332V59.9437Z" fill="url(#paint1_linear_8786_8560)"/>
<path id="Vector_27" d="M57.5249 70.5576C51.062 93.1146 62.8021 126.436 62.8021 126.436H68.3207V88.7396C68.3207 84.4695 71.3843 81.0388 75.2662 80.126C68.8139 78.1641 62.8651 74.8592 57.5249 70.5576Z" fill="url(#paint2_linear_8786_8560)"/>
</g>
</g>
</g>
</g>
</g>
<defs>
<linearGradient id="paint0_linear_8786_8560" x1="65.808" y1="41.8569" x2="161.104" y2="137.152" gradientUnits="userSpaceOnUse">
<stop stop-color="#A95C00"/>
<stop offset="1" stop-color="#5A2A00"/>
</linearGradient>
<linearGradient id="paint1_linear_8786_8560" x1="163.701" y1="126.44" x2="163.701" y2="52.4527" gradientUnits="userSpaceOnUse">
<stop stop-color="#A95C00"/>
<stop offset="1" stop-color="#5A2A00"/>
</linearGradient>
<linearGradient id="paint2_linear_8786_8560" x1="65.4251" y1="126.436" x2="65.4251" y2="70.5576" gradientUnits="userSpaceOnUse">
<stop stop-color="#A95C00"/>
<stop offset="1" stop-color="#5A2A00"/>
</linearGradient>
</defs>
</svg>
