<svg width="148" height="150" viewBox="0 0 148 150" fill="none" xmlns="http://www.w3.org/2000/svg">
<path d="M102.596 126.003C102.596 126.003 102.627 125.985 102.644 126C102.661 126.015 102.662 126.031 102.647 126.048C102.632 126.066 102.616 126.067 102.599 126.051C102.581 126.036 102.58 126.02 102.596 126.003Z" fill="#FFC2C0"/>
<path d="M106.453 121.242C106.559 121.121 106.737 121.11 106.858 121.216C106.978 121.322 106.989 121.5 106.883 121.621C106.777 121.741 106.599 121.753 106.479 121.646C106.358 121.54 106.347 121.362 106.453 121.242Z" fill="#FFC2C0"/>
<path d="M110.346 116.511C110.528 116.304 110.836 116.285 111.042 116.466C111.249 116.648 111.268 116.956 111.086 117.162C110.904 117.369 110.597 117.388 110.39 117.206C110.184 117.024 110.164 116.717 110.346 116.511Z" fill="#FFC2C0"/>
<path d="M114.376 111.885C114.565 111.669 114.905 111.648 115.12 111.837C115.335 112.027 115.357 112.367 115.167 112.582C114.978 112.797 114.638 112.818 114.423 112.629C114.208 112.439 114.187 112.1 114.376 111.885Z" fill="#FFC2C0"/>
<path d="M118.449 107.315C118.631 107.109 118.938 107.089 119.145 107.271C119.351 107.453 119.371 107.76 119.189 107.967C119.007 108.173 118.699 108.193 118.493 108.011C118.286 107.829 118.267 107.522 118.449 107.315Z" fill="#FFC2C0"/>
<path d="M122.659 102.862C122.758 102.751 122.936 102.739 123.047 102.838C123.159 102.936 123.171 103.114 123.072 103.226C122.974 103.338 122.796 103.349 122.684 103.251C122.572 103.152 122.561 102.974 122.659 102.862Z" fill="#FFC2C0"/>
<path d="M126.91 98.4343C126.91 98.4343 126.918 98.4254 126.927 98.4333C126.936 98.4411 126.936 98.4411 126.928 98.4501C126.92 98.459 126.92 98.459 126.911 98.4511C126.903 98.4433 126.903 98.4433 126.91 98.4343Z" fill="#FFC2C0"/>
<path d="M89.9085 131.157C89.9085 131.157 89.9163 131.148 89.9253 131.156C89.9342 131.164 89.9342 131.164 89.9263 131.173C89.9185 131.182 89.9185 131.182 89.9095 131.174C89.9006 131.166 89.9006 131.166 89.9085 131.157Z" fill="#FFC2C0"/>
<path d="M93.5857 126.241C93.7751 126.026 94.0912 126.014 94.2977 126.196C94.5041 126.377 94.5246 126.701 94.3427 126.908C94.1609 127.114 93.8372 127.135 93.6307 126.953C93.4243 126.771 93.4038 126.447 93.5857 126.241Z" fill="#FFC2C0"/>
<path d="M97.2463 121.288C97.6252 120.858 98.2725 120.817 98.7027 121.196C99.1329 121.575 99.1738 122.222 98.7949 122.652C98.4159 123.083 97.7687 123.124 97.3385 122.745C96.9083 122.366 96.8674 121.718 97.2463 121.288Z" fill="#FFC2C0"/>
<path d="M101.206 116.618C101.63 116.136 102.358 116.09 102.84 116.514C103.322 116.939 103.368 117.667 102.944 118.149C102.519 118.63 101.791 118.677 101.309 118.252C100.828 117.828 100.781 117.1 101.206 116.618Z" fill="#FFC2C0"/>
<path d="M105.254 112.025C105.678 111.543 106.406 111.497 106.888 111.921C107.37 112.346 107.416 113.074 106.992 113.556C106.567 114.038 105.839 114.084 105.357 113.659C104.875 113.235 104.829 112.507 105.254 112.025Z" fill="#FFC2C0"/>
<path d="M109.308 107.421C109.733 106.94 110.461 106.894 110.943 107.318C111.425 107.742 111.471 108.471 111.046 108.952C110.622 109.434 109.894 109.48 109.412 109.056C108.93 108.631 108.884 107.903 109.308 107.421Z" fill="#FFC2C0"/>
<path d="M113.356 102.825C113.781 102.343 114.509 102.297 114.991 102.721C115.472 103.146 115.518 103.874 115.094 104.356C114.67 104.837 113.941 104.884 113.46 104.459C112.978 104.035 112.932 103.307 113.356 102.825Z" fill="#FFC2C0"/>
<path d="M117.4 98.2339C117.825 97.7522 118.553 97.7061 119.035 98.1305C119.516 98.5549 119.562 99.2831 119.138 99.7649C118.714 100.247 117.985 100.293 117.504 99.8683C117.022 99.4439 116.976 98.7157 117.4 98.2339Z" fill="#FFC2C0"/>
<path d="M121.56 93.7202C121.931 93.2987 122.578 93.2577 123 93.6291C123.421 94.0004 123.462 94.6477 123.091 95.0693C122.72 95.4908 122.072 95.5318 121.651 95.1604C121.229 94.7891 121.188 94.1418 121.56 93.7202Z" fill="#FFC2C0"/>
<path d="M126.013 89.4809C126.187 89.283 126.487 89.2721 126.676 89.4389C126.866 89.6056 126.885 89.9131 126.718 90.1023C126.552 90.2916 126.244 90.3111 126.055 90.1443C125.866 89.9776 125.846 89.6702 126.013 89.4809Z" fill="#FFC2C0"/>
<path d="M130.403 85.1892C130.403 85.1892 130.41 85.1803 130.419 85.1881C130.428 85.196 130.428 85.196 130.42 85.2049C130.413 85.2139 130.413 85.2139 130.404 85.206C130.395 85.1981 130.395 85.1981 130.403 85.1892Z" fill="#FFC2C0"/>
<path d="M81.3305 131.652C81.2973 131.622 81.2466 131.626 81.2173 131.659C81.188 131.692 81.1912 131.743 81.2244 131.772C81.2577 131.801 81.3084 131.798 81.3377 131.765C81.367 131.732 81.3638 131.681 81.3305 131.652Z" fill="#FFC2C0"/>
<path d="M84.7049 126.573C85.008 126.229 85.5335 126.188 85.8862 126.498C86.2389 126.809 86.2641 127.335 85.961 127.68C85.6578 128.024 85.1238 128.058 84.7797 127.754C84.4356 127.451 84.3942 126.926 84.7049 126.573Z" fill="#FFC2C0"/>
<path d="M88.5105 121.769C88.9349 121.287 89.6631 121.241 90.1449 121.666C90.6267 122.09 90.6728 122.818 90.2484 123.3C89.824 123.782 89.0958 123.828 88.614 123.403C88.1322 122.979 88.0861 122.251 88.5105 121.769Z" fill="#FFC2C0"/>
<path d="M92.5652 117.166C92.9896 116.684 93.7178 116.638 94.1996 117.062C94.6814 117.487 94.7275 118.215 94.3031 118.697C93.8786 119.178 93.1505 119.224 92.6687 118.8C92.1869 118.376 92.1408 117.647 92.5652 117.166Z" fill="#FFC2C0"/>
<path d="M96.6131 112.569C97.0375 112.087 97.7657 112.041 98.2474 112.465C98.7292 112.89 98.7753 113.618 98.3509 114.1C97.9265 114.582 97.1983 114.628 96.7165 114.203C96.2347 113.779 96.1886 113.051 96.6131 112.569Z" fill="#FFC2C0"/>
<path d="M100.66 107.976C101.084 107.494 101.813 107.448 102.294 107.873C102.776 108.297 102.822 109.025 102.398 109.507C101.973 109.989 101.245 110.035 100.763 109.611C100.282 109.186 100.236 108.458 100.66 107.976Z" fill="#FFC2C0"/>
<path d="M104.714 103.375C105.138 102.893 105.866 102.847 106.348 103.271C106.83 103.696 106.876 104.424 106.451 104.905C106.027 105.387 105.299 105.433 104.817 105.009C104.335 104.585 104.289 103.856 104.714 103.375Z" fill="#FFC2C0"/>
<path d="M108.761 98.7798C109.185 98.2981 109.913 98.252 110.395 98.6764C110.877 99.1008 110.923 99.829 110.498 100.311C110.074 100.793 109.346 100.839 108.864 100.414C108.382 99.9898 108.336 99.2616 108.761 98.7798Z" fill="#FFC2C0"/>
<path d="M112.807 94.1851C113.232 93.7033 113.96 93.6572 114.442 94.0816C114.924 94.5061 114.97 95.2343 114.545 95.716C114.121 96.1978 113.393 96.2439 112.911 95.8195C112.429 95.3951 112.383 94.6669 112.807 94.1851Z" fill="#FFC2C0"/>
<path d="M116.861 89.5826C117.286 89.1008 118.014 89.0547 118.495 89.4791C118.977 89.9035 119.023 90.6317 118.599 91.1135C118.175 91.5953 117.446 91.6414 116.965 91.217C116.483 90.7925 116.437 90.0644 116.861 89.5826Z" fill="#FFC2C0"/>
<path d="M120.909 84.9888C121.333 84.507 122.062 84.4609 122.543 84.8854C123.025 85.3098 123.071 86.038 122.647 86.5197C122.222 87.0015 121.494 87.0476 121.012 86.6232C120.531 86.1988 120.485 85.4706 120.909 84.9888Z" fill="#FFC2C0"/>
<path d="M125.206 80.6147C125.501 80.2792 126.019 80.2464 126.355 80.542C126.69 80.8376 126.723 81.3554 126.427 81.6909C126.132 82.0265 125.614 82.0592 125.278 81.7637C124.943 81.4681 124.91 80.9503 125.206 80.6147Z" fill="#FFC2C0"/>
<path d="M129.836 76.5212C129.836 76.5212 129.884 76.5019 129.901 76.5171C129.918 76.5322 129.92 76.5646 129.905 76.5818C129.89 76.599 129.857 76.6011 129.84 76.5859C129.823 76.5707 129.821 76.5384 129.836 76.5212Z" fill="#FFC2C0"/>
<path d="M72.6194 132.26C72.6194 132.26 72.6273 132.251 72.6362 132.258C72.6451 132.266 72.6451 132.266 72.6373 132.275C72.6294 132.284 72.6294 132.284 72.6205 132.276C72.6115 132.268 72.6115 132.268 72.6194 132.26Z" fill="#FFC2C0"/>
<path d="M77.2358 127.038C76.8889 126.733 76.3601 126.766 76.0545 127.113C75.749 127.46 75.7824 127.989 76.1293 128.294C76.4761 128.6 77.005 128.566 77.3106 128.22C77.6161 127.873 77.5827 127.344 77.2358 127.038Z" fill="#FFC2C0"/>
<path d="M79.8601 122.307C80.2845 121.825 81.0127 121.779 81.4945 122.204C81.9763 122.628 82.0224 123.356 81.598 123.838C81.1736 124.32 80.4454 124.366 79.9636 123.942C79.4818 123.517 79.4357 122.789 79.8601 122.307Z" fill="#FFC2C0"/>
<path d="M83.907 117.714C84.3314 117.233 85.0596 117.187 85.5414 117.611C86.0232 118.035 86.0693 118.764 85.6449 119.245C85.2204 119.727 84.4922 119.773 84.0105 119.349C83.5287 118.924 83.4826 118.196 83.907 117.714Z" fill="#FFC2C0"/>
<path d="M87.9627 113.109C88.3871 112.627 89.1153 112.581 89.5971 113.005C90.0788 113.43 90.1249 114.158 89.7005 114.64C89.2761 115.122 88.5479 115.168 88.0661 114.743C87.5844 114.319 87.5383 113.591 87.9627 113.109Z" fill="#FFC2C0"/>
<path d="M92.0095 108.516C92.434 108.034 93.1621 107.988 93.6439 108.413C94.1257 108.837 94.1718 109.565 93.7474 110.047C93.323 110.529 92.5948 110.575 92.113 110.151C91.6312 109.726 91.5851 108.998 92.0095 108.516Z" fill="#FFC2C0"/>
<path d="M96.0564 103.923C96.4808 103.442 97.209 103.396 97.6908 103.82C98.1726 104.244 98.2187 104.973 97.7943 105.454C97.3699 105.936 96.6417 105.982 96.1599 105.558C95.6781 105.133 95.632 104.405 96.0564 103.923Z" fill="#FFC2C0"/>
<path d="M100.11 99.3199C100.535 98.8381 101.263 98.792 101.745 99.2164C102.226 99.6408 102.272 100.369 101.848 100.851C101.424 101.333 100.695 101.379 100.214 100.954C99.7318 100.53 99.6857 99.8017 100.11 99.3199Z" fill="#FFC2C0"/>
<path d="M104.157 94.7252C104.581 94.2434 105.31 94.1973 105.791 94.6217C106.273 95.0461 106.319 95.7743 105.895 96.2561C105.47 96.7379 104.742 96.784 104.26 96.3595C103.779 95.9351 103.733 95.2069 104.157 94.7252Z" fill="#FFC2C0"/>
<path d="M108.205 90.1324C108.629 89.6506 109.357 89.6045 109.839 90.0289C110.321 90.4533 110.367 91.1815 109.943 91.6633C109.518 92.1451 108.79 92.1912 108.308 91.7668C107.827 91.3424 107.78 90.6142 108.205 90.1324Z" fill="#FFC2C0"/>
<path d="M112.261 85.5298C112.685 85.0481 113.413 85.002 113.895 85.4264C114.377 85.8508 114.423 86.579 113.998 87.0608C113.574 87.5425 112.846 87.5886 112.364 87.1642C111.882 86.7398 111.836 86.0116 112.261 85.5298Z" fill="#FFC2C0"/>
<path d="M116.307 80.9341C116.732 80.4524 117.46 80.4063 117.942 80.8307C118.424 81.2551 118.47 81.9833 118.045 82.4651C117.621 82.9468 116.893 82.9929 116.411 82.5685C115.929 82.1441 115.883 81.4159 116.307 80.9341Z" fill="#FFC2C0"/>
<path d="M120.354 76.3394C120.779 75.8576 121.507 75.8115 121.989 76.2359C122.47 76.6604 122.517 77.3886 122.092 77.8703C121.668 78.3521 120.94 78.3982 120.458 77.9738C119.976 77.5494 119.93 76.8212 120.354 76.3394Z" fill="#FFC2C0"/>
<path d="M124.666 71.9673C124.961 71.6318 125.479 71.599 125.814 71.8945C126.15 72.1901 126.183 72.7079 125.887 73.0435C125.592 73.379 125.074 73.4118 124.738 73.1162C124.403 72.8206 124.37 72.3028 124.666 71.9673Z" fill="#FFC2C0"/>
<path d="M129.315 67.9001C129.315 67.9001 129.323 67.8912 129.332 67.8991C129.34 67.907 129.34 67.9069 129.333 67.9159C129.325 67.9248 129.325 67.9248 129.316 67.9169C129.307 67.9091 129.307 67.9091 129.315 67.9001Z" fill="#FFC2C0"/>
<path d="M67.6462 127.881C67.8357 127.666 68.1517 127.654 68.3582 127.836C68.5647 128.018 68.5852 128.342 68.4033 128.548C68.2214 128.755 67.8978 128.775 67.6913 128.593C67.4848 128.411 67.4643 128.088 67.6462 127.881Z" fill="#FFC2C0"/>
<path d="M71.2195 122.853C71.6439 122.371 72.3721 122.325 72.8539 122.75C73.3357 123.174 73.3818 123.902 72.9574 124.384C72.5329 124.866 71.8047 124.912 71.323 124.487C70.8412 124.063 70.7951 123.335 71.2195 122.853Z" fill="#FFC2C0"/>
<path d="M75.2674 118.26C75.6918 117.779 76.42 117.732 76.9017 118.157C77.3835 118.581 77.4296 119.309 77.0052 119.791C76.5808 120.273 75.8526 120.319 75.3708 119.895C74.889 119.47 74.8429 118.742 75.2674 118.26Z" fill="#FFC2C0"/>
<path d="M79.3142 113.668C79.7386 113.186 80.4668 113.14 80.9486 113.564C81.4304 113.988 81.4765 114.717 81.0521 115.198C80.6277 115.68 79.8995 115.726 79.4177 115.302C78.9359 114.878 78.8898 114.149 79.3142 113.668Z" fill="#FFC2C0"/>
<path d="M83.3699 109.062C83.7943 108.58 84.5225 108.534 85.0043 108.959C85.4861 109.383 85.5322 110.111 85.1077 110.593C84.6833 111.075 83.9551 111.121 83.4734 110.696C82.9916 110.272 82.9455 109.544 83.3699 109.062Z" fill="#FFC2C0"/>
<path d="M87.4158 104.467C87.8402 103.986 88.5684 103.939 89.0502 104.364C89.532 104.788 89.5781 105.516 89.1536 105.998C88.7292 106.48 88.001 106.526 87.5193 106.102C87.0375 105.677 86.9914 104.949 87.4158 104.467Z" fill="#FFC2C0"/>
<path d="M91.4636 99.8746C91.8881 99.3928 92.6162 99.3467 93.098 99.7711C93.5798 100.196 93.6259 100.924 93.2015 101.405C92.7771 101.887 92.0489 101.933 91.5671 101.509C91.0853 101.085 91.0392 100.356 91.4636 99.8746Z" fill="#FFC2C0"/>
<path d="M95.5164 95.272C95.9408 94.7902 96.669 94.7441 97.1508 95.1686C97.6325 95.593 97.6786 96.3212 97.2542 96.8029C96.8298 97.2847 96.1016 97.3308 95.6198 96.9064C95.1381 96.482 95.092 95.7538 95.5164 95.272Z" fill="#FFC2C0"/>
<path d="M99.5642 90.6783C99.9886 90.1965 100.717 90.1504 101.199 90.5748C101.68 90.9992 101.726 91.7274 101.302 92.2092C100.878 92.691 100.149 92.7371 99.6677 92.3127C99.1859 91.8883 99.1398 91.1601 99.5642 90.6783Z" fill="#FFC2C0"/>
<path d="M103.612 86.0835C104.036 85.6018 104.765 85.5557 105.246 85.9801C105.728 86.4045 105.774 87.1327 105.35 87.6145C104.926 88.0963 104.197 88.1424 103.716 87.7179C103.234 87.2935 103.188 86.5653 103.612 86.0835Z" fill="#FFC2C0"/>
<path d="M107.665 81.481C108.089 80.9992 108.817 80.9531 109.299 81.3775C109.781 81.802 109.827 82.5302 109.403 83.0119C108.978 83.4937 108.25 83.5398 107.768 83.1154C107.287 82.691 107.24 81.9628 107.665 81.481Z" fill="#FFC2C0"/>
<path d="M111.713 76.8873C112.137 76.4055 112.865 76.3594 113.347 76.7838C113.829 77.2082 113.875 77.9364 113.451 78.4182C113.026 78.9 112.298 78.9461 111.816 78.5216C111.334 78.0972 111.288 77.369 111.713 76.8873Z" fill="#FFC2C0"/>
<path d="M115.761 72.2925C116.185 71.8108 116.913 71.7647 117.395 72.1891C117.877 72.6135 117.923 73.3417 117.498 73.8235C117.074 74.3052 116.346 74.3513 115.864 73.9269C115.382 73.5025 115.336 72.7743 115.761 72.2925Z" fill="#FFC2C0"/>
<path d="M119.815 67.69C120.24 67.2082 120.968 67.1621 121.45 67.5865C121.931 68.0109 121.977 68.7391 121.553 69.2209C121.129 69.7027 120.4 69.7488 119.919 69.3244C119.437 68.9 119.391 68.1718 119.815 67.69Z" fill="#FFC2C0"/>
<path d="M124.369 63.5434C124.544 63.3455 124.844 63.3346 125.033 63.5014C125.222 63.6681 125.242 63.9756 125.075 64.1648C124.908 64.3541 124.601 64.3736 124.411 64.2068C124.222 64.0401 124.203 63.7327 124.369 63.5434Z" fill="#FFC2C0"/>
<path d="M59.3583 128.738C59.3583 128.738 59.3897 128.72 59.4069 128.735C59.4241 128.75 59.4251 128.767 59.4099 128.784C59.3948 128.801 59.3786 128.802 59.3614 128.787C59.3442 128.772 59.3432 128.755 59.3583 128.738Z" fill="#FFC2C0"/>
<path d="M62.6739 123.5C63.0453 123.078 63.6925 123.037 64.1141 123.408C64.5357 123.78 64.5766 124.427 64.2053 124.849C63.8339 125.27 63.1866 125.311 62.7651 124.94C62.3435 124.568 62.3025 123.921 62.6739 123.5Z" fill="#FFC2C0"/>
<path d="M66.6238 118.808C67.0482 118.326 67.7764 118.28 68.2582 118.705C68.74 119.129 68.7861 119.857 68.3617 120.339C67.9372 120.821 67.209 120.867 66.7273 120.443C66.2455 120.018 66.1994 119.29 66.6238 118.808Z" fill="#FFC2C0"/>
<path d="M70.6717 114.211C71.0961 113.73 71.8243 113.684 72.306 114.108C72.7878 114.532 72.8339 115.261 72.4095 115.742C71.9851 116.224 71.2569 116.27 70.7751 115.846C70.2933 115.421 70.2472 114.693 70.6717 114.211Z" fill="#FFC2C0"/>
<path d="M74.7185 109.619C75.1429 109.137 75.8711 109.091 76.3529 109.515C76.8347 109.94 76.8808 110.668 76.4564 111.15C76.032 111.631 75.3038 111.678 74.822 111.253C74.3402 110.829 74.2941 110.1 74.7185 109.619Z" fill="#FFC2C0"/>
<path d="M78.7742 105.015C79.1986 104.533 79.9268 104.487 80.4086 104.912C80.8904 105.336 80.9365 106.064 80.512 106.546C80.0876 107.028 79.3594 107.074 78.8777 106.65C78.3959 106.225 78.3498 105.497 78.7742 105.015Z" fill="#FFC2C0"/>
<path d="M82.8211 100.42C83.2455 99.9387 83.9737 99.8926 84.4555 100.317C84.9372 100.741 84.9833 101.47 84.5589 101.951C84.1345 102.433 83.4063 102.479 82.9245 102.055C82.4428 101.63 82.3967 100.902 82.8211 100.42Z" fill="#FFC2C0"/>
<path d="M86.8679 95.8277C87.2924 95.3459 88.0205 95.2998 88.5023 95.7242C88.9841 96.1486 89.0302 96.8768 88.6058 97.3586C88.1814 97.8404 87.4532 97.8865 86.9714 97.4621C86.4896 97.0377 86.4435 96.3095 86.8679 95.8277Z" fill="#FFC2C0"/>
<path d="M90.9217 91.2252C91.3461 90.7434 92.0743 90.6973 92.556 91.1217C93.0378 91.5461 93.0839 92.2743 92.6595 92.7561C92.2351 93.2379 91.5069 93.284 91.0251 92.8595C90.5433 92.4351 90.4972 91.7069 90.9217 91.2252Z" fill="#FFC2C0"/>
<path d="M94.9695 86.6294C95.3939 86.1477 96.1221 86.1016 96.6039 86.526C97.0857 86.9504 97.1318 87.6786 96.7074 88.1604C96.2829 88.6421 95.5547 88.6882 95.073 88.2638C94.5912 87.8394 94.5451 87.1112 94.9695 86.6294Z" fill="#FFC2C0"/>
<path d="M99.0164 82.0367C99.4408 81.5549 100.169 81.5088 100.651 81.9332C101.133 82.3576 101.179 83.0858 100.754 83.5676C100.33 84.0494 99.6016 84.0955 99.1198 83.6711C98.6381 83.2466 98.592 82.5185 99.0164 82.0367Z" fill="#FFC2C0"/>
<path d="M103.072 77.4341C103.496 76.9524 104.225 76.9063 104.706 77.3307C105.188 77.7551 105.234 78.4833 104.81 78.9651C104.385 79.4468 103.657 79.4929 103.176 79.0685C102.694 78.6441 102.648 77.9159 103.072 77.4341Z" fill="#FFC2C0"/>
<path d="M107.119 72.8414C107.543 72.3596 108.272 72.3135 108.753 72.7379C109.235 73.1623 109.281 73.8905 108.857 74.3723C108.432 74.8541 107.704 74.9002 107.222 74.4758C106.741 74.0513 106.695 73.3231 107.119 72.8414Z" fill="#FFC2C0"/>
<path d="M111.166 68.2437C111.59 67.7619 112.318 67.7158 112.8 68.1402C113.282 68.5647 113.328 69.2928 112.904 69.7746C112.479 70.2564 111.751 70.3025 111.269 69.8781C110.787 69.4537 110.741 68.7255 111.166 68.2437Z" fill="#FFC2C0"/>
<path d="M115.221 63.6412C115.646 63.1594 116.374 63.1133 116.856 63.5377C117.338 63.9621 117.384 64.6903 116.959 65.1721C116.535 65.6539 115.807 65.7 115.325 65.2756C114.843 64.8511 114.797 64.123 115.221 63.6412Z" fill="#FFC2C0"/>
<path d="M119.38 59.1457C119.743 58.7327 120.375 58.6928 120.788 59.0566C121.2 59.4204 121.24 60.0515 120.877 60.4644C120.513 60.8774 119.882 60.9173 119.469 60.5535C119.056 60.1897 119.016 59.5586 119.38 59.1457Z" fill="#FFC2C0"/>
<path d="M124.15 55.1885C124.15 55.1885 124.182 55.1703 124.199 55.1854C124.216 55.2006 124.217 55.2168 124.202 55.234C124.187 55.2512 124.171 55.2522 124.153 55.237C124.136 55.2219 124.135 55.2057 124.15 55.1885Z" fill="#FFC2C0"/>
<path d="M54.5752 124.525C54.6813 124.405 54.8593 124.393 54.9798 124.5C55.1002 124.606 55.1115 124.784 55.0054 124.904C54.8993 125.025 54.7213 125.036 54.6008 124.93C54.4804 124.824 54.4691 124.646 54.5752 124.525Z" fill="#FFC2C0"/>
<path d="M57.9676 119.355C58.392 118.873 59.1202 118.827 59.6019 119.252C60.0837 119.676 60.1298 120.404 59.7054 120.886C59.281 121.368 58.5528 121.414 58.071 120.989C57.5892 120.565 57.5431 119.837 57.9676 119.355Z" fill="#FFC2C0"/>
<path d="M62.0232 114.752C62.4476 114.27 63.1758 114.224 63.6576 114.648C64.1394 115.072 64.1855 115.801 63.7611 116.282C63.3367 116.764 62.6085 116.81 62.1267 116.386C61.6449 115.961 61.5988 115.233 62.0232 114.752Z" fill="#FFC2C0"/>
<path d="M66.0681 110.159C66.4926 109.677 67.2207 109.631 67.7025 110.055C68.1843 110.48 68.2304 111.208 67.806 111.69C67.3816 112.171 66.6534 112.218 66.1716 111.793C65.6898 111.369 65.6437 110.641 66.0681 110.159Z" fill="#FFC2C0"/>
<path d="M70.116 105.566C70.5404 105.084 71.2686 105.038 71.7504 105.463C72.2322 105.887 72.2783 106.615 71.8538 107.097C71.4294 107.579 70.7012 107.625 70.2195 107.2C69.7377 106.776 69.6916 106.048 70.116 105.566Z" fill="#FFC2C0"/>
<path d="M74.1726 100.961C74.597 100.479 75.3252 100.433 75.807 100.857C76.2888 101.281 76.3349 102.01 75.9105 102.491C75.4861 102.973 74.7579 103.019 74.2761 102.595C73.7943 102.17 73.7482 101.442 74.1726 100.961Z" fill="#FFC2C0"/>
<path d="M78.2205 96.3658C78.6449 95.884 79.3731 95.8379 79.8549 96.2623C80.3366 96.6867 80.3827 97.4149 79.9583 97.8967C79.5339 98.3785 78.8057 98.4246 78.3239 98.0002C77.8422 97.5758 77.7961 96.8476 78.2205 96.3658Z" fill="#FFC2C0"/>
<path d="M82.2654 91.773C82.6898 91.2912 83.418 91.2451 83.8998 91.6695C84.3816 92.094 84.4277 92.8221 84.0033 93.3039C83.5788 93.7857 82.8506 93.8318 82.3689 93.4074C81.8871 92.983 81.841 92.2548 82.2654 91.773Z" fill="#FFC2C0"/>
<path d="M86.3211 87.1705C86.7455 86.6887 87.4737 86.6426 87.9555 87.067C88.4372 87.4914 88.4833 88.2196 88.0589 88.7014C87.6345 89.1832 86.9063 89.2293 86.4245 88.8049C85.9428 88.3804 85.8967 87.6522 86.3211 87.1705Z" fill="#FFC2C0"/>
<path d="M90.3679 82.5767C90.7924 82.0949 91.5205 82.0488 92.0023 82.4733C92.4841 82.8977 92.5302 83.6259 92.1058 84.1076C91.6814 84.5894 90.9532 84.6355 90.4714 84.2111C89.9896 83.7867 89.9435 83.0585 90.3679 82.5767Z" fill="#FFC2C0"/>
<path d="M94.4148 77.982C94.8392 77.5002 95.5674 77.4541 96.0492 77.8785C96.531 78.3029 96.5771 79.0311 96.1527 79.5129C95.7283 79.9947 95.0001 80.0408 94.5183 79.6164C94.0365 79.192 93.9904 78.4638 94.4148 77.982Z" fill="#FFC2C0"/>
<path d="M98.4685 73.3795C98.8929 72.8977 99.6211 72.8516 100.103 73.276C100.585 73.7004 100.631 74.4286 100.206 74.9104C99.782 75.3922 99.0538 75.4382 98.572 75.0138C98.0902 74.5894 98.0441 73.8612 98.4685 73.3795Z" fill="#FFC2C0"/>
<path d="M102.515 68.7867C102.94 68.3049 103.668 68.2588 104.15 68.6832C104.632 69.1076 104.678 69.8358 104.253 70.3176C103.829 70.7994 103.101 70.8455 102.619 70.4211C102.137 69.9966 102.091 69.2685 102.515 68.7867Z" fill="#FFC2C0"/>
<path d="M106.565 64.191C106.99 63.7092 107.718 63.6631 108.2 64.0875C108.681 64.5119 108.727 65.2401 108.303 65.7219C107.879 66.2037 107.15 66.2498 106.669 65.8254C106.187 65.4009 106.141 64.6728 106.565 64.191Z" fill="#FFC2C0"/>
<path d="M110.618 59.5884C111.042 59.1067 111.771 59.0606 112.252 59.485C112.734 59.9094 112.78 60.6376 112.356 61.1194C111.931 61.6011 111.203 61.6472 110.721 61.2228C110.24 60.7984 110.194 60.0702 110.618 59.5884Z" fill="#FFC2C0"/>
<path d="M114.666 54.9957C115.09 54.5139 115.818 54.4678 116.3 54.8922C116.782 55.3166 116.828 56.0448 116.404 56.5266C115.979 57.0084 115.251 57.0545 114.769 56.63C114.287 56.2056 114.241 55.4774 114.666 54.9957Z" fill="#FFC2C0"/>
<path d="M119.39 50.9997C119.481 50.8965 119.643 50.8862 119.746 50.9772C119.849 51.0681 119.86 51.23 119.769 51.3332C119.678 51.4364 119.516 51.4467 119.413 51.3557C119.31 51.2648 119.299 51.103 119.39 50.9997Z" fill="#FFC2C0"/>
<path d="M49.8248 120.343C50.0067 120.136 50.3141 120.117 50.5206 120.298C50.7271 120.48 50.7466 120.788 50.5647 120.994C50.3828 121.201 50.0753 121.22 49.8688 121.038C49.6624 120.856 49.6429 120.549 49.8248 120.343Z" fill="#FFC2C0"/>
<path d="M53.3738 115.308C53.7982 114.826 54.5264 114.78 55.0082 115.205C55.49 115.629 55.5361 116.357 55.1117 116.839C54.6872 117.321 53.959 117.367 53.4773 116.943C52.9955 116.518 52.9494 115.79 53.3738 115.308Z" fill="#FFC2C0"/>
<path d="M57.4275 110.707C57.8519 110.225 58.5801 110.179 59.0619 110.603C59.5437 111.028 59.5898 111.756 59.1654 112.238C58.7409 112.719 58.0128 112.765 57.531 112.341C57.0492 111.917 57.0031 111.188 57.4275 110.707Z" fill="#FFC2C0"/>
<path d="M61.4754 106.11C61.8998 105.628 62.628 105.582 63.1097 106.006C63.5915 106.431 63.6376 107.159 63.2132 107.641C62.7888 108.123 62.0606 108.169 61.5788 107.744C61.097 107.32 61.0509 106.592 61.4754 106.11Z" fill="#FFC2C0"/>
<path d="M65.5222 101.517C65.9467 101.035 66.6748 100.989 67.1566 101.414C67.6384 101.838 67.6845 102.566 67.2601 103.048C66.8357 103.53 66.1075 103.576 65.6257 103.152C65.1439 102.727 65.0978 101.999 65.5222 101.517Z" fill="#FFC2C0"/>
<path d="M69.5769 96.9146C70.0013 96.4328 70.7295 96.3867 71.2113 96.8111C71.6931 97.2356 71.7392 97.9637 71.3148 98.4455C70.8904 98.9273 70.1622 98.9734 69.6804 98.549C69.1986 98.1246 69.1525 97.3964 69.5769 96.9146Z" fill="#FFC2C0"/>
<path d="M73.6248 92.3189C74.0492 91.8371 74.7774 91.791 75.2592 92.2154C75.7409 92.6398 75.787 93.368 75.3626 93.8498C74.9382 94.3316 74.21 94.3777 73.7282 93.9533C73.2465 93.5289 73.2004 92.8007 73.6248 92.3189Z" fill="#FFC2C0"/>
<path d="M77.6717 87.7242C78.0961 87.2424 78.8243 87.1963 79.306 87.6207C79.7878 88.0451 79.8339 88.7733 79.4095 89.2551C78.9851 89.7369 78.2569 89.783 77.7751 89.3586C77.2933 88.9341 77.2472 88.206 77.6717 87.7242Z" fill="#FFC2C0"/>
<path d="M81.7254 83.1236C82.1498 82.6418 82.878 82.5957 83.3597 83.0201C83.8415 83.4445 83.8876 84.1727 83.4632 84.6545C83.0388 85.1363 82.3106 85.1824 81.8288 84.758C81.347 84.3336 81.301 83.6054 81.7254 83.1236Z" fill="#FFC2C0"/>
<path d="M85.7722 78.5279C86.1967 78.0461 86.9248 78 87.4066 78.4244C87.8884 78.8488 87.9345 79.577 87.5101 80.0588C87.0857 80.5406 86.3575 80.5867 85.8757 80.1623C85.3939 79.7379 85.3478 79.0097 85.7722 78.5279Z" fill="#FFC2C0"/>
<path d="M89.8201 73.9351C90.2445 73.4533 90.9727 73.4072 91.4545 73.8316C91.9363 74.2561 91.9824 74.9843 91.5579 75.466C91.1335 75.9478 90.4053 75.9939 89.9236 75.5695C89.4418 75.1451 89.3957 74.4169 89.8201 73.9351Z" fill="#FFC2C0"/>
<path d="M93.8728 69.3345C94.2972 68.8527 95.0254 68.8066 95.5072 69.2311C95.989 69.6555 96.0351 70.3837 95.6107 70.8655C95.1863 71.3472 94.4581 71.3933 93.9763 70.9689C93.4945 70.5445 93.4484 69.8163 93.8728 69.3345Z" fill="#FFC2C0"/>
<path d="M97.9207 64.7398C98.3451 64.258 99.0733 64.2119 99.5551 64.6363C100.037 65.0608 100.083 65.7889 99.6585 66.2707C99.2341 66.7525 98.5059 66.7986 98.0241 66.3742C97.5424 65.9498 97.4963 65.2216 97.9207 64.7398Z" fill="#FFC2C0"/>
<path d="M101.97 60.1421C102.394 59.6604 103.122 59.6143 103.604 60.0387C104.086 60.4631 104.132 61.1913 103.707 61.6731C103.283 62.1548 102.555 62.2009 102.073 61.7765C101.591 61.3521 101.545 60.6239 101.97 60.1421Z" fill="#FFC2C0"/>
<path d="M106.025 55.5396C106.45 55.0578 107.178 55.0117 107.66 55.4361C108.141 55.8606 108.187 56.5888 107.763 57.0705C107.339 57.5523 106.61 57.5984 106.129 57.174C105.647 56.7496 105.601 56.0214 106.025 55.5396Z" fill="#FFC2C0"/>
<path d="M110.07 50.9468C110.495 50.4651 111.223 50.419 111.704 50.8434C112.186 51.2678 112.232 51.996 111.808 52.4778C111.384 52.9595 110.655 53.0056 110.174 52.5812C109.692 52.1568 109.646 51.4286 110.07 50.9468Z" fill="#FFC2C0"/>
<path d="M114.625 46.8002C114.8 46.6023 115.099 46.5915 115.289 46.7582C115.478 46.925 115.497 47.2324 115.331 47.4217C115.164 47.611 114.857 47.6304 114.667 47.4637C114.478 47.2969 114.459 46.9895 114.625 46.8002Z" fill="#FFC2C0"/>
<path d="M117.317 23.9941L115.539 17.8356L121.697 16.0574L119.994 10.1584L113.836 11.9366L112.057 5.77822L106.158 7.48154L107.937 13.64L101.778 15.4182L103.482 21.3172L109.64 19.539L111.418 25.6974L117.317 23.9941Z" fill="#FFC2C0"/>
<path d="M110.032 60.3086C110.102 51.492 107.846 42.8128 103.49 35.1468C99.1348 27.4808 92.8345 21.0992 85.225 16.6459L81.4272 23.1353C87.8953 26.9206 93.2506 32.3449 96.9527 38.861C100.655 45.3772 102.573 52.7544 102.513 60.2485L110.032 60.3086Z" fill="#F87000"/>
<path d="M84.6226 103.518C92.2931 99.1706 98.6813 92.877 103.143 85.2722C107.604 77.6673 109.98 69.0203 110.032 60.2036L102.513 60.1593C102.469 67.6535 100.449 75.0035 96.6572 81.4676C92.8651 87.9317 87.4351 93.2813 80.9152 96.9766L84.6226 103.518Z" fill="#E0211D"/>
<path d="M85.3156 16.699C77.7154 12.2298 69.0708 9.84424 60.2542 9.78309C51.4376 9.72195 42.7608 11.9874 35.0993 16.3508L38.8204 22.8844C45.3326 19.1755 52.7079 17.2499 60.2021 17.3019C67.6962 17.3539 75.0441 19.3816 81.5042 23.1804L85.3156 16.699Z" fill="#FBB900"/>
<path d="M35.1906 16.2989C27.52 20.6462 21.1318 26.9399 16.6706 34.5447C12.2093 42.1496 9.8328 50.7966 9.78089 59.6133L17.2997 59.6576C17.3439 52.1634 19.3639 44.8134 23.156 38.3493C26.948 31.8851 32.378 26.5356 38.898 22.8403L35.1906 16.2989Z" fill="#C5D805"/>
<path d="M9.78162 59.5083C9.71124 68.3249 11.9676 77.0041 16.3229 84.6701C20.6783 92.3361 26.9786 98.7177 34.5882 103.171L38.3859 96.6816C31.9178 92.8963 26.5625 87.4719 22.8605 80.9558C19.1584 74.4397 17.2405 67.0624 17.3004 59.5684L9.78162 59.5083Z" fill="#7ABE26"/>
<path d="M34.4976 103.118C42.0978 107.587 50.7423 109.973 59.559 110.034C68.3756 110.095 77.0524 107.83 84.7138 103.466L80.9927 96.9325C74.4805 100.641 67.1052 102.567 59.6111 102.515C52.117 102.463 44.7691 100.435 38.3089 96.6365L34.4976 103.118Z" fill="#D9D9D9"/>
<circle cx="42.6076" cy="42.6076" r="42.6076" transform="matrix(-0.999968 -0.00798196 -0.00798196 0.999968 102.855 17.6465)" fill="#D9D9D9"/>
<path d="M89.9999 90C106.568 73.4314 106.568 46.5686 89.9999 30C73.4314 13.4315 46.5685 13.4315 30 30C13.4314 46.5686 13.4315 73.4314 30 90C46.5685 106.569 73.4314 106.569 89.9999 90Z" fill="#FFC2C0"/>
<mask id="mask0_8598_12608" style="mask-type:alpha" maskUnits="userSpaceOnUse" x="17" y="17" width="86" height="86">
<path d="M89.9999 90C106.568 73.4314 106.568 46.5686 89.9999 30C73.4314 13.4315 46.5685 13.4315 30 30C13.4314 46.5686 13.4315 73.4314 30 90C46.5685 106.569 73.4314 106.569 89.9999 90Z" fill="#FFD8D8"/>
</mask>
<g mask="url(#mask0_8598_12608)">
<ellipse cx="60.0078" cy="59.999" rx="42.7695" ry="42.7695" fill="#FFC2C0"/>
<path d="M88.5097 88.512C104.257 72.7647 104.257 47.2333 88.5097 31.486C72.7624 15.7387 47.231 15.7387 31.4837 31.486C15.7364 47.2333 15.7364 72.7647 31.4837 88.512C47.231 104.259 72.7624 104.259 88.5097 88.512Z" fill="black"/>
<path d="M90.3151 90.3103C107.059 73.5661 107.059 46.4183 90.3151 29.6741C73.5709 12.9299 46.4232 12.9299 29.6789 29.6741C12.9347 46.4183 12.9347 73.5661 29.6789 90.3103C46.4232 107.055 73.5709 107.055 90.3151 90.3103Z" fill="#FFC2C0"/>
<path d="M78.5774 103.879H40.5518V91.3391C40.5518 85.2747 45.4671 80.3594 51.5314 80.3594L59.5665 83.7758L67.6015 80.3594C73.6658 80.3594 78.5812 85.2747 78.5812 91.3391V103.879H78.5774Z" fill="white"/>
<path d="M54.144 80.3594H51.5265C45.4622 80.3594 40.5469 85.2747 40.5469 91.3391V103.879H55.2854L54.144 80.3594Z" fill="#283F6D"/>
<path d="M54.1461 80.3622H53.0048C51.3423 80.3622 48.4395 85.9662 48.4395 85.9662L52.301 90.0065L49.5009 94.2865L55.2875 103.878L54.1461 80.3584V80.3622Z" fill="#1E2F52"/>
<path d="M45.7742 81.9883C42.6393 83.9209 40.5469 87.3868 40.5469 91.3396V103.879H45.7742V81.9921V81.9883Z" fill="#1E2F52"/>
<path d="M64.9841 80.3594H67.6016C73.6659 80.3594 78.5813 85.2747 78.5813 91.3391V103.879H63.8428L64.9841 80.3594Z" fill="#283F6D"/>
<path d="M64.9841 80.3622H66.1254C67.788 80.3622 70.6908 85.9662 70.6908 85.9662L66.8293 90.0065L69.6294 94.2865L63.8428 103.878L64.9841 80.3584V80.3622Z" fill="#1E2F52"/>
<path d="M73.2959 81.9883C76.4308 83.9209 78.5232 87.3868 78.5232 91.3396V103.879H73.2959V81.9921V81.9883Z" fill="#1E2F52"/>
<path d="M54.2168 79.8017C54.2168 82.6284 56.7315 84.348 59.6952 84.348H59.7903C62.754 84.348 64.8693 82.6284 64.8693 79.8017V73.258C64.8693 70.4313 62.7502 67.6084 59.7903 67.6084H59.6952C56.7315 67.6084 54.2168 70.4313 54.2168 73.258V79.8017Z" fill="#FFC0AD"/>
<path d="M79.8083 45.4668V67.137C79.8083 72.8399 74.9614 77.4585 68.9884 77.4585H51.3433C45.3665 77.4585 40.5234 72.8361 40.5234 67.137V45.8244L79.8121 45.4668H79.8083Z" fill="#FFD4BC"/>
<path d="M60.1671 64.3189C61.3085 64.3189 62.4003 64.0602 63.3743 63.6074C63.4922 63.8395 63.5607 64.083 63.5607 64.3417C63.5607 65.5934 62.0427 66.6053 60.1671 66.6053C58.2915 66.6053 56.7773 65.5934 56.7773 64.3417C56.7773 64.083 56.8458 63.8395 56.9638 63.6074C57.9377 64.064 59.0258 64.3189 60.1709 64.3189H60.1671Z" fill="#FFC0AD"/>
<path d="M67.208 65.7046C67.208 67.0248 68.3303 68.0938 69.7113 68.0938C71.0924 68.0938 72.2147 67.0248 72.2147 65.7046C72.2147 64.3845 71.0924 63.3154 69.7113 63.3154C68.3303 63.3154 67.208 64.3845 67.208 65.7046Z" fill="#FFC0AD"/>
<path d="M53.119 65.7046C53.119 67.0248 51.9967 68.0938 50.6156 68.0938C49.2346 68.0938 48.1123 67.0248 48.1123 65.7046C48.1123 64.3845 49.2346 63.3154 50.6156 63.3154C51.9967 63.3154 53.119 64.3845 53.119 65.7046Z" fill="#FFC0AD"/>
<path d="M64.1567 68.7285C64.1567 71.0987 62.2316 73.0199 59.8576 73.0199C57.4836 73.0199 55.5586 71.0987 55.5586 68.7285" fill="#B83336"/>
<mask id="mask1_8598_12608" style="mask-type:luminance" maskUnits="userSpaceOnUse" x="55" y="68" width="10" height="6">
<path d="M64.1547 68.7246C64.1547 71.0948 62.2297 73.016 59.8557 73.016C57.4817 73.016 55.5566 71.0948 55.5566 68.7246" fill="white"/>
</mask>
<g mask="url(#mask1_8598_12608)">
<path d="M65.009 74.3792C65.009 76.6505 63.1639 78.4918 60.8888 78.4918C58.6137 78.4918 56.7686 76.6505 56.7686 74.3792C56.7686 72.108 58.6137 70.2666 60.8888 70.2666C63.1639 70.2666 65.009 72.108 65.009 74.3792Z" fill="#FC8879"/>
</g>
<path d="M53.4229 58.4091C52.8751 57.5113 51.4408 57.8423 51.1593 58.9037C50.8777 57.8423 49.4435 57.5113 48.8956 58.4091C47.8342 60.144 51.1593 62.3011 51.1593 62.3011C51.1593 62.3011 54.4844 60.144 53.4229 58.4091Z" fill="#ED6B74"/>
<path d="M71.6846 58.4091C71.1368 57.5113 69.7025 57.8423 69.421 58.9037C69.1395 57.8423 67.7052 57.5113 67.1573 58.4091C66.0959 60.144 69.421 62.3011 69.421 62.3011C69.421 62.3011 72.7461 60.144 71.6846 58.4091Z" fill="#ED6B74"/>
<path d="M62.4486 86.0401C62.4486 87.3374 60.7213 88.3913 59.5343 88.3913C58.3473 88.3913 56.6201 87.3374 56.6201 86.0401C56.6201 84.7428 58.374 83.7803 59.5648 83.7803C60.7556 83.7803 62.4524 84.739 62.4524 86.0401H62.4486Z" fill="#283F6D"/>
<path d="M61.752 93.476C61.5542 89.3444 60.0514 86.4644 60.0514 86.4644L59.4731 86.084L58.8949 86.4644C58.8949 86.4644 57.3921 89.3444 57.1943 93.476C56.9964 97.6077 58.0693 103.756 58.0693 103.756H60.8808C60.8808 103.756 61.9498 97.6077 61.7558 93.476H61.752Z" fill="#283F6D"/>
<path d="M54.1448 78.3545L51.5273 80.3594C51.5273 80.3594 52.098 84.5367 56.8079 87.1999C56.8079 84.4416 59.5624 83.7758 59.5624 83.7758C59.5624 83.7758 54.5253 82.0638 54.1448 78.3545Z" fill="white"/>
<path d="M64.983 78.3545L67.6005 80.3594C67.6005 80.3594 67.0298 84.5367 62.3199 87.1999C62.3199 84.4416 59.5654 83.7758 59.5654 83.7758C59.5654 83.7758 64.6025 82.0638 64.983 78.3545Z" fill="white"/>
<path d="M79.7394 39.3107C76.3534 35.6356 72.8762 36.7579 72.8762 36.7579C64.9819 26.7522 52.0962 29.9327 44.3731 35.5138C35.9348 40.9086 34.7402 39.4515 34.7402 39.4515C35.8511 40.9124 37.1751 42.1222 38.48 42.9858C36.0185 51.1692 40.3442 63.431 40.3442 63.431H42.4176V49.7616C42.4176 48.236 43.4639 47.0033 44.8449 46.6495C45.3319 46.524 50.7798 48.8561 59.4578 48.8561C68.1358 48.8561 72.9713 46.4288 72.9713 46.4288C75.7866 45.8049 78.56 47.943 78.56 50.8192V63.4272H79.8688C82.1971 53.916 83.6199 43.5298 79.7356 39.3107H79.7394Z" fill="url(#paint0_linear_8598_12608)"/>
<path d="M79.7411 39.3105C76.7432 36.0577 73.673 36.5637 73.011 36.7197C74.8866 39.942 74.2931 44.1117 71.7061 46.9308C72.5126 46.6341 72.9311 46.4248 72.9311 46.4248C75.7464 45.8009 78.4932 47.939 78.4932 50.8152V63.4232H79.8742C82.2026 53.912 83.6254 43.5258 79.7411 39.3067V39.3105Z" fill="url(#paint1_linear_8598_12608)"/>
<path d="M38.4327 43.1592C36.0891 51.3388 40.3463 63.4217 40.3463 63.4217H42.3475V49.7523C42.3475 48.2039 43.4584 46.9598 44.866 46.6288C42.5263 45.9174 40.3691 44.719 38.4327 43.1592Z" fill="url(#paint2_linear_8598_12608)"/>
</g>
<path d="M87.6777 76.183L103.016 76.1143L95.2872 89.5003L87.6777 76.183Z" fill="#E0211D"/>
<defs>
<linearGradient id="paint0_linear_8598_12608" x1="41.4361" y1="32.7518" x2="75.992" y2="67.3077" gradientUnits="userSpaceOnUse">
<stop stop-color="#A95C00"/>
<stop offset="1" stop-color="#5A2A00"/>
</linearGradient>
<linearGradient id="paint1_linear_8598_12608" x1="76.9334" y1="63.4232" x2="76.9334" y2="36.5941" gradientUnits="userSpaceOnUse">
<stop stop-color="#A95C00"/>
<stop offset="1" stop-color="#5A2A00"/>
</linearGradient>
<linearGradient id="paint2_linear_8598_12608" x1="41.2974" y1="63.4217" x2="41.2974" y2="43.1592" gradientUnits="userSpaceOnUse">
<stop stop-color="#A95C00"/>
<stop offset="1" stop-color="#5A2A00"/>
</linearGradient>
</defs>
</svg>
