<svg width="234" height="234" viewBox="0 0 234 234" fill="none" xmlns="http://www.w3.org/2000/svg">
<g id="CH-1">
<g id="Clip path group">
<g id="Group">
<path id="Vector" d="M117 234C181.617 234 234 181.617 234 117C234 52.3827 181.617 0 117 0C52.3827 0 8.83106e-06 52.3827 1.97247e-05 117C3.06184e-05 181.617 52.3827 234 117 234Z" fill="#D3EDB4"/>
<g id="Mask group">
<mask id="mask0_8786_8347" style="mask-type:alpha" maskUnits="userSpaceOnUse" x="0" y="0" width="234" height="234">
<path id="Vector_2" d="M117 234C181.617 234 234 181.617 234 117C234 52.3827 181.617 0 117 0C52.3827 0 8.83106e-06 52.3827 1.97247e-05 117C3.06184e-05 181.617 52.3827 234 117 234Z" fill="#7ABE26"/>
</mask>
<g mask="url(#mask0_8786_8347)">
<g id="Group_2">
<g id="Group_3">
<path id="Vector_3" d="M170.853 233.674H67.0898V199.456C67.0898 182.908 80.5028 169.495 97.051 169.495L118.977 178.818L140.903 169.495C157.451 169.495 170.864 182.908 170.864 199.456V233.674H170.853Z" fill="white"/>
<path id="Vector_4" d="M104.18 169.495H97.0373C80.4891 169.495 67.0762 182.908 67.0762 199.456V233.674H107.294L104.18 169.495Z" fill="#283F6D"/>
<path id="Vector_5" d="M104.175 169.478H101.06C96.5237 169.478 88.6025 184.77 88.6025 184.77L99.1398 195.795L91.499 207.475L107.289 233.646L104.175 169.468V169.478Z" fill="#1E2F52"/>
<path id="Vector_6" d="M81.3404 173.925C72.786 179.199 67.0762 188.656 67.0762 199.443V233.66H81.3404V173.935V173.925Z" fill="#1E2F52"/>
<path id="Vector_7" d="M133.756 169.494H140.899C157.447 169.494 170.86 182.907 170.86 199.455V233.673H130.642L133.756 169.494Z" fill="#283F6D"/>
<path id="Vector_8" d="M133.756 169.478H136.871C141.407 169.478 149.328 184.77 149.328 184.77L138.791 195.795L146.432 207.475L130.642 233.646L133.756 169.468V169.478Z" fill="#1E2F52"/>
<path id="Vector_9" d="M156.435 173.926C164.989 179.2 170.699 188.657 170.699 199.444V233.661H156.435V173.936V173.926Z" fill="#1E2F52"/>
</g>
<g id="Group_4">
<path id="Vector_10" d="M104.383 167.95C104.383 175.663 111.245 180.356 119.332 180.356H119.592C127.679 180.356 133.451 175.663 133.451 167.95V150.093C133.451 142.38 127.669 134.677 119.592 134.677H119.332C111.245 134.677 104.383 142.38 104.383 150.093V167.95Z" fill="#FFC0AD"/>
<path id="Vector_11" d="M174.221 74.2734V133.407C174.221 148.969 160.995 161.572 144.696 161.572H96.5466C80.2372 161.572 67.0215 148.958 67.0215 133.407V75.2493L174.232 74.2734H174.221Z" fill="url(#paint0_linear_8786_8347)"/>
<path id="Vector_12" d="M141.951 112.277C141.951 116.606 144.142 120.126 146.841 120.126C149.54 120.126 151.731 116.617 151.731 112.277C151.731 107.938 149.54 104.429 146.841 104.429C144.142 104.429 141.951 107.938 141.951 112.277Z" fill="#5A2A00"/>
<path id="Vector_13" d="M89.5137 112.277C89.5137 116.606 91.7042 120.126 94.4034 120.126C97.1026 120.126 99.2931 116.617 99.2931 112.277C99.2931 107.938 97.1026 104.429 94.4034 104.429C91.7042 104.429 89.5137 107.938 89.5137 112.277Z" fill="#5A2A00"/>
<path id="Vector_14" d="M120.621 125.725C123.736 125.725 126.715 125.019 129.373 123.783C129.695 124.416 129.881 125.081 129.881 125.787C129.881 129.202 125.739 131.964 120.621 131.964C115.503 131.964 111.371 129.202 111.371 125.787C111.371 125.081 111.558 124.416 111.88 123.783C114.537 125.029 117.507 125.725 120.631 125.725H120.621Z" fill="#FFC0AD"/>
<path id="Vector_15" d="M139.834 129.494C139.834 133.097 142.897 136.014 146.665 136.014C150.434 136.014 153.496 133.097 153.496 129.494C153.496 125.892 150.434 122.975 146.665 122.975C142.897 122.975 139.834 125.892 139.834 129.494Z" fill="#FFC0AD"/>
<path id="Vector_16" d="M101.391 129.494C101.391 133.097 98.3281 136.014 94.5596 136.014C90.7911 136.014 87.7285 133.097 87.7285 129.494C87.7285 125.892 90.7911 122.975 94.5596 122.975C98.3281 122.975 101.391 125.892 101.391 129.494Z" fill="#FFC0AD"/>
<g id="Group_5">
<path id="Vector_17" d="M108.038 149.476C108.038 143.008 113.291 137.766 119.769 137.766C126.247 137.766 131.5 143.008 131.5 149.476" fill="#B83336"/>
<g id="Clip path group_2">
<mask id="mask1_8786_8347" style="mask-type:luminance" maskUnits="userSpaceOnUse" x="108" y="137" width="24" height="13">
<g id="clippath-7">
<path id="Vector_18" d="M108.043 149.473C108.043 143.005 113.296 137.763 119.774 137.763C126.252 137.763 131.505 143.005 131.505 149.473" fill="white"/>
</g>
</mask>
<g mask="url(#mask1_8786_8347)">
<g id="Group_6">
<path id="Vector_19" d="M112.979 153.769C112.979 147.572 118.015 142.547 124.223 142.547C130.431 142.547 135.466 147.572 135.466 153.769C135.466 159.967 130.431 164.992 124.223 164.992C118.015 164.992 112.979 159.967 112.979 153.769Z" fill="#FC8879"/>
</g>
</g>
</g>
</g>
<path id="Vector_20" d="M92.6182 91.0801L98.5668 94.4491" stroke="#A95C00" stroke-miterlimit="10" stroke-linecap="round"/>
<path id="Vector_21" d="M148.608 91.0811L142.659 94.4501" stroke="#A95C00" stroke-miterlimit="10" stroke-linecap="round"/>
</g>
<g id="Group_7">
<path id="Vector_22" d="M126.838 184.965C126.838 188.506 122.125 191.381 118.886 191.381C115.647 191.381 110.934 188.506 110.934 184.965C110.934 181.425 115.719 178.799 118.969 178.799C122.218 178.799 126.849 181.415 126.849 184.965H126.838Z" fill="#283F6D"/>
<path id="Vector_23" d="M124.942 205.251C124.402 193.977 120.301 186.118 120.301 186.118L118.723 185.08L117.145 186.118C117.145 186.118 113.045 193.977 112.505 205.251C111.965 216.526 114.893 233.302 114.893 233.302H122.565C122.565 233.302 125.482 216.526 124.952 205.251H124.942Z" fill="#283F6D"/>
<path id="Vector_24" d="M104.178 164.003L97.0352 169.474C97.0352 169.474 98.5924 180.873 111.445 188.14C111.445 180.613 118.961 178.797 118.961 178.797C118.961 178.797 105.216 174.125 104.178 164.003Z" fill="white"/>
<path id="Vector_25" d="M133.75 164.003L140.893 169.474C140.893 169.474 139.335 180.873 126.483 188.14C126.483 180.613 118.967 178.797 118.967 178.797C118.967 178.797 132.712 174.125 133.75 164.003Z" fill="white"/>
</g>
<g id="Group_8">
<path id="Vector_26" d="M174.03 57.4719C164.791 47.4433 155.302 50.5059 155.302 50.5059C133.76 23.2024 98.5979 31.8814 77.5234 47.1111C54.4971 61.8321 51.2373 57.856 51.2373 57.856C54.2687 61.8425 57.8815 65.1438 61.4424 67.5004C54.7255 89.8311 66.5293 123.291 66.5293 123.291H72.1873V85.99C72.1873 81.827 75.0422 78.4634 78.8107 77.4979C80.1395 77.1553 95.0059 83.5192 118.686 83.5192C142.366 83.5192 155.561 76.8958 155.561 76.8958C163.244 75.1932 170.812 81.0276 170.812 88.876V123.28H174.383C180.737 97.3266 184.619 68.985 174.02 57.4719H174.03Z" fill="url(#paint1_linear_8786_8347)"/>
<path id="Vector_27" d="M174.025 57.4628C165.845 48.5866 157.467 49.9673 155.66 50.393C160.779 59.1861 159.159 70.5643 152.1 78.257C154.3 77.4472 155.442 76.8763 155.442 76.8763C163.125 75.1737 170.62 81.0081 170.62 88.8566V123.261H174.389C180.742 97.3071 184.625 68.9655 174.025 57.4524V57.4628Z" fill="url(#paint2_linear_8786_8347)"/>
<path id="Vector_28" d="M61.317 67.9883C54.9219 90.3086 66.5389 123.28 66.5389 123.28H71.9996V85.9795C71.9996 81.7542 75.031 78.3594 78.8722 77.4562C72.4875 75.5149 66.6012 72.2447 61.317 67.9883Z" fill="url(#paint3_linear_8786_8347)"/>
</g>
</g>
</g>
</g>
</g>
</g>
</g>
<defs>
<linearGradient id="paint0_linear_8786_8347" x1="120.621" y1="161.572" x2="120.621" y2="74.2734" gradientUnits="userSpaceOnUse">
<stop stop-color="#FFD4BC"/>
<stop offset="0.54" stop-color="#FACFB7"/>
<stop offset="1" stop-color="#FC8879"/>
</linearGradient>
<linearGradient id="paint1_linear_8786_8347" x1="69.5088" y1="39.5741" x2="163.804" y2="133.87" gradientUnits="userSpaceOnUse">
<stop stop-color="#A95C00"/>
<stop offset="1" stop-color="#5A2A00"/>
</linearGradient>
<linearGradient id="paint2_linear_8786_8347" x1="166.364" y1="123.261" x2="166.364" y2="50.0504" gradientUnits="userSpaceOnUse">
<stop stop-color="#A95C00"/>
<stop offset="1" stop-color="#5A2A00"/>
</linearGradient>
<linearGradient id="paint3_linear_8786_8347" x1="69.1343" y1="123.28" x2="69.1343" y2="67.9883" gradientUnits="userSpaceOnUse">
<stop stop-color="#A95C00"/>
<stop offset="1" stop-color="#5A2A00"/>
</linearGradient>
</defs>
</svg>
