<svg width="6" height="10" viewBox="0 0 6 10" fill="none" xmlns="http://www.w3.org/2000/svg">
<path d="M5.42297 4.96779C5.41705 4.86651 5.37723 4.77017 5.30993 4.69425L1.22108 0.151018C1.18101 0.106488 1.13255 0.0702877 1.07848 0.0444841C1.02442 0.0186806 0.965772 0.00377941 0.905946 0.000630379C0.84612 -0.0025177 0.786262 0.00614738 0.729785 0.0261326C0.673308 0.0461178 0.621334 0.0770321 0.576804 0.117109C0.532275 0.157187 0.496091 0.205642 0.470287 0.259708C0.444484 0.313776 0.429559 0.372396 0.426411 0.432221C0.423262 0.492047 0.431951 0.551908 0.451936 0.608384C0.471922 0.664862 0.50282 0.716849 0.542897 0.761379L4.35821 5L0.542897 9.23862C0.50282 9.28315 0.471922 9.33514 0.451936 9.39162C0.431951 9.44809 0.423262 9.50795 0.426411 9.56778C0.429559 9.6276 0.444484 9.68622 0.470287 9.74029C0.496091 9.79436 0.532275 9.84281 0.576804 9.88289C0.621334 9.92297 0.673308 9.95388 0.729785 9.97387C0.786262 9.99385 0.84612 10.0025 0.905946 9.99937C0.965772 9.99622 1.02442 9.98132 1.07848 9.95552C1.13255 9.92971 1.18101 9.89351 1.22108 9.84898L5.30993 5.30518C5.35083 5.25931 5.38194 5.20558 5.40137 5.14728C5.42081 5.08898 5.42816 5.02733 5.42297 4.96609V4.96779Z" fill="#633EE3"/>
</svg>
