<svg xmlns="http://www.w3.org/2000/svg" width="80" height="80" viewBox="0 0 80 80"><defs><style>.a{fill:#f8f8f8;}.b{fill:#593cc7;stroke:#f8f8f8;}</style></defs><g transform="translate(-40 -863)"><rect class="a" width="80" height="80" rx="12" transform="translate(40 863)"/><g transform="translate(43.345 866.969)"><g transform="translate(12.655 14.031)"><path class="b" d="M53.826,41.678V56.209A2.429,2.429,0,0,1,51.4,58.631H22.342a2.429,2.429,0,0,1-2.422-2.422V41.678a7.287,7.287,0,0,0-7.265-7.265h0v4.844h0a2.429,2.429,0,0,1,2.422,2.422V56.209a7.287,7.287,0,0,0,7.265,7.265H51.4a7.287,7.287,0,0,0,7.265-7.265V41.678a2.429,2.429,0,0,1,2.422-2.422h0V34.413h0A7.287,7.287,0,0,0,53.826,41.678Z" transform="translate(-12.655 -19.394)"/><path class="b" d="M63.621,14.031,52.015,25.66V39.937H47.156l7.277,7.277,7.254-7.277H56.851V27.594L67.029,17.416Z" transform="translate(-21.733 -14.031)"/><path class="b" d="M20.322,14.031l-3.385,3.385L27.093,27.594V39.937H22.257l7.277,7.277,7.254-7.277H31.951V25.66Z" transform="translate(-13.782 -14.031)"/></g></g></g></svg>