<svg xmlns="http://www.w3.org/2000/svg" width="54.658" height="50" viewBox="0 0 54.658 50"><defs><style>.a{fill:#ffa630;}.b{fill:none;}.c{fill:#fff;}</style></defs><g transform="translate(6592 7181)"><path class="a" d="M-6588-7157.8h0l2.9,22.9h33.2l2.9-22.9h-39m0-3.9h38.9c2.2,0,4,1.5,4,3.3l-3,24.1c0,1.8-1.8,3.3-4,3.3H-6585c-2.2,0-4-1.5-4-3.3l-3-24.2c0-1.7,1.8-3.2,4-3.2Z"/><path class="a" d="M-6548.8-7157.9h-39.5l3.3,23.5h33.4Z"/><g transform="translate(-6588 -7181)"><circle class="b" cx="19" cy="19" r="19"/><path class="a" d="M19,38A19,19,0,1,1,38,19,18.992,18.992,0,0,1,19,38ZM19,4A15,15,0,1,0,34,19,14.98,14.98,0,0,0,19,4Z"/></g><g transform="translate(-6567.455 -7166.167)"><g transform="translate(1.969) rotate(4.012)"><circle class="a" cx="14.1" cy="14.1" r="14.1" transform="translate(29.185 27.21) rotate(175.988)"/><path class="c" d="M15.1,28.2h-1a14.322,14.322,0,0,1-10-4.1,14.245,14.245,0,0,1,0-20A14.322,14.322,0,0,1,14.1,0h0a14.118,14.118,0,0,1,1,28.2ZM13.3,2.5a12.007,12.007,0,1,0,.8,0h-.8Z"/></g><g transform="translate(11.039 8.629) rotate(4.012)"><path class="c" d="M8.6,1.8a.265.265,0,0,0,.3-.3V.3A.319.319,0,0,0,8.6,0H.3A.265.265,0,0,0,0,.3H0V1.6a.265.265,0,0,0,.3.3H2.7a1.88,1.88,0,0,1,1.7.8H.3A.319.319,0,0,0,0,3V4.1a.265.265,0,0,0,.3.3H4.7A1.963,1.963,0,0,1,2.6,6H.3c-.2.1-.3.2-.3.4V7.9c0,.1,0,.2.1.2l4.6,4.2c.1.1.1.1.2.1H7.2c.2,0,.3-.1.4-.3a.367.367,0,0,0-.1-.3L3.3,8A3.757,3.757,0,0,0,7.1,4.4H8.6a.265.265,0,0,0,.3-.3V3a.265.265,0,0,0-.3-.3H6.9a3.552,3.552,0,0,0-.4-.9Z"/></g></g></g></svg>