<?xml version="1.0" encoding="utf-8"?>
<!-- Generator: Adobe Illustrator 24.3.0, SVG Export Plug-In . SVG Version: 6.00 Build 0)  -->
<svg version="1.1" id="Layer_1" xmlns="http://www.w3.org/2000/svg" xmlns:xlink="http://www.w3.org/1999/xlink" x="0px" y="0px"
	 viewBox="0 0 200 87" style="enable-background:new 0 0 200 87;" xml:space="preserve">
<style type="text/css">
	.st0{fill:#FFFFFF;}
	.st1{fill:#F26F21;}
</style>
<g>
	<g>
		<g>
			<g>
				<path class="st0" d="M60.3,69.8H32.1l-1.7,5.8c-1.3,4.4-5.4,7.5-10,7.5H2.7L30.5,9.3c1.5-4.1,5.4-6.8,9.8-6.8h19.9l25,66.5
					c2.6,6.8-2.5,14.1-9.8,14.1h-11L60.3,69.8z M55.2,52.4l-8.9-29l-8.8,29H55.2z"/>
			</g>
			<g>
				<path class="st1" d="M115.5,69.8H87.3l-1.7,5.8c-1.3,4.4-5.4,7.5-10,7.5H57.9L85.6,9.3c1.5-4.1,5.4-6.8,9.8-6.8h19.9l25,66.5
					c2.6,6.8-2.5,14.1-9.8,14.1h-11L115.5,69.8z M110.3,52.4l-8.9-29l-8.8,29H110.3z"/>
			</g>
			<g>
				<path class="st0" d="M170.5,69.8h-28.3l-1.7,5.8c-1.3,4.4-5.4,7.5-10,7.5h-17.6l27.7-73.8c1.5-4.1,5.4-6.8,9.8-6.8h19.9l25,66.5
					c2.6,6.8-2.5,14.1-9.8,14.1h-11L170.5,69.8z M165.4,52.4l-8.9-29l-8.8,29H165.4z"/>
			</g>
		</g>
	</g>
</g>
</svg>
