<svg xmlns="http://www.w3.org/2000/svg" width="80" height="80" viewBox="0 0 80 80"><defs><style>.a{fill:#f8f8f8;}.b{fill:#593cc7;stroke:#593cc7;stroke-width:0.7px;}</style></defs><g transform="translate(-40 -719)"><rect class="a" width="80" height="80" rx="12" transform="translate(40 719)"/><g transform="translate(33.476 729)"><path class="b" d="M18.352,34.623c-.2-.2-.505-.526-.536-.54-.45-.45-.327-1.016,0-1.709l.536-1.169,6.206,6.206,13.18-13.28,8.184,8.184,8.544-8.544,9.173,9.173,9.692-10.882a1.208,1.208,0,1,1,1.709,1.709l-11.4,12.5L54.466,27.1l-8.544,8.544-8.184-8.184-13.18,13.37-6.206-6.206,1.083-.54C19.256,34.353,18.55,34.819,18.352,34.623Z" transform="translate(0 -1.683)"/><path class="b" d="M18.587,18.908l-.809-.809-.09-.09-6.026-6.116a1.208,1.208,0,0,1,1.709-1.709l4.137,4.137V3.169a1.169,1.169,0,1,1,2.338,0V14.411l4.137-4.137a1.208,1.208,0,1,1,1.709,1.709Z" transform="translate(11.416 3)"/><path class="b" d="M73.877,58.888a1.19,1.19,0,0,1-1.169-1.169V46.387l-4.137,4.137a1.208,1.208,0,0,1-1.709-1.709L73.787,41.8,80.8,48.815a1.208,1.208,0,0,1-1.709,1.709l-4.137-4.137V57.719C75.136,58.348,74.6,58.888,73.877,58.888Z" transform="translate(-19.321 -3.704)"/></g></g></svg>