<svg xmlns="http://www.w3.org/2000/svg" width="12.864" height="16" viewBox="0 0 12.864 16">
  <path id="Path_6592" data-name="Path 6592" d="M5.087,16a.387.387,0,0,1-.387-.386v-9.2L.1.638A.376.376,0,0,1,.034.23.38.38,0,0,1,.387,0H12.478a.385.385,0,0,1,.347.22.381.381,0,0,1-.044.4L8.165,6.412v7.41a.387.387,0,0,1-.173.32l-2.68,1.784A.369.369,0,0,1,5.087,16m.3-9.961a.373.373,0,0,1,.083.239V14.9l1.925-1.281V6.278a.384.384,0,0,1,.1-.262L11.681.771H1.186Z" transform="translate(0)" fill="#7564dd"/>
</svg>
