<svg xmlns="http://www.w3.org/2000/svg" width="42.793" height="42.627" viewBox="0 0 42.793 42.627">
  <g id="Group_2612" data-name="Group 2612" transform="translate(-0.796 -0.794)">
    <path id="Path_6692" data-name="Path 6692" d="M41.8,21.092l-2.873-2.873h0l-15.8-15.8A1.436,1.436,0,0,0,21.1,2.41l-.009.009-15.8,15.8h0L2.418,21.092a1.442,1.442,0,1,0,2.04,2.04l.417-.431V37.912a4.309,4.309,0,0,0,4.309,4.309H35.038a4.309,4.309,0,0,0,4.309-4.309V22.7l.417.431a1.436,1.436,0,0,0,2.031.009l.009-.009a1.436,1.436,0,0,0,.009-2.031Zm-24,18.256V32.166a4.309,4.309,0,0,1,8.618,0v7.182Zm18.673-1.436a1.437,1.437,0,0,1-1.436,1.436H29.293V32.166a7.182,7.182,0,0,0-14.364,0v7.182H9.184a1.437,1.437,0,0,1-1.436-1.436V19.828L22.111,5.464,36.475,19.828Z" transform="translate(0 0)" fill="#fff" stroke="#fff" stroke-width="2.4"/>
  </g>
</svg>
