<svg width="25" height="20" viewBox="0 0 25 20" fill="none" xmlns="http://www.w3.org/2000/svg">
<g clip-path="url(#clip0_1599_5142)">
<path d="M14.8158 13.5612C15.1244 13.763 15.3441 14.0626 15.6182 14.3041C15.7342 14.4625 15.8515 14.621 15.9675 14.7783C16.144 15.0506 16.3193 15.323 16.4958 15.5954C16.5378 15.6994 16.5785 15.8022 16.6205 15.9062C16.6081 15.9495 16.6353 15.9643 16.6686 15.9743C16.7155 16.0956 16.7624 16.2169 16.8093 16.3382C17.0105 16.9437 17.192 17.5528 17.2364 18.1941C17.2303 18.2734 17.229 18.3489 17.2451 18.4306C17.3019 18.7228 17.3821 19.0187 17.2142 19.3035C16.9167 19.7417 16.5625 20.003 15.9761 20.0005C11.0818 19.9807 6.18622 19.9894 1.29189 19.9881C0.493238 19.9881 0.0439222 19.5548 0.00195312 18.7513C0.0241721 18.5656 0.120454 18.3885 0.0636724 18.1941C0.0846569 18.0493 0.105641 17.9057 0.126626 17.7608C0.126626 17.7199 0.126626 17.6779 0.126626 17.637C0.145142 17.5132 0.255002 17.4042 0.188345 17.2656C0.22908 17.1207 0.271049 16.9771 0.311784 16.8322C0.535207 16.212 0.816647 15.6189 1.13635 15.0432C1.43261 14.5121 1.91155 14.1369 2.29914 13.6838C2.54108 13.6083 2.64847 13.3644 2.85215 13.2418C3.51748 12.7763 4.24947 12.463 5.0296 12.2464C5.47645 12.1226 5.93194 12.0619 6.38743 12.0099C7.54158 11.8787 8.70066 11.9653 9.85728 11.9455C10.5954 11.9331 11.32 12.0607 12.0446 12.1808C12.1471 12.2018 12.2508 12.2216 12.3532 12.2427C12.9926 12.463 13.6123 12.7317 14.2023 13.0648C14.3616 13.2876 14.6405 13.3619 14.8195 13.56L14.8158 13.5612ZM8.61549 18.1335C9.84864 18.1335 11.0818 18.1335 12.3149 18.1335C13.2605 18.1335 14.206 18.131 15.1516 18.1359C15.333 18.1359 15.4355 18.1075 15.3466 17.8982C15.3268 17.8524 15.3219 17.8017 15.312 17.7521C15.0689 16.6366 14.5257 15.6883 13.6505 14.9627C12.7038 14.1778 11.5706 13.8262 10.3584 13.8138C9.09937 13.8002 7.83906 13.7519 6.57752 13.8559C5.81591 13.919 5.1086 14.0899 4.43586 14.4588C3.08051 15.2017 2.30408 16.3457 1.9708 17.8388C1.90044 18.1533 2.00536 18.1384 2.23372 18.1384C4.36057 18.1322 6.48865 18.1347 8.61549 18.1347V18.1335Z" fill="#593CC7"/>
<path d="M7.90796 0.238281C8.20297 0.240757 8.49799 0.253138 8.79178 0.24571C9.59783 0.2259 10.3348 0.479708 11.0519 0.812752C11.2161 0.915513 11.3803 1.01827 11.5457 1.12227C11.716 1.27951 11.8963 1.42808 12.0555 1.59646C12.6603 2.23283 13.1812 2.92368 13.3997 3.79777C13.4145 3.85472 13.4466 3.90672 13.4701 3.9612C13.5108 4.29177 13.5528 4.6211 13.5935 4.95167V5.32309C13.5355 5.65118 13.5812 5.99166 13.4701 6.31356C13.259 6.8385 13.0948 7.37707 12.7665 7.85869C12.0826 8.86153 11.189 9.56229 10.0274 9.90029C9.33367 10.1021 8.62513 10.169 7.90672 10.034C7.7228 10.0092 7.53764 9.98324 7.35372 9.95848L6.67481 9.71086C6.5884 9.66629 6.50076 9.62296 6.41435 9.57838C6.40571 9.51896 6.37608 9.48553 6.3119 9.49296C6.21438 9.54619 6.19957 9.39143 6.11439 9.41496L6.11933 9.39019C6.09464 9.37534 6.06996 9.36048 6.04527 9.34562L5.50708 8.97296C5.22811 8.75506 4.99728 8.48887 4.76274 8.2264C4.33565 7.5925 3.93694 6.94622 3.82708 6.16623C3.82214 6.13032 3.78511 6.10061 3.76289 6.06718C3.81597 5.8728 3.72463 5.69575 3.70117 5.51004V4.76719C3.72463 4.58148 3.81597 4.40443 3.76289 4.21005C3.89991 3.73834 4.02828 3.26168 4.28133 2.83454C4.43687 2.57083 4.60227 2.31207 4.76398 2.05084C5.0232 1.81312 5.21823 1.51103 5.50831 1.30427C6.08107 0.906846 6.68591 0.57504 7.35248 0.363328C7.55122 0.384375 7.73144 0.321233 7.90796 0.239519V0.238281ZM11.1161 6.99203C11.1383 7.02793 11.1704 7.05765 11.2062 7.02174C11.242 6.98584 11.2124 6.95365 11.1778 6.93136C11.1964 6.88431 11.2099 6.83479 11.2346 6.7927C11.6827 6.03623 11.8679 5.24138 11.6136 4.37224C11.4136 3.68634 11.0729 3.12425 10.473 2.69216C9.91877 2.29226 9.31269 2.08798 8.66587 2.06445C7.90796 2.03722 7.19325 2.32321 6.6353 2.81845C5.74038 3.61082 5.39969 4.64214 5.66508 5.82947C5.83172 6.57355 6.21561 7.19012 6.84885 7.63212C7.63145 8.17935 8.47454 8.38363 9.41761 8.11992C10.1101 7.92678 10.6643 7.54174 11.1174 6.99327L11.1161 6.99203Z" fill="#593CC7"/>
<path d="M24.577 9.28552C24.4906 9.40685 24.4042 9.52819 24.3177 9.64952C24.1635 9.66438 24.0524 9.80552 23.8882 9.79066C23.0982 9.78695 22.3069 9.78571 21.5169 9.77952C21.3997 9.77952 21.3244 9.78942 21.3268 9.94047C21.3392 10.6709 21.3416 11.4014 21.3491 12.1319C21.3318 12.1938 21.3145 12.2557 21.296 12.3176C21.2133 12.3324 21.1404 12.351 21.2429 12.4439C21.2231 12.5256 21.2034 12.6073 21.1849 12.689C21.0985 12.8103 21.0121 12.9317 20.9257 13.053C20.7714 13.0679 20.6603 13.209 20.4961 13.1942H20.2492C20.127 13.1471 20.0036 13.1001 19.8814 13.053C19.774 12.9317 19.6666 12.8103 19.5604 12.689C19.5259 12.5021 19.4913 12.3164 19.458 12.1294C19.4641 11.3989 19.4679 10.6685 19.4802 9.93923C19.4827 9.78571 19.4037 9.77952 19.2889 9.77952C18.4779 9.78571 17.6681 9.78818 16.8571 9.79066C16.7164 9.79933 16.6127 9.69657 16.4843 9.66438C16.3473 9.56409 16.2473 9.43285 16.1683 9.28428C16.1474 9.24343 16.1276 9.20133 16.1066 9.16048C16.0634 8.95372 16.0634 8.74819 16.1066 8.54143C16.1276 8.50058 16.1474 8.45848 16.1683 8.41763C16.2547 8.27772 16.3399 8.13782 16.4893 8.05363C16.6127 8.01277 16.7362 7.97068 16.8596 7.92982C17.6496 7.92734 18.4396 7.91744 19.2296 7.92734C19.4333 7.92982 19.4876 7.87039 19.4827 7.66982C19.4654 6.97154 19.4654 6.27203 19.4592 5.57375C19.4938 5.3868 19.5283 5.20108 19.5617 5.01413C19.6283 4.8569 19.7431 4.74299 19.8826 4.65014C20.006 4.60928 20.1295 4.56719 20.2529 4.52633C20.3406 4.50404 20.4183 4.54119 20.4973 4.5709C20.6566 4.55976 20.7899 4.64023 20.9294 4.69595C21.0553 4.76899 21.1133 4.89775 21.1861 5.01413C21.2059 5.09585 21.2256 5.17756 21.2441 5.25927C21.1429 5.35213 21.2145 5.37194 21.2972 5.38556C21.3145 5.4487 21.3318 5.51184 21.3503 5.57375C21.3441 6.30174 21.3416 7.0285 21.3281 7.75649C21.3244 7.9323 21.4231 7.92363 21.5416 7.92363C22.207 7.92239 22.871 7.92239 23.5364 7.92363C23.6561 7.92363 23.7796 7.90382 23.8894 7.97439C24.0487 7.96325 24.182 8.03877 24.3215 8.0982C24.4572 8.16382 24.5041 8.30125 24.5782 8.41763C24.5992 8.45848 24.6189 8.50058 24.6399 8.54143C24.7029 8.74819 24.7029 8.95372 24.6399 9.16048C24.6189 9.20133 24.5992 9.24343 24.5782 9.28428L24.577 9.28552Z" fill="#593CC7"/>
<path d="M17.2122 19.3027C17.38 19.0179 17.301 18.7208 17.243 18.4298C17.227 18.3481 17.2282 18.2726 17.2344 18.1934C17.5813 18.2045 17.6331 18.2577 17.5874 18.5895C17.5738 18.6911 17.5627 18.7827 17.5813 18.8879C17.6368 19.2086 17.543 19.3027 17.2109 19.3027H17.2122Z" fill="white"/>
<path d="M16.8077 16.3366C16.7608 16.2153 16.7139 16.0939 16.667 15.9726C16.6509 15.9503 16.6349 15.9268 16.6188 15.9045C16.5768 15.8005 16.5361 15.6977 16.4941 15.5938C16.9385 15.6037 17.0496 15.7213 17.0434 16.1187C17.041 16.2982 16.9694 16.3539 16.8077 16.3366Z" fill="white"/>
<path d="M13.4727 6.31273C13.5838 5.99083 13.5381 5.65036 13.5961 5.32227C13.6356 5.32598 13.6911 5.31484 13.7134 5.33712C13.9479 5.56864 13.7862 5.86083 13.8121 6.12207C13.8319 6.3214 13.6294 6.32016 13.4727 6.31149V6.31273Z" fill="white"/>
<path d="M13.5961 4.9514C13.5554 4.62084 13.5134 4.29151 13.4727 3.96094C13.7825 3.97332 13.8677 4.06741 13.8245 4.3695C13.8121 4.45989 13.7874 4.54036 13.8183 4.63569C13.8763 4.82388 13.7825 4.9254 13.5961 4.95017V4.9514Z" fill="white"/>
<path d="M14.8164 13.5599C14.6374 13.3618 14.3585 13.2887 14.1992 13.0646C14.3399 12.7687 14.5461 13.0584 14.7214 13.0139C14.8288 12.9866 14.8152 13.1401 14.8176 13.2268C14.8213 13.3382 14.8176 13.4484 14.8164 13.5599Z" fill="white"/>
<path d="M21.2416 5.25972C21.2219 5.178 21.2021 5.09629 21.1836 5.01458C21.4206 5.0022 21.6527 4.96753 21.6132 5.34762C21.5922 5.54695 21.5107 5.58533 21.3478 5.57419C21.3305 5.51105 21.3132 5.44791 21.2947 5.386C21.3033 5.33276 21.307 5.28076 21.2416 5.25972Z" fill="white"/>
<path d="M24.5781 9.28463C24.5991 9.24377 24.6189 9.20168 24.6398 9.16082C25.004 9.18063 24.809 8.89216 24.8546 8.7473C24.9089 8.57892 24.7769 8.54302 24.6398 8.54178C24.6189 8.50092 24.5991 8.45883 24.5781 8.41797C25.0571 8.42292 24.9966 8.37216 24.9991 8.88225C25.0015 9.28339 24.9991 9.28339 24.5781 9.28463Z" fill="white"/>
<path d="M7.90904 0.238769C7.73252 0.320483 7.5523 0.383625 7.35357 0.362578C7.37702 0.21277 7.26346 -0.017514 7.57082 0.00105721C7.73499 0.0109619 7.94607 -0.0546565 7.90904 0.238769Z" fill="white"/>
<path d="M21.2966 12.3169C21.3139 12.2549 21.3312 12.193 21.3497 12.1311C21.6139 12.0903 21.6028 12.2599 21.6114 12.4468C21.6213 12.6648 21.5151 12.7068 21.3361 12.6895C21.2868 12.6846 21.2349 12.6895 21.1855 12.6895C21.2053 12.6078 21.225 12.5261 21.2436 12.4444C21.3102 12.4233 21.3053 12.3713 21.2966 12.3181V12.3169Z" fill="white"/>
<path d="M19.56 5.01369C19.5254 5.20064 19.4908 5.38635 19.4575 5.5733C19.1613 5.61416 19.2045 5.40864 19.1995 5.2254C19.1897 4.92083 19.4156 5.03969 19.5612 5.01369H19.56Z" fill="white"/>
<path d="M19.4562 12.1261C19.4908 12.313 19.5253 12.4987 19.5586 12.6857C19.3056 12.7203 19.1636 12.6597 19.1908 12.3514C19.2081 12.1508 19.2945 12.1137 19.4562 12.1248V12.1261Z" fill="white"/>
<path d="M16.1665 8.41704C16.1455 8.45789 16.1258 8.49999 16.1048 8.54084C15.8481 8.69932 15.8481 9.00141 16.1048 9.15989C16.1258 9.20074 16.1455 9.24284 16.1665 9.28369C15.8061 9.27998 15.8184 9.27874 15.8024 8.81941C15.7925 8.5458 15.8184 8.34523 16.1665 8.41704Z" fill="white"/>
<path d="M7.35519 9.95827C7.53911 9.98303 7.72427 10.009 7.90819 10.0338C7.94522 10.3173 7.74649 10.2641 7.57861 10.2765C7.31199 10.2963 7.35272 10.118 7.35519 9.95703V9.95827Z" fill="white"/>
<path d="M11.5465 1.1224C11.3823 1.01964 11.2181 0.916877 11.0527 0.812878C11.0675 0.632118 11.1885 0.601166 11.3317 0.627166C11.4663 0.650689 11.5403 0.742308 11.5465 0.880973C11.5502 0.961448 11.5465 1.04192 11.5465 1.12364V1.1224Z" fill="white"/>
<path d="M20.9286 4.69721C20.7892 4.64026 20.6558 4.56102 20.4966 4.57217C20.4892 4.40874 20.562 4.32579 20.7299 4.33693C20.9842 4.35303 20.9163 4.5474 20.9286 4.69845V4.69721Z" fill="white"/>
<path d="M24.3214 8.09768C24.1819 8.03825 24.0486 7.96272 23.8893 7.97387C23.8795 7.78692 23.9795 7.71634 24.151 7.74111C24.3782 7.7733 24.3066 7.95777 24.3214 8.09768Z" fill="white"/>
<path d="M15.9685 14.7775C15.8524 14.6191 15.7352 14.4606 15.6191 14.3034C15.9006 14.1894 15.9833 14.2315 15.9907 14.5027C15.9932 14.5943 15.9771 14.6859 15.9685 14.7775Z" fill="white"/>
<path d="M23.8887 9.78958C24.0516 9.80444 24.1639 9.66329 24.3182 9.64844C24.3182 9.77967 24.3491 9.93196 24.1578 9.9592C24.0257 9.97777 23.9072 9.9592 23.8887 9.78958Z" fill="white"/>
<path d="M20.4961 13.1919C20.659 13.2068 20.7714 13.0656 20.9257 13.0508C20.9257 13.182 20.9565 13.3343 20.7652 13.3615C20.6331 13.3801 20.5146 13.3615 20.4961 13.1919Z" fill="white"/>
<path d="M16.857 7.92899C16.7336 7.96985 16.6102 8.01194 16.4867 8.0528C16.4719 7.90547 16.5262 7.78785 16.6719 7.75195C16.8003 7.72099 16.8447 7.81756 16.857 7.93023V7.92899Z" fill="white"/>
<path d="M20.2516 4.52665C20.1281 4.5675 20.0047 4.6096 19.8813 4.65046C19.8664 4.50312 19.9208 4.38551 20.0664 4.3496C20.1936 4.31865 20.2392 4.41522 20.2516 4.52789V4.52665Z" fill="white"/>
<path d="M19.8809 13.0527C20.0031 13.0998 20.1265 13.1468 20.2487 13.1939C20.2364 13.2979 20.1858 13.3821 20.0734 13.3561C19.9229 13.3214 19.8673 13.2038 19.8809 13.0527Z" fill="white"/>
<path d="M16.4824 9.66406C16.6096 9.69625 16.7133 9.79901 16.8552 9.79035C16.8441 9.89187 16.7947 9.97482 16.6861 9.95377C16.538 9.9253 16.48 9.81139 16.4837 9.66406H16.4824Z" fill="white"/>
<path d="M12.3504 12.2432C12.248 12.2221 12.1443 12.2023 12.0418 12.1813C12.0332 12.0475 12.0949 11.9943 12.2257 12.0079C12.385 12.0253 12.3393 12.1478 12.3504 12.2432Z" fill="white"/>
<path d="M16.6202 15.9062C16.6363 15.9285 16.6523 15.9521 16.6684 15.9743C16.635 15.9644 16.6079 15.9496 16.6202 15.9062Z" fill="#FCFCFC"/>
<path d="M11.1152 6.99231C11.1177 6.95393 11.1387 6.93412 11.177 6.93164C11.2128 6.95393 11.2424 6.98612 11.2053 7.02202C11.1695 7.05793 11.1375 7.02821 11.1152 6.99231Z" fill="#593CC7"/>
<path d="M24.6387 8.54102C24.7757 8.54102 24.9078 8.57816 24.8535 8.74654C24.8065 8.89139 25.0016 9.17987 24.6387 9.16006C24.7016 8.9533 24.7016 8.74778 24.6387 8.54102Z" fill="white"/>
<path d="M16.1047 9.16006C15.8479 9.00158 15.8479 8.69949 16.1047 8.54102C16.0615 8.74778 16.0615 8.9533 16.1047 9.16006Z" fill="white"/>
<path d="M21.2961 12.3164C21.3048 12.3696 21.3085 12.4216 21.2431 12.4427C21.1418 12.3498 21.2134 12.3313 21.2961 12.3164Z" fill="#593CC7"/>
<path d="M21.2417 5.25977C21.3083 5.28081 21.3034 5.33281 21.2947 5.38605C21.212 5.37119 21.1392 5.35262 21.2417 5.25977Z" fill="#593CC7"/>
</g>
<defs>
<clipPath id="clip0_1599_5142">
<rect width="25" height="20" fill="white"/>
</clipPath>
</defs>
</svg>
