<svg width="14" height="14" viewBox="0 0 14 14" fill="none" xmlns="http://www.w3.org/2000/svg">
<path d="M2.91667 11.0827H3.73333L8.76458 6.05143L7.94792 5.23477L2.91667 10.266V11.0827ZM11.2583 5.2056L8.77917 2.7556L9.59583 1.93893C9.81945 1.71532 10.0942 1.60352 10.4201 1.60352C10.746 1.60352 11.0205 1.71532 11.2438 1.93893L12.0604 2.7556C12.284 2.97921 12.4007 3.2491 12.4104 3.56527C12.4201 3.88143 12.3132 4.15113 12.0896 4.37435L11.2583 5.2056ZM10.4125 6.06601L4.22917 12.2493H1.75V9.77018L7.93333 3.58685L10.4125 6.06601ZM8.35625 5.6431L7.94792 5.23477L8.76458 6.05143L8.35625 5.6431Z" fill="#9AA2AA"/>
</svg>
