<svg width="112" height="112" viewBox="0 0 112 112" fill="none" xmlns="http://www.w3.org/2000/svg">
<path d="M112 56C112 86.9279 86.9279 112 56 112C25.0721 112 0 86.9279 0 56C0 25.0721 25.0721 0 56 0C86.9279 0 112 25.0721 112 56Z" fill="#F4F4FF"/>
<g clip-path="url(#clip0_1548_10315)">
<path d="M34.5187 63.3115C35.2524 63.0322 35.8191 62.4735 36.5273 62.1308C38.5841 61.1345 40.723 60.5758 43.0064 60.4002C45.8309 60.1842 48.6497 60.2562 51.4686 60.308C55.0467 60.3742 58.4604 61.2554 61.3473 63.5045C64.4494 65.9205 66.5033 69.0622 67.2399 73.0448C67.4297 74.0671 67.5487 75.0865 67.628 76.1117C67.7159 77.2348 67.1209 78.0382 66.288 78.666C65.9594 78.9136 65.5571 79 65.1123 79C53.5763 78.9856 42.0432 78.9914 30.5072 78.9914C29.2776 78.9914 27.9603 77.7214 28 76.4688C28.0651 74.4789 28.2663 72.5006 29.0482 70.6345C29.0992 70.5107 29.102 70.3638 29.1275 70.2256C29.1842 69.9377 29.238 69.6526 29.5213 69.4913C29.7111 69.1083 29.8981 68.7224 30.0879 68.3394C30.0086 68.0399 30.1955 67.8988 30.4108 67.7693C31.2296 66.4302 32.3033 65.3071 33.3742 64.1812C33.4507 64.0861 33.5215 63.9882 33.6093 63.9047C33.8133 63.7204 33.9946 63.5045 34.2722 63.4267C34.3544 63.3921 34.4422 63.3605 34.5187 63.3086V63.3115Z" fill="#7E66DF"/>
<path d="M45.1227 55.7005C43.1566 55.1764 41.4058 54.1973 39.9723 52.7719C38.3829 51.1938 37.2526 49.2961 36.7483 47.0356C36.4593 45.7426 36.4933 44.4582 36.499 43.1595C36.482 43.0011 36.499 42.8514 36.6038 42.7218C36.9098 40.5073 37.8362 38.6039 39.2782 36.9192C41.1225 34.7624 43.471 33.4895 46.1992 33.1181C49.205 32.7091 52.0579 33.3484 54.5311 35.2461C56.0241 36.3923 57.2989 37.7457 58.0213 39.5513C57.8655 39.9717 58.078 40.2251 58.4095 40.4209C59.3783 43.1077 59.3783 45.7944 58.4095 48.4812C58.078 48.677 57.8684 48.9304 58.0242 49.3508C57.4774 50.7388 56.5822 51.859 55.4688 52.8151C54.8767 52.7834 54.4461 52.9475 54.4857 53.6703C53.7917 54.4997 52.8029 54.8395 51.8681 55.234C50.1966 55.9424 48.426 56.0432 46.6355 55.9712C46.3125 55.9597 46.0292 55.7034 45.6921 55.8445C45.4683 55.9338 45.2955 55.8243 45.1255 55.7005H45.1227Z" fill="#7E66DF"/>
<path d="M82.2379 45.302C83.2209 45.4604 83.6345 46.1947 83.9433 47.0384C83.9886 47.2803 84.0623 47.5222 83.898 47.7497C83.6289 48.4293 83.2152 48.9937 82.7025 49.5121C79.198 53.057 75.7049 56.6162 72.209 60.1698C71.8832 60.5009 71.5574 60.8407 71.0532 60.8724C70.7274 61.0193 70.3676 60.8465 70.0418 60.9818C69.4922 60.8321 69.0587 60.5125 68.6621 60.1064C66.985 58.3872 65.2908 56.6854 63.6137 54.9633C63.2256 54.5659 62.8516 54.1397 62.8091 53.5321C62.7241 53.2355 62.7298 52.9418 62.8063 52.6452C62.7694 52.2363 63.0839 51.98 63.2256 51.6459C63.3077 51.2284 63.5882 51.142 63.9536 51.1938C64.0896 51.1506 64.2284 51.1074 64.3644 51.0613C64.6591 50.9721 64.9537 50.9721 65.2483 51.0613C65.8489 51.1967 66.3334 51.5279 66.7583 51.9742C67.7555 53.0195 68.7641 54.0505 69.767 55.0871C69.8661 55.2484 69.9143 55.4269 69.9398 55.6141C69.9738 55.8848 70.0531 56.1411 70.3704 56.1584C70.7104 56.1757 70.7614 55.9021 70.7982 55.6343C70.8095 55.5421 70.8322 55.45 70.8917 55.3751C73.9286 52.2737 76.9571 49.1636 80.0083 46.0795C80.3709 45.7138 80.793 45.3538 81.3568 45.3049C81.6514 45.2156 81.9461 45.2156 82.2407 45.3049L82.2379 45.302Z" fill="#7E66DF"/>
</g>
<defs>
<clipPath id="clip0_1548_10315">
<rect width="56" height="46" fill="white" transform="translate(28 33)"/>
</clipPath>
</defs>
</svg>
