<svg width="12" height="12" viewBox="0 0 12 12" fill="none" xmlns="http://www.w3.org/2000/svg">
<path d="M6.25 1.5C6.05109 1.5 5.86032 1.57902 5.71967 1.71967C5.57902 1.86032 5.5 2.05109 5.5 2.25C5.5 2.44891 5.57902 2.63968 5.71967 2.78033C5.86032 2.92098 6.05109 3 6.25 3H8.573L5.97 5.91L5.03 4.97C4.88937 4.82955 4.69875 4.75066 4.5 4.75066C4.30125 4.75066 4.11063 4.82955 3.97 4.97L1.22 7.72C1.08752 7.86217 1.0154 8.05022 1.01883 8.24452C1.02225 8.43882 1.10097 8.62421 1.23838 8.76162C1.37579 8.89903 1.56118 8.97775 1.75548 8.98118C1.94978 8.9846 2.13783 8.91248 2.28 8.78L4.5 6.56L5.47 7.53C5.5421 7.60209 5.62815 7.65873 5.72288 7.69645C5.81761 7.73416 5.91903 7.75217 6.02096 7.74936C6.12288 7.74655 6.22316 7.72299 6.31567 7.68012C6.40818 7.63724 6.49098 7.57595 6.559 7.5L9.5 4.213V6.25C9.5 6.44891 9.57902 6.63968 9.71967 6.78033C9.86032 6.92098 10.0511 7 10.25 7C10.4489 7 10.6397 6.92098 10.7803 6.78033C10.921 6.63968 11 6.44891 11 6.25V2.25C11 2.05109 10.921 1.86032 10.7803 1.71967C10.6397 1.57902 10.4489 1.5 10.25 1.5H6.25Z" fill="#2F8452"/>
</svg>
